<?xml version="1.0" encoding="utf-8"?>
<!-- Generator: Adobe Illustrator 24.1.2, SVG Export Plug-In . SVG Version: 6.00 Build 0)  -->
<svg version="1.1" id="Capa_1" xmlns="http://www.w3.org/2000/svg" xmlns:xlink="http://www.w3.org/1999/xlink" x="0px" y="0px"
	 viewBox="0 0 300 300" style="enable-background:new 0 0 300 300;" xml:space="preserve">
<style type="text/css">
	.st0{fill:#A9CA51;}
	.st1{fill:#FFFFFF;stroke:#26B7C5;stroke-width:1.31;stroke-miterlimit:10;}
	.st2{fill:#F8AD37;}
	.st3{fill:#EE736F;}
	.st4{fill:#FFFFFF;}
	.st5{fill-rule:evenodd;clip-rule:evenodd;fill:#35B4E7;}
</style>
<path class="st0" d="M174.4,200.4c-1-0.1-2-0.1-3,0c-0.3,0-0.7,0.5-0.9,0.8s-0.1,0.8-0.2,1.1c-0.1,0.2-0.3,0.4-0.6,0.5
	c-0.1,0-0.4-0.2-0.6-0.4c-1.4-1.7-2.6-3.5-4.1-5.2c-1-1.1-1.5-2.5-1.5-3.9c0-0.5,0.4-1,0.5-1.5c0.2-1.3-0.5-2.5-1.7-3.1
	c-0.5-0.3-0.8-0.7-1-1.2c-1-2.9-2.5-5.7-4.5-8c-0.5-0.6-0.5-1,0.1-1.4c2.1-1.7,3.4-4.1,4.9-6.3c0.1-0.2,0.2-0.5,0.2-0.7
	c0.1-0.9,0.6-1.2,1.4-1.2h1.8c0.3-1.2,0.1-2.4-0.7-3.3c-1.8-2.5-4.5-3.9-7-5.5c-1.9-1.2-3.4-4.8-1.8-7.1c2.5-3.6,2-7.4,1-11.3
	c-0.2-0.8-0.2-1.7-0.3-2.6c7.8,0.3,15.3,0.7,22.8,1c0.6-0.1,1.3-0.2,1.9-0.4c-1.1-2.4-1.8-4.7-4.4-5.6c-0.6-0.2-1-0.6-1.4-1.1
	c-1.4-2.1-2.7-4.2-4-6.3c-0.9-1.5-1.3-3.4-1-5.2c0.1-1.4,0.1-2.7,0-4.1c1.7-0.5,3.6-1,5.5-1.5c0.5-0.1,1-0.3,1.4-0.6
	c11.6-6.7,23.2-13.3,34.7-20c0.6-0.4,1.4-0.5,2.1-0.2c0.9,0.2,1.9,0.2,2.8,0c1.8-0.2,3.6-0.5,5.3-0.7c0.6-0.1,1.1,0.1,1.6,0.5
	c1.5,1.1,3.1,1.9,4.7,2.9c0.6,0.3,1.1,0.8,1.7,1.1c0.3,0.2,0.6,0.3,0.9,0.3c1.8,0.2,3.2,1.5,3.7,3.2c0.3,0.7,0.3,1.3-0.3,1.8
	c-1.7,1.4-1.1,3.4-0.4,5.1s1.8,3.6,2.6,5.5c0.2,0.6,0.3,1.3,0.3,2c0.1,2.2,0.2,4.5,0.3,6.9H231c0.4,0.5,0.6,0.8,0.8,1.1
	c1.8,2.1,3.7,4.2,5.5,6.3c0.3,0.4,0.5,0.9,0.6,1.4c0.4,4.3,0.7,8.7,1.1,13c0,0.4,0.1,0.8,0.2,1.3c0.6,0.1,1.3,0.1,1.9,0.2l29,1.1
	c1,0,2,0.3,2.6-1c0.6,1.5,0.3,3.2-0.8,4.4c-1.2,1-1.8,2.5-1.7,4.1c0.2,2.2,0.6,4.4,1.1,6.5c0.2,1,0.1,2.1,0.4,3.1
	c0.2,0.5,0.6,1,1.1,1.2c1.7,0.6,3.1,1.6,4.3,2.9c0.9,1.1,2.3,1.4,3.6,0.9c0.3-0.1,0.6-0.1,0.8,0.1c0.5,0.4,1,0.8,1.5,1.3
	c0.1,0.1,0.3,0.5,0.2,0.6c-0.4,0.8,0.1,1.4,0.5,2c0.2,0.3,0.4,0.7,0.4,1.1c0,1.1,0.2,2.2,0.8,3.1c0.8,1.5,1.6,3,2.4,4.6
	c0.2,0.3,0.2,0.6,0.2,0.9c-0.5,1.4-1,2.7-1.4,4.1c-1,3.2-2,6.4-3,9.6c1.2,0.1,1.2,1,1.2,1.8l-0.3-0.2c-0.5,0.4-0.9,0.9-1.3,1.5
	c-2,4-3.8,8.1-5.8,12.1c-0.3,0.5-0.2,1.2,0.3,1.5l0,0c1.4,1.2,2.7,2.5,4.3,3.9l-4.1,2.6c-0.1-1.8-0.2-3.4-0.4-5
	c-0.1-0.5-0.4-1-0.8-1.3c-5.5-3-11.1-6-16.6-8.9c-0.7-0.2-1.4-0.4-2-0.3c-4.7-0.3-9.5-0.6-14.2-0.9c-0.5,0-1,0-1.4,0.2
	c-8.7,2.7-17.7,4.2-26.7,5.7c-1.5,0.3-3.1,0.5-4.6,0.8c-0.4,0.1-0.7,0.4-0.9,0.8c-0.4,0.9-0.8,1.9-1.1,2.9
	c-1.2,4.6-4.1,8.3-6.7,12.1c-0.3,0.3-0.6,0.5-1,0.5c-6.2,0-12.3,0.1-18.5,0c-0.8-0.2-1.6-0.5-2.3-1c-0.6-0.3-1-0.4-1.5,0
	c-0.9,0.9-2,0.6-3.1,0.5c-0.2,0-0.5-0.5-0.5-0.7c-0.1-1.1-0.1-2.2-0.2-3.3c-0.5-6.1-1-12.3-1.4-18.4c0-1.3,0.1-2.6,0.4-3.9
	C174.2,201.1,174.3,200.8,174.4,200.4"/>
<path class="st1" d="M131.6,44.8c0.3-0.1,0.6-0.2,0.8-0.2c0.9,0.3,1.8,0,2.4-0.7c1.2-1,2.4-2.1,3.5-3.1c0.2-0.2,0.4-0.4,0.6-0.6
	c1.2-0.9,2.4-1.8,3.4-2.5c-0.5,1.2-0.5,2.5,0,3.7c0.5,1.3,1,2.6,1.7,3.8c0.5,1,0.9,2.2,0.1,3.2c-1.6,2.2-1.5,4.4-0.5,6.7
	c0.3,0.7,0.5,1.3,0.8,2c0.2,0.3,0.5,0.6,0.8,0.7c1.5,0.4,1.9,1.2,1.4,2.7s-0.2,1.8,1.5,2.4c0.2-0.3,0.3-0.6,0.7-1.1
	c0.3,0.5,0.5,1.1,0.7,1.7c0.2,0.8,0.3,1.6,0.4,2.4c0,0.9,0.8,1.6,1.7,1.6c0.3,0,0.6,0,0.9,0c1.1-0.2,2.2,0.5,2.4,1.6
	c0.5,1.4,1.9,1.6,3.1,2c0.9,0.2,1.5,0.9,1.6,1.8c0.2,1.7,2.3,3.1,4.4,3.2c1.3,0.1,2.6,0.3,3.9,0.6c0.7,0.2,1.3,0.4,2,0.6
	c0.6,0,1.1-0.1,1.6-0.5c1.2-1.3,2.6-1.2,4-0.7c1.6,0.5,3,1.5,4,2.8c1.2,1.7,3,1.8,4.7,0.7c1.4-0.9,1.6-0.8,2.1,0.8
	c0.3,1.1,1,2.1,1.9,2.8c1,0.6,1.9,1.3,2.8,2.1c0.6,0.5,1.1,0.8,1.8,0.3c0.4-0.3,0.7-0.2,0.9,0.3c0.2,0.3,0.4,0.5,0.7,0.7
	c1.1,0.6,2.3,1.1,3.6,1.6c1.1,0.3,2.3,0.3,3.5,0.2c1.2-0.2,2.1,0.1,2.3,1.3c0.3,1.3,1.1,2.4,2.3,3.1c1,0.6,1.9,1.5,2.5,2.6
	c0.2,0.5,1.1,0.8,1.6,1.1l-2.2,1.3c-10.1,5.8-20.3,11.8-30.4,17.5c-1.9,1-4.1,1.4-6.2,2c-0.7,0.2-1.3,0.4-2.2,0.6
	c1.1,2.1,0.5,4.2,0.5,6.2c0,1,0.3,2.1,0.8,3c1.4,2.5,2.8,4.9,4.4,7.3c0.4,0.6,0.9,1.1,1.6,1.4c1.8,0.8,3.1,2.3,3.6,4.2
	c-1.7,0-3.4,0-5.1,0c-4.6-0.2-9.2-0.4-13.8-0.6c-1.4-0.1-2.7-0.4-4-0.5c-0.9,0-1.9,0.2-2.8,0.4c-2.2,0.3-4.3,0.5-6.5,0.8
	c-0.4,0.1-0.8,0.4-1.1,0.8c-0.6,1-1.1,2-1.4,3c-0.2,0.8-0.4,1.6-0.5,2.4c-0.2,1.4-1.3,2.5-2.8,2.8c-2,0.6-4,1.3-6,1.7
	c-1.9,0.3-3.8,0-5.5-1c-2.7-1.3-4.9-3.5-6.3-6.1c-1.2-2-2.6-3.8-4.3-5.4c-0.3-0.4-0.7-0.7-1.1-1c-1.8-1.8-3.6-3.7-5.5-5.4
	c-1-0.9-1.8-1.7-1.6-3.2c0-0.3-0.1-0.5-0.3-0.8c-0.7-1.3-1.4-2.5-2.2-3.7c-0.4-0.4-0.9-0.7-1.4-0.8c-0.9,0-1.7-0.7-1.7-1.7
	c0-0.2,0-0.3,0.1-0.5c0.1-0.4,0.2-0.8,0.2-1.2c0.2-0.8-0.1-1.6-0.7-2.1c-1.2-1-1.9-2.5-1.6-4.1c0.1-0.6,0-1.2-0.1-1.8
	c-0.2-1-0.1-2.1,0.3-3.1c0.2-0.7,0.2-1.4,0.1-2.1c-0.2-2.2,0-4.4,0.7-6.6c0.5-1,1.1-2,1.9-2.8c0.6-0.8,1.1-1.4,0.2-2.4
	c-0.8-0.9-0.2-2.7,0.9-3.7c0.7-0.6,1.3-1.3,1.9-1.9c0.9-0.9,1.8-1.8,2.6-2.7c0.3-0.3,0.6-0.7,0.7-1.1c0.5-1.5,1-3.1,1.4-4.6
	c0.2-1.2,0.3-2.5,0.3-3.7c0.1-1.2-0.2-2.5,0.7-3.6c0.1-0.3,0.2-0.7,0.2-1c0-1,0.1-1.9,0.3-2.9c0.6-1.6,0.1-2.9-0.4-4.4
	c-0.2-1-0.2-2.1,0-3.2c0-0.2,0.4-0.3,0.7-0.4c0.5-0.2,1.1-0.3,1.6-0.6c0.8-0.4,1.5-0.8,1.3-2.1c-0.3-2,0.4-2.9,2.4-2.6
	s3.3-0.7,4.8-1.6c0.3-0.2,0.5-0.5,0.7-0.8c1.2-2.1,2.5-4.1,3.6-6.3c0.4-0.9,0.7-1.9,0.9-2.9L131.6,44.8"/>
<path class="st2" d="M77.3,109.2l2.8-0.8c-0.7-1.6-0.2-3.5-2-4.6c-0.2-0.2-0.3-0.4-0.4-0.7c-0.5-1.3-0.9-2.7-1.3-4.1
	c-0.1-0.2,0-0.5,0.1-0.7c2-2.5,1.6-5.3,1.5-8.2c-0.1-2-0.1-3.9-0.2-5.9c-0.1-1.6,1-2.4,2.1-3.2c0.4-0.3,0.8-0.6,1.1-1
	c0.3-0.4,0.5-0.9,0.7-1.4c0.4-1.1,1.3-2,2.4-2.4c2-0.7,3.7-1.7,4.2-4.1c0.1-0.5,0.8-0.9,1.3-1.2c0.8-0.4,1.2-1.2,1-2.1
	c-0.2-1,0.3-1.5,1.2-1.8c1.3-0.5,2.7-1,4-1.5c0.3-0.1,0.6,0,0.9,0.1c5.7,2.6,11.3,5.2,17,7.8c0.5,0.2,0.8,0.7,0.7,1.3
	c-0.1,1.1,0.1,2.2,0,3.2c-0.1,0.9-0.2,1.7-0.5,2.6c-0.2,0.9-0.5,1.7-0.8,2.6c-0.4,1.4-0.8,2.8-2.3,3.6c-0.4,0.2-0.7,0.8-1,1.2
	c-1.1,1.2-2.2,2.4-3.2,3.7c-0.9,1.4-0.8,3.1,0.3,4.4c-0.7,0.7-1.3,1.4-1.9,2.1c-0.4,0.6-0.7,1.2-0.8,1.9c-0.6,2.3-0.8,4.8-0.5,7.2
	c0.1,0.3,0,0.7-0.1,1c-0.5,1.2-0.6,2.5-0.3,3.7c0.2,1.2,0,2.5,0.3,3.7c0.2,0.8,0.6,1.5,1.2,2c0.8,0.6,1.1,1.7,0.8,2.6
	c-0.5,1.2,0,2.6,1.2,3.3c0.1,0.1,0.3,0.3,0.5,0.2c1.4-0.3,1.7,0.8,2.2,1.7c0.8,1.5,2,2.8,1.8,4.7c0,0.4,0.4,0.9,0.7,1.2
	c1.7,1.6,3.4,3.2,5.1,4.7c-0.1,0.3-0.1,0.4-0.2,0.4c-1.7,1-2.1,2.5-2,4.4c0.1,1.7,0,3.4,1.2,4.8c1.5,1.8,1.1,4.1,1.8,6.1
	c0.4,1.4,0.5,2.8,0.2,4.2c0,0.8-0.7,1.5-1.5,1.5l0,0c-0.7,0-1.6,0-2,0.4c-0.7,0.9-1.2,1.9-1.6,2.9c-0.1,0.1,0.1,0.5,0.2,0.6
	c2.1,2.3,2.7,5.2,3.2,8.1v0.4c-0.6,0.3-1.2,0.7-1.9,1c-0.2,0.1-0.5-0.1-0.7-0.1s-0.2-0.1-0.2-0.2c-0.7-0.7-1.2-1.9-2-2
	c-1.2-0.1-2.4,0.2-3.5,0.8c-2.8,1.7-5.6,3.5-8.3,5.4c-0.3,0.2-0.2,0.9-0.2,1.4c0,0.3,0,0.6,0,1c-0.3,0-0.6-0.1-0.9-0.2
	c-1.8-1.1-3.5-2.6-5.5-3.3c-2.8-1.1-5.9-0.9-8.4,0.7c-0.5,0.3-0.9,0.8-1.3,1.2c-1.6,2.2-3.9,3.8-6.5,4.5c-1.3,0.4-2.6,0.4-3.9,0
	c-1.4-0.5-1.6-0.7-1.6-2.2c0.1-1.2-0.4-2.3-1.3-3.1c-1.6-1-2.4-2.9-2-4.7c0.1-1.3-0.4-2.6-1.5-3.3c-0.3-0.2-0.6-0.4-0.9-0.5
	c0.5-1.1,1.4-1.9,2.4-2.4c1.3-0.6,2.4-1.7,3-3c1.2-2.3,3-4.2,5.3-5.4c0.8-0.4,0.9-0.9,0.6-1.8c-0.7-1.7-0.3-3,1.4-3.6
	c0.5-0.2,1.1-0.4,1.5-0.7c0.3-0.2,0.7-0.7,0.7-1c-0.1-0.4-0.4-0.8-0.8-1.1c-0.3-0.3-0.9-0.5-1.2-0.8c-0.7-0.9-2-1.2-3-0.6
	c-0.9,0.3-1.9-0.2-2.2-1.2c0,0,0,0,0-0.1c-1.2-3.1-2.3-6.2-3.5-9.3c-0.1-0.3,0-0.7,0.1-1c0.7-1.4,1.4-2.9,2.1-4.2
	c0.4-0.8,1.1-1.5,2-1.7c0.5,0,0.8-0.5,0.8-0.9c0-0.2-0.1-0.4-0.3-0.6c-0.7-0.8-1.5-1.5-2.2-2.2c-1.3-1.2-2.4-2.5-1.7-4.5
	c0.2-0.4,0.4-0.8,0.7-1.1c0.8-0.7,1.3-1.5,1.5-2.5c0.1-0.6,0.3-1.1,0.8-1.5c1.1-1.1,2.3-2.1,3.5-3c0.5-0.3,0.6-0.8,0.4-1.3
	C77.3,110.4,77.2,109.9,77.3,109.2"/>
<path class="st1" d="M122.9,185.1c-0.8-0.1-1.6-0.2-2.4-0.3s-1.4,0-1.6-0.8c-0.3-0.9,0.1-1.9,1-2.3c1.6-1,3.3-0.9,5-0.8
	c0.6,0,1.3-0.2,1.8-0.6c1.1-0.6,2-1.4,3.1-1.9c0.7-0.4,1.7-0.1,2,0.6c0,0,0,0.1,0.1,0.1c0.5,0.8,1,2,2.4,1.5
	c0.3-0.1,0.8,0.2,1.1,0.5c1.2,1.1,2.5,2.1,3.6,3.3s2,2.3,3,3.5l-4.1-1c-0.1,0.9-0.1,1.7,0,2.6c0.2,1.1,0.6,2.2,0.9,3.4
	c0.1,0.6,0.4,0.9,0.9,0.9c0.8,0.1,1.6,0.3,2.4,0.4c0,0.2,0.1,0.3,0,0.3c-1.2,0.9-1.7,2.4-1.3,3.8c0,0.3-0.1,0.6-0.3,0.9
	c-0.6,0.9-0.5,2.1,0.3,2.8c0.8,1.1,1.6,2.1,2.4,3.2c1.2,1.6,5.3,2.8,7.3,2.2c1.3-0.4,2.5,0.7,2.8,2.3c0.2,1.2,0.6,2.4,1.1,3.5
	c0.3,0.6,0.3,0.9-0.1,1.4c-1.8,2.1-3.8,3.8-6.8,4c-1.1,0.2-2.1,0.6-3.1,1.2c-0.2,0.1-0.3,0.2-0.3,0.4c-0.4,1.7-1.4,3.4-0.7,5.3
	c1,2.7,1.3,5.3-0.4,8c-0.7,1.2-0.7,2.8-1,4.2c-0.5,2-0.8,4.1-0.8,6.1c0,1.1,0.4,2.1,1.1,2.8c0.8,0.8,1.6,1.6,2.5,2.4
	c0.8,0.5,1,1.5,0.5,2.2c-0.1,0.1-0.1,0.2-0.2,0.3c-0.4,0.6-0.7,1.2-0.9,1.8c-0.4,0.8-0.2,1.7,0.4,2.3c1.2,1.2,1.9,2.7,2,4.4
	c-0.9,0-1.9,0-2.8,0c-1.9,0-3.7,0-5.6,0.2c-1.2,0.2-2.5-0.3-3.1-1.4c-1.5-2.3-3.8-4-6.5-4.8c-1.1-0.4-1.3-0.3-1.6,0.9
	c-0.3,1.3-0.6,2.7-0.9,4c-0.1,0.9-0.8,1.6-1.7,1.8c-1.7,0.4-3.4,0.8-5.1,1.3c-0.8,0.2-1.5,0.6-1.6,1.6c-0.1,2.3-1,3.8-3.4,4.2
	c-0.3,0.1-0.6,0.3-0.9,0.5c-0.6,0.1-0.9,0.7-0.8,1.3v0.1c0.2,0.9-0.2,1.8-1,2.2c-0.5,0.3-0.8,0.6-1.1,1.1c-0.4,1.1-1.5,1.9-2.7,1.9
	c-1.6,0.4-3.1,0.7-4.8,0.9c-1.6,0-3.2-0.3-4.8-0.7c-0.3-0.1-0.6-0.7-0.7-1.1c-0.1-0.7-0.1-1.3,0.1-2c0.4-1.6,0.3-3.4-0.2-4.9
	c-0.4-1.8-0.7-3.6-0.9-5.4c-0.1-1.1-0.6-2-1.4-2.7c-1-0.7-1.5-1.8-1.4-3c0.1-1.8-0.4-3.6-1.5-5c-0.2-0.3-0.3-0.7-0.3-1.1
	c0.5-3.7-0.6-7.4-3-10.3c-0.3-0.4-0.6-0.8-0.8-1.3c-0.3-0.8-1.1-1.4-2-1.3c-0.4,0-0.8-0.3-1-0.6c-0.5-1.3-0.1-2.8,0.8-3.8
	c1.1-0.8,1.1-1.4,0-2.2c-0.6-0.4-1.4-0.7-2-1.1c-0.7-0.4-1.4-0.9-2-1.5c-0.5-0.5-0.7-1.2,0.2-1.7c0.2-0.1,0.3-0.6,0.2-0.9
	c-0.3-1.3-0.7-2.6-1.1-4.1c0.8-0.2,1.8-0.3,2.7-0.5c0.4-0.1,0.7-0.4,1-0.7c0.2-0.3,0.3-0.7,0.4-1.1c0.7-1.3,0.2-2.9-1-3.8
	c-1.7-1.4-1.6-1.3-0.4-3c0.4-0.5,1.1-0.6,1.6-0.4c4.7,1.7,9.3,3.3,14,4.8c0.5,0.1,1.1,0,1.6-0.2c5.9-2.6,11.9-5.1,17.8-7.7
	c0.6-0.2,1.1-0.6,1.5-1.1c1.7-2.2,4.4-3.3,7.1-3c0.9,0,1.8-0.1,2.6-0.2c1.3-0.2,1.7-1.1,0.8-2.1c-1.8-1.8-3.1-4.1-3.8-6.6
	c-0.3-1.2-1.4-1.3-2.3-1.5c-2.3-0.2-4.2-1.6-5.1-3.6c-0.7-1.3-0.3-2.9,1.1-3.7c0.1-0.1,0.3-0.1,0.4-0.2
	C122.4,186.6,123,186.3,122.9,185.1"/>
<path class="st1" d="M95.9,64.4c-1.1,0.6-1.8,1-2.6,1.3c-0.5,0.2-1.1,0.3-1.7,0.5c-1.7,0.6-2,1-2.1,2.8c-0.1,0.5-0.3,0.9-0.7,1.2
	c-0.9,0.5-1.6,1.4-1.8,2.4c-0.4,1.9-2.3,2.1-3.8,3c-4.2-10-10.5-18.8-15.8-28l0.1-0.4c2.2,0.1,4.4,0.1,6.6,0.4s4.3,0.7,6.6,1.1V51
	c1.5,0.1,3.1-0.2,4.5-0.8c1.1-0.5,2.1-1,3.3-1.4c1.1-0.2,2.2-0.9,2.8-1.8c0.7-1.3,1.6-2.6,2.4-3.8c0.2-0.3,0.5-0.6,0.9-0.7
	c1.6-0.4,3.2-0.7,4.7,0.3c1.1,0.7,1.7,0.5,2.2-0.8c0.6-1.5,1.7-2.7,3.1-3.4c1.3-0.8,2.5-1.6,3.6-2.5c0.3-0.2,0.8-0.3,1.2-0.3
	c1.6,0.3,2.7-0.6,3.7-1.5c1.3-1.1,2.4-2.4,3.7-3.4c0.9-0.7,2.1-1.2,3-1.9c0.8-0.7,1.8-1.1,2.8-1.2c2.6,0.1,4.7-1.5,7.1-1.8
	c2.3-0.3,4.6-0.4,6.9-0.3c0.7,0.1,1.3,0.4,1.8,0.8c1.5,0.8,2,0.6,3.1-1.2c0.2-0.3,0.4-0.6,0.6-0.8c0.5-0.6,1-0.5,1.3,0.2
	c0.6,1.1,1.2,2.1,0.6,3.5c-0.2,0.9-0.1,1.8,0.1,2.7c0.1,0.7,0.3,1.3,0.5,1.9c0.4,1.4-1.1,3.1-2.5,3.8c-0.3,0.2-0.6,0.4-0.9,0.6
	c-0.8,0.7-1.6,1.4-2.4,2.1c-0.4,0.4-0.9,0.7-1.3,1.1c-1,0.9-2,1.9-3.1,2.8c-0.6,0.5-1.4,0.8-2.3,0.8c-1,0.1-2,1-3,1.5l0.1,0.3
	l1.3,0.3c-0.2,0.5-0.4,1.1-0.6,1.6c-1.1,2.2-2.4,4.3-3.7,6.3c-0.9,1.2-2.3,1.9-3.8,1.9c-0.8,0-1.6,0-2.4,0.1
	c-0.7,0.1-1.2,0.6-1.3,1.3c-0.2,0.7-0.3,1.4-0.3,2.1c0.1,0.8-0.3,1.4-1,1.5c-2.5,0.3-2.8,2-2.8,3.9c0,0.4,0.1,0.8,0.3,1.2
	c0.8,1.2,0.9,2.8,0.4,4.1c-0.3,1.1-0.4,2.2-0.4,3.3L95.9,64.4"/>
<path class="st1" d="M120.2,180.6c-2.2,1-2.4,1.4-2.2,3.4c0,0.8,0.6,1.4,1.3,1.6c0.7,0.1,1.4,0.2,2.1,0.3c0,0.1-0.1,0.2-0.1,0.2
	c-0.9,0.5-1.9,0.7-2.1,2c-0.4,1.7,0,3.6,1.3,4.9c1.3,1.4,3.1,2.3,5,2.5c0.6,0.1,1.1,0.5,1.4,1c0.7,2.5,2,4.8,3.8,6.6
	c0.2,0.2,0.3,0.4,0.4,0.7c-1.7,0.1-3.2,0.3-4.7,0.3c-1.7-0.1-3.4,0.5-4.6,1.8c-1.4,1.5-3.1,2.6-5,3.4c-5.1,2.1-10,4.4-15.1,6.5
	c-0.7,0.3-1.5,0.3-2.2,0.1c-4.3-1.4-8.5-2.9-12.8-4.4c-0.3-0.1-0.6-0.3-1.1-0.4c0.7-0.8,1.4-1.5,2-2.3c-0.7-1.4-1.8-2.5-3.3-3.1
	c-0.4-0.2-0.8-0.5-1.2-0.8c-1.1-1-2.2-2-3.3-3c-0.6-0.6-1.2-1.3-1.7-2.1c-0.1-0.3-0.1-0.6,0-0.9c0.4-0.6,0.3-1.4-0.1-2
	c-1.1-1.9-1.6-4.1-1.3-6.3c0.1-0.4,0-0.8-0.3-1.2c-0.5-0.9-0.8-1.9-0.9-3c-0.2-0.9-0.5-1.8-0.9-2.6c0.4-0.6,0.8-1.3,1.3-1.8
	c0.4-0.3,0.8-0.6,1.3-0.6c2.6-0.5,4.9-2,6.3-4.2c1.1-1.6,3-2.5,4.9-2.6c2.7-0.3,5.4,0.5,7.4,2.3c0.6,0.5,1.3,1,1.9,1.4
	s1.3,0.8,2,0.2c0.6-0.5,0.8-1.3,0.4-2c-0.1-0.1-0.1-0.3-0.2-0.5c3.4-1.8,6-4.8,9.9-5.9c0.8-0.3,1.7,0,2.1,0.8c0.8,1.1,1.7,2,2.7,2.7
	C117.5,175.1,119.3,177.7,120.2,180.6"/>
<path class="st3" d="M164.6,168.7c-1.1,0.4-2,0.7-2.9,1c-0.2,0.1-0.4,0.3-0.5,0.5c-0.9,3-2.8,5.3-5,7.3c-0.9,0.9-1,1.6-0.1,2.6
	c2,2.3,3.5,5,4.4,7.9c0.2,0.7,0.6,1.3,1.3,1.6c1.4,0.7,1.7,1.6,1,2.8c-0.5-0.6-1.3-0.6-1.9-0.2l-0.1,0.1c-1.4,1.2-2.5,1-3.5-0.6
	c-0.9-1.4-3.3-2.5-4.7-1.9c-1.5,0.6-2.8,1.6-3.7,2.9c-1.1-0.5-2.1-0.8-2.7-2.1c-0.7-1.1-1.5-2-2.4-2.8c-1.4-1.4-2.8-2.7-4.1-4.2
	c-1.1-1.6-2.7-2.8-4.5-3.6c-1.3-0.3-2.4-1.1-3.1-2.2c-0.4-0.8-2.7-0.6-3.8,0c0,0-0.1,0-0.1,0.1c-1.8,2.2-4.2,2.1-6.6,2
	c-0.4,0-0.7-0.2-0.9-0.6c-1.1-3-3.1-5.5-5.8-7.2c0.1-0.1,0.2-0.2,0.4-0.3c2.1-1.2,2-1.2,1.7-3.5c-0.3-2.4-1.2-4.6-2.6-6.5
	c-0.8-0.9,0.3-3.1,1.5-3.2c0.3,0,0.6,0,0.9-0.1c1.1,0,2-0.8,2.1-1.9c0.2-0.9,0.3-1.7,0.4-2.6c0-0.3,0-0.7-0.1-1
	c-0.4-1-0.7-2.1-0.8-3.1c0-2.1-1.2-3.6-2-5.4c-0.3-0.6-0.5-1.3-0.6-1.9c-0.1-0.6,0-1.2-0.1-1.8c-0.3-1.7,0.5-2.8,2.1-3.6
	c1.7,2.1,4.5,3.4,5.3,6.4v0.1c2.9,3.9,6.1,7.6,11.4,7.9c1.7-0.1,3.5-0.4,5.1-1c1.4-0.4,2.9-1,4.2-1.6c0.6-0.3,1-0.8,1.3-1.4
	c0.4-1.2,0.6-2.4,0.9-3.6c0.4-0.9,0.8-1.9,1.3-2.8c0.2-0.2,0.4-0.3,0.7-0.3c2.5-0.3,5.1-0.6,7.5-0.9c0.2,1.1,0.4,2.2,0.6,3.3
	c0.8,3.5,1.3,7-1,10.1c-2,2.7-0.2,7.1,2.1,8.5c1.3,0.7,2.6,1.5,3.8,2.5c1.2,1.1,2.3,2.2,3.4,3.4
	C164.7,168.1,164.7,168.5,164.6,168.7"/>
<path class="st1" d="M200.9,229.2c-0.1,1.2-0.3,2.2-0.3,3.3c0,2,0,4,0,6.1c-0.6,0-1.3,0.1-1.9,0.1c-9.4,0-18.8,0-28.2-0.1
	c-0.7,0-1.3-0.2-1.8-0.7c-0.8-1.1-2-1-3.2-1.4c-0.1,0.6-0.3,1-0.3,1.5c0,0.4,0,0.8,0,1.2c0,2.3-0.8,2.8-3,2.2c-1.6-0.5-3-1.5-4-2.8
	c-0.3-0.4-0.7-0.7-1.1-0.9c-1.3-0.5-2.1,0.1-2.4,1.6c-0.1,0.4-0.3,0.9-0.6,1.3c-0.4-0.2-0.9-0.5-1.3-0.7c-1.4-0.8-2.9-1.4-4.4-2
	c-1.1-0.4-1.4,0-1.6,1.2c-0.3,2.9-0.6,5.7-0.9,8.6c0,0.3-0.1,0.7-0.1,1l-0.3,0.2c-1.1-1.2-2.6-2.3-3.1-3.7s0-3.2,0.1-4.8
	c0.1-0.8,0.4-1.5,0.4-2.3c0.1-1.9,0.7-3.8,1.6-5.5c0.8-1.3,1-3,0.5-4.4c-0.3-0.7-0.3-1.4-0.6-2.1c-0.5-1.6-0.4-3.4,0.5-4.9
	c0.5-0.7,1.2-1.1,2-1.3c1.6-0.4,3.1-0.4,4.6-1.4c1.6-1,3-2.3,4-3.9c0.2-0.3,0.2-0.7,0-1c-0.8-1.2-1.3-2.6-1.4-4
	c-0.2-2.4-2.2-3.4-4.5-2.6c-0.3,0.1-0.6,0.1-0.8,0.1c-2-0.4-4-1-5.2-2.9c-0.5-0.8-1.2-1.5-1.8-2.2c-0.7-0.6-0.8-1.6-0.3-2.3
	c0-0.1,0.1-0.1,0.1-0.2c-0.1-1.7,0.5-3.3,1.5-4.5c0.4-0.5-0.1-1.3-0.8-1.3c-2,0-3.1-0.9-3.2-3c-0.2-0.8-0.4-1.6-0.8-2.4
	c1.9,0.4,3.8,0.9,5.6,1.6c0.6,0.3,1,1.2,1.5,1.9c0.3,0.4,0.6,1,1,1.2c1.1,0.6,2.2,1.1,3.6,1.8c-0.5-2,0.9-2.6,2-3.4
	c1.4-0.8,3.2-0.4,4.2,0.9c1.5,2.5,3.5,2.6,5.6,0.8c0.3,0.8,0.6,1.6,0.9,2.3c0.3,0.9,0.8,1.7,1.3,2.5c0.9,1.2,2,2.3,3,3.4
	c0.5,0.5,0.9,1.2,1.2,1.8c0.2,0.7,0.9,1.1,1.6,1c0.8-0.1,1.2-0.6,1.4-1.4c0.1-0.4,0.1-0.7,0.2-1.1h1.9c0,0.2,0,0.4,0,0.6
	c-0.7,3.2,0,6.3,0.1,9.4c0.1,1.4,0.1,2.7,0.2,4.1c0.1,1.5,0.4,3,0.5,4.6c0.2,2.2,0.3,4.3,0.4,6.5c0.1,2,0.1,2,2.1,2.2
	c1,0.3,2.1,0,2.9-0.6c0.3-0.2,0.6-0.2,0.9,0c1.1,0.7,2.5,1.1,3.8,0.9c5.3-0.1,10.6,0,15.9,0L200.9,229.2"/>
<path class="st1" d="M193.9,262.7c-1.4-0.8-2.3-1.7-2.2-3.3c0.1-0.8-0.4-1.2-1.3-1.1c-6.5,0-13.1,0.1-19.6,0
	c-0.6-0.1-1.1,0.3-1.3,0.8c-0.9,2.2-1.8,4.4-2.8,6.5c-0.5,1-1.1,1.9-1.8,2.7c-0.9,1.2-1.5,2.6-1.5,4c0,0.7-0.1,1.4-0.3,2
	c-0.1-0.3,0-0.8-0.2-0.9c-2.1-1.6-1.3-4.5-2.8-6.3c-0.3-0.7-0.5-1.4-0.5-2.1c-0.2-1.6-1.4-2.9-3-3.2c-1.5-0.2-3-0.6-4.4-1.1
	c-1.1-0.4-2.3-0.6-3.5-0.5h-0.6c-0.7-1.5-1.3-2.8-1.9-4.1c-0.1-0.2-0.2-0.4-0.3-0.5c-0.7-0.8-0.8-2-0.1-2.9c0.5-0.9,0.8-1.9,0.9-2.9
	c0.4-3.5,0.8-7.1,1.1-10.6c0.1-0.7,0.6-0.7,1-0.5c1.2,0.5,2.4,1.2,3.5,1.9c0.7,0.5,1.3,1,2.3,0.7s0.8-1.1,1.1-1.8
	c0.1-0.4,0.4-1.1,0.6-1.1c0.5,0,0.9,0.3,1.2,0.6c1.6,2.1,4.2,3.4,6.9,3.4c0.8,0.1,1.5-0.4,1.6-1.2v-0.1c0.2-1.1,0.2-2.2,0.4-3.6
	c0.5,0.2,1.1,0.5,1.6,0.9c0.8,0.8,1.8,1.2,2.9,1.2c9.7,0,19.4,0,29.1,0c0.3,0,0.6,0,1,0.1C198.6,247.3,196.2,254.9,193.9,262.7"/>
<path class="st4" d="M-0.4,71.8c0-0.2,0.1-0.5,0.3-0.6C0,71,0.2,70.8,0.4,70.8h0.2c0.1,0,0.3,0,0.3,0.1l0.3,0.2
	c0.5,0.3,1.1,0.5,1.7,0.7l-0.8,1.6c-0.7-0.3-1.4-0.6-2.1-1l-0.3-0.2l0,0C-0.4,72.2-0.4,72-0.4,71.8L-0.4,71.8z"/>
<path class="st4" d="M4.3,72.3c0.2,0.1,0.4,0.1,0.7,0.2c1,0.2,2,0.3,3,0.4c-0.1,0.3-0.3,0.7-0.4,1s-0.2,0.4-0.2,0.6l0,0
	c-0.9-0.1-1.8-0.2-2.7-0.3C4.3,74,3.9,74,3.6,73.9L4.3,72.3L4.3,72.3z"/>
<path class="st4" d="M9.1,73.8c0.1-0.3,0.2-0.6,0.4-0.9c0.3,0,0.6,0,0.9,0h1.1c0.5,0,0.9,0,1.4-0.1c-0.1,0.6-0.1,1.1-0.1,1.6h-0.1
	H12l-2.2,0.1h-1C8.9,74.3,9,74,9.1,73.8L9.1,73.8z"/>
<path class="st4" d="M85.3,125c0.1-0.7,0.2-1.4,0.3-2s0.2-1.5,0.3-2.3l1.6-0.4c-0.3,1.5-0.5,3.1-0.6,4.6l-1.6,0.5
	C85.3,125.3,85.3,125.2,85.3,125L85.3,125z"/>
<path class="st4" d="M86.2,118.7c0.2-1.3,0.4-2.6,0.7-4l1.6-0.2c-0.2,1.3-0.5,2.7-0.7,4l-1.6,0.4V118.7L86.2,118.7z"/>
<path class="st4" d="M88.2,108l1.6-0.4c0,0.1,0,0.2,0,0.3c-0.3,1.7-0.7,3.4-1,5.1l-1.6,0.2C87.6,111.4,87.9,109.7,88.2,108L88.2,108
	z"/>
<path class="st4" d="M88.6,104.1c0-0.5,0-1-0.1-1.6l1.6-0.8v0.5c0,0.8,0,1.7,0,2.5c0,0.4-0.1,0.8-0.1,1.1l-1.6,0.4
	C88.5,105.6,88.6,104.9,88.6,104.1L88.6,104.1z"/>
<path class="st4" d="M88.3,100.5c-0.1-0.5-0.2-1-0.3-1.6s-0.3-1-0.4-1.4c-0.1-0.2-0.1-0.4-0.2-0.6l-0.2-0.5l1.3-1.4
	c0.1,0.2,0.2,0.4,0.2,0.7s0.2,0.6,0.3,0.9c0.2,0.6,0.3,1.1,0.5,1.7l0.2,0.9c0.1,0.3,0.1,0.7,0.2,1l0,0l-1.6,0.8
	C88.4,100.9,88.4,100.7,88.3,100.5L88.3,100.5z"/>
<path class="st4" d="M85.8,93.9c-0.3-0.3-0.6-0.6-0.9-0.9c-0.3-0.2-0.6-0.4-0.9-0.6c0.2-0.6,0.4-1.2,0.6-1.7l0.4,0.2
	c0.6,0.4,1.2,0.8,1.8,1.3c0.4,0.4,0.8,0.9,1.1,1.4L86.6,95C86.4,94.7,86.1,94.3,85.8,93.9z"/>
<path class="st4" d="M75,90.2l0.6-0.2l1-0.3c0.3-0.1,0.7-0.2,1-0.3c-0.2-0.8-0.4-1.5-0.6-2.2l1.6-0.4l0,0c0.3,0.8,0.5,1.6,0.6,2.5
	c0.8,0,1.6,0.1,2.3,0.3c0.6,0.1,1.1,0.3,1.7,0.6h0.1l-0.6,1.7l-0.6-0.3c-0.5-0.2-1.1-0.4-1.7-0.5c-0.3,0-0.6-0.1-0.9-0.1
	c0,0.6,0.1,1.2,0.1,1.7c0,0.2,0,0.4,0,0.6c-0.4,0-0.8,0-1.2,0H78c0-0.6,0-1.1,0-1.7c0-0.2,0-0.4-0.1-0.6c-0.5,0.1-0.9,0.2-1.4,0.3
	l-1,0.3l-0.2,0.1C75.2,91.1,75.1,90.7,75,90.2z"/>
<path class="st4" d="M69.5,92.9c0.1-0.1,0.1-0.1,0.2-0.1c0.6-0.4,1.2-0.7,1.8-1s1.2-0.6,1.8-0.9c0.1,0.3,0.1,0.6,0.2,0.9
	s0.1,0.4,0.2,0.6l-0.3,0.2c-1,0.5-2,1-3,1.5L69.5,92.9L69.5,92.9z"/>
<path class="st4" d="M65.4,97.2c0.6-0.9,1.2-1.8,2-2.5c0.2-0.2,0.5-0.5,0.7-0.7l0.9,1.1c-0.2,0.2-0.4,0.4-0.6,0.6s-0.5,0.5-0.7,0.8
	s-0.4,0.5-0.6,0.8s-0.4,0.7-0.6,1.1L65,98.2h-0.1C65,97.8,65.2,97.5,65.4,97.2L65.4,97.2z"/>
<path class="st4" d="M64.4,105.1c-0.3-0.8-0.5-1.6-0.5-2.4c0-0.4,0-0.9,0-1.3c0-0.5,0.1-1.1,0.3-1.6h0.3l1.2,0.2
	c0,0.2-0.1,0.3-0.1,0.5c-0.1,0.6-0.1,1.3-0.1,1.9c0.1,0.5,0.2,1,0.3,1.4L64.4,105.1C64.5,105.1,64.4,105.1,64.4,105.1L64.4,105.1z
	 M65.6,100.4C65.6,100.4,65.6,100.3,65.6,100.4L65.6,100.4z"/>
<path class="st4" d="M65.3,106.3l1.3-1.3c0.1,0.1,0.3,0.3,0.5,0.4c0.3,0.1,0.5,0.2,0.8,0.3c0.3,0,0.7,0,1,0c0.4-0.1,0.8-0.1,1.2-0.3
	l0.3-0.1l-0.2,1.2l-0.1,0.6c-0.6,0.2-1.2,0.3-1.8,0.3c-0.4,0-0.7,0-1.1-0.1c-0.3-0.1-0.7-0.2-1-0.4c-0.2-0.1-0.4-0.2-0.5-0.4
	L65.3,106.3L65.3,106.3z"/>
<path class="st4" d="M71.7,106.2c0.1-0.6,0.3-1.2,0.4-1.8c0.8-0.5,1.5-1.1,2.2-1.7c0.4-0.4,0.8-0.9,1.2-1.4l0,0l1.1,0.8
	c-0.3,0.4-0.6,0.8-0.9,1.1c-0.7,0.8-1.6,1.5-2.5,2.1C72.5,105.7,72.1,106,71.7,106.2L71.7,106.2L71.7,106.2z"/>
<path class="st4" d="M77,98.3c0.2-0.5,0.3-1,0.5-1.5c0.1-0.5,0.2-0.9,0.3-1.4c0-0.2,0-0.3,0.1-0.5h0.2h0.7h0.7
	c0,0.2-0.1,0.4-0.1,0.7c-0.3,1.8-1,3.5-1.9,5.1l-0.9-0.7l-0.2-0.2C76.6,99.3,76.8,98.8,77,98.3L77,98.3z"/>
<path class="st4" d="M75.5,83.9c0-0.1-0.1-0.1-0.1-0.2l1.3-1.3l0.3,0.4c0.4,0.8,0.8,1.5,1.1,2.4v0.1l-1.7,0.5
	C76.1,85.1,75.8,84.5,75.5,83.9L75.5,83.9z"/>
<path class="st4" d="M74.1,81.8l-1.2-1.4l-0.3-0.3l1.3-1.3l0.2,0.3c0.5,0.6,1,1.1,1.4,1.7l0.3,0.4l-1.3,1.3
	C74.6,82.5,74.1,81.8,74.1,81.8z"/>
<path class="st4" d="M69.4,75l1.1,0.8c0.3,0.2,0.6,0.5,1,0.8l0.4,0.4c0.1,0.1,0.3,0.2,0.4,0.3l0.6,0.6c-0.4,0.4-0.9,0.9-1.3,1.3
	l-0.5-0.5c-0.2-0.2-0.3-0.3-0.5-0.4L70.2,78c-0.3-0.3-0.7-0.6-1-0.8s-0.6-0.4-0.9-0.6C68.7,76,69,75.6,69.4,75L69.4,75z"/>
<path class="st4" d="M64.8,72.1l1.1,0.7l1.6,1c0.2,0.1,0.4,0.3,0.6,0.4h0.1l-1,1.5l-0.3-0.2c-0.2-0.1-0.4-0.3-0.6-0.4l-1.6-1
	c-0.3-0.2-0.6-0.3-0.9-0.5L64.8,72.1L64.8,72.1z"/>
<path class="st4" d="M60.9,70.1l0.6,0.3l0.6,0.3l0.7,0.3l0.8,0.4l-0.1,0.1L62.7,73l-0.8-0.4c-0.5-0.3-1-0.5-1.6-0.7l-0.5-0.2
	C60.2,71.1,60.5,70.6,60.9,70.1L60.9,70.1z"/>
<path class="st4" d="M56.5,68.5c0.5,0.2,1.1,0.4,1.6,0.6s1,0.3,1.5,0.5l-1.1,1.5c-0.5-0.2-1.1-0.4-1.6-0.6s-1-0.3-1.5-0.5
	C55.7,69.5,56.1,69,56.5,68.5z"/>
<path class="st4" d="M52.3,66.8c0.8,0.4,1.6,0.8,2.5,1.1l0.3,0.1L54,69.5l-0.3-0.1c-0.5-0.2-1.1-0.4-1.6-0.7l-0.9-0.4L52.3,66.8
	L52.3,66.8z"/>
<path class="st4" d="M47.7,64.6L47.7,64.6c0.3,0.1,0.6,0.3,0.9,0.4c0.8,0.4,1.6,0.8,2.4,1.2c-0.4,0.5-0.8,1-1.1,1.5
	c-0.9-0.4-1.7-0.8-2.5-1.3c-0.3-0.2-0.5-0.3-0.8-0.5C46.9,65.4,47.3,65,47.7,64.6z"/>
<path class="st4" d="M44.7,64.4c-0.4-0.4-0.8-0.8-1.2-1.2L43.1,63l1.3-1.3l0.3,0.3c0.4,0.4,0.9,0.8,1.3,1.2c0.2,0.2,0.5,0.4,0.7,0.6
	l-1.2,1.4L45,64.8L44.7,64.4L44.7,64.4z"/>
<path class="st4" d="M35.2,62.2c0-0.1-0.1-0.2-0.1-0.3l0.5-0.4c0.6-0.5,1.3-1.1,1.9-1.7l1.7-1.6l0.2-0.2c0.1-0.1,0.3-0.3,0.4-0.4
	c0-0.1-0.1-0.2-0.1-0.4c-0.2-0.6-0.4-1.2-0.6-1.8C39,55.2,39,55,38.9,54.8c0.5-0.4,1-0.8,1.4-1.3c0.1,0.2,0.1,0.5,0.2,0.7
	c0.2,0.7,0.4,1.3,0.7,2l0.8-0.9c0.2-0.2,0.3-0.3,0.5-0.5l0.3,0.4c0.1,0.2,0.2,0.3,0.3,0.5l0.2,0.3l-0.1,0.1
	c-0.3,0.3-0.5,0.6-0.8,0.8l-0.6,0.7c0.1,0.3,0.3,0.6,0.4,0.9s0.4,0.8,0.7,1.2c0.1,0.2,0.2,0.3,0.3,0.5s0.2,0.3,0.3,0.4l-1.3,1.3l0,0
	c-0.2-0.2-0.4-0.5-0.5-0.7c-0.1-0.1-0.1-0.2-0.2-0.3l-0.3-0.5c-0.2-0.2-0.3-0.5-0.4-0.8s-0.2-0.5-0.4-0.7l0,0L40,59.3
	c-0.6,0.5-1.1,1.1-1.7,1.6S37,62,36.4,62.6l-0.8,0.7C35.4,62.9,35.3,62.5,35.2,62.2z"/>
<path class="st4" d="M38.3,52.8c-0.1-0.3-0.2-0.7-0.2-1c-0.1-0.6-0.2-1.2-0.3-1.8c-0.1-0.4-0.1-0.8-0.2-1.2s-0.1-0.6-0.1-0.9l0,0
	L39,47c0,0.1,0,0.1,0,0.2c0,0.2,0,0.5,0,0.7c0.1,0.7,0.2,1.4,0.3,2.1s0.3,1.3,0.4,2v0c-0.4,0.4-0.9,0.8-1.3,1.2L38.3,52.8L38.3,52.8
	z"/>
<path class="st4" d="M37.5,45.8c0-0.3,0-0.5,0-0.8c0-0.4,0-0.9,0.1-1.3c0-0.3,0-0.5,0.1-0.8s0.1-0.6,0.1-0.9c0.5,0,1,0,1.5,0
	c0,0.1,0,0.2,0,0.3c0,0.3-0.1,0.5-0.1,0.8L39.1,44c0,0.2,0,0.5,0,0.7s0,0.4,0,0.6l-1.6,0.9C37.5,46.2,37.5,46,37.5,45.8L37.5,45.8z"
	/>
<path class="st4" d="M39.6,35.7c0.1-0.1,0.1-0.2,0.2-0.4l0.2,0.2c0.3,0.3,0.5,0.7,0.8,1c-0.1,0.2-0.2,0.4-0.3,0.6
	c-0.4,1-0.7,2.1-0.9,3.2H38C38.3,38.7,38.9,37.1,39.6,35.7L39.6,35.7z"/>
<path class="st4" d="M41.1,34l-0.3-0.3c0.1-0.2,0.3-0.4,0.4-0.5c0.3-0.4,0.7-0.7,1.1-1.1c0.4-0.4,0.9-0.7,1.3-1l0.2-0.1
	c0,0.4,0,0.9-0.1,1.3c0,0.2,0,0.3,0,0.5c-0.4,0.3-0.7,0.6-1,0.9c-0.4,0.4-0.7,0.8-1.1,1.3C41.6,34.5,41.4,34.3,41.1,34L41.1,34z"/>
<path class="st4" d="M45.6,30.1c0.9-0.4,2-0.6,3-0.5c0.3,0,0.6,0.1,0.9,0.2l-1.1,1.5h-0.1c-0.3-0.1-0.7-0.1-1-0.1
	c-0.5,0.1-1,0.2-1.4,0.3l-0.5,0.2C45.4,31.3,45.5,30.7,45.6,30.1L45.6,30.1z"/>
<path class="st4" d="M50.8,34.8c-0.1-0.3-0.2-0.7-0.3-1c-0.1-0.2-0.2-0.4-0.3-0.7c-0.2-0.4-0.4-0.7-0.6-1.1c0.4-0.5,0.7-1,1.1-1.5
	l0.2,0.3c0.1,0.1,0.2,0.3,0.3,0.4s0.2,0.4,0.3,0.6c0.5,0.9,0.8,1.9,1,2.9v0.2l-1.6,0.8C50.9,35.4,50.9,35.1,50.8,34.8L50.8,34.8z"/>
<path class="st4" d="M50.1,41.5c0.3-0.9,0.6-1.8,0.8-2.7c0.1-0.5,0.1-1,0.2-1.5l1.6-0.8c0,0.3,0,0.5,0,0.8c-0.1,0.9-0.2,1.9-0.5,2.8
	c-0.2,0.6-0.4,1.2-0.6,1.8L49.9,42C50,41.8,50,41.6,50.1,41.5z M50.8,38.9L50.8,38.9z"/>
<path class="st4" d="M47,49l-0.2-0.3c0.3-0.6,0.7-1.2,1-1.8l0.5-1.1c0.2-0.3,0.3-0.7,0.5-1s0.3-0.7,0.5-1.1l1.6-0.2l-0.4,1
	c-0.1,0.3-0.2,0.5-0.3,0.8s-0.3,0.7-0.5,1c-0.3,0.7-0.7,1.4-1.1,2.1l-0.6,1c-0.1,0.1-0.1,0.2-0.2,0.3l0,0L47,49z"/>
<path class="st4" d="M44,53.9l-0.4-0.5l0.8-1c0.4-0.6,0.8-1.2,1.2-1.8l0.2-0.2l0.1,0.1c0.3,0.3,0.6,0.7,0.9,1L46,52.7
	c-0.4,0.6-0.9,1.2-1.4,1.8l-0.1,0.1C44.3,54.4,44.2,54.2,44,53.9L44,53.9z"/>
<path class="st4" d="M30.9,65.1c0.4-0.3,0.9-0.7,1.3-1s0.9-0.7,1.4-1.1c0.2,0.5,0.3,1,0.5,1.4L33,65.3l-1.4,1.1
	C31.4,65.9,31.2,65.5,30.9,65.1L30.9,65.1z"/>
<path class="st4" d="M26.4,69.3l-0.2-0.8l0.3-0.2c0.7-0.5,1.3-0.9,2-1.4l1-0.8l0.6,1.3L29.3,68l-2,1.4L26.6,70
	C26.6,69.7,26.5,69.5,26.4,69.3L26.4,69.3z"/>
<path class="st4" d="M19.9,72.7c0-0.3,0-0.7,0-1c0.3-0.1,0.6-0.2,0.9-0.3c0.7-0.3,1.4-0.6,2.1-0.9c0.6-0.3,1.2-0.7,1.9-1
	c0.1,0.2,0.1,0.4,0.2,0.6s0.1,0.5,0.2,0.8c-1.5,0.9-3.1,1.7-4.8,2.2L20,73.2v-0.5H19.9z"/>
<path class="st4" d="M14.5,72.6h0.1l1.8-0.2c0.6-0.1,1.3-0.2,1.9-0.3c0,0.3,0,0.7,0,1v0.6c-0.8,0.2-1.6,0.3-2.4,0.4l-1.6,0.2
	C14.3,73.7,14.4,73.1,14.5,72.6L14.5,72.6z"/>
<path class="st4" d="M88.3,141.4c-0.2,0.1-0.3,0.3-0.3,0.5c0.1,1.2,0,2.4-0.1,3.6c0,0.3-0.1,0.5-0.1,0.7l1.9,0.1
	c0.1-0.6,0.2-1.1,0.2-1.7c0.1-0.8,0.1-1.7,0-2.5V142v-0.2c0-0.1-0.1-0.3-0.2-0.4C89.2,141.2,88.7,141.1,88.3,141.4L88.3,141.4z"/>
<path class="st4" d="M87.5,147.8l-0.2,0.9c-0.1,0.3-0.2,0.7-0.3,1c0.6,0.1,1.2,0.3,1.8,0.4c0.2-0.6,0.3-1.1,0.4-1.7
	c0-0.2,0.1-0.3,0.1-0.5l-1.7-0.1L87.5,147.8z"/>
<path class="st4" d="M86,152.2c-0.1,0.2-0.3,0.5-0.4,0.7c0.4,0.3,0.8,0.5,1.2,0.8l0.3,0.2c0.2-0.4,0.5-0.8,0.7-1.2s0.3-0.6,0.4-1
	c-0.6-0.1-1.2-0.3-1.8-0.4C86.3,151.5,86.1,151.8,86,152.2L86,152.2z"/>
<path class="st4" d="M84.5,154.5c-0.3,0.4-0.7,0.9-1.1,1.3c-0.3,0.3-0.7,0.6-1,0.9l1.4,1c0.5-0.4,1-0.9,1.5-1.4
	c0.3-0.3,0.6-0.7,0.9-1.1l-0.5-0.3c-0.4-0.2-0.7-0.4-1.1-0.6L84.5,154.5L84.5,154.5z"/>
<path class="st4" d="M80.5,158c-0.4,0.2-0.8,0.4-1.2,0.6l-1.3,0.6l0.1,0.1c0.3,0.3,0.5,0.6,0.8,0.9l0.3,0.3l0.6-0.3
	c0.9-0.4,1.8-0.9,2.7-1.5l-1.4-1.1L80.5,158L80.5,158z"/>
<path class="st4" d="M71.2,160.6l-0.2,0.3c0.3,0.1,0.7,0.2,1,0.4s0.6,0.3,0.9,0.4l-0.1,0.1c-0.4,0.3-0.8,0.5-1.2,0.8l-0.8,0.6
	c-0.5,0.4-1,0.9-1.4,1.3c-0.3,0.3-0.5,0.6-0.7,0.9l1.8,0.5c0.3-0.4,0.6-0.7,0.9-1c0.4-0.4,0.8-0.7,1.3-1c0.2-0.2,0.5-0.4,0.7-0.5
	s0.5-0.3,0.8-0.5l0.3-0.2c0.3,0.3,0.6,0.6,0.8,0.9c0.3,0.4,0.6,0.8,0.8,1.3c0.6-0.2,1.2-0.3,1.8-0.5c0,0,0-0.1-0.1-0.1
	c-0.3-0.6-0.7-1.1-1.1-1.6c-0.2-0.3-0.4-0.5-0.7-0.7l0,0l1.2-0.5l0.4-0.2l-0.7-0.8l-0.4-0.5l-1,0.4l-0.9,0.4
	c-0.3-0.2-0.6-0.4-0.9-0.5c-0.5-0.3-1-0.5-1.6-0.7C71.7,160,71.4,160.3,71.2,160.6L71.2,160.6z"/>
<path class="st4" d="M67.6,167.8c-0.1,0.5-0.1,1.1,0,1.6c0.1,0.3,0.2,0.5,0.3,0.8c0.1,0.3,0.3,0.5,0.5,0.8l0.1,0.1l1.4-1.1
	c-0.1-0.2-0.2-0.3-0.3-0.5c-0.1-0.2-0.2-0.4-0.2-0.7s0-0.5,0.1-0.8c0.1-0.2,0.1-0.4,0.2-0.6l-1.8-0.5
	C67.7,167.2,67.6,167.5,67.6,167.8z"/>
<path class="st4" d="M69.8,172.2c0.6,0.4,1.2,0.7,1.9,0.8c0.7,0.1,1.5,0.1,2.2,0c0.3-0.1,0.7-0.1,1-0.3c0.3-0.1,0.6-0.2,0.8-0.4
	l-1.7-1c-0.3,0.1-0.6,0.1-0.8,0.1h-0.5h-0.5c-0.2,0-0.3-0.1-0.5-0.1l-0.4-0.2L69.8,172.2L69.8,172.2z"/>
<path class="st4" d="M76.6,166.3c0.1,0.3,0.2,0.6,0.2,0.9c0,0.3,0,0.6,0,0.9c-0.1,0.4-0.3,0.8-0.5,1.2s-0.5,0.8-0.8,1.1l1.5,0.9
	l0.2-0.2c0.4-0.5,0.7-1,1-1.6c0.2-0.5,0.4-1.1,0.5-1.6c0-0.3,0-0.6,0-0.9c0-0.3-0.1-0.7-0.2-1v-0.1C77.9,166,77.3,166.2,76.6,166.3
	L76.6,166.3z"/>
<path class="st4" d="M66.1,158.9c-0.1,0.5-0.1,1.1-0.2,1.6l0.7-0.1c0.8,0,1.7,0,2.5,0.1l0.6-0.8c0.2-0.2,0.3-0.4,0.5-0.6l-0.7-0.1
	c-0.4-0.1-0.9-0.1-1.3-0.1C67.4,158.8,66.8,158.8,66.1,158.9L66.1,158.9z"/>
<path class="st4" d="M63.1,159.4c-0.7,0.2-1.4,0.5-2,0.8c-0.5,0.2-1,0.5-1.5,0.8l1.2,1.2l0.1-0.1c0.9-0.5,2-1,3-1.3
	c0.1-0.6,0.1-1.1,0.2-1.7C63.8,159.3,63.5,159.3,63.1,159.4L63.1,159.4z M63.9,160.9L63.9,160.9L63.9,160.9z"/>
<path class="st4" d="M57.9,162.3c-0.8,0.7-1.6,1.5-2.2,2.4l0.6,0.2l1.2,0.4c0.3-0.5,0.7-0.9,1.1-1.4c0.3-0.3,0.6-0.5,0.9-0.8
	c-0.4-0.4-0.8-0.8-1.2-1.2L57.9,162.3L57.9,162.3z"/>
<path class="st4" d="M54.3,167.6c-0.3,0.8-0.5,1.7-0.7,2.6l-0.2,0.8c0,0,0,0,0,0.1h1.9c0-0.3,0.1-0.6,0.2-1V170
	c0.1-0.2,0.1-0.5,0.2-0.7s0.1-0.4,0.2-0.6l0.3-1c0.1-0.3,0.2-0.6,0.4-0.9l-1-0.4l-0.7-0.3C54.7,166.5,54.5,167,54.3,167.6
	L54.3,167.6z"/>
<path class="st4" d="M54.6,172.6h-1.3c0,0.1,0,0.2,0,0.3c-0.1,0.8-0.1,1.6-0.1,2.4c0,0.1,0,0.1,0,0.2h0.1c0.6,0,1.2,0,1.8,0
	c0-0.1,0-0.1,0-0.2c0-0.8,0.1-1.7,0.1-2.5c0-0.1,0-0.1,0-0.2H54.6z"/>
<path class="st4" d="M54.8,177c-0.5,0-1,0-1.5,0h-0.2c0,0.9-0.1,1.9-0.2,2.8l0.7,0.1l1.1,0.2C54.8,179.1,54.9,178,54.8,177L54.8,177
	z"/>
<path class="st4" d="M52.6,181.5c0,0.4-0.1,0.8-0.2,1.1s-0.2,0.8-0.3,1.3l0.6,0.2l1.1,0.4c0.2-0.6,0.3-1.1,0.4-1.7
	c0.1-0.4,0.1-0.8,0.2-1.1l-1.3-0.3l-0.5-0.1C52.7,181.4,52.7,181.5,52.6,181.5L52.6,181.5z"/>
<path class="st4" d="M51.3,185.9c-0.2,0.4-0.3,0.7-0.5,1s-0.4,0.6-0.6,0.9l1.7,0.7c0.2-0.3,0.4-0.6,0.5-0.8c0.3-0.6,0.6-1.2,0.9-1.8
	l-1.1-0.4l-0.6-0.2C51.5,185.6,51.4,185.7,51.3,185.9L51.3,185.9z"/>
<path class="st4" d="M49.2,189.3l-0.6,0.8c-0.2,0.2-0.4,0.4-0.6,0.6l0,0l1.4,1.1c0.3-0.3,0.5-0.6,0.8-0.9c0.1-0.1,0.2-0.3,0.3-0.4
	s0.3-0.3,0.4-0.5l0.1-0.1l-1.7-0.7L49.2,189.3L49.2,189.3z"/>
<path class="st4" d="M46.1,192.5c-0.3,0.3-0.6,0.5-1,0.7s-0.6,0.4-0.9,0.6c0,0-0.1,0-0.1,0.1c0.2,0.5,0.3,1,0.5,1.5v0.1
	c0.4-0.2,0.7-0.4,1.1-0.6l0.6-0.4c0.2-0.1,0.4-0.3,0.6-0.5c0.4-0.3,0.8-0.6,1.1-0.9l0,0l-0.8-0.7l-0.5-0.4l-0.6,0.6L46.1,192.5z"/>
<path class="st4" d="M42.3,194.9c-1.1,0.6-2.2,1-3.3,1.3c-0.4,0.1-0.8,0.2-1.2,0.3h-0.1l-0.1,1.6c0.5-0.1,1-0.2,1.4-0.3
	c1.4-0.4,2.7-0.9,4-1.5l-0.2-0.7c-0.1-0.3-0.2-0.6-0.3-0.9L42.3,194.9L42.3,194.9z"/>
<path class="st4" d="M31.6,193.4l-0.3,1c-0.1,0.4-0.2,0.7-0.4,1.1c0,0.1-0.1,0.2-0.1,0.3l-0.2-0.1c-0.9-0.4-1.7-0.8-2.5-1.4
	l-0.4-0.3l-1.4,1l0.4,0.3c1,0.7,2.1,1.4,3.3,1.8c-0.4,0.6-0.8,1.2-1.3,1.7l1.5,0.9c0.6-0.6,1.1-1.3,1.5-2.1c0.9,0.2,1.8,0.4,2.8,0.5
	c0.4,0,0.7,0,1.1,0l0.1-1.6c-0.7,0-1.3,0-2-0.1c-0.4-0.1-0.8-0.2-1.3-0.3c0.2-0.3,0.3-0.7,0.4-1c0.2-0.5,0.3-1,0.4-1.5
	c0-0.1,0-0.2,0-0.2l-0.3-0.1l-1.4-0.5C31.7,193.1,31.7,193.3,31.6,193.4L31.6,193.4z"/>
<path class="st4" d="M24.2,192.6c0.3,0.5,0.6,0.9,1,1.3l1.4-1l-0.1-0.1c-0.4-0.5-0.7-1-1-1.6l-2.1-0.3
	C23.6,191.6,23.9,192.1,24.2,192.6L24.2,192.6z"/>
<path class="st4" d="M24.2,185.8c-0.4,0.4-0.6,0.9-0.8,1.4c-0.2,0.6-0.3,1.2-0.3,1.9c0,0.1,0,0.2,0,0.3c0.6,0.1,1.3,0.2,1.9,0.3
	c0-0.1,0-0.1,0-0.2c0-0.4,0-0.8,0.1-1.3c0.1-0.3,0.2-0.6,0.3-0.8c-0.3-0.6-0.6-1.2-0.9-1.8L24.2,185.8L24.2,185.8z"/>
<path class="st4" d="M26.8,184.2c-0.3,0.1-0.6,0.1-0.9,0.3c0.2,0.5,0.5,1,0.7,1.5l0.4-0.1l0.5-0.1c0.2,0,0.4,0,0.6,0
	c0.3,0.1,0.7,0.2,1,0.3c0.3,0.2,0.7,0.4,1,0.6c0.3,0.2,0.5,0.4,0.7,0.6l1.3-1.1c-0.2-0.2-0.3-0.3-0.5-0.4c-0.5-0.4-1-0.7-1.6-1
	c-0.7-0.3-1.4-0.5-2.2-0.5h-0.1C27.3,184.1,27,184.1,26.8,184.2L26.8,184.2z"/>
<path class="st4" d="M31.6,188.8c0.1,0.4,0.2,0.8,0.3,1.2c0,0.4,0,0.8,0,1.2v0.1l1.8,0.6c0-0.5,0-1,0-1.5c0-0.6-0.1-1.2-0.3-1.8
	c-0.1-0.4-0.3-0.8-0.5-1.1L31.6,188.8L31.6,188.8z"/>
<path class="st4" d="M26.8,200.8l-0.8,0.5l-0.4,0.2l1,1.4l0.5-0.3c0.5-0.4,1-0.7,1.5-1.1l0.5-0.4l-1.5-1
	C27.4,200.3,27.1,200.5,26.8,200.8L26.8,200.8z"/>
<path class="st4" d="M24,202.5c-0.3,0.2-0.7,0.3-1,0.5l-1,0.4l0.4,1.6l1-0.4c0.6-0.3,1.2-0.5,1.8-0.9l-1-1.3L24,202.5L24,202.5z"/>
<path class="st4" d="M20,204.2c-0.5,0.1-1.1,0.3-1.6,0.4c-0.5,0.1-1,0.2-1.5,0.2l0.2,1.6c0.6-0.1,1.2-0.1,1.9-0.2s1.1-0.3,1.7-0.4
	l-0.4-1.5L20,204.2L20,204.2z"/>
<path class="st4" d="M10.5,205.7v0.3h0.4c0.5,0.1,1,0.1,1.6,0.2c1,0.1,1.9,0.2,2.9,0.2c-0.1-0.5-0.1-1-0.2-1.6h-0.8
	c-0.4,0-0.8,0-1.2-0.1s-0.9-0.1-1.3-0.1l-1-0.1L10.5,205.7L10.5,205.7z"/>
<path class="st4" d="M5.1,203.3l-0.5,0.8l0,0c0.5,0.2,0.9,0.4,1.4,0.6c0.8,0.3,1.7,0.6,2.6,0.8l0,0c0.1-0.5,0.1-1,0.2-1.5
	c-0.3-0.1-0.6-0.2-0.8-0.2c-0.5-0.2-1-0.3-1.5-0.5s-0.7-0.3-1-0.5L5.1,203.3L5.1,203.3z"/>
<path class="st4" d="M-0.4,200.8L-0.4,200.8c0.3,0.4,0.8,0.8,1.2,1.1c0.7,0.5,1.4,1,2.2,1.4c0.1-0.1,0.2-0.3,0.3-0.4
	c0.2-0.3,0.4-0.6,0.6-0.9c-0.6-0.3-1.1-0.7-1.6-1c-0.4-0.3-0.8-0.6-1.2-1L-0.4,200.8L-0.4,200.8z"/>
<path class="st4" d="M225.2,137.8c0.4,0.1,0.8,0.2,1.1,0.1c0.6-0.1,1.2-0.2,1.8-0.4s1.1-0.4,1.7-0.7s1.2-0.5,1.7-0.8
	s1.1-0.6,1.6-0.9c1.1-0.6,2.1-1.3,3.1-2l0.1-0.1l-0.7-0.5c-0.4-0.3-0.7-0.6-1.1-1c-1.4,1-3,1.9-4.5,2.7c-1.2,0.6-2.4,1.1-3.7,1.4
	H226l-0.2-0.2c-0.2-0.2-0.5-0.3-0.9-0.3c-0.3,0-0.6,0.2-0.8,0.4s-0.3,0.5-0.2,0.8c0,0.3,0.2,0.5,0.4,0.7c0.1,0.1,0.2,0.2,0.3,0.3
	s0.2,0.2,0.4,0.2L225.2,137.8L225.2,137.8z"/>
<path class="st4" d="M240.6,128.2c0.3-0.5,0.5-0.9,0.7-1.4l-1.3-0.7l-0.7-0.3c-0.3,0.7-0.7,1.3-1.1,2c-0.6,0.9-1.2,1.7-2,2.4
	c0.3,0.3,0.6,0.5,0.9,0.8l0.9,0.7C239,130.6,239.9,129.5,240.6,128.2L240.6,128.2z"/>
<path class="st4" d="M243.3,121.6c0.1-0.4,0.3-0.8,0.4-1.2l-2.2-0.4c0,0.1,0,0.1-0.1,0.2V120l0,0c-0.4,1.3-0.8,2.5-1.3,3.7l0.7,0.4
	l1.3,0.7C242.6,123.8,242.9,122.7,243.3,121.6L243.3,121.6z"/>
<path class="st4" d="M244.2,118.3c0-0.1,0-0.2,0-0.2c0.2-1.2,0.3-2.4,0.3-3.6c0-0.7,0-1.3-0.1-2l-2.2,0.3c0,0.4,0,0.8,0.1,1.2
	s0,0.9-0.1,1.3c0,0.6-0.1,1.2-0.1,1.8c0,0.3-0.1,0.6-0.1,0.9L244.2,118.3L244.2,118.3z"/>
<path class="st4" d="M244.3,110.2c-0.1-1-0.3-1.9-0.5-2.9c-0.2-0.8-0.3-1.5-0.5-2.3c-0.7,0.2-1.5,0.3-2.2,0.5
	c0.2,1.2,0.5,2.4,0.7,3.6c0.1,0.5,0.2,1,0.2,1.4L244.3,110.2z"/>
<path class="st4" d="M242.9,102.9c-0.1-0.8-0.3-1.7-0.3-2.6c0-0.3-0.1-0.7-0.1-1s0-0.7,0-1.1s0-0.8,0-1.1c0,0,0,0,0-0.1
	c-0.8-0.1-1.5-0.2-2.3-0.3c0,0.1,0,0.1,0,0.2c0,0.7,0,1.4,0,2.1s0.1,1.2,0.1,1.8c0,0.3,0.1,0.7,0.1,1s0.1,0.5,0.1,0.8
	s0.1,0.6,0.1,0.9L242.9,102.9L242.9,102.9z"/>
<path class="st4" d="M242.7,94.8c0-0.1,0-0.2,0-0.3c0.1-0.8,0.2-1.6,0.4-2.4c0.1-0.2,0.1-0.4,0.2-0.7c-0.7-0.3-1.4-0.6-2.1-0.9l0,0
	c-0.1,0.4-0.3,0.8-0.4,1.2c-0.1,0.4-0.2,0.9-0.3,1.3c-0.1,0.5-0.1,0.9-0.2,1.4C241.1,94.6,241.9,94.7,242.7,94.8L242.7,94.8z"/>
<path class="st4" d="M244.2,89.4L244.2,89.4l0.5-1.1l0.3-0.5l0.5-1c0.3-0.5,0.6-0.9,0.9-1.4s0.6-0.9,0.9-1.3
	c-0.4-0.6-0.8-1.2-1.3-1.8l-0.1-0.1c-0.7,0.9-1.3,1.8-1.9,2.8c-0.3,0.5-0.6,1-0.9,1.6l-0.4,0.8c-0.1,0.2-0.2,0.5-0.3,0.8
	s-0.1,0.3-0.2,0.4C242.8,88.8,243.5,89.1,244.2,89.4L244.2,89.4z"/>
<path class="st4" d="M248.8,82.3c0.7-0.7,1.5-1.2,2.4-1.7c0.7-0.3,1.4-0.6,2.1-0.8c0.4-0.2,0.8-0.3,1.3-0.4l0.3-0.1
	c0.1-0.8,0.3-1.6,0.4-2.3l-0.6,0.1c-0.3,0.1-0.7,0.1-1,0.2l-1,0.3c-0.3,0.1-0.6,0.2-0.8,0.3c-0.6,0.2-1.2,0.5-1.7,0.7
	c-0.3,0.2-0.7,0.4-1,0.6s-0.6,0.5-0.9,0.7s-0.4,0.3-0.6,0.5l0.3,0.5L248.8,82.3L248.8,82.3L248.8,82.3z"/>
<path class="st4" d="M261.7,82.7c0.5-0.6,1-1.2,1.5-1.8c0.3-0.3,0.6-0.6,0.8-0.9c0.5,0.2,1.1,0.4,1.6,0.6l0.2,0.1
	c0.6,0.3,1.1,0.6,1.7,0.9l0.7,0.5l1.6-1.5c-0.8-0.5-1.5-1-2.4-1.4c-0.6-0.3-1.2-0.6-1.8-0.8l0.6-0.5l0,0l-1-0.7l-0.9-0.6l-0.3,0.3
	c-0.3,0.3-0.6,0.5-0.9,0.8l-0.6-0.2c-0.9-0.2-1.7-0.4-2.6-0.4c-0.8-0.1-1.6-0.1-2.5-0.1l0,0c-0.1,0.8-0.2,1.5-0.3,2.2
	c0.5,0,1,0,1.5,0c0.9,0,1.9,0.1,2.8,0.3c-0.3,0.4-0.7,0.8-1,1.2c-0.5,0.7-1,1.3-1.5,2l0.3,0.1l1.2,0.6l0.6,0.3
	C261.3,83.3,261.5,83,261.7,82.7L261.7,82.7z"/>
<path class="st4" d="M274.3,84.8c-0.7-0.9-1.5-1.8-2.3-2.6l-0.3-0.3c-0.5,0.5-1.1,1-1.6,1.5c0.3,0.3,0.7,0.6,1,0.9
	c0.5,0.5,0.9,1,1.3,1.5L274.3,84.8L274.3,84.8z"/>
<path class="st4" d="M277.3,92l0.6-0.1c-0.4-1.3-0.9-2.6-1.6-3.9c-0.2-0.4-0.5-0.9-0.8-1.4l-2,1.1c0.2,0.3,0.3,0.6,0.5,0.8
	c0.6,1.2,1.2,2.4,1.6,3.7C276.2,92.1,276.7,92,277.3,92L277.3,92z"/>
<path class="st4" d="M278.3,99.7c0.1-0.5,0.2-1,0.2-1.6c0.1-1.4,0.1-2.8-0.1-4.2L278,94c-0.4,0.1-0.9,0.2-1.3,0.3l-0.5,0.1
	c0.2,1.5,0.2,3,0,4.5C276.8,99.1,277.6,99.4,278.3,99.7L278.3,99.7z"/>
<path class="st4" d="M273.9,106.9c0.7-0.5,1.3-1.1,1.8-1.7c0.6-0.7,1-1.4,1.5-2.2c0.2-0.4,0.4-0.7,0.5-1.1v-0.1l-0.7-0.3l-1.5-0.6
	c-0.1,0.2-0.1,0.3-0.2,0.5c-0.2,0.4-0.4,0.8-0.7,1.2c-0.5,0.7-1,1.3-1.6,1.9l-0.3,0.3l0.4,1.1l0.4,1.1
	C273.6,107,273.7,107,273.9,106.9L273.9,106.9z"/>
<path class="st4" d="M267,109.3c0.4,0,0.8,0.1,1.3,0.1s0.9,0,1.4-0.1c0.7-0.2,1.4-0.5,2-0.9c-0.2-0.6-0.4-1.2-0.6-1.8
	c0-0.1-0.1-0.2-0.1-0.3c-0.3,0.2-0.6,0.4-0.9,0.5s-0.6,0.3-0.9,0.3c-0.4,0-0.8,0-1.2,0c-0.7-0.1-1.3-0.2-2-0.4l-0.5,2v0.1
	C265.9,109,266.5,109.2,267,109.3L267,109.3z"/>
<path class="st4" d="M263,108.2c0.2-0.7,0.4-1.4,0.6-2.1c-0.5-0.2-1-0.5-1.4-0.7c-1-0.6-1.9-1.3-2.7-2.1l-0.1-0.1
	c-0.2,0.3-0.4,0.5-0.6,0.8l-0.8,1c0.5,0.5,1.1,1,1.7,1.4c0.7,0.5,1.4,1,2.2,1.4c0.2,0.1,0.4,0.2,0.6,0.3L263,108.2L263,108.2z"/>
<path class="st4" d="M257,102.5c0.4-0.5,0.8-1,1.1-1.4c-0.2-0.5-0.4-1.1-0.6-1.6c-0.3-1-0.4-2.1-0.5-3.1c0-0.1,0-0.1,0-0.2v-0.7
	c0-0.1,0-0.2,0-0.3l0,0l0,0c0-0.3,0-0.6,0-0.8l-0.8,0.2l-1.5,0.4l0,0c0,0.1,0,0.1,0,0.2l0,0c0,0.3,0,0.6,0,0.9v0.4
	c0,0.4,0,0.9,0.1,1.3c0.1,0.8,0.3,1.6,0.5,2.4s0.5,1.5,0.9,2.3c0.1,0.2,0.2,0.4,0.3,0.6L257,102.5L257,102.5z M257.1,95.1
	L257.1,95.1z"/>
<path class="st4" d="M255.6,92.3l1.8-0.4c0.1-0.6,0.2-1.2,0.4-1.8c0.2-0.8,0.5-1.5,0.8-2.2c0.2-0.4,0.3-0.8,0.5-1.1s0.4-0.8,0.6-1.1
	l0.1-0.2l-0.4-0.2l-1.2-0.6c-0.2-0.1-0.3-0.1-0.5-0.2c-0.1,0.2-0.3,0.5-0.4,0.7c-0.3,0.6-0.6,1.2-0.9,1.7c-0.8,1.7-1.3,3.4-1.5,5.3
	l-0.1,0.4L255.6,92.3L255.6,92.3z"/>
<path class="st4" d="M269.5,75.3c0.6-0.4,1.2-0.8,1.8-1.1l-0.1-0.2c-0.3-0.6-0.6-1.3-0.9-1.9c-0.6,0.3-1.2,0.7-1.7,1.1
	c-0.9,0.5-1.7,1.1-2.5,1.8l1.9,1.2l-0.2-0.1l0.3,0.2C268.6,75.9,269,75.6,269.5,75.3L269.5,75.3z"/>
<path class="st4" d="M275.7,72c0.5-0.2,1-0.3,1.5-0.5c-0.1-0.8-0.2-1.5-0.3-2.2h-0.1c-0.6,0.1-1.1,0.3-1.6,0.5c-1,0.4-2,0.8-2.9,1.3
	l0.1,0.1c0.3,0.4,0.5,0.9,0.7,1.4l0.2,0.5C274.1,72.7,274.9,72.3,275.7,72L275.7,72z"/>
<path class="st4" d="M280,71l0.7-0.1c0.3,0,0.6-0.1,1-0.1c0.6,0,1.2-0.1,1.8-0.1h0.6c-0.1-0.7-0.1-1.5-0.2-2.2c-0.5,0-0.9,0-1.4,0
	c-1.1,0.1-2.2,0.2-3.3,0.4c0.1,0.7,0.2,1.5,0.3,2.2L280,71z"/>
<path class="st4" d="M286.4,70.7l1.6,0.2c1,0.1,2,0.3,2.9,0.6l0.5,0.2c0.2-0.7,0.4-1.4,0.6-2.1l-0.3-0.1c-0.7-0.2-1.3-0.4-2-0.5
	c-0.6-0.1-1.1-0.2-1.7-0.3s-1.2-0.2-1.8-0.2H286c0.1,0.7,0.1,1.5,0.2,2.2L286.4,70.7z"/>
<path class="st4" d="M300.5,74.3L300,74c-1-0.7-2-1.4-3.1-2.1c-0.6-0.4-1.1-0.7-1.7-1c-0.4-0.2-0.7-0.4-1.1-0.5
	c-0.2,0.7-0.4,1.4-0.7,2.1c0.7,0.3,1.4,0.7,2.1,1.2c1.2,0.8,2.4,1.6,3.6,2.5L300.5,74.3L300.5,74.3z"/>
<polygon class="st4" points="254.8,95 254.8,95 254.8,95 "/>
<polygon class="st4" points="254.8,95 254.8,95 254.8,95 254.8,95 "/>
<polygon class="st4" points="254.8,94.8 254.8,94.8 254.8,94.8 254.8,94.8 254.8,94.8 "/>
<path class="st4" d="M145.8,170.1c0.4,0.4,0.8,0.7,1.2,1l0.9,0.7c0.6,0.4,1.2,0.9,1.8,1.3s1.3,0.9,2,1.3l1.4-1.9l-1.3-0.9
	c-1.1-0.7-2.2-1.5-3.3-2.3c-0.3-0.2-0.6-0.5-0.8-0.7c-0.5-0.5-1.2-0.5-1.8-0.1c-0.4,0.4-0.5,0.9-0.2,1.4
	C145.7,170,145.8,170.1,145.8,170.1L145.8,170.1z"/>
<path class="st4" d="M157.1,177.6c1.1,0.6,2.2,1.1,3.3,1.6l0.8-0.8c0.3-0.3,0.7-0.6,1-1l-1.3-0.6c-0.6-0.3-1.2-0.6-1.8-0.9
	c-1.3-0.7-2.6-1.4-3.9-2.2h-0.1l-1.4,1.9C154.8,176.3,155.9,177,157.1,177.6L157.1,177.6z"/>
<path class="st4" d="M168.8,182.3l1.1-2.1c-1-0.3-2-0.6-2.9-1c-0.8-0.3-1.5-0.6-2.3-0.8L163,180l-0.1,0.1
	C164.8,181,166.8,181.7,168.8,182.3L168.8,182.3z"/>
<path class="st4" d="M177.6,184.6l1.8,0.3l0.4-1.2l0.3-1.1l-0.3-0.1c-1.6-0.3-3.1-0.6-4.6-1c-0.9-0.2-1.9-0.4-2.8-0.7l-0.3,0.5
	l-0.8,1.6C173.3,183.6,175.4,184.1,177.6,184.6L177.6,184.6z"/>
<path class="st4" d="M182,185.4c1.6,0.3,3.2,0.5,4.8,0.7l2.4,0.3c0.1-0.3,0.1-0.5,0.2-0.8c0.1-0.5,0.2-1,0.3-1.5l-0.9-0.1
	c-1.7-0.2-3.4-0.5-5-0.7l-1.2-0.2c-0.1,0.2-0.1,0.4-0.2,0.7c-0.1,0.5-0.3,1-0.5,1.5L182,185.4L182,185.4z M183.8,183.3h0.2H183.8z"
	/>
<path class="st4" d="M195.4,187.1c1,0.1,1.9,0.2,2.9,0.3h0.2c0.2-0.7,0.5-1.5,0.7-2.2l-1.9-0.2c-1.4-0.2-2.9-0.3-4.3-0.5l-1-0.1v0.1
	c-0.1,0.7-0.3,1.5-0.4,2.2C192.8,186.8,194.1,187,195.4,187.1L195.4,187.1z"/>
<path class="st4" d="M204.4,188.5c0.7,0.2,1.3,0.3,2,0.5c0.3,0.1,0.5,0.2,0.8,0.2l2.2-1.6c-0.4-0.2-0.8-0.3-1.2-0.5
	s-0.6-0.2-0.9-0.3l-1.3-0.4c-0.6-0.2-1.3-0.3-1.9-0.4c-0.8-0.2-1.6-0.3-2.4-0.4l0,0c-0.2,0.7-0.4,1.5-0.7,2.2
	C202.2,188.1,203.3,188.3,204.4,188.5L204.4,188.5z"/>
<path class="st4" d="M210.1,194.7l1.3,0.9c0.3-0.2,0.5-0.4,0.8-0.7c0.8-0.5,1.6-0.8,2.4-1.1c0.3,0.3,0.5,0.5,0.7,0.8
	c0.3,0.4,0.6,0.8,0.8,1.2c0.1,0.1,0.2,0.3,0.2,0.4l2.4-0.5c-0.4-0.8-0.8-1.6-1.4-2.4L217,193c0.8-0.2,1.7-0.3,2.5-0.4
	c0.4,0,0.8,0,1.2,0c-0.1-0.8-0.2-1.6-0.3-2.3c-0.8,0-1.6,0.1-2.4,0.2c-1,0.1-1.9,0.3-2.8,0.6l-0.1-0.1c-0.8-0.6-1.6-1.2-2.4-1.7
	c-0.4-0.2-0.7-0.4-1.1-0.6l-2.1,1.6c1,0.5,2,1.1,3,1.8l-0.4,0.2c-1,0.5-1.9,1.1-2.7,1.8l-0.1,0.1
	C209.7,194.4,209.9,194.6,210.1,194.7L210.1,194.7z"/>
<path class="st4" d="M217.1,203.2l0.9,0.9c0.9-1.6,1.4-3.4,1.4-5.3c0-0.3,0-0.5,0-0.8l-2.5,0.5c0,0.6,0,1.3-0.1,1.9
	c-0.1,0.6-0.3,1.2-0.6,1.8L217.1,203.2L217.1,203.2z"/>
<path class="st4" d="M207.7,206.5c0.8,0.7,1.7,1.2,2.7,1.4s1.9,0.2,2.9,0c0.5-0.1,1-0.2,1.5-0.4c0.2-0.1,0.4-0.2,0.6-0.3
	c0.3-0.2,0.5-0.4,0.8-0.6c0.2-0.2,0.4-0.3,0.5-0.5l-1.3-1.3l-0.4-0.4l-0.1,0.1c-0.2,0.3-0.5,0.5-0.8,0.7c-0.2,0.1-0.3,0.2-0.5,0.3
	c-0.4,0.1-0.8,0.2-1.3,0.2c-0.3,0-0.7,0-1,0c-0.3-0.1-0.6-0.1-0.9-0.2c-0.2-0.1-0.4-0.2-0.6-0.4l-0.1-0.1l-0.4,0.2l-1.7,1.2
	L207.7,206.5L207.7,206.5z"/>
<path class="st4" d="M208.5,202.9c0-0.1,0-0.1,0-0.2c-0.2-1.4,0.1-2.9,0.8-4.2c0.2-0.4,0.4-0.7,0.6-1.1l-1.1-0.8l-0.9-0.6l-0.2,0.3
	c-0.3,0.4-0.5,0.9-0.7,1.3c-0.2,0.5-0.4,0.9-0.6,1.4c-0.3,0.8-0.4,1.6-0.4,2.5s0.1,1.8,0.3,2.7v0.1
	C207,203.9,207.7,203.4,208.5,202.9L208.5,202.9z"/>
<path class="st4" d="M224.6,192.7c1.6,0.1,3.2,0.3,4.7,0.5h0.3l0,0c0.2-0.6,0.3-1.3,0.5-1.9l0.1-0.4c-1.5-0.3-3.1-0.4-4.6-0.6
	c-0.7-0.1-1.5-0.1-2.2-0.1h-0.2c0.1,0.8,0.2,1.6,0.3,2.3L224.6,192.7L224.6,192.7z"/>
<path class="st4" d="M232.1,193.8l1.6,0.5c0.5,0.1,1,0.3,1.6,0.5s1.2,0.4,1.8,0.6l1-2.1l-0.3-0.1c-1-0.4-1.9-0.7-2.9-1
	c-0.7-0.2-1.4-0.4-2.1-0.6h-0.1c0,0.1-0.1,0.3-0.1,0.4C232.4,192.6,232.2,193.2,232.1,193.8L232.1,193.8z"/>
<path class="st4" d="M243,198.8l0.8,0.7c0.6-0.5,1.2-1.1,1.8-1.6c-0.8-0.7-1.7-1.3-2.6-1.9c-0.9-0.6-1.8-1.1-2.7-1.6
	c-0.3,0.7-0.6,1.4-1,2.1C240.6,197.1,241.8,197.9,243,198.8L243,198.8z"/>
<path class="st4" d="M247.1,202.7c0.5,0.6,0.9,1.3,1.3,1.9l2.1-1.3c-0.8-1.3-1.7-2.5-2.7-3.6l-0.4-0.4c-0.6,0.6-1.2,1.1-1.8,1.7
	C246.1,201.6,246.6,202.1,247.1,202.7L247.1,202.7z"/>
<path class="st4" d="M254.2,209.7l-0.2-0.3c-0.8-1.3-1.5-2.7-2.3-4.1l0,0l-2.1,1.3l0,0c0.8,1.3,1.5,2.6,2.3,4L254.2,209.7
	L254.2,209.7z"/>
<path class="st4" d="M256.8,215.6l-0.1-0.3l-1.8-4.3l0,0l-2.2,1.1l0,0c0.6,1.4,1.2,2.8,1.8,4.2L256.8,215.6L256.8,215.6z"/>
<path class="st4" d="M261.2,225.3c0.4,0.4,0.7,0.8,1,1.3l2.1-1.2c-0.1-0.1-0.2-0.2-0.3-0.3l-1.4-1.6l-1-1.4l-2.2,1
	C259.9,223.8,260.5,224.5,261.2,225.3L261.2,225.3z"/>
<path class="st4" d="M257.3,220.4c0.3,0.4,0.6,0.9,1,1.3l2.2-1.1c-0.1-0.1-0.1-0.2-0.2-0.3c-0.4-0.6-0.8-1.2-1.3-1.8l-0.9-1.4
	l-2.3,0.9C256.3,218.9,256.8,219.7,257.3,220.4L257.3,220.4z"/>
<path class="st4" d="M264,228.5l1.7,1.8c0.5,0.5,1,1,1.5,1.4l2-1.4l-1.5-1.5c-0.4-0.4-0.8-0.9-1.2-1.3L266,227l-2.1,1.3L264,228.5
	L264,228.5z"/>
<path class="st4" d="M270.2,234.4l1.1,0.9c0.3,0.2,0.5,0.4,0.8,0.6c0.6,0.4,1.2,0.8,1.8,1.2s1.1,0.7,1.7,1c0.3-0.7,0.7-1.4,1-2.1
	l-1.2-0.7c-0.7-0.4-1.3-0.9-1.9-1.3s-1-0.8-1.5-1.2c-0.3-0.3-0.6-0.5-1-0.8c-0.7,0.5-1.3,1-2,1.4
	C269.3,233.7,269.7,234.1,270.2,234.4L270.2,234.4z"/>
<path class="st4" d="M282.6,240.9c0.5,0.1,1.1,0.2,1.6,0.3c0-0.6,0-1.1-0.1-1.7c0-0.2,0-0.4-0.1-0.6c-1.5-0.3-2.9-0.7-4.4-1.3
	l-0.9-0.4c-0.3,0.7-0.7,1.4-1,2.1C279.3,240,280.9,240.6,282.6,240.9L282.6,240.9z"/>
<path class="st4" d="M288.6,241.5c1,0,2.1-0.1,3.1-0.3c1.1-0.2,2.2-0.5,3.2-0.9l0,0c-0.6-0.6-1.2-1.2-1.8-1.8
	c-0.5,0.2-1,0.3-1.5,0.4c-0.6,0.1-1.2,0.2-1.8,0.3c-1.1,0.1-2.2,0.1-3.3,0c0.1,0.8,0.1,1.5,0.1,2.3
	C287.3,241.5,287.9,241.5,288.6,241.5L288.6,241.5z"/>
<path class="st4" d="M297,236.3c-0.4,0.4-0.8,0.7-1.2,1.1l-0.3,0.2l1.7,1.7l0,0c1-0.7,1.9-1.5,2.5-2.5c0.2-0.4,0.4-0.8,0.5-1.3
	c0.1-0.4,0.2-0.9,0.2-1.4c0-0.1,0-0.1,0-0.2l-2.5-0.3c0,0.3,0,0.6-0.1,0.9"/>
<path class="st4" d="M290,221.3l-0.2-0.1l0,0L290,221.3L290,221.3z"/>
<g>
	<circle class="st4" cx="87.9" cy="124.9" r="8.2"/>
	<path class="st5" d="M92,119.9c0,0.3,0,0.5,0,0.7c-0.1,1.3-0.1,2.5-0.2,3.8c0,0.1,0,0.1,0.1,0.2c0.6,0.5,1.3,1,1.9,1.6
		c0,0,0.1,0,0.1,0.1c-0.6-0.2-1.2-0.4-1.9-0.6c-0.6,1.1-1.2,2.2-1.7,3.4c-0.4-0.2-0.8-0.5-1.2-0.7c-0.1,0-0.1-0.1-0.2,0
		c-1.1,0.2-2.1,0.3-3.2,0.5c-0.8,0.1-1.6,0.3-2.4,0.4c-0.1,0-0.1,0-0.2,0.1c0.9-0.9,1.8-1.9,2.6-2.8c-1.2-1.4-2.3-2.7-3.5-4.1
		c0,0,0,0,0,0c1.6,1.3,3.3,2.5,4.9,3.8c0.1-0.1,0.2-0.1,0.2-0.2c0,0,0-0.1,0.1-0.1c0.1-0.5,0.1-1,0.2-1.6c0-0.1,0-0.1,0.1-0.1
		C89,122.7,90.5,121.3,92,119.9C91.9,119.9,91.9,119.9,92,119.9 M89.3,125.7c0.8-1.8,1.6-3.6,2.4-5.5c0,0-0.1,0-0.1,0
		c-1.3,1.3-2.7,2.5-4,3.8c0,0-0.1,0.1-0.1,0.1c0,0.3-0.1,0.7-0.1,1c0,0.2,0,0.4-0.1,0.6c0.1,0,0.1-0.1,0.1-0.1
		c0.2-0.2,0.4-0.3,0.7-0.5c0.1-0.1,0.1-0.1,0.2,0C88.8,125.4,89,125.5,89.3,125.7 M91.9,120.3C91.8,120.3,91.8,120.3,91.9,120.3
		c-0.8,1.8-1.7,3.6-2.5,5.4c0.2,0.2,0.5,0.3,0.7,0.5c0.2-0.3,0.4-0.6,0.7-0.9c0.2-0.3,0.4-0.6,0.8-0.8c0,0,0.1-0.1,0.1-0.1
		c0-0.4,0-0.8,0.1-1.2c0-0.7,0.1-1.5,0.1-2.2C91.8,120.9,91.8,120.6,91.9,120.3 M88.6,127.2c-0.5-0.2-1-0.5-1.5-0.7c0,0-0.1,0-0.1,0
		c-0.4,0-0.8,0-1.1,0c-0.1,0-0.1,0-0.2,0.1c-0.7,0.8-1.5,1.5-2.2,2.3c0,0,0,0-0.1,0.1C85.1,128.4,86.8,127.8,88.6,127.2 M89.8,127.8
		c-0.4-0.2-0.7-0.3-1.1-0.5c0,0-0.1,0-0.2,0c-1.6,0.5-3.1,1.1-4.7,1.6c0,0-0.1,0-0.1,0c0.3,0,0.6-0.1,0.9-0.1
		c1.4-0.2,2.7-0.4,4.1-0.6C89.2,128.1,89.5,128,89.8,127.8 M87,126.2c-1.4-1.1-2.7-2.1-4.1-3.1c0,0,0,0.1,0,0.1
		c0.9,1.1,1.8,2.2,2.8,3.2c0,0,0.1,0.1,0.1,0.1c0.2,0,0.5,0,0.7,0C86.7,126.4,86.8,126.3,87,126.2 M91.2,125.1
		C91.2,125.1,91.2,125.1,91.2,125.1C91.2,125.1,91.2,125.1,91.2,125.1c-0.6,0.7-1.1,1.3-1.6,1.9c0,0.1,0,0.1,0,0.1
		c0.1,0.3,0.3,0.5,0.4,0.8c0,0.2,0.1,0.4,0.1,0.7c0-0.1,0-0.1,0-0.1c0.3-1,0.6-2.1,0.9-3.1C91.2,125.4,91.2,125.2,91.2,125.1
		 M88.8,127.2c-0.1-0.7-0.3-1.3-0.4-1.9c-0.5,0.4-1,0.8-1.4,1.1c0.2,0.1,0.3,0.1,0.5,0.2C87.9,126.8,88.3,127,88.8,127.2 M93.4,126
		C93.4,126,93.4,126,93.4,126c-0.5-0.5-1.1-0.9-1.6-1.3c0,0-0.1,0.1-0.1,0.1c-0.2,0.1-0.3,0.3-0.3,0.5c0,0.1,0,0.1,0.1,0.2
		c0.4,0.1,0.8,0.2,1.2,0.4C92.9,125.8,93.1,125.9,93.4,126 M91.3,125.5c-0.3,1-0.6,1.9-0.8,2.8c0,0,0,0,0,0c0.5-0.9,0.9-1.8,1.4-2.7
		C91.7,125.6,91.5,125.5,91.3,125.5 M90.1,126.4c-0.5-0.4-1-0.7-1.4-1c0,0,0,0,0,0c0.3,0.5,0.6,1.1,1,1.6
		C89.7,126.8,89.9,126.6,90.1,126.4 M89.8,127.6C89.8,127.6,89.8,127.6,89.8,127.6c-0.4-0.7-0.8-1.4-1.2-2.1
		c0.1,0.6,0.2,1.1,0.3,1.7c0,0,0,0.1,0.1,0.1C89.2,127.4,89.5,127.5,89.8,127.6 M89.1,128.3c0.3,0.2,0.6,0.4,1,0.6
		c-0.1-0.4-0.1-0.7-0.2-1C89.6,128,89.4,128.1,89.1,128.3"/>
</g>
<g>
	<circle class="st4" cx="145" cy="169.3" r="8.2"/>
	<path class="st5" d="M149.1,164.3c0,0.3,0,0.5,0,0.7c-0.1,1.3-0.1,2.5-0.2,3.8c0,0.1,0,0.1,0.1,0.2c0.6,0.5,1.3,1,1.9,1.6
		c0,0,0.1,0,0.1,0.1c-0.6-0.2-1.2-0.4-1.9-0.6c-0.6,1.1-1.2,2.2-1.7,3.4c-0.4-0.2-0.8-0.5-1.2-0.7c-0.1,0-0.1-0.1-0.2,0
		c-1.1,0.2-2.1,0.3-3.2,0.5c-0.8,0.1-1.6,0.3-2.4,0.4c-0.1,0-0.1,0-0.2,0.1c0.9-0.9,1.8-1.9,2.6-2.8c-1.2-1.4-2.3-2.7-3.5-4.1
		c0,0,0,0,0,0c1.6,1.3,3.3,2.5,4.9,3.8c0.1-0.1,0.2-0.1,0.2-0.2c0,0,0-0.1,0.1-0.1c0.1-0.5,0.1-1,0.2-1.6c0-0.1,0-0.1,0.1-0.1
		C146.2,167.1,147.6,165.7,149.1,164.3C149.1,164.3,149.1,164.3,149.1,164.3 M146.5,170.1c0.8-1.8,1.6-3.6,2.4-5.5c0,0-0.1,0-0.1,0
		c-1.3,1.3-2.7,2.5-4,3.8c0,0-0.1,0.1-0.1,0.1c0,0.3-0.1,0.7-0.1,1c0,0.2,0,0.4-0.1,0.6c0.1,0,0.1-0.1,0.1-0.1
		c0.2-0.2,0.4-0.3,0.7-0.5c0.1-0.1,0.1-0.1,0.2,0C145.9,169.7,146.2,169.9,146.5,170.1 M149,164.7C149,164.7,149,164.7,149,164.7
		c-0.8,1.8-1.7,3.6-2.5,5.4c0.2,0.2,0.5,0.3,0.7,0.5c0.2-0.3,0.4-0.6,0.7-0.9c0.2-0.3,0.4-0.6,0.8-0.8c0,0,0.1-0.1,0.1-0.1
		c0-0.4,0-0.8,0.1-1.2c0-0.7,0.1-1.5,0.1-2.2C149,165.3,149,165,149,164.7 M145.7,171.6c-0.5-0.2-1-0.5-1.5-0.7c0,0-0.1,0-0.1,0
		c-0.4,0-0.8,0-1.1,0c-0.1,0-0.1,0-0.2,0.1c-0.7,0.8-1.5,1.5-2.2,2.3c0,0,0,0-0.1,0.1C142.3,172.8,144,172.2,145.7,171.6 M147,172.1
		c-0.4-0.2-0.7-0.3-1.1-0.5c0,0-0.1,0-0.2,0c-1.6,0.5-3.1,1.1-4.7,1.6c0,0-0.1,0-0.1,0c0.3,0,0.6-0.1,0.9-0.1
		c1.4-0.2,2.7-0.4,4.1-0.6C146.3,172.5,146.7,172.4,147,172.1 M144.1,170.6c-1.4-1.1-2.7-2.1-4.1-3.1c0,0,0,0.1,0,0.1
		c0.9,1.1,1.8,2.2,2.8,3.2c0,0,0.1,0.1,0.1,0.1c0.2,0,0.5,0,0.7,0C143.9,170.8,144,170.7,144.1,170.6 M148.4,169.5
		C148.4,169.5,148.4,169.5,148.4,169.5C148.3,169.5,148.3,169.5,148.4,169.5c-0.6,0.7-1.1,1.3-1.6,1.9c0,0.1,0,0.1,0,0.1
		c0.1,0.3,0.3,0.5,0.4,0.8c0,0.2,0.1,0.4,0.1,0.7c0-0.1,0-0.1,0-0.1c0.3-1,0.6-2.1,0.9-3.1C148.4,169.8,148.4,169.6,148.4,169.5
		 M145.9,171.6c-0.1-0.7-0.3-1.3-0.4-1.9c-0.5,0.4-1,0.8-1.4,1.1c0.2,0.1,0.3,0.1,0.5,0.2C145,171.1,145.5,171.3,145.9,171.6
		 M150.5,170.4C150.5,170.4,150.5,170.4,150.5,170.4c-0.5-0.5-1.1-0.9-1.6-1.3c0,0-0.1,0.1-0.1,0.1c-0.2,0.1-0.3,0.3-0.3,0.5
		c0,0.1,0,0.1,0.1,0.2c0.4,0.1,0.8,0.2,1.2,0.4C150,170.2,150.3,170.3,150.5,170.4 M148.4,169.9c-0.3,1-0.6,1.9-0.8,2.8c0,0,0,0,0,0
		c0.5-0.9,0.9-1.8,1.4-2.7C148.8,170,148.6,169.9,148.4,169.9 M147.2,170.8c-0.5-0.4-1-0.7-1.4-1c0,0,0,0,0,0c0.3,0.5,0.6,1.1,1,1.6
		C146.9,171.2,147,171,147.2,170.8 M146.9,172C146.9,172,146.9,172,146.9,172c-0.4-0.7-0.8-1.4-1.2-2.1c0.1,0.6,0.2,1.1,0.3,1.7
		c0,0,0,0.1,0.1,0.1C146.4,171.8,146.6,171.9,146.9,172 M146.3,172.7c0.3,0.2,0.6,0.4,1,0.6c-0.1-0.4-0.1-0.7-0.2-1
		C146.8,172.4,146.5,172.5,146.3,172.7"/>
</g>
<g>
	<circle class="st4" cx="218.7" cy="135.8" r="8.2"/>
	<path class="st5" d="M222.8,130.7c0,0.3,0,0.5,0,0.7c-0.1,1.3-0.1,2.5-0.2,3.8c0,0.1,0,0.1,0.1,0.2c0.6,0.5,1.3,1,1.9,1.6
		c0,0,0.1,0,0.1,0.1c-0.6-0.2-1.2-0.4-1.9-0.6c-0.6,1.1-1.2,2.2-1.7,3.4c-0.4-0.2-0.8-0.5-1.2-0.7c-0.1,0-0.1-0.1-0.2,0
		c-1.1,0.2-2.1,0.3-3.2,0.5c-0.8,0.1-1.6,0.3-2.4,0.4c-0.1,0-0.1,0-0.2,0.1c0.9-0.9,1.8-1.9,2.6-2.8c-1.2-1.4-2.3-2.7-3.5-4.1
		c0,0,0,0,0,0c1.6,1.3,3.3,2.5,4.9,3.8c0.1-0.1,0.2-0.1,0.2-0.2c0,0,0-0.1,0.1-0.1c0.1-0.5,0.1-1,0.2-1.6c0-0.1,0-0.1,0.1-0.1
		C219.9,133.5,221.3,132.1,222.8,130.7C222.8,130.8,222.8,130.7,222.8,130.7 M220.2,136.6c0.8-1.8,1.6-3.6,2.4-5.5c0,0-0.1,0-0.1,0
		c-1.3,1.3-2.7,2.5-4,3.8c0,0-0.1,0.1-0.1,0.1c0,0.3-0.1,0.7-0.1,1c0,0.2,0,0.4-0.1,0.6c0.1,0,0.1-0.1,0.1-0.1
		c0.2-0.2,0.4-0.3,0.7-0.5c0.1-0.1,0.1-0.1,0.2,0C219.6,136.2,219.9,136.4,220.2,136.6 M222.7,131.2
		C222.7,131.2,222.7,131.2,222.7,131.2c-0.8,1.8-1.7,3.6-2.5,5.4c0.2,0.2,0.5,0.3,0.7,0.5c0.2-0.3,0.4-0.6,0.7-0.9
		c0.2-0.3,0.4-0.6,0.8-0.8c0,0,0.1-0.1,0.1-0.1c0-0.4,0-0.8,0.1-1.2c0-0.7,0.1-1.5,0.1-2.2C222.7,131.7,222.7,131.4,222.7,131.2
		 M219.4,138c-0.5-0.2-1-0.5-1.5-0.7c0,0-0.1,0-0.1,0c-0.4,0-0.8,0-1.1,0c-0.1,0-0.1,0-0.2,0.1c-0.7,0.8-1.5,1.5-2.2,2.3
		c0,0,0,0-0.1,0.1C216,139.2,217.7,138.6,219.4,138 M220.7,138.6c-0.4-0.2-0.7-0.3-1.1-0.5c0,0-0.1,0-0.2,0
		c-1.6,0.5-3.1,1.1-4.7,1.6c0,0-0.1,0-0.1,0c0.3,0,0.6-0.1,0.9-0.1c1.4-0.2,2.7-0.4,4.1-0.6C220.1,139,220.4,138.8,220.7,138.6
		 M217.9,137c-1.4-1.1-2.7-2.1-4.1-3.1c0,0,0,0.1,0,0.1c0.9,1.1,1.8,2.2,2.8,3.2c0,0,0.1,0.1,0.1,0.1c0.2,0,0.5,0,0.7,0
		C217.6,137.3,217.7,137.2,217.9,137 M222.1,136C222.1,135.9,222.1,135.9,222.1,136C222.1,136,222,136,222.1,136
		c-0.6,0.7-1.1,1.3-1.6,1.9c0,0.1,0,0.1,0,0.1c0.1,0.3,0.3,0.5,0.4,0.8c0,0.2,0.1,0.4,0.1,0.7c0-0.1,0-0.1,0-0.1
		c0.3-1,0.6-2.1,0.9-3.1C222.1,136.2,222.1,136.1,222.1,136 M219.6,138c-0.1-0.7-0.3-1.3-0.4-1.9c-0.5,0.4-1,0.8-1.4,1.1
		c0.2,0.1,0.3,0.1,0.5,0.2C218.7,137.6,219.2,137.8,219.6,138 M224.2,136.8C224.2,136.8,224.2,136.8,224.2,136.8
		c-0.5-0.5-1.1-0.9-1.6-1.3c0,0-0.1,0.1-0.1,0.1c-0.2,0.1-0.3,0.3-0.3,0.5c0,0.1,0,0.1,0.1,0.2c0.4,0.1,0.8,0.2,1.2,0.4
		C223.7,136.7,224,136.8,224.2,136.8 M222.2,136.3c-0.3,1-0.6,1.9-0.8,2.8c0,0,0,0,0,0c0.5-0.9,0.9-1.8,1.4-2.7
		C222.5,136.4,222.3,136.4,222.2,136.3 M220.9,137.2c-0.5-0.4-1-0.7-1.4-1c0,0,0,0,0,0c0.3,0.5,0.6,1.1,1,1.6
		C220.6,137.6,220.8,137.4,220.9,137.2 M220.6,138.5C220.6,138.5,220.6,138.4,220.6,138.5c-0.4-0.7-0.8-1.4-1.2-2.1
		c0.1,0.6,0.2,1.1,0.3,1.7c0,0,0,0.1,0.1,0.1C220.1,138.2,220.4,138.3,220.6,138.5 M220,139.1c0.3,0.2,0.6,0.4,1,0.6
		c-0.1-0.4-0.1-0.7-0.2-1C220.5,138.8,220.3,139,220,139.1"/>
</g>
<g>
	<circle class="st4" cx="90.2" cy="144.7" r="8.2"/>
	<path class="st5" d="M94.3,139.6c0,0.3,0,0.5,0,0.7c-0.1,1.3-0.1,2.5-0.2,3.8c0,0.1,0,0.1,0.1,0.2c0.6,0.5,1.3,1,1.9,1.6
		c0,0,0.1,0,0.1,0.1c-0.6-0.2-1.2-0.4-1.9-0.6c-0.6,1.1-1.2,2.2-1.7,3.4c-0.4-0.2-0.8-0.5-1.2-0.7c-0.1,0-0.1-0.1-0.2,0
		c-1.1,0.2-2.1,0.3-3.2,0.5c-0.8,0.1-1.6,0.3-2.4,0.4c-0.1,0-0.1,0-0.2,0.1c0.9-0.9,1.8-1.9,2.6-2.8c-1.2-1.4-2.3-2.7-3.5-4.1
		c0,0,0,0,0,0c1.6,1.3,3.3,2.5,4.9,3.8c0.1-0.1,0.2-0.1,0.2-0.2c0,0,0-0.1,0.1-0.1c0.1-0.5,0.1-1,0.2-1.6c0-0.1,0-0.1,0.1-0.1
		C91.3,142.4,92.8,141.1,94.3,139.6C94.2,139.7,94.2,139.7,94.3,139.6 M91.6,145.5c0.8-1.8,1.6-3.6,2.4-5.5c0,0-0.1,0-0.1,0
		c-1.3,1.3-2.7,2.5-4,3.8c0,0-0.1,0.1-0.1,0.1c0,0.3-0.1,0.7-0.1,1c0,0.2,0,0.4-0.1,0.6c0.1,0,0.1-0.1,0.1-0.1
		c0.2-0.2,0.4-0.3,0.7-0.5c0.1-0.1,0.1-0.1,0.2,0C91.1,145.1,91.3,145.3,91.6,145.5 M94.2,140.1C94.1,140.1,94.1,140.1,94.2,140.1
		c-0.8,1.8-1.7,3.6-2.5,5.4c0.2,0.2,0.5,0.3,0.7,0.5c0.2-0.3,0.4-0.6,0.7-0.9c0.2-0.3,0.4-0.6,0.8-0.8c0,0,0.1-0.1,0.1-0.1
		c0-0.4,0-0.8,0.1-1.2c0-0.7,0.1-1.5,0.1-2.2C94.1,140.6,94.1,140.4,94.2,140.1 M90.9,146.9c-0.5-0.2-1-0.5-1.5-0.7c0,0-0.1,0-0.1,0
		c-0.4,0-0.8,0-1.1,0c-0.1,0-0.1,0-0.2,0.1c-0.7,0.8-1.5,1.5-2.2,2.3c0,0,0,0-0.1,0.1C87.4,148.1,89.1,147.5,90.9,146.9 M92.1,147.5
		c-0.4-0.2-0.7-0.3-1.1-0.5c0,0-0.1,0-0.2,0c-1.6,0.5-3.1,1.1-4.7,1.6c0,0-0.1,0-0.1,0c0.3,0,0.6-0.1,0.9-0.1
		c1.4-0.2,2.7-0.4,4.1-0.6C91.5,147.9,91.8,147.7,92.1,147.5 M89.3,145.9c-1.4-1.1-2.7-2.1-4.1-3.1c0,0,0,0.1,0,0.1
		c0.9,1.1,1.8,2.2,2.8,3.2c0,0,0.1,0.1,0.1,0.1c0.2,0,0.5,0,0.7,0C89,146.2,89.1,146.1,89.3,145.9 M93.5,144.9
		C93.5,144.9,93.5,144.9,93.5,144.9C93.5,144.9,93.5,144.9,93.5,144.9c-0.6,0.7-1.1,1.3-1.6,1.9c0,0.1,0,0.1,0,0.1
		c0.1,0.3,0.3,0.5,0.4,0.8c0,0.2,0.1,0.4,0.1,0.7c0-0.1,0-0.1,0-0.1c0.3-1,0.6-2.1,0.9-3.1C93.5,145.1,93.5,145,93.5,144.9
		 M91.1,146.9c-0.1-0.7-0.3-1.3-0.4-1.9c-0.5,0.4-1,0.8-1.4,1.1c0.2,0.1,0.3,0.1,0.5,0.2C90.2,146.5,90.6,146.7,91.1,146.9
		 M95.6,145.7C95.7,145.7,95.7,145.7,95.6,145.7c-0.5-0.5-1.1-0.9-1.6-1.3c0,0-0.1,0.1-0.1,0.1c-0.2,0.1-0.3,0.3-0.3,0.5
		c0,0.1,0,0.1,0.1,0.2c0.4,0.1,0.8,0.2,1.2,0.4C95.2,145.6,95.4,145.7,95.6,145.7 M93.6,145.2c-0.3,1-0.6,1.9-0.8,2.8c0,0,0,0,0,0
		c0.5-0.9,0.9-1.8,1.4-2.7C94,145.3,93.8,145.3,93.6,145.2 M92.4,146.1c-0.5-0.4-1-0.7-1.4-1c0,0,0,0,0,0c0.3,0.5,0.6,1.1,1,1.6
		C92,146.6,92.2,146.4,92.4,146.1 M92.1,147.4C92.1,147.4,92.1,147.4,92.1,147.4c-0.4-0.7-0.8-1.4-1.2-2.1c0.1,0.6,0.2,1.1,0.3,1.7
		c0,0,0,0.1,0.1,0.1C91.5,147.1,91.8,147.2,92.1,147.4 M91.4,148c0.3,0.2,0.6,0.4,1,0.6c-0.1-0.4-0.1-0.7-0.2-1
		C91.9,147.7,91.7,147.9,91.4,148"/>
</g>
</svg>
