<svg xmlns="http://www.w3.org/2000/svg" viewBox="0 0 445.55 266.38"><defs><style>.cls-1{isolation:isolate;}.cls-2{fill:#fff;}.cls-3{fill:#dc1c67;}.cls-4{fill:#0070ba;}.cls-5{fill:#65a6db;opacity:0.3;mix-blend-mode:multiply;}.cls-6{fill:none;stroke:#fff;stroke-linecap:round;stroke-linejoin:round;stroke-width:2.82px;}</style></defs><g class="cls-1"><g id="Capa_2" data-name="Capa 2"><g id="Capa_2-2" data-name="Capa 2"><path class="cls-2" d="M142.12,105.13H416.06a29.49,29.49,0,0,1,29.49,29.49v46.61a29.49,29.49,0,0,1-29.49,29.49H142.12a0,0,0,0,1,0,0V105.13A0,0,0,0,1,142.12,105.13Z"/><path class="cls-3" d="M196.41,147l-5.75,1.32L188.85,141l10-2.84h6.87l0,34.36-9.31,0Z"/><path class="cls-3" d="M211,155.52v-.1c0-9.65,6.12-17.75,15.82-17.76s15.75,8,15.76,17.62v.1c0,9.65-6.07,17.75-15.82,17.76S211,165.17,211,155.52Zm22.08,0v-.1c0-5.41-2.59-9.35-6.35-9.35s-6.23,3.81-6.22,9.27v.1c0,5.46,2.54,9.35,6.35,9.35S233.08,160.9,233.07,155.49Z"/><path class="cls-3" d="M246.52,155.47v-.09c0-9.65,6.12-17.75,15.82-17.76s15.75,8,15.76,17.62v.1c0,9.65-6.07,17.74-15.82,17.76S246.54,165.12,246.52,155.47Zm22.08,0v-.1c0-5.41-2.59-9.36-6.35-9.35s-6.23,3.81-6.22,9.27v.09c0,5.46,2.54,9.36,6.34,9.35S268.61,160.86,268.6,155.45Z"/><path class="cls-3" d="M282.05,155.43v-.1c0-9.65,6.12-17.75,15.82-17.76s15.75,8,15.76,17.62v.1c0,9.65-6.07,17.75-15.81,17.76S282.06,165.08,282.05,155.43Zm22.08,0v-.1c0-5.41-2.59-9.35-6.35-9.35s-6.23,3.81-6.22,9.27v.1c0,5.46,2.54,9.35,6.34,9.35S304.14,160.81,304.13,155.4Z"/><path class="cls-3" d="M332,138.21h9.45l0,13.84,11.73-13.86h11.21l-12.9,14.69,13.38,19.42-11.36,0L345,159.64l-3.46,3.85v8.82l-9.45,0Z"/><path class="cls-3" d="M365.62,177.16l3-6.15a18.22,18.22,0,0,0,9.22,2.48c4.63,0,6.91-2.3,6.91-6.49v-1a10.21,10.21,0,0,1-8.14,4c-6.48,0-11.7-4.66-11.71-12.22v-.1c0-7.6,5.3-12.28,11.39-12.29a10.61,10.61,0,0,1,8.29,3.69v-3.12h9.26l0,20c0,4.83-1.06,8.19-3.4,10.54s-6.08,3.71-11.59,3.71A28.23,28.23,0,0,1,365.62,177.16Zm19.08-19.47v-.1a5.39,5.39,0,0,0-10.77.06v.1a5.39,5.39,0,0,0,10.77-.06Z"/><path class="cls-3" d="M398.35,162.74H408v9.5h-9.65Z"/><path class="cls-4" d="M24,257.52c16,4.55,70.08,17.37,120.11.11a7.19,7.19,0,0,0,4.79-5.94l16.89-142.06a7.17,7.17,0,0,0-9-7.76C138,107.1,92.79,114.72,14.21,100.09a7.18,7.18,0,0,0-8.47,7.7L18.79,251.27A7.16,7.16,0,0,0,24,257.52Z"/><path class="cls-5" d="M156.73,101.87C138,107.1,92.79,114.72,14.21,100.09a7.18,7.18,0,0,0-8.47,7.7l4.4,48.4c48.78-23.92,99.66-27.48,153.12-27.72l2.49-18.84A7.17,7.17,0,0,0,156.73,101.87Z"/><path class="cls-4" d="M8.85,63.93,4.72,103.44H162.15l-4.84-36.56c-21.65,6.79-45.1,10.26-68.56,14.27C59.12,86.26,34.69,73.16,8.85,63.93Z"/><path class="cls-5" d="M8.85,63.93,4.72,103.44H162.15l-4.84-36.56c-21.65,6.79-45.1,10.26-68.56,14.27C59.12,86.26,34.69,73.16,8.85,63.93Z"/><path class="cls-4" d="M79.25,0C19.94.67,10,52.49,10,52.49L8.85,63.93c25.84,9.23,50.27,22.33,79.9,17.22,23.46-4,46.91-7.48,68.56-14.27l-2-15.16S146.94-.75,79.25,0Z"/><path d="M36.47,91.71l3.27-31.28s6.08-31.81,42.49-32.22C123.79,27.74,128.92,60,128.92,60l4.21,31.75"/><path class="cls-4" d="M6.07,107.08c19.27,7,82.94,26,157.52,3.94a9.17,9.17,0,0,0,6.54-8.54l.23-8.5a9.16,9.16,0,0,0-10.73-9.27C135,89,72.59,97,11.3,82.53a9.16,9.16,0,0,0-11.3,9l.05,7.06A9.13,9.13,0,0,0,6.07,107.08Z"/><path class="cls-2" d="M29.87,219.59v-.05a8.9,8.9,0,0,1,9.13-9,8.49,8.49,0,0,1,7.35,3.62l-3.61,2.79a4.64,4.64,0,0,0-3.79-2,4.28,4.28,0,0,0-4.13,4.58v0c0,2.59,1.71,4.62,4.13,4.62a4.73,4.73,0,0,0,3.91-2.1l3.61,2.57a8.73,8.73,0,0,1-7.67,3.91A8.79,8.79,0,0,1,29.87,219.59Z"/><path class="cls-2" d="M54.36,210.76H59l7.38,17.43H61.21L60,225.1H53.27L52,228.19H47Zm4.2,10.61-1.93-4.92-2,4.92Z"/><path class="cls-2" d="M68,210.88h8.18c2.65,0,4.48.69,5.64,1.88a5.37,5.37,0,0,1,1.53,4v.05a5.48,5.48,0,0,1-3.56,5.32l4.13,6H78.42L74.94,223H72.83v5.24H68Zm8,8.31c1.63,0,2.57-.79,2.57-2.05v0c0-1.36-1-2.06-2.6-2.06H72.83v4.16Z"/><path class="cls-2" d="M90,215.08H84.85v-4.2H100v4.2h-5.2v13.11H90Z"/><path class="cls-2" d="M101.54,219.59v-.05a9.34,9.34,0,0,1,18.66,0v0a9.34,9.34,0,0,1-18.66.05Zm13.76,0v-.05a4.51,4.51,0,0,0-4.45-4.68,4.41,4.41,0,0,0-4.38,4.63v0a4.49,4.49,0,0,0,4.42,4.67A4.42,4.42,0,0,0,115.3,219.59Zm-3.54-14.45,4.38,1.41-3.64,3.17h-3.31Z"/><path class="cls-2" d="M122.69,210.88h4.48l7.12,9.15v-9.15H139v17.31h-4.21l-7.39-9.49v9.49h-4.75Z"/><path class="cls-6" d="M81,187.92H59a3.4,3.4,0,0,1-2.87-5.22l12.57-19.88"/><path class="cls-6" d="M100.9,165.1l12.62,19.06a2.43,2.43,0,0,1-2,3.76H86.8"/><polyline class="cls-6" points="90.22 183.64 86.04 187.92 90.22 192.39"/><polyline class="cls-6" points="70.85 167.6 68.9 161.94 63.03 163.69"/><polyline class="cls-6" points="92.13 159.64 98.07 160.36 99.08 154.32"/><path class="cls-6" d="M71.87,158.38l9.89-15.93a2.74,2.74,0,0,1,4.6,0l11.15,17.13"/></g></g></g></svg>