<svg xmlns="http://www.w3.org/2000/svg" viewBox="0 0 413.07 266.38"><defs><style>.cls-1{isolation:isolate;}.cls-2{fill:#fff;}.cls-3{fill:#dc1c67;}.cls-4{fill:#0070ba;}.cls-5{fill:#65a6db;opacity:0.3;mix-blend-mode:multiply;}.cls-6{fill:none;stroke:#fff;stroke-linecap:round;stroke-linejoin:round;stroke-width:2.82px;}</style></defs><g class="cls-1"><g id="Capa_2" data-name="Capa 2"><g id="Capa_2-2" data-name="Capa 2"><path class="cls-2" d="M109.64,105.13H383.58a29.49,29.49,0,0,1,29.49,29.49v46.61a29.49,29.49,0,0,1-29.49,29.49H109.64a0,0,0,0,1,0,0V105.13A0,0,0,0,1,109.64,105.13Z"/><path class="cls-3" d="M195.54,168.23l12.76-9.76c3.16-2.49,4.38-4.1,4.38-6.15s-1.52-3.46-3.81-3.45-4.09,1.32-6.77,4.39l-6.39-5.3c3.65-4.73,7.26-7.32,13.88-7.33,7.46,0,12.58,4.42,12.59,10.85v.1c0,5.46-2.82,8.29-7.88,11.95l-5.84,4.1,14.08,0v7.7l-27,0Z"/><path class="cls-3" d="M226.28,158.35v-.1c0-9.65,6.12-17.75,15.82-17.76s15.75,8,15.76,17.62v.1c0,9.65-6.07,17.75-15.81,17.76S226.29,168,226.28,158.35Zm22.08,0v-.1c0-5.41-2.59-9.35-6.35-9.35s-6.23,3.81-6.22,9.27v.1c0,5.46,2.54,9.35,6.34,9.35S248.37,163.73,248.36,158.32Z"/><path class="cls-3" d="M261.81,158.31v-.1c0-9.65,6.12-17.75,15.82-17.76s15.75,8,15.76,17.62v.1c0,9.65-6.07,17.75-15.81,17.76S261.82,168,261.81,158.31Zm22.08,0v-.1c0-5.41-2.6-9.35-6.35-9.35s-6.23,3.81-6.22,9.27v.1c0,5.45,2.54,9.35,6.34,9.35S283.9,163.69,283.89,158.28Z"/><path class="cls-3" d="M311.79,141.09h9.46l0,13.84L333,141.06H344.2l-12.89,14.68,13.37,19.43-11.35,0-8.59-12.66-3.46,3.85v8.82h-9.45Z"/><path class="cls-3" d="M345.37,180l3-6.14a18.11,18.11,0,0,0,9.21,2.47c4.63,0,6.92-2.29,6.92-6.49v-1a10.24,10.24,0,0,1-8.14,4c-6.48,0-11.7-4.67-11.71-12.22v-.1c0-7.6,5.3-12.29,11.39-12.29a10.58,10.58,0,0,1,8.29,3.69v-3.12h9.26l0,20c0,4.82-1.06,8.19-3.4,10.53S364.09,183,358.59,183A28.18,28.18,0,0,1,345.37,180Zm19.08-19.46v-.1a5,5,0,0,0-5.36-5.06,5.1,5.1,0,0,0-5.41,5.12v.1a5.39,5.39,0,0,0,10.77-.06Z"/><path class="cls-3" d="M378.11,165.62l9.65,0v9.51h-9.65Z"/><path class="cls-4" d="M24,257.52c16,4.55,70.08,17.37,120.11.11a7.19,7.19,0,0,0,4.79-5.94l16.89-142.06a7.17,7.17,0,0,0-9-7.76C138,107.1,92.79,114.72,14.21,100.09a7.18,7.18,0,0,0-8.47,7.7L18.79,251.27A7.16,7.16,0,0,0,24,257.52Z"/><path class="cls-5" d="M156.73,101.87C138,107.1,92.79,114.72,14.21,100.09a7.18,7.18,0,0,0-8.47,7.7l4.4,48.4c48.78-23.92,99.66-27.48,153.12-27.72l2.49-18.84A7.17,7.17,0,0,0,156.73,101.87Z"/><path class="cls-4" d="M8.85,63.93,4.72,103.44H162.15l-4.84-36.56c-21.65,6.79-45.1,10.26-68.56,14.27C59.12,86.26,34.69,73.16,8.85,63.93Z"/><path class="cls-5" d="M8.85,63.93,4.72,103.44H162.15l-4.84-36.56c-21.65,6.79-45.1,10.26-68.56,14.27C59.12,86.26,34.69,73.16,8.85,63.93Z"/><path class="cls-4" d="M79.25,0C19.94.67,10,52.49,10,52.49L8.85,63.93c25.84,9.23,50.27,22.33,79.9,17.22,23.46-4,46.91-7.48,68.56-14.27l-2-15.16S146.94-.75,79.25,0Z"/><path d="M36.47,91.71l3.27-31.28s6.08-31.81,42.49-32.22C123.79,27.74,128.92,60,128.92,60l4.21,31.75"/><path class="cls-4" d="M6.07,107.08c19.27,7,82.94,26,157.52,3.94a9.17,9.17,0,0,0,6.54-8.54l.23-8.5a9.16,9.16,0,0,0-10.73-9.27C135,89,72.59,97,11.3,82.53a9.16,9.16,0,0,0-11.3,9l.05,7.06A9.13,9.13,0,0,0,6.07,107.08Z"/><path class="cls-2" d="M30.29,212.88h6.57c3.87,0,6.36,2,6.36,5.38v0c0,3.61-2.78,5.52-6.58,5.52h-2.1v4.37H30.29Zm6.26,7.61c1.51,0,2.43-.79,2.43-2v0c0-1.32-.92-2-2.45-2h-2v4.05Z"/><path class="cls-2" d="M45,212.88h4.24v11.59h7.42v3.72H45Z"/><path class="cls-2" d="M63.79,212.77h4.09l6.52,15.42H69.85l-1.12-2.73h-5.9l-1.1,2.73H57.27Zm3.72,9.38L65.8,217.8l-1.73,4.35ZM66.39,207.8l3.88,1.25-3.22,2.8H64.12Z"/><path class="cls-2" d="M74.73,225.92l2.36-2.82a7.89,7.89,0,0,0,5,1.83c1.13,0,1.75-.39,1.75-1.05v0c0-.64-.51-1-2.59-1.47-3.26-.74-5.77-1.66-5.77-4.81v0c0-2.85,2.25-4.91,5.93-4.91a9.67,9.67,0,0,1,6.3,2l-2.12,3a7.66,7.66,0,0,0-4.29-1.51c-1,0-1.53.43-1.53,1v0c0,.7.52,1,2.64,1.48,3.53.77,5.72,1.91,5.72,4.77v.05c0,3.13-2.48,5-6.2,5A10.71,10.71,0,0,1,74.73,225.92Z"/><path class="cls-2" d="M93.45,216.6H88.86v-3.72h13.43v3.72H97.7v11.59H93.45Z"/><path class="cls-2" d="M104.24,212.88h4.26v15.31h-4.26Z"/><path class="cls-2" d="M110.78,220.58v0a7.86,7.86,0,0,1,8.07-8,7.48,7.48,0,0,1,6.5,3.2l-3.19,2.47a4.11,4.11,0,0,0-3.35-1.8,3.79,3.79,0,0,0-3.65,4.05v0a3.79,3.79,0,0,0,3.65,4.09,4.2,4.2,0,0,0,3.46-1.86l3.19,2.27a8.06,8.06,0,0,1-14.68-4.46Z"/><path class="cls-2" d="M126.31,220.58v0a8,8,0,0,1,8.27-8,8,8,0,0,1,8.23,7.92v0a8.26,8.26,0,0,1-16.5,0Zm12.17,0v0a4,4,0,0,0-3.94-4.14,3.9,3.9,0,0,0-3.87,4.09v0a4,4,0,0,0,3.91,4.13A3.91,3.91,0,0,0,138.48,220.58Z"/><path class="cls-6" d="M81,187.92H59a3.4,3.4,0,0,1-2.87-5.22l12.57-19.88"/><path class="cls-6" d="M100.9,165.1l12.62,19.06a2.43,2.43,0,0,1-2,3.76H86.8"/><polyline class="cls-6" points="90.22 183.64 86.04 187.92 90.22 192.39"/><polyline class="cls-6" points="70.85 167.6 68.9 161.94 63.03 163.69"/><polyline class="cls-6" points="92.13 159.64 98.07 160.36 99.08 154.32"/><path class="cls-6" d="M71.87,158.38l9.89-15.93a2.74,2.74,0,0,1,4.6,0l11.15,17.13"/></g></g></g></svg>