<svg xmlns="http://www.w3.org/2000/svg" viewBox="0 0 454.11 266.38"><defs><style>.cls-1{isolation:isolate;}.cls-2{fill:#fff;}.cls-3{fill:#dc1c67;}.cls-4{fill:#0070ba;}.cls-5{fill:#65a6db;opacity:0.3;mix-blend-mode:multiply;}.cls-6{fill:none;stroke:#fff;stroke-linecap:round;stroke-linejoin:round;stroke-width:2.82px;}</style></defs><g class="cls-1"><g id="Capa_2" data-name="Capa 2"><g id="Capa_2-2" data-name="Capa 2"><path class="cls-2" d="M150.68,105.13H424.62a29.49,29.49,0,0,1,29.49,29.49v46.61a29.49,29.49,0,0,1-29.49,29.49H150.68a0,0,0,0,1,0,0V105.13A0,0,0,0,1,150.68,105.13Z"/><path class="cls-3" d="M193,165.4l12.76-9.77c3.16-2.49,4.38-4.1,4.38-6.14S208.59,146,206.3,146s-4.09,1.32-6.77,4.39l-6.39-5.3c3.65-4.73,7.25-7.32,13.88-7.33,7.46,0,12.58,4.42,12.59,10.86v.09c0,5.46-2.82,8.29-7.88,11.95l-5.84,4.1H220v7.7l-27,0Z"/><path class="cls-3" d="M223.71,155.51v-.1c0-9.65,6.12-17.74,15.82-17.76s15.75,8,15.76,17.63v.09c0,9.65-6.07,17.75-15.81,17.76S223.72,165.16,223.71,155.51Zm22.08,0v-.09c0-5.41-2.6-9.36-6.35-9.35s-6.23,3.81-6.22,9.26v.1c0,5.46,2.54,9.36,6.34,9.35S245.8,160.89,245.79,155.48Z"/><path class="cls-3" d="M259.24,155.47v-.1c0-9.65,6.12-17.75,15.82-17.76s15.75,8,15.76,17.62v.1c0,9.65-6.07,17.75-15.82,17.76S259.25,165.12,259.24,155.47Zm22.08,0v-.1c0-5.41-2.6-9.35-6.35-9.35s-6.23,3.81-6.22,9.27v.1c0,5.46,2.54,9.35,6.34,9.35S281.33,160.85,281.32,155.44Z"/><path class="cls-3" d="M294.77,155.42v-.09c0-9.65,6.12-17.75,15.82-17.76s15.75,8,15.76,17.62v.1c0,9.65-6.07,17.74-15.82,17.76S294.78,165.07,294.77,155.42Zm22.08,0v-.1c0-5.41-2.6-9.36-6.35-9.35s-6.23,3.81-6.23,9.27v.09c0,5.46,2.55,9.36,6.35,9.35S316.85,160.8,316.85,155.4Z"/><path class="cls-3" d="M344.75,138.21l9.46,0,0,13.84L366,138.18l11.21,0-12.89,14.69,13.37,19.43H366.29l-8.6-12.66-3.45,3.86v8.82H344.8Z"/><path class="cls-3" d="M378.34,177.15l3-6.14a18.21,18.21,0,0,0,9.21,2.47c4.63,0,6.92-2.3,6.92-6.49v-1a10.23,10.23,0,0,1-8.13,4c-6.48,0-11.7-4.67-11.71-12.22v-.1c0-7.6,5.3-12.29,11.39-12.3a10.58,10.58,0,0,1,8.29,3.7v-3.12h9.26l0,20c0,4.82-1.06,8.19-3.4,10.53s-6.09,3.71-11.59,3.72A28.23,28.23,0,0,1,378.34,177.15Zm19.08-19.47v-.1a5.06,5.06,0,0,0-5.37-5.06,5.11,5.11,0,0,0-5.41,5.13v.09a5.4,5.4,0,0,0,10.78-.06Z"/><path class="cls-3" d="M411.07,162.73h9.65v9.51h-9.65Z"/><path class="cls-4" d="M24,257.52c16,4.55,70.08,17.37,120.11.11a7.19,7.19,0,0,0,4.79-5.94l16.89-142.06a7.17,7.17,0,0,0-9-7.76C138,107.1,92.79,114.72,14.21,100.09a7.18,7.18,0,0,0-8.47,7.7L18.79,251.27A7.16,7.16,0,0,0,24,257.52Z"/><path class="cls-5" d="M156.73,101.87C138,107.1,92.79,114.72,14.21,100.09a7.18,7.18,0,0,0-8.47,7.7l4.4,48.4c48.78-23.92,99.66-27.48,153.12-27.72l2.49-18.84A7.17,7.17,0,0,0,156.73,101.87Z"/><path class="cls-4" d="M8.85,63.93,4.72,103.44H162.15l-4.84-36.56c-21.65,6.79-45.1,10.26-68.56,14.27C59.12,86.26,34.69,73.16,8.85,63.93Z"/><path class="cls-5" d="M8.85,63.93,4.72,103.44H162.15l-4.84-36.56c-21.65,6.79-45.1,10.26-68.56,14.27C59.12,86.26,34.69,73.16,8.85,63.93Z"/><path class="cls-4" d="M79.25,0C19.94.67,10,52.49,10,52.49L8.85,63.93c25.84,9.23,50.27,22.33,79.9,17.22,23.46-4,46.91-7.48,68.56-14.27l-2-15.16S146.94-.75,79.25,0Z"/><path d="M36.47,91.71l3.27-31.28s6.08-31.81,42.49-32.22C123.79,27.74,128.92,60,128.92,60l4.21,31.75"/><path class="cls-4" d="M6.07,107.08c19.27,7,82.94,26,157.52,3.94a9.17,9.17,0,0,0,6.54-8.54l.23-8.5a9.16,9.16,0,0,0-10.73-9.27C135,89,72.59,97,11.3,82.53a9.16,9.16,0,0,0-11.3,9l.05,7.06A9.13,9.13,0,0,0,6.07,107.08Z"/><path class="cls-2" d="M38.31,211.07h8.56c5.05,0,8.31,2.6,8.31,7v.06c0,4.71-3.63,7.19-8.59,7.19H43.85v5.71H38.31ZM46.47,221c2,0,3.17-1,3.17-2.59v-.06c0-1.71-1.2-2.62-3.19-2.62h-2.6V221Z"/><path class="cls-2" d="M62.43,210.93h5.33l8.5,20.12H70.33l-1.46-3.57h-7.7l-1.43,3.57H53.92Zm4.85,12.24-2.23-5.68-2.25,5.68Z"/><path class="cls-2" d="M78.21,211.07h8.56c5,0,8.3,2.6,8.3,7v.06c0,4.71-3.62,7.19-8.59,7.19H83.74v5.71H78.21ZM86.37,221c2,0,3.16-1,3.16-2.59v-.06c0-1.71-1.19-2.62-3.19-2.62h-2.6V221Z"/><path class="cls-2" d="M97.41,211.07h16.07v4.71H102.89v3h9.59v4.36h-9.59v3.17h10.73v4.71H97.41Z"/><path class="cls-2" d="M116.44,211.07H122V226.2h9.67v4.85H116.44Z"/><path class="cls-6" d="M81,187.92H59a3.4,3.4,0,0,1-2.87-5.22l12.57-19.88"/><path class="cls-6" d="M100.9,165.1l12.62,19.06a2.43,2.43,0,0,1-2,3.76H86.8"/><polyline class="cls-6" points="90.22 183.64 86.04 187.92 90.22 192.39"/><polyline class="cls-6" points="70.85 167.6 68.9 161.94 63.03 163.69"/><polyline class="cls-6" points="92.13 159.64 98.07 160.36 99.08 154.32"/><path class="cls-6" d="M71.87,158.38l9.89-15.93a2.74,2.74,0,0,1,4.6,0l11.15,17.13"/></g></g></g></svg>