<svg xmlns="http://www.w3.org/2000/svg" viewBox="0 0 442.87 266.38"><defs><style>.cls-1{isolation:isolate;}.cls-2{fill:#fff;}.cls-3{fill:#dc1c67;}.cls-4{fill:#0070ba;}.cls-5{fill:#65a6db;opacity:0.3;mix-blend-mode:multiply;}.cls-6{fill:none;stroke:#fff;stroke-linecap:round;stroke-linejoin:round;stroke-width:2.82px;}</style></defs><g class="cls-1"><g id="Capa_2" data-name="Capa 2"><g id="Capa_2-2" data-name="Capa 2"><path class="cls-2" d="M139.44,105.13H413.38a29.49,29.49,0,0,1,29.49,29.49v46.61a29.49,29.49,0,0,1-29.49,29.49H139.44a0,0,0,0,1,0,0V105.13A0,0,0,0,1,139.44,105.13Z"/><path class="cls-3" d="M181.39,170.64l5.4-6.34c2.79,2.34,5.42,3.7,8.3,3.69,3.11,0,5-1.56,5-4v-.09c0-2.44-2-4-5-4a10.35,10.35,0,0,0-5.45,1.72L184,158.55l1-17.3,22.81,0V149l-15.35,0-.29,5.17A11.94,11.94,0,0,1,197.6,153c6.14,0,11.7,3.4,11.71,10.81v.09c0,7.61-5.78,12.15-14.07,12.16A19.18,19.18,0,0,1,181.39,170.64Z"/><path class="cls-3" d="M213.1,158.37v-.1c0-9.65,6.12-17.74,15.82-17.76s15.75,8,15.76,17.63v.1c0,9.64-6.06,17.74-15.81,17.75S213.12,168,213.1,158.37Zm22.08,0v-.09c0-5.41-2.59-9.36-6.34-9.35s-6.24,3.81-6.23,9.26v.1c0,5.46,2.54,9.36,6.35,9.35S235.19,163.75,235.18,158.34Z"/><path class="cls-3" d="M248.63,158.33v-.1c0-9.65,6.12-17.75,15.82-17.76s15.75,8,15.76,17.62v.1c0,9.65-6.06,17.75-15.81,17.76S248.65,168,248.63,158.33Zm22.08,0v-.1c0-5.41-2.59-9.35-6.35-9.35s-6.23,3.81-6.22,9.27v.1c0,5.46,2.54,9.35,6.35,9.35S270.72,163.71,270.71,158.3Z"/><path class="cls-3" d="M284.16,158.28v-.09c0-9.66,6.12-17.75,15.82-17.76s15.75,8,15.76,17.62v.1c0,9.65-6.06,17.74-15.81,17.76S284.18,167.93,284.16,158.28Zm22.08,0v-.1c0-5.41-2.59-9.36-6.35-9.35s-6.23,3.81-6.22,9.27v.09c0,5.46,2.54,9.36,6.34,9.35S306.25,163.66,306.24,158.26Z"/><path class="cls-3" d="M334.15,141.07l9.45,0,0,13.84L355.35,141h11.21l-12.9,14.68L367,175.14H355.68l-8.59-12.66-3.46,3.86v8.82h-9.45Z"/><path class="cls-3" d="M367.73,180l3-6.14a18.22,18.22,0,0,0,9.22,2.47c4.63,0,6.92-2.3,6.91-6.49v-1a10.27,10.27,0,0,1-8.14,4c-6.48,0-11.7-4.67-11.71-12.22v-.1c0-7.6,5.3-12.29,11.39-12.3a10.61,10.61,0,0,1,8.29,3.7v-3.12h9.26l0,20c0,4.82-1.06,8.19-3.4,10.53S386.45,183,380.94,183A28.23,28.23,0,0,1,367.73,180Zm19.08-19.47v-.1a5.39,5.39,0,0,0-10.77.07v.1c0,2.92,2.24,5.06,5.41,5.06A5.1,5.1,0,0,0,386.81,160.54Z"/><path class="cls-3" d="M400.46,165.59h9.65v9.51h-9.65Z"/><path class="cls-4" d="M24,257.52c16,4.55,70.08,17.37,120.11.11a7.19,7.19,0,0,0,4.79-5.94l16.89-142.06a7.17,7.17,0,0,0-9-7.76C138,107.1,92.79,114.72,14.21,100.09a7.18,7.18,0,0,0-8.47,7.7L18.79,251.27A7.16,7.16,0,0,0,24,257.52Z"/><path class="cls-5" d="M156.73,101.87C138,107.1,92.79,114.72,14.21,100.09a7.18,7.18,0,0,0-8.47,7.7l4.4,48.4c48.78-23.92,99.66-27.48,153.12-27.72l2.49-18.84A7.17,7.17,0,0,0,156.73,101.87Z"/><path class="cls-4" d="M8.85,63.93,4.72,103.44H162.15l-4.84-36.56c-21.65,6.79-45.1,10.26-68.56,14.27C59.12,86.26,34.69,73.16,8.85,63.93Z"/><path class="cls-5" d="M8.85,63.93,4.72,103.44H162.15l-4.84-36.56c-21.65,6.79-45.1,10.26-68.56,14.27C59.12,86.26,34.69,73.16,8.85,63.93Z"/><path class="cls-4" d="M79.25,0C19.94.67,10,52.49,10,52.49L8.85,63.93c25.84,9.23,50.27,22.33,79.9,17.22,23.46-4,46.91-7.48,68.56-14.27l-2-15.16S146.94-.75,79.25,0Z"/><path d="M36.47,91.71l3.27-31.28s6.08-31.81,42.49-32.22C123.79,27.74,128.92,60,128.92,60l4.21,31.75"/><path class="cls-4" d="M6.07,107.08c19.27,7,82.94,26,157.52,3.94a9.17,9.17,0,0,0,6.54-8.54l.23-8.5a9.16,9.16,0,0,0-10.73-9.27C135,89,72.59,97,11.3,82.53a9.16,9.16,0,0,0-11.3,9l.05,7.06A9.13,9.13,0,0,0,6.07,107.08Z"/><path class="cls-2" d="M41.29,214h-6v-4.85H52.82V214h-6v15.13H41.29Z"/><path class="cls-2" d="M59.58,209h5.34l8.5,20.12H67.49L66,225.58h-7.7l-1.43,3.57H51.08Zm4.85,12.24-2.22-5.68L60,221.27Z"/><path class="cls-2" d="M75.36,209.17h8.56c5,0,8.31,2.6,8.31,7v.06c0,4.71-3.63,7.19-8.59,7.19H80.9v5.71H75.36Zm8.16,9.93c2,0,3.17-1,3.17-2.6v-.05c0-1.71-1.2-2.63-3.2-2.63H80.9v5.28Z"/><path class="cls-2" d="M99.47,209h5.34l8.5,20.12h-5.93l-1.46-3.57h-7.7l-1.43,3.57H91Zm4.86,12.24-2.23-5.68-2.25,5.68Z"/><path class="cls-2" d="M113.46,226.18l3.08-3.68a10.26,10.26,0,0,0,6.47,2.39c1.49,0,2.29-.51,2.29-1.37v-.05c0-.83-.66-1.29-3.37-1.91-4.25-1-7.53-2.17-7.53-6.28v-.06c0-3.71,2.94-6.39,7.73-6.39a12.57,12.57,0,0,1,8.22,2.65l-2.77,3.91a10,10,0,0,0-5.59-2c-1.34,0-2,.57-2,1.29v0c0,.92.69,1.32,3.45,1.94,4.6,1,7.45,2.49,7.45,6.22V223c0,4.08-3.22,6.51-8.07,6.51A14,14,0,0,1,113.46,226.18Z"/><path class="cls-6" d="M81,187.92H59a3.4,3.4,0,0,1-2.87-5.22l12.57-19.88"/><path class="cls-6" d="M100.9,165.1l12.62,19.06a2.43,2.43,0,0,1-2,3.76H86.8"/><polyline class="cls-6" points="90.22 183.64 86.04 187.92 90.22 192.39"/><polyline class="cls-6" points="70.85 167.6 68.9 161.94 63.03 163.69"/><polyline class="cls-6" points="92.13 159.64 98.07 160.36 99.08 154.32"/><path class="cls-6" d="M71.87,158.38l9.89-15.93a2.74,2.74,0,0,1,4.6,0l11.15,17.13"/></g></g></g></svg>