<svg xmlns="http://www.w3.org/2000/svg" viewBox="0 0 416.23 266.38"><defs><style>.cls-1{isolation:isolate;}.cls-2{fill:#fff;}.cls-3{fill:#dc1c67;}.cls-4{fill:#0070ba;}.cls-5{fill:#65a6db;opacity:0.3;mix-blend-mode:multiply;}.cls-6{fill:none;stroke:#fff;stroke-linecap:round;stroke-linejoin:round;stroke-width:2.82px;}</style></defs><g class="cls-1"><g id="Capa_2" data-name="Capa 2"><g id="Capa_2-2" data-name="Capa 2"><path class="cls-2" d="M112.8,105.13H386.74a29.49,29.49,0,0,1,29.49,29.49v46.61a29.49,29.49,0,0,1-29.49,29.49H112.8a0,0,0,0,1,0,0V105.13A0,0,0,0,1,112.8,105.13Z"/><path class="cls-3" d="M193.91,168.23l12.75-9.76c3.17-2.49,4.39-4.1,4.38-6.15s-1.51-3.46-3.8-3.46-4.1,1.33-6.77,4.4l-6.39-5.3c3.65-4.74,7.25-7.32,13.88-7.33,7.45,0,12.58,4.42,12.59,10.85v.1c0,5.46-2.82,8.29-7.89,11.95l-5.84,4.1,14.09,0v7.7l-27,0Z"/><path class="cls-3" d="M223.59,170.58l5.4-6.34c2.78,2.33,5.42,3.7,8.29,3.69,3.12,0,5-1.56,5-4v-.1c0-2.43-2.05-3.94-5-3.94a10.34,10.34,0,0,0-5.45,1.71l-5.61-3.11.95-17.3,22.81,0V149l-15.35,0-.29,5.16a12.07,12.07,0,0,1,5.46-1.22c6.14,0,11.7,3.39,11.71,10.8v.1c0,7.6-5.79,12.14-14.07,12.15A19.13,19.13,0,0,1,223.59,170.58Z"/><path class="cls-3" d="M255.3,158.31v-.1c0-9.65,6.12-17.75,15.82-17.76s15.75,8,15.76,17.62v.1c0,9.65-6.07,17.75-15.81,17.76S255.31,168,255.3,158.31Zm22.08,0v-.1c0-5.41-2.59-9.35-6.35-9.35s-6.23,3.81-6.22,9.27v.1c0,5.46,2.54,9.35,6.34,9.35S277.39,163.69,277.38,158.28Z"/><path class="cls-3" d="M305.28,141.09h9.46l0,13.84,11.73-13.86h11.2L324.8,155.74l13.38,19.42-11.36,0-8.59-12.66-3.46,3.85v8.82l-9.45,0Z"/><path class="cls-3" d="M338.87,180l3-6.15a18.21,18.21,0,0,0,9.21,2.48c4.63,0,6.92-2.3,6.92-6.49v-1a10.21,10.21,0,0,1-8.14,4c-6.48,0-11.7-4.66-11.71-12.22v-.1c0-7.6,5.3-12.28,11.39-12.29a10.58,10.58,0,0,1,8.29,3.69v-3.12H367l0,20c0,4.83-1.06,8.19-3.4,10.53S357.58,183,352.08,183A28.23,28.23,0,0,1,338.87,180ZM358,160.57v-.1a5.05,5.05,0,0,0-5.37-5.06,5.1,5.1,0,0,0-5.41,5.12v.1a5.4,5.4,0,0,0,10.78-.06Z"/><path class="cls-3" d="M371.6,165.62h9.65v9.5h-9.65Z"/><path class="cls-4" d="M24,257.52c16,4.55,70.08,17.37,120.11.11a7.19,7.19,0,0,0,4.79-5.94l16.89-142.06a7.17,7.17,0,0,0-9-7.76C138,107.1,92.79,114.72,14.21,100.09a7.18,7.18,0,0,0-8.47,7.7L18.79,251.27A7.16,7.16,0,0,0,24,257.52Z"/><path class="cls-5" d="M156.73,101.87C138,107.1,92.79,114.72,14.21,100.09a7.18,7.18,0,0,0-8.47,7.7l4.4,48.4c48.78-23.92,99.66-27.48,153.12-27.72l2.49-18.84A7.17,7.17,0,0,0,156.73,101.87Z"/><path class="cls-4" d="M8.85,63.93,4.72,103.44H162.15l-4.84-36.56c-21.65,6.79-45.1,10.26-68.56,14.27C59.12,86.26,34.69,73.16,8.85,63.93Z"/><path class="cls-5" d="M8.85,63.93,4.72,103.44H162.15l-4.84-36.56c-21.65,6.79-45.1,10.26-68.56,14.27C59.12,86.26,34.69,73.16,8.85,63.93Z"/><path class="cls-4" d="M79.25,0C19.94.67,10,52.49,10,52.49L8.85,63.93c25.84,9.23,50.27,22.33,79.9,17.22,23.46-4,46.91-7.48,68.56-14.27l-2-15.16S146.94-.75,79.25,0Z"/><path d="M36.47,91.71l3.27-31.28s6.08-31.81,42.49-32.22C123.79,27.74,128.92,60,128.92,60l4.21,31.75"/><path class="cls-4" d="M6.07,107.08c19.27,7,82.94,26,157.52,3.94a9.17,9.17,0,0,0,6.54-8.54l.23-8.5a9.16,9.16,0,0,0-10.73-9.27C135,89,72.59,97,11.3,82.53a9.16,9.16,0,0,0-11.3,9l.05,7.06A9.13,9.13,0,0,0,6.07,107.08Z"/><path class="cls-2" d="M32.91,212H39.1l4.54,12.64L48.18,212h6.07l-8.1,20.11H41Z"/><path class="cls-2" d="M56.31,212h5.56v20H56.31Z"/><path class="cls-2" d="M65.53,212h7.7c7.13,0,11.27,4.1,11.27,9.87v0c0,5.77-4.19,10.05-11.38,10.05H65.53Zm7.79,15.06c3.31,0,5.51-1.83,5.51-5.05V222c0-3.19-2.2-5-5.51-5H71.06v10.16Z"/><path class="cls-2" d="M87.36,212H96.8c3,0,5.17.79,6.51,2.16a6.2,6.2,0,0,1,1.77,4.65v.06A6.33,6.33,0,0,1,101,225l4.76,7H99.34l-4-6.05H92.89V232H87.36Zm9.19,9.58c1.88,0,3-.91,3-2.37v-.05c0-1.57-1.14-2.37-3-2.37H92.89v4.79Z"/><path class="cls-2" d="M108,212h5.56v20H108Z"/><path class="cls-2" d="M116.52,222.07V222A10.77,10.77,0,0,1,138,222V222a10.77,10.77,0,0,1-21.52.06Zm15.87,0V222a5.19,5.19,0,0,0-5.14-5.39,5.09,5.09,0,0,0-5,5.33V222a5.18,5.18,0,0,0,5.11,5.39A5.09,5.09,0,0,0,132.39,222.07Z"/><path class="cls-6" d="M81,187.92H59a3.4,3.4,0,0,1-2.87-5.22l12.57-19.88"/><path class="cls-6" d="M100.9,165.1l12.62,19.06a2.43,2.43,0,0,1-2,3.76H86.8"/><polyline class="cls-6" points="90.22 183.64 86.04 187.92 90.22 192.39"/><polyline class="cls-6" points="70.85 167.6 68.9 161.94 63.03 163.69"/><polyline class="cls-6" points="92.13 159.64 98.07 160.36 99.08 154.32"/><path class="cls-6" d="M71.87,158.38l9.89-15.93a2.74,2.74,0,0,1,4.6,0l11.15,17.13"/></g></g></g></svg>