<svg xmlns="http://www.w3.org/2000/svg" viewBox="0 0 158.26 157.46"><defs><style>.cls-1{fill:#7a74b4;}.cls-2{fill:#fff;}</style></defs><g id="Capa_2" data-name="Capa 2"><g id="Capa_2-2" data-name="Capa 2"><path class="cls-1" d="M80.35,146.84a36.76,36.76,0,0,1-17,8c-4.5.8-14.48,2.62-22.39-3.57-9-7-8.69-19.16-8.61-22.43.29-12.54,7.88-20.83,10-23a31.32,31.32,0,0,0,6-9c.49-1.16.81-2.17,2-5a44.33,44.33,0,0,0,2-5c.7-2.37.39-2.56,1-4,.36-.86,1.7-4,3.66-4.26,2.6-.33,3.4,5,6.79,5.33,3.82.41,5.45-5.4,9.65-5.26,4,.14,4.6,5.38,8.69,5.72,4.46.38,5.71-5.73,10.72-6,5.59-.32,8.16,7.08,12.43,6,3.85-1,4.06-7.54,7.72-7.72.91,0,2.32.83,5.15,2.57a49.26,49.26,0,0,1,4.68,3.32c2.06,1.64,3.2,2.91,4.11,3.6,4.34,3.34,4.83,2.65,9.22,6,7.25,5.44,10.29,10.29,10.29,10.29a30.77,30.77,0,0,1,3.89,10.46c.54,3,1.2,6.66,0,11-1.87,6.75-7,10.49-9,12-4.74,3.52-9.38,4.45-12.87,5.15-6.24,1.24-9.33.32-20.58,0-5.56-.16-10.07-.08-12.87,0a65.67,65.67,0,0,0-7.72,2.57A67.72,67.72,0,0,0,80.35,146.84Z"/><path class="cls-2" d="M56.45,157.46h-.63c-10.36-.22-17.77-4.8-22-13.61-4.66-9.62-4.3-19.43,1.08-29.16,1.77-3.21,3.85-6.31,5.85-9.31q1.36-2,2.69-4.09l1.34-2c.85-1.3,1.71-2.61,2.55-3.94,2.08-3.25,2.89-6.84,3.47-11.22l.34-2.47c.21-1.58.43-3.16.66-4.73,1.33-9.24,6.6-16.13,15.65-20.48a40,40,0,0,1,21.15-3.84c8.8.77,15.58,4.75,20.15,11.82,1.28,2,2.6,4,3.77,6.16a31.31,31.31,0,0,0,11.67,12c5.7,3.49,10.21,6.43,14.22,9.26a32.35,32.35,0,0,1,11.9,14.66c.41,1.07.74,2.15,1,3.21.16.52.31,1,.48,1.56l0,.18a32.58,32.58,0,0,1-.43,13.63c-1.56,6.51-5.89,11.43-13.23,15.06a33,33,0,0,1-18.81,3,112.19,112.19,0,0,0-17.18-.85,43.55,43.55,0,0,0-17.37,4.51c-3.38,1.62-6.94,3.48-11.55,6.05A33.88,33.88,0,0,1,56.45,157.46ZM84.86,55.39a37,37,0,0,0-16.15,3.72c-8.21,3.94-12.78,9.89-14,18.2-.22,1.57-.44,3.13-.65,4.7l-.33,2.47c-.55,4.13-1.41,8.5-3.92,12.43-.84,1.34-1.71,2.66-2.58,4l-1.32,2c-.88,1.38-1.8,2.75-2.72,4.13-2,2.94-4,6-5.72,9.09-4.88,8.83-5.21,17.71-1,26.4,3.79,7.82,10.13,11.72,19.4,11.92a30.9,30.9,0,0,0,15.93-4.27c4.67-2.6,8.28-4.49,11.72-6.13a46.37,46.37,0,0,1,18.55-4.81,115.52,115.52,0,0,1,17.64.87,30,30,0,0,0,17.13-2.69c6.49-3.21,10.3-7.48,11.64-13.07a29.74,29.74,0,0,0,.42-12.29c-.16-.51-.31-1-.47-1.53-.31-1-.6-2-1-3a29.35,29.35,0,0,0-10.83-13.29c-3.95-2.79-8.42-5.7-14-9.14A34.45,34.45,0,0,1,109.84,72c-1.11-2-2.4-4-3.65-6-4.1-6.34-10-9.76-17.9-10.45C87.14,55.44,86,55.39,84.86,55.39Z"/><path class="cls-2" d="M52.6,60.24a22,22,0,0,1-3.74-.33,21.31,21.31,0,0,1-9-3.59C28.15,47.92,23.9,37.11,27.2,24.21a18,18,0,0,1,3.07-6c4.43-6.09,12.41-8.61,20.33-6.39A26.59,26.59,0,0,1,63.53,20a30.86,30.86,0,0,1,7.35,14.41v0c1.13,6,.45,11.3-2.07,16.09a17.52,17.52,0,0,1-4.59,5.62A18.2,18.2,0,0,1,52.6,60.24ZM44.92,14.07A14.9,14.9,0,0,0,32.69,20,15.16,15.16,0,0,0,30.11,25c-3,11.75.75,21.22,11.48,28.93A18.4,18.4,0,0,0,49.36,57a15.81,15.81,0,0,0,13-3.15,14.64,14.64,0,0,0,3.81-4.67c2.22-4.22,2.78-8.71,1.78-14.11a27.92,27.92,0,0,0-6.63-13,23.62,23.62,0,0,0-11.52-7.27A17.93,17.93,0,0,0,44.92,14.07Z"/><path class="cls-2" d="M95.63,51a16.91,16.91,0,0,1-10.58-3.71A21.19,21.19,0,0,1,77.66,35.9a30.54,30.54,0,0,1,3.81-25,24.11,24.11,0,0,1,7.78-7.88c6.67-4.24,14.75-4,20.59.49a21.38,21.38,0,0,1,7.44,11.16,34.71,34.71,0,0,1,.87,3.82c.08.43.15.81.22,1.13l0,.24c.53,9.29-1.63,16.55-6.82,22.86a26.88,26.88,0,0,1-5.58,5A18.59,18.59,0,0,1,95.63,51ZM99.45,3a16.08,16.08,0,0,0-8.6,2.63A21.21,21.21,0,0,0,84,12.51a27.67,27.67,0,0,0-3.46,22.6A18.18,18.18,0,0,0,86.92,45c5,4,11.81,4.07,17.41.3a24,24,0,0,0,5-4.43c4.71-5.74,6.61-12.12,6.14-20.67-.07-.32-.14-.69-.22-1.1a34,34,0,0,0-.79-3.5A18.16,18.16,0,0,0,108,5.91,13.79,13.79,0,0,0,99.45,3Z"/><path class="cls-2" d="M27.46,104.09a21.34,21.34,0,0,1-3-.2,26.61,26.61,0,0,1-13.75-6.31A30,30,0,0,1,.58,81.31v0A22.64,22.64,0,0,1,.92,69.74c2.94-9.3,12.5-14,22.73-11.28a28.23,28.23,0,0,1,15.07,10C44,75,46.09,82,45,89.31a20.17,20.17,0,0,1-1.48,4.9C40.7,100.41,34.58,104.09,27.46,104.09Zm-24-23.42a26.58,26.58,0,0,0,9.17,14.61,23.7,23.7,0,0,0,12.24,5.64c7,1,13.22-2.15,15.84-7.94A16.36,16.36,0,0,0,42,88.85c1-6.5-.84-12.56-5.63-18.53a25.24,25.24,0,0,0-13.51-9C14.11,59,6.26,62.81,3.78,70.64A19.51,19.51,0,0,0,3.51,80.67Z"/><path class="cls-2" d="M134.54,81.82a16.16,16.16,0,0,1-9.36-3,19.2,19.2,0,0,1-7.75-11.56c-2.31-9.34-.4-18.08,5.66-26,3.81-5,8.38-7.88,14-8.84a16.21,16.21,0,0,1,12.93,3c4,3,6.34,7,7.84,13.33l0,.12a30,30,0,0,1-7.46,25.28,22.16,22.16,0,0,1-9.68,6.57A19.21,19.21,0,0,1,134.54,81.82Zm5.72-46.69a15.6,15.6,0,0,0-2.68.24,19,19,0,0,0-12.11,7.71c-5.48,7.16-7.2,15-5.13,23.44a16.07,16.07,0,0,0,6.55,9.82,13.73,13.73,0,0,0,12.86,1.56,19.23,19.23,0,0,0,8.39-5.7,27.11,27.11,0,0,0,6.76-22.8c-1.32-5.57-3.33-9-6.7-11.56A13,13,0,0,0,140.26,35.13Z"/></g></g></svg>