<svg xmlns="http://www.w3.org/2000/svg" viewBox="0 0 208.97 146.99"><defs><style>.cls-1{fill:#231f20;}.cls-2{fill:#faaf36;}.cls-3{fill:#cb8a2e;}</style></defs><g id="Capa_2" data-name="Capa 2"><g id="Capa_2-2" data-name="Capa 2"><path class="cls-1" d="M183.36,56.75a18.29,18.29,0,0,1-10.56-3.31,20,20,0,0,1-6.49-8.13,30.77,30.77,0,0,1-2.55-10.79,39.5,39.5,0,0,1,1.1-11.66A36.71,36.71,0,0,1,169.47,12a27.52,27.52,0,0,1,8.08-8.28A23.59,23.59,0,0,1,189.05,0l1,0a16.45,16.45,0,0,1,9.69,2.83A19.47,19.47,0,0,1,206.27,11a32.1,32.1,0,0,1,2.61,11.08,41.68,41.68,0,0,1-1,12,36.75,36.75,0,0,1-4.56,11.15,25.69,25.69,0,0,1-8.17,8.29,21.83,21.83,0,0,1-11.74,3.18h0Zm5.1-40.95a4.45,4.45,0,0,0-3,1.92A16,16,0,0,0,183,22.9a32.41,32.41,0,0,0-1.22,6.84,30,30,0,0,0,.24,6.64,10.79,10.79,0,0,0,1.59,4.49,1.89,1.89,0,0,0,1.67,1h.24A4.12,4.12,0,0,0,188,39.92a18.13,18.13,0,0,0,2.36-5.19,35.34,35.34,0,0,0,1.32-6.79,30.81,30.81,0,0,0,0-6.59,10.85,10.85,0,0,0-1.34-4.49,1.87,1.87,0,0,0-1.73-1.06Z"/><path class="cls-2" d="M190.26,1.17a15.22,15.22,0,0,1,9.6,2.51,17.66,17.66,0,0,1,6,7.5,30.58,30.58,0,0,1,2.48,10.52,39.76,39.76,0,0,1-1,11.56A34.73,34.73,0,0,1,203,43.91a23.68,23.68,0,0,1-7.65,7.77,20.13,20.13,0,0,1-10.87,2.93,16.67,16.67,0,0,1-9.63-3,18.25,18.25,0,0,1-6-7.48,28.86,28.86,0,0,1-2.41-10.21,37.54,37.54,0,0,1,1.06-11.17A34.82,34.82,0,0,1,172,12.39a25.57,25.57,0,0,1,7.61-7.78A21.71,21.71,0,0,1,190.26,1.17ZM186.84,43a5.65,5.65,0,0,0,3.58-2.63A20.16,20.16,0,0,0,193,34.71a37,37,0,0,0,1.37-7.1,32.81,32.81,0,0,0,0-6.94,12.52,12.52,0,0,0-1.59-5.18,3.55,3.55,0,0,0-3.36-1.83,6.09,6.09,0,0,0-4.17,2.56,17.61,17.61,0,0,0-2.75,5.72,33.7,33.7,0,0,0-1.28,7.19,31,31,0,0,0,.25,7,12.35,12.35,0,0,0,1.87,5.17A3.52,3.52,0,0,0,186.84,43Z"/><path class="cls-3" d="M184.52,53.52a15.69,15.69,0,0,1-9-2.78,17.35,17.35,0,0,1-5.61-7.05,27.8,27.8,0,0,1-2.31-9.83,36.71,36.71,0,0,1,1-10.84,33.89,33.89,0,0,1,4.26-10,24.69,24.69,0,0,1,7.28-7.46,20.83,20.83,0,0,1,10.17-3.26h.79a13.76,13.76,0,0,1,8.11,2.33,16.78,16.78,0,0,1,5.63,7.05,29.63,29.63,0,0,1,2.38,10.14A38.7,38.7,0,0,1,206.3,33a34.13,34.13,0,0,1-4.21,10.32,22.88,22.88,0,0,1-7.3,7.41A19.2,19.2,0,0,1,184.52,53.52Zm5.13-41h-.36a7.14,7.14,0,0,0-4.91,3,18.75,18.75,0,0,0-2.93,6.07,35.1,35.1,0,0,0-1.33,7.43,31.93,31.93,0,0,0,.27,7.26A13.42,13.42,0,0,0,182.44,42a4.66,4.66,0,0,0,3.92,2.17,4.12,4.12,0,0,0,.6,0H187A6.71,6.71,0,0,0,191.32,41a21.46,21.46,0,0,0,2.73-6,39.09,39.09,0,0,0,1.42-7.31,35,35,0,0,0,0-7.17,13.7,13.7,0,0,0-1.75-5.63A4.62,4.62,0,0,0,189.65,12.56Z"/><path class="cls-2" d="M185.63,52.42a14.64,14.64,0,0,1-8.37-2.57,16.29,16.29,0,0,1-5.25-6.6,26.9,26.9,0,0,1-2.22-9.45,35.53,35.53,0,0,1,1-10.52,32.72,32.72,0,0,1,4.11-9.72,23.65,23.65,0,0,1,7-7.12,19.77,19.77,0,0,1,9.61-3.08h.75a12.48,12.48,0,0,1,7.47,2.13A15.6,15.6,0,0,1,205,12.07a28.69,28.69,0,0,1,2.3,9.77,37.9,37.9,0,0,1-.92,10.93,33.19,33.19,0,0,1-4.07,10,21.75,21.75,0,0,1-7,7.06A18,18,0,0,1,185.63,52.42Zm5.12-41h-.49a8.22,8.22,0,0,0-5.66,3.41,20,20,0,0,0-3.11,6.43A35.49,35.49,0,0,0,180.13,29a33.1,33.1,0,0,0,.27,7.52,14.63,14.63,0,0,0,2.23,6.08,5.7,5.7,0,0,0,4.82,2.64,6,6,0,0,0,.73,0h.07l.07,0a7.73,7.73,0,0,0,5-3.54,22.22,22.22,0,0,0,2.88-6.27,40.69,40.69,0,0,0,1.46-7.52,35.1,35.1,0,0,0,0-7.4,14.58,14.58,0,0,0-1.9-6.09A5.68,5.68,0,0,0,190.75,11.46Z"/><path class="cls-1" d="M110.73,55.5H94.1a9.65,9.65,0,0,1-6.81-2.42A4.28,4.28,0,0,1,86,49.94L86.16,46c.11-2.86,2.52-7.35,4.79-10L105,19.38c.8-.94.92-1.58.85-1.72s-.57-.43-1.7-.43H104l-3.88,0-2.69,0a2.8,2.8,0,0,1-2.11-1c-1.22-1.31-1.82-4-1.6-7.15a8.73,8.73,0,0,1,8.64-7.93c.07,0,3.57,0,8.59.11s8.45.1,8.48.1a8.37,8.37,0,0,1,6,2.5,7,7,0,0,1,2,5.13,26.1,26.1,0,0,1-4.36,12.15l-11.51,16c-.67.94-.82,1.66-.67,2s.73.53,1.75.53h.26l5.64-.24h.14a3,3,0,0,1,2.24,1c1.25,1.34,1.87,4,1.66,7a8.77,8.77,0,0,1-8.67,8Z"/><path class="cls-2" d="M98.51,15.14c-1.38,0-2.31-2.8-2.06-6.34a7.06,7.06,0,0,1,7-6.39s3.46,0,8.52.1,8.51.1,8.51.1c3.62,0,6.49,2.68,6.37,5.93a24.48,24.48,0,0,1-4.06,11.24l-11.5,16c-2.11,2.94-.87,5.23,2.74,5.09l2.86-.13,2.79-.12c1.52-.09,2.57,2.72,2.33,6.25a7.12,7.12,0,0,1-7,6.44H95.2c-3.62,0-6.53-1.73-6.45-3.84l.07-1.92.08-2c.08-2.21,2.07-6.27,4.41-9L107.37,20c2.34-2.76,1.29-4.95-2.33-4.86l-3.84,0Z"/><path class="cls-3" d="M111.83,52.26H95.2a7.08,7.08,0,0,1-4.84-1.58,1.56,1.56,0,0,1-.52-1.12L90,45.61c.06-1.75,1.75-5.53,4.14-8.36l14.07-16.59c1.9-2.26,1.59-3.88,1.24-4.65s-1.36-2-4.19-2H105l-3.81,0-2.7,0c-.35-.15-1.18-1.93-1-5.16a6,6,0,0,1,5.91-5.38c.06,0,3.54,0,8.53.11s8.49.1,8.53.1a5.65,5.65,0,0,1,4,1.65,4.26,4.26,0,0,1,1.23,3.14,23.44,23.44,0,0,1-3.85,10.64l-11.5,16c-1.26,1.76-1.57,3.46-.88,4.81.39.75,1.45,2,4.19,2h.37l5.65-.24a.43.43,0,0,1,.25.15c.57.62,1.11,2.42.93,4.93A6,6,0,0,1,115,52.26Z"/><path class="cls-2" d="M112.93,51.16h-8.22l-8.41,0a6,6,0,0,1-4-1.25c-.18-.18-.21-.29-.21-.31l.15-3.93c.06-1.53,1.73-5.15,3.89-7.69l14.06-16.59c2.3-2.72,1.87-4.82,1.4-5.82s-1.74-2.65-5.18-2.65h-.28l-3.79,0-2.13,0a9.46,9.46,0,0,1-.43-4,4.9,4.9,0,0,1,4.81-4.35c.06,0,3.54,0,8.52.1s8.51.11,8.54.11a4.53,4.53,0,0,1,3.26,1.31,3.21,3.21,0,0,1,.92,2.34,22.17,22.17,0,0,1-3.64,10l-11.5,16c-2,2.84-1.48,5-1,6s1.84,2.62,5.17,2.62h.41l5.19-.23a8,8,0,0,1,.51,3.89,4.94,4.94,0,0,1-4.85,4.39Z"/><path class="cls-1" d="M51.51,55a9.82,9.82,0,0,1-1.09-.06l-.26,0a7.13,7.13,0,0,1-6.25-9.13l4.75-17.66c1-3.53,2.5-9.23,3.47-12.72l1.58-5.72a11,11,0,0,1,9.87-7.74l4.59-.13h.23A8.71,8.71,0,0,1,77,9.66l3.17,35.9A8.58,8.58,0,0,1,73,54.77a9.29,9.29,0,0,1-1.28.09c-3.95,0-7-2.56-7.1-6-.07-2.22-1.15-3.58-1.71-3.58S60.62,46.8,60,49.23C59.19,52.56,55.61,55,51.51,55Z"/><path class="cls-2" d="M56.39,9.59a9.49,9.49,0,0,1,8.33-6.53l4.59-.12a7.08,7.08,0,0,1,7.16,6.37l3.17,35.9a6.92,6.92,0,0,1-5.78,7.44c-3.49.48-6.43-1.46-6.51-4.3S65.76,43.19,64,43.18s-3.78,2.32-4.48,5.16-4.23,4.84-7.83,4.44l-.25,0a5.48,5.48,0,0,1-4.84-7.07L51.35,28c.94-3.5,2.49-9.21,3.46-12.7Zm8.39,18.49c-.79,2.54-.62,4.62.38,4.64s1.64-2.06,1.43-4.61S65.57,25.54,64.78,28.08Z"/><path class="cls-3" d="M52.6,51.73a7,7,0,0,1-.79,0l-.25,0a4.38,4.38,0,0,1-3.9-5.7L52.41,28.3c.94-3.51,2.49-9.21,3.46-12.69l1.58-5.73a8.42,8.42,0,0,1,7.31-5.72L69.34,4h.16a6,6,0,0,1,5.88,5.38l3.17,35.9a5.79,5.79,0,0,1-4.84,6.25,7,7,0,0,1-.91.06c-2.46,0-4.3-1.39-4.35-3.3-.1-3.49-2.06-6.23-4.45-6.24s-4.71,2.63-5.55,6C57.94,50.13,55.38,51.73,52.6,51.73ZM65.9,25.09c-1.18,0-1.76,1.34-2.17,2.66-.27.88-1.07,3.84,0,5.31a1.75,1.75,0,0,0,1.41.76h0a1.94,1.94,0,0,0,1.46-.67c.87-.94,1.27-2.86,1.09-5.13C67.62,27.22,67.45,25.09,65.9,25.09Z"/><path class="cls-2" d="M53.7,50.64a5,5,0,0,1-.67,0l-.26,0a3.29,3.29,0,0,1-3-4.32l4.74-17.66c.95-3.52,2.5-9.21,3.46-12.69l1.58-5.72a7.34,7.34,0,0,1,6.28-4.92l4.72-.13A4.89,4.89,0,0,1,75.38,9.5l3.18,35.91a4.75,4.75,0,0,1-3.9,5.06,4.85,4.85,0,0,1-.76.05c-1.85,0-3.22-.94-3.26-2.23C70.52,44.2,68.09,41,65.1,41c-3.2,0-5.79,3.51-6.61,6.82C58.1,49.37,56,50.64,53.7,50.64ZM67,24c-2.15,0-2.93,2.5-3.22,3.44-.49,1.58-1.13,4.51.16,6.28a2.84,2.84,0,0,0,2.28,1.2h0a3,3,0,0,0,2.28-1c1.55-1.68,1.48-4.74,1.38-6C69.61,24.67,68.16,24,67,24Z"/><path class="cls-1" d="M26.88,55.34a7.38,7.38,0,0,1-5.6-2.48,7.46,7.46,0,0,1-1.78-5.92l.39-3.16a13.16,13.16,0,0,0-.11-4.69H17a12.85,12.85,0,0,0-.88,5l-.07,3.07a8.42,8.42,0,0,1-8.32,8.21h0a7.64,7.64,0,0,1-5.68-2.43A7.73,7.73,0,0,1,0,47L2.6,9.85c.31-4.42,3.91-8.2,8-8.43H11a6.72,6.72,0,0,1,5,2.14,7.74,7.74,0,0,1,2,5.86l-.51,8.4A12.43,12.43,0,0,0,18,22.73l1.42,0,1.57,0a12.45,12.45,0,0,0,1.31-5.14L23,9.16c.36-4.34,3.8-7.75,7.84-7.75h.4a7.27,7.27,0,0,1,5,2.49,8.49,8.49,0,0,1,2,6.18l-2.7,37.17a8.82,8.82,0,0,1-8.64,8.08Z"/><path class="cls-2" d="M22.47,23.87c1.09-.05,2.23-3,2.53-6.64l.69-8.43C26,5.2,28.91,2.39,32.2,2.57S38,5.86,37.69,9.47L35,46.65a7.16,7.16,0,0,1-7,6.55,5.7,5.7,0,0,1-5.74-6.56l.38-3.16c.44-3.59-.07-6.53-1.13-6.53H17.64c-1.05,0-2,3-2.05,6.58l-.07,3.07a6.77,6.77,0,0,1-6.68,6.6,6,6,0,0,1-6.08-6.55L5.34,9.48c.25-3.62,3.17-6.72,6.48-6.91s5.84,2.63,5.62,6.24l-.5,8.41c-.22,3.61.49,6.6,1.57,6.65S21.37,23.91,22.47,23.87Z"/><path class="cls-3" d="M28,52.1a4.64,4.64,0,0,1-3.55-1.55,4.69,4.69,0,0,1-1.1-3.77l.38-3.16c.32-2.61.25-5.85-.89-7.14a1.77,1.77,0,0,0-1.33-.63H17.64c-2.9,0-3.13,6.87-3.15,7.66l-.06,3.06A5.67,5.67,0,0,1,8.84,52.1h0a4.94,4.94,0,0,1-3.67-1.56,5,5,0,0,1-1.32-3.81L6.44,9.55c.21-3,2.7-5.73,5.44-5.88h.24a4,4,0,0,1,3,1.28,5.07,5.07,0,0,1,1.28,3.81l-.51,8.4c-.15,2.59.11,5.83,1.31,7.16a1.81,1.81,0,0,0,1.32.65c.53,0,1.25,0,2,0s1.48,0,2,0c2.88-.11,3.52-6.87,3.58-7.64l.69-8.43C27,6,29.31,3.66,31.89,3.66h.24a4.47,4.47,0,0,1,3.12,1.56A5.7,5.7,0,0,1,36.6,9.39L33.9,46.57A6,6,0,0,1,28,52.1Z"/><path class="cls-2" d="M29.09,51a3.61,3.61,0,0,1-2.74-1.17,3.69,3.69,0,0,1-.84-2.92l.39-3.16c.21-1.77.53-6.09-1.16-8a2.89,2.89,0,0,0-2.15-1H18.74c-3.77,0-4.21,6.69-4.25,8.73l-.06,3.07A4.55,4.55,0,0,1,9.94,51a3.89,3.89,0,0,1-2.87-1.2,3.94,3.94,0,0,1-1-3L8.63,9.63C8.8,7.11,10.82,4.89,13,4.77h.19a2.91,2.91,0,0,1,2.15.93,4,4,0,0,1,1,3l-.51,8.41c-.08,1.36-.2,6,1.6,8a3,3,0,0,0,2.08,1c.55,0,1.28,0,2.06,0s1.51,0,2.07,0c3.65-.14,4.47-6.66,4.63-8.65L29,9a4.41,4.41,0,0,1,4-4.22h.18A3.39,3.39,0,0,1,35.53,6,4.59,4.59,0,0,1,36.6,9.32L33.91,46.49A5,5,0,0,1,29.1,51Z"/><path class="cls-1" d="M139.71,56A7.62,7.62,0,0,1,132,47.72l2.89-38.9A8.85,8.85,0,0,1,143.58.75a7.48,7.48,0,0,1,7.54,8.38l-2.78,27.3a4.24,4.24,0,0,0,4.29,4.78l2.59,0a8.19,8.19,0,0,1,6,2.55,6.4,6.4,0,0,1,1.69,4.92c-.35,3.93-4.26,7.15-8.71,7.19Z"/><path class="cls-2" d="M144.7,1.9a5.84,5.84,0,0,1,5.88,6.57l-2.78,27.3a5.89,5.89,0,0,0,5.92,6.6l2.58,0c3.63,0,6.36,2.58,6.09,5.67s-3.47,5.66-7.09,5.69l-14.44.11a6,6,0,0,1-6.09-6.51l2.89-38.9A7.19,7.19,0,0,1,144.7,1.9Z"/><path class="cls-3" d="M140.81,52.77a4.88,4.88,0,0,1-4.95-5.34l2.9-38.9A6,6,0,0,1,144.68,3a4.75,4.75,0,0,1,4.81,5.36l-2.78,27.3a7,7,0,0,0,7,7.8l2.59,0a5.45,5.45,0,0,1,4,1.65,3.6,3.6,0,0,1,1,2.83c-.22,2.52-3,4.66-6,4.69Z"/><path class="cls-2" d="M141.9,51.67a3.8,3.8,0,0,1-3.85-4.15L141,8.61a5,5,0,0,1,4.83-4.52,3.76,3.76,0,0,1,2.81,1.2,3.81,3.81,0,0,1,.91,3l-2.79,27.3a8.1,8.1,0,0,0,8.09,9l2.59,0a4.36,4.36,0,0,1,3.21,1.29,2.61,2.61,0,0,1,.7,2c-.18,2-2.43,3.66-4.92,3.68Z"/><path class="cls-1" d="M135.53,146.69A18.35,18.35,0,0,1,125,143.38a20.07,20.07,0,0,1-6.49-8.13,30.77,30.77,0,0,1-2.54-10.79A39.17,39.17,0,0,1,117,112.8a36.43,36.43,0,0,1,4.6-10.86,27.44,27.44,0,0,1,8.09-8.28A23.56,23.56,0,0,1,141.21,90l1,0a16.47,16.47,0,0,1,9.69,2.83,19.45,19.45,0,0,1,6.55,8.18A32.33,32.33,0,0,1,161.05,112a41.69,41.69,0,0,1-1,12,37,37,0,0,1-4.55,11.15,25.62,25.62,0,0,1-8.18,8.29,21.77,21.77,0,0,1-11.73,3.18h-.05Zm5.1-40.95a4.43,4.43,0,0,0-3,1.92,15.81,15.81,0,0,0-2.48,5.18,32.41,32.41,0,0,0-1.22,6.84,28.8,28.8,0,0,0,.24,6.64,10.8,10.8,0,0,0,1.58,4.49,1.91,1.91,0,0,0,1.67,1h.25a4.15,4.15,0,0,0,2.46-1.94,18.69,18.69,0,0,0,2.36-5.19,35.33,35.33,0,0,0,1.31-6.79,31.51,31.51,0,0,0,0-6.59,10.84,10.84,0,0,0-1.35-4.49,1.87,1.87,0,0,0-1.73-1.07Z"/><path class="cls-2" d="M142.42,91.11A15.25,15.25,0,0,1,152,93.62a17.81,17.81,0,0,1,6,7.5,30.57,30.57,0,0,1,2.47,10.52,39.75,39.75,0,0,1-1,11.56,35.23,35.23,0,0,1-4.35,10.65,23.88,23.88,0,0,1-7.65,7.77,20.15,20.15,0,0,1-10.87,2.93,16.68,16.68,0,0,1-9.64-3,18.33,18.33,0,0,1-6-7.48,28.85,28.85,0,0,1-2.4-10.21,37.53,37.53,0,0,1,1-11.17,34.84,34.84,0,0,1,4.4-10.37,25.54,25.54,0,0,1,7.6-7.78A21.74,21.74,0,0,1,142.42,91.11ZM139,132.93a5.63,5.63,0,0,0,3.58-2.63,19.61,19.61,0,0,0,2.58-5.65,37,37,0,0,0,1.38-7.1,32.78,32.78,0,0,0,0-6.94,12.52,12.52,0,0,0-1.58-5.18,3.55,3.55,0,0,0-3.36-1.83,6.07,6.07,0,0,0-4.17,2.56,17.62,17.62,0,0,0-2.76,5.72,34.33,34.33,0,0,0-1.28,7.19,31,31,0,0,0,.26,7,12.49,12.49,0,0,0,1.86,5.17A3.53,3.53,0,0,0,139,132.93Z"/><path class="cls-3" d="M136.68,143.46a15.74,15.74,0,0,1-9-2.78,17.35,17.35,0,0,1-5.61-7.05,27.79,27.79,0,0,1-2.3-9.83,36.38,36.38,0,0,1,1-10.84,33.63,33.63,0,0,1,4.26-10,24.57,24.57,0,0,1,7.28-7.46A20.83,20.83,0,0,1,142.5,92.2h.79a13.73,13.73,0,0,1,8.1,2.33,16.71,16.71,0,0,1,5.63,7,29.58,29.58,0,0,1,2.39,10.14,39,39,0,0,1-.94,11.25,34.13,34.13,0,0,1-4.21,10.32,22.91,22.91,0,0,1-7.31,7.41A19.18,19.18,0,0,1,136.68,143.46Zm5.14-41h-.36a7.14,7.14,0,0,0-4.91,3,18.56,18.56,0,0,0-2.94,6.07,35.09,35.09,0,0,0-1.32,7.43,31.93,31.93,0,0,0,.27,7.26,13.55,13.55,0,0,0,2,5.63,4.68,4.68,0,0,0,3.92,2.17,4.26,4.26,0,0,0,.61,0h.07a6.72,6.72,0,0,0,4.28-3.08,20.91,20.91,0,0,0,2.73-6,37.69,37.69,0,0,0,1.42-7.31,33.63,33.63,0,0,0,0-7.17,13.55,13.55,0,0,0-1.74-5.63A4.65,4.65,0,0,0,141.82,102.5Z"/><path class="cls-2" d="M137.79,142.36a14.61,14.61,0,0,1-8.36-2.57,16.23,16.23,0,0,1-5.26-6.6,26.89,26.89,0,0,1-2.21-9.45,35.52,35.52,0,0,1,1-10.52,32.74,32.74,0,0,1,4.12-9.72,23.65,23.65,0,0,1,7-7.12,19.71,19.71,0,0,1,9.61-3.08h.74a12.51,12.51,0,0,1,7.48,2.13,15.75,15.75,0,0,1,5.26,6.59,28.69,28.69,0,0,1,2.29,9.77,37.9,37.9,0,0,1-.92,10.93,32.93,32.93,0,0,1-4.07,10,21.82,21.82,0,0,1-6.95,7.06A18.08,18.08,0,0,1,137.79,142.36Zm5.13-41h-.49a8.2,8.2,0,0,0-5.66,3.41,19.75,19.75,0,0,0-3.11,6.43,36.11,36.11,0,0,0-1.37,7.66,33.08,33.08,0,0,0,.28,7.52,14.63,14.63,0,0,0,2.23,6.08,5.7,5.7,0,0,0,4.82,2.64,6.11,6.11,0,0,0,.73,0h.07l.07,0a7.71,7.71,0,0,0,5-3.54,22.22,22.22,0,0,0,2.88-6.27,39.1,39.1,0,0,0,1.46-7.52,35.13,35.13,0,0,0,0-7.4,14.58,14.58,0,0,0-1.91-6.09A5.66,5.66,0,0,0,142.92,101.4Z"/><path class="cls-1" d="M178.84,147a16.26,16.26,0,0,1-6.6-1.37,18.38,18.38,0,0,1-4.73-3l-1.24-1.12-.09-.12c-1.73-2.25-.51-6.34,2.83-9.5l.84-.8,3.38-3.18c1.88-1.77,1.88-1.77,2.55-1.77h.95l.44.77,1,1.5.47.55a8.64,8.64,0,0,0,1.76,1.52,3,3,0,0,0,1.5.51h.15c.46,0,.56-.17.59-.22h0a2.41,2.41,0,0,0-.25-.63,8.08,8.08,0,0,0-2.88-2.45c-1.65-1-3.32-2-4.94-3.19a23.19,23.19,0,0,1-4.54-4.25,16,16,0,0,1-3-6,21.69,21.69,0,0,1-.35-8.26v-.14a19.78,19.78,0,0,1,4.48-9,21,21,0,0,1,7.68-5.53,19.84,19.84,0,0,1,7.62-1.57c.42,0,.84,0,1.26,0a14.6,14.6,0,0,1,8.17,3.1l.05,0,.05,0A13.81,13.81,0,0,1,199.6,98a16.72,16.72,0,0,1,1.1,5.73l0,1.95v.12c-.39,3.3-4.44,6.1-8,7.07l-.46.12a27.27,27.27,0,0,1-5.58,1l.49.3,4.2,2.53.21.12,1.56,1.71a16.43,16.43,0,0,1,3.37,5.45,16.69,16.69,0,0,1,1,5.7,15.93,15.93,0,0,1-2.6,8.82,18.36,18.36,0,0,1-6.38,5.85,20.34,20.34,0,0,1-8.15,2.49C179.87,147,179.35,147,178.84,147Zm3.09-37.44a22.68,22.68,0,0,0,1.95,2.5v-.15l.08-.75a27.65,27.65,0,0,0,.25-3.06,4.65,4.65,0,0,0-.32-2s-.12-.06-.29-.06h-.11a1.52,1.52,0,0,0-1.05.76,3.49,3.49,0,0,0-.53,2.1Z"/><path class="cls-2" d="M196,93.6a12,12,0,0,1,3.16,4.46,14.94,14.94,0,0,1,1,5.16l0,1.84c-.26,2.18-3.33,4.74-6.83,5.68l-.46.12c-3.49.94-6.32,1.24-6.28.67l.08-.7a31.52,31.52,0,0,0,.25-3.19,6.19,6.19,0,0,0-.47-2.79,1.88,1.88,0,0,0-2.06-1,3.1,3.1,0,0,0-2.25,1.49,5,5,0,0,0-.81,3l0,1.18a22.06,22.06,0,0,0,2.71,3.46l.8.55.8.55,1.67,1s1.94,1.15,4.21,2.52l1.4,1.54a14.68,14.68,0,0,1,3,4.89,15.26,15.26,0,0,1,.94,5.15,14.15,14.15,0,0,1-2.32,7.9,16.57,16.57,0,0,1-5.81,5.32,18.51,18.51,0,0,1-7.49,2.3,14.93,14.93,0,0,1-7.36-1.17,16.72,16.72,0,0,1-4.28-2.71l-1.13-1c-1.17-1.52,0-4.81,2.66-7.3l.84-.8c2.63-2.49,4.79-4.51,4.79-4.5L178,128.9l.51.62a10.34,10.34,0,0,0,2.11,1.82,4.47,4.47,0,0,0,2.72.78,2.26,2.26,0,0,0,1.84-1,2.22,2.22,0,0,0-.21-2.28,9.72,9.72,0,0,0-3.46-3.06c-1.64-1-3.26-2-4.85-3.14a21.08,21.08,0,0,1-4.22-4,14.29,14.29,0,0,1-2.7-5.43,20.05,20.05,0,0,1-.3-7.63,17.92,17.92,0,0,1,4.1-8.29,19.29,19.29,0,0,1,7.08-5.1,17.93,17.93,0,0,1,8.14-1.41A13,13,0,0,1,196,93.6Z"/><path class="cls-3" d="M179.94,143.75a13.6,13.6,0,0,1-5.5-1.13,15.36,15.36,0,0,1-4-2.53l-1-.94c-.54-.88.16-3.48,2.58-5.77l.85-.8,3.84-3.63.42.61.55.66a11.17,11.17,0,0,0,2.34,2,5.73,5.73,0,0,0,3,1l.39,0a3.29,3.29,0,0,0,2.68-1.51,3.2,3.2,0,0,0-.18-3.38,10.58,10.58,0,0,0-3.84-3.48c-1.63-1-3.24-2-4.79-3.09a20.69,20.69,0,0,1-4-3.75,13.49,13.49,0,0,1-2.49-5,19.19,19.19,0,0,1-.28-7.15,17,17,0,0,1,3.84-7.75A18.26,18.26,0,0,1,181,93.25a17.11,17.11,0,0,1,6.57-1.36c.35,0,.72,0,1.07,0a12,12,0,0,1,6.63,2.5,11,11,0,0,1,2.85,4,14.2,14.2,0,0,1,.92,4.78l0,1.75c-.25,1.53-2.75,3.81-6,4.69l-.46.12a26,26,0,0,1-4.8.91c.12-.95.2-2,.23-3a7.23,7.23,0,0,0-.58-3.29,2.87,2.87,0,0,0-2.78-1.65h-.42a4.21,4.21,0,0,0-3,2,6.24,6.24,0,0,0-1,3.7l.05,1.47.16.25a22.25,22.25,0,0,0,2.89,3.67l.06.06,1.66,1.15,1.74,1.08,4.07,2.44,1.29,1.42A13.52,13.52,0,0,1,195,124.5a13.79,13.79,0,0,1,.88,4.77,13.13,13.13,0,0,1-2.13,7.28,15.53,15.53,0,0,1-5.43,5,17.54,17.54,0,0,1-7.05,2.17C180.82,143.73,180.37,143.75,179.94,143.75Z"/><path class="cls-2" d="M181,142.66a12.57,12.57,0,0,1-5.07-1,14.25,14.25,0,0,1-3.69-2.33l-.87-.8c-.08-.5.44-2.42,2.43-4.3l.85-.8c1.15-1.1,2.16-2,2.94-2.78l.28.32a12,12,0,0,0,2.57,2.24l.05,0a6.73,6.73,0,0,0,3.59,1.12,4,4,0,0,0,.49,0,4.37,4.37,0,0,0,3.51-2,4.22,4.22,0,0,0-.15-4.49,11.54,11.54,0,0,0-4.22-3.88l-.05,0c-1.59-.93-3.16-1.94-4.69-3a19,19,0,0,1-3.79-3.54,12.35,12.35,0,0,1-2.28-4.62,18,18,0,0,1-.26-6.69,15.94,15.94,0,0,1,3.58-7.21,17.2,17.2,0,0,1,6.28-4.52A15.91,15.91,0,0,1,188.68,93c.34,0,.67,0,1,0a10.69,10.69,0,0,1,6,2.25,9.75,9.75,0,0,1,2.54,3.58,12.82,12.82,0,0,1,.85,4.42l0,1.63c-.24,1-2.34,2.95-5.2,3.72l-.46.12c-1.33.35-2.43.58-3.28.72,0-.57.08-1.16.09-1.75a8.25,8.25,0,0,0-.68-3.78,4,4,0,0,0-3.77-2.29l-.44,0h-.13a5.35,5.35,0,0,0-3.78,2.45,7.31,7.31,0,0,0-1.18,4.35l.06,1.76.31.5a24,24,0,0,0,3.07,3.89l.12.12L185.6,116l1.76,1.1,3.92,2.35,1.19,1.3a12.56,12.56,0,0,1,2.59,4.16,12.91,12.91,0,0,1,.81,4.4,11.87,11.87,0,0,1-1.94,6.67,14.55,14.55,0,0,1-5.05,4.63,16.45,16.45,0,0,1-6.62,2C181.85,142.64,181.44,142.66,181,142.66Z"/><path class="cls-1" d="M28.52,145.83h-.39l-12-.56a8.32,8.32,0,0,1-7.89-8.6l1.38-36.58A9,9,0,0,1,18,91.57l13.85-.75.44,0a8,8,0,0,1,8,7.84v0a8,8,0,0,1-8,8.28H29.42c-3,0-5.15,1.69-5.24,3.19a2.58,2.58,0,0,0,.67,2,2.64,2.64,0,0,0,2,.82h.33c3.51,0,6.35,3.51,6.48,8V121a8.64,8.64,0,0,1-2.3,6.29,6.29,6.29,0,0,1-4.53,2,12.33,12.33,0,0,0-1.94.14,19.65,19.65,0,0,0,2.93.21h2.69A7,7,0,0,1,37.56,138l0,.23a9.34,9.34,0,0,1-9,7.56Z"/><path class="cls-2" d="M39.79,98.24a6.39,6.39,0,0,1-6.4,6.59H30.52c-3.62,0-6.72,2.13-6.89,4.73a4.21,4.21,0,0,0,4.48,4.53c2.63-.11,4.87,2.77,5,6.39v.07c.1,3.62-2.24,6.58-5.2,6.57s-5.43.81-5.48,1.81,2.85,1.83,6.48,1.83h2.68A5.38,5.38,0,0,1,37,137.26l0,.24a7.66,7.66,0,0,1-7.69,6.18l-12-.56A6.68,6.68,0,0,1,11,136.23l1.38-36.58a7.37,7.37,0,0,1,6.82-6.93L33,92a6.4,6.4,0,0,1,6.77,6.22Z"/><path class="cls-3" d="M29.61,142.59h-.26l-12-.57a5.55,5.55,0,0,1-5.28-5.75l1.38-36.58a6.25,6.25,0,0,1,5.78-5.88l13.85-.75h.3a5.34,5.34,0,1,1,0,10.68H30.52c-4.2,0-7.78,2.58-8,5.75a5.33,5.33,0,0,0,1.4,4,5.4,5.4,0,0,0,4,1.68h.33c2,0,3.65,2.39,3.74,5.33v.07a5.89,5.89,0,0,1-1.53,4.29A3.55,3.55,0,0,1,27.9,126c-3.22,0-6.48.88-6.59,2.85a1.69,1.69,0,0,0,.51,1.3c1.17,1.24,4.42,1.69,7.06,1.69h2.69A4.28,4.28,0,0,1,36,137.08l0,.24A6.61,6.61,0,0,1,29.61,142.59Z"/><path class="cls-2" d="M30.5,141.49l-12-.56a4.47,4.47,0,0,1-4.24-4.61l1.38-36.59a5.19,5.19,0,0,1,4.75-4.82l13.85-.75h.24a4.2,4.2,0,0,1,4.21,4.1,4.21,4.21,0,0,1-4.2,4.39H31.61c-4.84,0-8.83,3-9.07,6.78A6.39,6.39,0,0,0,29,116.29h.28c1.24,0,2.62,1.75,2.69,4.26v.08a4.88,4.88,0,0,1-1.22,3.49,2.49,2.49,0,0,1-1.77.82c-3.63,0-7.52,1-7.69,3.88a2.8,2.8,0,0,0,.81,2.11c1.72,1.83,6.07,2,7.86,2h2.68A3.19,3.19,0,0,1,36,136.89l0,.24a5.48,5.48,0,0,1-5.22,4.36Z"/><path class="cls-1" d="M90.31,145.94a7.62,7.62,0,0,1-7.68-8.28l2.9-38.9a8.84,8.84,0,0,1,8.66-8.07,7.49,7.49,0,0,1,5.66,2.47,7.56,7.56,0,0,1,1.88,5.91l-2.79,27.3a4.24,4.24,0,0,0,4.29,4.78l2.59,0a8.21,8.21,0,0,1,6,2.55,6.43,6.43,0,0,1,1.68,4.92c-.35,3.93-4.26,7.15-8.71,7.18Z"/><path class="cls-2" d="M95.3,91.84a5.85,5.85,0,0,1,5.89,6.57l-2.79,27.3a5.9,5.9,0,0,0,5.92,6.6l2.59,0c3.62,0,6.36,2.58,6.08,5.67s-3.47,5.66-7.09,5.69l-14.43.11a6,6,0,0,1-6.1-6.51l2.9-38.9A7.17,7.17,0,0,1,95.3,91.84Z"/><path class="cls-3" d="M91.41,142.71a4.89,4.89,0,0,1-5-5.34l2.9-38.9a6.06,6.06,0,0,1,5.93-5.53,4.74,4.74,0,0,1,4.8,5.36l-2.78,27.3a7,7,0,0,0,7,7.8l2.59,0a5.41,5.41,0,0,1,4,1.65,3.65,3.65,0,0,1,1,2.83c-.23,2.52-3,4.66-6,4.69Z"/><path class="cls-2" d="M92.51,141.61a3.78,3.78,0,0,1-3.85-4.15l2.89-38.91A5,5,0,0,1,96.38,94a3.75,3.75,0,0,1,2.81,1.2,3.81,3.81,0,0,1,.91,3l-2.78,27.3a8.08,8.08,0,0,0,8.08,9l2.59,0a4.36,4.36,0,0,1,3.21,1.29,2.61,2.61,0,0,1,.7,2c-.18,2-2.43,3.66-4.92,3.68Z"/><path class="cls-1" d="M52,145.94a7.62,7.62,0,0,1-7.68-8.28l2.89-38.9a8.86,8.86,0,0,1,8.67-8.07,7.48,7.48,0,0,1,7.53,8.38l-2.78,27.3A4.24,4.24,0,0,0,65,131.15l2.59,0a8.19,8.19,0,0,1,6,2.55,6.4,6.4,0,0,1,1.69,4.92c-.35,3.93-4.26,7.15-8.71,7.18Z"/><path class="cls-2" d="M57,91.84a5.84,5.84,0,0,1,5.88,6.57l-2.78,27.3a5.89,5.89,0,0,0,5.92,6.6l2.59,0c3.62,0,6.35,2.58,6.08,5.67s-3.47,5.66-7.09,5.69l-14.44.11a6,6,0,0,1-6.09-6.51L50,98.39A7.19,7.19,0,0,1,57,91.84Z"/><path class="cls-3" d="M53.14,142.71a4.88,4.88,0,0,1-5-5.34l2.9-38.9A6,6,0,0,1,57,92.94a4.75,4.75,0,0,1,4.81,5.36L59,125.6a7,7,0,0,0,7,7.8l2.59,0a5.41,5.41,0,0,1,4,1.65,3.6,3.6,0,0,1,1,2.83c-.22,2.52-3,4.66-6,4.69Z"/><path class="cls-2" d="M54.24,141.61a3.8,3.8,0,0,1-3.86-4.15l2.9-38.91A5,5,0,0,1,58.11,94a3.76,3.76,0,0,1,2.81,1.2,3.81,3.81,0,0,1,.91,3L59,125.49a8.1,8.1,0,0,0,8.09,9l2.59,0a4.36,4.36,0,0,1,3.21,1.29,2.61,2.61,0,0,1,.7,2c-.18,2-2.43,3.66-4.92,3.68Z"/><path class="cls-1" d="M157,101c0,4.4-1.81,7.93-4.85,9.69s-7,1.54-10.81-.61l-24-13.44c-5.17-2.89-14.14-3.34-19.57-1l-27.1,11.79a12.17,12.17,0,0,1-11.22-.33,12.18,12.18,0,0,1-5.58-9.75l-.18-2.18c0-.44-.05-.89-.05-1.34C53.58,86,59.06,78,66.33,75.24L69.9,73.9a6.6,6.6,0,0,0,2.79-1.64A6.48,6.48,0,0,0,70,70.5l-4.69-2C57.81,65.41,52,56.6,52,48.48l0-2.19c0-4.37,1.81-7.95,4.85-9.82s7-1.84,11,.1l28.4,14c5.33,2.63,14.39,2.72,19.77.19L138.4,40.25c3.9-1.84,8-1.83,11.17,0s5.23,5.38,5.59,9.67l.18,2.23c0,.45,0,.9,0,1.35,0,7.91-5.5,15.89-12.79,18.55l-3.15,1.15a6.18,6.18,0,0,0-2.84,1.69,6.92,6.92,0,0,0,2.74,1.79l4.46,2C151.2,81.86,157,90.73,157,98.82Z"/><path class="cls-2" d="M67,64.75C60.68,62.09,55.55,54.3,55.62,47.44v-2c.07-6.87,5.16-10,11.31-6.95l28.4,14c6.15,3,16.27,3.14,22.48.22l22.43-10.54c6.21-2.92,11.76.29,12.32,7.13l.18,2.22c.57,6.84-4.25,14.37-10.69,16.72l-3.15,1.15c-6.45,2.36-6.58,6.53-.28,9.27l4.46,1.94c6.29,2.74,11.38,10.6,11.31,17.47l0,2c-.07,6.86-5,9.74-11,6.38L119.33,93c-6-3.35-16-3.86-22.34-1.12L69.89,103.7c-6.29,2.74-11.89-.62-12.45-7.46l-.18-2.18c-.55-6.84,4.26-14.41,10.68-16.81l3.58-1.34c6.43-2.4,6.51-6.54.18-9.2Z"/><path class="cls-3" d="M152.3,100.07c0,2.55-.83,4.41-2.26,5.24s-3.44.6-5.67-.65l-24-13.44C113.73,87.52,103.11,87,96.16,90L69.07,101.8c-2.42,1-4.72,1-6.48,0a7,7,0,0,1-3.08-5.71l-.17-2.18c0-.31,0-.61,0-.92,0-5.76,4.12-11.81,9.37-13.77l3.58-1.34c5.42-2,6.22-4.94,6.22-6.5h0c0-1.52-.77-4.38-6-6.56l-4.69-2c-5.48-2.3-10.12-9.29-10.12-15.26l0-2.14c0-2.58.87-4.51,2.38-5.44s3.62-.81,5.93.33l28.4,14c6.78,3.35,17.45,3.45,24.29.24L141.14,44c2.37-1.11,4.62-1.18,6.35-.18s2.79,3,3,5.6l.18,2.22c0,.31,0,.62,0,.93,0,5.74-4.12,11.75-9.38,13.67l-3.15,1.15c-5.47,2-6.28,4.94-6.28,6.52s.76,4.37,5.88,6.61l4.47,1.94c5.45,2.38,10.06,9.43,10.06,15.41Z"/><path class="cls-2" d="M150.22,98c0,1.72-.49,3.05-1.22,3.47s-2.12.17-3.62-.67l-24-13.43c-7.12-4-18.55-4.56-26-1.3L68.24,97.81a5.06,5.06,0,0,1-4.59.11,5,5,0,0,1-2.06-4.09l-.18-2.19q0-.37,0-.75c0-4.87,3.6-10.17,8-11.82L73,77.73c6.59-2.47,7.57-6.36,7.57-8.45h0c0-2-.94-5.84-7.24-8.48l-4.69-2c-4.71-2-8.85-8.21-8.85-13.34l0-2.12c0-1.81.53-3.16,1.39-3.69s2.29-.38,3.92.42l28.4,14c7.28,3.6,18.74,3.71,26.09.26L142,43.84c1.74-.81,3.31-.9,4.43-.26s1.82,2.06,2,4l.18,2.22c0,.25,0,.51,0,.76,0,4.85-3.59,10.1-8,11.71l-3.15,1.15c-6.66,2.44-7.65,6.36-7.65,8.48s.92,5.81,7.13,8.51l4.47,2c4.69,2,8.81,8.35,8.81,13.5Z"/><circle class="cls-1" cx="84.91" cy="70.85" r="1.32"/><circle class="cls-1" cx="125.82" cy="70.85" r="1.32"/></g></g></svg>