<svg xmlns="http://www.w3.org/2000/svg" xmlns:xlink="http://www.w3.org/1999/xlink" viewBox="0 0 545.16 347.74"><defs><style>.cls-1,.cls-5,.cls-7{fill:none;}.cls-2{clip-path:url(#clip-path);}.cls-3{fill:#69bca2;}.cls-4{fill:#007d59;}.cls-5{stroke:#007d59;stroke-width:0.25px;}.cls-5,.cls-7{stroke-miterlimit:10;}.cls-6{fill:#1e9270;}.cls-7{stroke:#006000;stroke-width:0.86px;}.cls-8{fill:#006d49;}</style><clipPath id="clip-path" transform="translate(-12.66 -3.26)"><rect id="SVGID" class="cls-1" width="556" height="294.76"/></clipPath></defs><g id="Capa_2" data-name="Capa 2"><g id="Capa_1-2" data-name="Capa 1"><g class="cls-2"><path class="cls-3" d="M557.77,14.07S519.41,21.94,529.43,101s.94,183-132.83,164.76S65.35,234.18,26.91,296.79H557.77Z" transform="translate(-12.66 -3.26)"/><path class="cls-3" d="M13.06,296.92l-.4-.26c17.6-29,69.16-45,153.23-47.68,77.42-2.44,165.89,7,226.48,15.36,48.05,6.62,84.18-1.94,107.39-25.46,27.6-28,37.25-76.82,28.68-145.19-5.32-42.43,2.9-64.75,10.73-76,8.51-12.23,18.45-14.41,18.55-14.43l.09.48c-.09,0-9.87,2.18-18.27,14.27-7.77,11.18-15.92,33.38-10.62,75.62,8.59,68.52-1.11,117.51-28.82,145.6-23.32,23.63-59.59,32.24-107.8,25.59-60.57-8.35-149-17.79-226.39-15.35C82,252.13,30.58,268.09,13.06,296.92Z" transform="translate(-12.66 -3.26)"/><path class="cls-4" d="M521.09,316.38s-8.58-26.09-17-15.15C499.23,307.57,521.09,316.38,521.09,316.38Z" transform="translate(-12.66 -3.26)"/><path class="cls-4" d="M521.09,316.38s9.64-25.69,17.59-14.4C543.29,308.52,521.09,316.38,521.09,316.38Z" transform="translate(-12.66 -3.26)"/><path class="cls-4" d="M522.81,294.5s-7.35-22.38-14.57-13C504.06,286.94,522.81,294.5,522.81,294.5Z" transform="translate(-12.66 -3.26)"/><path class="cls-4" d="M522.81,294.5s8.28-22,15.1-12.36C541.86,287.76,522.81,294.5,522.81,294.5Z" transform="translate(-12.66 -3.26)"/><path class="cls-4" d="M525.09,272.66s-6.32-19.2-12.51-11.15C509,266.17,525.09,272.66,525.09,272.66Z" transform="translate(-12.66 -3.26)"/><path class="cls-4" d="M525.09,272.66s7.09-18.91,12.95-10.6C541.43,266.88,525.09,272.66,525.09,272.66Z" transform="translate(-12.66 -3.26)"/><path class="cls-4" d="M527,254.26s-4.22-17-10.07-10.45C513.58,247.59,527,254.26,527,254.26Z" transform="translate(-12.66 -3.26)"/><path class="cls-4" d="M527,254.26s7.32-15.83,11.84-8.27C541.49,250.37,527,254.26,527,254.26Z" transform="translate(-12.66 -3.26)"/><path class="cls-5" d="M528.6,241.43s-11.31,74.5-6,109.55" transform="translate(-12.66 -3.26)"/><path class="cls-4" d="M528.33,243s10.14-14.1,1.51-14.61C524.84,228.1,528.33,243,528.33,243Z" transform="translate(-12.66 -3.26)"/><path class="cls-6" d="M496.58,333.63s-114.23,4.19-123.25-20.71,29.1-11,29.1-11-58.7-27.4-47.54-44.31S388.83,261,388.83,261,350,228.57,365.16,211.64s41.74,30.11,41.74,30.11-17-39.24,5.86-35.26,33.73,70.09,33.73,70.09-5.36-45.74,17.73-34.72C491.8,255,496.58,333.63,496.58,333.63Z" transform="translate(-12.66 -3.26)"/><path class="cls-7" d="M496.58,333.63s-59.8-21-87.09-62.93" transform="translate(-12.66 -3.26)"/><path class="cls-8" d="M492.57,338.92s-73-44.76-68.76-64.05,22.49,5.23,22.49,5.23-25.84-41.46-12.21-47.38S454,248.9,454,248.9s-11.47-36.37,4.69-40.64,14.18,36.11,14.18,36.11,4.9-31.54,17.57-19.58-6.59,57.74-6.59,57.74,14.69-30.78,24.76-14.33C520.6,287.86,492.57,338.92,492.57,338.92Z" transform="translate(-12.66 -3.26)"/><path class="cls-7" d="M492.57,338.92S463.54,301,463,263.51" transform="translate(-12.66 -3.26)"/></g></g></g></svg>