<svg xmlns="http://www.w3.org/2000/svg" xmlns:xlink="http://www.w3.org/1999/xlink" viewBox="0 0 545.16 347.74"><defs><style>.cls-1,.cls-5,.cls-7{fill:none;}.cls-2{clip-path:url(#clip-path);}.cls-3{fill:#69bca2;}.cls-4{fill:#007d59;}.cls-5{stroke:#007d59;stroke-width:0.25px;}.cls-5,.cls-7{stroke-miterlimit:10;}.cls-6{fill:#1e9270;}.cls-7{stroke:#006000;stroke-width:0.86px;}.cls-8{fill:#006d49;}</style><clipPath id="clip-path" transform="translate(1.81 -3.26)"><rect id="SVGID" class="cls-1" width="556" height="294.76" transform="translate(556 294.76) rotate(180)"/></clipPath></defs><g id="Capa_2" data-name="Capa 2"><g id="Capa_1-2" data-name="Capa 1"><g class="cls-2"><path class="cls-3" d="M-1.77,14.07S36.59,21.94,26.57,101,25.63,284,159.4,265.74s331.25-31.56,369.69,31.05H-1.77Z" transform="translate(1.81 -3.26)"/><path class="cls-3" d="M542.94,296.92l.4-.26c-17.6-29-69.16-45-153.23-47.68-77.42-2.44-165.89,7-226.48,15.36-48,6.62-84.18-1.94-107.39-25.46-27.6-28-37.25-76.82-28.68-145.19,5.32-42.43-2.9-64.75-10.73-76C8.32,5.46-1.62,3.28-1.72,3.26l-.09.48c.09,0,9.87,2.18,18.27,14.27,7.77,11.18,15.92,33.38,10.62,75.62-8.59,68.52,1.11,117.51,28.82,145.6,23.32,23.63,59.59,32.24,107.8,25.59,60.57-8.35,149-17.79,226.39-15.35C474,252.13,525.42,268.09,542.94,296.92Z" transform="translate(1.81 -3.26)"/><path class="cls-4" d="M34.91,316.38s8.58-26.09,17-15.15C56.77,307.57,34.91,316.38,34.91,316.38Z" transform="translate(1.81 -3.26)"/><path class="cls-4" d="M34.91,316.38S25.27,290.69,17.32,302C12.71,308.52,34.91,316.38,34.91,316.38Z" transform="translate(1.81 -3.26)"/><path class="cls-4" d="M33.19,294.5s7.35-22.38,14.57-13C51.94,286.94,33.19,294.5,33.19,294.5Z" transform="translate(1.81 -3.26)"/><path class="cls-4" d="M33.19,294.5s-8.28-22-15.1-12.36C14.14,287.76,33.19,294.5,33.19,294.5Z" transform="translate(1.81 -3.26)"/><path class="cls-4" d="M30.91,272.66s6.32-19.2,12.51-11.15C47,266.17,30.91,272.66,30.91,272.66Z" transform="translate(1.81 -3.26)"/><path class="cls-4" d="M30.91,272.66S23.82,253.75,18,262.06C14.57,266.88,30.91,272.66,30.91,272.66Z" transform="translate(1.81 -3.26)"/><path class="cls-4" d="M29,254.26s4.22-17,10.07-10.45C42.42,247.59,29,254.26,29,254.26Z" transform="translate(1.81 -3.26)"/><path class="cls-4" d="M29,254.26S21.64,238.43,17.12,246C14.51,250.37,29,254.26,29,254.26Z" transform="translate(1.81 -3.26)"/><path class="cls-5" d="M27.4,241.43s11.31,74.5,6,109.55" transform="translate(1.81 -3.26)"/><path class="cls-4" d="M27.67,243s-10.14-14.1-1.51-14.61C31.16,228.1,27.67,243,27.67,243Z" transform="translate(1.81 -3.26)"/><path class="cls-6" d="M59.42,333.63s114.23,4.19,123.25-20.71-29.1-11-29.1-11,58.7-27.4,47.54-44.31S167.17,261,167.17,261s38.87-32.44,23.67-49.37-41.74,30.11-41.74,30.11,17-39.24-5.86-35.26-33.73,70.09-33.73,70.09,5.36-45.74-17.73-34.72C64.2,255,59.42,333.63,59.42,333.63Z" transform="translate(1.81 -3.26)"/><path class="cls-7" d="M59.42,333.63s59.8-21,87.09-62.93" transform="translate(1.81 -3.26)"/><path class="cls-8" d="M63.43,338.92s73-44.76,68.76-64.05-22.49,5.23-22.49,5.23,25.84-41.46,12.21-47.38S102,248.9,102,248.9s11.47-36.37-4.69-40.64-14.18,36.11-14.18,36.11-4.9-31.54-17.57-19.58,6.59,57.74,6.59,57.74S57.5,251.75,47.43,268.2C35.4,287.86,63.43,338.92,63.43,338.92Z" transform="translate(1.81 -3.26)"/><path class="cls-7" d="M63.43,338.92S92.46,301,93,263.51" transform="translate(1.81 -3.26)"/></g></g></g></svg>