<svg xmlns="http://www.w3.org/2000/svg" xmlns:xlink="http://www.w3.org/1999/xlink" viewBox="0 0 234.51 407.82"><defs><style>.cls-1,.cls-10,.cls-5,.cls-9{fill:none;}.cls-2{clip-path:url(#clip-path);}.cls-3{fill:#69bca2;}.cls-4{fill:#19554f;}.cls-5{stroke:#bbd763;stroke-width:0.78px;}.cls-10,.cls-5,.cls-9{stroke-miterlimit:10;}.cls-6{fill:#bbd763;}.cls-7{fill:#2a926e;}.cls-8{fill:#1e9270;}.cls-10,.cls-9{stroke:#19554f;}.cls-9{stroke-width:0.97px;}.cls-10{stroke-width:0.8px;}</style><clipPath id="clip-path" transform="translate(36.1 98.69)"><rect id="SVGID" class="cls-1" width="202" height="312" transform="translate(202 312) rotate(180)"/></clipPath></defs><g id="Capa_2" data-name="Capa 2"><g id="Capa_1-2" data-name="Capa 1"><g class="cls-2"><path class="cls-3" d="M183.9-2.12S214.43,67.68,121,59.53,77.93,198.07,83.32,244.25-1.6,304-1.6,304V-2.12Z" transform="translate(36.1 98.69)"/><path class="cls-3" d="M193.42-2.22,193-2c.12.27,11.82,26.7-1.17,45.08-10,14.19-31.75,20-64.59,17.2-19.9-1.68-34.95,3.11-44.73,14.23-11.3,12.84-15.87,33.85-14,64.22,1.6,25.84,7.65,53.9,12.5,76.45,2.86,13.28,5.34,24.75,6.34,33,1.28,10.62-2.58,20.4-11.48,29.07-7.14,7-17.51,13.22-30.84,18.62C22.3,305.08-1.4,308.6-1.64,308.63l.07.5c.24,0,24-3.56,46.77-12.78,13.39-5.42,23.82-11.72,31-18.72,9-8.79,12.92-18.71,11.62-29.49-1-8.31-3.47-19.79-6.34-33.08-4.85-22.54-10.89-50.58-12.5-76.38-1.87-30.23,2.66-51.12,13.87-63.86,9.67-11,24.58-15.73,44.31-14.06,33,2.79,54.91-3.07,65-17.41C205.36,24.73,193.54-2,193.42-2.22Z" transform="translate(36.1 98.69)"/><path class="cls-4" d="M17.78,28S18.12-15.21,3.1-35.51C11.9-6.43,17.78,28,17.78,28Z" transform="translate(36.1 98.69)"/><path class="cls-4" d="M9.92-29s13.17-.62,17.86,2.68C19.39-31.94,11.89-33.21,9.92-29Z" transform="translate(36.1 98.69)"/><path class="cls-4" d="M15.23-14.69S26.3-14.07,32-8.84C23.08-16.92,17.46-16.89,15.23-14.69Z" transform="translate(36.1 98.69)"/><path class="cls-4" d="M19.16-4.64S27.86-2.28,32,4.81C21.78-1.41,18.22-2.91,19.16-4.64Z" transform="translate(36.1 98.69)"/><path class="cls-4" d="M21.83,14.19l6.48,8.14S20.25,19.42,21.83,14.19Z" transform="translate(36.1 98.69)"/><path class="cls-5" d="M-11.43-98.47S-40.77-56.71,37.84,96.45" transform="translate(36.1 98.69)"/><path class="cls-6" d="M16.49,97.7c12.73-17.92,6.2-34.38,6.2-34.38S8.27,73.59,9.21,95.55A4,4,0,0,0,16.49,97.7Z" transform="translate(36.1 98.69)"/><path class="cls-6" d="M54,78.8c-22-.44-31.32-15.48-31.32-15.48s16.84-5.48,33.92,8.34A4,4,0,0,1,54,78.8Z" transform="translate(36.1 98.69)"/><path class="cls-6" d="M-3.49,58.6C11,42.05,6.13,25,6.13,25S-9.25,33.78-10.52,55.72A4,4,0,0,0-3.49,58.6Z" transform="translate(36.1 98.69)"/><path class="cls-6" d="M35.74,43.56C13.92,40.91,6.13,25,6.13,25s17.31-3.76,32.92,11.71A4,4,0,0,1,35.74,43.56Z" transform="translate(36.1 98.69)"/><path class="cls-7" d="M-18.36,23.72C-2.72,8.29-6.28-9-6.28-9s-16,7.6-18.88,29.39A4,4,0,0,0-18.36,23.72Z" transform="translate(36.1 98.69)"/><path class="cls-7" d="M21.87,11.63C.31,7.38-6.28-9-6.28-9s17.53-2.47,32,14.11A4,4,0,0,1,21.87,11.63Z" transform="translate(36.1 98.69)"/><path class="cls-6" d="M57.49,122C53.15,100.49,36.68,94,36.68,94s-2.39,17.54,14.26,31.89A4,4,0,0,0,57.49,122Z" transform="translate(36.1 98.69)"/><path class="cls-8" d="M-3.25-55.26S88.49-22.45,96,102.05Z" transform="translate(36.1 98.69)"/><path class="cls-8" d="M-3.25-55.26S-13.17,41.67,96,102.05Z" transform="translate(36.1 98.69)"/><path class="cls-9" d="M-35.91-63.26S-.37-78.87,102,2.71" transform="translate(36.1 98.69)"/><path class="cls-4" d="M106.16-13c-15.27,6.8-26.57-.54-26.57-.54s9.83-9.21,26.05-5.21A3,3,0,0,1,106.16-13Z" transform="translate(36.1 98.69)"/><path class="cls-4" d="M86.43,12.11c3-16.45-6.84-25.67-6.84-25.67S73-1.83,80.73,13A3,3,0,0,0,86.43,12.11Z" transform="translate(36.1 98.69)"/><path class="cls-4" d="M80-33.78c-14.51,8.29-26.48,2.13-26.48,2.13s8.84-10.15,25.39-7.8A3,3,0,0,1,80-33.78Z" transform="translate(36.1 98.69)"/><path class="cls-4" d="M62.9-6.79c1.31-16.67-9.38-24.86-9.38-24.86s-5.4,12.34,3.79,26.3A3,3,0,0,0,62.9-6.79Z" transform="translate(36.1 98.69)"/><path class="cls-4" d="M56.23-50.1C42.38-40.75,30-46,30-46s8.07-10.78,24.75-9.67A3,3,0,0,1,56.23-50.1Z" transform="translate(36.1 98.69)"/><path class="cls-4" d="M41.18-21.92C41.25-38.63,30-46,30-46s-4.47,12.7,5.73,25.94A3,3,0,0,0,41.18-21.92Z" transform="translate(36.1 98.69)"/><path class="cls-4" d="M118.14,21.19c-15.41-6.47-17.79-19.72-17.79-19.72s13.43.85,21.63,15.41A3,3,0,0,1,118.14,21.19Z" transform="translate(36.1 98.69)"/><line class="cls-10" x1="39.67" y1="54.26" x2="130.32" y2="197.96"/><line class="cls-10" x1="111.63" y1="142.05" x2="86.59" y2="128.64"/><line class="cls-10" x1="66.23" y1="96.37" x2="64.62" y2="125.88"/></g></g></g></svg>