<svg xmlns="http://www.w3.org/2000/svg" xmlns:xlink="http://www.w3.org/1999/xlink" viewBox="0 0 234.51 407.82"><defs><style>.cls-1,.cls-10,.cls-5,.cls-9{fill:none;}.cls-2{clip-path:url(#clip-path);}.cls-3{fill:#69bca2;}.cls-4{fill:#19554f;}.cls-5{stroke:#bbd763;stroke-width:0.78px;}.cls-10,.cls-5,.cls-9{stroke-miterlimit:10;}.cls-6{fill:#bbd763;}.cls-7{fill:#2a926e;}.cls-8{fill:#1e9270;}.cls-10,.cls-9{stroke:#19554f;}.cls-9{stroke-width:0.97px;}.cls-10{stroke-width:0.8px;}</style><clipPath id="clip-path" transform="translate(-3.59 98.69)"><rect id="SVGID" class="cls-1" width="202" height="312"/></clipPath></defs><g id="Capa_2" data-name="Capa 2"><g id="Capa_1-2" data-name="Capa 1"><g class="cls-2"><path class="cls-3" d="M18.1-2.12S-12.43,67.68,81,59.53s43.1,138.54,37.71,184.72S203.6,304,203.6,304V-2.12Z" transform="translate(-3.59 98.69)"/><path class="cls-3" d="M8.58-2.22,9-2c-.12.27-11.82,26.7,1.17,45.08C20.23,57.25,42,63,74.8,60.26c19.9-1.68,35,3.11,44.73,14.23,11.3,12.84,15.87,33.85,14,64.22-1.6,25.84-7.65,53.9-12.5,76.45-2.86,13.28-5.34,24.75-6.34,33-1.28,10.62,2.58,20.4,11.48,29.07,7.14,7,17.51,13.22,30.84,18.62,22.71,9.19,46.41,12.71,46.65,12.74l-.07.5c-.24,0-24-3.56-46.77-12.78-13.39-5.42-23.82-11.72-31-18.72-9-8.79-12.92-18.71-11.62-29.49,1-8.31,3.47-19.79,6.34-33.08,4.85-22.54,10.89-50.58,12.5-76.38,1.87-30.23-2.66-51.12-13.87-63.86-9.67-11-24.58-15.73-44.31-14.06-33,2.79-54.91-3.07-65-17.41C-3.36,24.73,8.46-2,8.58-2.22Z" transform="translate(-3.59 98.69)"/><path class="cls-4" d="M184.22,28s-.34-43.18,14.68-63.48C190.1-6.43,184.22,28,184.22,28Z" transform="translate(-3.59 98.69)"/><path class="cls-4" d="M192.08-29s-13.17-.62-17.86,2.68C182.61-31.94,190.11-33.21,192.08-29Z" transform="translate(-3.59 98.69)"/><path class="cls-4" d="M186.77-14.69S175.7-14.07,170-8.84C178.92-16.92,184.54-16.89,186.77-14.69Z" transform="translate(-3.59 98.69)"/><path class="cls-4" d="M182.84-4.64S174.14-2.28,170,4.81C180.22-1.41,183.78-2.91,182.84-4.64Z" transform="translate(-3.59 98.69)"/><path class="cls-4" d="M180.17,14.19l-6.48,8.14S181.75,19.42,180.17,14.19Z" transform="translate(-3.59 98.69)"/><path class="cls-5" d="M213.43-98.47s29.34,41.76-49.27,194.92" transform="translate(-3.59 98.69)"/><path class="cls-6" d="M185.51,97.7c-12.73-17.92-6.2-34.38-6.2-34.38s14.42,10.27,13.48,32.23A4,4,0,0,1,185.51,97.7Z" transform="translate(-3.59 98.69)"/><path class="cls-6" d="M148,78.8c22-.44,31.32-15.48,31.32-15.48s-16.84-5.48-33.92,8.34A4,4,0,0,0,148,78.8Z" transform="translate(-3.59 98.69)"/><path class="cls-6" d="M205.49,58.6C191,42.05,195.87,25,195.87,25s15.38,8.77,16.65,30.71A4,4,0,0,1,205.49,58.6Z" transform="translate(-3.59 98.69)"/><path class="cls-6" d="M166.26,43.56C188.08,40.91,195.87,25,195.87,25S178.56,21.25,163,36.72A4,4,0,0,0,166.26,43.56Z" transform="translate(-3.59 98.69)"/><path class="cls-7" d="M220.36,23.72C204.72,8.29,208.28-9,208.28-9s16,7.6,18.88,29.39A4,4,0,0,1,220.36,23.72Z" transform="translate(-3.59 98.69)"/><path class="cls-7" d="M180.13,11.63C201.69,7.38,208.28-9,208.28-9s-17.53-2.47-32,14.11A4,4,0,0,0,180.13,11.63Z" transform="translate(-3.59 98.69)"/><path class="cls-6" d="M144.51,122C148.85,100.49,165.32,94,165.32,94s2.39,17.54-14.26,31.89A4,4,0,0,1,144.51,122Z" transform="translate(-3.59 98.69)"/><path class="cls-8" d="M205.25-55.26S113.51-22.45,106,102.05Z" transform="translate(-3.59 98.69)"/><path class="cls-8" d="M205.25-55.26S215.17,41.67,106,102.05Z" transform="translate(-3.59 98.69)"/><path class="cls-9" d="M237.91-63.26S202.37-78.87,100,2.71" transform="translate(-3.59 98.69)"/><path class="cls-4" d="M95.84-13c15.27,6.8,26.57-.54,26.57-.54s-9.83-9.21-26-5.21A3,3,0,0,0,95.84-13Z" transform="translate(-3.59 98.69)"/><path class="cls-4" d="M115.57,12.11c-3-16.45,6.84-25.67,6.84-25.67S129-1.83,121.27,13A3,3,0,0,1,115.57,12.11Z" transform="translate(-3.59 98.69)"/><path class="cls-4" d="M122-33.78c14.51,8.29,26.48,2.13,26.48,2.13s-8.84-10.15-25.39-7.8A3,3,0,0,0,122-33.78Z" transform="translate(-3.59 98.69)"/><path class="cls-4" d="M139.1-6.79c-1.31-16.67,9.38-24.86,9.38-24.86s5.4,12.34-3.79,26.3A3,3,0,0,1,139.1-6.79Z" transform="translate(-3.59 98.69)"/><path class="cls-4" d="M145.77-50.1C159.62-40.75,172-46,172-46S164-56.79,147.27-55.68A3,3,0,0,0,145.77-50.1Z" transform="translate(-3.59 98.69)"/><path class="cls-4" d="M160.82-21.92C160.75-38.63,172-46,172-46s4.47,12.7-5.73,25.94A3,3,0,0,1,160.82-21.92Z" transform="translate(-3.59 98.69)"/><path class="cls-4" d="M83.86,21.19c15.41-6.47,17.79-19.72,17.79-19.72S88.22,2.32,80,16.88A3,3,0,0,0,83.86,21.19Z" transform="translate(-3.59 98.69)"/><line class="cls-10" x1="194.84" y1="54.26" x2="104.19" y2="197.96"/><line class="cls-10" x1="122.88" y1="142.05" x2="147.92" y2="128.64"/><line class="cls-10" x1="168.28" y1="96.37" x2="169.89" y2="125.88"/></g></g></g></svg>