<svg xmlns="http://www.w3.org/2000/svg" xmlns:xlink="http://www.w3.org/1999/xlink" viewBox="0 0 967 354.18"><defs><style>.cls-1{fill:none;}.cls-2{fill:#7a74b4;}.cls-3{fill:#fff;}.cls-4{clip-path:url(#clip-path);}.cls-5{fill:#1e1b24;}.cls-6{opacity:0.3;}.cls-7{clip-path:url(#clip-path-2);}.cls-8{clip-path:url(#clip-path-3);}.cls-9{clip-path:url(#clip-path-4);}.cls-10{clip-path:url(#clip-path-5);}.cls-11{clip-path:url(#clip-path-6);}.cls-12{clip-path:url(#clip-path-7);}.cls-13{fill:#6b184e;}.cls-14{opacity:0.35;}.cls-15{clip-path:url(#clip-path-8);}.cls-16{clip-path:url(#clip-path-9);}.cls-17{fill:#1d1c22;}.cls-18{clip-path:url(#clip-path-10);}.cls-19{fill:#f04c4a;}.cls-20{clip-path:url(#clip-path-11);}.cls-21{clip-path:url(#clip-path-12);}.cls-22{opacity:0.7;}.cls-23{clip-path:url(#clip-path-13);}.cls-24{clip-path:url(#clip-path-14);}.cls-25{clip-path:url(#clip-path-15);}.cls-26{clip-path:url(#clip-path-16);}.cls-27{clip-path:url(#clip-path-17);}.cls-28{clip-path:url(#clip-path-18);}.cls-29{clip-path:url(#clip-path-19);}</style><clipPath id="clip-path" transform="translate(0 -48.26)"><polygon class="cls-1" points="380.19 351.72 75.13 351.72 58.14 272.74 9.23 185.1 4.53 74.12 116.75 0 344.13 14.12 426.41 88.44 380.19 351.72"/></clipPath><clipPath id="clip-path-2" transform="translate(0 -48.26)"><rect class="cls-1" x="306.96" y="251.07" width="76.68" height="103.65"/></clipPath><clipPath id="clip-path-3" transform="translate(0 -48.26)"><rect class="cls-1" x="96.94" y="306.67" width="253.65" height="92.43"/></clipPath><clipPath id="clip-path-4" transform="translate(0 -48.26)"><rect class="cls-1" x="116.29" y="221.54" width="170.51" height="77.14"/></clipPath><clipPath id="clip-path-5" transform="translate(0 -48.26)"><rect class="cls-1" x="75.13" y="61.66" width="77.75" height="189.45"/></clipPath><clipPath id="clip-path-6" transform="translate(0 -48.26)"><rect class="cls-1" x="251.03" y="61.67" width="77.09" height="189.32"/></clipPath><clipPath id="clip-path-7" transform="translate(0 -48.26)"><rect class="cls-1" x="86.44" y="150.22" width="230.36" height="90.26"/></clipPath><clipPath id="clip-path-8" transform="translate(0 -48.26)"><rect class="cls-1" x="279.77" y="217.76" width="7.52" height="21.08"/></clipPath><clipPath id="clip-path-9" transform="translate(0 -48.26)"><rect class="cls-1" x="201.05" y="206.06" width="1.07" height="0.84"/></clipPath><clipPath id="clip-path-10" transform="translate(0 -48.26)"><rect class="cls-1" x="200.96" y="206.13" width="1.07" height="0.77"/></clipPath><clipPath id="clip-path-11" transform="translate(0 -48.26)"><rect class="cls-1" x="176.25" y="223.27" width="50.44" height="56.93"/></clipPath><clipPath id="clip-path-12" transform="translate(0 -48.26)"><rect class="cls-1" x="138.27" y="206.2" width="125.46" height="58.87"/></clipPath><clipPath id="clip-path-13" transform="translate(0 -48.26)"><rect class="cls-1" x="188.19" y="185.95" width="26.52" height="9.15"/></clipPath><clipPath id="clip-path-14" transform="translate(0 -48.26)"><rect class="cls-1" x="116.29" y="211.34" width="170.51" height="40.46"/></clipPath><clipPath id="clip-path-15" transform="translate(0 -48.26)"><rect class="cls-1" x="253.48" y="339.29" width="0.22" height="0.24"/></clipPath><clipPath id="clip-path-16" transform="translate(0 -48.26)"><rect class="cls-1" x="95.82" y="348.59" width="81.41" height="48.43"/></clipPath><clipPath id="clip-path-17" transform="translate(0 -48.26)"><rect class="cls-1" x="97.67" y="336.46" width="66.77" height="51.57"/></clipPath><clipPath id="clip-path-18" transform="translate(0 -48.26)"><rect class="cls-1" x="195.37" y="341.6" width="90.88" height="52.01"/></clipPath><clipPath id="clip-path-19" transform="translate(0 -48.26)"><rect class="cls-1" x="195.86" y="338.24" width="83.68" height="54.6"/></clipPath></defs><g id="Capa_2" data-name="Capa 2"><g id="Capa_2-2" data-name="Capa 2"><path class="cls-2" d="M55.87,45.91H911.13A55.87,55.87,0,0,1,967,101.77V247.59a55.87,55.87,0,0,1-55.87,55.87H0a0,0,0,0,1,0,0V101.77A55.87,55.87,0,0,1,55.87,45.91Z"/><path class="cls-3" d="M461,178.09h23.17L503,208.72l18.87-30.63h23.17v79.1H523.27V211.77l-20.23,31h-.45L482.47,212v45.2H461Z" transform="translate(0 -48.26)"/><path class="cls-3" d="M559.09,178.09h63.62v18.65H580.78v12h38V226h-38v12.54h42.49v18.64H559.09Z" transform="translate(0 -48.26)"/><path class="cls-3" d="M653.78,197.3H630.05V178.09h69.38V197.3H675.7v59.89H653.78Z" transform="translate(0 -48.26)"/><path class="cls-3" d="M726.21,177.52h21.13L781,257.19H757.51l-5.76-14.12H721.24l-5.65,14.12H692.54ZM745.42,226l-8.81-22.49L727.68,226Z" transform="translate(0 -48.26)"/><path class="cls-3" d="M781.58,245.44l12.21-14.58c7.79,6.22,16.49,9.5,25.65,9.5,5.87,0,9-2,9-5.43v-.22c0-3.28-2.6-5.09-13.34-7.57-16.83-3.85-29.83-8.59-29.83-24.87v-.22c0-14.69,11.64-25.32,30.62-25.32,13.45,0,24,3.62,32.55,10.51l-11,15.49c-7.23-5.09-15.14-7.8-22.15-7.8-5.31,0-7.91,2.26-7.91,5.08v.23c0,3.62,2.71,5.2,13.67,7.68,18.2,4,29.5,9.84,29.5,24.64v.23c0,16.16-12.77,25.76-32,25.76C804.63,258.55,791.3,254.14,781.58,245.44Z" transform="translate(0 -48.26)"/><g class="cls-4"><path class="cls-3" d="M325.9,354.71s32.37-7.8,40.31-21.56c4.71-8.14-1-13.25-1-13.25s15.95-9.47,18.06-19.16c2.32-10.67-7.71-13.55-7.71-13.55s6-10.93,4.43-21.08-8.71-17.75-18.41-15.42S344,269.3,344,269.3s-11.21-5.38-15.13-.06c-6,8.18-6.17,23-6.17,23s-21.48-5.49-17.67,25.79" transform="translate(0 -48.26)"/><path class="cls-5" d="M325.9,355.2a.51.51,0,0,1-.49-.37.5.5,0,0,1,.37-.6c.32-.08,32.25-7.9,40-21.32,4.45-7.72-.81-12.59-.87-12.64l-.49-.45.57-.34c.16-.09,15.78-9.47,17.83-18.85,2.2-10.1-7-12.86-7.37-13l-.59-.17.3-.54c.06-.11,5.86-10.9,4.38-20.76-.88-5.82-3.63-10.67-7.53-13.29a12.64,12.64,0,0,0-10.28-1.73c-9.47,2.28-17.19,18.19-17.27,18.35l-.21.44-.44-.21c-.11-.06-10.88-5.15-14.52-.22-5.86,8-6.07,22.54-6.07,22.69v.63l-.61-.16c-.08,0-7.16-1.75-12.23,2.71-4.54,4-6.17,11.57-4.83,22.54a.5.5,0,0,1-1,.12c-1.37-11.32.37-19.19,5.17-23.41,4.63-4.07,10.61-3.39,12.52-3,.1-2.9.82-15.28,6.25-22.65,3.71-5,13.11-1.27,15.3-.29,1.35-2.68,8.58-16.25,17.71-18.45a13.61,13.61,0,0,1,11.06,1.87c4.14,2.78,7,7.87,7.95,14,1.37,9.07-3.05,18.56-4.22,20.87,2.15.83,9.56,4.45,7.49,13.93-1.94,8.91-14.93,17.4-17.76,19.17,1.28,1.49,4.65,6.41.62,13.39-8,13.79-39.3,21.47-40.63,21.79h-.11" transform="translate(0 -48.26)"/><g class="cls-6"><g class="cls-7"><path class="cls-5" d="M383.3,300.73c-2.11,9.7-18.06,19.17-18.06,19.17s5.67,5.11,1,13.25c-7.94,13.77-40.32,21.56-40.32,21.56L307,310.32c27.1-5.87,31.57,14,37.57,12.35a4.73,4.73,0,0,0,3.18-3.66,9.17,9.17,0,0,1,5.24-5.94c5.52-2.44,14.06-7,16.76-13,2.14-4.71,1.21-8.29-.37-10.76a9.5,9.5,0,0,1-.25-10c2.13-3.65,4.38-8.63,4.71-13.82.35-5.67-1.16-10.95-4.28-14.49,5.56,2.06,9.43,7.94,10.51,15.05,1.53,10.15-4.44,21.07-4.44,21.07s10,2.87,7.71,13.54" transform="translate(0 -48.26)"/></g></g><path class="cls-5" d="M325.89,358.06a3.35,3.35,0,0,1-.78-6.6c8.62-2.08,32.28-9.72,38.21-20,3.11-5.39.26-8.54-.35-9.13l-3.38-3,3.94-2.29c4.09-2.44,15-10.24,16.5-17,1.55-7.14-4.21-9.28-5.38-9.64l-3.94-1.19,2-3.62c0-.09,5.4-10.08,4.06-19-.76-5-3.06-9.17-6.3-11.35a9.74,9.74,0,0,0-8-1.32c-6.75,1.63-13.38,12.69-15.37,16.81l-1.44,3-3-1.44c-3-1.45-9.39-3.26-11-1.1-4.42,6-5.49,17.21-5.52,21l-.05,4.26-4.13-1.06s-5.77-1.35-9.68,2.12c-3.71,3.3-5,10.22-3.84,20a3.35,3.35,0,0,1-6.65.8c-1.49-12.3.57-21,6.12-25.89a17.07,17.07,0,0,1,11.74-4c.45-5.23,1.92-14.87,6.62-21.25,4-5.44,11.88-3.72,16.27-2.19,2.9-5.18,9.67-15.54,18.37-17.63a16.34,16.34,0,0,1,13.31,2.27c4.8,3.23,8.15,9,9.18,15.9,1.16,7.73-1.47,15.65-3.28,19.94,4.1,2.5,8.33,7.57,6.52,15.9S375.11,317.33,370,320.82c1.66,3.32,2.42,8.29-.88,14-8.56,14.84-41.05,22.81-42.43,23.15a4.25,4.25,0,0,1-.79.09" transform="translate(0 -48.26)"/><path class="cls-3" d="M350.59,399.1h-240c-14.18-19.33-4.94-78.94-4.94-78.94s-8.68.75-8.68-6.73a13.51,13.51,0,0,1,2.32-6.76c4.32-7,13.08-13.77,12.65-15.07-.58-1.71-9.49-2.45-9.49-7.22,0-10.36,18.21-18.66,18-20.42s-5.74-2.45-6.39-8c-.2-1.67.79-4.29,2.45-7.36,5.84-10.78,20-27.08,20-27.08H281a34,34,0,0,0,3.4,11.42c5.93,12.59,17.09,24.24,14.32,32.42-1.11,3.34-6.62,5.28-7.11,6.39s23.06,19.45,21.56,29.38c-.71,4.69-8.41,7.06-8.5,8.21,0,.39,3.09,1.75,7.24,3.82,7.94,4,19.63,10.57,19.8,17.85.19,7.7-6.58,7.37-7.1,8.92s26,26.79,26,59.15" transform="translate(0 -48.26)"/><path class="cls-5" d="M350.59,399.59h-240a.48.48,0,0,1-.4-.2c-13.54-18.46-6.1-72.1-5.12-78.71a9.75,9.75,0,0,1-6.56-2.13,6.63,6.63,0,0,1-2-5.11,13.74,13.74,0,0,1,2.4-7c2.42-3.94,6.23-7.8,9-10.62,1.65-1.68,3.53-3.59,3.58-4.09-.12-.33-1.58-.89-2.74-1.33-2.85-1.1-6.76-2.59-6.76-6,0-7.49,9-13.79,14.36-17.57,1.63-1.14,3.47-2.43,3.6-2.85,0-.33-.8-.82-1.6-1.34-1.72-1.11-4.33-2.8-4.78-6.58-.2-1.67.62-4.18,2.51-7.66,5.79-10.7,19.9-27,20-27.16a.47.47,0,0,1,.37-.17H281a.49.49,0,0,1,.49.45,33.35,33.35,0,0,0,3.36,11.24,118.08,118.08,0,0,0,6.89,12.07c5,8.07,9.38,15,7.45,20.73-.77,2.31-3.39,3.93-5.3,5.12a11,11,0,0,0-1.72,1.18,44,44,0,0,0,3.74,3.79c6.6,6.33,18.88,18.12,17.75,25.6-.51,3.34-4.19,5.51-6.63,6.94a17.59,17.59,0,0,0-1.75,1.13c.55.37,2.07,1.11,3.67,1.88l3.17,1.56C320.62,317,332,323.56,332.17,331c.14,5.79-3.5,7.34-5.68,8.27a4.86,4.86,0,0,0-1.41.76,33.69,33.69,0,0,0,2.55,3.45c6.42,8.14,23.45,29.77,23.45,55.61a.49.49,0,0,1-.49.49m-239.78-1H350.09c-.22-25.28-16.92-46.48-23.23-54.5-2.43-3.08-2.94-3.76-2.76-4.31s1-1,2-1.42c2.2-.93,5.2-2.21,5.08-7.33-.18-7.72-14.75-15-19.54-17.41-1.15-.58-2.22-1.1-3.16-1.56-3.9-1.89-4.39-2.17-4.34-2.76s.87-1.12,2.35-2c2.28-1.34,5.72-3.36,6.15-6.24,1.06-7-11-18.53-17.46-24.74-3.78-3.63-4.31-4.19-4.06-4.77s.91-.95,2.21-1.75c1.78-1.11,4.22-2.62,4.89-4.6,1.77-5.25-2.46-12-7.36-19.89a120.46,120.46,0,0,1-6.95-12.16,35.13,35.13,0,0,1-3.4-11.13H136.66c-1.51,1.76-14.34,16.79-19.77,26.81-2.19,4.05-2.52,6.08-2.39,7.08.39,3.31,2.67,4.79,4.33,5.86,1.08.7,1.92,1.25,2,2.1s-.94,1.58-4,3.74c-5.21,3.65-13.93,9.77-13.93,16.75,0,2.72,3.39,4,6.12,5.06,1.77.68,3,1.17,3.34,2s-.77,1.93-3.83,5c-2.75,2.79-6.51,6.6-8.87,10.45a13,13,0,0,0-2.25,6.51,5.71,5.71,0,0,0,1.71,4.38c2.36,2.16,6.4,1.85,6.43,1.85a.5.5,0,0,1,.41.15.51.51,0,0,1,.13.41c-.1.59-9,59.22,4.7,78.37" transform="translate(0 -48.26)"/><g class="cls-6"><g class="cls-8"><path class="cls-5" d="M350.59,399.1h-240c-14.18-19.33-4.94-78.94-4.94-78.94s-8.68.75-8.68-6.73a13.51,13.51,0,0,1,2.32-6.76c5.09,5.33,26.63,24,78.08,22.29,70.43-2.29,114.45-8.23,134.53-15.78,7.94,4,19.63,10.57,19.8,17.85.19,7.7-6.58,7.37-7.1,8.92s26,26.79,26,59.15" transform="translate(0 -48.26)"/></g></g><path class="cls-5" d="M350.59,402.44h-240a3.34,3.34,0,0,1-2.69-1.37c-12.93-17.61-7.84-64.45-6.06-77.87a10.89,10.89,0,0,1-5.25-2.55,9.39,9.39,0,0,1-3-7.21c0-7.26,7.35-14.72,12.22-19.65l1.05-1.07c-3.23-1.27-7.79-3.4-7.79-8.34,0-9,9.75-15.81,15.58-19.9l.64-.45a10.79,10.79,0,0,1-4.62-7.66c-1-8.37,17.53-30.45,23.23-37a3.36,3.36,0,0,1,2.53-1.15H281a3.35,3.35,0,0,1,3.34,3.05c.65,7.33,5.31,14.81,9.82,22,5.2,8.32,10.1,16.19,7.74,23.16-.91,2.72-3.29,4.57-5.3,5.87.41.41.86.84,1.28,1.24,9.66,9.27,19.85,19.84,18.61,28.09-.51,3.39-3,5.74-5.43,7.38,8.75,4.27,23.77,11.89,24,21.92.14,6.09-3.15,8.79-5.66,10.13l.51.65c6.58,8.35,24.06,30.54,24.06,57.37a3.35,3.35,0,0,1-3.34,3.34m-238.24-6.69h234.8c-1.34-23-16.07-41.68-22.53-49.88-3-3.81-3.9-4.95-3.22-7,.63-1.87,2.26-2.57,3.58-3.13,2-.85,3.42-1.46,3.35-4.65-.15-6.27-15.36-13.67-21.08-16.46-4.48-2.18-6.16-3-5.95-5.55.16-2.12,1.82-3.1,3.74-4.22,1.59-.94,4.55-2.68,4.79-4.22.83-5.52-11.86-17.68-16.63-22.26-4.53-4.34-5.75-5.51-4.69-7.95.59-1.36,1.79-2.1,3.32-3.05,1.17-.72,3.35-2.07,3.69-3.08,1.34-4-2.75-10.53-7.08-17.48-4.16-6.66-8.82-14.12-10.37-21.94H138c-11.65,13.58-21,27.47-20.65,30.7.22,1.85,1.3,2.67,3.06,3.81,1.34.87,3,2,3.32,4.09.36,2.57-1.5,3.87-5.2,6.47-4.45,3.11-12.74,8.92-12.74,14.42,0,.5,1.45,1.31,4.3,2.4,2.31.88,4.3,1.65,5,3.76.85,2.53-.82,4.22-4.49,7.94s-10.3,10.44-10.3,15a2.77,2.77,0,0,0,.79,2.27c1.16,1.08,3.54,1.16,4.28,1.11a3.39,3.39,0,0,1,2.71,1.07,3.31,3.31,0,0,1,.86,2.78c-.08.57-8.45,55.71,3.43,75.08m5.26-130.14h0Z" transform="translate(0 -48.26)"/><g class="cls-6"><g class="cls-9"><path class="cls-5" d="M282.14,261.92c-3.71,3.39-11.52,5.8-19.19,6.43-1,4.34-2.73,8.48-5.82,10.18-5.39,3-7.56-5.22-7.86-6.51a.05.05,0,0,0-.1,0,92.15,92.15,0,0,1-5.82,11.21c-2.76,4.48-6.14,8.87-9.34,10.15-7.07,2.83-10.09-1.16-11.13-3.23a.83.83,0,0,0-1.32-.22,33.34,33.34,0,0,1-20.09,8.76h0a33.25,33.25,0,0,1-20.09-8.76.85.85,0,0,0-1.34.22c-1,2.07-4.05,6.06-11.11,3.23-3.2-1.28-6.57-5.65-9.32-10.12A89.94,89.94,0,0,1,153.76,272c0-.05-.1-.05-.11,0-.3,1.29-2.46,9.47-7.85,6.51-3.1-1.7-4.85-5.85-5.83-10.2-7.62-.65-15.35-3-19-6.41-4.23-3.86-5.08-8.72-4.48-13.31,5.83-10.77,20-27.07,20-27.07H281a34,34,0,0,0,3.4,11.42,13.88,13.88,0,0,1-3.74,1.08s12.82,17.56,1.52,27.88" transform="translate(0 -48.26)"/></g></g><path class="cls-3" d="M257.13,261.8c-5.4,3-7.56-5.22-7.86-6.5a.05.05,0,0,0-.1,0,92.31,92.31,0,0,1-5.82,11.2c-2.76,4.48-6.14,8.88-9.34,10.16-7.07,2.83-10.1-1.17-11.13-3.23a.83.83,0,0,0-1.32-.23,33.23,33.23,0,0,1-20.1,8.76h0a33.2,33.2,0,0,1-20.1-8.76.83.83,0,0,0-1.32.23c-1,2.06-4.06,6.06-11.13,3.23-3.19-1.28-6.56-5.65-9.31-10.12a92.07,92.07,0,0,1-5.85-11.24.05.05,0,0,0-.1,0c-.3,1.28-2.46,9.46-7.86,6.5-7.71-4.23-7-23.59-7-23.59l60.26-33,2.46-1.34,2.46,1.34,60.26,33s.66,19.36-7.05,23.59" transform="translate(0 -48.26)"/><path class="cls-5" d="M201.5,282.45a33.69,33.69,0,0,1-20.47-8.9.36.36,0,0,0-.56.09c-1,2-4.22,6.48-11.74,3.47-2.82-1.13-6-4.61-9.55-10.33a95.41,95.41,0,0,1-5.39-10.16c-.57,1.81-1.85,4.94-4.16,6a4.43,4.43,0,0,1-4.07-.35c-7.89-4.33-7.33-23.25-7.31-24.05v-.28l63.2-34.62,2.7,1.48,60.5,33.14v.28c0,.8.58,19.72-7.3,24.05a4.42,4.42,0,0,1-4.08.35c-2.3-1-3.59-4.13-4.16-6a97,97,0,0,1-5.36,10.12c-3.53,5.74-6.75,9.23-9.58,10.36-7.52,3-10.72-1.42-11.75-3.47a.34.34,0,0,0-.24-.18.33.33,0,0,0-.3.09,33.68,33.68,0,0,1-20.4,8.9m-20.71-10a1.32,1.32,0,0,1,.91.37,32.67,32.67,0,0,0,19.79,8.63,32.61,32.61,0,0,0,19.73-8.63,1.29,1.29,0,0,1,1.15-.34,1.27,1.27,0,0,1,.95.71c1.13,2.23,4,5.6,10.51,3,2.58-1,5.73-4.48,9.1-10a90.86,90.86,0,0,0,5.78-11.13l.14-.34h.42a.56.56,0,0,1,.49.47c.12.5,1.31,5.29,3.93,6.46a3.42,3.42,0,0,0,3.2-.32c6.86-3.77,6.84-20.49,6.8-22.87l-62.23-34.08L139.24,238.5c-.05,2.38-.07,19.1,6.79,22.87a3.43,3.43,0,0,0,3.2.32c2.62-1.17,3.81-6,3.94-6.5l.07-.35.41-.08a.59.59,0,0,1,.55.31,90.84,90.84,0,0,0,5.82,11.2c3.35,5.45,6.49,8.88,9.08,9.92,6.51,2.61,9.37-.76,10.49-3a1.3,1.3,0,0,1,1-.7l.24,0m68.85-17,0,.05,0-.05" transform="translate(0 -48.26)"/><path class="cls-5" d="M201.56,284.92h-.3a36,36,0,0,1-20-7.92c-2.62,3.08-7.13,4.93-13.41,2.41-5.57-2.23-10.93-11.1-14-17.15a8.17,8.17,0,0,1-3.13,2.6,6.81,6.81,0,0,1-6.27-.45c-9.05-5-8.67-24.12-8.59-26.29a3,3,0,0,1,5.93.2c-.19,5.73.91,18.37,5.51,20.89.68.37.93.27,1,.23.87-.38,2-2.54,2.54-4.81l.5-2.12,2.21-.21a3,3,0,0,1,3,1.88C158.45,259,165.34,272,170,273.9c3.62,1.45,6,.86,7.37-1.81a3.79,3.79,0,0,1,6-1.06,30.12,30.12,0,0,0,18.07,8,30.09,30.09,0,0,0,18.07-8,3.79,3.79,0,0,1,6,1.06c1.34,2.67,3.76,3.26,7.37,1.81,4.68-1.87,11.56-14.87,13.52-19.72l.81-2,2.22.13a3,3,0,0,1,2.7,2.32c.54,2.28,1.68,4.44,2.55,4.82.08,0,.32.14,1-.23,4.6-2.52,5.7-15.16,5.51-20.89a3,3,0,0,1,5.93-.2c.07,2.17.46,21.33-8.58,26.29a6.83,6.83,0,0,1-6.28.45,8.17,8.17,0,0,1-3.13-2.6c-3.12,6.05-8.47,14.92-14,17.15-6.28,2.52-10.79.67-13.4-2.41a36,36,0,0,1-20.05,7.92Zm50.36-28.52s0,0,0,.06l0-.06" transform="translate(0 -48.26)"/><path class="cls-3" d="M351.55,168.55h0c.25.88,7.86,27.2-1.64,43.51-8.6,14.77-14.69,5.45-14.69,5.45a184.12,184.12,0,0,1-14.55,18.06c-5,5.41-10.7,10.7-16.08,13.67-3.1,1.73-6.1,2.68-8.8,2.44a19.17,19.17,0,0,1-2-.3,11.66,11.66,0,0,1-1.5-.4c-13.85-4.73,6.25-30,6.72-65.76.74-57.66-23-99.5-47.92-123.56l-.08-.09s13,.68,26,2.78c8.59,1.38,17.21,3.38,22.14,6.22,11.47,6.61,5.75,13.2,5.46,13.51v0c.82.16,31.39,6.63,40.71,22.37,4.65,7.83-5.12,9.16-5.64,9.23,0,0,0,0,0,0,.58.61,18.76,19.84,22.3,36.06,5.08,23.32-9.73,17-10.37,16.76" transform="translate(0 -48.26)"/><path class="cls-3" d="M153,61.58l-.08.08C127.94,85.73,104.21,127.58,105,185.23c.46,36.06,21,61.49,6.34,65.88a13.29,13.29,0,0,1-1.59.37c-.48.09-1,.15-1.57.21-2.76.25-5.85-.76-9.06-2.58-5.54-3.13-11.43-8.69-16.52-14.28a183.15,183.15,0,0,1-13.84-17.31s-6.1,9.32-14.7-5.45c-9.5-16.31-1.9-42.63-1.64-43.5v0c-.65.28-15.46,6.56-10.37-16.75,3.53-16.23,21.71-35.46,22.29-36.08,0,0,0,0,0,0-.52-.07-10.28-1.4-5.64-9.23C68,90.74,98.51,84.27,99.33,84.11v0c-.27-.31-6-6.9,5.47-13.51,4.78-2.75,13-4.72,21.35-6.09,13.28-2.2,26.8-2.91,26.8-2.91" transform="translate(0 -48.26)"/><g class="cls-6"><g class="cls-10"><path class="cls-5" d="M105,185.23c.46,36.06,20.94,61.48,6.34,65.88-1.13-.55-2.17-1.07-3.08-1.53a8.34,8.34,0,0,0-6.51-.47c-5.4-3.13-11.14-8.69-16.1-14.28a227.21,227.21,0,0,1,.69-25.27,8.89,8.89,0,0,0-5.77-9c-3.18-1.22-6.15-4.33-5.22-11.95,1.11-9.11,8.33-22.31,13.4-30.64a9.14,9.14,0,0,0-1.51-11.14,2.17,2.17,0,0,1-.26-.27c-6.35-7.93,5.72-21,14.85-29.14A8.83,8.83,0,0,0,103,105.56a7,7,0,0,1-1-6.88c2.06-6.1,13.59-15.22,21.25-20.75a9,9,0,0,0,3.28-9.18,4.64,4.64,0,0,1,1.56-4.26c10.5-1.79,21.13-2.58,24.78-2.83C127.94,85.73,104.21,127.58,105,185.23" transform="translate(0 -48.26)"/></g></g><g class="cls-6"><g class="cls-11"><path class="cls-5" d="M322.74,200.57a8.89,8.89,0,0,0-5.79,9,218.59,218.59,0,0,1,.66,26c-4.88,5.41-10.43,10.7-15.67,13.67l-.14-.05a8.31,8.31,0,0,0-6.76.38L292.23,251c-13.85-4.73,6.25-30,6.72-65.76.74-57.66-23-99.5-47.92-123.56,3.57.23,13.77,1,24,2.69,1.6,1.61,2,3.11,1.69,4.39A9,9,0,0,0,280,77.93c7.65,5.53,19.2,14.65,21.25,20.75a7,7,0,0,1-1,6.87,8.86,8.86,0,0,0,1.27,11.89c9.12,8.11,21.19,21.2,14.83,29.13a2.91,2.91,0,0,1-.24.27A9.14,9.14,0,0,0,314.55,158c5.07,8.33,12.29,21.53,13.4,30.65.93,7.61-2,10.72-5.21,11.94" transform="translate(0 -48.26)"/></g></g><path class="cls-5" d="M296.56,255.07c-.37,0-.73,0-1.09,0-4.61-.42-7.76-2-9.64-4.75-3.65-5.41-1.19-13.62,2.23-25,3.27-10.9,7.34-24.46,7.54-40.1.81-62.54-27.11-100.8-43.83-118a5.07,5.07,0,0,1,4-8.57c12.54,1,35.05,3.42,44.95,9.12,8.86,5.11,9.32,10.8,8.56,14.13,10.19,2.7,30.93,9.63,38.83,23,1.73,2.92,2.16,5.64,1.27,8.08a8.36,8.36,0,0,1-3.95,4.41c5.92,6.9,16.93,21.06,19.71,33.82,2,9.26,1.36,15.46-2,19a9.51,9.51,0,0,1-7.05,2.8H356c1.95,9.26,4.39,27.79-3.23,40.88-3.47,6-7.08,9.2-11,9.88a8.74,8.74,0,0,1-6-1.14c-8,10.88-25.67,32.58-39.18,32.58M259.49,65.57c17.57,19.26,43.59,58.25,42.8,119.7-.21,16.58-4.43,30.64-7.83,41.94-2.55,8.51-5,16.55-3.09,19.32.68,1,2.26,1.61,4.7,1.83,8.27.71,23.62-15.08,35.2-31.09a5.08,5.08,0,0,1,3.47-2.05,5.14,5.14,0,0,1,3.92,1.17,2.19,2.19,0,0,0,1.94.65c.84-.14,3.15-1.08,6.4-6.66,7.26-12.48,3.38-32.36,2-38.16a5.07,5.07,0,0,1,5.86-6.15c1.61.28,2.78.06,3.45-.64s2.34-3.66.32-12.92c-2.77-12.69-15.71-28-19.61-32.45a5.07,5.07,0,0,1,2.08-8.14c1.3-.46,1.89-1,2-1.34s0-1.16-.74-2.4c-7.26-12.27-29.66-18.64-36.35-20.3a5,5,0,0,1-3.33-2.63,5.17,5.17,0,0,1-.1-4.32c1.24-3-2.14-5.69-5.19-7.45-5.86-3.37-19.86-6.28-37.93-7.91" transform="translate(0 -48.26)"/><path class="cls-5" d="M107.34,255.07c-13.51,0-31.18-21.7-39.18-32.58a8.74,8.74,0,0,1-6,1.14c-3.95-.68-7.55-3.91-11-9.88-7.62-13.09-5.18-31.62-3.24-40.88h-.09a9.51,9.51,0,0,1-7-2.8c-3.38-3.53-4-9.73-2-19,2.78-12.76,13.79-26.92,19.7-33.82a8.38,8.38,0,0,1-3.94-4.41c-.89-2.44-.46-5.16,1.27-8.08,7.89-13.33,28.64-20.26,38.83-23-.76-3.33-.31-9,8.56-14.13,12.93-7.45,48.15-9.36,49.64-9.44l8.94-.47L155.28,64c-14.42,13.89-47.85,53.52-47,121.19.2,15.64,4.27,29.2,7.54,40.1,3.42,11.38,5.88,19.59,2.23,25-1.88,2.78-5,4.33-9.64,4.75-.36,0-.72,0-1.09,0m-38.8-39.89a4.17,4.17,0,0,1,.61,0,5,5,0,0,1,3.47,2.05c11.59,16,27,31.83,35.21,31.09,2.44-.22,4-.83,4.69-1.83,1.88-2.77-.53-10.81-3.08-19.32-3.4-11.3-7.62-25.36-7.83-41.94-.8-61.83,26.1-101.23,42.83-119.69-11.16,1-30,3.33-38,7.9-3.06,1.76-6.44,4.48-5.19,7.45a5.17,5.17,0,0,1-.1,4.32,5,5,0,0,1-3.33,2.63c-6.69,1.66-29.09,8-36.35,20.3-.74,1.24-.87,2-.74,2.4s.72.88,2,1.34a5.07,5.07,0,0,1,2.08,8.14C61,124.46,48,139.82,45.25,152.51c-2,9.27-.45,12.12.32,12.92s1.83.92,3.45.64a5.08,5.08,0,0,1,5.86,6.15c-1.37,5.8-5.25,25.68,2,38.16,3.25,5.58,5.55,6.52,6.4,6.66a2.18,2.18,0,0,0,1.94-.66,5.13,5.13,0,0,1,3.3-1.2" transform="translate(0 -48.26)"/><path class="cls-3" d="M205.32,55.59c10.86-7,17.63-2.63,20.91,1a7.67,7.67,0,0,0,6.65,2.47c8.83-1.1,23.87,1,34.06,8.37,2.51,1.81,3.06,3.5,2.77,4.91a7.82,7.82,0,0,0,3,8.11c6.94,4.88,17.4,12.94,19.26,18.33a6,6,0,0,1-.94,6.08,7.67,7.67,0,0,0,1.15,10.49c8.27,7.16,19.22,18.73,13.45,25.73a1.71,1.71,0,0,1-.22.25A7.91,7.91,0,0,0,304,151.2c4.59,7.36,11.14,19,12.15,27.07.84,6.73-1.84,9.48-4.72,10.55a7.86,7.86,0,0,0-5.25,7.94c.81,10.33,1.67,28.32-1.52,33.94-2.29,4-8.49,2.48-12.22,1.08a7.72,7.72,0,0,0-6.12.34c-4.23,2.09-11.64,5.57-15.78,6.4-30.32,6.1-54.67-8.14-64.38-15.1a7.78,7.78,0,0,0-9.08,0c-9.71,7-34.06,21.2-64.38,15.1-4.14-.83-11.55-4.31-15.77-6.4a7.74,7.74,0,0,0-6.13-.34c-3.73,1.4-9.93,2.94-12.21-1.08-3.2-5.62-2.34-23.61-1.53-33.94a7.87,7.87,0,0,0-5.24-7.94c-2.89-1.07-5.57-3.82-4.73-10.55,1-8.05,7.56-19.71,12.15-27.07a7.92,7.92,0,0,0-1.37-9.84,1.79,1.79,0,0,1-.23-.25c-5.76-7,5.18-18.57,13.45-25.73a7.67,7.67,0,0,0,1.15-10.49,6,6,0,0,1-.94-6.08c1.86-5.39,12.32-13.45,19.27-18.33a7.81,7.81,0,0,0,3-8.11c-.29-1.41.26-3.1,2.77-4.91,9.69-7,23.77-9.25,32.72-8.51a7.76,7.76,0,0,0,7.19-3.5c2.29-3.55,7.85-6.75,21.32.47a7.69,7.69,0,0,0,7.79-.33" transform="translate(0 -48.26)"/><g class="cls-6"><g class="cls-12"><path class="cls-13" d="M311.43,188.82a7.86,7.86,0,0,0-5.25,7.94c.81,10.32,1.67,28.33-1.52,33.94-2.29,4-8.49,2.48-12.21,1.08a7.74,7.74,0,0,0-6.13.34c-4.22,2.09-11.64,5.57-15.77,6.39-30.33,6.11-54.68-8.12-64.38-15.09a7.79,7.79,0,0,0-9.09,0c-9.7,7-34.06,21.2-64.38,15.09-4.14-.82-11.55-4.3-15.77-6.39a7.74,7.74,0,0,0-6.13-.34c-3.73,1.4-9.93,2.94-12.21-1.08-3.2-5.61-2.34-23.62-1.54-33.94a7.83,7.83,0,0,0-5.23-7.94c-2.88-1.08-5.57-3.82-4.73-10.55.65-5.17,3.58-11.82,6.81-17.87a37.82,37.82,0,0,0-2.71,9.44c-.82,6.64,1.76,9.35,4.52,10.41a7.74,7.74,0,0,1,5,7.83c-.76,10.18-1.59,27.93,1.47,33.47,2.19,4,8.13,2.44,11.7,1.07a7.24,7.24,0,0,1,5.87.33c4,2.05,11.15,5.49,15.11,6.31,29.06,6,52.4-8,61.7-14.89a7.28,7.28,0,0,1,8.71,0c9.3,6.87,32.64,20.91,61.7,14.89,4-.82,11.07-4.26,15.11-6.31a7.27,7.27,0,0,1,5.88-.33c3.57,1.37,9.5,2.89,11.7-1.07,3.05-5.54,2.23-23.29,1.45-33.47a7.76,7.76,0,0,1,5-7.83c2.77-1.06,5.34-3.77,4.53-10.41-1-7.94-8.67-21.82-6.68-18.64,4.59,7.35,11.13,19,12.14,27.07.84,6.73-1.85,9.47-4.72,10.55" transform="translate(0 -48.26)"/><path class="cls-5" d="M147.49,240.49A75.09,75.09,0,0,1,132.6,239c-4.24-.85-11.78-4.4-15.89-6.44a7.31,7.31,0,0,0-5.74-.31c-3.72,1.39-10.33,3.07-12.81-1.31-3.26-5.72-2.4-23.89-1.6-34.22a7.31,7.31,0,0,0-4.91-7.43c-2.8-1-6-3.82-5.05-11.08.57-4.51,2.87-10.58,6.86-18l.89.42a37.55,37.55,0,0,0-2.67,9.31c-.65,5.24.77,8.57,4.21,9.89a8.21,8.21,0,0,1,5.34,8.33c-.76,10.07-1.59,27.78,1.4,33.19,2,3.66,7.82,2.1,11.1.85a7.72,7.72,0,0,1,6.27.35c4.8,2.43,11.29,5.5,15,6.27,29.1,6,52.57-8.35,61.31-14.81a7.79,7.79,0,0,1,9.29,0c8.75,6.46,32.22,20.83,61.31,14.81,3.91-.82,11.07-4.28,15-6.27a7.74,7.74,0,0,1,6.28-.35c3.27,1.26,9.07,2.81,11.1-.85,3-5.45,2.16-23.14,1.39-33.19a8.23,8.23,0,0,1,5.34-8.33c3.44-1.31,4.85-4.64,4.22-9.89-.67-5.52-4.76-14.18-6.29-17.45-.89-1.88-.91-1.91-.47-2.15s.67.13,1,.63c5,8.06,11.23,19.32,12.22,27.28.91,7.25-2.24,10-5,11.08h0a7.32,7.32,0,0,0-4.92,7.43c.8,10.33,1.66,28.5-1.6,34.22-2.48,4.39-9.09,2.7-12.81,1.31a7.28,7.28,0,0,0-5.73.31c-4.13,2-11.67,5.59-15.89,6.44-30.77,6.19-55.55-8.55-64.77-15.18a7.3,7.3,0,0,0-8.52,0c-7.68,5.52-26.15,16.67-49.87,16.67m54.13-19a8.23,8.23,0,0,1,4.83,1.56c9.12,6.55,33.62,21.13,64,15,4.11-.82,11.57-4.33,15.65-6.35a8.27,8.27,0,0,1,6.52-.36c3.42,1.28,9.48,2.88,11.6-.87,3.13-5.49,2.27-23.44,1.47-33.65a8.32,8.32,0,0,1,5.57-8.44c3.58-1.34,5.06-4.72,4.4-10-.73-5.83-4.49-13.69-8.06-20.08,1.58,3.75,3.17,8.14,3.58,11.53.87,7.17-2.15,9.9-4.84,10.93a7.24,7.24,0,0,0-4.71,7.33c.78,10.17,1.61,28.08-1.52,33.75-1.77,3.2-6.15,3.66-12.31,1.29a6.81,6.81,0,0,0-5.48.31c-4,2-11.2,5.52-15.23,6.35-29.48,6.11-53.24-8.44-62.1-15a6.81,6.81,0,0,0-8.12,0c-8.84,6.55-32.6,21.09-62.09,15-3.79-.78-10.38-3.89-15.23-6.36a6.82,6.82,0,0,0-5.47-.3c-6.17,2.37-10.55,1.91-12.32-1.29-3-5.36-2.46-21.31-1.52-33.75a7.23,7.23,0,0,0-4.71-7.33c-2.69-1-5.71-3.77-4.83-10.93a24.15,24.15,0,0,1,.51-2.84,41.93,41.93,0,0,0-3.63,11.39c-.66,5.31.82,8.69,4.41,10a8.3,8.3,0,0,1,5.56,8.44C96.75,207,95.89,225,99,230.45c2.13,3.74,8.19,2.15,11.62.87a8.27,8.27,0,0,1,6.52.36c4.07,2,11.52,5.52,15.65,6.35,30.38,6.11,54.87-8.46,64-15a8.25,8.25,0,0,1,4.83-1.56m109.81-32.64h0Z" transform="translate(0 -48.26)"/></g></g><path class="cls-5" d="M147.48,243.33A78.41,78.41,0,0,1,132,241.8c-4.31-.87-11.4-4.11-16.6-6.68a4.34,4.34,0,0,0-3.47-.2c-10.65,4-14.78.1-16.29-2.57-2.78-4.88-3.43-16.94-2-35.85A4.53,4.53,0,0,0,90.65,192c-3.08-1.14-8.08-4.5-6.88-14.1,1.06-8.46,7.45-20.13,12.63-28.42a4.62,4.62,0,0,0-.88-5.7,5.16,5.16,0,0,1-.46-.48c-4-4.9-4.9-14.15,13.84-30.4a4.34,4.34,0,0,0,.71-5.89,9.36,9.36,0,0,1-1.48-9.24c1.69-4.87,8.59-11.59,20.51-20a4.46,4.46,0,0,0,1.62-4.69c-.44-2.12-.09-5.28,4.07-8.3,10.28-7.45,25-10,35-9.13a4.42,4.42,0,0,0,4.1-2c2.59-4,9.37-9.42,25.7-.65a4.34,4.34,0,0,0,4.4-.2c13.58-8.78,22.16-1.8,25.22,1.6a4.33,4.33,0,0,0,3.74,1.39c10.22-1.27,26,1.42,36.44,9,4.17,3,4.52,6.18,4.08,8.3a4.5,4.5,0,0,0,1.62,4.69c11.93,8.39,18.82,15.11,20.51,20a9.36,9.36,0,0,1-1.48,9.24,4.35,4.35,0,0,0,.71,5.89c18.74,16.25,17.88,25.5,13.84,30.39a4.15,4.15,0,0,1-.45.49,4.61,4.61,0,0,0-.89,5.7c5.18,8.29,11.57,20,12.63,28.42,1.2,9.6-3.8,13-6.88,14.1a4.53,4.53,0,0,0-3.07,4.55c1.47,18.91.82,31-2,35.85-1.51,2.67-5.65,6.55-16.29,2.57a4.38,4.38,0,0,0-3.47.2c-5.19,2.57-12.28,5.81-16.59,6.68-31.85,6.41-57.46-8.82-67-15.66a4.41,4.41,0,0,0-5.18,0c-7.94,5.69-27,17.19-51.55,17.19m-34-15.37a11.17,11.17,0,0,1,5,1.16c6.73,3.33,12.18,5.56,15,6.12,29.27,5.88,52.95-8.2,61.77-14.54a11.14,11.14,0,0,1,13,0c8.83,6.33,32.51,20.43,61.78,14.54,2.76-.56,8.21-2.79,14.94-6.12a11.12,11.12,0,0,1,8.79-.47c4.12,1.55,7.39,1.7,8.13.39,1.53-2.69,2.62-12.51,1.1-32a11.15,11.15,0,0,1,7.41-11.34c.9-.33,3.29-1.22,2.57-7S308,163.89,301.17,153A11.22,11.22,0,0,1,303,139c2.88-3.51-2.13-11.58-13.07-21.07a11,11,0,0,1-1.58-15.1,2.71,2.71,0,0,0,.4-2.91c-1.14-3.31-7.88-9.55-18-16.69a11.18,11.18,0,0,1-4.31-11.52s-.14-.57-1.46-1.53c-8.93-6.47-23-8.83-31.69-7.75a11,11,0,0,1-9.55-3.56c-4.22-4.69-9.8-4.85-16.61-.45a11,11,0,0,1-11.19.47c-5-2.67-13.8-6.44-16.92-1.61a11.12,11.12,0,0,1-10.27,5c-8.48-.7-21.65,1.46-30.49,7.87-1.32,1-1.45,1.53-1.45,1.53a11.21,11.21,0,0,1-4.32,11.52c-10.15,7.14-16.89,13.38-18,16.69a2.73,2.73,0,0,0,.4,2.91,11,11,0,0,1-1.57,15.1c-11,9.49-16,17.56-13.07,21.08a11.22,11.22,0,0,1,1.85,14C95.26,163.89,91.12,173,90.41,178.69s1.67,6.66,2.57,7A11.14,11.14,0,0,1,100.39,197c-1.52,19.51-.43,29.33,1.1,32,.74,1.31,4,1.16,8.14-.39a10.94,10.94,0,0,1,3.83-.69" transform="translate(0 -48.26)"/><g class="cls-14"><g class="cls-15"><path class="cls-3" d="M283.49,218.41c1.93,4.37,4,10.75,3.09,16.83-1.09-8.49-6-16-6-16a12.32,12.32,0,0,0,2.88-.81" transform="translate(0 -48.26)"/><path class="cls-5" d="M286.54,238.84l-.45-3.54c-1.06-8.28-5.85-15.74-5.9-15.81l-.42-.66.78-.1a12.39,12.39,0,0,0,2.75-.78l.45-.18.19.44c1.93,4.38,4,10.9,3.13,17.1Zm-5.13-19.26a47.85,47.85,0,0,1,4.87,11.57A35.63,35.63,0,0,0,283.22,219a12.85,12.85,0,0,1-1.81.54" transform="translate(0 -48.26)"/></g></g><g class="cls-14"><g class="cls-16"><path class="cls-17" d="M201.62,206.76v.06c0-.21-.06-.42-.08-.63,0,0,0,0,0-.06,0,.21,0,.42.07.63" transform="translate(0 -48.26)"/><path class="cls-5" d="M201.14,206.9q-.06-.3-.09-.6v-.24l1,0c0,.21.05.41.07.6v.14Z" transform="translate(0 -48.26)"/></g></g><g class="cls-14"><g class="cls-18"><path class="cls-17" d="M201.54,206.19c0,.21,0,.42-.08.63v-.06c0-.21,0-.42.07-.63,0,0,0,0,0,.06" transform="translate(0 -48.26)"/><path class="cls-5" d="M201.94,206.9l-1-.12v-.1l.06-.55,1,0v.09h0v0h0c0,.22-.05.43-.09.64" transform="translate(0 -48.26)"/></g></g><path class="cls-19" d="M226.68,223.27s-1,19.14-6.16,35.23c-3.74,11.65-9.69,21.7-19.06,21.7s-15.29-10-19-21.64c-5.2-16.1-6.18-35.29-6.18-35.29Z" transform="translate(0 -48.26)"/><g class="cls-14"><g class="cls-20"><path class="cls-3" d="M226.68,223.27s-1,19.14-6.16,35.23c-3.74,11.65-9.69,21.7-19.06,21.7s-15.29-10-19-21.64c-5.2-16.1-6.18-35.29-6.18-35.29h.31c.58,5.85,2.15,17.6,5.87,27.92s9.69,19.41,19,19.41,15.32-9,19.06-19.46,5.26-22,5.85-27.87Z" transform="translate(0 -48.26)"/></g></g><path class="cls-5" d="M200.12,258.5l-2-32.72a3.35,3.35,0,0,1,6.69-.41,2.81,2.81,0,0,1,0,.41l-2,32.72a1.36,1.36,0,0,1-1.43,1.26,1.34,1.34,0,0,1-1.25-1.26" transform="translate(0 -48.26)"/><path class="cls-5" d="M201.47,283.54c-24.76,0-28.25-54-28.56-60.1a3.34,3.34,0,1,1,6.68-.35c.72,13.95,6.29,53.76,21.88,53.76s21.15-39.81,21.87-53.76a3.34,3.34,0,1,1,6.68.35c-.31,6.15-3.8,60.1-28.55,60.1" transform="translate(0 -48.26)"/><g class="cls-6"><g class="cls-21"><path class="cls-5" d="M256.66,262.8c-5.39,3-7.56-5.22-7.85-6.5a.05.05,0,0,0-.1,0l-.06.14a14,14,0,0,1-17.3,7.89c-14.88-4.92-29.14-13.09-30.27-23.41-1.12,10.35-15.49,18.54-30.42,23.46a14,14,0,0,1-17.29-7.89l-.08-.19a.06.06,0,0,0-.11,0c-.3,1.28-2.46,9.46-7.85,6.5-7.71-4.23-7.05-23.59-7.05-23.59l60.26-33h4.91l60.26,33s.66,19.36-7,23.59" transform="translate(0 -48.26)"/></g></g><path class="cls-3" d="M139.42,188.48s-22.19,7-24.19,22.28c-.75,5.64,7.25,6.56,7.25,6.56s-12.84,17.55-1.54,27.88c4.72,4.32,16.08,7,25.35,6.54,17.64-.93,53.45-12,55.26-28.55,1.8,16.59,37.6,27.62,55.24,28.55,9.28.5,20.63-2.22,25.35-6.54,11.31-10.33-1.52-27.88-1.52-27.88s8-.92,7.25-6.56c-2-15.27-24.2-22.28-24.2-22.28Z" transform="translate(0 -48.26)"/><path class="cls-5" d="M139.75,189.54c-3.12,2.09-6.23,4.11-9.11,6.24a44.23,44.23,0,0,0-7.69,6.88,17.48,17.48,0,0,0-4.11,8.23c-.11.47,0,.47-.09.67s0,.22,0,.28a1.38,1.38,0,0,0,.53.7,6,6,0,0,0,1.57.85,8,8,0,0,0,1,.33,4.94,4.94,0,0,0,.52.13l.44.08,5.55,1.08-3.19,4.32c-.27.36-.63.89-.94,1.37s-.61,1-.9,1.51c-.57,1-1.11,2.08-1.58,3.15a26,26,0,0,0-2,6.49,13.86,13.86,0,0,0,.3,6.12,10.54,10.54,0,0,0,3.15,4.83,14.19,14.19,0,0,0,2.52,1.7,25.79,25.79,0,0,0,3.11,1.35,40.48,40.48,0,0,0,6.84,1.83,47.66,47.66,0,0,0,7.13.76c1.19,0,2.36,0,3.55-.06s2.4-.18,3.62-.33a100.83,100.83,0,0,0,14.55-2.94,105,105,0,0,0,14-4.9,58.73,58.73,0,0,0,12.54-7.2c3.69-2.85,6.62-6.49,7-10.19l3.34-29.58,3.31,29.58c.42,3.7,3.35,7.34,7,10.2a59.12,59.12,0,0,0,12.54,7.19,105,105,0,0,0,14,4.9A100.83,100.83,0,0,0,253,248.05c1.22.15,2.42.26,3.62.33s2.36.08,3.55.06a47.39,47.39,0,0,0,7.12-.76,40.85,40.85,0,0,0,6.85-1.83,27.32,27.32,0,0,0,3.1-1.35,14.19,14.19,0,0,0,2.52-1.7A10.65,10.65,0,0,0,283,238a13.71,13.71,0,0,0,.29-6.12,26.38,26.38,0,0,0-2-6.49c-.47-1.07-1-2.13-1.56-3.16-.29-.51-.59-1-.9-1.52s-.64-1-.91-1.39l-3.1-4.36,5.42-.94.44-.07c.18,0,.36-.07.53-.12a10.32,10.32,0,0,0,1-.31,6.67,6.67,0,0,0,1.63-.83,1.89,1.89,0,0,0,.62-.74c.06-.09,0-.23.08-.35a6.25,6.25,0,0,0-.07-.71,15.39,15.39,0,0,0-4.36-8.2,55.08,55.08,0,0,0-7.87-6.56c-2.89-2.07-5.93-4.11-8.93-6.56l-.06,0a1.16,1.16,0,0,1-.17-1.64,1.18,1.18,0,0,1,.91-.43,26,26,0,0,1,11.64,3,31,31,0,0,1,9.77,7.58,24.59,24.59,0,0,1,5.67,11.83,11.4,11.4,0,0,1,.16,2.11,8.47,8.47,0,0,1-.53,2.41,8.59,8.59,0,0,1-2.83,3.67,12.89,12.89,0,0,1-3.39,1.78,17.3,17.3,0,0,1-1.69.52c-.28.07-.57.12-.86.18s-.54.11-.95.16l2.31-5.29c.48.67.83,1.21,1.2,1.81s.72,1.19,1.05,1.79c.67,1.21,1.29,2.45,1.85,3.73a33.15,33.15,0,0,1,2.45,8.16,20.54,20.54,0,0,1-.51,9.08,17.54,17.54,0,0,1-5.11,7.89,24.65,24.65,0,0,1-7.75,4.32,48.67,48.67,0,0,1-8,2.13,52.63,52.63,0,0,1-8.13.86c-1.37,0-2.76,0-4.13-.06s-2.7-.2-4-.37a107,107,0,0,1-15.53-3.12,113,113,0,0,1-14.94-5.22,65.31,65.31,0,0,1-14-8.08,30.62,30.62,0,0,1-6-6.11,18.49,18.49,0,0,1-3.52-8.61h6.65a18.49,18.49,0,0,1-3.52,8.61,30.62,30.62,0,0,1-6,6.11,65.31,65.31,0,0,1-14,8.08,113,113,0,0,1-14.94,5.22,108.93,108.93,0,0,1-15.53,3.12c-1.32.17-2.66.29-4,.37s-2.76.1-4.13.06a52.63,52.63,0,0,1-8.13-.86,48.67,48.67,0,0,1-8-2.13,24.54,24.54,0,0,1-7.75-4.32,17.46,17.46,0,0,1-5.11-7.89,20.54,20.54,0,0,1-.51-9.08,33,33,0,0,1,2.45-8.16c.55-1.28,1.16-2.52,1.83-3.74.33-.61.68-1.2,1-1.8s.71-1.15,1.19-1.83l2.36,5.39c-.42,0-.66-.09-1-.14l-.86-.19c-.57-.14-1.13-.29-1.7-.49a13,13,0,0,1-3.45-1.76,8.65,8.65,0,0,1-2.92-3.72,8.54,8.54,0,0,1-.57-2.46,12.06,12.06,0,0,1,.14-2.16,22.2,22.2,0,0,1,5.91-11.8,33.86,33.86,0,0,1,10-7.27,36.08,36.08,0,0,1,5.58-2.15,28.07,28.07,0,0,1,5.88-1.14,1.14,1.14,0,0,1,.72,2.09Z" transform="translate(0 -48.26)"/><path class="cls-5" d="M228.07,194.38c0,13-15.54,23.06-22.8,27a7.57,7.57,0,0,1-7.3,0c-7.26-4-22.8-14-22.8-27,0-17,52.9-17,52.9,0" transform="translate(0 -48.26)"/><g class="cls-22"><g class="cls-23"><path class="cls-3" d="M214.22,189c0,2.61-7.5,4.62-11,5.41a8.09,8.09,0,0,1-3.53,0c-3.5-.79-11-2.8-11-5.41,0-3.41,25.53-3.41,25.53,0" transform="translate(0 -48.26)"/><path class="cls-5" d="M201.46,195.1a8.81,8.81,0,0,1-1.88-.19c-5.19-1.18-11.39-3.16-11.39-5.9,0-2.91,11.05-3,13.27-3s13.26.14,13.26,3c0,2.74-6.2,4.72-11.39,5.9a8.79,8.79,0,0,1-1.87.19m0-8.16c-7.91,0-12.28,1.22-12.28,2.07,0,1.56,4.07,3.45,10.62,4.93a7.7,7.7,0,0,0,3.31,0c6.55-1.48,10.62-3.37,10.62-4.93,0-.27-.75-.93-3.58-1.43a52,52,0,0,0-8.69-.64" transform="translate(0 -48.26)"/></g></g><g class="cls-6"><g class="cls-24"><path class="cls-5" d="M282.14,245.2c-4.72,4.31-16.08,7-25.35,6.55-17.63-.95-53.38-12.25-55.25-28.82-1.87,16.57-37.63,27.87-55.25,28.82-9.27.49-20.63-2.24-25.35-6.55-5.39-4.91-5.29-11.47-3.71-17,.71,1.92,3.48,8.51,13.8,11.94,21.91,7.31,67.59-11.79,70.43-28.25,0-.19.06-.37.08-.56a5.39,5.39,0,0,0,.08.56c2.84,16.46,48.51,35.56,70.43,28.25,10.32-3.43,13.09-10,13.8-11.94,1.58,5.52,1.68,12.08-3.71,17" transform="translate(0 -48.26)"/></g></g><g class="cls-6"><g class="cls-25"><path class="cls-13" d="M253.71,339.52l-.23-.23h.13a1.91,1.91,0,0,1,.1.23" transform="translate(0 -48.26)"/></g></g><path class="cls-5" d="M136.59,171.79a22.68,22.68,0,0,1-.19-8.69,21,21,0,0,1,3.36-8.52A18.83,18.83,0,0,1,143,151a19.26,19.26,0,0,1,4.12-2.67,22.65,22.65,0,0,1,9.2-2.11,18.34,18.34,0,0,1,16.52,8.72,23.73,23.73,0,0,1,3.26,8.33,22.34,22.34,0,0,1,.06,8.66,1.34,1.34,0,0,1-2.62,0v-.09a28.07,28.07,0,0,0-6-13,14,14,0,0,0-5-3.75,13,13,0,0,0-5.94-1,18.87,18.87,0,0,0-6.29,1.35,15.88,15.88,0,0,0-2.69,1.46,16.21,16.21,0,0,0-2.35,2.06c-2.94,3.11-4.86,7.87-6.08,12.79l0,.13a1.34,1.34,0,0,1-2.6,0" transform="translate(0 -48.26)"/><path class="cls-5" d="M265.49,171.69c-1.23-4.92-3.15-9.68-6.09-12.79a15.15,15.15,0,0,0-2.35-2.06,15.79,15.79,0,0,0-2.68-1.46,19,19,0,0,0-6.3-1.35,12.91,12.91,0,0,0-5.93,1,13.84,13.84,0,0,0-5,3.75,28,28,0,0,0-6,13l0,.09a1.33,1.33,0,0,1-2.61,0,22.19,22.19,0,0,1,.06-8.67,24,24,0,0,1,3.25-8.33,18.4,18.4,0,0,1,16.53-8.73,22.9,22.9,0,0,1,9.2,2.12,19.13,19.13,0,0,1,4.12,2.67,19.51,19.51,0,0,1,3.25,3.62,21,21,0,0,1,3.35,8.52,22.49,22.49,0,0,1-.19,8.69,1.34,1.34,0,0,1-2.6,0Z" transform="translate(0 -48.26)"/></g><g class="cls-6"><g class="cls-26"><path class="cls-5" d="M176.62,356.08c-1.81,8.68-5.8,20.28-14.54,29.45-14.45,15.17-50.79,15.32-59.83.4-6.25-10.3-7.59-25.1-5.53-37.34h80.47a28.74,28.74,0,0,1-.57,7.49" transform="translate(0 -48.26)"/></g></g><path class="cls-3" d="M159.75,335.08a23.65,23.65,0,0,1,4.17,19.08c-1.5,7.17-4.8,16.78-12,24.37-12,12.55-42,12.67-49.51.32-8.15-13.44-6.2-36.1.92-45.23,14.59-18.73,35.91-17.05,47.83-7.54a49.68,49.68,0,0,1,8.62,9" transform="translate(0 -48.26)"/><path class="cls-5" d="M125.15,388.55a45.83,45.83,0,0,1-4.92-.26c-8.67-.94-15.34-4.28-18.3-9.17-8.19-13.5-6.32-36.49.95-45.82,6.51-8.35,14.87-13.35,24.2-14.45a33,33,0,0,1,24.37,6.82,50.53,50.53,0,0,1,8.73,9.09,24.17,24.17,0,0,1,4.26,19.51c-1.45,6.93-4.74,16.83-12.17,24.62-6.52,6.85-17.57,9.66-27.12,9.66m5.72-68.87a32.12,32.12,0,0,0-3.67.21c-9,1.07-17.16,5.93-23.49,14.05-7.07,9.08-8.87,31.46-.88,44.64,2.79,4.6,9.18,7.76,17.51,8.67,10.16,1.1,23.73-1.28,31.17-9.08,7.26-7.62,10.47-17.32,11.9-24.12a23.08,23.08,0,0,0-4.08-18.65,48.76,48.76,0,0,0-8.53-8.91,32.42,32.42,0,0,0-19.93-6.81" transform="translate(0 -48.26)"/><g class="cls-6"><g class="cls-27"><path class="cls-5" d="M163.93,354.16c-1.5,7.17-4.81,16.78-12,24.37-12,12.55-42,12.67-49.51.32A37.45,37.45,0,0,1,97.67,365c.31.62.65,1.24,1,1.82,7.5,12.36,37.56,12.24,49.52-.31,7.23-7.6,10.53-17.2,12-24.38a24.13,24.13,0,0,0,.5-5.67,23.84,23.84,0,0,1,3.21,17.7" transform="translate(0 -48.26)"/></g></g><path class="cls-5" d="M125.07,391.58a47.72,47.72,0,0,1-5.17-.28c-9.75-1.05-17.05-4.82-20.56-10.61-9-14.88-6.75-39.12,1.15-49.26,8.86-11.37,19.16-14.75,26.23-15.59a36.12,36.12,0,0,1,26.62,7.46,54.16,54.16,0,0,1,10.18,10.9,25.21,25.21,0,0,1,4.18,19.19c-1.45,7.77-4.91,18.86-13.24,27.59-7.15,7.51-19.11,10.6-29.39,10.6m5.82-68.87a28.35,28.35,0,0,0-3.33.19c-8.22,1-15.64,5.44-21.46,12.9-6.36,8.17-8,29.2-.68,41.21,2.26,3.74,8,6.44,15.25,7.23,11.14,1.2,22.92-2.15,28.64-8.16,7.12-7.47,10.13-17.17,11.4-24a18,18,0,0,0-3-13.76h0a47.08,47.08,0,0,0-8.82-9.47,29.28,29.28,0,0,0-18-6.15" transform="translate(0 -48.26)"/><g class="cls-6"><g class="cls-28"><path class="cls-5" d="M286.25,341.6a9.3,9.3,0,0,0-7.47,7.69c-1.34,8.57-5.12,22.5-15.73,33.1-14.81,14.83-52.07,15-61.35.38-8-12.49-7.79-29.37-3-41.17Z" transform="translate(0 -48.26)"/></g></g><path class="cls-3" d="M273.21,348.79a7.88,7.88,0,0,0-7.79,6.63c-1.13,7.24-4.32,19-13.27,27.95-12.51,12.51-44,12.63-51.79.32-8.52-13.39-6-32.74,1.6-41.72,16.29-19.22,44.42-20.55,64.09-10.22,8.55,4.48,21.09,17,21.09,17Z" transform="translate(0 -48.26)"/><path class="cls-5" d="M224.22,393.36a50.67,50.67,0,0,1-5.48-.29c-8.9-1-15.76-4.29-18.82-9.1-8.65-13.59-6.08-33.22,1.64-42.33,16.89-19.94,46-20.21,64.74-10.36,8.52,4.47,20.69,16.63,21.21,17.14a.53.53,0,0,1,.11.57.52.52,0,0,1-.48.33H273.21a7.31,7.31,0,0,0-7.27,6.18c-1.25,8-4.6,19.43-13.42,28.24-6.82,6.83-18.3,9.62-28.3,9.62M239.69,326c-13.59,0-27.55,4.81-37.33,16.34-7.48,8.84-10,27.89-1.55,41.1,2.88,4.53,9.46,7.67,18.05,8.61,12.67,1.4,26.21-2.32,32.92-9,8.61-8.62,11.89-19.8,13.13-27.66a8.34,8.34,0,0,1,8.3-7.07h12.64c-3-2.95-13-12.35-20-16.06A57,57,0,0,0,239.69,326" transform="translate(0 -48.26)"/><g class="cls-6"><g class="cls-29"><path class="cls-5" d="M271.5,340.26l8,8.53h-6.33a7.88,7.88,0,0,0-7.79,6.63c-1.13,7.24-4.32,19-13.27,27.95-12.51,12.51-44,12.62-51.78.32a33.79,33.79,0,0,1-4.51-11.35c8.42,11.74,39.09,11.43,51.41-.89,9-8.95,12.14-20.69,13.27-27.94a.43.43,0,0,0,0-.11,6.38,6.38,0,0,1,10.94-3.14" transform="translate(0 -48.26)"/></g></g><path class="cls-5" d="M224.13,396.38a50.29,50.29,0,0,1-5.72-.3c-10-1.09-17.44-4.82-21-10.48-9.5-14.93-6.7-35.79,1.88-45.92,18.1-21.36,48.14-21.75,68.46-11.08,8.92,4.69,21.42,17.15,22,17.68a3.56,3.56,0,0,1-2.52,6.07h-13.6a4.72,4.72,0,0,0-4.66,4c-1.36,8.35-4.93,20.27-14.22,29.55-7.44,7.45-19.82,10.5-30.53,10.5M239.68,329c-12.77,0-25.85,4.49-35,15.3-6.79,8-8.8,25.75-1.32,37.5,2.36,3.7,8.27,6.4,15.83,7.23,11.82,1.3,24.35-2.05,30.44-8.15,7.95-7.95,11-18.35,12.23-25.68a11.79,11.79,0,0,1,11.68-9.94h4.61c-4.15-3.7-9.54-8.14-13.75-10.34A53.88,53.88,0,0,0,239.68,329" transform="translate(0 -48.26)"/><path class="cls-5" d="M261.9,355a33.91,33.91,0,0,0,.77-3.57c.23-1.3.44-2.65.72-4a29.57,29.57,0,0,1,1.13-4.26,15,15,0,0,1,2.25-4.2,2.16,2.16,0,0,1,3.6,2.35l-.05.1a15.49,15.49,0,0,0-1.26,6.67c0,1.25,0,2.55,0,3.91a39.31,39.31,0,0,1-.17,4.36v.09a3.58,3.58,0,0,1-7.11-.77,3.46,3.46,0,0,1,.13-.64" transform="translate(0 -48.26)"/></g></g></svg>