<svg xmlns="http://www.w3.org/2000/svg" xmlns:xlink="http://www.w3.org/1999/xlink" viewBox="0 0 967 350.96"><defs><style>.cls-1,.cls-22{fill:none;}.cls-2{isolation:isolate;}.cls-3{fill:#dc1c67;}.cls-19,.cls-4{fill:#fff;}.cls-5{clip-path:url(#clip-path);}.cls-6{fill:#d85825;}.cls-7{fill:#0f5134;}.cls-8{fill:#1a6b4a;}.cls-9{fill:#71b85e;}.cls-10{opacity:0.5;}.cls-11{fill:#255e10;}.cls-12{fill:#6eb73e;}.cls-13{fill:#43973b;}.cls-14{fill:#2eccc4;}.cls-15{clip-path:url(#clip-path-2);}.cls-16{fill:#2fa556;}.cls-17{fill:#97d04d;opacity:0.3;mix-blend-mode:screen;}.cls-18{fill:#7cc1ac;opacity:0.25;}.cls-18,.cls-25{mix-blend-mode:multiply;}.cls-19{mix-blend-mode:soft-light;}.cls-20{fill:#0f2b15;}.cls-21{fill:#f1a1bc;}.cls-22{stroke:#0f2b15;stroke-miterlimit:10;stroke-width:3.6px;}.cls-23{fill:#60260d;}.cls-24{fill:#eb6d2b;}.cls-25{opacity:0.15;}.cls-26{fill:#5e8026;}</style><clipPath id="clip-path" transform="translate(0 -69.4)"><rect class="cls-1" x="87.27" width="327" height="384"/></clipPath><clipPath id="clip-path-2" transform="translate(0 -69.4)"><circle id="SVGID" class="cls-1" cx="239.33" cy="199.81" r="121.31" transform="translate(-71.19 227.76) rotate(-45)"/></clipPath></defs><g class="cls-2"><g id="Capa_2" data-name="Capa 2"><g id="Capa_2-2" data-name="Capa 2"><path class="cls-3" d="M55.87,57H911.13A55.87,55.87,0,0,1,967,112.86V258.68a55.87,55.87,0,0,1-55.87,55.87H0a0,0,0,0,1,0,0V112.86A55.87,55.87,0,0,1,55.87,57Z"/><path class="cls-4" d="M448,188.32h23.16l18.88,30.62,18.87-30.62H532.1v79.1H510.29V222l-20.22,31h-.46L469.5,222.22v45.2H448Z" transform="translate(0 -69.4)"/><path class="cls-4" d="M546.11,188.32h63.62V207H567.81v12h38v17.29h-38v12.55H610.3v18.64H546.11Z" transform="translate(0 -69.4)"/><path class="cls-4" d="M640.8,207.53H617.07V188.32h69.39v19.21H662.73v59.89H640.8Z" transform="translate(0 -69.4)"/><path class="cls-4" d="M713.24,187.75h21.13l33.68,79.67H744.54l-5.76-14.12H708.27l-5.65,14.12H679.56Zm19.21,48.48-8.82-22.49-8.92,22.49Z" transform="translate(0 -69.4)"/><path class="cls-4" d="M768.61,255.67l12.2-14.58c7.8,6.22,16.5,9.49,25.65,9.49,5.88,0,9-2,9-5.42v-.23c0-3.27-2.6-5.08-13.33-7.57-16.84-3.84-29.83-8.59-29.83-24.86v-.23C772.34,197.58,784,187,803,187c13.45,0,24,3.62,32.55,10.51l-11,15.48c-7.24-5.08-15.15-7.8-22.16-7.8-5.31,0-7.91,2.26-7.91,5.09v.23c0,3.61,2.72,5.19,13.68,7.68,18.19,4,29.49,9.83,29.49,24.64V243c0,16.16-12.77,25.77-32,25.77C791.66,268.78,778.32,264.37,768.61,255.67Z" transform="translate(0 -69.4)"/><g class="cls-5"><path class="cls-6" d="M280.73,349.08l-.07.34c-1.22,3.18-19.2,5.7-41.21,5.7-22.78,0-41.26-2.7-41.26-6S216.67,343,239.45,343,280.73,345.74,280.73,349.08Z" transform="translate(0 -69.4)"/><polygon class="cls-7" points="237.42 251.26 237.42 285.72 241.24 285.72 241.24 249.47 237.42 251.26"/><path class="cls-7" d="M167.55,114.88a6.44,6.44,0,0,0,1-1.2,2.88,2.88,0,0,0,.42-1.36,7,7,0,0,0-.78-2.86,26,26,0,0,1-2.1-6.1,23.44,23.44,0,0,1,0-6.48,42.22,42.22,0,0,1,1.19-6.33,12.28,12.28,0,0,1,3.93-5.26,12.56,12.56,0,0,1,6.08-2.68,12.41,12.41,0,0,1,3.34,0c1,.15,2.08.27,3.11.36a14.1,14.1,0,0,0,3,0,3,3,0,0,0,2.44-1.5l.13,0a2.52,2.52,0,0,1-.86,1.44,4.32,4.32,0,0,1-1.51.8,11.22,11.22,0,0,1-3.28.47,26.91,26.91,0,0,1-3.25-.15,10.84,10.84,0,0,0-3-.08,11.34,11.34,0,0,0-5.53,2.23,12.37,12.37,0,0,0-4,4.58,21.09,21.09,0,0,0-1.46,6.1,18.5,18.5,0,0,0,.66,6.21,59.43,59.43,0,0,0,2,6,11.65,11.65,0,0,1,.45,1.59,4.36,4.36,0,0,1,.06,1.73,3.93,3.93,0,0,1-2,2.59Z" transform="translate(0 -69.4)"/><path class="cls-8" d="M182.59,84a3.41,3.41,0,0,1,3.75.42,7.39,7.39,0,0,1,2.42,3.29C187.71,89.51,184,89.71,182.59,84Z" transform="translate(0 -69.4)"/><path class="cls-7" d="M182.4,83.52a14.84,14.84,0,0,0,2.29,2.38,9.14,9.14,0,0,0,2.91,1.51,4.48,4.48,0,0,1-3.32-1A5.37,5.37,0,0,1,182.4,83.52Z" transform="translate(0 -69.4)"/><path class="cls-9" d="M178.46,83.09a8,8,0,0,0,4-4.3,9.53,9.53,0,0,0,.69-5.05C180.79,73.46,176.51,77.23,178.46,83.09Z" transform="translate(0 -69.4)"/><g class="cls-10"><path class="cls-11" d="M178.44,83.07a10.63,10.63,0,0,1,3.65-8A39.27,39.27,0,0,0,180,79C179.4,80.28,179,81.66,178.44,83.07Z" transform="translate(0 -69.4)"/></g><path class="cls-9" d="M166,100.5a8,8,0,0,0-1.62-5.62,9.58,9.58,0,0,0-4-3.21C158.94,93.52,160,99.14,166,100.5Z" transform="translate(0 -69.4)"/><g class="cls-10"><path class="cls-11" d="M165.94,100.51A10.61,10.61,0,0,1,161,93.26,40,40,0,0,0,163.24,97C164.05,98.24,165,99.33,165.94,100.51Z" transform="translate(0 -69.4)"/></g><path class="cls-12" d="M183.76,83.3a4.89,4.89,0,0,0,3.1-1.83,5.85,5.85,0,0,0,1.3-2.84C186.84,78.05,183.65,79.51,183.76,83.3Z" transform="translate(0 -69.4)"/><g class="cls-10"><path class="cls-11" d="M183.75,83.29a5.63,5.63,0,0,1,1.25-2.5,5.12,5.12,0,0,1,2.31-1.55c-.61.72-1.24,1.32-1.81,2S184.41,82.6,183.75,83.29Z" transform="translate(0 -69.4)"/></g><path class="cls-8" d="M167.26,90.13a9.19,9.19,0,0,0,1.57-6.07,11,11,0,0,0-1.65-5.22C165,79.7,162.9,85.4,167.26,90.13Z" transform="translate(0 -69.4)"/><path class="cls-7" d="M167.54,90.62a9.16,9.16,0,0,1-1.63-4.82,10.75,10.75,0,0,1,.89-5,27.85,27.85,0,0,0-.22,5A18.37,18.37,0,0,0,167.54,90.62Z" transform="translate(0 -69.4)"/><path class="cls-13" d="M168.21,105.68a11.26,11.26,0,0,1,2-7.29,8.18,8.18,0,0,1,4.45-3.32C176.15,98,174.88,105.47,168.21,105.68Z" transform="translate(0 -69.4)"/><g class="cls-10"><path class="cls-11" d="M167.69,105.88a12,12,0,0,0,3.78-3.76,27.65,27.65,0,0,0,2.41-4.84,11.84,11.84,0,0,1-1.85,5.21A7.89,7.89,0,0,1,167.69,105.88Z" transform="translate(0 -69.4)"/></g><path class="cls-9" d="M169.74,88.14a7,7,0,0,1,4.81-1.75,7.86,7.86,0,0,1,4.22,1.19C178.16,89.58,173.66,91.77,169.74,88.14Z" transform="translate(0 -69.4)"/><g class="cls-10"><path class="cls-11" d="M169.75,88.17c1.31,0,2.56.14,3.81.1s2.48-.18,3.78-.31A8.68,8.68,0,0,1,169.75,88.17Z" transform="translate(0 -69.4)"/></g><path class="cls-14" d="M360,212.5q-.42,4-1.1,7.88a121,121,0,0,1-7.54,25.94,123.11,123.11,0,0,1-5.29,11.13c-1.72,3.18-3.58,6.29-5.58,9.3-.48.73-1,1.46-1.46,2.18a121.42,121.42,0,0,1-11.73,14.43c-.69.74-1.39,1.46-2.11,2.18-.12.13-.25.25-.38.37-.63.64-1.28,1.27-1.92,1.87-1.75,1.66-3.53,3.27-5.38,4.82q-3.39,2.86-7,5.48a119.77,119.77,0,0,1-16.65,10.1,2,2,0,0,1-.29.15c-.7.36-1.4.7-2.11,1-.33.16-.65.32-1,.46a119.85,119.85,0,0,1-11.39,4.6c-2.83,1-5.67,1.86-8.52,2.61-.25.08-.51.14-.76.21-.91.24-1.83.47-2.74.68q-2.24.52-4.47,1a118.83,118.83,0,0,1-20.88,2.25h-.47c-1.28,0-2.56,0-3.82,0-.59,0-1.17,0-1.76,0a121.66,121.66,0,0,1-56.44-15.92c-.73-.42-1.46-.84-2.17-1.27-1.51-.9-3-1.82-4.44-2.79q-3.06-2-6-4.21c-1.23-.91-2.45-1.85-3.64-2.83-.74-.58-1.46-1.19-2.18-1.8-1.35-1.15-2.69-2.33-4-3.55-1.14-1.05-2.25-2.12-3.35-3.22l-.9-.9-.76-.79c-1.7-1.77-3.35-3.59-4.94-5.48q-2-2.28-3.79-4.68a120.77,120.77,0,0,1-13.66-22.56c-.42-.89-.83-1.8-1.22-2.7q-1.89-4.32-3.45-8.83c0-.1-.07-.2-.1-.3a122.71,122.71,0,0,1-3.49-12.1c-.38-1.65-.73-3.3-1-4.95v0c-.63-3.31-1.12-6.62-1.45-9.92a.11.11,0,0,0,0-.05c0-.42-.09-.85-.12-1.28-.16-1.72-.29-3.44-.37-5.15q-.27-5.14-.07-10.25a116.24,116.24,0,0,1,1-11.83,117.55,117.55,0,0,1,3.48-16.8c.34-1.21.71-2.43,1.09-3.64.66-2.1,1.39-4.19,2.17-6.25.45-1.22.93-2.43,1.44-3.64,1-2.49,2.15-4.95,3.34-7.36a121.78,121.78,0,0,1,19.26-28.16c1.6-1.75,3.26-3.47,5-5.13q2.82-2.73,5.84-5.31c1.89-1.61,3.83-3.17,5.84-4.67.76-.57,1.52-1.13,2.3-1.68,1.62-1.16,3.27-2.27,4.95-3.35l1.38-.87a120.06,120.06,0,0,1,18.69-9.49c1.64-.67,3.3-1.29,5-1.89l.75-.27a120.79,120.79,0,0,1,71.51-2.48c2.32.63,4.6,1.33,6.86,2.08s4.3,1.52,6.4,2.36a121.31,121.31,0,0,1,16,7.83c.66.38,1.32.76,2,1.17,1.72,1,3.43,2.13,5.1,3.26q2.26,1.55,4.45,3.17c1.93,1.43,3.82,2.94,5.66,4.49q3.46,2.91,6.73,6.11a.22.22,0,0,1,.06.07c.37.35.74.72,1.1,1.09s.46.46.68.69c.58.58,1.14,1.17,1.69,1.76.76.8,1.5,1.61,2.24,2.44a119,119,0,0,1,8.72,11c1.21,1.74,2.39,3.51,3.5,5.32.2.32.4.63.58.94s.46.74.67,1.12.48.81.71,1.22h0c.22.38.45.76.66,1.15l.82,1.47c.3.56.61,1.12.9,1.68l.36.7c.31.58.6,1.16.89,1.76.24.45.47.91.68,1.38s.41.84.6,1.27c0,.08.09.16.13.25h0a2.52,2.52,0,0,1,.14.33c.26.55.52,1.1.76,1.65l.22.51c.19.43.38.87.56,1.3s.37.87.55,1.31c.47,1.13.92,2.29,1.35,3.45.08.18.14.36.2.54h0c.31.79.59,1.59.87,2.4.49,1.42,1,2.85,1.38,4.27l0,0c.43,1.37.82,2.76,1.18,4.14q1.38,5.07,2.27,10.18a117,117,0,0,1,1.69,14.45A120.19,120.19,0,0,1,360,212.5Z" transform="translate(0 -69.4)"/><g class="cls-15"><path class="cls-16" d="M298.94,70c13.7,3.11,25.55,10.91,35.94,19.73,13.85,11.75,26.37,27.45,25.08,45.44-.48,6.63-2.83,13.06-4.22,19.61a68.63,68.63,0,0,0-1.24,20.34c.26,2.91-.64,7.2-3.69,6.84a4.67,4.67,0,0,1-1.89-.8l-12.38-7.46a5,5,0,0,1-2.17-2c-.5-1.09-.12-2.37.05-3.57a10.46,10.46,0,0,0-5-10.37,12.25,12.25,0,0,0-12.21.22,6.34,6.34,0,0,0-2.1,1.88c-2.08,3.19,1,7,4.11,9s6.88,4.63,6.41,8.3c-.32,2.57-2.8,4.94-2.15,7.42.59,2.21,3.33,3.12,4.72,5,2.59,3.43-.29,8.25-3,11.77-3.8,4.87-7.63,11.38-4.44,16.37,1.75,2.75,5.4,4.39,6.06,7.57.4,1.94-.45,3.94-1.31,5.78a175.51,175.51,0,0,1-15,25.36c-1.93,2.78-4.47,5.34-5.12,8.66-.15.77-.19,1.55-.33,2.32-.52,2.85-2.35,5.27-4.12,7.56a3,3,0,0,1-1.1,1c-3.11,1.3-3.17-3.61-2.87-5.14.75-3.92,2.59-7.35,2.78-11.45.22-4.49-1.16-9.2-4.7-12-2.19-1.76-5.22-2.87-6.31-5.4-1.84-4.28,3-10,0-13.64-1.88-2.23-6-2.21-7.33-4.76-.49-.9-.54-2-.95-2.91a5.94,5.94,0,0,0-3.6-2.91c-4.58-1.61-9.75.1-14.58,1.35s-10.58,1.82-14-1.41c-.94-.87-1.67-2-2.85-2.56-2-1-4.66.11-6.82-.58-3.8-1.2-3.58-6.47-1.83-10s4.41-7.33,3.14-10.93c-.5-1.42-1.59-2.65-1.69-4.16-.21-3.06,3.48-5,5.21-7.68,2-3.12,1.94-8,5.57-9.19,1.88-.62,3.92.2,5.87-.17,3.53-.66,5.28-4.77,8.6-6.17,3.67-1.55,7.6.7,10.89,2.66s7.8,3.64,10.95,1.25c2.33-1.76,2.7-4.91,2.87-7.68.21-3.32-.45-7.7-3.91-8.06-1.86-.2-3.58,1-5.36,1.63-6.2,2.2-12.61-2.45-19.14-1.9-5.47.46-9.93,4.4-14.22,7.8s-13.27,9.14-17.55,2.67a3.37,3.37,0,0,1-.47-3.07,7.27,7.27,0,0,1,1.69-2,8,8,0,0,0,2.18-5.6,1.25,1.25,0,0,1,.09-.61,1.12,1.12,0,0,1,.59-.4c4.09-1.69,9.63-5.62,9.83-10.56.07-1.73-.84-3.45-.34-5.13.89-3,5.17-3.53,7.47-5.78,2.91-2.85,1-8.42-3.1-8.83-2.91-.3-5.44,1.52-7.66,3.15-1.71,1.27-3,3.29-4.88,4.22-1.37.68-2.91,1-4.23,1.79-.77.46-1.45,1.05-2.23,1.5a3.57,3.57,0,0,1-2.57.51,1.82,1.82,0,0,1-1.39-2,3,3,0,0,1,.85-1.26,3.61,3.61,0,0,0,1.17-1.89c.09-.62-.12-1.3.17-1.86s1.28-.81,2-1c2.89-.84,2-2.75,3.11-4.94a11.41,11.41,0,0,1,3-3.26l6.76-5.76c3.39-2.88,8.39-5.91,11.88-3.41,1.16.83,2,2.23,3.5,2.31,2.69.14,3.19-3.6,3.09-6.15a22.07,22.07,0,0,1,6.33-15.89c2.28-2.36,3.54-2.69,4.11-5.62.67-3.37-.5-6,2.64-8.66s8.43-4,12.71-4.58c1.13-.16,2.27-.23,3.41-.3C291.28,69.2,295.24,70.2,298.94,70Z" transform="translate(0 -69.4)"/><path class="cls-17" d="M309,243.26a3.55,3.55,0,0,1-5.73.4,19.72,19.72,0,0,0-3-2.95,34.74,34.74,0,0,0-2.93-2l-.41-.25c.08-.34.17-.68.24-1,.82-3.27,2.34-9.37-2.06-14.61a16,16,0,0,0-6.55-4.41,12.59,12.59,0,0,0-.48-1.25,14.16,14.16,0,0,0-8.54-7.48,21.08,21.08,0,0,0-6.91-1.12,42.62,42.62,0,0,0-11.12,1.89l-1.47.38a19.36,19.36,0,0,1-4.69.72,3.65,3.65,0,0,1-1.57-.21,3.29,3.29,0,0,0-.25-.3,14.71,14.71,0,0,0-4.66-3.64,12.88,12.88,0,0,0-3.65-1.08c2-3.75,4.75-9.26,2.53-15.57-.11-.3-.22-.59-.33-.86a22.74,22.74,0,0,0,2.95-3.55,23.42,23.42,0,0,0,2.47-5.42l.71,0a14.22,14.22,0,0,0,2.73-.25c4.52-.85,7.33-3.67,9.2-5.54.26-.26.6-.6.89-.87a27.52,27.52,0,0,1,3.5,1.86,22.89,22.89,0,0,0,11.57,3.61,14.49,14.49,0,0,0,8.83-2.89c5.61-4.25,6-11,6.21-13.92.67-10.83-5.28-16.35-11.47-17a11.62,11.62,0,0,0-1.31-.07,16.33,16.33,0,0,0-6.9,1.75,7.67,7.67,0,0,1-.89.38,2.14,2.14,0,0,1-.79.11,22.81,22.81,0,0,1-4.91-1,36.48,36.48,0,0,0-9.5-1.56c-.6,0-1.2,0-1.8.07a22.42,22.42,0,0,0-4.21.78,3.56,3.56,0,0,1-4.48-3.71v-.07a13.87,13.87,0,0,0-.06-2,19.06,19.06,0,0,0,4.65-3.23A13.43,13.43,0,0,0,258,123.27l-.17-.47a3.53,3.53,0,0,1,1.86-4.54,10.72,10.72,0,0,0,3.52-2.44c3.28-3.41,3.8-8.23,3.66-11.67a13.63,13.63,0,0,1,4-9.67c.44-.46.83-.81,1.16-1.12a14.65,14.65,0,0,0,5.16-8.74,24.63,24.63,0,0,0,.42-4.1c0-.07,0-.13,0-.19,1.07-.66,3.28-1.56,7.79-2.19.89-.13,1.79-.18,2.68-.24.29,0,.51,0,.73,0,1.05,0,2.31.13,3.65.26,1.61.16,3.44.34,5.34.34h.33c10.09,2.5,20.07,8.15,31.31,17.69,15.55,13.19,23,26.1,22.1,38.36A64.86,64.86,0,0,1,349.18,146c-.6,2.27-1.22,4.62-1.73,7a77,77,0,0,0-1.7,16.34l-1.07-.65a3.47,3.47,0,0,1-1.7-2.8,19.05,19.05,0,0,0-9.3-15.45,20,20,0,0,0-10.14-2.69,20.83,20.83,0,0,0-10.78,3,14.57,14.57,0,0,0-4.79,4.51c-4.36,6.67-1.7,15.19,6.47,20.7.58.39,1.37.92,2,1.41a13.59,13.59,0,0,0-1.23,9.43,13.3,13.3,0,0,0,4.84,7,23.51,23.51,0,0,1-1.65,2.37c-7.88,10.09-9.53,18.89-4.9,26.14a23.12,23.12,0,0,0,4.1,4.61l.28.25-.16.33A146.89,146.89,0,0,1,309,243.26Z" transform="translate(0 -69.4)"/><path class="cls-16" d="M207.05,93.07c5.91-4.25,17.75-7.66,19.17-16.64,0-.17.05-.32.07-.48h-1A120.09,120.09,0,0,0,105.19,194c.73,1.51,1.47,3,2.24,4.46,1.93,3.85,5.14,7.07,7.06,10.28,1.29,3.21,1.93,8.34,4.5,11.55.64,1.93,5.14.65,6.42,2.57,1.93,1.93,1.28,4.5,3.21,6.42,3.21,3.85,4.49,5.14,9,7.71,7.06,5.13,16,8.34,21.19,15.41,5.13,8.34,2.57,18,10.27,23.75,4.5,2.57,9,1.29,12.2,5.14,1.93,3.21-.64,8.35,1.28,11.56,1.14,2.65,5.8,4.68,9.71,8,2.73,2.33,2.39,5.93,3.71,6.72a22.76,22.76,0,0,1,11.18.62c.77.21,1.29,2,2,2.29.93.31,4.61.1,2.91-.61s3.26,1.39,4.53,2c2.17,1,3.59,1.75,3.78,1.55,1.93-3.85-.61-9-1.25-12.25a62,62,0,0,1,0-15.41c1.29-9,3.87-18.53-5.76-24.95-2.57-1.93-5.78,0-8.34-1.28-6.43-3.86-1.93-2.57-5.78-7.71-3.86-5.78-7.73-15.5-15.43-17.43s-8.35,5.14-16.05,3.85c1.28-7.06,4.75-6.68,7.06-11.56s-18,2.57-23.76,8.35c-21.83-12.84-3.85-22.47,11.56-28.25,3.21-1.28,7.06,3.85,9-3.85.64-4.5-3.85-7.71-5.14-10.92-3.85-9.63-3.21-13.48,5.14-21.19-5.14-4.49,6.42-14.12,13.48-13.48-1.92-1.28-6.42-4.49-7.06-7.06,0-2.57,7.7-8.35,3.21-12.84-1.93-1.29-9.63.64-11.56.64-.64-.64-6.42-3.86-9-3.86-9,21.19-23.75-7.06-12.84-11.55,5.78-1.93,12.2,11.55,16.7,4.49,3.85-5.78-8.35-12.84-11.56-16.05,2.57-1.93,7.7-8.35,10.27-7.7,8.35,1.28,2.57,5.77,4.5,9.63a18.9,18.9,0,0,0,5.86,7.16c3.2,3.87,7.67,10.8,14,9.53,8.35-1.93,1.29-7.7,5.14-12.84,3.21-3.85,12.84-1.29,16-5.78,5.78-8.35-5.14-5.78-5.14-12.84,0-.16,0-.31,0-.46A38.79,38.79,0,0,0,207.05,93.07Z" transform="translate(0 -69.4)"/><path class="cls-17" d="M210.54,300.4a9.28,9.28,0,0,0-1.16-.4,38.51,38.51,0,0,0-6.71-1.24,2.83,2.83,0,0,1-2.12-1.23,15.3,15.3,0,0,0-2.78-3.14,57.63,57.63,0,0,0-5.26-3.89c-.72-.49-1.63-1.11-2.23-1.57,0-.4.06-.88.08-1.25.21-2.73.53-6.87-1.82-10.79l-.34-.56-.42-.51c-3.74-4.49-8.36-5.49-11.41-6.14-.66-.14-1.24-.27-1.75-.41a2.87,2.87,0,0,1-1.55-1c-1-1.32-1.49-3.29-2.27-6.91-.84-3.87-1.87-8.7-4.78-13.43l-.17-.27-.2-.27c-.25-.35-.51-.69-.78-1l1.52.25a18.72,18.72,0,0,0,3.2.28,18.5,18.5,0,0,0,10.71-3.62c.38-.24.88-.56,1.16-.72l.32.07c2.59.65,5.51,5.67,7.65,9.34.89,1.53,1.81,3.12,2.78,4.57l.13.2.47.63c.85,4.88,3.94,7.08,7.87,9.44l.28.17.29.15a13.67,13.67,0,0,0,6.22,1.37h.84l2.15.88c1.95,2.23,1.83,5.31.7,12.55-.14.89-.27,1.78-.4,2.66A70,70,0,0,0,210.54,300.4ZM158.28,240l.65-.44-.15.82Zm-25.17-21.1a13.66,13.66,0,0,0-1.2-1.57,10.88,10.88,0,0,0-5.59-3.62,2.87,2.87,0,0,1-2-1.9c-.19-.63-.37-1.27-.53-1.84a44.11,44.11,0,0,0-1.42-4.45l-.26-.63-.35-.59a49.86,49.86,0,0,0-3.45-4.88,32.77,32.77,0,0,1-3.3-4.82c-.33-.64-.65-1.25-1-1.86a2.85,2.85,0,0,1-.31-1.43,110.73,110.73,0,0,1,21.8-61.42,22.2,22.2,0,0,0,.42,3.73c1.66,8.37,8,16.83,16.91,16.83,2.78,0,7.32-.9,11.43-5.82l1.05,1.05a2.87,2.87,0,0,0,2,.84h2.33l.59,0a10.38,10.38,0,0,0-.72,3.74v1l.26,1a12.39,12.39,0,0,0,.53,1.65,22,22,0,0,0-7.6,9.42,13.52,13.52,0,0,0-.87,4.21,3,3,0,0,1-.67,1.8c-6.5,7.77-7,14.76-2.6,25.75a18.07,18.07,0,0,0,1.85,3.41c-.33.1-.66.21-1,.34C148.64,203,136,208.92,133.11,218.93Zm50.13-100.36c-.66-.78-1.28-1.56-1.72-2.12l-1.34-1.67-.63-.75-.77-.59a11.73,11.73,0,0,1-1.94-1.83,2.85,2.85,0,0,1-.62-2.31,11.67,11.67,0,0,0-1.72-8.89l0,0a2.88,2.88,0,0,1,.75-4.16C182.68,91.62,189,86.07,197.87,84l.3-.05,2.5-.38-.84,4.67a2.75,2.75,0,0,1-.37,1,34,34,0,0,1-2.34,3.26L195.94,94a3,3,0,0,0-.62,1.71l0,1.88c0,.31,0,.62,0,.92a13.67,13.67,0,0,0,.83,4.6,2.8,2.8,0,0,1-1.9,3.67,14.62,14.62,0,0,0-7.89,4.69l-.26.34A14.52,14.52,0,0,0,183.24,118.57Z" transform="translate(0 -69.4)"/></g><path class="cls-18" d="M360,212.5q-.42,4-1.1,7.88a121,121,0,0,1-7.54,25.94,123.11,123.11,0,0,1-5.29,11.13c-1.72,3.18-3.58,6.29-5.58,9.3-.48.73-1,1.46-1.46,2.18a121.42,121.42,0,0,1-11.73,14.43c-.69.74-1.39,1.46-2.11,2.18-.12.13-.25.25-.38.37-.63.64-1.28,1.27-1.92,1.87-1.75,1.66-3.53,3.27-5.38,4.82q-3.39,2.86-7,5.48a119.77,119.77,0,0,1-16.65,10.1,2,2,0,0,1-.29.15c-.7.36-1.4.7-2.11,1-.33.16-.65.32-1,.46a119.85,119.85,0,0,1-11.39,4.6c-2.83,1-5.67,1.86-8.52,2.61-.25.08-.51.14-.76.21-.91.24-1.83.47-2.74.68q-2.24.52-4.47,1a118.83,118.83,0,0,1-20.88,2.25h-.47c-1.28,0-2.56,0-3.82,0-.59,0-1.17,0-1.76,0a121.66,121.66,0,0,1-56.44-15.92c-.73-.42-1.46-.84-2.17-1.27-1.51-.9-3-1.82-4.44-2.79-1.29-.84-2.56-1.7-3.81-2.61-.73-.52-1.46-1.06-2.19-1.6-1.23-.91-2.45-1.85-3.64-2.83-.74-.58-1.46-1.19-2.18-1.8-1.35-1.15-2.69-2.33-4-3.55l0-.05c-1.13-1-2.22-2.09-3.3-3.17l-.9-.9-.76-.79c-1.7-1.77-3.35-3.59-4.94-5.48q-2-2.28-3.79-4.68a120.77,120.77,0,0,1-13.66-22.56c-.42-.89-.83-1.8-1.22-2.7q-1.89-4.32-3.45-8.83c0-.1-.07-.2-.1-.3a122.71,122.71,0,0,1-3.49-12.1c-.38-1.65-.72-3.3-1-4.95v0c-.62-3.31-1.11-6.62-1.45-9.92a.11.11,0,0,0,0-.05c0-.42-.07-.85-.11-1.28-.16-1.73-.28-3.44-.37-5.15q-.25-5.13-.07-10.22.23-6,1-11.89a120.12,120.12,0,0,1,2.56-13.25,106.1,106.1,0,0,0,5.51,26.49c.15.43.3.86.47,1.29s.24.69.38,1a103.77,103.77,0,0,0,8.32,17.34c1.11,1.85,2.28,3.67,3.49,5.44.92,1.33,1.87,2.65,2.84,3.93a105,105,0,0,0,170.57-4.39c1-1.52,2-3.06,3-4.64A105.25,105.25,0,0,0,331,172.07a105.86,105.86,0,0,0-.5-23.54c-.07-.58-.16-1.15-.25-1.72-.11-.77-.24-1.56-.39-2.34v0c-.29-1.69-.63-3.4-1-5.09a104.37,104.37,0,0,0-9.75-26.22q-1-2-2.15-3.85c-.48-.81-1-1.62-1.46-2.42-.64-1-1.28-2-1.94-3,1.35,1,2.66,2.1,4,3.19q3.5,2.93,6.76,6.13a.12.12,0,0,1,.07.07l1.14,1.12c.23.22.45.46.67.69.57.58,1.14,1.16,1.69,1.75.75.8,1.49,1.61,2.23,2.44a119.8,119.8,0,0,1,8.71,11h0q1.83,2.61,3.51,5.32c.2.32.4.63.58.94l.68,1.12c.24.4.48.81.71,1.22h0c.22.38.45.76.66,1.15l.82,1.47c.3.56.61,1.12.9,1.68l.36.7c.31.58.6,1.16.89,1.76.24.45.47.91.68,1.38s.41.84.6,1.27c0,.08.09.16.13.25h0a2.52,2.52,0,0,1,.14.33c.26.55.52,1.1.76,1.65l.22.51c.19.43.38.87.56,1.3s.37.87.55,1.31c.47,1.13.92,2.29,1.35,3.45.08.18.14.36.2.54h0c.31.79.59,1.59.87,2.4.49,1.42,1,2.85,1.38,4.27l0,0c.43,1.37.82,2.76,1.18,4.14q1.38,5.07,2.27,10.18a117,117,0,0,1,1.69,14.45A120.19,120.19,0,0,1,360,212.5Z" transform="translate(0 -69.4)"/><path class="cls-19" d="M130.55,178.61s10.56-60.51,62.14-81.8,107.24.12,110.89,7S247.12,89,200.69,113.13c-31.23,16.23-50.55,48.6-55.34,63.25C138.66,196.87,126,203.54,130.55,178.61Z" transform="translate(0 -69.4)"/><path class="cls-7" d="M135.83,263.06l1.07,5.08c.37,1.68.77,3.34,1.09,5a19.39,19.39,0,0,0,1.59,4.92,27,27,0,0,0,2.78,4.32,16.06,16.06,0,0,0,7.9,5.85,11.44,11.44,0,0,0,2.48.47,20.22,20.22,0,0,0,2.57-.1,8.43,8.43,0,0,1,2.65,0,4.58,4.58,0,0,1,2.21,1.43l-.09.08a4.5,4.5,0,0,0-2.19-1.21,7.74,7.74,0,0,0-2.53.11,17.61,17.61,0,0,1-2.63.24h-1.34a12.18,12.18,0,0,1-1.34-.14,11.28,11.28,0,0,1-5-2.18,16,16,0,0,1-3.58-4,27.39,27.39,0,0,1-2.31-4.75l-2-4.86a21,21,0,0,1-1.31-5.09,23.14,23.14,0,0,1-.21-5.26Z" transform="translate(0 -69.4)"/><path class="cls-9" d="M135.14,266.66a13.49,13.49,0,0,0-6.8,7.53c-1.14,2.81-1.21,4.92-.71,8.55C132,283.05,139.38,276.4,135.14,266.66Z" transform="translate(0 -69.4)"/><g class="cls-10"><path class="cls-11" d="M135,265.78a12.82,12.82,0,0,1,.17,4,16.7,16.7,0,0,1-1,3.92,18.41,18.41,0,0,1-1.93,3.54,16.93,16.93,0,0,1-2.66,3,32.28,32.28,0,0,0,2.27-3.26,21.37,21.37,0,0,0,1.75-3.52,18.22,18.22,0,0,0,1.1-3.76A19.89,19.89,0,0,0,135,265.78Z" transform="translate(0 -69.4)"/></g><path class="cls-8" d="M143.31,284.34a10.69,10.69,0,0,0-1.72,7.86c.32,2.38,1.1,3.86,2.88,6.17C147.56,296.88,150.06,289.38,143.31,284.34Z" transform="translate(0 -69.4)"/><path class="cls-7" d="M142.86,283.79a10.64,10.64,0,0,1,2.62,5.77,13.27,13.27,0,0,1-.64,6.32,23.64,23.64,0,0,0,0-6.23A15.8,15.8,0,0,0,142.86,283.79Z" transform="translate(0 -69.4)"/><g class="cls-10"><path class="cls-11" d="M149.15,288.85a4,4,0,0,1,2.53,1.33,4.72,4.72,0,0,1,1.23,2.58,22.23,22.23,0,0,0-1.68-2.17A10.79,10.79,0,0,0,149.15,288.85Z" transform="translate(0 -69.4)"/></g><path class="cls-8" d="M138,273.48a8,8,0,0,0,3.86,4.63,8.73,8.73,0,0,0,5,1.13C147.34,276.73,144.05,271.79,138,273.48Z" transform="translate(0 -69.4)"/><path class="cls-7" d="M137.42,273.48a7.76,7.76,0,0,1,4.67,1,9.39,9.39,0,0,1,3.41,3.36,20.43,20.43,0,0,0-3.72-2.83A13.22,13.22,0,0,0,137.42,273.48Z" transform="translate(0 -69.4)"/><path class="cls-7" d="M118.54,210.89a8.31,8.31,0,0,1,2.75,1.64,10.28,10.28,0,0,1,2,2.53,19.41,19.41,0,0,1,2,6.07c.36,2.08.53,4.17,1,6.2a12.54,12.54,0,0,0,2.58,5.56,9.65,9.65,0,0,0,5.11,3c.94.24,2.06.39,3.09.74a11.09,11.09,0,0,1,3,1.48,8.8,8.8,0,0,1,2.31,2.44,7.88,7.88,0,0,1,1.09,3.17,8.13,8.13,0,0,1-2,6l-.1-.07a8.69,8.69,0,0,0,1.09-5.84,7.58,7.58,0,0,0-3.18-4.69,12.52,12.52,0,0,0-2.61-1.38c-.94-.37-1.91-.53-3-.84a11.1,11.1,0,0,1-3-1.4,9.89,9.89,0,0,1-2.32-2.29,19.15,19.15,0,0,1-2.54-5.81c-.6-2-1.09-4.08-1.58-6.1a28,28,0,0,0-1.83-5.84,10.23,10.23,0,0,0-4-4.5Z" transform="translate(0 -69.4)"/><path class="cls-8" d="M140.76,238.92a12.18,12.18,0,0,0,7.48,6.16c2.81.94,4.94.89,8.62.22C157.25,241.12,150.67,234.31,140.76,238.92Z" transform="translate(0 -69.4)"/><path class="cls-7" d="M139.86,239.1a13,13,0,0,1,3.93-.39,15.74,15.74,0,0,1,3.91.7,17.33,17.33,0,0,1,3.6,1.67,15,15,0,0,1,3.08,2.46,28.48,28.48,0,0,0-3.31-2.06,20.6,20.6,0,0,0-3.56-1.49,17.76,17.76,0,0,0-3.76-.82A21,21,0,0,0,139.86,239.1Z" transform="translate(0 -69.4)"/><path class="cls-9" d="M128.58,233.47c-3.08,2-4.26,5.38-4.37,8.88-.09,3.18.7,5.5,2.74,9.44C131.8,251.73,137.22,243.76,128.58,233.47Z" transform="translate(0 -69.4)"/><g class="cls-10"><path class="cls-11" d="M128.65,233.51a18.65,18.65,0,0,1,1.55,7.86,14.7,14.7,0,0,1-2.3,7.68c.28-1.31.56-2.59.75-3.87a31.11,31.11,0,0,0,.34-3.84c0-1.29,0-2.58-.08-3.88S128.7,234.85,128.65,233.51Z" transform="translate(0 -69.4)"/></g><path class="cls-9" d="M125.17,220c1.67,3.81,5.3,5.75,9.22,6.48,3.56.67,6.32.19,11.11-1.41C146.28,219.6,138.27,212.1,125.17,220Z" transform="translate(0 -69.4)"/><g class="cls-10"><path class="cls-11" d="M125.23,219.94a22.17,22.17,0,0,1,9.11-.28,17.47,17.47,0,0,1,8.25,3.85c-1.42-.57-2.8-1.12-4.2-1.58a33.51,33.51,0,0,0-4.28-1.08c-1.44-.28-2.9-.44-4.38-.58Z" transform="translate(0 -69.4)"/></g><path class="cls-7" d="M287,281.8a37.91,37.91,0,0,0,13,4.38,23.34,23.34,0,0,0,6.73-.1,20.77,20.77,0,0,0,6.31-2.15,25.66,25.66,0,0,0,2.83-1.82,23.37,23.37,0,0,0,2.53-2.26,38.77,38.77,0,0,0,4.21-5.45A44.06,44.06,0,0,0,328,261.68c.6-2.24,1.08-4.51,1.5-6.79A62,62,0,0,1,331,248a56.7,56.7,0,0,1,5.85-12.88,59.69,59.69,0,0,1,4.06-5.8,41.08,41.08,0,0,1,4.83-5.23,17.76,17.76,0,0,1,6.1-3.79,10.65,10.65,0,0,1,3.57-.59,12.39,12.39,0,0,1,3.5.58l0,.18a14.11,14.11,0,0,0-3.43-.08,11.51,11.51,0,0,0-3.22.9,19.34,19.34,0,0,0-5.39,4,67.64,67.64,0,0,0-8.34,10.88,59.32,59.32,0,0,0-5.94,12.36c-.37,1.08-.68,2.17-1,3.28s-.51,2.26-.8,3.4c-.58,2.27-1.22,4.52-2,6.74a67.43,67.43,0,0,1-5.7,12.82,49.09,49.09,0,0,1-3.94,5.85,21.14,21.14,0,0,1-5.43,4.7,20.73,20.73,0,0,1-14,2.27A31,31,0,0,1,286.9,282Z" transform="translate(0 -69.4)"/><path class="cls-8" d="M343.28,226.32a16.85,16.85,0,0,1-8.6,9.85c-3.25,1.63-5.73,1.71-10,.94C324.13,230.81,331.67,220,343.28,226.32Z" transform="translate(0 -69.4)"/><path class="cls-7" d="M344.33,226.53a16.63,16.63,0,0,0-4.78.31,17.62,17.62,0,0,0-4.46,1.61,23.29,23.29,0,0,0-4,2.58,37.56,37.56,0,0,0-3.56,3.24,21.79,21.79,0,0,1,3.26-3.6,20.62,20.62,0,0,1,4-2.76,16.35,16.35,0,0,1,4.66-1.53A12.81,12.81,0,0,1,344.33,226.53Z" transform="translate(0 -69.4)"/><path class="cls-8" d="M302.2,286.38a13.37,13.37,0,0,1-9.78-3.49c-2.15-1.93-2.93-3.74-3.61-7.14C293.31,273.54,303.46,276,302.2,286.38Z" transform="translate(0 -69.4)"/><path class="cls-7" d="M302.35,287.21A13.91,13.91,0,0,0,298.2,281a18.1,18.1,0,0,0-3.06-2.22,30.27,30.27,0,0,0-3.41-1.73,16,16,0,0,1,6.87,3.49,13.06,13.06,0,0,1,2.48,3A9.93,9.93,0,0,1,302.35,287.21Z" transform="translate(0 -69.4)"/><path class="cls-9" d="M326.91,263.07a15.46,15.46,0,0,1-6.29,10.22c-2.7,2-4.94,2.42-8.94,2.37C310.25,270,315.44,259.13,326.91,263.07Z" transform="translate(0 -69.4)"/><g class="cls-10"><path class="cls-11" d="M327.89,263.1a15.4,15.4,0,0,0-4.27,1,15.74,15.74,0,0,0-3.79,2.14,21,21,0,0,0-3.25,2.93,35.81,35.81,0,0,0-2.75,3.47,19.4,19.4,0,0,1,2.4-3.77,18.41,18.41,0,0,1,3.24-3.12,15.05,15.05,0,0,1,4-2.09A11.55,11.55,0,0,1,327.89,263.1Z" transform="translate(0 -69.4)"/></g><path class="cls-9" d="M353.4,220.33a12.27,12.27,0,0,0-6.66,8.47c-.82,3.16-.51,5.56.76,9.67C352.68,238.85,360.25,231.39,353.4,220.33Z" transform="translate(0 -69.4)"/><g class="cls-10"><path class="cls-11" d="M353.46,220.38a24.4,24.4,0,0,1,.11,4.1,20.88,20.88,0,0,1-.64,4.08,20.22,20.22,0,0,1-1.5,3.85,18.74,18.74,0,0,1-2.29,3.42,37.59,37.59,0,0,0,1.87-3.62,24.49,24.49,0,0,0,1.34-3.8,26.74,26.74,0,0,0,.76-4C353.28,223.1,353.36,221.74,353.46,220.38Z" transform="translate(0 -69.4)"/></g><path class="cls-9" d="M315.52,283.24a10.23,10.23,0,0,0-5.57,7.07c-.69,2.65-.42,4.64.64,8.08C314.91,298.71,321.24,292.48,315.52,283.24Z" transform="translate(0 -69.4)"/><g class="cls-10"><path class="cls-11" d="M315.57,283.27a17.86,17.86,0,0,1-.4,6.86,15.06,15.06,0,0,1-3.21,6.05,27,27,0,0,0,2.63-6.21A37.2,37.2,0,0,0,315.57,283.27Z" transform="translate(0 -69.4)"/></g><path class="cls-8" d="M333.72,244.63A11.78,11.78,0,0,0,332,254.85c.75,3,2.11,4.93,5.07,7.83C341.59,260.63,344.58,250.85,333.72,244.63Z" transform="translate(0 -69.4)"/><path class="cls-7" d="M333.79,244.64a22.37,22.37,0,0,1,2,3.42,20.64,20.64,0,0,1,1.33,3.75,18.81,18.81,0,0,1,.49,3.95,17.82,17.82,0,0,1-.38,3.93c0-1.31,0-2.62-.09-3.91a21.52,21.52,0,0,0-.61-3.83,25.7,25.7,0,0,0-1.16-3.71C334.88,247,334.33,245.84,333.79,244.64Z" transform="translate(0 -69.4)"/><path class="cls-7" d="M300.12,94.74a5.15,5.15,0,0,0,2.47,1.3,9.14,9.14,0,0,0,2.79-.18,15.93,15.93,0,0,1,5.88,0,13.77,13.77,0,0,1,5.42,2.46,19.62,19.62,0,0,1,4.15,4.24,32,32,0,0,1,4.83,10.63,33.53,33.53,0,0,1,1.1,11.52,37.46,37.46,0,0,0-.7-5.7,45.68,45.68,0,0,0-1.4-5.53,35.88,35.88,0,0,0-4.91-10.13A16.21,16.21,0,0,0,311,96.88a15.48,15.48,0,0,0-5.57-.38,9.12,9.12,0,0,1-2.94-.12A4.78,4.78,0,0,1,300.12,94.74Z" transform="translate(0 -69.4)"/><path class="cls-9" d="M327.48,120.77a14.9,14.9,0,0,0,7.54-8.25c1.26-3.08,1.35-5.41.83-9.41C331.1,102.75,322.87,110,327.48,120.77Z" transform="translate(0 -69.4)"/><g class="cls-10"><path class="cls-11" d="M327.63,121.74a13.32,13.32,0,0,1-.16-4.41,17.86,17.86,0,0,1,1.11-4.31,20.52,20.52,0,0,1,2.14-3.9,18.79,18.79,0,0,1,2.95-3.28,34.89,34.89,0,0,0-2.52,3.57,23.28,23.28,0,0,0-1.95,3.86A19.82,19.82,0,0,0,328,117.4,21,21,0,0,0,327.63,121.74Z" transform="translate(0 -69.4)"/></g><path class="cls-8" d="M318.6,101.24a11.8,11.8,0,0,0,1.95-8.64c-.34-2.62-1.2-4.26-3.13-6.81C314,87.41,311.2,95.65,318.6,101.24Z" transform="translate(0 -69.4)"/><path class="cls-7" d="M319.08,101.86a11.77,11.77,0,0,1-2.84-6.38,14.63,14.63,0,0,1,.75-7,25.87,25.87,0,0,0-.09,6.86A17.66,17.66,0,0,0,319.08,101.86Z" transform="translate(0 -69.4)"/><path class="cls-9" d="M311.87,96.15a5.19,5.19,0,0,0-1.47-3.65,5.73,5.73,0,0,0-2.85-1.7C306.71,92.25,307.76,96,311.87,96.15Z" transform="translate(0 -69.4)"/><g class="cls-10"><path class="cls-11" d="M312.2,96.25a4.39,4.39,0,0,1-2.78-1.49,5.18,5.18,0,0,1-1.34-2.85,24.37,24.37,0,0,0,1.83,2.4A11.74,11.74,0,0,0,312.2,96.25Z" transform="translate(0 -69.4)"/></g><path class="cls-8" d="M324.42,113.24a8.86,8.86,0,0,0-4.23-5.13,9.62,9.62,0,0,0-5.47-1.27C314.11,109.6,317.7,115.06,324.42,113.24Z" transform="translate(0 -69.4)"/><path class="cls-7" d="M325,113.24a8.38,8.38,0,0,1-5.13-1.18,10.24,10.24,0,0,1-3.74-3.71,22.83,22.83,0,0,0,4.07,3.14A14.7,14.7,0,0,0,325,113.24Z" transform="translate(0 -69.4)"/><path class="cls-9" d="M317.19,100.57A7.57,7.57,0,0,0,312,98.33a8.22,8.22,0,0,0-4.67,1.16C307.92,101.84,312.79,104.58,317.19,100.57Z" transform="translate(0 -69.4)"/><g class="cls-10"><path class="cls-11" d="M317.63,100.34a6.94,6.94,0,0,1-4.36,1.16,8.33,8.33,0,0,1-4.29-1.41,21.24,21.24,0,0,0,4.32.74A13.09,13.09,0,0,0,317.63,100.34Z" transform="translate(0 -69.4)"/></g><path class="cls-7" d="M309,100.58a9.72,9.72,0,0,1-3.9.71,11.79,11.79,0,0,1-3.94-.86,27.65,27.65,0,0,1-6.73-4.15,40.65,40.65,0,0,0-6.27-4.57,11.67,11.67,0,0,0-3.61-1.26,9.33,9.33,0,0,0-3.76.14,13.12,13.12,0,0,0-3.45,1.46,16.34,16.34,0,0,1-3.55,1.85,11.54,11.54,0,0,1-4.05.74,8.94,8.94,0,0,1-4.07-1,8.17,8.17,0,0,1-3.1-2.82A10,10,0,0,1,261.11,87a6.4,6.4,0,0,1,.61-4,3.8,3.8,0,0,1,1.38-1.54,2.44,2.44,0,0,1,2-.22l0,.13a2.25,2.25,0,0,0-1.74.43,3.48,3.48,0,0,0-1,1.47,5.51,5.51,0,0,0-.21,3.58,8.13,8.13,0,0,0,4.22,5.59,9.43,9.43,0,0,0,7.07.29,18.2,18.2,0,0,0,3.43-1.59,12.34,12.34,0,0,1,3.83-1.27,13,13,0,0,1,7.72,1.5,56.31,56.31,0,0,1,6.72,4.06,46.89,46.89,0,0,0,6.49,4.08,11.57,11.57,0,0,0,7.39,1Z" transform="translate(0 -69.4)"/><path class="cls-8" d="M270.1,94.43a13.37,13.37,0,0,0-10.65.59c-3,1.33-4.67,3-7.15,6.25C255.1,104.94,265.5,105.55,270.1,94.43Z" transform="translate(0 -69.4)"/><path class="cls-7" d="M270.69,93.61a14.61,14.61,0,0,1-2.88,3.25,17.39,17.39,0,0,1-3.7,2.34,18.7,18.7,0,0,1-4.16,1.34,16.61,16.61,0,0,1-4.33.3,31,31,0,0,0,4.21-.8,22.16,22.16,0,0,0,4-1.44,20,20,0,0,0,3.66-2.14A22.66,22.66,0,0,0,270.69,93.61Z" transform="translate(0 -69.4)"/><path class="cls-9" d="M284,89.77c1-3.89-.55-7.54-3.08-10.45-2.29-2.65-4.67-3.94-9.25-5.61C267.81,77.37,269.36,87.87,284,89.77Z" transform="translate(0 -69.4)"/><g class="cls-10"><path class="cls-11" d="M284,89.78a20.41,20.41,0,0,1-7.12-5.21A16.29,16.29,0,0,1,273,76.64c.76,1.27,1.48,2.51,2.28,3.69a35.4,35.4,0,0,0,2.6,3.36,40.74,40.74,0,0,0,3,3.08C281.82,87.77,282.9,88.74,284,89.78Z" transform="translate(0 -69.4)"/></g><path class="cls-9" d="M296.83,98.14c-4.19-1.85-8.57-.71-12.3,1.62-3.38,2.11-5.25,4.55-7.94,9.42C280,114.2,292.11,114.31,296.83,98.14Z" transform="translate(0 -69.4)"/><g class="cls-10"><path class="cls-11" d="M296.84,98.23a24.48,24.48,0,0,1-7.17,7,20.94,20.94,0,0,1-4.6,2.15,17.18,17.18,0,0,1-5,.87c1.57-.58,3.1-1.16,4.58-1.84a38.27,38.27,0,0,0,4.27-2.32,46.15,46.15,0,0,0,4-2.8C294.24,100.31,295.5,99.25,296.84,98.23Z" transform="translate(0 -69.4)"/></g><path class="cls-7" d="M161,107.56c-2.75,0-5.53-.06-8.25,0a41.53,41.53,0,0,0-8,1A28.26,28.26,0,0,0,130.79,116a21.28,21.28,0,0,0-4.4,6.71,23,23,0,0,0-1.16,3.9,30.76,30.76,0,0,0-.49,4.07,51.93,51.93,0,0,0,1.67,16.24c.64,2.65,1.43,5.26,2.28,7.86.43,1.3.88,2.58,1.34,3.87s.93,2.66,1.29,4a56.93,56.93,0,0,1,1.6,16.68,62.53,62.53,0,0,1-.92,8.3c-.25,1.37-.53,2.73-.86,4.08a31,31,0,0,1-1.16,4,19.41,19.41,0,0,1-4.35,7.11,11.55,11.55,0,0,1-3.44,2.39,7.23,7.23,0,0,1-4.12.6l0-.2A6.85,6.85,0,0,0,122,205a11.23,11.23,0,0,0,3.23-2.41,18.64,18.64,0,0,0,4-7,28.24,28.24,0,0,0,1-4c.21-1.35.38-2.71.52-4.07.24-2.72.37-5.45.36-8.17a69,69,0,0,0-1.87-16.11c-.33-1.31-.7-2.6-1.14-3.88s-.86-2.65-1.26-4a79.18,79.18,0,0,1-2-8.1,60.19,60.19,0,0,1-.74-16.62c.34-5.5,1.93-11.17,5.63-15.57a21.42,21.42,0,0,1,6.62-5.34,28.42,28.42,0,0,1,8-2.77,34.8,34.8,0,0,1,8.39-.56c1.4.07,2.77.21,4.15.38s2.74.32,4.11.58Z" transform="translate(0 -69.4)"/><path class="cls-8" d="M131.93,191.23a18.54,18.54,0,0,1,2.64-14.15c2.17-3.37,4.48-4.83,9-6.51C147.57,176.25,146.47,190.68,131.93,191.23Z" transform="translate(0 -69.4)"/><path class="cls-7" d="M130.82,191.62a18.26,18.26,0,0,0,4.36-3,19.21,19.21,0,0,0,3.33-4,24.82,24.82,0,0,0,2.36-4.69,39.81,39.81,0,0,0,1.56-5.08,23.65,23.65,0,0,1-1.07,5.25,22.6,22.6,0,0,1-2.28,4.88,18.65,18.65,0,0,1-3.56,4.06A14.14,14.14,0,0,1,130.82,191.62Z" transform="translate(0 -69.4)"/><path class="cls-8" d="M137.24,111.29a14.71,14.71,0,0,1,11.22-2.17c3.12.62,4.87,1.9,7.42,4.74C152.85,118.48,141.87,121.86,137.24,111.29Z" transform="translate(0 -69.4)"/><path class="cls-7" d="M136.63,110.58a15,15,0,0,0,3.48,2.31,15.51,15.51,0,0,0,3.94,1.27,20.36,20.36,0,0,0,4.13.39,35.13,35.13,0,0,0,4.21-.27,17.92,17.92,0,0,1-4.19.78,17.57,17.57,0,0,1-4.28-.25,14.08,14.08,0,0,1-4-1.47A10.71,10.71,0,0,1,136.63,110.58Z" transform="translate(0 -69.4)"/><path class="cls-9" d="M126.87,147.23a17,17,0,0,1,.24-13.22c1.45-3.38,3.33-5,7.15-7.26C138.76,131.29,140,144.53,126.87,147.23Z" transform="translate(0 -69.4)"/><g class="cls-10"><path class="cls-11" d="M125.92,147.75a17.07,17.07,0,0,0,3.48-3.36,17.93,17.93,0,0,0,2.4-4.15,23.69,23.69,0,0,0,1.43-4.61,36.76,36.76,0,0,0,.66-4.82,20.71,20.71,0,0,1-.16,4.91,20,20,0,0,1-1.32,4.78,16.24,16.24,0,0,1-2.62,4.21A12.66,12.66,0,0,1,125.92,147.75Z" transform="translate(0 -69.4)"/></g><path class="cls-9" d="M125.7,202.57a13.5,13.5,0,0,0,1.57-11.75c-1-3.46-2.63-5.56-6.14-8.75C116,184.61,113,195.93,125.7,202.57Z" transform="translate(0 -69.4)"/><g class="cls-10"><path class="cls-11" d="M125.62,202.57a27.68,27.68,0,0,1-2.41-3.83,24.52,24.52,0,0,1-1.68-4.23,22.74,22.74,0,0,1-.73-4.49,20.69,20.69,0,0,1,.26-4.52,41.27,41.27,0,0,0,.25,4.47,25.69,25.69,0,0,0,.87,4.36,29.83,29.83,0,0,0,1.49,4.19C124.26,199.89,125,201.22,125.62,202.57Z" transform="translate(0 -69.4)"/></g><path class="cls-9" d="M126.37,121.72a11.23,11.23,0,0,0,1.31-9.82c-.83-2.89-2.19-4.64-5.13-7.3C118.27,106.72,115.77,116.17,126.37,121.72Z" transform="translate(0 -69.4)"/><g class="cls-10"><path class="cls-11" d="M126.3,121.72a22.1,22.1,0,0,1-2-3.18,20.1,20.1,0,0,1-1.41-3.54,17.76,17.76,0,0,1-.6-3.76,16.47,16.47,0,0,1,.25-3.78c0,1.26.1,2.5.26,3.73a22.23,22.23,0,0,0,.73,3.63,23.51,23.51,0,0,0,1.24,3.5C125.2,119.46,125.76,120.58,126.3,121.72Z" transform="translate(0 -69.4)"/></g><path class="cls-8" d="M130.74,168.52a13,13,0,0,0-4.05-10.67c-2.42-2.48-4.77-3.5-9.2-4.59C114.32,157.75,117,168.7,130.74,168.52Z" transform="translate(0 -69.4)"/><path class="cls-7" d="M130.67,168.55a26.74,26.74,0,0,1-3.8-2.13,23.64,23.64,0,0,1-3.35-2.81,21.42,21.42,0,0,1-2.68-3.47,20,20,0,0,1-1.84-3.95,40.16,40.16,0,0,0,2.27,3.67,25.26,25.26,0,0,0,2.73,3.28,27.85,27.85,0,0,0,3.18,2.86C128.3,166.89,129.49,167.71,130.67,168.55Z" transform="translate(0 -69.4)"/><path class="cls-7" d="M235.2,318.6a24.93,24.93,0,0,0-4.23-5.12,8.5,8.5,0,0,0-5.62-2.23,21.56,21.56,0,0,0-6.3,1.17c-2.11.66-4.25,1.41-6.45,2A54.69,54.69,0,0,1,199,316.56a67.73,67.73,0,0,1-13.64-.9c-1.14-.18-2.25-.41-3.38-.65a16.71,16.71,0,0,1-3.34-1.24,24.65,24.65,0,0,1-5.79-4,26,26,0,0,1-7.43-11.95,20.87,20.87,0,0,1-.72-7.17c.07-1.18.2-2.25.3-3.37s.17-2.22.24-3.32a32.17,32.17,0,0,0-.16-6.52,9.66,9.66,0,0,0-.92-3,4.64,4.64,0,0,0-2.25-2.16L162,272a4.93,4.93,0,0,1,3.09,1.79,9.64,9.64,0,0,1,1.68,3.22,25.27,25.27,0,0,1,1,7c.05,1.16,0,2.31,0,3.46s-.13,2.31-.22,3.39a20.84,20.84,0,0,0,.54,6.29,24.14,24.14,0,0,0,6.36,11,25.83,25.83,0,0,0,5.05,4.1,14.79,14.79,0,0,0,2.91,1.36c1.06.34,2.14.65,3.23.92a37.5,37.5,0,0,0,13.34,1,61.7,61.7,0,0,0,13-3.29c2.13-.7,4.27-1.43,6.49-2a20.29,20.29,0,0,1,7.05-1,9.74,9.74,0,0,1,3.58,1,10.39,10.39,0,0,1,2.87,2.23,19.11,19.11,0,0,1,3.52,6Z" transform="translate(0 -69.4)"/><path class="cls-8" d="M167.23,285.08c-1.5-2.47-.9-5.11.58-7.4,1.34-2.07,3-3.25,6.3-5C177.82,274.64,178.46,281.87,167.23,285.08Z" transform="translate(0 -69.4)"/><path class="cls-7" d="M166.41,285.49c.84-.77,1.67-1.49,2.43-2.26a18.34,18.34,0,0,0,2.08-2.42,17.35,17.35,0,0,0,2.76-5.81,7.43,7.43,0,0,1-.17,3.44,9.78,9.78,0,0,1-1.52,3.15A10.53,10.53,0,0,1,166.41,285.49Z" transform="translate(0 -69.4)"/><path class="cls-9" d="M165.83,293.26c-1.74-3.65-5.14-6.07-8.74-7.51-3.26-1.3-5.73-1.44-10-1C146.73,289.35,154.44,297.51,165.83,293.26Z" transform="translate(0 -69.4)"/><g class="cls-10"><path class="cls-11" d="M165.79,293.31a21.61,21.61,0,0,1-8.69-1.59,19.68,19.68,0,0,1-7.26-5l3.86,2c1.29.64,2.57,1.26,3.9,1.78s2.66,1,4,1.47S164.39,292.82,165.79,293.31Z" transform="translate(0 -69.4)"/></g><path class="cls-9" d="M200.93,316.63c-4-.41-7.86,1.25-11,3.59-2.8,2.11-4.2,4.15-6,8C187.68,330.94,198.65,328.57,200.93,316.63Z" transform="translate(0 -69.4)"/><g class="cls-10"><path class="cls-11" d="M200.94,316.69a21.66,21.66,0,0,1-5.86,6.61,19.84,19.84,0,0,1-8.06,3.6l3.74-2.25c1.21-.77,2.4-1.55,3.54-2.41s2.25-1.75,3.34-2.68S199.8,317.63,200.94,316.69Z" transform="translate(0 -69.4)"/></g><path class="cls-9" d="M165.88,282.83a9.68,9.68,0,0,0-3.81-6,11.45,11.45,0,0,0-5.69-2.37C155.34,277.14,158.43,283.3,165.88,282.83Z" transform="translate(0 -69.4)"/><g class="cls-10"><path class="cls-11" d="M165.85,282.84a10.79,10.79,0,0,1-5-2.27,10.07,10.07,0,0,1-3.22-4.45c.74.58,1.4,1.17,2.06,1.75s1.31,1.14,2,1.67,1.35,1.07,2.05,1.61S165.16,282.21,165.85,282.84Z" transform="translate(0 -69.4)"/></g><path class="cls-8" d="M180.45,314.81c-3.44-2.44-7.89-3-12.06-2.67-3.79.33-6.24,1.32-10.15,3.61C160.07,320,171.44,323.7,180.45,314.81Z" transform="translate(0 -69.4)"/><path class="cls-7" d="M181.39,314.23a15.11,15.11,0,0,1-4.42,2.42,20.59,20.59,0,0,1-5,1.11,22,22,0,0,1-5.07-.11,18.57,18.57,0,0,1-4.86-1.29,54.47,54.47,0,0,0,9.8.09A36.3,36.3,0,0,0,181.39,314.23Z" transform="translate(0 -69.4)"/><path class="cls-8" d="M211,311.87a22.11,22.11,0,0,1-14.48-3.35c-3.48-2.19-5-4.36-6.83-8.52C195.35,296.78,210.09,298.78,211,311.87Z" transform="translate(0 -69.4)"/><path class="cls-7" d="M211.38,312.89a23.51,23.51,0,0,0-7.65-7.18A55,55,0,0,0,194,301.3a21.81,21.81,0,0,1,5.36,1,22.85,22.85,0,0,1,5,2.26,18.29,18.29,0,0,1,4.25,3.54A12.73,12.73,0,0,1,211.38,312.89Z" transform="translate(0 -69.4)"/><path class="cls-9" d="M176.35,310.06a13.83,13.83,0,0,1-3.77-9.33c-.14-3,.46-5.08,2-8.39C178.61,293.42,183.22,302.11,176.35,310.06Z" transform="translate(0 -69.4)"/><g class="cls-10"><path class="cls-11" d="M176.4,310c0-1.29,0-2.54,0-3.79s0-2.47-.08-3.69-.2-2.45-.35-3.68l-.53-3.74a16.13,16.13,0,0,1,2.19,7.34A17.23,17.23,0,0,1,176.4,310Z" transform="translate(0 -69.4)"/></g><path class="cls-7" d="M262.8,80.94c-2.06-.19-4.18,0-5.62,1.21A14.16,14.16,0,0,0,253.93,87c-1.75,3.71-3.6,7.68-6.36,11a46.59,46.59,0,0,1-9.62,8.36q-2.61,1.78-5.34,3.38a60.08,60.08,0,0,1-5.62,3,23.89,23.89,0,0,1-12.89.94,24.94,24.94,0,0,1-11.81-5.6,18.8,18.8,0,0,1-2.32-2.4c-.72-.85-1.34-1.82-1.91-2.64-1.12-1.74-2.28-3.44-3.48-5.08a27.28,27.28,0,0,0-4-4.48c-1.47-1.26-3.31-2.28-5.35-1.72l-.1-.24a4.89,4.89,0,0,1,3.25-.59,8.89,8.89,0,0,1,3.14,1.21,22.08,22.08,0,0,1,4.93,4.28,56.5,56.5,0,0,1,3.94,5,27.65,27.65,0,0,0,1.75,2.45,21.18,21.18,0,0,0,2,2.13,22.37,22.37,0,0,0,10.44,5.34,28.5,28.5,0,0,0,6,.72,19.62,19.62,0,0,0,5.93-.74,47.6,47.6,0,0,0,5.69-2.42,34.54,34.54,0,0,0,13.66-12.25c1.17-1.67,2.23-3.4,3.26-5.17s2-3.62,3-5.46a21.88,21.88,0,0,1,1.77-2.73,9,9,0,0,1,2.5-2.32,6.28,6.28,0,0,1,3.29-.88,9.85,9.85,0,0,1,3.18.58Z" transform="translate(0 -69.4)"/><path class="cls-8" d="M197.4,98.4c-2.71-1-3.9-3.42-4.19-6.13-.26-2.45.28-4.4,1.78-7.83C199.1,83.62,204.13,88.85,197.4,98.4Z" transform="translate(0 -69.4)"/><path class="cls-7" d="M197,99.23c.18-1.13.37-2.21.48-3.28a19,19,0,0,0,.1-3.19,17.79,17.79,0,0,0-1.5-6.26,7.53,7.53,0,0,1,2,2.79,9.7,9.7,0,0,1,.79,3.4A10.46,10.46,0,0,1,197,99.23Z" transform="translate(0 -69.4)"/><path class="cls-9" d="M201.45,105.65c-3.65-1.76-7.81-1.51-11.51-.36-3.36,1-5.37,2.47-8.41,5.47C184.13,114.59,195.25,116.1,201.45,105.65Z" transform="translate(0 -69.4)"/><g class="cls-10"><path class="cls-11" d="M201.45,105.71a21.56,21.56,0,0,1-7.76,4.21,19.65,19.65,0,0,1-8.81.64l4.28-.84c1.4-.3,2.79-.64,4.15-1.06s2.71-.88,4.06-1.38S200.05,106.21,201.45,105.71Z" transform="translate(0 -69.4)"/></g><path class="cls-9" d="M243.44,101.8c-3.39,2.21-5.33,5.91-6.27,9.67-.86,3.4-.66,5.87.33,10C242.12,121.25,249.17,112.52,243.44,101.8Z" transform="translate(0 -69.4)"/><g class="cls-10"><path class="cls-11" d="M243.49,101.83a21.75,21.75,0,0,1-.41,8.83,19.8,19.8,0,0,1-4,7.86l1.5-4.1c.47-1.35.9-2.71,1.25-4.09s.64-2.78.91-4.19S243.19,103.29,243.49,101.83Z" transform="translate(0 -69.4)"/></g><path class="cls-9" d="M194.94,97.49a9.75,9.75,0,0,0-6.71-2.26A11.62,11.62,0,0,0,182.31,97C183.16,99.68,189.44,102.54,194.94,97.49Z" transform="translate(0 -69.4)"/><g class="cls-10"><path class="cls-11" d="M194.93,97.52a10.75,10.75,0,0,1-5.32,1.36,9.93,9.93,0,0,1-5.29-1.44c.93,0,1.82,0,2.69.07s1.74.07,2.6.06,1.73,0,2.61,0S194,97.47,194.93,97.52Z" transform="translate(0 -69.4)"/></g><path class="cls-8" d="M226.36,113.24c-4.21.26-8.05,2.59-11.07,5.49-2.74,2.63-4,5-5.63,9.19C213.75,130.07,224.93,125.82,226.36,113.24Z" transform="translate(0 -69.4)"/><path class="cls-7" d="M226.73,112.2a15.41,15.41,0,0,1-1.92,4.66,21.26,21.26,0,0,1-3.17,4,22.26,22.26,0,0,1-4,3.1,19.07,19.07,0,0,1-4.59,2,55.57,55.57,0,0,0,7.68-6.09A36.32,36.32,0,0,0,226.73,112.2Z" transform="translate(0 -69.4)"/><path class="cls-8" d="M248.26,91.79a22.16,22.16,0,0,1-13.37,6.49c-4.08.48-6.65-.25-10.67-2.35C226.64,89.85,239.37,82.15,248.26,91.79Z" transform="translate(0 -69.4)"/><path class="cls-7" d="M249.23,92.33a23.41,23.41,0,0,0-10.46-.79,54.08,54.08,0,0,0-10.31,2.65,22.23,22.23,0,0,1,4.81-2.57,23.24,23.24,0,0,1,5.33-1.39,18.64,18.64,0,0,1,5.53.09A12.87,12.87,0,0,1,249.23,92.33Z" transform="translate(0 -69.4)"/><path class="cls-9" d="M220.19,112.12a13.76,13.76,0,0,1-8.79-4.91c-2-2.27-2.83-4.23-3.68-7.81C211.5,97.74,220.54,101.61,220.19,112.12Z" transform="translate(0 -69.4)"/><g class="cls-10"><path class="cls-11" d="M220.22,112.07c-.84-1-1.59-2-2.36-3s-1.55-1.92-2.38-2.83-1.69-1.78-2.59-2.64l-2.76-2.58a16.11,16.11,0,0,1,6.32,4.34A17.47,17.47,0,0,1,220.22,112.07Z" transform="translate(0 -69.4)"/></g><path class="cls-20" d="M216.23,163.46c.52,9.63-7.86,18.32-16,18.7a19.41,19.41,0,0,1-11.68-3.1,22.11,22.11,0,0,1-4.55-4,15,15,0,0,1-2.39-4.14c-.56-1.35-1.33-3.09-.56-4.51a2.71,2.71,0,0,1,3.21-1.08c2,.55,2.81,2.12,4,3.82A13.68,13.68,0,0,0,199.49,175a13,13,0,0,0,8.4-3.14c2.94-2.37,4.58-5.72,6.53-9.05C214.91,162,216.18,162.51,216.23,163.46Z" transform="translate(0 -69.4)"/><path class="cls-20" d="M176.07,174.71A5.22,5.22,0,0,0,181.6,176c1.75-.57,4-2,3.94-4.07a.89.89,0,0,0-1.35-.73c-1.22.65-1.81,2-3.14,2.53a8.84,8.84,0,0,1-4.65.39.36.36,0,0,0-.33.62Z" transform="translate(0 -69.4)"/><path class="cls-20" d="M181.18,181.84a7.59,7.59,0,0,0,6.76-2.35c1.39-1.56,2.69-3.38.71-6.59-.44-.71-1.4-.06-1.78.62-.79,1.46-.47,3-1.6,4.42a13.54,13.54,0,0,1-4.18,3.08.43.43,0,0,0,.09.82Z" transform="translate(0 -69.4)"/><path class="cls-4" d="M187.82,173.43a2.39,2.39,0,0,0,.23.22l-.27-.14c.26.09.47.25.72.34s.45.15.63.2c1.12.29.85,2.27-.28,2a2.28,2.28,0,0,1-1.3-.87,3.15,3.15,0,0,1-.54-1.24c-.14-.6.45-.94.81-.49Z" transform="translate(0 -69.4)"/><path class="cls-4" d="M192.65,177a.58.58,0,1,0-.51.71A.62.62,0,0,0,192.65,177Z" transform="translate(0 -69.4)"/><path class="cls-20" d="M265.1,163.46c-.51,9.63,7.87,18.32,16.06,18.7a19.41,19.41,0,0,0,11.68-3.1,22.37,22.37,0,0,0,4.55-4,15,15,0,0,0,2.39-4.14c.56-1.35,1.32-3.09.56-4.51a2.71,2.71,0,0,0-3.21-1.08c-2,.55-2.81,2.12-4,3.82A13.68,13.68,0,0,1,281.85,175a13,13,0,0,1-8.4-3.14c-2.95-2.37-4.58-5.72-6.53-9.05C266.43,162,265.15,162.51,265.1,163.46Z" transform="translate(0 -69.4)"/><path class="cls-20" d="M305.27,174.71a5.23,5.23,0,0,1-5.54,1.26c-1.74-.57-4-2-3.93-4.07a.89.89,0,0,1,1.35-.73c1.22.65,1.81,2,3.14,2.53a8.82,8.82,0,0,0,4.64.39.37.37,0,0,1,.34.62Z" transform="translate(0 -69.4)"/><path class="cls-20" d="M300.16,181.84a7.59,7.59,0,0,1-6.76-2.35c-1.39-1.56-2.69-3.38-.71-6.59.44-.71,1.4-.06,1.78.62.79,1.46.47,3,1.6,4.42a13.54,13.54,0,0,0,4.18,3.08.43.43,0,0,1-.09.82Z" transform="translate(0 -69.4)"/><path class="cls-4" d="M293.52,173.43a2.39,2.39,0,0,1-.23.22l.27-.14c-.26.09-.47.25-.72.34s-.45.15-.63.2c-1.12.29-.85,2.27.28,2a2.28,2.28,0,0,0,1.3-.87,3.15,3.15,0,0,0,.54-1.24c.14-.6-.45-.94-.81-.49Z" transform="translate(0 -69.4)"/><path class="cls-4" d="M288.69,177a.61.61,0,0,1,.64-.59.66.66,0,0,1-.13,1.3A.62.62,0,0,1,288.69,177Z" transform="translate(0 -69.4)"/><path class="cls-21" d="M310.14,199a10.1,10.1,0,1,1-6-13A10.1,10.1,0,0,1,310.14,199Z" transform="translate(0 -69.4)"/><circle class="cls-21" cx="180.45" cy="195.54" r="10.09" transform="translate(-85.26 112.13) rotate(-44.28)"/><path class="cls-22" d="M208,197.57c5,19,47.61,36.7,69.19,0" transform="translate(0 -69.4)"/><path class="cls-20" d="M211.43,193.15a4.25,4.25,0,0,1,.15,3.56,4.7,4.7,0,0,1-3,2.72,5.54,5.54,0,0,1-3.78-.3,7.17,7.17,0,0,1-1.44-1,6.31,6.31,0,0,1-1.07-1.41,10.37,10.37,0,0,1,1.68-.25c.51-.06,1-.12,1.42-.13a16.18,16.18,0,0,0,2.12-.37,5.71,5.71,0,0,0,1.68-.84A21.65,21.65,0,0,0,211.43,193.15Z" transform="translate(0 -69.4)"/><path class="cls-20" d="M273.78,193.15a21.7,21.7,0,0,0,2.19,2,5.71,5.71,0,0,0,1.68.84,16.49,16.49,0,0,0,2.12.37c.44,0,.91.07,1.42.13a10.37,10.37,0,0,1,1.68.25,6,6,0,0,1-1.07,1.41,6.9,6.9,0,0,1-1.44,1,5.51,5.51,0,0,1-3.77.3,4.74,4.74,0,0,1-3-2.72A4.22,4.22,0,0,1,273.78,193.15Z" transform="translate(0 -69.4)"/><path class="cls-7" d="M312,285.94c-2.08-.1-4.19.17-5.57,1.43a14,14,0,0,0-3.07,5c-1.6,3.78-3.29,7.81-5.93,11.22a46.26,46.26,0,0,1-9.29,8.73c-1.69,1.26-3.43,2.45-5.2,3.59s-3.54,2.24-5.51,3.21a23.77,23.77,0,0,1-12.83,1.43,24.82,24.82,0,0,1-12-5.13,19,19,0,0,1-2.42-2.32c-.75-.82-1.41-1.76-2-2.56q-1.78-2.55-3.67-4.94a27.2,27.2,0,0,0-4.17-4.33c-1.52-1.2-3.39-2.14-5.41-1.5l-.11-.24a4.84,4.84,0,0,1,3.22-.71,8.62,8.62,0,0,1,3.19,1.08,22.36,22.36,0,0,1,5.09,4.09,55.43,55.43,0,0,1,4.13,4.87,28.51,28.51,0,0,0,1.84,2.38,20.21,20.21,0,0,0,2.09,2.05A22.38,22.38,0,0,0,265,318.19a28.56,28.56,0,0,0,6,.48,19.43,19.43,0,0,0,5.89-1,48.82,48.82,0,0,0,5.59-2.63,34.66,34.66,0,0,0,13.19-12.77c1.1-1.71,2.09-3.49,3.05-5.3s1.82-3.69,2.82-5.57a21.31,21.31,0,0,1,1.67-2.8,8.74,8.74,0,0,1,2.4-2.41,6.24,6.24,0,0,1,3.25-1,10,10,0,0,1,3.2.46Z" transform="translate(0 -69.4)"/><path class="cls-8" d="M247.36,305.9c-2.75-.87-4-3.26-4.43-5.95-.35-2.45.11-4.41,1.48-7.9C248.48,291.07,253.71,296.1,247.36,305.9Z" transform="translate(0 -69.4)"/><path class="cls-7" d="M247,306.76c.13-1.14.28-2.23.35-3.31a18.87,18.87,0,0,0,0-3.19,17.73,17.73,0,0,0-1.74-6.19,7.53,7.53,0,0,1,2.13,2.7,9.66,9.66,0,0,1,.92,3.38A10.47,10.47,0,0,1,247,306.76Z" transform="translate(0 -69.4)"/><path class="cls-9" d="M251.68,313c-3.71-1.61-7.86-1.2-11.52.09-3.31,1.16-5.26,2.68-8.18,5.79C234.72,322.59,245.89,323.68,251.68,313Z" transform="translate(0 -69.4)"/><g class="cls-10"><path class="cls-11" d="M251.68,313.06a21.72,21.72,0,0,1-7.59,4.51,19.73,19.73,0,0,1-8.78,1l4.25-1c1.39-.36,2.76-.74,4.1-1.22s2.68-1,4-1.54S250.31,313.61,251.68,313.06Z" transform="translate(0 -69.4)"/></g><path class="cls-9" d="M293.49,307.53c-3.3,2.34-5.1,6.11-5.89,9.9-.73,3.44-.44,5.89.71,10C292.92,327,299.63,318,293.49,307.53Z" transform="translate(0 -69.4)"/><g class="cls-10"><path class="cls-11" d="M293.54,307.57a21.54,21.54,0,0,1-.07,8.83,19.74,19.74,0,0,1-3.71,8l1.34-4.15c.41-1.38.8-2.75,1.09-4.14s.54-2.8.75-4.23S293.3,309,293.54,307.57Z" transform="translate(0 -69.4)"/></g><path class="cls-9" d="M244.86,305.09a9.69,9.69,0,0,0-6.79-2,11.56,11.56,0,0,0-5.85,1.95C233.18,307.73,239.56,310.35,244.86,305.09Z" transform="translate(0 -69.4)"/><g class="cls-10"><path class="cls-11" d="M244.85,305.13a10.82,10.82,0,0,1-5.26,1.56,9.93,9.93,0,0,1-5.34-1.24c.93-.05,1.82,0,2.69,0s1.74,0,2.6,0,1.73-.09,2.61-.14S243.91,305.11,244.85,305.13Z" transform="translate(0 -69.4)"/></g><path class="cls-8" d="M276.86,319.62c-4.19.42-7.94,2.9-10.84,5.92-2.64,2.73-3.84,5.09-5.27,9.39C264.92,336.92,275.92,332.24,276.86,319.62Z" transform="translate(0 -69.4)"/><path class="cls-7" d="M277.2,318.57a15.35,15.35,0,0,1-1.75,4.73,20.07,20.07,0,0,1-3,4.09,22.3,22.3,0,0,1-3.88,3.25,19.21,19.21,0,0,1-4.52,2.23,54.83,54.83,0,0,0,7.45-6.39A36.62,36.62,0,0,0,277.2,318.57Z" transform="translate(0 -69.4)"/><path class="cls-8" d="M297.93,297.35a22.17,22.17,0,0,1-13.12,7c-4.06.64-6.65,0-10.75-1.93C276.25,296.24,288.67,288.06,297.93,297.35Z" transform="translate(0 -69.4)"/><path class="cls-7" d="M298.91,297.84a23.39,23.39,0,0,0-10.48-.38,54.08,54.08,0,0,0-10.2,3.05,21.78,21.78,0,0,1,4.71-2.76,22.91,22.91,0,0,1,5.27-1.59,18.31,18.31,0,0,1,5.53-.13A12.84,12.84,0,0,1,298.91,297.84Z" transform="translate(0 -69.4)"/><path class="cls-9" d="M270.66,318.74a13.8,13.8,0,0,1-9-4.56c-2.1-2.2-3-4.13-4-7.67C261.41,304.71,270.6,308.23,270.66,318.74Z" transform="translate(0 -69.4)"/><g class="cls-10"><path class="cls-11" d="M270.68,318.69c-.87-.95-1.66-1.93-2.47-2.88s-1.62-1.86-2.49-2.73-1.76-1.71-2.68-2.54l-2.86-2.47a16.11,16.11,0,0,1,6.48,4.09A17.43,17.43,0,0,1,270.68,318.69Z" transform="translate(0 -69.4)"/></g><path class="cls-7" d="M330.6,124.76c.46,2.5,2.51,4.25,4.76,5.19,2.82,1.17,5.95,1.17,8.8,2.26a15.12,15.12,0,0,1,9.5,12.1,14.83,14.83,0,0,1-2,9.45.77.77,0,0,0,0,.86.41.41,0,0,0,.65-.09,16,16,0,0,0-5.1-22.15,15.64,15.64,0,0,0-3.62-1.67c-1.6-.5-3.26-.73-4.89-1.08-2.91-.61-6.55-2-7.15-5.32-.14-.79-1-.17-.9.45Z" transform="translate(0 -69.4)"/><path class="cls-7" d="M360,212.55a12.82,12.82,0,0,1-4-6.29,11.67,11.67,0,0,1,.86-7.55,42.71,42.71,0,0,1,3.9-6.37,26.07,26.07,0,0,0,3.4-6.48,9.64,9.64,0,0,0-.21-6.92,12.67,12.67,0,0,0-.83-1.54c-.31-.48-.69-1-1-1.53a13,13,0,0,1-1.63-3.52,9,9,0,0,1,1-7.61,8.8,8.8,0,0,1,6.46-3.75l0,.13a11.63,11.63,0,0,0-3.23,1.61,8.63,8.63,0,0,0-2.31,2.59,8.77,8.77,0,0,0-.61,6.65,13.57,13.57,0,0,0,1.37,3.22c.29.51.63,1,1,1.57a10.42,10.42,0,0,1,.84,1.75,9.19,9.19,0,0,1,.57,3.84,12.37,12.37,0,0,1-.88,3.69,55.75,55.75,0,0,1-3.48,6.58,52.49,52.49,0,0,0-3.27,6.54,12.27,12.27,0,0,0-1,6.89,15.24,15.24,0,0,0,3.16,6.41Z" transform="translate(0 -69.4)"/><path class="cls-8" d="M360.19,170.18a13.39,13.39,0,0,0-1.26-10.59c-1.52-2.89-3.25-4.47-6.69-6.74C348.75,155.88,348.8,166.3,360.19,170.18Z" transform="translate(0 -69.4)"/><path class="cls-7" d="M361.05,170.72a14.53,14.53,0,0,1-3.43-2.67,17.88,17.88,0,0,1-2.57-3.54,18.92,18.92,0,0,1-1.6-4.07,17,17,0,0,1-.58-4.3,31.55,31.55,0,0,0,1.07,4.15,21.78,21.78,0,0,0,1.69,3.9,20.28,20.28,0,0,0,2.37,3.52A22.85,22.85,0,0,0,361.05,170.72Z" transform="translate(0 -69.4)"/><path class="cls-9" d="M365,183.88c4,.78,7.48-1,10.23-3.74,2.5-2.46,3.64-4.91,5-9.59C376.37,166.9,366,169.12,365,183.88Z" transform="translate(0 -69.4)"/><g class="cls-10"><path class="cls-11" d="M365,183.8a20.58,20.58,0,0,1,4.75-7.44,16.2,16.2,0,0,1,7.67-4.36c-1.22.83-2.41,1.64-3.54,2.51a35.49,35.49,0,0,0-3.19,2.8c-1,1-2,2.05-2.89,3.14S366,182.69,365,183.8Z" transform="translate(0 -69.4)"/></g><path class="cls-9" d="M358.19,197.1c1.58-4.31.16-8.6-2.4-12.18-2.32-3.24-4.88-4.95-9.9-7.33C341.09,181.35,341.76,193.41,358.19,197.1Z" transform="translate(0 -69.4)"/><g class="cls-10"><path class="cls-11" d="M358.1,197.11a24.52,24.52,0,0,1-7.46-6.71A20.92,20.92,0,0,1,348.2,186a17.82,17.82,0,0,1-1.19-4.9c.69,1.54,1.37,3,2.14,4.46a37.25,37.25,0,0,0,2.58,4.11,47.4,47.4,0,0,0,3,3.8C355.86,194.65,357,195.84,358.1,197.11Z" transform="translate(0 -69.4)"/></g><path class="cls-8" d="M349.41,135.06c2.81-2.63,3.82-6.35,3.83-10,0-3.26-.78-5.48-2.76-9.09C346,117.07,341.15,126.3,349.41,135.06Z" transform="translate(0 -69.4)"/><path class="cls-7" d="M349.91,135.94a14.21,14.21,0,0,1-1.78-4,18,18,0,0,1-.62-4.33,19.13,19.13,0,0,1,.49-4.34,17.66,17.66,0,0,1,1.5-4.08,32.15,32.15,0,0,0-1,4.18,23.12,23.12,0,0,0-.32,4.23,20,20,0,0,0,.45,4.22A23.32,23.32,0,0,0,349.91,135.94Z" transform="translate(0 -69.4)"/><path class="cls-9" d="M353.73,143.5a10.67,10.67,0,0,1-8.51-.2c-2.41-1-3.8-2.25-5.86-4.81C341.5,135.49,349.79,134.74,353.73,143.5Z" transform="translate(0 -69.4)"/><path class="cls-7" d="M354.22,144.14A18.22,18.22,0,0,0,351.6,142a17.81,17.81,0,0,0-3-1.62,20,20,0,0,0-3.23-1.05,25.05,25.05,0,0,0-3.38-.53,13.39,13.39,0,0,1,3.46.13,14.65,14.65,0,0,1,3.36,1A12.43,12.43,0,0,1,354.22,144.14Z" transform="translate(0 -69.4)"/><path class="cls-23" d="M202.52,353.13c.28-2.08,2.73-3.51,5.1-3.68a18.83,18.83,0,0,1,6.94,1.31,15.59,15.59,0,0,0,7,1c2.84-.44,5.31-2.35,8.19-2.22,2.66.12,5.24,2,7.73,1.17,1.43-.46,2.33-1.69,3.53-2.5,2-1.35,4.77-1.5,7.26-1.1s4.84,1.27,7.31,1.77c5.25,1.07,10.87.43,16,1.89a9.6,9.6,0,0,1,4.38,2.35,3.86,3.86,0,0,1,1,4.25c-1.09,2.29-4.47,2.78-7.29,2.94L246,361.68c-13.55.77-27.88,1.41-39.92-4.09Z" transform="translate(0 -69.4)"/><path class="cls-24" d="M280.66,349.42l-12.53,62.81c-.63,3.18-3.56,4.52-6.66,5.47-12.18,3.68-31.05,3.42-44.28,0-3.14-.82-6-2.29-6.66-5.47l-12.6-63.15h.26c0,3.34,18.48,6,41.26,6C261.46,355.12,279.44,352.6,280.66,349.42Z" transform="translate(0 -69.4)"/><g class="cls-25"><path class="cls-26" d="M279,357.73a142.09,142.09,0,0,1-28.15,18c-2.85,1.38-5.88,2.77-7.73,5.34s-1.92,6.73.73,8.45c1.12.73,2.8,1.26,2.79,2.59a2.46,2.46,0,0,1-.76,1.56c-2.8,3.2-7,4.73-10.3,7.45s-5.36,8-2.49,11.11a12.47,12.47,0,0,0,4.68,3.28c2.34.89,2.86,4.82,3.77,4.82,12.4,0,19.93-2.66,19.93-2.66a6.78,6.78,0,0,0,6.66-5.46Z" transform="translate(0 -69.4)"/></g></g><path class="cls-4" d="M486,311.58v-.09c0-9,7-16,16.59-16a18,18,0,0,1,12.5,4.49l-5,6a10.9,10.9,0,0,0-7.44-2.9c-4.44,0-7.88,3.74-7.88,8.45v.09a8.13,8.13,0,0,0,8.36,8.53,8.74,8.74,0,0,0,4.93-1.27v-3.74h-6.07V308.9H516.1v13.86a20.81,20.81,0,0,1-13.38,4.75C493.13,327.51,486,320.91,486,311.58Z" transform="translate(0 -69.4)"/><path class="cls-4" d="M520.85,296.09h24.77v7.26H529.3V308h14.78v6.73H529.3v4.89h16.54v7.26h-25Z" transform="translate(0 -69.4)"/><path class="cls-4" d="M547.86,322.32l4.76-5.68a15.85,15.85,0,0,0,10,3.7c2.28,0,3.52-.79,3.52-2.11v-.09c0-1.28-1-2-5.2-2.95-6.55-1.49-11.61-3.34-11.61-9.68v-.09c0-5.72,4.53-9.86,11.92-9.86a19.38,19.38,0,0,1,12.68,4.1l-4.27,6a15.48,15.48,0,0,0-8.63-3c-2.07,0-3.08.88-3.08,2v.09c0,1.41,1.06,2,5.33,3,7.08,1.54,11.48,3.83,11.48,9.59v.09c0,6.29-5,10-12.45,10A21.53,21.53,0,0,1,547.86,322.32Z" transform="translate(0 -69.4)"/><path class="cls-4" d="M585.53,303.57h-9.24v-7.48h27v7.48h-9.24V326.9h-8.54Z" transform="translate(0 -69.4)"/><path class="cls-4" d="M607.22,296.09h8.58V326.9h-8.58Z" transform="translate(0 -69.4)"/><path class="cls-4" d="M620.37,311.58v-.09c0-8.84,7.13-16,16.64-16s16.55,7.08,16.55,15.93v.08c0,8.85-7.13,16-16.64,16S620.37,320.43,620.37,311.58Zm24.47,0v-.09a8,8,0,0,0-7.92-8.31c-4.66,0-7.79,3.78-7.79,8.23v.08c0,4.45,3.21,8.32,7.88,8.32S644.84,316,644.84,311.58Zm-6.29-25.7,7.79,2.51L639.87,294H634Z" transform="translate(0 -69.4)"/><path class="cls-4" d="M658,296.09h8l12.67,16.28V296.09h8.45V326.9H679.6L666.44,310v16.9H658Z" transform="translate(0 -69.4)"/><path class="cls-4" d="M709.17,303.84,704,305l-1.63-6.6,9-2.56h6.2v31h-8.4Z" transform="translate(0 -69.4)"/><path class="cls-4" d="M738.38,291.78h6.78l-19.49,40.75h-6.78Z" transform="translate(0 -69.4)"/><path class="cls-4" d="M744.67,320.47l11.53-8.8c2.86-2.24,4-3.7,4-5.54S758.8,303,756.73,303s-3.7,1.19-6.12,4l-5.76-4.79c3.3-4.27,6.56-6.61,12.54-6.61,6.73,0,11.35,4,11.35,9.82v.09c0,4.93-2.55,7.48-7.12,10.78l-5.28,3.69h12.71v7H744.67Z" transform="translate(0 -69.4)"/><path class="cls-4" d="M771.47,322.06l5.37-5.37c2.2,2.24,4.53,3.52,7.35,3.52,2.42,0,4-1.23,4-3.13V317c0-2-1.81-3.17-5-3.17h-3.61l-1.23-4.45,7.09-6.38h-11.8v-6.91h22.27v6.12l-7.35,6.29c4.4,1,8,3.44,8,8.67v.09c0,6.25-5,10.25-11.89,10.25C778.64,327.51,774.46,325.36,771.47,322.06Z" transform="translate(0 -69.4)"/></g></g></g></svg>