<svg id="Capa_1" data-name="Capa 1" xmlns="http://www.w3.org/2000/svg" viewBox="0 0 300 300"><defs><style>.cls-1{fill:none;}.cls-1,.cls-2{stroke:#fff;stroke-miterlimit:10;stroke-width:3.91px;}.cls-2{fill:#35b2e6;}.cls-3{fill:#fff;fill-rule:evenodd;}</style></defs><path class="cls-1" d="M150,297.67c-194.11-3.32-194.08-292,0-295.34C344.11,5.65,344.08,294.38,150,297.67Z"/><path class="cls-2" d="M264.39,150c-2.57,150.37-226.24,150.35-228.78,0C38.18-.37,261.85-.35,264.39,150"/><path class="cls-3" d="M209.08,75.19c-1.09,22.08-2.33,43.71-3.56,65.73a2.75,2.75,0,0,0,1.2,2.64c9.62,8.14,20.28,15.38,29.31,24.05l-27.37-8.35L183.4,208c-6.85-3.31-13-9.36-20.36-10.85-28.1,4.61-56.24,8.38-84.23,13.59l38.33-40.17q-25.38-29.73-50.65-59.3l.26-.3L138,165.67c1.61-1.44,4.1-2.37,4.23-4.79.76-7.59,1.44-15.18,2.22-22.76,19.75-22.1,43.4-41.83,64.65-62.93m-38.84,85Q188,120.37,205.65,80.94c-20.13,17.81-39.14,37.43-58.87,55.87-2.68,7.63-1.76,16-3.07,24.23,16.09-11.8,9.66-12.82,26.53-.87m37-78.1-.45,0q-17.64,39.45-35.31,79l10.63,7.5c7.2-8.07,12-18,21-24.21a2.68,2.68,0,0,0,.84-1.89c1.24-20.12,2.3-40.26,3.34-60.39M159.48,181.3c-8.17-3.28-15.17-8-23.12-10-6.1.63-13.31-1.5-18.87,1.13-11.07,11.73-22.49,23-33.26,35l75.25-26.18m18.25,8.23c-6.15-2.07-11.56-6.76-17.68-6.83-22.88,8-45.91,15.69-68.67,24,24.06-3,47.83-7.67,71.84-11,5.44-.79,9.83-3.2,14.51-6.19m-41-23L77.26,120.92c12.41,16.47,27.18,31.88,40.42,48,3.34,2.11,8,.21,11.8,1,3.16.3,5.13-1.31,7.21-3.36m61.69-15.38-.52-.14c-33,43.77-21.38,15-14.65,52.7,5.14-17.51,11.51-34.72,15.17-52.56m-35.73,30L156.46,153l-20.57,16.27c9.23,3.51,17.48,7.7,26.76,11.87m66.27-17.24.25-.38-23.6-19c-3.57,2.06-6.61,4.05-6.07,8.68.06,1.31.32,1.85,1.54,2.21,9.31,2.77,18.59,5.66,27.88,8.46m-29.81-7.52c-4.15,13.78-8.23,27.35-12.31,40.92l.41.16c6.63-12.81,13.27-25.62,20-38.61l-8.1-2.47m-17.94,13.38-21-14.88-.26.3c4.66,7.82,9.31,15.65,14.11,23.69l7.17-9.11m-4.32,17.76.37-.34-18-30.17c1.4,8.11,3.13,16.07,4.9,24,3.08,3.33,8.72,4.17,12.7,6.5M167.67,197l14.36,8.5L179,190.78c-3.83,2.09-7.51,4.1-11.31,6.19"/></svg>