<svg id="Capa_1" data-name="Capa 1" xmlns="http://www.w3.org/2000/svg" viewBox="0 0 606.92 123.09"><defs><style>.cls-1{fill:#fff;}</style></defs><path class="cls-1" d="M323.65,63.48a34.88,34.88,0,0,1-.34,5c9-13.5,8.57-25.48.21-35.41.08,1,.13,2.05.13,3.11Z"/><path class="cls-1" d="M295.34,5.18c-9.21-6.86-20.19-7.1-32.45.45A73.92,73.92,0,0,1,280.21,3.8a75.68,75.68,0,0,1,15.13,1.38"/><path class="cls-1" d="M236.45,36.16a35.38,35.38,0,0,1,.34-4.91c-8.92,13.55-8.45,25.52-.2,35.33-.09-1-.14-2-.14-3.1Z"/><path class="cls-1" d="M264.73,94.44c9.2,6.9,20.08,7.15,32.31-.34a73.67,73.67,0,0,1-16.83,1.74,78,78,0,0,1-15.48-1.4"/><path class="cls-1" d="M320.5,33.05c-1.1-12.82-9.29-21.62-25.17-24.86A75.46,75.46,0,0,0,280.21,6.8a73.89,73.89,0,0,0-17.32,1.84C248.94,12,241.43,19.94,239.8,31.25a35.38,35.38,0,0,0-.34,4.91V63.48c0,1.06,0,2.09.14,3.1,1.1,12.87,9.23,21.61,25.14,24.85a77.9,77.9,0,0,0,15.47,1.4,73.89,73.89,0,0,0,16.84-1.74c14-3.3,21.6-11.19,23.25-22.63a35,35,0,0,0,.34-5V36.16c0-1.06-.05-2.1-.14-3.11M304.62,56.48c-3.91,2.63-15.53,2.23-15.66,2.22h0s-.63,11.56-.38,15.41c0,.6.38,2.39.38,2.39s-12.25,2.8-15.57-2.13c-2.62-3.88-2.24-15.38-2.23-15.66h0s-11.55-.63-15.39-.38c-.61,0-2.4.38-2.4.38s-2.8-12.23,2.13-15.57c3.9-2.62,15.48-2.24,15.65-2.22v0s.64-11.55.38-15.38c0-.62-.38-2.41-.38-2.41s12.25-2.8,15.58,2.14c2.62,3.88,2.23,15.39,2.22,15.65,0,0,11.56.63,15.4.37.6,0,2.4-.37,2.4-.37s2.8,12.24-2.13,15.57"/><path class="cls-1" d="M37.76,35A12.24,12.24,0,0,0,35.06,32a12.44,12.44,0,0,0-3.67-2,12.6,12.6,0,0,0-4.29-.74,14.18,14.18,0,0,0-6.94,1.59A13,13,0,0,0,15.53,35a18.46,18.46,0,0,0-2.59,6.06,30.1,30.1,0,0,0-.81,7,28.11,28.11,0,0,0,.81,6.76,18.12,18.12,0,0,0,2.59,5.91A13.22,13.22,0,0,0,20.16,65a14.18,14.18,0,0,0,6.94,1.58q5.56,0,8.69-3.4a15.57,15.57,0,0,0,3.82-9H51.34A27.72,27.72,0,0,1,49,63.57a22.44,22.44,0,0,1-5.09,7.1,21.61,21.61,0,0,1-7.41,4.48A27.17,27.17,0,0,1,27.1,76.7a28.26,28.26,0,0,1-11.39-2.21,24.4,24.4,0,0,1-8.53-6.06,27,27,0,0,1-5.33-9.07A33.42,33.42,0,0,1,0,48.12,34.6,34.6,0,0,1,1.85,36.66a27.86,27.86,0,0,1,5.33-9.23,24.56,24.56,0,0,1,8.53-6.18A28.09,28.09,0,0,1,27.1,19a27.61,27.61,0,0,1,8.61,1.31A23.09,23.09,0,0,1,43,24.16a20.77,20.77,0,0,1,5.28,6.2,22.25,22.25,0,0,1,2.63,8.5H39.16A10.16,10.16,0,0,0,37.76,35"/><rect class="cls-1" x="54.9" y="20.32" width="10.96" height="55.13"/><path class="cls-1" d="M69.11,31.06l7.41-10.85H88.64L76.75,31.06Zm11.26,44.4h-11V36h11Z"/><path class="cls-1" d="M95.59,35.54V41.1h.23A12.57,12.57,0,0,1,101.23,36,15.66,15.66,0,0,1,108,34.46a18.77,18.77,0,0,1,7.22,1.19A10.82,10.82,0,0,1,119.68,39,13,13,0,0,1,122,44.15a32,32,0,0,1,.66,6.75V75.46h-11V52.91q0-4.94-1.54-7.38c-1-1.61-2.85-2.43-5.48-2.43q-4.47,0-6.48,2.67c-1.34,1.77-2,4.7-2,8.76V75.46h-11V35.54Z"/><path class="cls-1" d="M127.4,20.33h11v9h-11Zm11,55.13h-11V35.54h11Z"/><path class="cls-1" d="M162.21,42.72a7.64,7.64,0,0,0-4.39,1.2A9.27,9.27,0,0,0,154.93,47a13.21,13.21,0,0,0-1.59,4.17,22.66,22.66,0,0,0-.46,4.52,21.58,21.58,0,0,0,.46,4.4,14,14,0,0,0,1.5,4.06,8.89,8.89,0,0,0,2.82,3A7.79,7.79,0,0,0,162,68.27a8,8,0,0,0,6.06-2.19,10.46,10.46,0,0,0,2.66-5.91h10.58q-1.09,8-6.18,12.12c-3.39,2.78-7.75,4.17-13,4.17a22,22,0,0,1-8.23-1.5,18.2,18.2,0,0,1-6.37-4.22,19,19,0,0,1-4.09-6.44,22.35,22.35,0,0,1-1.47-8.23,26.59,26.59,0,0,1,1.35-8.6,19.28,19.28,0,0,1,4-6.87,18.13,18.13,0,0,1,6.41-4.52,21.73,21.73,0,0,1,8.65-1.62,25,25,0,0,1,6.83.92A18.2,18.2,0,0,1,175,38.2a14.6,14.6,0,0,1,6.07,11.39H170.32q-1.08-6.87-8.11-6.87"/><path class="cls-1" d="M185.07,41.41a13.23,13.23,0,0,1,4.32-4.1,19,19,0,0,1,5.91-2.2,34.11,34.11,0,0,1,6.6-.65,45.22,45.22,0,0,1,6.1.42,18.7,18.7,0,0,1,5.64,1.66A11.19,11.19,0,0,1,217.81,40a9.65,9.65,0,0,1,1.62,5.84V66.58a41.2,41.2,0,0,0,.31,5.18,9.39,9.39,0,0,0,1.07,3.7H209.7a17.52,17.52,0,0,1-.5-1.89,18,18,0,0,1-.28-2,14.2,14.2,0,0,1-6.17,3.78,24.84,24.84,0,0,1-7.26,1.08,19.67,19.67,0,0,1-5.32-.69,12.41,12.41,0,0,1-4.33-2.16A10,10,0,0,1,183,69.9a12.49,12.49,0,0,1-1-5.33A11.69,11.69,0,0,1,183.1,59a10,10,0,0,1,3.1-3.52,13.83,13.83,0,0,1,4.31-2,46.44,46.44,0,0,1,4.9-1c1.65-.26,3.28-.47,4.87-.62a28.61,28.61,0,0,0,4.25-.69,7.46,7.46,0,0,0,2.93-1.35,3,3,0,0,0,1-2.59,5.87,5.87,0,0,0-.58-2.82,4.17,4.17,0,0,0-1.55-1.62,6,6,0,0,0-2.23-.77,17.1,17.1,0,0,0-2.75-.2,8.34,8.34,0,0,0-5.09,1.39,6.18,6.18,0,0,0-2.16,4.64h-11a12.68,12.68,0,0,1,1.93-6.41m21.66,15.48a17.87,17.87,0,0,1-2.24.57c-.8.17-1.64.29-2.51.39s-1.75.24-2.63.38a20,20,0,0,0-2.42.63,6.82,6.82,0,0,0-2.09,1,5.14,5.14,0,0,0-1.44,1.66,5.48,5.48,0,0,0-.53,2.55,5.28,5.28,0,0,0,.53,2.47,4.17,4.17,0,0,0,1.48,1.58A5.92,5.92,0,0,0,197,69a13.29,13.29,0,0,0,2.55.23,9.56,9.56,0,0,0,5-1.08,7.24,7.24,0,0,0,2.63-2.58,8.44,8.44,0,0,0,1-3.05,21.19,21.19,0,0,0,.2-2.48V55.92a4.89,4.89,0,0,1-1.74,1"/><path class="cls-1" d="M380.11,71.13q-6.25,5.45-17.3,5.44t-17.33-5.4q-6.14-5.4-6.13-16.68V20.2h12.12V54.49a24.74,24.74,0,0,0,.38,4.4,9,9,0,0,0,1.62,3.82,8.87,8.87,0,0,0,3.43,2.7,14,14,0,0,0,5.91,1c4.33,0,7.31-1,9-2.89s2.47-5,2.47-9.07V20.2h12.12V54.49q0,11.19-6.25,16.64"/><path class="cls-1" d="M400.65,35.42V41h.23a12.51,12.51,0,0,1,5.41-5.06,15.48,15.48,0,0,1,6.79-1.58,18.52,18.52,0,0,1,7.21,1.19,10.77,10.77,0,0,1,4.45,3.32A13,13,0,0,1,427,44a32,32,0,0,1,.66,6.76V75.33h-11V52.79c0-3.3-.51-5.75-1.55-7.37S412.3,43,409.68,43c-3,0-5.14.89-6.48,2.67s-2,4.69-2,8.76V75.33h-11V35.42Z"/><path class="cls-1" d="M430.91,20.21h11v9h-11Zm11,55.13h-11V35.42h11Z"/><path class="cls-1" d="M441,42.75V35.42h6.56V32.33a12,12,0,0,1,3.32-8.73q3.32-3.39,10-3.4c1,0,2,.05,2.94.12s1.93.14,2.85.19V28.7a34.48,34.48,0,0,0-4-.23,4.21,4.21,0,0,0-3.2,1,5.13,5.13,0,0,0-1,3.52v2.4H466v7.33h-7.57V75.33h-11V42.75Z"/><path class="cls-1" d="M475.85,35.42v7.41H476a13.26,13.26,0,0,1,2.09-3.44,13.58,13.58,0,0,1,3-2.7A15.28,15.28,0,0,1,484.72,35a13.19,13.19,0,0,1,4-.61,8.44,8.44,0,0,1,2.39.38V44.91c-.52-.1-1.13-.19-1.85-.27s-1.42-.12-2.09-.12a11.66,11.66,0,0,0-5.09,1,8.75,8.75,0,0,0-3.36,2.74,11,11,0,0,0-1.81,4.06,21.44,21.44,0,0,0-.54,5v18h-11V35.42Z"/><path class="cls-1" d="M493.06,41.28a13.3,13.3,0,0,1,4.32-4.09,18.89,18.89,0,0,1,5.91-2.2,33.41,33.41,0,0,1,6.6-.65,45.11,45.11,0,0,1,6.1.42,18.7,18.7,0,0,1,5.64,1.66,11.28,11.28,0,0,1,4.17,3.43,9.63,9.63,0,0,1,1.62,5.83V66.45a41,41,0,0,0,.31,5.18,9.11,9.11,0,0,0,1.08,3.7H517.69a13.34,13.34,0,0,1-.5-1.88,16.36,16.36,0,0,1-.27-2,14.29,14.29,0,0,1-6.18,3.78,24.83,24.83,0,0,1-7.25,1.08,19.3,19.3,0,0,1-5.33-.7,12.15,12.15,0,0,1-4.33-2.16,10,10,0,0,1-2.89-3.71,12.38,12.38,0,0,1-1-5.32,11.74,11.74,0,0,1,1.19-5.6,10,10,0,0,1,3.09-3.51,13.77,13.77,0,0,1,4.32-2,43.75,43.75,0,0,1,4.91-1c1.64-.26,3.27-.47,4.86-.62a31.48,31.48,0,0,0,4.25-.69,7.46,7.46,0,0,0,2.93-1.36,2.94,2.94,0,0,0,1-2.59,5.88,5.88,0,0,0-.58-2.81,4.22,4.22,0,0,0-1.54-1.62,6.14,6.14,0,0,0-2.24-.78,19.76,19.76,0,0,0-2.74-.19,8.3,8.3,0,0,0-5.1,1.39,6.17,6.17,0,0,0-2.16,4.63h-11a12.74,12.74,0,0,1,1.93-6.41m21.66,15.49a17.87,17.87,0,0,1-2.24.57c-.8.16-1.64.29-2.51.39s-1.75.23-2.62.39a20.24,20.24,0,0,0-2.44.61,7.13,7.13,0,0,0-2.08,1.05,4.9,4.9,0,0,0-1.43,1.66,5.33,5.33,0,0,0-.54,2.55,5.09,5.09,0,0,0,.54,2.46A4.1,4.1,0,0,0,502.87,68a6.05,6.05,0,0,0,2.16.8,13.36,13.36,0,0,0,2.55.24,9.66,9.66,0,0,0,5-1.08,7.18,7.18,0,0,0,2.63-2.59,8.14,8.14,0,0,0,1-3,20.89,20.89,0,0,0,.2-2.47V55.8a5.12,5.12,0,0,1-1.74,1"/><path class="cls-1" d="M540.93,35.42V41h.23a12.57,12.57,0,0,1,5.41-5.06,15.52,15.52,0,0,1,6.79-1.58,18.58,18.58,0,0,1,7.22,1.19A10.74,10.74,0,0,1,565,38.85,13,13,0,0,1,567.3,44a32,32,0,0,1,.65,6.76V75.33H557V52.79c0-3.3-.51-5.75-1.55-7.37S552.59,43,550,43q-4.47,0-6.48,2.67t-2,8.76V75.33h-11V35.42Z"/><polygon class="cls-1" points="590.73 43.68 571.51 43.68 571.51 35.42 605.17 35.42 605.17 43.68 584.4 67.08 606.63 67.08 606.63 75.33 569.96 75.33 569.96 67.08 590.73 43.68"/><path class="cls-1" d="M366.56,102a6.7,6.7,0,0,0-4.05-1.15,9.14,9.14,0,0,0-2,.2,5.22,5.22,0,0,0-1.72.66,3.51,3.51,0,0,0-1.2,1.25,3.87,3.87,0,0,0-.45,2,2.5,2.5,0,0,0,.65,1.78,4.94,4.94,0,0,0,1.74,1.12,14.29,14.29,0,0,0,2.45.71c.91.19,1.84.4,2.79.62s1.87.49,2.78.79a9.18,9.18,0,0,1,2.45,1.21,5.53,5.53,0,0,1,2.39,4.87,6.1,6.1,0,0,1-.85,3.27,7.15,7.15,0,0,1-2.19,2.19,9.63,9.63,0,0,1-3,1.24,14.84,14.84,0,0,1-3.29.38,14.11,14.11,0,0,1-3.79-.5,9.55,9.55,0,0,1-3.14-1.52,7.24,7.24,0,0,1-2.13-2.6,8.31,8.31,0,0,1-.79-3.76h3a5.38,5.38,0,0,0,.58,2.59,5.44,5.44,0,0,0,1.53,1.79,6.44,6.44,0,0,0,2.23,1,10.24,10.24,0,0,0,2.6.34,13,13,0,0,0,2.15-.2,6.63,6.63,0,0,0,1.95-.69,3.78,3.78,0,0,0,1.4-1.32,3.88,3.88,0,0,0,.54-2.14,3,3,0,0,0-.66-2,4.7,4.7,0,0,0-1.72-1.25,13.05,13.05,0,0,0-2.45-.78l-2.79-.62c-.95-.21-1.88-.46-2.79-.73a11.53,11.53,0,0,1-2.46-1.1,5.42,5.42,0,0,1-1.73-1.77,5.15,5.15,0,0,1-.65-2.72,6.16,6.16,0,0,1,2.68-5.29,8.83,8.83,0,0,1,2.78-1.27,12,12,0,0,1,3.17-.42,12.68,12.68,0,0,1,3.41.44A7.77,7.77,0,0,1,368.8,100a6.57,6.57,0,0,1,1.87,2.35,8.38,8.38,0,0,1,.74,3.38h-3a5,5,0,0,0-1.86-3.71"/><path class="cls-1" d="M387.37,122.92a2.49,2.49,0,0,1-1.76-.61,2.72,2.72,0,0,1-.65-2,6.72,6.72,0,0,1-2.72,2,9.19,9.19,0,0,1-3.35.61,9.1,9.1,0,0,1-2.2-.25,4.83,4.83,0,0,1-1.82-.84,4,4,0,0,1-1.23-1.5,4.79,4.79,0,0,1-.45-2.21,5,5,0,0,1,.5-2.41A4.27,4.27,0,0,1,375,114.2a6.1,6.1,0,0,1,1.87-.89,21.68,21.68,0,0,1,2.15-.5c.78-.15,1.53-.27,2.22-.35a13.64,13.64,0,0,0,1.86-.33,3.11,3.11,0,0,0,1.26-.64,1.54,1.54,0,0,0,.47-1.21,2.93,2.93,0,0,0-.35-1.51,2.47,2.47,0,0,0-.9-.86,4,4,0,0,0-1.24-.41,10.2,10.2,0,0,0-1.35-.09,6.08,6.08,0,0,0-3,.67,2.9,2.9,0,0,0-1.3,2.6h-2.83a6.12,6.12,0,0,1,.66-2.71,5.08,5.08,0,0,1,1.6-1.78,6.59,6.59,0,0,1,2.31-1,11.46,11.46,0,0,1,2.72-.3,15.13,15.13,0,0,1,2.33.17,5.73,5.73,0,0,1,2.08.68,4,4,0,0,1,1.51,1.44,4.79,4.79,0,0,1,.55,2.44v8.87a6.21,6.21,0,0,0,.13,1.47c.07.31.34.47.78.47a2.46,2.46,0,0,0,.86-.17v2.2a3.93,3.93,0,0,1-2,.44m-4-8.69c-.58.13-1.19.22-1.83.3s-1.27.16-1.91.26a7.59,7.59,0,0,0-1.74.49,3.14,3.14,0,0,0-1.25,1,2.7,2.7,0,0,0-.49,1.69,2.29,2.29,0,0,0,.29,1.18,2.22,2.22,0,0,0,.74.78,3,3,0,0,0,1.06.44,5.9,5.9,0,0,0,1.25.13,6.66,6.66,0,0,0,2.41-.38,5.07,5.07,0,0,0,1.63-1,3.81,3.81,0,0,0,.93-1.27,3.21,3.21,0,0,0,.3-1.28v-2.9a3.71,3.71,0,0,1-1.39.58"/><rect class="cls-1" x="390.53" y="98.73" width="2.84" height="23.81"/><path class="cls-1" d="M407.71,122.55v-2.73h-.06a5.85,5.85,0,0,1-2.3,2.35,6.94,6.94,0,0,1-3.31.75,7.66,7.66,0,0,1-2.83-.45,4.41,4.41,0,0,1-1.83-1.28,4.73,4.73,0,0,1-1-2,10.64,10.64,0,0,1-.29-2.55V105.31h2.84V117a3.22,3.22,0,0,0,3.5,3.46,5.78,5.78,0,0,0,2.26-.4,4.26,4.26,0,0,0,1.58-1.14,4.93,4.93,0,0,0,1-1.71,7,7,0,0,0,.32-2.16v-9.73h2.83v17.24Z"/><path class="cls-1" d="M425.57,122.55v-2.34h-.07a4.16,4.16,0,0,1-2.21,2.08,8.64,8.64,0,0,1-3.31.63,7.74,7.74,0,0,1-3.47-.73,7,7,0,0,1-2.47-2,8.29,8.29,0,0,1-1.49-2.86,12.41,12.41,0,0,1,0-6.94,8.12,8.12,0,0,1,1.47-2.85,6.81,6.81,0,0,1,2.46-1.93,7.83,7.83,0,0,1,3.46-.72,9.29,9.29,0,0,1,1.43.12,7.42,7.42,0,0,1,1.53.46,6.55,6.55,0,0,1,1.45.83,4.63,4.63,0,0,1,1.16,1.29h.07V98.74h2.83v23.81Zm-10.2-6.12a6.52,6.52,0,0,0,1,2.06,4.53,4.53,0,0,0,1.67,1.42,4.86,4.86,0,0,0,2.38.54,4.66,4.66,0,0,0,4.08-2,6.42,6.42,0,0,0,.91-2.08,10,10,0,0,0,.28-2.38,9.43,9.43,0,0,0-.3-2.44,6.48,6.48,0,0,0-.94-2.1,5,5,0,0,0-1.69-1.44,5.26,5.26,0,0,0-2.51-.55,4.88,4.88,0,0,0-2.43.57,4.61,4.61,0,0,0-1.61,1.49,6.67,6.67,0,0,0-.86,2.14,11.83,11.83,0,0,0-.27,2.47,8.88,8.88,0,0,0,.32,2.35"/><path class="cls-1" d="M452,122.92a2.5,2.5,0,0,1-1.75-.61,2.72,2.72,0,0,1-.65-2,6.72,6.72,0,0,1-2.72,2,9.19,9.19,0,0,1-3.35.61,9.1,9.1,0,0,1-2.2-.25,4.83,4.83,0,0,1-1.82-.84,3.94,3.94,0,0,1-1.23-1.5,4.91,4.91,0,0,1-.46-2.21,5.16,5.16,0,0,1,.5-2.41,4.4,4.4,0,0,1,1.32-1.51,6,6,0,0,1,1.87-.89c.71-.2,1.42-.37,2.15-.5s1.52-.27,2.23-.35a13.31,13.31,0,0,0,1.84-.33,3.2,3.2,0,0,0,1.28-.64,1.57,1.57,0,0,0,.46-1.21,2.93,2.93,0,0,0-.35-1.51,2.47,2.47,0,0,0-.9-.86,4,4,0,0,0-1.24-.41,10.2,10.2,0,0,0-1.35-.09,6.05,6.05,0,0,0-3,.67,2.92,2.92,0,0,0-1.3,2.6h-2.84a6.12,6.12,0,0,1,.67-2.71,5.08,5.08,0,0,1,1.6-1.78,6.7,6.7,0,0,1,2.3-1,11.63,11.63,0,0,1,2.74-.3,15,15,0,0,1,2.32.17,5.67,5.67,0,0,1,2.08.68,3.84,3.84,0,0,1,1.5,1.44,4.69,4.69,0,0,1,.57,2.44v8.87a6.34,6.34,0,0,0,.12,1.47c.07.31.34.47.78.47a2.6,2.6,0,0,0,.87-.17v2.2a4,4,0,0,1-2,.44m-4-8.69c-.57.13-1.18.22-1.81.3s-1.28.16-1.91.26a7.53,7.53,0,0,0-1.75.49,3.21,3.21,0,0,0-1.25,1,2.69,2.69,0,0,0-.48,1.69,2.22,2.22,0,0,0,1,2,3.22,3.22,0,0,0,1.07.44,5.9,5.9,0,0,0,1.25.13,6.66,6.66,0,0,0,2.41-.38,4.86,4.86,0,0,0,1.63-1,3.68,3.68,0,0,0,.93-1.27,3.23,3.23,0,0,0,.31-1.28v-2.9a3.82,3.82,0,0,1-1.41.58"/><path class="cls-1" d="M469.94,105.31v2.49h-3.45v10.71a3.36,3.36,0,0,0,.09.81.78.78,0,0,0,.33.46,1.21,1.21,0,0,0,.64.22,8.14,8.14,0,0,0,1.08,0h1.31v2.5h-2.16a11.28,11.28,0,0,1-1.9-.14,2.8,2.8,0,0,1-1.27-.56,2.27,2.27,0,0,1-.71-1.13,6.4,6.4,0,0,1-.24-1.93v-11h-2.93v-2.49h2.93v-5.18h2.83v5.18Z"/><path class="cls-1" d="M483,122.55v-2.73H483a5.85,5.85,0,0,1-2.3,2.35,6.91,6.91,0,0,1-3.31.75,7.74,7.74,0,0,1-2.83-.45,4.58,4.58,0,0,1-1.84-1.28,4.83,4.83,0,0,1-1-2,10.15,10.15,0,0,1-.29-2.55V105.31h2.83V117a3.23,3.23,0,0,0,3.51,3.46,5.69,5.69,0,0,0,2.25-.4,4.29,4.29,0,0,0,1.59-1.14,5.1,5.1,0,0,0,.95-1.71,6.75,6.75,0,0,0,.32-2.16v-9.73h2.83v17.24Z"/><path class="cls-1" d="M496.19,107.84a5.82,5.82,0,0,1,1.87-1.76,7.87,7.87,0,0,1,2.55-1,14.51,14.51,0,0,1,2.85-.29,21.55,21.55,0,0,1,2.64.18,7.8,7.8,0,0,1,2.44.72,4.66,4.66,0,0,1,1.8,1.49,4.1,4.1,0,0,1,.7,2.51v9a17.77,17.77,0,0,0,.13,2.24,4.06,4.06,0,0,0,.47,1.6h-4.81a6.86,6.86,0,0,1-.21-.81,8.27,8.27,0,0,1-.12-.85,6.18,6.18,0,0,1-2.66,1.63,10.86,10.86,0,0,1-3.14.47,8.42,8.42,0,0,1-2.3-.3,5.36,5.36,0,0,1-1.88-.94,4.19,4.19,0,0,1-1.24-1.6,5.26,5.26,0,0,1-.46-2.31,4.94,4.94,0,0,1,.52-2.41,4.4,4.4,0,0,1,1.34-1.52,6,6,0,0,1,1.86-.85,19.5,19.5,0,0,1,2.12-.45c.72-.11,1.41-.2,2.11-.27a13.8,13.8,0,0,0,1.83-.29,3.19,3.19,0,0,0,1.27-.59,1.25,1.25,0,0,0,.43-1.11,2.59,2.59,0,0,0-.24-1.22,1.93,1.93,0,0,0-.68-.71,2.59,2.59,0,0,0-1-.33,8.58,8.58,0,0,0-1.18-.09,3.61,3.61,0,0,0-2.2.6,2.75,2.75,0,0,0-.94,2h-4.74a5.63,5.63,0,0,1,.84-2.77m9.36,6.69a8.05,8.05,0,0,1-1,.25c-.34.07-.7.12-1.08.17s-.76.09-1.14.16-.7.17-1.05.27a3.45,3.45,0,0,0-.9.45,1.94,1.94,0,0,0-.61.72,2.14,2.14,0,0,0-.24,1.1,2,2,0,0,0,.24,1.06,1.69,1.69,0,0,0,.63.69,2.7,2.7,0,0,0,.94.35,6.4,6.4,0,0,0,1.09.1,4.19,4.19,0,0,0,2.17-.46,3.16,3.16,0,0,0,1.14-1.13,3.72,3.72,0,0,0,.45-1.31,8.14,8.14,0,0,0,.08-1.07v-1.77a2.09,2.09,0,0,1-.75.42"/><rect class="cls-1" x="513.17" y="98.73" width="4.74" height="23.81"/><path class="cls-1" d="M528.22,108.41a3.33,3.33,0,0,0-1.91.52,4.12,4.12,0,0,0-1.25,1.34,5.57,5.57,0,0,0-.67,1.79,9.38,9.38,0,0,0-.21,2,9,9,0,0,0,.21,1.91,6.19,6.19,0,0,0,.64,1.75,3.73,3.73,0,0,0,1.22,1.28,3.41,3.41,0,0,0,1.87.5,3.45,3.45,0,0,0,2.62-1,4.51,4.51,0,0,0,1.15-2.55h4.57a7.85,7.85,0,0,1-2.67,5.24,8.61,8.61,0,0,1-5.64,1.8,9.22,9.22,0,0,1-3.54-.66,7.67,7.67,0,0,1-2.76-1.81,8.21,8.21,0,0,1-1.77-2.79,9.7,9.7,0,0,1-.63-3.55,11.51,11.51,0,0,1,.58-3.72,8.26,8.26,0,0,1,1.72-3,7.68,7.68,0,0,1,2.77-1.95,9.47,9.47,0,0,1,3.73-.7,10.42,10.42,0,0,1,3,.4,7.82,7.82,0,0,1,2.53,1.22,6.5,6.5,0,0,1,1.82,2,6.34,6.34,0,0,1,.8,2.87h-4.64a3.17,3.17,0,0,0-3.5-3"/><path class="cls-1" d="M538.1,107.84a5.69,5.69,0,0,1,1.86-1.76,7.84,7.84,0,0,1,2.56-1,14.35,14.35,0,0,1,2.85-.29A21.55,21.55,0,0,1,548,105a7.82,7.82,0,0,1,2.43.72,4.66,4.66,0,0,1,1.8,1.49,4.1,4.1,0,0,1,.7,2.51v9a19.86,19.86,0,0,0,.13,2.24,4,4,0,0,0,.48,1.6h-4.81a6.87,6.87,0,0,1-.22-.81,8.24,8.24,0,0,1-.11-.85,6.34,6.34,0,0,1-2.67,1.63,10.79,10.79,0,0,1-3.13.47,8.49,8.49,0,0,1-2.31-.3,5.23,5.23,0,0,1-1.87-.94,4.12,4.12,0,0,1-1.25-1.6,5.41,5.41,0,0,1-.45-2.31,4.94,4.94,0,0,1,.52-2.41,4.27,4.27,0,0,1,1.33-1.52,5.87,5.87,0,0,1,1.86-.85,20.2,20.2,0,0,1,2.13-.45q1.06-.17,2.1-.27a13.54,13.54,0,0,0,1.83-.29,3.19,3.19,0,0,0,1.27-.59,1.28,1.28,0,0,0,.44-1.11,2.46,2.46,0,0,0-.26-1.22,1.76,1.76,0,0,0-.67-.71,2.6,2.6,0,0,0-1-.33,8.73,8.73,0,0,0-1.19-.09,3.61,3.61,0,0,0-2.2.6,2.78,2.78,0,0,0-.93,2h-4.74a5.34,5.34,0,0,1,.84-2.77m9.35,6.69a7.59,7.59,0,0,1-1,.25c-.33.07-.7.12-1.08.17s-.76.09-1.13.16-.71.17-1,.27a3.16,3.16,0,0,0-.9.45,2.07,2.07,0,0,0-.62.72,2.36,2.36,0,0,0-.23,1.1,2.25,2.25,0,0,0,.23,1.06,1.65,1.65,0,0,0,.64.69,2.65,2.65,0,0,0,.93.35,6.52,6.52,0,0,0,1.1.1,4.18,4.18,0,0,0,2.16-.46,3.16,3.16,0,0,0,1.14-1.13,3.53,3.53,0,0,0,.45-1.31,8.46,8.46,0,0,0,.09-1.07v-1.77a2.06,2.06,0,0,1-.76.42"/><path class="cls-1" d="M559.45,105.31v2.39h.1a5.42,5.42,0,0,1,2.33-2.18,6.72,6.72,0,0,1,2.94-.68,8,8,0,0,1,3.12.52,4.63,4.63,0,0,1,1.92,1.43,5.6,5.6,0,0,1,1,2.24,13.69,13.69,0,0,1,.28,2.91v10.61h-4.73v-9.73a6.09,6.09,0,0,0-.67-3.19,2.58,2.58,0,0,0-2.36-1.06,3.27,3.27,0,0,0-2.81,1.16,6.36,6.36,0,0,0-.87,3.78v9h-4.74V105.31Z"/><path class="cls-1" d="M581.3,108.41a3.27,3.27,0,0,0-1.9.52,4.15,4.15,0,0,0-1.26,1.34,5.59,5.59,0,0,0-.68,1.79,10.06,10.06,0,0,0-.19,2,9.66,9.66,0,0,0,.19,1.91,5.91,5.91,0,0,0,.65,1.75,3.76,3.76,0,0,0,1.23,1.28,3.33,3.33,0,0,0,1.86.5,3.45,3.45,0,0,0,2.62-1A4.51,4.51,0,0,0,585,116h4.56a7.8,7.8,0,0,1-2.66,5.24,8.61,8.61,0,0,1-5.64,1.8,9.31,9.31,0,0,1-3.55-.66,7.8,7.8,0,0,1-2.75-1.81,8.21,8.21,0,0,1-1.77-2.79,9.7,9.7,0,0,1-.63-3.55,11.51,11.51,0,0,1,.58-3.72,8.26,8.26,0,0,1,1.72-3,7.73,7.73,0,0,1,2.76-1.95,9.59,9.59,0,0,1,3.74-.7,10.42,10.42,0,0,1,3,.4,7.82,7.82,0,0,1,2.53,1.22,6.31,6.31,0,0,1,2.62,4.91H584.8a3.17,3.17,0,0,0-3.5-3"/><path class="cls-1" d="M595.61,118.42a4.25,4.25,0,0,0,3.07,1,4.21,4.21,0,0,0,2.47-.72,3,3,0,0,0,1.27-1.51h4.17a7.94,7.94,0,0,1-3.07,4.43,9,9,0,0,1-5,1.34,9.66,9.66,0,0,1-3.66-.66,7.38,7.38,0,0,1-2.77-1.85,8.35,8.35,0,0,1-1.76-2.87,10.47,10.47,0,0,1-.62-3.67,10.08,10.08,0,0,1,.64-3.59,8.25,8.25,0,0,1,4.59-4.81,8.83,8.83,0,0,1,3.58-.7,8.34,8.34,0,0,1,3.85.85A7.8,7.8,0,0,1,605,108a9.44,9.44,0,0,1,1.52,3.27,12.21,12.21,0,0,1,.33,3.84H594.44a4.81,4.81,0,0,0,1.17,3.34m5.36-9.08a3.36,3.36,0,0,0-2.59-.93,4.16,4.16,0,0,0-1.88.38,3.76,3.76,0,0,0-1.21.95,3.6,3.6,0,0,0-.63,1.21,5.45,5.45,0,0,0-.22,1.13h7.71a5.4,5.4,0,0,0-1.18-2.74"/></svg>