<svg id="Capa_1" data-name="Capa 1" xmlns="http://www.w3.org/2000/svg" viewBox="0 0 465.6 465.33"><defs><style>.cls-1{fill:#f7ac36;}</style></defs><path class="cls-1" d="M.21,232.25c0-43-.56-86,.14-129C1.09,58.71,22.53,27,62.9,8.17A90.5,90.5,0,0,1,101.4.06c87.67,0,175.32-.18,263,.05,55,.13,100.88,45.91,101,101q.38,131.42,0,262.85c-.16,55.79-46.19,101.28-102.21,101.35q-129.61.18-259.24,0C45.62,465.23.33,419.94.22,361.62q-.11-64.68,0-129.37m298.66-88.09V95.49c-19.06.56-38-.1-56.57,2-22.94,2.55-37.28,16.68-43,39-1.63,6.32-2,13-2.35,19.59-.38,7.79-.09,15.62-.09,23.92h-27.6v56c8.05,0,15.89.2,23.7-.08,3.59-.14,4.3,1.11,4.29,4.43q-.17,65-.07,130.08v5.16h56.09V235.82h41.33c1.74-18.85,3.44-37.16,5.18-56.06H255.41c0-8.51-.34-16.48.11-24.41.42-7.35,4.87-11.06,12.39-11.17,7.73-.1,15.46,0,23.18,0h7.78"/></svg>