<svg id="Capa_1" data-name="Capa 1" xmlns="http://www.w3.org/2000/svg" viewBox="0 0 358.04 317.48"><defs><style>.cls-1{fill:#fff;}</style></defs><path class="cls-1" d="M.25,121.53c.07.39.61,3.57,1.56,9.1.4,2.36,2.77,14.47,10.52,23.25l.28.35.4.4a42,42,0,0,0,4.38,4.13,42.08,42.08,0,0,0-4.62,4.34C4.3,172.39,0,184.89,0,200.24a59.45,59.45,0,0,0,4.55,23.7,69.73,69.73,0,0,0,10.18,16.74l.68.82A18.76,18.76,0,0,0,0,260v6.44c0,.33,0,.64,0,.86a13.92,13.92,0,0,0,4.71,10.18,13,13,0,0,1-4.47-7.66c.07.39.6,3.48,1.56,9.1.4,2.37,2.79,14.53,10.59,23.33l.06.06.15.18.31.34h0c6.11,6.7,17.41,14.63,36.68,14.63h.18c12.31,0,22.95-3.28,31.24-9.55l.57.71A21.4,21.4,0,0,0,98,316h13.61a24.59,24.59,0,0,0,18.88-9.21A24.59,24.59,0,0,0,149.32,316h15.4a21.76,21.76,0,0,0,11.63-3.33A25.12,25.12,0,0,0,189.07,316h13a22.63,22.63,0,0,0,15.1-5.74,25.85,25.85,0,0,0,15.9,5.74h13.85a22.65,22.65,0,0,0,11.6-3.18A21.83,21.83,0,0,0,269.91,316h13.62a24.59,24.59,0,0,0,18.87-9.21A24.59,24.59,0,0,0,321.27,316h15.41a21.09,21.09,0,0,0,21.08-24.72L338.39,170.26a24.66,24.66,0,0,0-.56-2.55A21.08,21.08,0,0,0,357.76,143L338.39,22A24.82,24.82,0,0,0,314.45,1.43H291.16C281,1.43,272,8.62,269,18.62A22.79,22.79,0,0,0,246.92,1.43H234.09a22.66,22.66,0,0,0-12.81,4,23,23,0,0,0-12.56-4H186.21l-1,.15C175.17,3.1,167.41,11.66,166.43,22A24.82,24.82,0,0,0,142.49,1.43h-23.3c-11.21,0-21.08,8.83-23,20.53L95.1,29.07A43.43,43.43,0,0,0,87.25,15.3l-.13-.15-.38-.45-.2-.18C80.42,7.84,69.14,0,50,0h-.19C34.4,0,21.6,5.12,12.77,14.8,4.3,24.09,0,36.59,0,51.94a59.45,59.45,0,0,0,4.55,23.7A69.73,69.73,0,0,0,14.73,92.38l.68.82A18.76,18.76,0,0,0,0,111.71v6.44Zm87,23.09L107.34,19.13c.85-5.33,5.45-9.7,10.22-9.7H141.7A11.88,11.88,0,0,1,153,19.13L173,144.62a8.14,8.14,0,0,1-8.28,9.71h-16a11.81,11.81,0,0,1-11.29-9.73l-.62-4.17c-.8-5.35-4.25-9.72-7.66-9.72s-6.86,4.37-7.66,9.72l-.62,4.17a11.81,11.81,0,0,1-11.28,9.73H95.54a8.14,8.14,0,0,1-8.28-9.71m171.64,0L279,19.13c.85-5.33,5.45-9.7,10.21-9.7h24.15a11.88,11.88,0,0,1,11.25,9.7l20.07,125.49a8.14,8.14,0,0,1-8.27,9.71h-16a11.82,11.82,0,0,1-11.29-9.73l-.62-4.17c-.8-5.35-4.24-9.72-7.66-9.72s-6.86,4.37-7.65,9.72l-.63,4.17a11.81,11.81,0,0,1-11.28,9.73H267.17a8.14,8.14,0,0,1-8.27-9.71M255.38,19.26V144.5a9.87,9.87,0,0,1-9.84,9.83H231.19a13.59,13.59,0,0,1-12.4-9.5l-7.33-27.15c-1.41-5.21-2.57-5.06-2.57.35V144.5a9.86,9.86,0,0,1-9.83,9.83H185.57c-5.4,0-9.82-3.17-9.82-7v-128a9.67,9.67,0,0,1,7.92-9.73l0-.1h22.29c4.66,0,9.63,4.27,11,9.49l2.88,10.67c1.4,5.23,2.56,5.08,2.56-.33v-10a9.85,9.85,0,0,1,9.83-9.83h13.29a9.86,9.86,0,0,1,9.84,9.83M89,269.44c0,12.38-3.24,22.22-9.64,29.23-6.57,7.21-16.07,10.87-28.23,10.87h-.18c-12.08,0-21.48-3.63-27.93-10.75l0,0-.09-.1h0s0,0,0,0l-.12-.13C16.78,291.84,14.94,281,14.94,281c-.9-5.33-1.65-9.69-1.66-9.69s0-.43,0-.94v-6.68A5.65,5.65,0,0,1,18.81,258H37.69c5.41,0,9.84,2.88,9.84,6.38s.13,9.66.31,10.17A3.24,3.24,0,0,0,49.11,276h2.3a7.6,7.6,0,0,0,1.07-.33l.05,0,.71-1.13v-3.79a15.81,15.81,0,0,0-2-8.1,41,41,0,0,0-3.93-5.54c-.73-.86-1.48-1.71-2.29-2.55l-.12-.12c-2.76-2.82-5.76-5.69-8.91-8.51l-.3-.26a100.26,100.26,0,0,1-10.35-10.75,58.43,58.43,0,0,1-8.53-14,48.09,48.09,0,0,1-3.57-19.1c0-12.38,3.24-22.22,9.63-29.23,6.58-7.21,16.08-10.87,28.22-10.87h.19c12.09,0,21.48,3.63,27.93,10.76l0,0,.09.1h0l0,0,.11.13c6.22,6.93,8,19,8,19,.79,5.35,1.45,9.72,1.45,9.72v6.07a5.65,5.65,0,0,1-5.55,5.73H64.56c-5.41,0-9.83-2.87-9.83-6.38s-.14-9.66-.31-10.17a3.3,3.3,0,0,0-1.27-1.49H50.84a8.75,8.75,0,0,0-1.07.33l-.05,0L49,196.67v3.79a15.71,15.71,0,0,0,2,8.1,40.26,40.26,0,0,0,3.92,5.54c.73.86,1.48,1.71,2.29,2.55l.12.12c2.76,2.83,5.76,5.69,8.92,8.5a3.58,3.58,0,0,0,.29.27,99.33,99.33,0,0,1,10.35,10.75,58.43,58.43,0,0,1,8.53,14.05A47.92,47.92,0,0,1,89,269.44m255.67,28.9a8.14,8.14,0,0,1-8.27,9.71h-16a11.81,11.81,0,0,1-11.29-9.72l-.62-4.17c-.8-5.35-4.24-9.73-7.66-9.73s-6.86,4.38-7.65,9.73l-.63,4.17a11.8,11.8,0,0,1-11.28,9.72H267.17a8.13,8.13,0,0,1-8.27-9.71L279,172.86c.85-5.34,5.45-9.71,10.21-9.71h24.16a11.88,11.88,0,0,1,11.24,9.71ZM255.38,173V298.22a9.86,9.86,0,0,1-9.84,9.83H231.19a13.59,13.59,0,0,1-12.4-9.49l-7.33-27.15c-1.41-5.22-2.57-5.06-2.57.34v26.47a9.85,9.85,0,0,1-9.83,9.83H185.57c-5.4,0-9.82-3.16-9.82-7V173a9.66,9.66,0,0,1,7.92-9.72l0-.11h22.29c4.66,0,9.63,4.27,11,9.49l2.88,10.68c1.4,5.22,2.56,5.07,2.56-.34V173a9.85,9.85,0,0,1,9.83-9.83h13.29a9.86,9.86,0,0,1,9.84,9.83M173,298.34a8.14,8.14,0,0,1-8.28,9.71h-16a11.8,11.8,0,0,1-11.29-9.72l-.62-4.17c-.8-5.35-4.25-9.73-7.66-9.73s-6.86,4.38-7.66,9.73l-.62,4.17a11.8,11.8,0,0,1-11.28,9.72H95.54a8.14,8.14,0,0,1-8.28-9.71l20.08-125.48c.85-5.34,5.45-9.71,10.22-9.71H141.7A11.88,11.88,0,0,1,153,172.86ZM49.11,122.3c1.71-.1,3.32.5,4.13-1.49.73-24-29.86-31.73-36.4-53.67C6.14,40.88,18.66,6,51.12,7.94c12.1-.05,21.66,3.58,28.12,10.75,9.38,11.82,8.22,22.5,9.75,29.17C89.9,59.33,86.63,60,76.26,59.5c-5.86-.14-21.4,1.68-21.53-6.39-.43-5.1.93-10-1.58-11.65-.86,0-2.82-.09-3.43.36L49,42.94c-.73,24,29.87,31.73,36.4,53.67,10.71,26.26-1.82,61.16-34.29,59.21-12.09,0-21.64-3.59-28.11-10.76-9.25-11.8-8.25-21.22-9.74-28.39C12.45,105,14.78,103.59,26,104.26c5.84.12,21.38-1.67,21.49,6.38.43,5.1-.93,10,1.59,11.66"/><path class="cls-1" d="M130.14,78.88a11.19,11.19,0,1,1,11.19-11.19,11.19,11.19,0,0,1-11.19,11.19m0-6.64a2.28,2.28,0,1,0-2.28,2.28,2.29,2.29,0,0,0,2.28-2.28"/><path class="cls-1" d="M313,78.88a11.19,11.19,0,0,1-11.19-11.19,11.19,11.19,0,1,1-11.19-11.18,11.19,11.19,0,0,1,11.19,11.18A11.19,11.19,0,1,1,313,78.88M288.32,65.42A2.28,2.28,0,1,0,286,67.7a2.28,2.28,0,0,0,2.28-2.28m22.37,0a2.28,2.28,0,1,0-2.28,2.28,2.28,2.28,0,0,0,2.28-2.28"/><path class="cls-1" d="M239.42,52a11.19,11.19,0,1,1,11.19-11.19A11.18,11.18,0,0,1,239.42,52m2.28-4.37a2.28,2.28,0,1,0-2.28,2.28,2.28,2.28,0,0,0,2.28-2.28"/><path class="cls-1" d="M198,52a11.19,11.19,0,1,1,11.19-11.19A11.19,11.19,0,0,1,198,52m2.28-4.37A2.28,2.28,0,1,0,198,49.92a2.28,2.28,0,0,0,2.28-2.28"/><path class="cls-1" d="M301.78,232.6A11.19,11.19,0,1,1,313,221.42a11.17,11.17,0,0,1-11.19,11.18m-2.28-16.09a2.28,2.28,0,1,0-2.27,2.27,2.27,2.27,0,0,0,2.27-2.27"/><path class="cls-1" d="M71.74,185.63a11.19,11.19,0,1,1-11.19,11.19,11.19,11.19,0,0,1,11.19-11.19M74,196.82a2.28,2.28,0,1,0-2.28,2.28A2.29,2.29,0,0,0,74,196.82"/><path class="cls-1" d="M239.42,239.43a11.19,11.19,0,1,1,11.19-11.19,11.19,11.19,0,0,1-11.19,11.19M244,222.61a2.28,2.28,0,1,0-2.28,2.28,2.28,2.28,0,0,0,2.28-2.28"/><path class="cls-1" d="M44.64,35.94a8.83,8.83,0,0,0-13.59-3.38,11.07,11.07,0,0,1-2.29-6.76,11.18,11.18,0,1,1,22.36,0,8.3,8.3,0,1,1,16.6,0,8.19,8.19,0,0,1-1.57,4.84A8.83,8.83,0,0,0,55.9,33.3a8.29,8.29,0,0,1-4.78-7.5,11.18,11.18,0,0,1-6.48,10.14M62.8,23.52a1.69,1.69,0,1,0-1.69,1.69,1.69,1.69,0,0,0,1.69-1.69M42.22,25.8a2.28,2.28,0,1,0-2.28,2.27,2.29,2.29,0,0,0,2.28-2.27"/><path class="cls-1" d="M141.32,221.42a10.84,10.84,0,0,1-.45,3.14H119.41a11.2,11.2,0,0,1,.85-8.38H140a11.14,11.14,0,0,1,1.3,5.24m-15.9,0a2.28,2.28,0,1,0-2.28,2.28,2.29,2.29,0,0,0,2.28-2.28"/></svg>