<svg id="Capa_1" data-name="Capa 1" xmlns="http://www.w3.org/2000/svg" viewBox="0 0 617.01 332.31"><defs><style>.cls-1{fill:#fff;}</style></defs><path class="cls-1" d="M49.27,332.31c-16.07.14-28.19-4.82-36.33-13.82S.64,296.44.5,280.37L.25,251.76,0,223.15C-.14,207.08,3.8,194,11.78,184.82s20-14.3,36.09-14.44l60.26-.53,60.27-.52c16.07-.14,28.19,4.81,36.33,13.81s12.3,22.06,12.44,38.13l.25,28.6.25,28.61c.14,16.07-3.79,29.19-11.78,38.34s-20,14.3-36.08,14.44l-60.27.52ZM60.92,199.88l-16,.14-16,.14a3.32,3.32,0,0,0-2.35,1,3.26,3.26,0,0,0-.94,2.37l0,3.33,0,3.32a3.28,3.28,0,0,0,1,2.35,3.32,3.32,0,0,0,2.37,1l4.67-.05,4.68,0,.37,43.1.38,43.1a3.29,3.29,0,0,0,1,2.27,3.22,3.22,0,0,0,2.36,1l3.33,0,3.32,0a3.27,3.27,0,0,0,2.35-1.06,3.35,3.35,0,0,0,.94-2.29l-.37-43.1-.38-43.1,4.68,0,4.67,0a3.28,3.28,0,0,0,3.3-3.35l0-3.32,0-3.32a3.33,3.33,0,0,0-1-2.36,3.29,3.29,0,0,0-2.37-.94m65.42,23.32a23.9,23.9,0,0,0-24.09-23.68l-8.62.07-8.62.08a6.54,6.54,0,0,0-6.59,6.71l.4,46.41.4,46.42a3.38,3.38,0,0,0,1,2.28,3.28,3.28,0,0,0,2.37,1l3.33,0,3.32,0a3.3,3.3,0,0,0,2.28-1.06,3.33,3.33,0,0,0,1-2.28l-.18-20.78-.18-20.77,5.29-.05,5.29,0a10.65,10.65,0,0,1,10.7,10.5l.13,15.48.13,15.47a3.4,3.4,0,0,0,1,2.28,3.3,3.3,0,0,0,2.38,1l3.32,0,3.32,0a3.34,3.34,0,0,0,2.36-1.06,3.43,3.43,0,0,0,.94-2.3l-.14-15.47-.13-15.47a24.37,24.37,0,0,0-2-9.54,23.38,23.38,0,0,0-5.41-7.64,23.13,23.13,0,0,0,5.28-7.84,24.78,24.78,0,0,0,1.83-9.67l0-5Zm-13.2,10.09a10.9,10.9,0,0,1-3,7.68,10.5,10.5,0,0,1-7.45,3.21l-5.3,0-5.3.05-.13-15.69-.14-15.68,5.3,0,5.29-.05a10.65,10.65,0,0,1,10.69,10.51l0,5ZM188,198.78l-3.32,0-3.32,0a3.25,3.25,0,0,0-2.36,1,3.31,3.31,0,0,0-.94,2.37l.33,37.7.33,37.69a10.89,10.89,0,0,1-3.06,7.69,10.45,10.45,0,0,1-7.45,3.2,10.72,10.72,0,0,1-10.89-10.7l-.32-37.7-.33-37.7a3.32,3.32,0,0,0-1-2.35,3.29,3.29,0,0,0-2.37-.94l-3.33,0-3.32,0a3.45,3.45,0,0,0-2.28,1,3.31,3.31,0,0,0-1,2.38l.32,37.69.33,37.7a24.12,24.12,0,0,0,24.3,23.89,23.75,23.75,0,0,0,16.79-7.21A24.09,24.09,0,0,0,192,277.47l-.33-37.7-.33-37.69a3.28,3.28,0,0,0-3.35-3.3"/><path class="cls-1" d="M390.1,250.12a80.36,80.36,0,1,1-24-56.62,80.06,80.06,0,0,1,24,56.62m-80.87-58.7a59.41,59.41,0,1,0,42.14,17,59.17,59.17,0,0,0-42.14-17"/><path class="cls-1" d="M306.84,216.28l.11,13.23.12,13.23,7.62-.06,7.62-.07a2.73,2.73,0,0,1,2,.8,2.76,2.76,0,0,1,.83,2l0,2.8,0,2.8a2.75,2.75,0,0,1-2.78,2.83l-7.62.07-7.63.07.12,13.31.12,13.33,7.62-.07,7.62-.06a2.72,2.72,0,0,1,2,.79,2.76,2.76,0,0,1,.83,2l0,2.81,0,2.81a2.81,2.81,0,0,1-.79,2,2.77,2.77,0,0,1-2,.83l-10.42.09-10.42.09a5.63,5.63,0,0,1-5.66-5.55l-.33-37.78-.33-37.76a5.55,5.55,0,0,1,5.56-5.66l10.43-.09,10.43-.08a2.8,2.8,0,0,1,2,.78,2.86,2.86,0,0,1,.82,2l0,2.8,0,2.81a2.83,2.83,0,0,1-.8,2,2.76,2.76,0,0,1-2,.82l-7.62.07Z"/><path class="cls-1" d="M569.14,331.25l-60.27.53-60.26.52c-16.07.14-28.19-4.81-36.33-13.81s-12.3-22.05-12.44-38.12l-.25-28.61-.25-28.61c-.14-16.07,3.8-29.19,11.78-38.33s20-14.3,36.08-14.44l60.27-.52,60.27-.53c16.07-.14,28.19,4.81,36.33,13.81s12.3,22.06,12.44,38.12l.25,28.61.25,28.61c.14,16.07-3.8,29.2-11.78,38.34s-20,14.3-36.09,14.43M449,200a23.77,23.77,0,0,0-23.67,24.1l.24,27.41.23,27.42a24.1,24.1,0,0,0,17.44,22.9l.05,5.41,0,5.4a3.28,3.28,0,0,0,3.36,3.29l3.32,0,3.32,0a3.26,3.26,0,0,0,3.29-3.35l0-5.4-.05-5.39a24.13,24.13,0,0,0,17-23.21l-.23-27.42-.25-27.42A23.9,23.9,0,0,0,449,200m11.27,78.63a10.59,10.59,0,0,1-21.18.19l-.23-27.42L438.58,224a10.6,10.6,0,0,1,21.19-.19l.23,27.42ZM535,199.23l-3.33,0-3.32,0a3.31,3.31,0,0,0-2.36,1,3.36,3.36,0,0,0-.94,2.37l.33,37.7.33,37.69a10.91,10.91,0,0,1-3,7.69,10.46,10.46,0,0,1-7.44,3.21,10.74,10.74,0,0,1-10.91-10.71l-.32-37.7-.33-37.69a3.28,3.28,0,0,0-3.35-3.3l-3.33,0-3.32,0a3.35,3.35,0,0,0-2.27,1,3.32,3.32,0,0,0-1,2.38l.34,37.69.33,37.7a24.11,24.11,0,0,0,24.3,23.88A23.71,23.71,0,0,0,532.06,295,24.08,24.08,0,0,0,539,277.92l-.32-37.7-.33-37.69a3.28,3.28,0,0,0-3.35-3.3m52,12.84a3.28,3.28,0,0,0,3.3-3.34l0-3.33,0-3.33a3.28,3.28,0,0,0-3.36-3.29l-12.36.11-12.35.1a6.67,6.67,0,0,0-4.71,2,6.6,6.6,0,0,0-1.88,4.75l.38,44.76.39,44.76a6.69,6.69,0,0,0,2,4.63,6.57,6.57,0,0,0,4.75,1.95l12.35-.1,12.36-.11a3.28,3.28,0,0,0,3.3-3.35l0-3.33,0-3.32a3.26,3.26,0,0,0-3.35-3.29l-9,.08-9,.08-.13-15.79-.14-15.79,9-.08,9-.07a3.37,3.37,0,0,0,2.36-1,3.32,3.32,0,0,0,.94-2.38l0-3.32,0-3.32a3.28,3.28,0,0,0-3.35-3.3l-9,.08-9,.08-.13-15.68-.14-15.68,9-.08Z"/><path class="cls-1" d="M459.72,153.7H157.29a41.11,41.11,0,0,1-40.95-40.95V41A41.09,41.09,0,0,1,157.3,0H459.72a41.06,41.06,0,0,1,40.94,41v71.8a41.07,41.07,0,0,1-40.94,40.95m-264-128.46H163.65a3.31,3.31,0,0,0-3.33,3.34v6.67a3.3,3.3,0,0,0,3.33,3.33H173v86.54a3.39,3.39,0,0,0,1,2.29,3.27,3.27,0,0,0,2.37,1.05h6.67a3.31,3.31,0,0,0,2.38-1.05,3.38,3.38,0,0,0,1-2.29V38.58h9.37a3.3,3.3,0,0,0,3.35-3.33V28.58a3.31,3.31,0,0,0-3.35-3.34m65.48,24a24,24,0,0,0-24-24H220a6.59,6.59,0,0,0-6.67,6.68v93.2a3.39,3.39,0,0,0,1,2.29,3.27,3.27,0,0,0,2.37,1.05h6.66a3.6,3.6,0,0,0,3.34-3.34V83.42h10.64A10.69,10.69,0,0,1,247.9,94.05v31.07a3.38,3.38,0,0,0,1,2.29,3.27,3.27,0,0,0,2.37,1.05h6.68a3.27,3.27,0,0,0,2.36-1.05,3.39,3.39,0,0,0,1-2.29V94.05a24.26,24.26,0,0,0-1.93-9.59,23.39,23.39,0,0,0-5.37-7.72,23.06,23.06,0,0,0,5.37-7.81,25,25,0,0,0,1.93-9.7v-10Zm-13.34,10a10.89,10.89,0,0,1-3.13,7.69,10.54,10.54,0,0,1-7.51,3.15H226.62V38.58h10.64A10.7,10.7,0,0,1,247.9,49.22v10Zm44-30.65a3.26,3.26,0,0,0-1-2.37,3.37,3.37,0,0,0-2.29-1h-6.68a3.31,3.31,0,0,0-3.33,3.34v96.54a3.31,3.31,0,0,0,3.33,3.34h6.68a3.3,3.3,0,0,0,3.33-3.34V28.58Zm44.51-3.34a23.85,23.85,0,0,0-24,24v55.05a24.21,24.21,0,0,0,17.3,23.14v10.85a3.3,3.3,0,0,0,3.34,3.33h6.68a3.28,3.28,0,0,0,3.33-3.33V127.41a24.2,24.2,0,0,0,17.31-23.14v-55a24,24,0,0,0-24-24m10.62,79a10.63,10.63,0,0,1-21.26,0v-55a10.63,10.63,0,0,1,21.26,0v55.05Zm75.69-79H416a3.31,3.31,0,0,0-3.33,3.34v75.69a10.89,10.89,0,0,1-3.13,7.69,10.54,10.54,0,0,1-7.51,3.15,10.76,10.76,0,0,1-10.83-10.84V28.58a3.31,3.31,0,0,0-3.34-3.34h-6.67a3.37,3.37,0,0,0-2.3,1,3.3,3.3,0,0,0-1,2.37v75.69a24.21,24.21,0,0,0,24.18,24.19A23.8,23.8,0,0,0,419,121.37a24.23,24.23,0,0,0,7.07-17.1V28.58a3.31,3.31,0,0,0-3.34-3.34m34,3.34a3.3,3.3,0,0,0-1-2.37,3.37,3.37,0,0,0-2.29-1h-6.68a3.31,3.31,0,0,0-3.33,3.34v96.54a3.31,3.31,0,0,0,3.33,3.34h6.68a3.3,3.3,0,0,0,3.33-3.34V28.58Z"/></svg>