<svg id="Capa_1" data-name="Capa 1" xmlns="http://www.w3.org/2000/svg" viewBox="0 0 515.57 299.81"><defs><style>.cls-1,.cls-2{fill:#fff;}.cls-2{fill-rule:evenodd;}</style></defs><path class="cls-1" d="M502,149.17a4.38,4.38,0,0,0,3.28.85,3.7,3.7,0,0,0,2.51-1.73,3.94,3.94,0,0,0,.51-3.12,4.92,4.92,0,0,0-2.24-2.81,5.72,5.72,0,0,0-2.26-1,3.72,3.72,0,0,0-2.12.28,3.68,3.68,0,0,0-1.56,1.45,3.93,3.93,0,0,0-.59,3,5,5,0,0,0,2.47,3.08m-.92,1.29a6.33,6.33,0,0,1-2.87-3.78,5.76,5.76,0,0,1,3-6.31,4.78,4.78,0,0,1,2.81-.52,7.07,7.07,0,0,1,2.93,1.16,6.67,6.67,0,0,1,2.2,2.35,4.87,4.87,0,0,1,.66,2.85,6,6,0,0,1-.91,2.78,5,5,0,0,1-2.23,2,4.92,4.92,0,0,1-2.83.51,6.63,6.63,0,0,1-2.74-1.07M0,59.38H10.85v47.68a13.47,13.47,0,0,0,4.57,10.48c3,2.73,7.1,4.12,12.14,4.12,5.31,0,9.5-1.33,12.54-4a13.64,13.64,0,0,0,4.59-10.83V59.38H55.54v48.45q0,10.55-7.5,16.49c-5,4-11.77,5.9-20.4,5.9q-13.26,0-20.44-5.78T0,107.78Zm123,70.68L82,79.06v50H71.74V59.38H76l39.81,48.23V59.38h10.29v70.68ZM144.1,59.38h10.82V129H144.1ZM183.87,68V87.27h27.77v8.08H183.87V129H173V59.38H221.9V68Zm91,61.08L253.82,99.15c-2.43,0-6.22-.17-11.47-.47V129H231.52V59.31q.6,0,8.41-.36c5.2-.22,9-.34,11.38-.34q28.51,0,28.52,20a17.52,17.52,0,0,1-4.58,11.85A19.18,19.18,0,0,1,264.34,97L287.25,129ZM242.35,67.85V90.56a60,60,0,0,0,7.56.48c6.45,0,11.17-.91,14.11-2.78s4.43-5.11,4.43-9.87c0-3.91-1.61-6.72-4.74-8.43s-8.17-2.59-15-2.59c-1.11,0-3.22.15-6.39.48m98,61.19L335,114.33H305.4L299.51,129H287.46l32.16-70.63h2.9L352.36,129Zm-19.83-52.3-12.33,30.59h23.6Zm91.26,53.32-40.95-51v50H360.6V59.38h4.34l39.79,48.23V59.38H415v70.68Zm16.6-1v-2.38L462.38,68H428.43V59.38H477.2v2.4l-34.07,58.72h35.28V129ZM364.29,14.83l1.26-.79,3.4,5.58A8.12,8.12,0,0,1,370,22.16a3.33,3.33,0,0,1-.29,2.13,4.6,4.6,0,0,1-1.87,1.95,5,5,0,0,1-2.43.91,2.93,2.93,0,0,1-2-.6,6.71,6.71,0,0,1-1.83-2.2l-3.42-5.59,1.26-.8,3.37,5.59a6.89,6.89,0,0,0,1.38,1.71,1.94,1.94,0,0,0,1.34.44,3.76,3.76,0,0,0,1.57-.55,3.06,3.06,0,0,0,1.53-1.89,4.54,4.54,0,0,0-.91-2.82Zm9.45,7.45-4.69-10.36,1.35-.66,9,5.63-3.71-8.13,1.29-.6,4.69,10.34-1.35.65-9-5.61L375,21.66Zm10.87-5.23L380.79,6.31l1.4-.51L386,16.53Zm7.13-2L384.55,5.3l1.54-.45,5,7.16c.39.57.75,1.12,1.06,1.64a18.62,18.62,0,0,1,.07-2l.63-8.8,1.43-.44-1.07,12.2Zm7.2-2.05L397.2,1.74,405.11.46l.21,1.33-6.47,1,.55,3.48,6-1,.21,1.31-6,1,.59,3.84,6.71-1.09.2,1.32Zm10.83-1.47L409.36.16,414.25,0a8.11,8.11,0,0,1,2.3.23,2.65,2.65,0,0,1,1.26,1A3.37,3.37,0,0,1,418.33,3a3.09,3.09,0,0,1-.7,2.1,3.89,3.89,0,0,1-2.3,1.09,4.08,4.08,0,0,1,.88.56,7.08,7.08,0,0,1,1.28,1.47l2,3-1.84.08L416.12,9c-.43-.68-.83-1.19-1.1-1.54a3.11,3.11,0,0,0-.78-.72,1.65,1.65,0,0,0-.65-.29,3.39,3.39,0,0,0-.85,0l-1.7.06.2,5.06ZM411,5.15l3.15-.1a3.9,3.9,0,0,0,1.55-.28,1.51,1.51,0,0,0,.84-.7,2,2,0,0,0,.27-1,1.74,1.74,0,0,0-.63-1.32,2.79,2.79,0,0,0-1.82-.46l-3.49.14Zm9.53,2.5,1.38,0a3.46,3.46,0,0,0,.35,1.43,2.67,2.67,0,0,0,1.08,1,3.8,3.8,0,0,0,1.65.46,4.13,4.13,0,0,0,1.52-.14,1.87,1.87,0,0,0,1-.64,1.53,1.53,0,0,0,.37-1,1.36,1.36,0,0,0-.22-1,2.64,2.64,0,0,0-1-.74,16.86,16.86,0,0,0-1.94-.71,7.79,7.79,0,0,1-2.09-.88,3,3,0,0,1-1.1-1.13,2.78,2.78,0,0,1-.3-1.45,2.94,2.94,0,0,1,.59-1.57,3,3,0,0,1,1.46-1,5.16,5.16,0,0,1,2.07-.23,5,5,0,0,1,2.13.55,3.21,3.21,0,0,1,1.36,1.32,3.56,3.56,0,0,1,.44,1.84H427.9a2.35,2.35,0,0,0-.65-1.69,2.93,2.93,0,0,0-1.9-.69,3.06,3.06,0,0,0-2,.35,1.46,1.46,0,0,0-.68,1.18,1.23,1.23,0,0,0,.37,1,5.63,5.63,0,0,0,2.15,1,13.87,13.87,0,0,1,2.39.93,3.12,3.12,0,0,1,1.34,1.27,3,3,0,0,1,.38,1.65,3.11,3.11,0,0,1-.65,1.67,3.2,3.2,0,0,1-1.52,1.13,5,5,0,0,1-2.15.28,6.38,6.38,0,0,1-2.51-.62A3.8,3.8,0,0,1,421,9.74a3.85,3.85,0,0,1-.48-2.09m11.54,5L434,1.43l1.43.28-1.9,11.23Zm4.24.74L439,2.35l3.73,1a11,11,0,0,1,1.89.66A4,4,0,0,1,446,5.18a4.73,4.73,0,0,1,.82,2.23,8.19,8.19,0,0,1-.21,2.74,7.9,7.9,0,0,1-.84,2.14,5.26,5.26,0,0,1-1.11,1.45,4.11,4.11,0,0,1-1.23.74,3.85,3.85,0,0,1-1.41.2,6.66,6.66,0,0,1-1.79-.22Zm1.73-.9,2.32.57a5.71,5.71,0,0,0,1.72.24,3.41,3.41,0,0,0,1.09-.3,3.69,3.69,0,0,0,1.14-1.23,7.63,7.63,0,0,0,.77-2,5.55,5.55,0,0,0,.09-2.84,2.89,2.89,0,0,0-1.05-1.61,6.13,6.13,0,0,0-1.78-.7L440.1,4ZM446.54,16,454.63,7l1.47.62L456.17,20l-1.54-.66.06-3.68-4.33-1.83L448,16.55Zm4.65-3.12,3.53,1.47,0-3.39c.07-1,.1-1.86.15-2.49a16.35,16.35,0,0,1-1.37,1.79Zm6,8,5.5-9.86L466,13a7.54,7.54,0,0,1,1.62,1.18,3.78,3.78,0,0,1,1,1.53,4.58,4.58,0,0,1,.18,2.36,7.65,7.65,0,0,1-.91,2.57,7.41,7.41,0,0,1-1.4,1.84,5.09,5.09,0,0,1-1.45,1.05,3.73,3.73,0,0,1-2.81.17,7.22,7.22,0,0,1-1.64-.74Zm1.92-.39,2,1.22a5.49,5.49,0,0,0,1.61.72,1.94,1.94,0,0,0,1.12,0,3.29,3.29,0,0,0,1.4-.82,7.58,7.58,0,0,0,1.35-1.75,6,6,0,0,0,.85-2.72,3,3,0,0,0-.61-1.8,5,5,0,0,0-1.52-1.2l-2-1.2ZM471,29.62l7-8.84,3.26,2.72a9.3,9.3,0,0,1,1.25,1.18,3.46,3.46,0,0,1,.75,1.3,2.77,2.77,0,0,1,0,1.43,3.58,3.58,0,0,1-2.9,2.75,4.29,4.29,0,0,1-3.13-1.33L474.94,27l-2.85,3.62Zm4.79-3.69L478,27.78a3,3,0,0,0,1.9.9,1.84,1.84,0,0,0,1.38-.8,1.8,1.8,0,0,0,.49-1.18,1.86,1.86,0,0,0-.28-1.12,7.26,7.26,0,0,0-1.05-1l-2.21-1.84Zm3.07,10.65L487,28.81l3.37,3.7a6.63,6.63,0,0,1,1.3,1.91,2.6,2.6,0,0,1,.09,1.66,3.36,3.36,0,0,1-.93,1.53,2.81,2.81,0,0,1-1.94.83,4,4,0,0,1-2.39-1.08,4,4,0,0,1,.22,1,8.34,8.34,0,0,1-.26,2l-.92,3.56-1.23-1.37.71-2.74c.16-.81.28-1.42.38-1.87a3.73,3.73,0,0,0,0-1.09,2.05,2.05,0,0,0-.26-.69,2.58,2.58,0,0,0-.51-.66l-1.16-1.28-3.59,3.45Zm5.58-3.23,2.14,2.36a4,4,0,0,0,1.24,1,1.51,1.51,0,0,0,1.06.18,1.66,1.66,0,0,0,.91-.46,1.72,1.72,0,0,0,.57-1.33,2.8,2.8,0,0,0-.85-1.72l-2.4-2.63Zm2.29,12.07,8.61-7.15.92,1.18-8.6,7.14ZM491.36,52,498.31,42l.87,1.38-5.19,7c-.41.59-.82,1.1-1.2,1.55a16.38,16.38,0,0,1,1.86-.49L503,49.51l.81,1.31-11.64,2.44Zm2.74,4.57,11.8-1.27.74,1.48-7.82,9.32-.76-1.56,2.4-2.71-2.13-4.3-3.53.45Zm5.51.8,1.71,3.45,2.22-2.48c.65-.74,1.22-1.36,1.69-1.81a12.49,12.49,0,0,1-2.17.45Zm.11,9.89,10.4-3.87,1.31,3.7a9,9,0,0,1,.53,2,4.23,4.23,0,0,1-.19,1.86,4.7,4.7,0,0,1-1.33,1.92,7,7,0,0,1-2.32,1.36,7.28,7.28,0,0,1-2.22.48,5.28,5.28,0,0,1-1.77-.15,4.25,4.25,0,0,1-1.28-.63,3.47,3.47,0,0,1-1-1.1,7,7,0,0,1-.81-1.64Zm1.72,1,.81,2.29a5,5,0,0,0,.77,1.58,2.38,2.38,0,0,0,.88.79,3.6,3.6,0,0,0,1.61.28,6.59,6.59,0,0,0,2.11-.47,4.6,4.6,0,0,0,2.32-1.49,3.1,3.1,0,0,0,.7-1.77,6.08,6.08,0,0,0-.42-1.94l-.82-2.23ZM503.36,77l11.79,1.51.42,1.62-9.67,7.27-.39-1.7,2.92-2.09L507.3,79l-3.52-.38Zm5.2,2,.95,3.79,2.66-1.93c.84-.55,1.53-1,2.07-1.35a18.17,18.17,0,0,1-2.22-.07ZM404.26,200.31,407.41,189l7.38,2.19-.38,1.31-5.93-1.72-1,3.5,5.13,1.55-.36,1.26-5.13-1.49-1.43,5.1Zm10.16,2.77,1.39-11.64,5,.62a7.56,7.56,0,0,1,2.27.62,2.58,2.58,0,0,1,1.11,1.25,3.84,3.84,0,0,1,.28,1.84,2.84,2.84,0,0,1-1.07,1.94,3.41,3.41,0,0,1-2.49.8,4.38,4.38,0,0,1,.81.69,7.88,7.88,0,0,1,1.06,1.72l1.59,3.4-1.9-.23-1.19-2.61c-.37-.74-.63-1.33-.87-1.72a2.87,2.87,0,0,0-.68-.88,2.08,2.08,0,0,0-.65-.41,6,6,0,0,0-.82-.14l-1.73-.24-.62,5.15Zm2.3-6.32,3.2.41a5.45,5.45,0,0,0,1.63,0,1.88,1.88,0,0,0,.94-.62,1.76,1.76,0,0,0,.42-1,1.69,1.69,0,0,0-.42-1.42,2.8,2.8,0,0,0-1.74-.77l-3.58-.44Zm8.46,7.48,4-11.86,1.66-.06,5,11.52-1.72.06-1.43-3.49-4.79.18-1.11,3.58Zm3.13-4.93,3.88-.15-1.3-3.19c-.38-1-.69-1.76-.92-2.42a15.71,15.71,0,0,1-.55,2.25Zm9.42,4-2.17-11.46,1.52-.31,7.55,7.83-1.71-9,1.43-.27,2.17,11.48-1.5.32L437.47,194l1.67,9.06Zm11.41-2.05-.47-1.31,3-9.13c.22-.65.43-1.22.65-1.72l-6,2.23-.46-1.27,7.65-2.9.44,1.31-3.3,9.89-.37,1,6.84-2.56.44,1.28ZM470,191.07l-5.32-8.78-3.18,2.06-.7-1.16,7.65-4.92.69,1.16-3.16,2,5.32,8.79Zm4.06-2.86-3.37-12.05,1.34-1,10.52,6.51-1.36,1.06-3.13-2-3.82,3,1.08,3.61Zm-.21-5.86L477,180l-2.84-1.88c-.86-.56-1.55-1.06-2.07-1.45.29.74.58,1.45.82,2.21Zm9.89-2.06-7.89-8.44,1.63-1.61,7.53,4,1.56.84-.84-1.77-3.54-7.81,1.45-1.45,7.92,8.43-1,1-6.61-7,4.22,9.41-1,1-9.1-4.83,6.76,7.2Zm8.93-9.17-5.92-11,1.06-1.31,11.72,3.88-1.12,1.34L495,162.83l-3.11,3.78,1.86,3.25Zm-1.49-5.67,2.52-3-3.18-1.18c-1-.35-1.75-.67-2.36-.91a16.87,16.87,0,0,1,1.29,1.91Zm10.41-5.76-3.85-3-7.87-.47,1.08-1.47,4.11.27a16.19,16.19,0,0,1,2.23.23c-.25-.66-.54-1.4-.85-2.28l-1.36-3.88,1.06-1.46,2.52,7.82,3.86,3Z"/><path class="cls-2" d="M40.66,196.73c-3,1.2-5,.85-8.21.85-2.1,0-3.46.06-5.37-.85-1.74-.81-2.37-2.56-4.33-2.56-2.6,0-3.22,2.64-5.13,4.41-1.24,1.2-2.88.52-4.14,1.72a7.35,7.35,0,0,0-2.32,6c0,2.38.34,4.31,2.14,5.65,1.35.91,2.69.25,4.18,1,1,.5.85,1.67,1.8,2.21,2.75,1.6,4.85,1,8,1h5.07c.62,0,.94.32,1.54.32h4l10.44-2.74s19.31-6,66.32-24.16c44.09-17.08,146.59-46.41,177.73-38.89,0,0-75.87,13.79-104.78,29.66-19.23,10.54,6.3,10.54,19.89,3.42,0,0,36.49-11.27,40.15-10.9,0,0,5.6,4.08,15.57.33s44.44-4.12,44.44-4.12,44.75-3.08,60-3.08c.32,0,73.62-10.9,88.53-8.85a119.38,119.38,0,0,1,11.94,1c3.64.68,14.94-1.72,2-4.78,0,0-56.69-8.19-125,1,0,0-58,9.53-65.33,9.22,0,0-9.95-.7,1-2.75s40.79-6.8,43.77-18.4c0,0-39.78,2-42.79,2.39s-10.29,2.38-16.57,3.07-49.08,5.45-141.92,26.6c0,0-69,20.12-74.29,20.79s-8.29,1.37-8.29,1.37"/><rect class="cls-1" y="251.83" width="10.21" height="47.12"/><path class="cls-1" d="M24.7,264.83v4.76h.2a10.46,10.46,0,0,1,4.55-4.33,13.12,13.12,0,0,1,5.71-1.34,15.68,15.68,0,0,1,6.08,1A9.12,9.12,0,0,1,45,267.77a11,11,0,0,1,1.91,4.42,27.12,27.12,0,0,1,.56,5.78v21H38.21V279.68c0-2.81-.42-4.91-1.29-6.3s-2.41-2.08-4.62-2.08c-2.51,0-4.33.77-5.45,2.28s-1.69,4-1.69,7.5V299H15.93V264.83Z"/><path class="cls-1" d="M70.66,264.83v6.28H63.89V288c0,1.57.25,2.65.79,3.16s1.55.8,3.11.8q.78,0,1.5-.06c.48,0,.93-.13,1.37-.22V299q-1.18.18-2.61.27c-1,0-1.89.07-2.79.07a26.4,26.4,0,0,1-4.07-.3,10.08,10.08,0,0,1-3.38-1.16,6.22,6.22,0,0,1-2.3-2.44,8.91,8.91,0,0,1-.85-4.16V271.11H49.07v-6.28h5.59V254.61h9.23v10.22Z"/><path class="cls-1" d="M82.68,290.76a8.12,8.12,0,0,0,6,2.06,8.24,8.24,0,0,0,4.82-1.42,6,6,0,0,0,2.47-3h8.12c-1.31,4.08-3.3,7-6,8.76a17.34,17.34,0,0,1-9.75,2.65,18.93,18.93,0,0,1-7.15-1.3,14.8,14.8,0,0,1-5.39-3.65,16.5,16.5,0,0,1-3.41-5.68,20.83,20.83,0,0,1-1.22-7.26,20.12,20.12,0,0,1,1.24-7.11,16.73,16.73,0,0,1,3.51-5.71,16.3,16.3,0,0,1,5.43-3.79,17.07,17.07,0,0,1,7-1.39,15.75,15.75,0,0,1,7.48,1.67,15.37,15.37,0,0,1,5.23,4.53,18.76,18.76,0,0,1,2.95,6.47,24,24,0,0,1,.65,7.57H80.4c.13,3,.89,5.25,2.28,6.6m10.43-17.95a6.48,6.48,0,0,0-5-1.83,8,8,0,0,0-3.67.75,6.91,6.91,0,0,0-2.34,1.88A6.77,6.77,0,0,0,80.83,276a10.85,10.85,0,0,0-.43,2.25h15a10.93,10.93,0,0,0-2.3-5.41"/><path class="cls-1" d="M116.6,264.83v6.34h.13a11.91,11.91,0,0,1,4.28-5.24,12.38,12.38,0,0,1,3.06-1.49,11,11,0,0,1,3.38-.52,7.4,7.4,0,0,1,2,.32V273a12.24,12.24,0,0,0-1.57-.24,15.09,15.09,0,0,0-1.75-.09,9.52,9.52,0,0,0-4.28.85,7.23,7.23,0,0,0-2.83,2.34,9.62,9.62,0,0,0-1.53,3.46,19.43,19.43,0,0,0-.45,4.3V299h-9.23V264.83Z"/><path class="cls-1" d="M140.78,264.83v4.76H141a10.62,10.62,0,0,1,4.55-4.33,13.2,13.2,0,0,1,5.72-1.34,15.68,15.68,0,0,1,6.08,1,9.15,9.15,0,0,1,3.75,2.84,11.27,11.27,0,0,1,1.91,4.42,29.25,29.25,0,0,1,.55,5.78v21H154.3V279.68q0-4.21-1.3-6.3c-.86-1.38-2.41-2.08-4.62-2.08-2.51,0-4.33.77-5.46,2.28s-1.69,4-1.69,7.5V299H132V264.83Z"/><path class="cls-1" d="M169.5,269.86a11.5,11.5,0,0,1,3.64-3.51,16.15,16.15,0,0,1,5-1.89,28,28,0,0,1,5.55-.54,37.44,37.44,0,0,1,5.14.36,15.57,15.57,0,0,1,4.74,1.41,9.39,9.39,0,0,1,3.51,2.94,8.26,8.26,0,0,1,1.36,5v17.75a36.62,36.62,0,0,0,.26,4.42,8.4,8.4,0,0,0,.92,3.17h-9.36a11.69,11.69,0,0,1-.42-1.62,15.1,15.1,0,0,1-.24-1.68,12,12,0,0,1-5.19,3.24,20.77,20.77,0,0,1-6.12.92,16.22,16.22,0,0,1-4.48-.6,10.36,10.36,0,0,1-3.64-1.85,8.59,8.59,0,0,1-2.43-3.16,10.8,10.8,0,0,1-.88-4.55,10.07,10.07,0,0,1,1-4.79,8.49,8.49,0,0,1,2.61-3,11.33,11.33,0,0,1,3.63-1.69,40,40,0,0,1,4.13-.89c1.4-.22,2.76-.4,4.1-.52a26.46,26.46,0,0,0,3.58-.59,6.31,6.31,0,0,0,2.47-1.16,2.58,2.58,0,0,0,.84-2.21,5,5,0,0,0-.48-2.4,3.59,3.59,0,0,0-1.31-1.39,5,5,0,0,0-1.89-.66,13.93,13.93,0,0,0-2.3-.18,6.88,6.88,0,0,0-4.29,1.21,5.26,5.26,0,0,0-1.82,3.93h-9.23a11,11,0,0,1,1.62-5.45m18.24,13.22c-.59.19-1.21.36-1.89.51s-1.37.23-2.1.31-1.49.2-2.22.34a16.34,16.34,0,0,0-2.06.52,6.4,6.4,0,0,0-1.75.89,4.43,4.43,0,0,0-1.19,1.42,4.64,4.64,0,0,0-.46,2.18,4.57,4.57,0,0,0,.46,2.11,3.42,3.42,0,0,0,1.23,1.35,5.07,5.07,0,0,0,1.82.69,10.82,10.82,0,0,0,2.15.2,8.13,8.13,0,0,0,4.22-.92,6.15,6.15,0,0,0,2.21-2.21,7.22,7.22,0,0,0,.88-2.6,18,18,0,0,0,.16-2.12v-3.49a4.21,4.21,0,0,1-1.46.82"/><path class="cls-1" d="M219.36,271a6.24,6.24,0,0,0-3.7,1,8.06,8.06,0,0,0-2.45,2.64,11.7,11.7,0,0,0-1.33,3.56,19.33,19.33,0,0,0-.38,3.85,19,19,0,0,0,.38,3.78,12.23,12.23,0,0,0,1.27,3.45,7.18,7.18,0,0,0,2.38,2.55,6.51,6.51,0,0,0,3.64,1,6.65,6.65,0,0,0,5.09-1.9,8.76,8.76,0,0,0,2.24-5h8.91q-.91,6.8-5.2,10.36a16.59,16.59,0,0,1-11,3.57,17.94,17.94,0,0,1-6.93-1.31,15.16,15.16,0,0,1-5.36-3.58,16.19,16.19,0,0,1-3.44-5.51,19.23,19.23,0,0,1-1.24-7,23.36,23.36,0,0,1,1.13-7.36,16.44,16.44,0,0,1,3.36-5.84,14.67,14.67,0,0,1,5.4-3.87,17.89,17.89,0,0,1,7.27-1.39,20.8,20.8,0,0,1,5.76.78,15,15,0,0,1,4.93,2.41,12.71,12.71,0,0,1,3.54,4,12.87,12.87,0,0,1,1.56,5.71h-9c-.6-3.91-2.87-5.88-6.81-5.88"/><path class="cls-1" d="M238.6,251.83h9.22v7.73H238.6ZM247.82,299H238.6V264.83h9.22Z"/><path class="cls-1" d="M253,274.49a15.53,15.53,0,0,1,9-9.3,19.35,19.35,0,0,1,7.16-1.27,19.66,19.66,0,0,1,7.19,1.27,15.47,15.47,0,0,1,9,9.3,21.37,21.37,0,0,1,1.23,7.43,20.94,20.94,0,0,1-1.23,7.39,15.73,15.73,0,0,1-3.51,5.63,15.1,15.1,0,0,1-5.48,3.61,19.87,19.87,0,0,1-7.19,1.26,19.55,19.55,0,0,1-7.16-1.26,15.07,15.07,0,0,1-5.45-3.61,15.73,15.73,0,0,1-3.51-5.63,20.94,20.94,0,0,1-1.23-7.39,21.37,21.37,0,0,1,1.23-7.43m8.38,11.43a10.94,10.94,0,0,0,1.35,3.49,7,7,0,0,0,2.5,2.49,7.54,7.54,0,0,0,3.89.92,7.77,7.77,0,0,0,3.93-.92,7.13,7.13,0,0,0,2.54-2.49,10.91,10.91,0,0,0,1.33-3.49,20.32,20.32,0,0,0,.38-4,20.67,20.67,0,0,0-.38-4,10.79,10.79,0,0,0-1.33-3.5,7.33,7.33,0,0,0-2.54-2.47,7.48,7.48,0,0,0-3.93-1,7.08,7.08,0,0,0-6.39,3.43,10.82,10.82,0,0,0-1.35,3.5,21.48,21.48,0,0,0-.38,4,21.11,21.11,0,0,0,.38,4"/><path class="cls-1" d="M299,264.83v4.76h.18a10.61,10.61,0,0,1,4.57-4.33,13.06,13.06,0,0,1,5.71-1.34,15.68,15.68,0,0,1,6.08,1,9.18,9.18,0,0,1,3.74,2.84,11.12,11.12,0,0,1,1.91,4.42,28.48,28.48,0,0,1,.56,5.78v21h-9.24V279.68q0-4.21-1.3-6.3c-.86-1.38-2.4-2.08-4.61-2.08-2.51,0-4.34.77-5.46,2.28s-1.68,4-1.68,7.5V299h-9.23V264.83Z"/><path class="cls-1" d="M327.77,269.86a11.1,11.1,0,0,1,3.64-3.51,16,16,0,0,1,5-1.89,28.09,28.09,0,0,1,5.56-.54,37.3,37.3,0,0,1,5.13.36,15.72,15.72,0,0,1,4.75,1.41,9.47,9.47,0,0,1,3.51,2.94,8.25,8.25,0,0,1,1.35,5v17.75a32.86,32.86,0,0,0,.28,4.42,7.93,7.93,0,0,0,.89,3.17h-9.36c-.16-.54-.3-1.07-.41-1.62a10.29,10.29,0,0,1-.22-1.68,12.2,12.2,0,0,1-5.21,3.24,20.75,20.75,0,0,1-6.11.92,16.19,16.19,0,0,1-4.49-.6,10.36,10.36,0,0,1-3.64-1.85A8.7,8.7,0,0,1,326,294.2a11,11,0,0,1-.87-4.55,10.07,10.07,0,0,1,1-4.79,8.47,8.47,0,0,1,2.6-3,11.53,11.53,0,0,1,3.63-1.69,40,40,0,0,1,4.13-.89c1.39-.22,2.77-.4,4.1-.52a25.77,25.77,0,0,0,3.57-.59,6.18,6.18,0,0,0,2.47-1.16,2.56,2.56,0,0,0,.85-2.21,4.91,4.91,0,0,0-.49-2.4,3.52,3.52,0,0,0-1.31-1.39,5,5,0,0,0-1.88-.66,13.85,13.85,0,0,0-2.3-.18,6.84,6.84,0,0,0-4.29,1.21,5.3,5.3,0,0,0-1.83,3.93h-9.22a10.83,10.83,0,0,1,1.63-5.45M346,283.08c-.58.19-1.2.36-1.88.51s-1.38.23-2.12.31-1.47.2-2.2.34a15.38,15.38,0,0,0-2.05.52,6.26,6.26,0,0,0-1.75.89,4.46,4.46,0,0,0-1.2,1.42,4.64,4.64,0,0,0-.46,2.18,4.57,4.57,0,0,0,.46,2.11,3.47,3.47,0,0,0,1.22,1.35,5.18,5.18,0,0,0,1.84.69,10.62,10.62,0,0,0,2.13.2,8.08,8.08,0,0,0,4.22-.92,6.18,6.18,0,0,0,2.22-2.21,7,7,0,0,0,.88-2.6,20.41,20.41,0,0,0,.16-2.12v-3.49a4.08,4.08,0,0,1-1.47.82"/><rect class="cls-1" x="361.82" y="251.83" width="9.23" height="47.12"/><path class="cls-1" d="M376.06,260.6l6.23-9.34H392.5l-10,9.34ZM385.55,299h-9.24V264.83h9.24Z"/><polygon class="cls-1" points="405.95 271.9 389.76 271.9 389.76 264.83 418.12 264.83 418.12 271.9 400.62 291.9 419.34 291.9 419.34 298.95 388.47 298.95 388.47 291.9 405.95 271.9"/><path class="cls-1" d="M423.24,269.86a11.1,11.1,0,0,1,3.64-3.51,16.19,16.19,0,0,1,5-1.89,28.14,28.14,0,0,1,5.55-.54,37.44,37.44,0,0,1,5.14.36,15.41,15.41,0,0,1,4.74,1.41,9.16,9.16,0,0,1,3.51,2.94,8.26,8.26,0,0,1,1.37,5v17.75a36.62,36.62,0,0,0,.26,4.42,8.06,8.06,0,0,0,.91,3.17H444a15.47,15.47,0,0,1-.43-1.62,15.1,15.1,0,0,1-.23-1.68,12,12,0,0,1-5.2,3.24,20.72,20.72,0,0,1-6.09.92,16.21,16.21,0,0,1-4.5-.6,10.27,10.27,0,0,1-3.64-1.85,8.51,8.51,0,0,1-2.44-3.16,11,11,0,0,1-.87-4.55,10,10,0,0,1,1-4.79,8.35,8.35,0,0,1,2.59-3,11.38,11.38,0,0,1,3.64-1.69,40,40,0,0,1,4.13-.89c1.39-.22,2.74-.4,4.09-.52a25.94,25.94,0,0,0,3.58-.59,6.31,6.31,0,0,0,2.47-1.16,2.58,2.58,0,0,0,.84-2.21,4.91,4.91,0,0,0-.48-2.4,3.64,3.64,0,0,0-1.3-1.39,5.11,5.11,0,0,0-1.89-.66,14,14,0,0,0-2.31-.18,6.85,6.85,0,0,0-4.28,1.21,5.3,5.3,0,0,0-1.83,3.93h-9.23a10.83,10.83,0,0,1,1.63-5.45m18.23,13.22c-.59.19-1.21.36-1.88.51s-1.38.23-2.11.31-1.48.2-2.22.34a16.64,16.64,0,0,0-2.05.52,6.33,6.33,0,0,0-1.74.89,4.39,4.39,0,0,0-1.22,1.42,4.64,4.64,0,0,0-.45,2.18,4.57,4.57,0,0,0,.45,2.11,3.52,3.52,0,0,0,1.24,1.35,5.35,5.35,0,0,0,1.83.69,10.72,10.72,0,0,0,2.14.2,8.08,8.08,0,0,0,4.22-.92,6.34,6.34,0,0,0,2.22-2.21,7.42,7.42,0,0,0,.88-2.6c.09-.89.15-1.59.15-2.12v-3.49a4.12,4.12,0,0,1-1.46.82"/><path class="cls-1" d="M475.49,264.83v6.28h-6.76V288a4.66,4.66,0,0,0,.78,3.16,4.5,4.5,0,0,0,3.12.8c.52,0,1,0,1.49-.06a13.09,13.09,0,0,0,1.37-.22V299c-.77.12-1.64.21-2.6.27s-1.88.07-2.8.07a26.23,26.23,0,0,1-4-.3,10.06,10.06,0,0,1-3.39-1.16,6.22,6.22,0,0,1-2.3-2.44,8.91,8.91,0,0,1-.84-4.16V271.11H453.9v-6.28h5.61V254.61h9.22v10.22Z"/><path class="cls-1" d="M487.52,290.76a9.32,9.32,0,0,0,10.79.64,6,6,0,0,0,2.47-3h8.12c-1.3,4.08-3.29,7-6,8.76a17.29,17.29,0,0,1-9.75,2.65,19,19,0,0,1-7.15-1.3,14.8,14.8,0,0,1-5.39-3.65,16.5,16.5,0,0,1-3.41-5.68,20.83,20.83,0,0,1-1.21-7.26,20.57,20.57,0,0,1,1.22-7.11,16.93,16.93,0,0,1,3.53-5.71,16.3,16.3,0,0,1,5.43-3.79,17,17,0,0,1,7-1.39,15.63,15.63,0,0,1,7.47,1.67,15.22,15.22,0,0,1,5.24,4.53,18.38,18.38,0,0,1,2.94,6.47,23.73,23.73,0,0,1,.66,7.57H485.24c.13,3,.88,5.25,2.28,6.6M498,272.81a6.5,6.5,0,0,0-5-1.83,7.92,7.92,0,0,0-3.66.75,6.76,6.76,0,0,0-2.35,1.88,7.31,7.31,0,0,0-1.23,2.36,12.36,12.36,0,0,0-.43,2.25h15a10.93,10.93,0,0,0-2.29-5.41"/></svg>