<svg id="Capa_1" data-name="Capa 1" xmlns="http://www.w3.org/2000/svg" viewBox="0 0 465.6 465.33"><defs><style>.cls-1{fill:#e86e6b;}</style></defs><path class="cls-1" d="M0,232.68c0-43.25-.09-86.5,0-129.75C.2,53.56,34,12.12,82.24,2.14A104.37,104.37,0,0,1,103,.11Q233-.07,363,.05A102.63,102.63,0,0,1,465.56,102.69q.07,129.76,0,259.5A102.67,102.67,0,0,1,362.33,465.28q-129.43.12-258.88,0C45.7,465.26.2,419.85.05,362.05,0,318.92,0,275.8,0,232.68m391.21.16c0-22.06,0-44.11,0-66.18a101.75,101.75,0,0,0-.66-13.06c-6.21-46.34-43.89-79.29-90.73-79.35q-67-.09-133.93,0a93.06,93.06,0,0,0-14.16.94c-45.59,7.11-77.4,44.38-77.4,90.52V300c0,50.9,39.89,91,90.83,91.09q67.71.14,135.43,0a87,87,0,0,0,13.4-1c45.34-7.2,77-44,77.23-89.91.12-22.43,0-44.88,0-67.31"/><path class="cls-1" d="M233,363.85q-33.67,0-67.34,0c-36.5-.06-64.14-27.68-64.16-64.21q-.06-66.93,0-133.86c0-36.55,27.62-64.2,64.12-64.25q67.14-.08,134.31,0c36.54,0,64.08,27.67,64.09,64.21V299.22c0,37.23-27.45,64.62-64.8,64.63H233m-.2-212.26c-44.45-.14-81,36.22-81.19,80.71a81.15,81.15,0,1,0,81.19-80.71M317.3,166.4a19.5,19.5,0,1,0-19.38-19.55A19.46,19.46,0,0,0,317.3,166.4"/><path class="cls-1" d="M178.87,232.71a53.94,53.94,0,1,1,54,53.86,53.86,53.86,0,0,1-54-53.86"/></svg>