<svg id="Capa_1" data-name="Capa 1" xmlns="http://www.w3.org/2000/svg" xmlns:xlink="http://www.w3.org/1999/xlink" viewBox="0 0 1025.03 707.87"><defs><style>.cls-1,.cls-14,.cls-15{fill:none;}.cls-2{clip-path:url(#clip-path);}.cls-3{fill:#d91c89;}.cls-4{clip-path:url(#clip-path-2);}.cls-10,.cls-11,.cls-13,.cls-5,.cls-7{fill:#fff;}.cls-12,.cls-6{fill:#1e1e1d;}.cls-10,.cls-11,.cls-13,.cls-14,.cls-15,.cls-6,.cls-7,.cls-8,.cls-9{stroke:#1e1e1d;stroke-width:1.53px;}.cls-15,.cls-6,.cls-7,.cls-8{stroke-miterlimit:10;}.cls-8,.cls-9{fill:#4b6fb5;}.cls-10,.cls-14,.cls-9{stroke-linecap:round;}.cls-10,.cls-11,.cls-13,.cls-14,.cls-9{stroke-linejoin:round;}.cls-13{stroke-linecap:square;}</style><clipPath id="clip-path"><rect id="SVGID" class="cls-1" x="-75.22" y="-67.91" width="1161.6" height="775.79"/></clipPath><clipPath id="clip-path-2"><rect id="SVGID-2" data-name="SVGID" class="cls-1" x="161.79" y="184.56" width="713.17" height="713.62" rx="356.59"/></clipPath></defs><g class="cls-2"><rect class="cls-3" x="162.5" y="186.01" width="713.17" height="713.62" rx="356.59"/><g class="cls-4"><path class="cls-5" d="M863.87,721.33c-23.38,0-41.62-7.48-59.27-14.71s-34.16-14-55.67-14-38.1,6.79-55.67,14S657.38,721.33,634,721.33s-41.62-7.48-59.26-14.71-34.17-14-55.67-14-38.1,6.8-55.67,14-35.89,14.71-59.27,14.71-41.63-7.48-59.27-14.71-34.16-14-55.67-14-38.1,6.8-55.67,14-35.89,14.71-59.27,14.71a113.5,113.5,0,0,1-31.08-4.44l2.57-8.4a104.26,104.26,0,0,0,28.51,4.09c21.51,0,38.11-6.8,55.67-14s35.89-14.7,59.27-14.7,41.63,7.47,59.27,14.7,34.16,14,55.67,14,38.1-6.8,55.67-14,35.89-14.7,59.27-14.7,41.62,7.47,59.27,14.7,34.16,14,55.66,14,38.11-6.8,55.67-14,35.89-14.7,59.27-14.7,41.63,7.47,59.27,14.7,34.16,14,55.67,14a104.2,104.2,0,0,0,28.51-4.09l2.57,8.4A113.5,113.5,0,0,1,863.87,721.33Z"/><path class="cls-5" d="M863.87,678.27c-23.38,0-41.62-7.47-59.27-14.7s-34.16-14-55.67-14-38.1,6.8-55.67,14-35.88,14.7-59.27,14.7-41.62-7.47-59.26-14.7-34.17-14-55.67-14-38.1,6.8-55.67,14-35.89,14.7-59.27,14.7-41.63-7.47-59.27-14.7-34.16-14-55.67-14-38.1,6.8-55.67,14-35.89,14.7-59.27,14.7a113.87,113.87,0,0,1-31.08-4.43l2.57-8.4a104.24,104.24,0,0,0,28.51,4.08c21.51,0,38.11-6.79,55.67-14s35.89-14.71,59.27-14.71,41.63,7.48,59.27,14.71,34.16,14,55.67,14,38.1-6.79,55.67-14,35.89-14.71,59.27-14.71,41.62,7.48,59.27,14.71,34.16,14,55.66,14,38.11-6.79,55.67-14,35.89-14.71,59.27-14.71,41.63,7.48,59.27,14.71,34.16,14,55.67,14a104.18,104.18,0,0,0,28.51-4.08l2.57,8.4A113.87,113.87,0,0,1,863.87,678.27Z"/><path class="cls-5" d="M863.87,635.22c-23.38,0-41.62-7.47-59.27-14.7s-34.16-14-55.67-14-38.1,6.8-55.67,14-35.88,14.7-59.27,14.7-41.62-7.47-59.26-14.7-34.17-14-55.67-14-38.1,6.8-55.67,14-35.89,14.7-59.27,14.7-41.63-7.47-59.27-14.7-34.16-14-55.67-14-38.1,6.8-55.67,14-35.89,14.7-59.27,14.7a113.5,113.5,0,0,1-31.08-4.44l2.57-8.39a104.24,104.24,0,0,0,28.51,4.08c21.51,0,38.11-6.8,55.67-14s35.89-14.7,59.27-14.7,41.63,7.48,59.27,14.7,34.16,14,55.67,14,38.1-6.8,55.67-14,35.89-14.7,59.27-14.7,41.62,7.48,59.27,14.7,34.16,14,55.66,14,38.11-6.8,55.67-14,35.89-14.7,59.27-14.7,41.63,7.48,59.27,14.7,34.16,14,55.67,14a104.18,104.18,0,0,0,28.51-4.08l2.57,8.39A113.45,113.45,0,0,1,863.87,635.22Z"/><path class="cls-5" d="M863.87,592.17c-23.38,0-41.62-7.48-59.27-14.7s-34.16-14-55.67-14-38.1,6.8-55.67,14-35.88,14.7-59.27,14.7-41.62-7.48-59.26-14.7-34.17-14-55.67-14-38.1,6.8-55.67,14-35.89,14.7-59.27,14.7-41.63-7.48-59.27-14.7-34.16-14-55.67-14-38.1,6.8-55.67,14-35.89,14.7-59.27,14.7a113.5,113.5,0,0,1-31.08-4.44l2.57-8.39a104.67,104.67,0,0,0,28.51,4.08c21.51,0,38.11-6.8,55.67-14s35.89-14.7,59.27-14.7,41.63,7.47,59.27,14.7,34.16,14,55.67,14,38.1-6.8,55.67-14,35.89-14.7,59.27-14.7,41.62,7.47,59.26,14.7,34.17,14,55.67,14,38.11-6.8,55.67-14,35.89-14.7,59.27-14.7,41.63,7.47,59.27,14.7,34.16,14,55.67,14a104.62,104.62,0,0,0,28.51-4.08l2.57,8.39A113.5,113.5,0,0,1,863.87,592.17Z"/></g></g><polygon class="cls-6" points="517.99 388.35 761.39 410.75 1015.44 464.21 887.41 480.18 635.06 455.83 517.99 388.35"/><polygon class="cls-7" points="1015.44 464.21 887.15 474.83 639.2 448.49 601.82 396.07 761.39 410.75 1015.44 464.21"/><polygon class="cls-8" points="442.48 392.8 243.92 3.48 412.38 475.54 442.48 392.8"/><polygon class="cls-7" points="442.48 392.8 243.92 3.48 412.38 475.54 442.48 392.8"/><polygon class="cls-9" points="506.38 294.26 626.08 411.95 678.05 213.1 686.06 222.28 696.38 221.78 626.14 678.77 604.58 671.99 586.18 700.21 506.38 294.26"/><polygon class="cls-10" points="508.45 296.4 626.08 411.95 678.05 213.1 686.06 222.28 696.38 221.78 626.14 678.77 604.58 671.99 586.25 698.84 508.45 296.4"/><polygon class="cls-10" points="586.25 698.84 678.05 213.1 592.32 418.89 610.27 457.02 586.25 698.84"/><polygon class="cls-11" points="696.38 221.78 732.48 282.01 679.27 238.56 678.05 213.1 686.06 222.28 696.38 221.78"/><polygon class="cls-6" points="686.06 222.28 732.48 282.01 696.38 221.78 686.06 222.28"/><path class="cls-5" d="M585.5,697.2h0l-80.54-66.87a1.61,1.61,0,0,0-1-.37,1.74,1.74,0,0,0-.45.06L431,651.4,376.94,395.53,506.16,294.1l.1,0,90.86,165.94L585.57,697.14Z"/><path class="cls-12" d="M506.63,294.71h0m-.65.5,90.37,165L584.87,695.7l-79.47-66a2.38,2.38,0,0,0-1.51-.55,2.59,2.59,0,0,0-.67.1l-71.71,21.17L377.78,395.8,506,295.21m.22-1.89a.81.81,0,0,0-.51.18L376.49,394.86a.83.83,0,0,0-.3.83l54,255.82a.82.82,0,0,0,.81.66l.24,0,72.44-21.39.23,0a.83.83,0,0,1,.54.19L585,697.78a.84.84,0,0,0,1.37-.61l11.55-237a.75.75,0,0,0-.1-.44L506.93,293.76a.83.83,0,0,0-.73-.44Z"/><path class="cls-9" d="M594.08,458.35l-218-63.17L167.43,445.81,0,532.45,357.35,528l236.73-69.19A.25.25,0,0,0,594.08,458.35Z"/><polygon class="cls-13" points="592.19 458.59 376.08 395.18 167.43 445.81 0 532.45 357.35 528.02 592.19 458.59"/><line class="cls-14" y1="532.45" x2="256.28" y2="464.59"/><line class="cls-14" x1="332.07" y1="443.87" x2="443.79" y2="414.94"/><line class="cls-15" x1="457.15" y1="498.52" x2="487.03" y2="542.47"/><line class="cls-15" x1="495.9" y1="561.85" x2="503.66" y2="630.75"/><path class="cls-15" d="M592.36,459.19l-64.31,64.35"/><line class="cls-15" x1="666.69" y1="414.94" x2="787.38" y2="432.16"/><path class="cls-15" d="M813.61,435.45l202.11,29.11"/></svg>