<svg id="Capa_1" data-name="Capa 1" xmlns="http://www.w3.org/2000/svg" viewBox="0 0 597.67 180.45"><defs><style>.cls-1{fill:#fff;fill-rule:evenodd;}</style></defs><path class="cls-1" d="M0,77.7c.33-2.93.61-5.91,1-8.86C2.07,59.92,3.12,51,4.39,42.1c.72-4.92,5.39-8.55,9.87-8.15,5.54.48,9.07,4,8.89,9.68-.19,5.92-1.06,11.79-1.54,17.69-1.07,13.45-2.16,26.89-3.07,40.36-.47,7.18,3.86,11.76,12.27,12.79a37.66,37.66,0,0,0,19.51-2.6c6.5-2.8,10.55-7.68,9.89-15.1-1.16-13-2.67-25.88-4.08-38.81-.19-1.87-.55-3.73-.91-5.6-1-5.74,1.16-9.4,6.46-10.84,6-1.64,10.62.44,12.25,6a77,77,0,0,1,2.76,13.18c1.82,15.93,1.82,32,1.44,48-.19,8.87-4.95,15.18-12.53,19.29-10,5.43-20.78,7.12-32,6.35a42.89,42.89,0,0,1-17.44-4.76C6.79,124.58,2,116.63,1,106.23c-.22-2.26-.63-4.48-1-6.74Z"/><path class="cls-1" d="M184.81,0c10.16,5.76,13.69,15.73,9,25.55-2.37,5-6.07,8.4-11.83,8.42s-9.58-3.25-11.87-8.28a19.68,19.68,0,0,1,1.44-20c1.85-2.82,4.62-4.37,7.57-5.71Z"/><path class="cls-1" d="M570.19,42.33c-7.11,0-13.81-.21-20.49.05-10.33.43-20.61,1.25-31,1.72-4.7.23-7.6-2.07-8.58-6.17A8.51,8.51,0,0,1,515,28.51a33.8,33.8,0,0,1,10.34-2.82c8.17-.75,16.35-1.17,24.57-1.35,11.1-.24,22.25-.38,33.36-.07,3.4.1,6.94,1.44,10.1,2.9,4.35,2,5.2,4.8,3.58,9.38a36.38,36.38,0,0,1-8.69,13.12C576.65,61.57,565,73.33,553.33,85.1c-4.83,4.87-9.69,9.68-15.12,15.11,2.21,0,3.74.12,5.24,0,12.81-1.08,25.61-2.22,38.42-3.28a51.92,51.92,0,0,1,9.4-.27c3.75.35,5.11,2.16,5.41,5.93.49,5.45-2,9.87-6.86,11.76a13.28,13.28,0,0,1-4.37.67c-15.11.36-30,2.82-44.86,5.12-5.84.88-11.66,1.81-17.54,2.54a11.06,11.06,0,0,1-4.65-.59c-7.43-2.46-9.7-6.1-8.17-13.29A27.25,27.25,0,0,1,518,95.23q24-24.28,48-48.47c1.36-1.38,2.66-2.81,4.2-4.43"/><path class="cls-1" d="M405,59.82c-.54-4-1.12-8.4-1.73-12.82-.31-2-2.1-2-3.33-1.62a82.1,82.1,0,0,0-12.1,4.53c-5.2,2.62-10.13,5.8-15.13,8.78-2.33,1.39-4.21,1.3-6.25-.42-4.44-3.75-5-12.48.2-16,13-8.73,26.91-14.1,42.89-12.46,5.38.55,7.82,2.48,9.15,7.7a34.07,34.07,0,0,1,1.37,8.63c0,6.07,1.71,11.8,2.92,17.66,1.69,8.35,3.08,16.75,4.34,25.15,1.22,8.11,2.08,16.28,3.14,24.42a6.26,6.26,0,0,1-3.09,6.35,6.56,6.56,0,0,1-7.25-.17c-2.86-2.18-4.64-2.12-7.38.14a27.37,27.37,0,0,1-15.47,5.85,49.93,49.93,0,0,1-20-2.57c-10.22-3.36-15.5-10.92-17.54-21a35.85,35.85,0,0,1,.55-16.22c2.5-10,8.63-16.94,18.39-19.87,8.36-2.5,17-4,26.36-6.06m6.67,32.32a.85.85,0,0,1,.26,0c-.52-3.66-1-7.32-1.62-11-.39-2.36-1.82-3.63-4.39-3.76a48.68,48.68,0,0,0-16.39,1.52c-6.43,1.88-10.93,5.8-12.77,12.4-2,7.33,2,14.39,9.49,15.82a52,52,0,0,0,13.35.82c8-.62,12-5.49,12.07-13.41V92.14"/><path class="cls-1" d="M234.5,49.36c.88,6.48,1.76,12.77,2.66,19.31,1.46-.15,3.24-.45,5-.48Q258,68,273.88,67.77h.48c3,.37,4.41,3.07,4.26,8.1-.11,3.8-1.72,5.74-4.65,6-11.86,1.11-23.73,2.28-35.57,3.41-1.37.12-1.94.62-1.94,2,0,8.52-.06,17,0,25.58a20.06,20.06,0,0,0,.78,3.91c1.1,5.45-1.28,8.94-6.71,9.9-3.66.66-7-.8-8.09-4.5a45.23,45.23,0,0,1-1.78-11.61c-.19-7.48.1-15,.22-22.49a4,4,0,0,0-1.58-3.82c-3.8-2.82-4.25-6.82-1.23-11.29a7.44,7.44,0,0,0,1.34-5.26c-.61-5.18-1.19-10.33-1.74-15.36-2.32-.27-4.39-.33-6.38-.73-3.41-.72-5.9-2.59-6.65-6.2a8,8,0,0,1,3.84-9c4.41-2.82,9.39-4,14.49-4.77,13-1.92,26-1.06,39,.24,4.25.43,8.46,1.07,12.68,1.62.23,0,.48,0,.71.08,4.84.82,7.73,3.79,7.24,7.46-.75,5.71-4,8.74-9.29,8.1a175,175,0,0,0-33.32-.45c-1.94.15-3.87.4-5.44.55"/><path class="cls-1" d="M323.92,79.61c5,4.29,9.74,8.38,14.51,12.5,2.25,2,4.48,4,6.72,6,3.19,2.88,3.42,6.6.59,9.53-3.24,3.41-6.21,3.31-9.69.49-9.42-7.66-19-15.09-28.6-22.59A13.6,13.6,0,0,0,305,84.42c1.54,6.08.68,11.79.25,17.46-.32,3.86-1.7,5.67-4.71,6.07-4.2.57-7.85-1.27-8.59-4.89a58.2,58.2,0,0,1-.6-9.18c-.06-1.9-.06-3.77,0-5.69a11.78,11.78,0,0,0-1.49-7c-1.46-2.33-1.1-4.81.62-7.06a4.49,4.49,0,0,0,.89-2.53q.08-16.69,0-33.39c0-3.27-.11-3.5,3.09-3.62,11.82-.39,23.66-.61,35.47-.93a28.4,28.4,0,0,1,13.15,2.38c5.71,2.69,8.76,7.29,9.44,13.48a25.11,25.11,0,0,1-2,13.41,16.24,16.24,0,0,1-4.41,5.41c-5.92,4.73-12.9,7.55-19.86,10.3-.73.27-1.41.57-2.3.94M305.56,68.76c1.59-.22,2.84-.26,4.07-.55,6.56-1.55,13.28-2.72,19.64-4.9,3.29-1.15,6.29-3.82,8.83-6.41,2.16-2.21,2.09-5.4.67-8.22s-3.91-2.88-6.53-2.7c-2,.13-3.94.27-5.88.47-6.29.6-12.53,1.24-18.8,1.89-1,.1-2.05.19-2,1.7.05,6.13,0,12.27,0,18.72"/><path class="cls-1" d="M109.74,79.39c.29,5.13.46,9.58.86,14,.61,7.39,1.41,14.76,2.09,22.15a18.2,18.2,0,0,1,0,3.54c-.2,2-.78,4-2.9,4.76a5,5,0,0,1-5.84-1.46c-1.48-2-3.09-4.44-3.38-6.84-1.12-9.45-1.84-19-2.53-28.49-.41-5.34-.5-10.71-.73-15.93-1.59-.88-3.32-1.45-4.52-2.57C89,65,90.32,59.92,95.35,58.2c1.16-.4,2.05-.65,2.23-2.24.35-2.88,1.79-4.18,4.31-4.49,2.85-.33,5.2.8,6.21,3.3a16.21,16.21,0,0,1,.92,4.35,46.52,46.52,0,0,1,0,4.73c14,6.55,25.62,16.34,37.63,26.43a25.55,25.55,0,0,0,0-3c-1.27-10.58-2.59-21.15-3.87-31.71a12.22,12.22,0,0,1,.08-3.77,5.9,5.9,0,0,1,5.77-5,5.18,5.18,0,0,1,5.63,4.38c.67,3.06.62,6.28,1.1,9.4,2.27,15.1,4.64,30.21,6.9,45.33a16.81,16.81,0,0,1,.17,5.15,6.11,6.11,0,0,1-4.29,4.93c-2.25.76-4-.37-5.48-1.94-1.94-2.14-3.57-4.63-5.67-6.62-9.94-9.42-21.28-17.08-32.47-24.89-1.35-1-2.73-1.84-4.8-3.23"/><path class="cls-1" d="M454.63,58.28c-.2,2.57-.53,5.14-.6,7.71-.4,10.17-.71,20.35-1.06,30.51a15.78,15.78,0,0,1-.27,2.58c-.41,2.12-1.27,4-3.63,4.47a5.12,5.12,0,0,1-5.73-2.42c-1.28-2.26-2.56-4.92-2.58-7.42-.12-11.66.21-23.33.32-35,.06-5.65,0-11.31,0-17a12,12,0,0,1,.39-2.8c1.11-4.37,3.71-6,7.86-4.33a12.63,12.63,0,0,1,6,4.65c6.15,10.12,14.83,17.78,23.54,25.45,3.55,3.12,7.27,6,10.95,9a11.31,11.31,0,0,0,1.41.81c0-2.6.15-5,0-7.27-.66-8.89-1.43-17.76-2.12-26.65a31.76,31.76,0,0,1-.11-4.25,6.14,6.14,0,0,1,5.84-6c3.24-.23,5.42,1.4,6.06,5a51.44,51.44,0,0,1,.22,6.58q1.19,21.74,2.4,43.45c.23,4.39.59,8.76.65,13.16a8.26,8.26,0,0,1-1.27,3.76c-1.5,2.86-3.57,3.49-6.17,1.54a17.23,17.23,0,0,1-4.95-5.3c-4.11-7.61-9.86-13.86-15.81-20-6.76-6.93-13.69-13.7-20.56-20.53l-.73.27"/><path class="cls-1" d="M198.54,80.15c0,8.51,0,17,0,25.59,0,6.1-2.95,10.48-8.16,13.45-2.73,1.56-7.17.4-9.83-2.54a18.73,18.73,0,0,1-4.68-12.37c-.31-11.68-.24-23.35-.2-35,0-4.87.37-9.77.55-14.65.34-8.1,6.77-12.67,14.63-10.37a10.22,10.22,0,0,1,7.69,10.33Z"/><path class="cls-1" d="M372.23,151.39v14.7c0,2.79-.05,5.59-.15,8.37-.06,2.2-1.09,4.16-3.46,3.54a4.83,4.83,0,0,1-2.8-3.7q.1-15.08.8-30.2c.07-1.47,1-3.62,2.12-4.08s3.24.55,4.22,1.57c6.8,7,13.44,14,20.1,21.14,1.06,1.11,2.07,2.28,3.13,3.42.34-.06.67-.13,1-.22-.34-8-.64-16.05-1.08-24.06-.13-2.33.07-4.59,2.83-4.32,1.21.12,3.05,2.16,3.17,3.42.61,7.38.83,14.79,1,22.19a60.35,60.35,0,0,1-.47,10.51,6.35,6.35,0,0,1-2.89,4.33c-.86.39-3.07-1.24-4.16-2.43-7.34-8.14-14.58-16.46-21.78-24.69-.54.15-1.08.35-1.6.51"/><path class="cls-1" d="M412.37,171.53V145c-1.84.32-3.3.88-4.6.62s-3.2-1.23-3.43-2.22,1-3.28,2-3.55c8.66-2.26,17.52-3.33,26,.52,11.44,5.13,13.28,20.84,3.49,29.17-7.7,6.58-17.19,8.1-26.82,8.59-1,0-2.19-1.66-3.29-2.55.93-1.15,1.7-2.65,2.91-3.39,1-.61,2.53-.46,3.74-.61m6.48-1.42c10.7-1.13,17.94-8.16,16.86-15.77-1-7.12-8.67-11.55-16.86-9.89Z"/><path class="cls-1" d="M589.24,166.09c0-6.5,0-12,0-17.49-.07-2.42-.42-4.83-.6-7.28-.16-2,.44-4,2.7-3.77,1.29.19,3.28,2.07,3.35,3.2q.57,16.75.45,33.47c0,1.35-1.51,3.65-2.48,3.75-1.4.13-3.34-1.06-4.29-2.28-6.62-8-13.07-16.23-19.58-24.39-.28.13-.61.22-.89.35-.27,6.44-.5,12.89-.74,19.37,0,1.2.35,2.62-.15,3.6-.7,1.35-1.91,3.17-3.18,3.4-2.22.42-3-1.6-3-3.63s.17-3.88.23-5.82c.25-8.25.39-16.51.8-24.72a5.43,5.43,0,0,1,2.19-3.94c.82-.42,3,.66,3.88,1.64,6,6.7,11.8,13.53,17.7,20.32,1,1.17,2,2.35,3.57,4.22"/><path class="cls-1" d="M556.12,158.24c0,10.83-7.49,19.67-17.12,20.08-11.78.54-21-10.69-19-23,2-12.07,11.88-19.32,22.51-16.43,8,2.19,13.59,10.17,13.63,19.4m-30.29.17c.29,7.12,4.72,12.73,11,13.65,5.25.8,11.14-3.41,12.34-9.56a21.9,21.9,0,0,0-.55-10,11.12,11.12,0,0,0-11-8c-4.54.11-8.85,3.37-10.57,8.2a47.71,47.71,0,0,0-1.23,5.68"/><path class="cls-1" d="M466.2,155.39c-1.27-3.29-2.25-6.24-3.59-9a3,3,0,0,0-2.73-1,53,53,0,0,0-9,4.15c-1.87,1.11-3.53,2.14-5.16.35-1.77-2-.74-3.82,1-5.31,4.87-4,10.23-6.8,16.71-5.25a7.22,7.22,0,0,1,4.33,3.3c4.74,9.25,6.91,19.1,5.17,29.57-.49,2.89-1.15,5.32-5.05,4.36-.76-.2-1.72.72-2.6.84-3.89.55-7.88,1.82-11.62,1.3a12.32,12.32,0,0,1-10.29-13.76,14,14,0,0,1,15.2-11.19,71.33,71.33,0,0,1,7.63,1.68m-8.62,19.18c5.22.05,9.54-3.5,9.62-7.92s-4-8.12-9.3-8.24S448.07,162,448,166.5c0,4.34,4.37,8,9.55,8.07"/><path class="cls-1" d="M306.38,154c4.87.28,9.46.38,14,.93,2.55.3,6.45.13,5.79,4.23s-4.12,2.12-6.55,2l-12.83-.67c0,5.56,0,10.49,0,15.42,0,2.25-.12,4.37-2.88,4.53s-3.32-1.91-3.34-4.19c0-3.24-.13-6.55-.23-9.78-.06-2.16.23-4.28-2.34-5.58-.7-.37-1.05-3.41-.58-3.73,4.8-3.16,1.5-7.65,2.68-12-1.44.63-2.19,1.25-2.88,1.18a29.16,29.16,0,0,1-4.37-1c.46-1.49.51-3.81,1.45-4.28a20,20,0,0,1,8.27-2.32c7,0,14.06.5,21.05.84,2.25.1,3.87,1.06,3.58,3.54s-2.07,2.87-4.28,2.7c-5.53-.5-11-.83-17-1.24.17,3.62.33,6.56.45,9.5"/><path class="cls-1" d="M474.22,161A27.81,27.81,0,0,1,479.66,144c6.22-8.33,19.4-7.42,24.25,1.71.57,1.12-.28,3-.46,4.55-1.58-.37-3.7-.25-4.68-1.24-4.74-4.83-8.12-5.8-12.3-2.85-4.91,3.48-7.57,13.83-4.91,19.22,3.57,7.27,14.93,8.7,19.73,2.34,1.39-1.77,2.88-2.82,4.87-1.42s1.47,3.35.3,5.14c-2.86,4.38-6.8,6.95-12.14,6.83-10.25-.25-20.73-6.28-20.1-17.35"/><path class="cls-1" d="M359,159.06c-.61,3.29-.89,6.84-1.94,10.13a12.53,12.53,0,0,1-12,9c-6.75.24-11.74-2.52-14.06-8.26-3.4-8.36-2.48-16.94-.47-25.41.23-1,2.73-2.42,3.39-2.07a4.84,4.84,0,0,1,2.39,3.68c-.06,3.46-1.05,7-1.12,10.47a33.93,33.93,0,0,0,1.09,9.33c1.13,4.35,4.13,6.26,8.35,6a6.89,6.89,0,0,0,7-6.66c.51-4.87.07-9.88-.09-14.81,0-1.29-.93-2.71-.67-3.9.32-1.53,1-3.6,2.19-4.13,2-.94,3.46.57,3.81,2.63.77,4.55,1.39,9.11,2.13,14"/><path class="cls-1" d="M516.08,163c0,2.8.33,5.62-.13,8.33-.2,1.23-.54,3.37-2.79,3.37-2.48-.68-2.94-2.14-3-3.28a145.55,145.55,0,0,1,0-16.71,4.52,4.52,0,0,1,2.92-3.23c2.12-.37,3.08,1.36,3,3.51-.05,2.66,0,5.34,0,8"/><path class="cls-1" d="M547.2,128.53c-.1,2.57-10.71,9.09-13.09,8.07a3.06,3.06,0,0,1-.43-5.35,74.21,74.21,0,0,1,8.9-5.51,3.07,3.07,0,0,1,4.62,2.79"/><path class="cls-1" d="M508,143.41c.32-2.27,1.33-4.39,4.31-4.53,2.35-.16,4.51,2.56,4.22,5.27s-1.49,4.67-4.47,4.7c-2.32,0-4.14-2.41-4.06-5.44"/></svg>