<svg xmlns="http://www.w3.org/2000/svg" xmlns:xlink="http://www.w3.org/1999/xlink" viewBox="0 0 1506.75 525.5"><defs><style>.cls-1{fill:none;}.cls-2{fill:#f7ac36;}.cls-3{clip-path:url(#clip-path);}.cls-4{fill:#fff;}.cls-5{fill:#1e1e1d;}.cls-6{fill:#d81c88;}</style><clipPath id="clip-path" transform="translate(0 -107.54)"><path class="cls-1" d="M138.32,465.47H833.5L769.65,340.22l51.69-14.86q24-54.71,48.1-109.4L849.73,101.74,680.91,27.5,535.77,0,330.1,11.68,204.82,33.3,157,131.73,90.82,217.47Z"/></clipPath></defs><g id="Capa_2" data-name="Capa 2"><g id="Capa_2-2" data-name="Capa 2"><path class="cls-2" d="M1383.75,465.47H123a123,123,0,0,1-123-123V331.25a123,123,0,0,1,123-123H1383.75a123,123,0,0,1,123,123v11.22A123,123,0,0,1,1383.75,465.47Z" transform="translate(0 -107.54)"/><g class="cls-3"><g id="Responsibility"><polygon class="cls-4" points="163.53 481.25 166.19 506.74 179.71 506.58 179.52 479.39 163.53 481.25"/><path d="M166.18,615.12a.83.83,0,0,1-.83-.75l-2.65-25.49a.83.83,0,0,1,.74-.92l16-1.87a.88.88,0,0,1,.66.21.82.82,0,0,1,.28.62l.19,27.19a.84.84,0,0,1-.84.85l-13.52.16Zm-1.72-25.59,2.48,23.9,11.92-.14-.18-25.41Z" transform="translate(0 -107.54)"/><polygon class="cls-4" points="284.8 476.75 297.6 504.42 310.6 504.42 302.15 474.72 284.8 476.75"/><path d="M310.6,612.81h-13a.82.82,0,0,1-.76-.49L284,584.64a.82.82,0,0,1,0-.76.85.85,0,0,1,.64-.43l17.36-2a.85.85,0,0,1,.91.6l8.44,29.7a.85.85,0,0,1-.81,1.08Zm-12.46-1.69h11.34l-7.94-27.94L286.05,585Z" transform="translate(0 -107.54)"/><path class="cls-4" d="M222.49,624.52c-4.74-5.63-16-14.52-42.49-22.15a3.48,3.48,0,0,0-3.6,1.07l-4.93,5.63-7.17-3.74a3.2,3.2,0,0,0-4.61,2.15,88.4,88.4,0,0,0-1.93,16.34,5.88,5.88,0,0,0,5.64,6c11.34.46,37.72,1.34,56.4.65A3.65,3.65,0,0,0,222.49,624.52Z" transform="translate(0 -107.54)"/><path d="M203.82,631.58c-15.82,0-32.56-.59-40.45-.9a6.76,6.76,0,0,1-6.45-6.88,88.87,88.87,0,0,1,1.94-16.49,4.05,4.05,0,0,1,5.83-2.73l6.58,3.43,4.49-5.13a4.36,4.36,0,0,1,4.48-1.32c26.22,7.55,37.8,16.36,42.89,22.42a4.4,4.4,0,0,1,.66,4.65,4.49,4.49,0,0,1-4,2.69C214.9,631.5,209.41,631.58,203.82,631.58Zm-41-25.77a2.34,2.34,0,0,0-2.31,1.85,87.79,87.79,0,0,0-1.91,16.18,5.07,5.07,0,0,0,4.83,5.15c10.68.43,37.53,1.35,56.34.64a2.76,2.76,0,0,0,2.47-1.68,2.68,2.68,0,0,0-.4-2.88c-4.94-5.88-16.26-14.45-42.07-21.89A2.65,2.65,0,0,0,177,604l-4.92,5.63a.84.84,0,0,1-1,.2l-7.17-3.74A2.34,2.34,0,0,0,162.82,605.81Z" transform="translate(0 -107.54)"/><path d="M217.27,626.93h0l-54.74-1.8a.85.85,0,0,1-.82-.87.87.87,0,0,1,.87-.82l54.75,1.81a.84.84,0,0,1,.82.87A.85.85,0,0,1,217.27,626.93Z" transform="translate(0 -107.54)"/><path d="M189.9,617.63a.81.81,0,0,1-.42-.12.84.84,0,0,1-.31-1.15l5.38-9.28a.84.84,0,0,1,1.46.85l-5.38,9.28A.85.85,0,0,1,189.9,617.63Z" transform="translate(0 -107.54)"/><path class="cls-4" d="M352.66,622.16c-4.74-5.63-16-14.53-42.48-22.15a3.51,3.51,0,0,0-3.61,1.06l-4.93,5.64L294.48,603a3.2,3.2,0,0,0-4.62,2.15,88.28,88.28,0,0,0-1.93,16.34,5.9,5.9,0,0,0,5.64,6c11.35.45,37.73,1.34,56.4.64A3.64,3.64,0,0,0,352.66,622.16Z" transform="translate(0 -107.54)"/><path d="M334,629.21c-15.82,0-32.57-.58-40.47-.9a6.76,6.76,0,0,1-6.45-6.87,89,89,0,0,1,2-16.5,4,4,0,0,1,2.22-2.8,4.06,4.06,0,0,1,3.61.08l6.58,3.43,4.49-5.13a4.36,4.36,0,0,1,4.47-1.33c26.22,7.56,37.8,16.37,42.9,22.43a4.42,4.42,0,0,1,.65,4.65,4.49,4.49,0,0,1-4,2.69C345.08,629.14,339.6,629.21,334,629.21Zm-41-25.77a2.4,2.4,0,0,0-1,.23,2.3,2.3,0,0,0-1.29,1.63,86.93,86.93,0,0,0-1.91,16.18,5.07,5.07,0,0,0,4.83,5.15c10.68.42,37.54,1.34,56.33.64a2.78,2.78,0,0,0,2.48-1.68,2.68,2.68,0,0,0-.41-2.89c-4.94-5.88-16.25-14.45-42.07-21.88a2.64,2.64,0,0,0-2.73.81l-4.93,5.63a.84.84,0,0,1-1,.2l-7.16-3.75A2.38,2.38,0,0,0,293,603.44Z" transform="translate(0 -107.54)"/><path d="M347.45,624.56h0l-54.75-1.81a.84.84,0,0,1,.06-1.68l54.74,1.81a.84.84,0,0,1,0,1.68Z" transform="translate(0 -107.54)"/><path d="M320.07,615.27a.81.81,0,0,1-.42-.12.85.85,0,0,1-.31-1.15l5.39-9.28a.84.84,0,0,1,1.15-.31.86.86,0,0,1,.31,1.16l-5.39,9.28A.84.84,0,0,1,320.07,615.27Z" transform="translate(0 -107.54)"/><path class="cls-5" d="M184.29,334.25s-14.36,19.26-19.1,53.37-3.29,72.1-6.87,88.95S147.56,552.24,162,591.26h21.22s30.12-156.59,40.73-181.83c0,0,8.1,22.43,12.11,43.84s3.31,48.75,12.7,72.26,36.52,66.7,36.52,66.7l23.3-1S270.65,427.9,266,348.62C266,348.62,212.05,319.06,184.29,334.25Z" transform="translate(0 -107.54)"/><path class="cls-4" d="M221.71,421.58l-.21,0a.84.84,0,0,1-.61-1L227.58,394a.86.86,0,0,1,.39-.52l7.23-4.28a.83.83,0,0,1,1.15.29.85.85,0,0,1-.29,1.16l-6.93,4.1-6.6,26.15A.84.84,0,0,1,221.71,421.58Z" transform="translate(0 -107.54)"/><path class="cls-4" d="M184.39,507.19a.84.84,0,0,1-.28-1.63c9.53-3.46,12.34-11.15,12.37-11.23a.83.83,0,0,1,1.07-.51.84.84,0,0,1,.52,1.07c-.12.34-3.07,8.51-13.39,12.25A.71.71,0,0,1,184.39,507.19Z" transform="translate(0 -107.54)"/><path class="cls-4" d="M331.05,157.11s16.18,55.45-17.06,54-10,3.25-41.66,5.35-45.44-2.64-78.84,51.16-39.56,69.18-10.07,87.18,80.42,2.14,88.91,9.42c11.52,9.88,21.38-24,27.34-52.07,3.59-16.91,20.15-56.52,37.06-60.1,21.86-4.64,43.22-28.43,25.59-84.15Z" transform="translate(0 -107.54)"/><path class="cls-5" d="M276.43,366.84a7.15,7.15,0,0,1-4.65-2c-3-2.58-12.95-1.93-24.46-1.17-19.41,1.28-46,3-64.34-8.17-11.31-6.9-16.91-13.09-18.72-20.69-3.21-13.52,5.77-31,28.52-67.66,30.48-49.11,44.88-49.81,71-51.08,2.71-.13,5.51-.27,8.48-.47,14.67-1,17.33-2.46,19.46-3.66,2.66-1.48,4.41-2.46,22.3-1.69,6.57.28,11.58-1.74,14.91-6,10.81-13.77,1.4-46.61,1.3-46.94a.85.85,0,0,1,.23-.85.81.81,0,0,1,.85-.18l31.28,10.8a.82.82,0,0,1,.52.54c8.84,27.92,8.7,50.92-.38,66.5a38.92,38.92,0,0,1-25.83,18.73c-16.44,3.49-33,43.26-36.42,59.46-7.08,33.36-14.53,51.59-22.12,54.16A6,6,0,0,1,276.43,366.84Zm-14.68-5.5c5.29,0,9.13.55,11.12,2.26,1.68,1.44,3.3,1.87,5,1.31,6.79-2.3,14.25-21.09,21-52.91,3.23-15.22,19.72-56.94,37.72-60.76a37.28,37.28,0,0,0,24.73-17.93c8.79-15.08,8.91-37.46.35-64.74l-29.35-10.14c1.8,6.87,8,34.06-2,46.9-3.69,4.71-9.18,6.95-16.31,6.64-17.41-.75-19.09.19-21.4,1.48s-5.13,2.88-20.18,3.88c-3,.2-5.79.33-8.51.46-25.56,1.25-39.64,1.94-69.66,50.29-22.48,36.22-31.38,53.45-28.3,66.38,1.69,7.12,7.06,13,18,19.64C201.76,365,228,363.29,247.21,362,252.79,361.66,257.7,361.34,261.75,361.34Z" transform="translate(0 -107.54)"/><path d="M277.06,199.05S264,187,259.21,184.16s-10.77-14.34,5.34-21.4c5.22-2.28,6.25-8.62,16.3-9.71s18.41,4,19.49,10.36-4.93,11.84-9.42,12.57S277.06,199.05,277.06,199.05Z" transform="translate(0 -107.54)"/><path class="cls-4" d="M299.77,184.15l1.4-2L295.63,175l-3.79-9.31c-10.73-.72-15,2.21-15.17,10.44-.09,5.27-2.87,5.4-2.87,5.4s-4.08-4.39-6.19.81,6.66,8.83,6.66,8.83l1.85,3.9L258,219.79s29.25,7.75,29.56,3.13a5,5,0,0,0-1-3.35c-3.37-4.59,2.72-17,2.72-17l9.76-3.94a3.77,3.77,0,0,0,2.21-4.54l-1.93-6.64A3.88,3.88,0,0,1,299.77,184.15Z" transform="translate(0 -107.54)"/><path class="cls-5" d="M283.37,225.2c-8,0-23.5-4-25.62-4.59a.83.83,0,0,1-.58-.54.87.87,0,0,1,.11-.78L275.15,195l-1.5-3.16c-1.64-.74-9-4.41-6.82-9.79q1.08-2.65,3.06-3c1.77-.33,3.44.94,4.16,1.59.56-.25,1.72-1.15,1.78-4.49.06-3.9,1.06-6.69,3.06-8.52,2.5-2.3,6.63-3.17,13-2.74a.86.86,0,0,1,.73.52l3.75,9.2,5.46,7a.83.83,0,0,1,0,1l-1.4,2a3,3,0,0,0-.41,2.57l1.93,6.64a4.6,4.6,0,0,1-2.7,5.56l-9.46,3.82c-1.69,3.55-5.1,12.52-2.66,15.85a5.78,5.78,0,0,1,1.2,3.91,1.85,1.85,0,0,1-.83,1.43A7.78,7.78,0,0,1,283.37,225.2Zm-24-5.91c9.7,2.49,24.72,5.51,27.17,3.75.12-.09.13-.14.13-.17a4.19,4.19,0,0,0-.88-2.8c-3.63-4.95,2.39-17.36,2.64-17.88a.86.86,0,0,1,.45-.41l9.76-3.94a2.92,2.92,0,0,0,1.71-3.52l-1.93-6.65a4.66,4.66,0,0,1,.65-4l1-1.51-5.15-6.6a.82.82,0,0,1-.12-.2l-3.59-8.82c-5.58-.32-9.16.42-11.23,2.33-1.66,1.52-2.46,3.84-2.52,7.31-.1,6-3.53,6.22-3.67,6.23a.91.91,0,0,1-.66-.27c-.44-.47-1.85-1.65-3-1.43-.71.13-1.31.8-1.79,2-1.78,4.37,6.12,7.7,6.2,7.73a.86.86,0,0,1,.44.42l1.85,3.9a.84.84,0,0,1-.09.86Zm40.39-35.14h0Z" transform="translate(0 -107.54)"/><polygon class="cls-4" points="817.37 450.27 827.54 477.7 813.12 482.12 802.25 456.62 817.37 450.27"/><path d="M813.12,590.51a.84.84,0,0,1-.77-.51l-10.88-25.51a.82.82,0,0,1,0-.65.85.85,0,0,1,.45-.46L817,557a.86.86,0,0,1,.67,0,.85.85,0,0,1,.45.48L828.33,585a.82.82,0,0,1,0,.67.85.85,0,0,1-.5.43l-14.42,4.42A.69.69,0,0,1,813.12,590.51Zm-9.76-25.9,10.24,24,12.84-3.94-9.56-25.76Z" transform="translate(0 -107.54)"/><path class="cls-4" d="M810.4,583.82a12.68,12.68,0,0,0,13.27-5.65l1.48-2.35a1.5,1.5,0,0,1,2.33-.25L840.66,589a6.74,6.74,0,0,1,.89,8.61,65.94,65.94,0,0,1-11,12.1c-9.13,7.67-15.68,21.64-26.66,20.56s-10.53-1.68-12.32-4.76,2-10.76,8.9-19.86c4.23-5.56,7.34-16.47,8.19-20.65A1.49,1.49,0,0,1,810.4,583.82Z" transform="translate(0 -107.54)"/><path d="M805.05,631.15c-.41,0-.84,0-1.26-.06-10.29-1-11-1.66-12.62-4.57l-.34-.61c-2.59-4.46,4.5-14.94,8.95-20.79,4-5.28,7.15-16,8-20.31a2.26,2.26,0,0,1,1-1.48,2.35,2.35,0,0,1,1.75-.34A11.9,11.9,0,0,0,823,577.72l1.49-2.35a2.28,2.28,0,0,1,1.72-1.07,2.33,2.33,0,0,1,1.92.68l13.18,13.41a7.61,7.61,0,0,1,1,9.69,67.89,67.89,0,0,1-11.16,12.26,73.31,73.31,0,0,0-8,8.37C817.8,624.83,812.36,631.15,805.05,631.15Zm5.05-46.52a.66.66,0,0,0-.36.11.62.62,0,0,0-.27.41c-.73,3.55-3.81,15-8.35,21-8.29,10.89-10,16.92-8.84,18.93l.36.62c1.27,2.28,1.54,2.76,11.31,3.72,7.08.69,12.31-5.37,17.85-11.8a74.82,74.82,0,0,1,8.19-8.56,65.76,65.76,0,0,0,10.88-11.95,5.9,5.9,0,0,0-.79-7.51l-13.21-13.43a.66.66,0,0,0-.53-.19.69.69,0,0,0-.48.3l-1.48,2.35a13.61,13.61,0,0,1-14.15,6Z" transform="translate(0 -107.54)"/><path d="M815.88,600.33h-.16l-10.41-2a.85.85,0,1,1,.32-1.66l10.41,2a.84.84,0,0,1-.16,1.67Z" transform="translate(0 -107.54)"/><path d="M813.28,607l-.17,0-11-2.17a.85.85,0,0,1,.32-1.66l11,2.18a.84.84,0,0,1-.16,1.67Z" transform="translate(0 -107.54)"/><path class="cls-4" d="M792,626.2s6.75,6.41,17.11-2.13c6.91-5.69,31.45-35.3,31.45-35.3l3.08,2.9a4.15,4.15,0,0,1,.39,5.59c-6,7.61-22.38,27.39-33,32.57C797.88,636.29,792,626.2,792,626.2Z" transform="translate(0 -107.54)"/><path d="M802.78,632.83a13.81,13.81,0,0,1-11.49-6.2.84.84,0,0,1,1.3-1c.27.25,6.39,5.75,16-2.17,6.76-5.58,31.09-34.9,31.33-35.19a.83.83,0,0,1,.6-.3.82.82,0,0,1,.63.22l3.08,2.9a5,5,0,0,1,.47,6.73c-6.45,8.13-22.6,27.6-33.26,32.81A19.69,19.69,0,0,1,802.78,632.83ZM795.83,629c2.82,2,7.67,3.61,14.87.09,10.35-5.07,26.3-24.31,32.68-32.35a3.32,3.32,0,0,0-.31-4.45L840.64,590c-3.82,4.59-24.6,29.46-31,34.72C803.85,629.51,799.05,629.78,795.83,629Z" transform="translate(0 -107.54)"/><polygon class="cls-4" points="739.03 460.34 748.06 499.77 731.93 508.69 720.75 465.85 739.03 460.34"/><path d="M731.93,617.08a.78.78,0,0,1-.33-.07.82.82,0,0,1-.48-.56L719.93,573.6a.85.85,0,0,1,.57-1l18.28-5.51a.87.87,0,0,1,.67.08.84.84,0,0,1,.4.54l9,39.44a.85.85,0,0,1-.41.92L732.34,617A.81.81,0,0,1,731.93,617.08ZM721.77,574l10.71,41,14.61-8.08L738.41,569Z" transform="translate(0 -107.54)"/><path class="cls-4" d="M750.39,605.43a146,146,0,0,1,1.35,17.24,7.85,7.85,0,0,1-6.91,7.8c-11.12,1.35-36.32,2.74-57.76.63-1.47-.14-4.06-1.24-4.76-4.93-2.34-12.4,19.11-15.29,42.66-24.11a2.53,2.53,0,0,1,2.67.57l2.51,2.48a8.73,8.73,0,0,0,9.53,1.85l7.73-3.25A2.16,2.16,0,0,1,750.39,605.43Z" transform="translate(0 -107.54)"/><path d="M711.68,633c-8.13,0-16.66-.31-24.69-1.1-2.09-.2-4.78-1.8-5.5-5.61-1.93-10.23,11-14.39,27.3-19.65,5.11-1.65,10.39-3.35,15.89-5.41a3.38,3.38,0,0,1,3.55.76l2.52,2.48a7.85,7.85,0,0,0,8.6,1.67l7.73-3.25a3,3,0,0,1,4.15,2.39,148.37,148.37,0,0,1,1.36,17.35,8.71,8.71,0,0,1-7.66,8.64A299.94,299.94,0,0,1,711.68,633Zm14.18-30.29a1.74,1.74,0,0,0-.59.1c-5.53,2.08-10.84,3.78-16,5.44-16.15,5.2-27.82,9-26.17,17.72.71,3.74,3.47,4.2,4,4.25,21.28,2.1,46.09.77,57.58-.63a7,7,0,0,0,6.17-7,146,146,0,0,0-1.34-17.13,1.32,1.32,0,0,0-.66-1,1.28,1.28,0,0,0-1.16-.07L740,607.74a9.56,9.56,0,0,1-10.45-2l-2.51-2.48A1.67,1.67,0,0,0,725.86,602.75Z" transform="translate(0 -107.54)"/><path class="cls-4" d="M751.73,621.72s0,.64,0,.95a7.85,7.85,0,0,1-6.91,7.8c-11.12,1.35-36.32,2.74-57.76.63-1.47-.14-4.06-1.24-4.76-4.93a16.53,16.53,0,0,1-.06-3.17l1.52.09a441.16,441.16,0,0,0,65-1.11Z" transform="translate(0 -107.54)"/><path d="M711.68,633c-8.13,0-16.66-.31-24.69-1.1-2.09-.2-4.78-1.8-5.5-5.61a16.13,16.13,0,0,1-.08-3.39.84.84,0,0,1,.89-.78l1.52.08a440.93,440.93,0,0,0,64.91-1.1l2.93-.26a.85.85,0,0,1,.64.21.9.9,0,0,1,.28.62v1a8.71,8.71,0,0,1-7.66,8.64A299.94,299.94,0,0,1,711.68,633Zm-28.63-9.15a11.92,11.92,0,0,0,.09,2.12c.71,3.74,3.47,4.2,4,4.25,21.28,2.1,46.09.77,57.58-.63a7,7,0,0,0,6.17-7v0l-2,.18a444.2,444.2,0,0,1-65.15,1.11Z" transform="translate(0 -107.54)"/><path d="M719.49,616.25a.83.83,0,0,1-.6-.26l-8.18-8.35a.84.84,0,0,1,1.2-1.18l8.18,8.35a.85.85,0,0,1-.6,1.44Z" transform="translate(0 -107.54)"/><path d="M711.39,617.05a.82.82,0,0,1-.61-.27l-6.54-6.92a.86.86,0,0,1,0-1.2.85.85,0,0,1,1.2,0l6.53,6.93a.84.84,0,0,1,0,1.19A.85.85,0,0,1,711.39,617.05Z" transform="translate(0 -107.54)"/><path class="cls-5" d="M662.51,372.52c-3.12,1.19-7.12,2.37-7.12,2.37s-.31,5.5,8.46,11.53c7,4.83,32.18,18.57,73,8.94C748.08,392.7,760,382.77,753,370.88c-9.37-15.85-50.47-12.66-50.47-12.66Z" transform="translate(0 -107.54)"/><path class="cls-5" d="M820.56,560.67c-33.71-88.56-55.93-90.61-68.48-112-13.27-22.59-13.4-41.54-16-66.19-1.93-18.09-13.8-35.46-13.49-37.68l-4,.35a37.13,37.13,0,0,0-2-4.39l-50.84,9s-17.43,57.63,7.48,126.2c18,49.59,42.17,99.63,49.58,115.19a7.87,7.87,0,0,0,8,4.43l8.69-.81c4.68-.56,6.41-6.74,6.72-9.66,1.48-13.94-.89-32.59-5.88-54.81-2.86-12.7-9.78-26.19-12.2-37.95-.65-3.19-1.27-6.28-1.85-9.25,4.21,6.15,7.93,11.53,10.61,15.6,10.76,16.38,53.4,57.31,62.41,72.12a7.7,7.7,0,0,0,7.27,3.69l7.57-2.72S822.81,566.57,820.56,560.67Z" transform="translate(0 -107.54)"/><path class="cls-4" d="M729.89,596.48a8.7,8.7,0,0,1-7.85-5l-1.2-2.53c-8.55-17.92-31.26-65.53-48.41-112.74-24.72-68.05-7.67-126.15-7.49-126.73a.83.83,0,0,1,.66-.59l50.83-9a.85.85,0,0,1,.88.41,36.85,36.85,0,0,1,1.82,3.92l3.36-.3a.86.86,0,0,1,.69.25.83.83,0,0,1,.22.7c0,.55,1.26,3.05,2.47,5.47,3.62,7.24,9.68,19.35,11,32,.34,3.26.65,6.42.94,9.5,1.9,19.8,3.54,36.91,15,56.36,3.5,6,7.85,10.48,12.89,15.72,13.26,13.8,31.42,32.7,55.66,96.38,2.47,6.48-6.35,11.91-6.73,12.14l-.15.08-7.57,2.71a.8.8,0,0,1-.21.05,8.5,8.5,0,0,1-8.07-4.09c-4.53-7.46-18-22-31.1-36-12.77-13.73-26-27.93-31.3-36-2.17-3.31-5-7.43-8.28-12.21q.52,2.57,1.06,5.22c1.21,5.89,3.53,12.13,6,18.74a151.91,151.91,0,0,1,6.21,19.2c5.37,23.88,7.3,41.9,5.9,55.08-.38,3.58-2.38,9.8-7.46,10.41l-8.71.81A9,9,0,0,1,729.89,596.48Zm-63.48-246c-1.6,5.78-15.71,61,7.6,125.17,17.12,47.13,39.81,94.69,48.35,112.6l1.2,2.52a7,7,0,0,0,7.18,4l8.71-.81c4-.48,5.66-6,6-8.91,1.38-13-.54-30.83-5.86-54.54a151.52,151.52,0,0,0-6.15-19c-2.48-6.68-4.82-13-6-19-.66-3.19-1.28-6.28-1.86-9.25a.85.85,0,0,1,.5-.94.84.84,0,0,1,1,.3l2.24,3.27c3.31,4.82,6.17,9,8.37,12.34,5.25,8,18.4,22.14,31.12,35.82,13.73,14.77,26.69,28.72,31.31,36.33a6.84,6.84,0,0,0,6.37,3.29l7.38-2.65c.77-.49,7.83-5.15,6-10.06-24.12-63.36-42.14-82.12-55.3-95.81-5.11-5.32-9.52-9.91-13.12-16-11.61-19.77-13.27-37.05-15.19-57.05-.29-3.08-.6-6.23-.94-9.48-1.32-12.35-7.29-24.3-10.86-31.43a44,44,0,0,1-2.5-5.43l-3.2.28a.84.84,0,0,1-.86-.53c-.74-1.85-1.34-3.11-1.68-3.76ZM814.18,571.79h0Z" transform="translate(0 -107.54)"/><path class="cls-4" d="M738.15,503.73a.83.83,0,0,1-.71-.38c-.05-.08-4.82-7.54-11.42-17l-.61-.87c-11.85-17-33.89-48.55-40.86-80.29a.85.85,0,0,1,.64-1,.86.86,0,0,1,1,.64c6.89,31.42,28.81,62.82,40.59,79.7l.61.87c6.63,9.5,11.41,17,11.46,17.06a.83.83,0,0,1-.26,1.16A.81.81,0,0,1,738.15,503.73Z" transform="translate(0 -107.54)"/><path class="cls-5" d="M671.39,199.09a21.92,21.92,0,0,1-2.1-8c-.33-5.86,1.15-14.57,10.72-21,15.91-10.76,33.51,7.5,40.43,9.58,8.8,2.65,24.29-4.24,30.11-3.28,5.38.88,25.92,1.07,30.19,26.69a51,51,0,0,1,.6,8.56c0,3.63.91,13.35,13.18,22,16.39,11.56,32.12,45.55,7.26,64.15-5.95,4.44-14,3.64-20.51,1.57a37.54,37.54,0,0,1-3.71-1.39c-3.74-1.63-7.85-6.64-12.34-5.84C752,294.37,710.09,314,713.51,266.59c1-13.32.74-22.17-11-24.94-4.55-1.06-12.52,2.36-21.33.24-18.75-4.5-14-25.36-10.36-32.27C673.47,204.51,672.42,201.32,671.39,199.09Z" transform="translate(0 -107.54)"/><path class="cls-4" d="M618.09,162.84a.43.43,0,0,1,.51-.39l3.36.6a.64.64,0,0,0,.74-.71,22.91,22.91,0,0,1-.18-6c.65-5.22-.89-14.64-1-17.67s.55-4.64,2.42-4.84a3.27,3.27,0,0,1,3.48,2.47c.1.38.21,1.19.35,2.15.69,4.71,9.47,10.65,9.47,10.65s.81,1.21.4,1.82l-3.93,6c-.68,1.18-.66,4-.43,6.76a1.3,1.3,0,0,0,1.15,1.19l3.78.43a.48.48,0,0,1,.42.45c.09,3.72,1.05,32,7.67,45.21,6.48,13,27.86,20.65,42,17.55,1.06-.24,2.14-.45,3.23-.65,9.78-1.74,20.81,2.53,30.86,7.58,15.81,8,15.23,21.09,12.77,38.06-1.88,13-5,8.05-6.63,25.25-2.53,26.94,15.41,61.4,22.8,72.13.58.85-18.63-9.95-30.62-11.6a66.87,66.87,0,0,0-34.27,4L658.11,375a1.3,1.3,0,0,1-1.8-1.26c.43-8.78,2.14-44.14,2.94-73.9a32,32,0,0,0-2.62-13.62L656,284.7a25.9,25.9,0,0,1,.11-21.56l2.85-6.27c-.15-.7-.33-1.12-.53-1.19-8.87-3-26.26-10.29-31.58-21.65C615.15,209.12,617.69,167.72,618.09,162.84Z" transform="translate(0 -107.54)"/><path class="cls-5" d="M657.6,375.94a2.13,2.13,0,0,1-2.13-2.25c.48-9.89,2.14-44.46,2.94-73.87a31,31,0,0,0-2.55-13.27L655.2,285a26.78,26.78,0,0,1,.12-22.24l2.73-6a3.23,3.23,0,0,0-.12-.37c-7.88-2.7-26.29-10.12-31.86-22-12.34-26.31-8.86-71.17-8.82-71.62h0a1.27,1.27,0,0,1,.5-.91,1.24,1.24,0,0,1,1-.24l3.07.55a23.78,23.78,0,0,1-.14-5.89c.44-3.48-.15-9-.57-13.05-.2-1.88-.37-3.51-.4-4.5-.05-2.48.26-5.37,3.18-5.69a4.13,4.13,0,0,1,4.39,3.1c.09.37.19,1,.31,1.86l.06.38c.52,3.56,6.75,8.48,9.11,10.07a.88.88,0,0,1,.23.24c.26.39,1,1.75.4,2.75l-3.93,6c-.25.43-.66,1.88-.3,6.22a.46.46,0,0,0,.41.42l3.77.43a1.31,1.31,0,0,1,1.17,1.27c.08,3.21,1,31.71,7.59,44.85s27.8,20,41.08,17.1c1.11-.24,2.21-.46,3.26-.65,10.59-1.88,22.34,3.11,31.39,7.66,16.28,8.19,15.69,21.88,13.23,38.93-.87,6-2,8.3-3.12,10.54-1.3,2.63-2.64,5.34-3.51,14.67-2.41,25.71,14.22,59.32,22.65,71.57a.92.92,0,0,1,0,1.07c-.5.57-.49.58-4.35-1.28-6-2.89-18.42-8.89-27-10.08A66.36,66.36,0,0,0,686.82,364l-28.39,11.74A2.19,2.19,0,0,1,657.6,375.94ZM618.9,163.36c-.33,4.75-2.8,45.81,8.69,70.32,5.36,11.41,23.53,18.63,31.09,21.2.66.22.91,1,1.08,1.81a.88.88,0,0,1,0,.53l-2.85,6.26a25.89,25.89,0,0,0-2.22,12.93,26.33,26.33,0,0,0,2.11,8l.66,1.51a32.92,32.92,0,0,1,2.69,14c-.8,29.44-2.46,64-3,73.92a.46.46,0,0,0,.63.44l28.4-11.74a68,68,0,0,1,34.71-4c8.88,1.22,21.48,7.3,27.53,10.23.25.11.49.23.72.35-8.86-14-23.7-45.68-21.39-70.34.9-9.65,2.31-12.5,3.68-15.26,1.09-2.23,2.13-4.33,3-10,2.44-16.92,3-29.48-12.32-37.18-8.82-4.44-20.23-9.3-30.34-7.51-1,.19-2.1.4-3.19.64-13.86,3-36.11-4.31-42.95-18-6.55-13.1-7.62-40.74-7.76-45.24l-3.45-.39a2.15,2.15,0,0,1-1.9-2c-.31-3.71-.13-6.08.54-7.25l4-6a2.78,2.78,0,0,0-.32-.76c-1.23-.86-9-6.4-9.68-11.13l-.06-.38c-.1-.72-.2-1.4-.27-1.68a2.46,2.46,0,0,0-2.58-1.85c-.85.1-1.75.49-1.67,4,0,.92.19,2.51.38,4.36.44,4.12,1,9.76.58,13.43a22.26,22.26,0,0,0,.17,5.73,1.48,1.48,0,0,1-1.71,1.66Zm39.24,93.12Z" transform="translate(0 -107.54)"/><path class="cls-5" d="M680.94,287.92a.84.84,0,0,1-.73-.42c-4.37-7.64-2.32-19-2.23-19.47a.83.83,0,0,1,1-.67.84.84,0,0,1,.68,1c0,.11-2,11.23,2,18.32a.85.85,0,0,1-.31,1.15A.83.83,0,0,1,680.94,287.92Z" transform="translate(0 -107.54)"/><path d="M634.77,165.75h-.09l-6.29-.66a.84.84,0,0,1,.18-1.68l6.29.66a.85.85,0,0,1,.75.93A.86.86,0,0,1,634.77,165.75Z" transform="translate(0 -107.54)"/><path class="cls-6" d="M332.82,140.13a98.36,98.36,0,0,1,73.3-31.74c21.13,0,40.47,6.77,57.49,20a117.75,117.75,0,0,1,23.21,24.35,117.59,117.59,0,0,1,23.31-24.25,92.06,92.06,0,0,1,57.57-19.75,98.46,98.46,0,0,1,73.17,32.07c18.69,20.37,29,48.17,28.89,78.28-.06,31-11.66,59.33-36.5,89.2-22.21,26.71-54.12,53.81-91.07,85.19-12.62,10.71-26.92,22.86-41.77,35.8a21.49,21.49,0,0,1-28.31-.06c-14.8-13-29.06-25.22-41.64-36-36.81-31.53-68.61-58.77-90.72-85.58-24.72-30-36.2-58.37-36.14-89.36C303.67,188.17,314.05,160.42,332.82,140.13Z" transform="translate(0 -107.54)"/><path class="cls-5" d="M486.3,435.41h-.05a22.24,22.24,0,0,1-14.69-5.56c-14.67-12.89-28.83-25-41.32-35.72l-.31-.27C393.07,362.3,361.25,335,339.1,308.17c-24.85-30.13-36.39-58.69-36.33-89.89.06-30.32,10.51-58.28,29.43-78.72a99.21,99.21,0,0,1,73.68-32h.24a93,93,0,0,1,58,20.18,118.56,118.56,0,0,1,22.69,23.59,118.42,118.42,0,0,1,22.79-23.49c17.22-13.26,36.75-20,58.09-19.92a99.27,99.27,0,0,1,73.79,32.34c18.83,20.53,29.17,48.54,29.11,78.85-.06,31.2-11.72,59.71-36.69,89.74-22.27,26.77-54.2,53.89-91.18,85.29l-.07.06c-12.6,10.7-26.87,22.82-41.69,35.73A22.27,22.27,0,0,1,486.3,435.41ZM333.44,140.7c-18.63,20.14-28.92,47.69-29,77.58-.07,30.79,11.36,59,35.94,88.82,22.06,26.76,53.83,54,90.62,85.48l.32.27c12.49,10.7,26.65,22.83,41.33,35.74a20.62,20.62,0,0,0,13.58,5.13h.05a20.59,20.59,0,0,0,13.56-5.08c14.83-12.92,29.11-25,41.7-35.74l.08-.07c36.92-31.34,68.8-58.42,91-85.08,24.71-29.71,36.24-57.88,36.3-88.66.06-29.89-10.12-57.49-28.66-77.71a97.61,97.61,0,0,0-72.56-31.79h-.21a91.22,91.22,0,0,0-56.84,19.57,117,117,0,0,0-23.14,24.08.84.84,0,0,1-.68.35h0a.86.86,0,0,1-.69-.35,117.17,117.17,0,0,0-23-24.19,91.31,91.31,0,0,0-57-19.82h-.24A97.55,97.55,0,0,0,333.44,140.7Z" transform="translate(0 -107.54)"/><path class="cls-4" d="M729,241.57c8.08,6.21,11.54,22.9,12.06,36.13l-1.7,33.09a14,14,0,0,1-12.13,14.43l-87.28,11-2.49-22.71,68.22-14.07a4.64,4.64,0,0,0,3.71-5.06l-2.56-24.07Z" transform="translate(0 -107.54)"/><path class="cls-4" d="M637.46,317l-6.68-.78a41.39,41.39,0,0,0-8.62-.09l-4.83.45a2.79,2.79,0,0,0-1.87.95l-.06.07a2.84,2.84,0,0,0,2,4.71l4.7.19a.27.27,0,0,1,.07.53l-8.12,2.39a5.53,5.53,0,0,1-2.29.18l-3.69-.5c-2.81-.38-5.9,1-6.7,3.6a1.89,1.89,0,0,0,1,2.36h0l5.14,1.79a32.67,32.67,0,0,0,16.17,1.37l15.3-2.59Z" transform="translate(0 -107.54)"/><path class="cls-5" d="M618.33,335.55a33.38,33.38,0,0,1-11-1.86l-5.14-1.79a2.76,2.76,0,0,1-1.58-3.43c.87-2.79,4.21-4.63,7.61-4.18l3.69.5a4.54,4.54,0,0,0,1.94-.15l4.8-1.41-1.25-.05a3.68,3.68,0,0,1-2.61-6.11l.06-.07a3.61,3.61,0,0,1,2.42-1.23l4.83-.45a41.76,41.76,0,0,1,8.8.1l6.67.77a.85.85,0,0,1-.19,1.68l-6.68-.78a40.45,40.45,0,0,0-8.45-.09l-4.82.44a2,2,0,0,0-1.31.67l-.06.07a2,2,0,0,0,1.41,3.31l4.71.2a1.11,1.11,0,0,1,.27,2.18l-8.12,2.39a6.36,6.36,0,0,1-2.64.2L608,326c-2.56-.35-5.15,1-5.78,3a1.06,1.06,0,0,0,.52,1.32l5.14,1.8a31.93,31.93,0,0,0,15.75,1.32l15.3-2.58a.84.84,0,1,1,.28,1.66l-15.3,2.59A33.46,33.46,0,0,1,618.33,335.55Z" transform="translate(0 -107.54)"/><path class="cls-5" d="M640,337.06a.8.8,0,0,1-.52-.18.81.81,0,0,1-.32-.57l-2.48-22.71a.83.83,0,0,1,.66-.91l68.22-14.07a3.8,3.8,0,0,0,3.05-4.15.91.91,0,0,1,0-.17l1.87-18.48a.84.84,0,1,1,1.68.17l-1.86,18.4a5.47,5.47,0,0,1-4.4,5.88L638.4,314.18l2.3,21.1,86.44-10.9a13.1,13.1,0,0,0,11.39-13.55l1.35-26.42a97.67,97.67,0,0,0-1.25-22.1,66.32,66.32,0,0,0-6-18.75.85.85,0,1,1,1.5-.78A68.11,68.11,0,0,1,740.29,262a99.94,99.94,0,0,1,1.28,22.49l-1.36,26.34a14.76,14.76,0,0,1-12.86,15.22l-87.29,11Z" transform="translate(0 -107.54)"/><path class="cls-4" d="M700.35,193c-3.11,1.23-4.67.86-8.49-1.14-7.44-3.9-10.44-12.28-12.57-8.53-1.87,3.26-1.17,5.6-5.93,9.35-.46.36-.28,1.12.11,1.56l2,2.51a4.34,4.34,0,0,1,.55,2.52c-.2,2-.67,6.15-.22,6.92,1.3,2.24,8.45,3.4,8.45,3.4l.82,14.86a7.83,7.83,0,0,1-2,5.71l-1.55,1.72s.1,4.14,12.74,4.85a26.05,26.05,0,0,0,8.56-1.39,1.44,1.44,0,0,0,.69-2.23c-2.12-2.84-7.16-10.26-5.71-27.51a1.5,1.5,0,0,1,.85-1.21c1.82-.86,6.79-3.47,6.75-7.15C705.36,193.37,702.62,192.14,700.35,193Z" transform="translate(0 -107.54)"/><path class="cls-5" d="M695,237.62c-.28,0-.55,0-.81,0-13.05-.73-13.53-5.16-13.55-5.67a.89.89,0,0,1,.22-.58l1.56-1.73a7.08,7.08,0,0,0,1.79-5.09l-.78-14.19c-2.07-.39-7.13-1.53-8.38-3.7-.47-.81-.34-3,.07-7l0-.43a3.81,3.81,0,0,0-.34-1.87l-2-2.54a2.26,2.26,0,0,1-.56-1.64,1.57,1.57,0,0,1,.59-1.11,11.42,11.42,0,0,0,4.42-6.14,17.37,17.37,0,0,1,1.29-3,2.39,2.39,0,0,1,1.75-1.36c1.39-.16,2.6,1.18,4.44,3.19a27.81,27.81,0,0,0,7.51,6.38c3.82,2,5.06,2.17,7.79,1.1a4.43,4.43,0,0,1,4.09.37,5.41,5.41,0,0,1,2.11,4.64c0,3.9-4.51,6.64-7.23,7.93a.62.62,0,0,0-.37.51c-1.47,17.5,3.81,24.61,5.55,26.94a2.31,2.31,0,0,1,.34,2.08,2.21,2.21,0,0,1-1.46,1.45A28.18,28.18,0,0,1,695,237.62Zm-12.58-5.48c.38.78,2.33,3.24,11.86,3.78a24.56,24.56,0,0,0,8.25-1.36.59.59,0,0,0,.37-.36.61.61,0,0,0-.1-.55c-1.83-2.47-7.39-10-5.87-28.09a2.32,2.32,0,0,1,1.33-1.9c1.89-.89,6.3-3.31,6.27-6.38a3.82,3.82,0,0,0-1.37-3.26,2.71,2.71,0,0,0-2.53-.2c-3.42,1.34-5.21.91-9.19-1.18a29.71,29.71,0,0,1-8-6.73c-1.1-1.21-2.48-2.72-3-2.65-.09,0-.26.15-.47.51a16,16,0,0,0-1.17,2.71,13.14,13.14,0,0,1-4.92,6.86.62.62,0,0,0,.17.37l2,2.54a5.05,5.05,0,0,1,.73,3.13l0,.43c-.14,1.46-.54,5.32-.27,6,.75,1.29,5,2.52,7.85,3a.83.83,0,0,1,.7.79l.83,14.86a8.8,8.8,0,0,1-2.23,6.31Z" transform="translate(0 -107.54)"/><path class="cls-4" d="M356.19,346.57s13.71,1.63,16.91,3.77,14.13,7.25,12.08,3.41-16.34-16.31-16.34-16.31,5.86-1.71,4.79-5.12-9.8-.32-12.68,0a14.05,14.05,0,0,0-5.65,2.3S349.93,344.58,356.19,346.57Z" transform="translate(0 -107.54)"/><path d="M384.53,355.94c-3.44,0-11-4.32-11.9-4.9-2.48-1.66-12.78-3.19-16.54-3.63l-.16,0a4.81,4.81,0,0,1-3.18-2.83c-1.59-3.94,1.67-10.06,1.81-10.32a.86.86,0,0,1,.25-.29,14.86,14.86,0,0,1,6-2.45c.63-.07,1.58-.29,2.7-.54,4.15-.94,9.84-2.24,10.89,1.13a3.36,3.36,0,0,1-.26,2.7,7.75,7.75,0,0,1-3.73,3c3.38,3,13.68,12.28,15.47,15.62.67,1.25.23,1.92-.08,2.21A1.92,1.92,0,0,1,384.53,355.94Zm-28.16-10.2c1.26.16,14,1.74,17.2,3.89,2.91,1.94,9.29,4.7,10.94,4.68a1.18,1.18,0,0,0-.08-.16c-1.56-2.93-11.25-11.8-16.15-16.08a.82.82,0,0,1-.26-.81.81.81,0,0,1,.58-.63c.89-.26,3.34-1.24,4.1-2.66a1.75,1.75,0,0,0,.13-1.4c-.59-1.88-6-.64-8.91,0-1.16.26-2.16.49-2.88.57a12.84,12.84,0,0,0-5.09,2c-.5,1-2.8,5.82-1.63,8.71A3.12,3.12,0,0,0,356.37,345.74Z" transform="translate(0 -107.54)"/><path class="cls-4" d="M214,265.56s23.85,121.05,146.23,86.22L355,333.42s-77.19,5.76-97.9-75.36C257.05,258.06,240.84,229.52,214,265.56Z" transform="translate(0 -107.54)"/><path class="cls-5" d="M318.59,358.92c-19.54,0-37.07-4.71-52.4-14.1-42.05-25.74-52.89-78.57-53-79.1a.85.85,0,1,1,1.66-.32c.1.52,10.81,52.64,52.22,78,25,15.3,56,17.93,92.14,7.8l-4.89-16.89a103.43,103.43,0,0,1-29.16-3.5c-15.34-4.05-36.93-13.59-52.65-36a.84.84,0,0,1,1.38-1c29.51,42,80.48,38.76,81,38.72a.83.83,0,0,1,.87.61l5.32,18.35a.87.87,0,0,1-.58,1A153.52,153.52,0,0,1,318.59,358.92Z" transform="translate(0 -107.54)"/></g><polygon class="cls-4" points="451.76 134.99 495.48 63.42 525.15 177.41 498.09 184.17 451.76 134.99"/><path class="cls-5" d="M498.09,292.45a.73.73,0,0,1-.54-.23L451.22,243a.77.77,0,0,1-.09-.9l43.72-71.56a.74.74,0,0,1,.74-.35.73.73,0,0,1,.61.54l29.67,114a.74.74,0,0,1-.54.91l-27.06,6.76A.55.55,0,0,1,498.09,292.45Zm-45.4-50,45.64,48.46,25.92-6.48-29-111.58Z" transform="translate(0 -107.54)"/><polygon class="cls-5" points="413.15 84.97 404.58 96.84 415.04 93.95 413.15 84.97"/><path class="cls-5" d="M404.58,204.75a.37.37,0,0,1-.3-.16.36.36,0,0,1,0-.42l8.58-11.87a.37.37,0,0,1,.66.14l1.88,9a.37.37,0,0,1-.27.43l-10.45,2.89ZM413,193.41l-7.46,10.33,9.1-2.51Z" transform="translate(0 -107.54)"/><polygon class="cls-5" points="451.76 134.99 471.54 147.48 457.75 148.78 451.76 134.99"/><path class="cls-5" d="M457.75,256.69a.38.38,0,0,1-.34-.22l-6-13.79a.38.38,0,0,1,.1-.43.38.38,0,0,1,.44,0l19.78,12.5a.36.36,0,0,1,.16.4.39.39,0,0,1-.32.28l-13.8,1.3Zm-5.17-13.21,5.4,12.45,12.45-1.18Z" transform="translate(0 -107.54)"/><polygon class="cls-5" points="497.31 142.27 518.64 176.88 504.59 180.79 497.31 142.27"/><path class="cls-5" d="M504.59,288.7a.41.41,0,0,1-.19-.05.39.39,0,0,1-.17-.25l-7.29-38.52a.38.38,0,0,1,.23-.41.36.36,0,0,1,.45.15L519,284.23a.38.38,0,0,1,0,.33.35.35,0,0,1-.25.22l-14.05,3.91Zm-6.55-37,6.84,36.16,13.19-3.67Z" transform="translate(0 -107.54)"/><polygon class="cls-4" points="501.21 176.36 620.4 165.17 528.01 209.94 515.52 218.52 501.21 176.36"/><path class="cls-5" d="M515.52,326.81a.93.93,0,0,1-.23,0,.78.78,0,0,1-.47-.47l-14.31-42.16a.73.73,0,0,1,.08-.64.72.72,0,0,1,.55-.33L620.33,272a.72.72,0,0,1,.78.54.73.73,0,0,1-.39.86l-92.33,44.74-12.45,8.56A.77.77,0,0,1,515.52,326.81Zm-13.31-42.25,13.7,40.34,11.68-8,.1-.06,88.7-43Z" transform="translate(0 -107.54)"/><polygon class="cls-4" points="453.85 148.78 497.31 142.27 517.34 221.13 453.85 148.78"/><path class="cls-5" d="M517.34,329.41a.75.75,0,0,1-.55-.25l-63.5-72.35a.74.74,0,0,1-.14-.74.73.73,0,0,1,.59-.48l43.46-6.51a.73.73,0,0,1,.82.55l20,78.86a.75.75,0,0,1-.72.92Zm-62-72.56,60.57,69-19.12-75.21Z" transform="translate(0 -107.54)"/><polygon class="cls-4" points="413.15 84.97 417.06 81.37 425.45 87.97 453.66 139.57 426.36 155.77 413.15 84.97"/><path class="cls-5" d="M426.36,264.05a.81.81,0,0,1-.31-.06.73.73,0,0,1-.42-.54l-13.2-70.8a.74.74,0,0,1,.22-.68l3.9-3.6a.74.74,0,0,1,1,0l8.4,6.6a.6.6,0,0,1,.19.23l28.21,51.6a.73.73,0,0,1-.28,1L426.73,264A.69.69,0,0,1,426.36,264.05ZM414,192.78l12.93,69.36,25.77-15.3L424.88,196l-7.79-6.12Z" transform="translate(0 -107.54)"/><path class="cls-5" d="M421.26,195h-.1l-8.1-2.1a.36.36,0,0,1-.26-.45.37.37,0,0,1,.45-.27l8.1,2.1a.37.37,0,0,1-.09.73Z" transform="translate(0 -107.54)"/><polygon class="cls-4" points="451.76 134.99 385.4 185.73 517.34 221.13 451.76 134.99"/><path class="cls-5" d="M517.34,329.41l-.19,0L385.21,294a.74.74,0,0,1-.26-1.3l66.36-50.75a.78.78,0,0,1,.55-.15.74.74,0,0,1,.49.29l65.58,86.14a.75.75,0,0,1,0,.86A.74.74,0,0,1,517.34,329.41ZM387.05,293l128.39,34.44-63.82-83.82Z" transform="translate(0 -107.54)"/><path class="cls-5" d="M426.5,287a.38.38,0,0,1-.37-.31.37.37,0,0,1,.31-.42l48.69-7.92a.36.36,0,0,1,.42.3.38.38,0,0,1-.31.43L426.56,287Z" transform="translate(0 -107.54)"/><path class="cls-5" d="M387.22,293.38a.37.37,0,0,1-.06-.73L421.75,287a.37.37,0,0,1,.42.31.36.36,0,0,1-.3.42l-34.59,5.63Z" transform="translate(0 -107.54)"/><path class="cls-5" d="M516.09,307.78a.4.4,0,0,1-.23-.08l-2.65-2.17a.37.37,0,1,1,.46-.57l2.66,2.16a.39.39,0,0,1,0,.53A.39.39,0,0,1,516.09,307.78Z" transform="translate(0 -107.54)"/><path class="cls-5" d="M526.19,316a.35.35,0,0,1-.23-.09l-7.9-6.45a.37.37,0,1,1,.47-.57l7.9,6.45a.37.37,0,0,1-.24.66Z" transform="translate(0 -107.54)"/><path class="cls-5" d="M490.54,247.06h0a.37.37,0,0,1-.35-.39l.49-8a.35.35,0,0,1,.39-.35.38.38,0,0,1,.35.39l-.49,8.05A.37.37,0,0,1,490.54,247.06Z" transform="translate(0 -107.54)"/><path class="cls-5" d="M491.31,234.32h0a.37.37,0,0,1-.35-.39l3.39-56a.36.36,0,0,1,.4-.35.37.37,0,0,1,.34.39l-3.39,56A.36.36,0,0,1,491.31,234.32Z" transform="translate(0 -107.54)"/></g><path class="cls-4" d="M893.52,296.42V259h18.75v37c0,9.61,4.85,14.18,12.27,14.18s12.28-4.38,12.28-13.7V259h18.74V296c0,21.5-12.27,30.92-31.21,30.92S893.52,317.26,893.52,296.42Zm33.5-59,16.84,5.42-14,12.18H917.12Z" transform="translate(0 -107.54)"/><path class="cls-4" d="M966.51,259h17.22l27.4,35.2V259h18.27v66.6h-16.17L984.78,289.1v36.53H966.51Z" transform="translate(0 -107.54)"/><path class="cls-4" d="M1041.2,259h53.57v15.7h-35.3v10.08h32v14.56h-32v10.56h35.78v15.7h-54Z" transform="translate(0 -107.54)"/><path class="cls-4" d="M1120.94,275.2h-20V259h58.43V275.2h-20v50.43h-18.46Z" transform="translate(0 -107.54)"/><path class="cls-4" d="M1167.46,259H1221v15.7h-35.31v10.08h32v14.56h-32v10.56h35.78v15.7h-54Z" transform="translate(0 -107.54)"/><path class="cls-4" d="M1280.31,258.55h17.8l28.35,67.08h-19.79l-4.85-11.89h-25.69l-4.76,11.89H1252Zm16.18,40.82-7.42-18.93-7.52,18.93Z" transform="translate(0 -107.54)"/><path class="cls-4" d="M845.14,349h17.22l27.41,35.21V349H908v66.61H891.86L863.41,379v36.54H845.14Z" transform="translate(0 -107.54)"/><path class="cls-4" d="M917.55,382.44v-.19c0-19.12,15.41-34.63,36-34.63s35.77,15.32,35.77,34.44v.19c0,19.13-15.41,34.64-36,34.64S917.55,401.57,917.55,382.44Zm52.9,0v-.19c0-9.61-6.94-18-17.12-18s-16.85,8.18-16.85,17.79v.19c0,9.61,6.95,18,17,18S970.45,392.06,970.45,382.44Z" transform="translate(0 -107.54)"/><path class="cls-4" d="M993.39,405.66l10.27-12.27c6.57,5.23,13.89,8,21.6,8,5,0,7.61-1.71,7.61-4.57v-.19c0-2.76-2.18-4.28-11.22-6.37-14.18-3.24-25.12-7.23-25.12-20.94v-.19c0-12.37,9.8-21.31,25.78-21.31,11.33,0,20.18,3,27.41,8.85l-9.23,13c-6.09-4.28-12.75-6.56-18.65-6.56-4.48,0-6.66,1.9-6.66,4.28v.19c0,3,2.28,4.38,11.51,6.47,15.32,3.33,24.83,8.28,24.83,20.74V395c0,13.61-10.75,21.7-26.92,21.7C1012.8,416.7,1001.57,413,993.39,405.66Z" transform="translate(0 -107.54)"/><path class="cls-4" d="M1058.18,382.44v-.19c0-19.12,15.42-34.63,36-34.63s35.78,15.32,35.78,34.44v.19c0,19.13-15.42,34.64-36,34.64S1058.18,401.57,1058.18,382.44Zm52.91,0v-.19c0-9.61-6.95-18-17.13-18s-16.84,8.18-16.84,17.79v.19c0,9.61,7,18,17,18S1111.09,392.06,1111.09,382.44Z" transform="translate(0 -107.54)"/><path class="cls-4" d="M1153,365.13h-20V349h58.43v16.18h-20v50.43H1153Z" transform="translate(0 -107.54)"/><path class="cls-4" d="M1199.48,349H1231c10.18,0,17.22,2.66,21.69,7.23,3.91,3.81,5.9,8.95,5.9,15.51v.19c0,10.18-5.42,16.94-13.7,20.46l15.89,23.22h-21.31L1226,395.39h-8.09v20.17h-18.46Zm30.64,32c6.28,0,9.9-3,9.9-7.9v-.19c0-5.23-3.81-7.89-10-7.89h-12.09v16Z" transform="translate(0 -107.54)"/><path class="cls-4" d="M1265.61,382.44v-.19c0-19.12,15.42-34.63,36-34.63s35.78,15.32,35.78,34.44v.19c0,19.13-15.41,34.64-36,34.64S1265.61,401.57,1265.61,382.44Zm52.91,0v-.19c0-9.61-7-18-17.13-18s-16.84,8.18-16.84,17.79v.19c0,9.61,7,18,17,18S1318.52,392.06,1318.52,382.44Z" transform="translate(0 -107.54)"/><path class="cls-4" d="M1341.45,405.66l10.28-12.27c6.56,5.23,13.89,8,21.6,8,5,0,7.61-1.71,7.61-4.57v-.19c0-2.76-2.19-4.28-11.23-6.37-14.18-3.24-25.12-7.23-25.12-20.94v-.19c0-12.37,9.8-21.31,25.79-21.31,11.32,0,20.17,3,27.4,8.85l-9.23,13c-6.09-4.28-12.75-6.56-18.65-6.56-4.47,0-6.66,1.9-6.66,4.28v.19c0,3,2.29,4.38,11.51,6.47,15.32,3.33,24.84,8.28,24.84,20.74V395c0,13.61-10.75,21.7-26.93,21.7C1360.86,416.7,1349.63,413,1341.45,405.66Z" transform="translate(0 -107.54)"/></g></g></svg>