<svg xmlns="http://www.w3.org/2000/svg" viewBox="0 0 390.3 210.21"><defs><style>.cls-1{fill:#e32921;}.cls-2{fill:#fff;}.cls-3{fill:#f1e526;}.cls-4{fill:#1d1d1b;}.cls-5{fill:#244c99;}</style></defs><g id="Capa_2" data-name="Capa 2"><g id="Capa_2-2" data-name="Capa 2"><path class="cls-1" d="M31.16,210.21C10.84,210.38.49,197.68.32,177.35L0,141.16C-.17,120.84,10,108,30.28,107.77l76.25-.66c20.32-.17,30.67,12.53,30.84,32.85l.32,36.2c.17,20.33-10,33.21-30.27,33.39l-76.26.66"/><path class="cls-2" d="M40.65,128.52l0,4.21a2.07,2.07,0,0,1-2.08,2.12l-5.92.05.48,54.52a2.15,2.15,0,0,1-2.09,2.12l-4.2,0a2.16,2.16,0,0,1-2.12-2.08L24.29,135l-5.92.05a2.07,2.07,0,0,1-2.11-2.08l0-4.2a2.06,2.06,0,0,1,2.08-2.12l20.24-.18A2.07,2.07,0,0,1,40.65,128.52Z"/><path class="cls-2" d="M80,147.5a15.12,15.12,0,0,1-4.5,11.07,14.9,14.9,0,0,1,4.69,10.87L80.33,189a2.16,2.16,0,0,1-2.08,2.11l-4.21,0a2.16,2.16,0,0,1-2.12-2.08l-.16-19.58A6.74,6.74,0,0,0,65,162.87l-6.69.06.22,26.27a2.24,2.24,0,0,1-2.08,2.12l-4.21,0a2.16,2.16,0,0,1-2.12-2.08l-.51-58.73a4.15,4.15,0,0,1,4.17-4.24l10.91-.1a15.12,15.12,0,0,1,15.24,15Zm-8.46-6.23a6.73,6.73,0,0,0-6.76-6.65l-6.7.06.17,19.84,6.7-.06a6.75,6.75,0,0,0,6.64-6.89Z"/><path class="cls-2" d="M121.06,127.83l.41,47.69a15.18,15.18,0,1,1-30.35.26l-.41-47.69A2.16,2.16,0,0,1,92.79,126l4.2,0A2.09,2.09,0,0,1,99.12,128l.41,47.69a6.77,6.77,0,1,0,13.53-.12l-.41-47.69a2.07,2.07,0,0,1,2.08-2.12l4.21,0A2.08,2.08,0,0,1,121.06,127.83Z"/><path class="cls-3" d="M246.76,158.22a50.83,50.83,0,1,1-51.27-50.39A50.82,50.82,0,0,1,246.76,158.22Z"/><path class="cls-2" d="M195.61,121.09a37.57,37.57,0,1,0,37.89,37.24A37.58,37.58,0,0,0,195.61,121.09Z"/><path class="cls-4" d="M194.09,136.81l.15,16.74,9.64-.08a1.74,1.74,0,0,1,1.79,1.76l0,3.54a1.74,1.74,0,0,1-1.75,1.79l-9.65.09.15,16.85,9.64-.09a1.76,1.76,0,0,1,1.79,1.76l0,3.55a1.75,1.75,0,0,1-1.76,1.79l-13.19.11a3.58,3.58,0,0,1-3.58-3.51L187,133.33a3.49,3.49,0,0,1,3.52-3.58l13.19-.12a1.76,1.76,0,0,1,1.79,1.76l0,3.55a1.75,1.75,0,0,1-1.76,1.79Z"/><path class="cls-5" d="M360,209.54l-76.25.67c-20.32.17-30.67-12.53-30.84-32.86l-.32-36.19c-.17-20.33,9.95-33.21,30.27-33.39l76.26-.66c20.32-.17,30.67,12.53,30.84,32.85l.32,36.2C390.47,196.49,380.35,209.37,360,209.54Z"/><path class="cls-2" d="M299.24,141.48l.3,34.68a15.26,15.26,0,0,1-10.78,14.68l.06,6.83a2.07,2.07,0,0,1-2.08,2.12l-4.21,0a2.07,2.07,0,0,1-2.12-2.08l-.06-6.84a15.25,15.25,0,0,1-11-14.49l-.3-34.68a15.11,15.11,0,0,1,30.22-.26Zm-8.41.07a6.7,6.7,0,0,0-13.4.12l.3,34.68a6.7,6.7,0,1,0,13.4-.11Z"/><path class="cls-2" d="M340.51,128.11l.42,47.69a15.18,15.18,0,1,1-30.36.27l-.41-47.69a2.16,2.16,0,0,1,2.09-2.13l4.2,0a2.07,2.07,0,0,1,2.12,2.08L319,176a6.77,6.77,0,1,0,13.54-.11l-.42-47.69a2.08,2.08,0,0,1,2.08-2.13l4.21,0A2.07,2.07,0,0,1,340.51,128.11Z"/><path class="cls-2" d="M359.88,134.25l.17,19.84,11.43-.1a2.07,2.07,0,0,1,2.12,2.08l0,4.21a2.08,2.08,0,0,1-2.09,2.12l-11.43.1.18,20,11.42-.1a2.08,2.08,0,0,1,2.13,2.08l0,4.21a2.07,2.07,0,0,1-2.08,2.12l-15.64.13a4.23,4.23,0,0,1-4.24-4.16l-.49-56.63a4.15,4.15,0,0,1,4.17-4.24l15.63-.14a2.07,2.07,0,0,1,2.12,2.09l0,4.2a2.07,2.07,0,0,1-2.08,2.12Z"/><rect class="cls-3" x="73.6" width="243.11" height="97.22" rx="19.45"/><path class="cls-4" d="M126,18.08V22.3a2.09,2.09,0,0,1-2.12,2.11H117.9V79.15a2.17,2.17,0,0,1-2.11,2.11h-4.22a2.17,2.17,0,0,1-2.11-2.11V24.41h-5.94a2.08,2.08,0,0,1-2.1-2.11V18.08a2.08,2.08,0,0,1,2.1-2.11h20.31A2.09,2.09,0,0,1,126,18.08Z"/><path class="cls-4" d="M165.25,37.47a15.2,15.2,0,0,1-4.62,11.08,14.88,14.88,0,0,1,4.62,10.94V79.15a2.17,2.17,0,0,1-2.11,2.11h-4.22a2.17,2.17,0,0,1-2.11-2.11V59.49a6.75,6.75,0,0,0-6.73-6.72h-6.73V79.15a2.27,2.27,0,0,1-2.11,2.11H137a2.18,2.18,0,0,1-2.11-2.11v-59A4.16,4.16,0,0,1,139.13,16h11a15.17,15.17,0,0,1,15.17,15.17Zm-8.44-6.33a6.75,6.75,0,0,0-6.73-6.73h-6.73V44.33h6.73a6.79,6.79,0,0,0,6.73-6.86Z"/><path class="cls-4" d="M184.64,79.15a2.09,2.09,0,0,1-2.11,2.11H178.3a2.08,2.08,0,0,1-2.1-2.11V18.08A2.08,2.08,0,0,1,178.3,16h4.23a2.17,2.17,0,0,1,2.11,2.11Z"/><path class="cls-2" d="M228,31.14V66A15.31,15.31,0,0,1,217,80.6v6.86a2.08,2.08,0,0,1-2.11,2.11h-4.22a2.08,2.08,0,0,1-2.11-2.11V80.6A15.32,15.32,0,0,1,197.61,66V31.14a15.17,15.17,0,0,1,30.34,0Zm-8.44,0a6.73,6.73,0,1,0-13.46,0V66a6.73,6.73,0,0,0,13.46,0Z"/><path class="cls-2" d="M269.49,18.08V66A15.23,15.23,0,1,1,239,66V18.08A2.16,2.16,0,0,1,241.14,16h4.22a2.08,2.08,0,0,1,2.11,2.11V66a6.8,6.8,0,1,0,13.59,0V18.08a2.08,2.08,0,0,1,2.1-2.11h4.23A2.08,2.08,0,0,1,269.49,18.08Z"/><path class="cls-2" d="M288.88,79.15a2.08,2.08,0,0,1-2.11,2.11h-4.22a2.09,2.09,0,0,1-2.11-2.11V18.08A2.09,2.09,0,0,1,282.55,16h4.22a2.16,2.16,0,0,1,2.11,2.11Z"/></g></g></svg>