<svg xmlns="http://www.w3.org/2000/svg" viewBox="0 0 234.54 214.33"><defs><style>.cls-1{fill:#616160;}.cls-2{fill:#fff;}.cls-3{fill:#6f6f70;}.cls-4{fill:#d15865;}.cls-5{fill:#79b0d5;}.cls-6{fill:#f5da53;}.cls-7{fill:#d2da58;}.cls-8{fill:#dd8f5e;}.cls-9{fill:#cc5194;}.cls-10{fill:#a5a4ce;}.cls-11{fill:#4faea3;}</style></defs><g id="Capa_2" data-name="Capa 2"><g id="Capa_2-2" data-name="Capa 2"><path class="cls-1" d="M8.36,200.6c4,4.44,14,13.73,26.52,13.73H35c8,0,14.86-2.17,20.23-6.32l.37.47a13.68,13.68,0,0,0,10.58,4.9H75a15.81,15.81,0,0,0,12.22-6.1,15.81,15.81,0,0,0,12.22,6.1h10a13.88,13.88,0,0,0,7.53-2.2,16.07,16.07,0,0,0,8.23,2.2h8.43a14.51,14.51,0,0,0,9.77-3.8,16.44,16.44,0,0,0,10.29,3.8h9a14.36,14.36,0,0,0,7.5-2.11,13.8,13.8,0,0,0,7.38,2.11h8.81a15.79,15.79,0,0,0,12.22-6.1,15.81,15.81,0,0,0,12.22,6.1h10a13.72,13.72,0,0,0,10.59-4.91A14.38,14.38,0,0,0,234.36,197l-12.54-80.19h0a15.88,15.88,0,0,0-.37-1.69,13.72,13.72,0,0,0,9.85-4.89,14.44,14.44,0,0,0,3.06-11.46L218.9,13.69Z"/><path class="cls-2" d="M.16,80.5c0,.26.4,2.37,1,6C1.43,88.09,3,96.11,8,101.93l.18.23.26.27a27.68,27.68,0,0,0,2.84,2.73,28.1,28.1,0,0,0-3,2.88C2.78,114.19,0,122.47,0,132.64a40.27,40.27,0,0,0,2.94,15.7,46.53,46.53,0,0,0,6.59,11.08L10,160A12.36,12.36,0,0,0,0,172.23v4.83a9.35,9.35,0,0,0,3.05,6.75,8.73,8.73,0,0,1-2.89-5.08c0,.27.39,2.31,1,6C1.43,186.33,3,194.39,8,200.22l0,0,.1.12.2.22h0c4,4.43,11.27,9.69,23.74,9.69h.12c8,0,14.86-2.18,20.23-6.33l.36.47a13.72,13.72,0,0,0,10.59,4.91h8.81a15.81,15.81,0,0,0,12.22-6.1,15.81,15.81,0,0,0,12.22,6.1h10a13.91,13.91,0,0,0,7.53-2.21,16,16,0,0,0,8.23,2.21h8.42a14.49,14.49,0,0,0,9.78-3.81,16.45,16.45,0,0,0,10.28,3.81h9a14.48,14.48,0,0,0,7.5-2.11,13.89,13.89,0,0,0,7.38,2.11h8.81a15.81,15.81,0,0,0,12.22-6.1,15.81,15.81,0,0,0,12.22,6.1h10a13.72,13.72,0,0,0,10.59-4.91A14.45,14.45,0,0,0,231.6,193l-12.54-80.19h0a16.43,16.43,0,0,0-.37-1.69,13.67,13.67,0,0,0,9.84-4.88,14.42,14.42,0,0,0,3.07-11.47L219.06,14.55c-1.2-7.63-8-13.6-15.5-13.6H188.48c-6.55,0-12.39,4.76-14.36,11.39A14.81,14.81,0,0,0,159.85,1h-8.31a14.4,14.4,0,0,0-8.3,2.63A14.54,14.54,0,0,0,135.11,1H120.54l-.63.1c-6.52,1-11.54,6.68-12.17,13.5-1.2-7.63-8-13.6-15.5-13.6H77.16C69.9,1,63.51,6.8,62.3,14.55l-.74,4.71a29,29,0,0,0-5.08-9.12L56.4,10l-.25-.29L56,9.62C52.06,5.19,44.76,0,32.35,0h-.12c-10,0-18.25,3.39-24,9.81C2.78,16,0,24.23,0,34.41A40.18,40.18,0,0,0,2.94,50.1,46.4,46.4,0,0,0,9.53,61.19l.45.54A12.37,12.37,0,0,0,0,74v4.26Z"/><path class="cls-3" d="M40.65,15.58a1.09,1.09,0,1,1-1.09-1.12,1.11,1.11,0,0,1,1.09,1.12"/><path class="cls-4" d="M112,95.8,99,12.67a7.73,7.73,0,0,0-7.28-6.42H76.1C73,6.25,70,9.14,69.48,12.67l-13,83.13a5.34,5.34,0,0,0,5.35,6.42H71a7.68,7.68,0,0,0,7.3-6.43L78.69,93c.51-3.54,2.75-6.44,5-6.44s4.43,2.9,4.95,6.44L89,95.79a7.68,7.68,0,0,0,7.3,6.43h10.34A5.35,5.35,0,0,0,112,95.8M84.25,52.25a7.41,7.41,0,1,1,7.24-7.41,7.34,7.34,0,0,1-7.24,7.41"/><path class="cls-3" d="M84.25,47.85a1.48,1.48,0,1,1-1.48-1.5,1.49,1.49,0,0,1,1.48,1.5"/><path class="cls-5" d="M223.12,95.8l-13-83.13a7.73,7.73,0,0,0-7.28-6.42H187.21c-3.08,0-6.06,2.89-6.61,6.42l-13,83.13a5.34,5.34,0,0,0,5.35,6.42h9.14a7.68,7.68,0,0,0,7.3-6.43L189.8,93c.52-3.54,2.75-6.44,5-6.44s4.43,2.9,5,6.44l.41,2.77a7.68,7.68,0,0,0,7.3,6.43h10.34a5.35,5.35,0,0,0,5.36-6.42M202.6,52.25a7.33,7.33,0,0,1-7.24-7.41,7.25,7.25,0,1,1-7.24-7.41,7.33,7.33,0,0,1,7.24,7.41,7.24,7.24,0,1,1,7.24,7.41"/><path class="cls-3" d="M186.64,43.33a1.47,1.47,0,1,1-1.47-1.51,1.49,1.49,0,0,1,1.47,1.51"/><path class="cls-3" d="M201.13,43.33a1.48,1.48,0,1,1-1.48-1.51,1.49,1.49,0,0,1,1.48,1.51"/><path class="cls-3" d="M27.33,17.09a1.48,1.48,0,1,1-1.48-1.51,1.49,1.49,0,0,1,1.48,1.51"/><path class="cls-6" d="M159,6.25h-8.62A6.45,6.45,0,0,0,144,12.76v6.62c0,3.58-.74,3.68-1.66.23l-1.86-7.08c-.91-3.46-4.13-6.28-7.14-6.28H118.88l0,.07a6.36,6.36,0,0,0-5.13,6.44V97.57c0,2.56,2.86,4.65,6.36,4.65h8.73a6.46,6.46,0,0,0,6.37-6.51V78.18c0-3.58.74-3.68,1.65-.22l4.75,18a8.84,8.84,0,0,0,8,6.28H159a6.45,6.45,0,0,0,6.36-6.51V12.76A6.46,6.46,0,0,0,159,6.25m-30.8,28.2A7.41,7.41,0,1,1,135.4,27a7.33,7.33,0,0,1-7.24,7.41m26.83,0A7.41,7.41,0,1,1,162.23,27,7.33,7.33,0,0,1,155,34.45"/><path class="cls-3" d="M156.46,31.56A1.47,1.47,0,1,1,155,30.05a1.49,1.49,0,0,1,1.47,1.51"/><path class="cls-3" d="M129.63,31.56a1.47,1.47,0,1,1-1.47-1.51,1.49,1.49,0,0,1,1.47,1.51"/><path class="cls-7" d="M32.19,129.53l0,0s.35-.12.69-.21H34.4a2.23,2.23,0,0,1,.83,1c.11.34.2,4.42.2,6.74s2.86,4.23,6.36,4.23H54a3.71,3.71,0,0,0,3.59-3.8v-4s-.43-2.89-.94-6.44c0,0-1.17-8-5.19-12.57a.6.6,0,0,0-.08-.08s0,0,0,0h0l-.06-.07,0,0c-4.17-4.73-10.25-7.12-18.07-7.12H33.1c-7.87,0-14,2.42-18.27,7.19s-6.24,11.16-6.24,19.36A32.45,32.45,0,0,0,10.9,146.3a38.82,38.82,0,0,0,5.52,9.3,64.71,64.71,0,0,0,6.7,7.12l.19.18c2.05,1.87,4,3.76,5.78,5.63l.07.08c.53.56,1,1.12,1.48,1.7A26.57,26.57,0,0,1,33.19,174a10.55,10.55,0,0,1,1.27,5.36v2.51l-.46.75,0,0s-.34.12-.69.21H31.79a2.09,2.09,0,0,1-.82-1c-.11-.34-.21-4.41-.21-6.74s-2.86-4.22-6.36-4.22H12.17a3.7,3.7,0,0,0-3.58,3.79v5s.49,2.89,1.08,6.42c0,0,1.19,7.17,5.05,11.56l.07.09,0,0h0l.06.06,0,0C19.07,202.64,25.15,205,33,205h.12c7.86,0,14-2.43,18.27-7.2s6.24-11.16,6.24-19.36a32.45,32.45,0,0,0-2.32-12.66,39.21,39.21,0,0,0-5.52-9.3,65.62,65.62,0,0,0-6.7-7.12l-.19-.18c-2-1.87-4-3.76-5.78-5.63l-.07-.08c-.53-.55-1-1.12-1.48-1.69A27.18,27.18,0,0,1,33,138.15a10.69,10.69,0,0,1-1.27-5.37v-2.51l.46-.74M46.44,123a7.41,7.41,0,1,1-7.24,7.41A7.33,7.33,0,0,1,46.44,123"/><path class="cls-3" d="M81.19,146.67a1.48,1.48,0,1,1-1.48-1.51,1.49,1.49,0,0,1,1.48,1.51"/><path class="cls-8" d="M223.12,197.62l-13-83.12a7.74,7.74,0,0,0-7.28-6.43H187.21c-3.08,0-6.06,2.9-6.61,6.43l-13,83.12a5.34,5.34,0,0,0,5.35,6.43h9.14a7.69,7.69,0,0,0,7.3-6.44l.41-2.76c.52-3.54,2.75-6.44,5-6.44s4.43,2.9,5,6.44l.41,2.76a7.7,7.7,0,0,0,7.3,6.44h10.34a5.35,5.35,0,0,0,5.36-6.43m-27.76-43.54a7.41,7.41,0,1,1,7.24-7.41,7.33,7.33,0,0,1-7.24,7.41"/><path class="cls-3" d="M193.88,143.41a1.47,1.47,0,1,1-1.47-1.5,1.49,1.49,0,0,1,1.47,1.5"/><path class="cls-3" d="M47.91,130.37a1.47,1.47,0,1,1-1.47-1.5,1.49,1.49,0,0,1,1.47,1.5"/><path class="cls-9" d="M159,108.07h-8.62a6.45,6.45,0,0,0-6.36,6.51v6.63c0,3.58-.74,3.68-1.66.22l-1.86-7.07c-.91-3.46-4.13-6.29-7.14-6.29H118.88l0,.07a6.37,6.37,0,0,0-5.13,6.44V199.4c0,2.56,2.86,4.65,6.36,4.65h8.73a6.46,6.46,0,0,0,6.37-6.51V180c0-3.58.74-3.69,1.65-.23l4.75,18a8.85,8.85,0,0,0,8,6.28H159a6.46,6.46,0,0,0,6.36-6.51v-83a6.46,6.46,0,0,0-6.36-6.51m-4,50.53a7.41,7.41,0,1,1,7.24-7.41A7.33,7.33,0,0,1,155,158.6"/><path class="cls-3" d="M157.93,147.46a1.47,1.47,0,1,1-1.47-1.51,1.49,1.49,0,0,1,1.47,1.51"/><path class="cls-10" d="M112,197.62,99,114.5a7.74,7.74,0,0,0-7.28-6.43H76.1c-3.09,0-6.06,2.9-6.62,6.43l-13,83.12a5.34,5.34,0,0,0,5.35,6.43H71a7.69,7.69,0,0,0,7.3-6.44l.41-2.76c.51-3.54,2.75-6.44,5-6.44s4.44,2.9,5,6.44l.41,2.76a7.69,7.69,0,0,0,7.3,6.44h10.34a5.35,5.35,0,0,0,5.36-6.43m-20.52-51a7.52,7.52,0,0,1-.3,2.08H77.3a7.45,7.45,0,0,1,.55-5.55H90.64a7.45,7.45,0,0,1,.85,3.47"/><path class="cls-11" d="M32.19,27.7l0,0a5.08,5.08,0,0,1,.69-.22H34.4a2.17,2.17,0,0,1,.82,1c.12.34.21,4.41.21,6.73s2.86,4.23,6.36,4.23H54a3.71,3.71,0,0,0,3.59-3.8v-4s-.43-2.9-.94-6.44c0,0-1.17-8-5.19-12.57l-.08-.09,0,0h0l-.06-.06,0,0C47.12,7.66,41,5.26,33.22,5.26H33.1c-7.87,0-14,2.42-18.27,7.2S8.59,23.62,8.59,31.82A32.4,32.4,0,0,0,10.9,44.47a39.08,39.08,0,0,0,5.52,9.31,66.56,66.56,0,0,0,6.7,7.12l.19.17c2.05,1.87,4,3.76,5.78,5.63l.07.09c.53.55,1,1.12,1.48,1.69a27.18,27.18,0,0,1,2.55,3.67,10.55,10.55,0,0,1,1.27,5.36V80l-.46.74,0,0a4.59,4.59,0,0,1-.69.22H31.79A2.17,2.17,0,0,1,31,80c-.11-.33-.21-4.41-.21-6.73s-2.86-4.23-6.36-4.23H12.17a3.71,3.71,0,0,0-3.58,3.8v5s.5,2.88,1.08,6.41c0,0,1.19,7.17,5.05,11.56l.07.09a0,0,0,0,0,0,0h0l.06.06,0,0c4.17,4.72,10.25,7.12,18.08,7.12h.12c7.86,0,14-2.42,18.27-7.2s6.24-11.16,6.24-19.36A32.4,32.4,0,0,0,55.29,64a38.82,38.82,0,0,0-5.52-9.3,65.73,65.73,0,0,0-6.7-7.13l-.19-.17c-2-1.87-4-3.76-5.78-5.63L37,41.68c-.53-.55-1-1.12-1.48-1.69A26.57,26.57,0,0,1,33,36.32,10.66,10.66,0,0,1,31.73,31V28.44l.46-.74m-3.3-3.89a5.64,5.64,0,0,0-8.79-2.24,7.46,7.46,0,0,1-1.49-4.48,7.25,7.25,0,1,1,14.49,0,5.37,5.37,0,1,1,10.74,0,5.49,5.49,0,0,1-1,3.2,5.64,5.64,0,0,0-6.63,1.77,5.49,5.49,0,0,1-3.09-5,7.43,7.43,0,0,1-4.21,6.72"/></g></g></svg>