<svg xmlns="http://www.w3.org/2000/svg" xmlns:xlink="http://www.w3.org/1999/xlink" viewBox="0 0 1966 1652"><defs><style>.cls-1{fill:none;}.cls-2{clip-path:url(#clip-path);}.cls-3{fill:#ff7196;}.cls-4{fill:#f7437f;}</style><clipPath id="clip-path" transform="translate(21 233)"><rect class="cls-1" width="1920" height="1352"/></clipPath></defs><g id="Capa_2" data-name="Capa 2"><g id="Capa_2-2" data-name="Capa 2"><g class="cls-2"><path class="cls-3" d="M-20,1403.83H1944V928.58c-263.32,25.49-479,28.13-628.24,25.72C987.83,949,827.48,916.91,462.58,914.18c-205-1.53-372.78,7-482.58,14.4Z" transform="translate(21 233)"/><path d="M1945,1404.83H-21V927.65l.93-.07c159-10.76,321.39-15.6,482.65-14.4C656.55,914.63,794,924.47,927,934c120.94,8.65,235.17,16.83,388.78,19.31,206.18,3.33,417.52-5.32,628.13-25.71l1.1-.11Zm-1964-2H1943V929.68c-210.33,20.32-421.36,28.94-627.26,25.62-153.67-2.48-267.93-10.66-388.9-19.32-132.92-9.51-270.37-19.35-464.27-20.8C301.68,914,139.66,918.8-19,929.52Z" transform="translate(21 233)"/><path class="cls-4" d="M-20,1419H1944V965.17c-263.32,24.35-479,26.86-628.24,24.56C987.83,984.68,827.48,954,462.58,951.42,257.58,950,89.8,958.08-20,965.17Z" transform="translate(21 233)"/><path class="cls-3" d="M1944-232H-20V291.2c263.32-28.07,479-31,628.24-28.31,327.93,5.82,488.28,41.16,853.18,44.16,205,1.69,372.78-7.67,482.58-15.85Z" transform="translate(21 233)"/><path d="M1509.64,308.25q-24.14,0-48.22-.2c-194-1.59-331.46-12.43-464.41-22.9-120.94-9.53-235.17-18.53-388.79-21.26-206.18-3.66-417.51,5.86-628.11,28.3l-1.11.12V-233H1945V292.13l-.93.07C1800.92,302.86,1655,308.25,1509.64,308.25ZM521.91,261.12q43.3,0,86.35.77c153.67,2.73,267.94,11.73,388.91,21.26,132.92,10.48,270.36,21.31,464.26,22.9,160.91,1.33,322.92-4,481.57-15.78V-231H-19V290.09A5126.9,5126.9,0,0,1,521.91,261.12Z" transform="translate(21 233)"/><path class="cls-4" d="M1944-229.75H-20V250.76c263.32-25.77,479-28.44,628.24-26,327.93,5.35,488.28,37.81,853.18,40.56,205,1.55,372.78-7.05,482.58-14.56Z" transform="translate(21 233)"/></g></g></g></svg>