<svg xmlns="http://www.w3.org/2000/svg" viewBox="0 0 729.17 167.44"><defs><style>.cls-1{fill:#33e0b6;}.cls-2{fill:#fff;}</style></defs><g id="Capa_2" data-name="Capa 2"><g id="Capa_2-2" data-name="Capa 2"><path class="cls-1" d="M100.56,1.34l27.1,0c8.75,0,14.79,3.69,18.66,9.67,3.27,5.06,5.07,11.89,5.07,20.39v.25c.25,9.8-3,20.46-11.78,25.84q6.69,14.37,13.67,28.6c-7.34,0-11-.09-18.34-.25-4.62-9.8-6.92-14.81-11.54-25h-.17l-6.79-.21V85.32c-6.35-.25-9.53-.4-15.88-.75Zm26.36,41.53c5.4.13,8.51-3.68,8.51-9.92V32.7c0-6.74-3.27-10.27-8.59-10.34l-10.4-.15v20.4C120.63,42.73,122.73,42.78,126.92,42.87Z"/><path d="M154.2,86.79c-7.81,0-11.72-.09-19.53-.26-4.62-9.79-6.93-14.8-11.54-24.93l-6.19-.2V86c-6.75-.26-10.13-.41-16.88-.79V.62h27.6c8.48,0,14.86,3.47,19,9.91,3.37,5.2,5.21,12.32,5.21,20.9v.24c.22,9.86-2.91,20.5-11.55,26.15C144.9,67.51,149.47,77.19,154.2,86.79Zm-19-1.58c6.86.15,10.29.19,17.15.24q-6.9-14.06-13.49-28.25l.54-.32c8.57-5.27,11.72-15.62,11.49-25.21v-.24c0-8.19-1.75-14.95-4.93-19.87-4-6.14-10.12-9.44-18.31-9.45l-26.6,0V83.93c6,.32,8.93.46,14.88.7V60c3.09.11,4.64.16,7.73.25C128.29,70.39,130.6,75.4,135.21,85.21Zm-8.29-41.63c-4.39-.1-6.59-.16-11-.28V21.48l10.9.16c5.78.08,9.09,4.15,9.09,11.07V33C135.93,39.67,132.48,43.7,126.92,43.58Zm-10-1.66c4,.11,6,.16,10,.25,5,.11,8-3.31,8-9.23v-.25c0-6.09-2.88-9.54-8.1-9.61-4,0-5.94-.08-9.9-.15Z"/><path class="cls-1" d="M159.41,1.39l46.09,0v21q-15.18,0-30.37,0V35.54c11,0,16.5,0,27.51,0V53.91c-11,.12-16.51.15-27.51.14V67.13q15.39,0,30.78-.34V85.36q-23.25.66-46.5.78Z"/><path d="M206.41,86q-23.74.83-47.49.82V.64H206V23.14q-15.19,0-30.37,0v11.7c11,0,16.5,0,27.5,0V54.59c-11,.12-16.5.16-27.5.15V66.45q15.39,0,30.78-.34Zm-46.5-.51q22.77-.09,45.5-.74V67.46q-15.37.32-30.78.35V53.35c11,0,16.51,0,27.51-.13v-17c-11,0-16.5,0-27.51,0V21.66q15.19,0,30.37,0V2.16l-45.09,0Z"/><path class="cls-1" d="M233.82.76h15.31c7.45,27.11,15.44,54.05,24.39,80.72-6.81.55-10.21.81-17,1.32C254.83,77.6,254,75,252.32,69.58c-8.84.61-13.26.8-22.1,1.1-1.64,5.63-2.46,8.41-4.09,13.89-6.68.3-10,.43-16.7.67Q222.38,43.2,233.82.76Zm13.92,52.15c-2.56-9-3.83-13.62-6.39-23.29-2.59,9.73-3.88,14.47-6.47,23.75C240,53.26,242.6,53.21,247.74,52.91Z"/><path d="M274.26,82c-7.24.59-10.86.87-18.1,1.41-1.67-5.18-2.51-7.81-4.18-13.18-8.57.59-12.85.77-21.42,1.06-1.64,5.63-2.46,8.4-4.09,13.88-7.11.32-10.67.46-17.78.71Q221.88,43.16,233.49,0h16l.13.47C257.12,27.87,265.21,55.08,274.26,82Zm-17.43.12c6.38-.47,9.57-.72,15.95-1.23-8.78-26.24-16.64-52.74-24-79.42-5.85,0-8.78,0-14.64,0q-11.29,41.75-24,83.06c6.25-.22,9.38-.34,15.62-.62,1.64-5.49,2.46-8.27,4.1-13.92,9.11-.3,13.67-.48,22.78-1.11C254.33,74.31,255.16,77,256.83,82.14Zm-8.38-28.6c-5.71.34-8.57.4-14.29.52,2.88-10.31,4.32-15.59,7.19-26.44C244.19,38.42,245.61,43.56,248.45,53.54Zm-12.84-.86c4.56-.1,6.84-.13,11.41-.4-2.27-8-3.4-12.11-5.67-20.66C239.05,40.22,237.9,44.43,235.61,52.68Z"/><path class="cls-1" d="M279.09,1.32l15.88,0V61.47c11.1-.88,16.65-1.34,27.75-2.26V77.14q-21.81,2-43.63,3.87Z"/><path d="M323.21,77.7q-22.31,2.07-44.62,4V.61l16.87,0v60.2c11.1-.87,16.65-1.32,27.75-2.25Zm-43.63,2.65q21.33-1.8,42.64-3.78V59.87c-11.1.93-16.65,1.39-27.75,2.27V2L279.58,2Z"/><path class="cls-1" d="M329.84,1.2l16,0V74.94l-16,1.53Z"/><path d="M346.3,75.5l-17,1.62V.55h17Zm-16,.31c6-.56,9-.85,15-1.43V1.79l-15,.06Z"/><path class="cls-1" d="M354.47,59.51c9.41-14.18,18.85-28.35,28.74-42.2l-27.75,1V1.14L405.15,1V14.33c-10,13.34-19.39,27.1-28.74,40.9q14.37-1.24,28.74-2.46V69.23c-16.9,1.58-33.79,3.24-50.68,4.87Z"/><path d="M405.64,69.77q-25.83,2.46-51.66,5V59.33l.12-.18c9.16-13.86,18.39-27.68,28-41.22L355,19V.53L405.64.47v14l-.12.16c-9.73,13-18.95,26.4-28,39.87q14.07-1.22,28.15-2.39ZM355,73.45q24.84-2.4,49.68-4.76V53.39Q390,54.64,375.34,55.92c9.53-14.1,19.12-28.16,29.31-41.78V1.56L356,1.75V17.69l28.33-1c-10.1,14.11-19.72,28.55-29.31,43Z"/><path class="cls-1" d="M433.22.51l15.31,0c8.52,20.85,16.7,41.78,24.39,63-6.81.51-10.21.77-17,1.32-1.67-4.86-2.51-7.24-4.18-12-8.84.68-13.26,1-22.1,1.77-1.64,5-2.46,7.61-4.09,12.79-6.68.6-10,.9-16.7,1.53C416.5,45.93,424.33,23,433.22.51Zm13.92,38.22c-2.56-7.3-3.83-10.88-6.39-18-2.58,7.31-3.88,11.09-6.46,18.85C439.43,39.25,442,39.07,447.14,38.73Z"/><path d="M473.66,64c-7.24.53-10.86.81-18.1,1.4-1.67-4.86-2.51-7.26-4.18-12-8.57.67-12.85,1-21.42,1.73-1.64,5.05-2.45,7.61-4.09,12.79-7.11.64-10.67,1-17.78,1.63C415.89,46.2,423.84,22.9,432.89,0h16c.05.12.08.18.13.31Q461.94,31.92,473.66,64Zm-17.43.18c6.38-.51,9.57-.76,15.95-1.23-7.57-20.82-15.62-41.43-24-61.94L433.55,1c-8.73,22.14-16.43,44.65-24,67.21,6.24-.58,9.37-.87,15.62-1.43,1.63-5.17,2.45-7.73,4.09-12.77,9.11-.76,13.67-1.12,22.78-1.82C453.73,56.92,454.56,59.3,456.23,64.15Zm-8.38-24.92c-5.71.38-8.57.58-14.29,1,2.88-8.64,4.32-12.84,7.2-20.94C443.59,27.13,445,31.1,447.85,39.23ZM435,39l11.41-.77c-2.27-6.48-3.4-9.67-5.67-16C438.45,28.77,437.3,32.13,435,39Z"/><path class="cls-1" d="M515.16,14.19,498,14.26V.83q25.13,0,50.26,0V14.17c-6.88,0-10.32,0-17.19,0v46.5c-6.36.17-9.53.28-15.88.52Z"/><path d="M531.53,61.19c-6.75.19-10.12.31-16.87.57V14.66l-17.19.08V.38h51.25V14.64c-6.87,0-10.31,0-17.19,0Zm-15.88-.59c6-.22,8.93-.32,14.89-.48V13.69c6.88,0,10.31,0,17.19,0V1.27H498.46V13.79c6.88,0,10.32-.06,17.19-.08Z"/><path class="cls-1" d="M554.44,32.74V.83h16.13V32.49c0,8.64,4.18,13,10.56,13.08s10.56-4,10.56-12.36V.85h16.13V33.07c.46,16.79-10.34,28.24-26.85,28.29C564.9,61.4,553.49,48.79,554.44,32.74Z"/><path d="M581,61.9c-16.56.27-27.92-12.93-27-29.16V.38h17.12v32.1c0,7.9,3.57,12.48,10.06,12.57s10.06-4.21,10.06-11.86V.39h17.12V33.09C608.72,49.24,598.13,63.2,581,61.9Zm-26-60.62V32.75c-.89,15.77,10.68,27.63,26,28.07,15.79.46,26.75-12.2,26.35-27.76V1.33l-15.13,0V33.22c0,8.17-4,13-11.06,12.87s-11.06-5.19-11.06-13.61V1.29Z"/><path class="cls-2" d="M17.76,112.2c-6.87-.87-10.31-1.34-17.19-2.35V92.38c16.67,3,33.43,5.53,50.27,7.4v16.07c-6.88-.64-10.32-1-17.19-1.76v50.47l-15.89-.12Z"/><path d="M34.22,165.2l-17-.11V112.8c-6.88-.87-10.31-1.34-17.19-2.34V91.58c17.09,3,34.18,5.54,51.41,7.63v17.33c-6.88-.64-10.31-1-17.19-1.73Zm-15.88-1.42,14.73.14V113.38c6.88.77,10.32,1.13,17.19,1.78v-14.8c-16.44-1.83-32.82-4.28-49.11-7.18v16.06c6.87,1,10.31,1.49,17.19,2.37Z"/><path class="cls-2" d="M57.79,100.54c10.84,1.14,16.26,1.61,27.1,2.4,8.76.64,14.81,3.64,18.66,8.1,3.28,3.79,5.08,8.72,5.08,14.81V126c0,9.44-4.67,15.32-11.79,18.28,5.47,8.57,8.2,12.71,13.67,20.66l-18.34-.07c-4.62-7.1-6.92-10.77-11.54-18.34h-.16l-6.8-.24V164.8l-15.88-.08Zm26.36,32.78c5.4.26,8.51-2.41,8.51-6.95v-.17c0-4.9-3.27-7.61-8.59-7.94-4.16-.26-6.24-.4-10.4-.7v15.22C77.86,133,80,133.12,84.15,133.32Z"/><path d="M111.57,165.51l-19.71-.06c-4.62-7.09-6.93-10.76-11.54-18.32l-6.07-.21v18.47l-17-.08V99.85c11.06,1.17,16.6,1.66,27.67,2.47,8.5.62,14.92,3.51,19.08,8.32,3.39,3.92,5.23,9.07,5.23,15.23v.18c0,8.88-4,15.15-11.52,18.53C103.24,153.26,106,157.46,111.57,165.51Zm-19.08-1.19,17,.08c-5.38-7.85-8.07-11.93-13.46-20.38l.63-.25c7.48-3.12,11.44-9.15,11.44-17.77v-.17c0-5.84-1.72-10.7-4.91-14.38-3.94-4.56-10.08-7.29-18.25-7.88-10.61-.77-15.92-1.23-26.53-2.33v62.88l14.74.1V145.69c3.14.12,4.71.18,7.84.28C85.56,153.55,87.87,157.22,92.49,164.32Zm-8.34-30.4c-4.42-.21-6.63-.33-11.05-.57V116.9c4.39.32,6.58.47,11,.75,5.82.37,9.17,3.5,9.17,8.57v.18C93.24,131.32,89.75,134.19,84.15,133.92Zm-9.9-1.72c4,.22,5.94.33,9.9.52,5,.25,7.94-2.13,7.94-6.38v-.17c0-4.38-2.85-7-8-7.3-3.93-.25-5.9-.38-9.82-.66Z"/><path class="cls-2" d="M117,104.72c6.39.24,9.58.34,16,.49V165l-16,0Z"/><path d="M133.51,165.55l-17.11,0V104.08c6.84.26,10.26.37,17.11.52Zm-16-1.12c5.92,0,8.88,0,14.81,0V105.81c-5.93-.14-8.89-.23-14.81-.45Z"/><path class="cls-2" d="M189.66,161.38a33.21,33.21,0,0,1-17.43,4.78c-16.08.05-31.55-12.65-30.78-29.62v-.18c-.61-16.91,14.58-31.66,30.94-32.24,17.16-.62,30.73,16,30.78,32.3v.17a28.72,28.72,0,0,1-5.08,16.79c2.36,2,3.54,2.94,5.9,4.87-3.21,3.45-4.82,5.13-8,8.46C193.44,164.6,192.18,163.54,189.66,161.38Zm-11.46-9.8c-3.18-2.7-4.76-4.07-7.94-6.84,3.21-3.64,4.81-5.49,8-9.25,3.11,2.95,4.67,4.4,7.78,7.28a16.57,16.57,0,0,0,1-5.75v-.17c0-8.73-6-16.72-14.81-16.7-8.68,0-14.49,7.83-14.49,16.43v.17c0,8.59,5.89,15.82,14.65,15.86A16.42,16.42,0,0,0,178.2,151.58Z"/><path d="M196,167.44c-2.56-2.13-3.84-3.21-6.41-5.39a33.89,33.89,0,0,1-17.37,4.63c-16.31,0-32.14-12.92-31.36-30.15v-.18c-.63-17.21,14.85-32.27,31.52-32.87,17.44-.61,31.29,16.37,31.35,32.93v.18a29.23,29.23,0,0,1-4.89,16.69c2.38,2,3.56,3,5.94,4.91C201.28,162,199.52,163.82,196,167.44Zm-6.29-6.73c2.48,2.13,3.72,3.18,6.2,5.25,2.9-3,4.36-4.54,7.26-7.66-2.34-1.92-3.51-2.88-5.85-4.83l.29-.4a28.16,28.16,0,0,0,5-16.48v-.17c-.05-16-13.43-32.25-30.2-31.67-16.06.55-31,15-30.37,31.62v.17c-.75,16.6,14.49,29.13,30.21,29.1A32.44,32.44,0,0,0,189.34,161Zm-17.33-7.56c-8.54,0-15.23-7-15.23-16.41v-.17c0-9.49,6.48-17,15.07-17s15.39,7.82,15.39,17.31V137a17.13,17.13,0,0,1-1,5.95l-.3.8c-3.19-2.94-4.78-4.43-8-7.45-2.91,3.4-4.36,5.07-7.27,8.37,3.29,2.86,4.93,4.28,8.22,7.07l-.87.33A17.08,17.08,0,0,1,172.39,153.15Zm-.16-32.4c-7.94,0-13.92,7-13.92,15.83v.17c0,8.89,6.05,15.28,14.08,15.31a15.57,15.57,0,0,0,4.71-.69c-3.06-2.6-4.59-3.92-7.64-6.58,3.51-4,5.27-6,8.78-10.14,3,2.87,4.53,4.29,7.56,7.1a16.38,16.38,0,0,0,.67-4.73v-.17C186.47,127.87,180.34,120.74,172.23,120.75Z"/><path class="cls-2" d="M210.69,140.22q0-17.88,0-35.74c6.45-.25,9.67-.38,16.12-.69V139.7c0,8.72,4.18,12.51,10.56,12.47s10.56-3.92,10.56-12.52v-37c6.45-.46,9.68-.7,16.13-1.2v36.85c.59,17.09-10.41,27.65-26.85,27.82C222.12,166.24,209.52,156.3,210.69,140.22Z"/><path d="M237.22,166.61c-15.63.4-28.22-10.09-27.1-26.39V103.85c6.91-.27,10.37-.42,17.28-.75v36.59c0,7.93,3.54,12,10,11.92s10-4.17,10-11.94V102c6.91-.48,10.36-.74,17.27-1.28v37.54C265.17,154.81,254.4,167.74,237.22,166.61Zm-25.95-61.5v35.1c-1.1,15.76,11.5,25.09,25.95,25.36,15.73.3,26.77-11.42,26.27-27.27V102.14c-6,.47-9,.69-15,1.11q0,18.18,0,36.37c0,8.42-4.06,13-11.14,13.1s-11.13-4.47-11.13-13V104.48C220.26,104.76,217.26,104.88,211.27,105.11Z"/><path class="cls-2" d="M273.81,100.65c6.38-.52,9.57-.78,16-1.34V164.8l-16,.1Z"/><path d="M290.34,165.38l-17.11.08V100c6.85-.55,10.27-.84,17.11-1.44Zm-16-1,14.81-.11V100c-5.92.51-8.88.76-14.81,1.24Z"/><path class="cls-2" d="M336.92,112.18c-6.88.6-10.32.9-17.19,1.48V96.6q25.13-2.35,50.26-4.85v17.54L352.8,110.8v53.57l-15.88.11Z"/><path d="M353.37,165l-17,.09V112.91l-17.19,1.47V96q25.71-2.43,51.41-5v18.94l-17.19,1.5Zm-15.88-1.22,14.73-.12V110.16l17.19-1.52V92.5q-24.56,2.4-49.11,4.73v15.71l17.19-1.49Z"/><path class="cls-2" d="M376.94,91.07C387.78,90,393.2,89.48,404,88.46c8.76-.83,14.8,1.63,18.66,6.27,3.27,3.94,5.08,9.57,5.08,17.09V112c.16,9.49-3.55,19.19-11.79,24.43q7.06,13.54,13.67,27.37l-18.34.12c-4.61-9.57-6.92-14.18-11.54-23.18h-.16l-6.8.33v23l-15.88.11Zm26.36,33.06c5.4-.38,8.52-4.08,8.51-9.57v-.21c0-5.92-3.27-8.62-8.59-8.16l-10.4.89v17.77Z"/><path d="M430.72,164.62l-19.71.11c-4.62-9.58-6.93-14.19-11.54-23.2l-6.07.28v23l-17,.09V90.43C387.44,89.35,393,88.8,404,87.75c8.5-.8,14.91,1.44,19.08,6.45,3.38,4.07,5.23,10,5.23,17.58V112c.15,9.53-3.4,19.25-11.51,24.75Q424,150.55,430.72,164.62Zm-19.08-1.43,17-.13q-6.5-13.55-13.46-26.88l.62-.39c7.49-4.7,11.44-13.06,11.44-23.71v-.22c0-7.2-1.73-12.77-4.91-16.59-4-4.76-10.07-6.88-18.25-6.11-10.61,1-15.91,1.52-26.52,2.55v71.77l14.73-.12V140.42l7.85-.38C404.71,149,407,153.63,411.64,163.19Zm-8.34-38.34-11.05.76V106.43l11-1c5.83-.5,9.17,2.69,9.17,8.83v.22C412.39,120.48,408.91,124.47,403.3,124.85Zm-9.9-.75,9.9-.7c5-.35,7.94-3.65,7.94-8.79v-.22c0-5.29-2.85-7.93-8-7.49l-9.82.84Z"/><path class="cls-2" d="M435.06,128.37V85.62c6.45-.57,9.67-.84,16.13-1.38V127c0,11.56,4.17,17.16,10.56,16.94s10.56-6,10.56-17.51q0-21.92,0-43.84c6.46-.48,9.68-.76,16.13-1.11V125c.27,17-5.94,40.22-26.85,40.26C441.85,165.28,434.77,145.07,435.06,128.37Z"/><path d="M461.58,166.08c-20.4.34-27.35-20.74-27.09-37.67V85c6.9-.61,10.36-.91,17.27-1.48V127c0,10.5,3.55,16.39,10,16.16s10-6.32,10-16.67V81.91c6.91-.51,10.37-.8,17.27-1.19q0,22.13,0,44.25C489.25,142.33,483.4,166.48,461.58,166.08Zm-25.95-79.8v42.06c-.26,16.38,6.55,36.14,25.95,36.07,20.51-.08,26.51-22.76,26.28-39.42V82.22c-6,.32-9,.59-15,1v43.14c0,11.22-4.06,18.11-11.13,18.34s-11.14-6.39-11.14-17.71V85C444.62,85.5,441.62,85.75,435.63,86.28Z"/><path class="cls-2" d="M497.84,81q23-1.07,46.09-1.65V98.07q-15.2.14-30.37.53v12.2c11-.19,16.5-.26,27.5-.32v18.36c-11,0-16.5,0-27.5.13v13.61q15.39-.06,30.78,0v20.93h-46.5Z"/><path d="M544.91,164.34H497.27V80.29c15.73-.79,31.48-1.41,47.23-1.72V98.84q-15.18.14-30.37.52V110c11-.19,16.5-.26,27.51-.32v20c-11,0-16.51,0-27.51.12v12q15.39-.06,30.78,0Zm-46.49-1.73h45.34V143.39q-15.39,0-30.78,0V128.16c11-.09,16.51-.12,27.51-.14V111.28c-11,.06-16.5.13-27.51.32V97.85q15.18-.41,30.37-.56V80.09q-22.49.55-44.93,1.58Z"/><path class="cls-2" d="M598.28,157.51c-4.91,4.87-10.93,7.85-17.44,7.8-21.7-.18-30.81-27.45-30.78-45.19v-.24c-.11-18,9.68-42.54,31-42.37s30.87,25,30.78,43v.24a57.74,57.74,0,0,1-5.08,24.3l5.9,7.61c-3.21,5.35-4.82,8.07-8,13.57Zm-11.46-15.45c-3.18-4.15-4.76-6.22-7.94-10.32,3.21-5.36,4.81-8,8-13.24,3.11,4.19,4.67,6.3,7.78,10.54a33.34,33.34,0,0,0,1-8.21v-.24c.15-9.29-4.63-22.8-14.82-22.94-10-.13-14.66,13.28-14.49,22.29v.24c-.11,9.24,4.14,22.86,14.66,23.43A10.94,10.94,0,0,0,586.82,142.06Z"/><path d="M604.63,167.44l-6.41-8.86c-5.12,4.93-11.17,7.64-17.38,7.59-22-.2-31.39-28.06-31.35-46v-.24c-.13-18.28,9.94-43.32,31.52-43.13s31.45,25.54,31.35,43.77v.24a59,59,0,0,1-4.89,24.14l5.94,7.68C609.9,158.44,608.14,161.41,604.63,167.44Zm-6.29-11,6.2,8.56c2.9-5,4.36-7.42,7.26-12.27L606,145.17l.29-.6a56.57,56.57,0,0,0,5-23.84v-.24c.1-17.57-9.47-42-30.2-42.21s-30.49,24-30.37,41.6v.24c0,17.35,9.05,44.12,30.2,44.32,6.14.06,12.11-2.67,17.12-7.63Zm-17.33-12c-11.31-1.15-15.37-14.72-15.23-24.27v-.24c-.23-9.36,4.66-23.26,15.06-23.07S596.41,111,596.23,120.6v.24a34.42,34.42,0,0,1-1,8.49l-.3,1.16c-3.19-4.35-4.78-6.52-8-10.82-2.91,4.75-4.36,7.15-7.27,12,3.29,4.24,4.93,6.38,8.22,10.68l-.87.49A11.86,11.86,0,0,1,581,144.45Zm-.17-46c-10.4.6-14.13,12.84-13.91,21.5v.25c-.17,8.87,3.9,22.06,14.08,22.58a10.25,10.25,0,0,0,4.71-1c-3.06-4-4.59-6-7.64-9.93,3.51-5.87,5.27-8.76,8.78-14.49,3,4.07,4.53,6.12,7.56,10.23a33.06,33.06,0,0,0,.67-6.74v-.24C595.29,111.64,591.41,99.32,580.84,98.44Z"/><path class="cls-2" d="M619.31,126.12v-46c6.45.29,9.68.46,16.13.87v45.18c0,12,4.18,17.9,10.56,18.07s10.56-5.15,10.56-16.56V82.59c6.45.56,9.68.87,16.13,1.56v43.72c.32,17-6.75,37.46-26.85,37.43C625.28,165.26,619,143,619.31,126.12Z"/><path d="M645.84,166.11c-21.29.35-27.34-22.9-27.1-40V79.34c6.91.31,10.36.5,17.27.94v45.93c0,10.87,3.55,17.07,10,17.25s10-5.48,10-15.79V81.78c6.91.6,10.36.93,17.27,1.68v44.45C673.56,145.31,666.82,166.53,645.84,166.11Zm-26-85.18v45.2c-.25,16.57,5.76,38.3,26,38.35,19.75.05,26.56-20,26.27-36.64v-43c-6-.63-9-.92-15-1.44v44.33c0,11.14-4,17.52-11.13,17.34s-11.13-7.16-11.13-18.9V81.74C628.88,81.37,625.88,81.21,619.89,80.93Z"/><path class="cls-2" d="M682.1,85.21c15.43,2,30.75,4.23,46.08,6.89v17q-15.13-2.25-30.37-3.95v11.57c11,1,16.51,1.64,27.51,3v15.89c-11-.92-16.5-1.33-27.51-2.07v12.24q15.41.67,30.78,1.54v17q-23.24-.21-46.49-.36Z"/><path d="M729.17,165q-23.82-.18-47.65-.29V84.39c15.81,1.9,31.58,4.2,47.24,7.12v18.37q-15.13-2.23-30.37-3.93V116c11,1.07,16.5,1.67,27.5,3v17.27c-11-.91-16.5-1.31-27.5-2V145q15.39.71,30.78,1.6Zm-46.5-1.83q22.68.19,45.35.43V147.94q-15.39-.83-30.78-1.48V132.72c11,.75,16.5,1.17,27.5,2.1v-14.5c-11-1.3-16.5-1.88-27.5-2.92V104.35q15.21,1.71,30.37,4V92.69c-15-2.56-29.89-4.77-44.94-6.67Z"/></g></g></svg>