<svg xmlns="http://www.w3.org/2000/svg" viewBox="0 0 360.66 254.53"><defs><style>.cls-1{fill:#ff7196;}.cls-2{fill:#fff;}</style></defs><g id="Capa_2" data-name="Capa 2"><g id="Capa_2-2" data-name="Capa 2"><rect class="cls-1" x="1" y="1" width="358.66" height="54.49"/><path d="M360.66,56.49H0V0H360.66ZM2,54.49H358.66V2H2Z"/><rect class="cls-1" x="46.54" y="66.88" width="274.08" height="54.49"/><path d="M321.62,122.37H45.54V65.88H321.62Zm-274.08-2H319.62V67.88H47.54Z"/><rect class="cls-1" x="28.65" y="134.38" width="303.36" height="54.49"/><path d="M333,189.87H27.65V133.38H333Zm-303.36-2H331V135.38H29.65Z"/><rect class="cls-1" x="68.1" y="199.04" width="231.79" height="54.49"/><path d="M300.88,254.53H67.1V198H300.88Zm-231.78-2H298.88V200H69.1Z"/><path class="cls-2" d="M16,38.22l2.24-15.73h3.86l2.23,15.73v3.46H16Zm.35-25h7.64v6.92H16.3Z"/><path class="cls-2" d="M28.76,13.21H39.18c9.65,0,15.24,5.86,15.24,14.07v.09c0,8.21-5.67,14.31-15.4,14.31H28.76ZM39.29,34.69c4.48,0,7.45-2.61,7.45-7.2v-.08c0-4.56-3-7.2-7.45-7.2h-3V34.69Z"/><path class="cls-2" d="M58.28,13.21H80v6.71H65.68v4.31h13v6.23h-13V35H80.19v6.71H58.28Z"/><path class="cls-2" d="M82,37.45l4.16-5.25a13.51,13.51,0,0,0,8.76,3.42c2,0,3.09-.73,3.09-1.95v-.08c0-1.18-.89-1.83-4.55-2.73-5.75-1.38-10.19-3.09-10.19-8.94v-.09c0-5.28,4-9.1,10.46-9.1a16.43,16.43,0,0,1,11.11,3.78l-3.74,5.57a13.12,13.12,0,0,0-7.57-2.81c-1.81,0-2.7.82-2.7,1.83v.08c0,1.31.93,1.87,4.67,2.77,6.21,1.42,10.07,3.54,10.07,8.86v.09c0,5.81-4.36,9.27-10.92,9.27A18.27,18.27,0,0,1,82,37.45Z"/><path class="cls-2" d="M108.24,27.53v-.08c0-8.3,6.06-14.81,14.24-14.81a13,13,0,0,1,11.46,5.94l-5.63,4.6c-1.55-2-3.32-3.34-5.91-3.34-3.78,0-6.44,3.38-6.44,7.53v.08c0,4.27,2.66,7.6,6.44,7.6,2.82,0,4.48-1.38,6.1-3.46l5.63,4.23c-2.54,3.7-6,6.43-12,6.43C114.45,42.25,108.24,36,108.24,27.53Z"/><path class="cls-2" d="M137,29.2v-16h7.6V29c0,4.11,2,6.06,5,6.06s5-1.87,5-5.85v-16h7.61V29c0,9.19-5,13.22-12.66,13.22S137,38.1,137,29.2Z"/><path class="cls-2" d="M166.58,13.21h13.85c3.4,0,5.79.9,7.37,2.57a6.4,6.4,0,0,1,1.74,4.59v.08a6.59,6.59,0,0,1-4.17,6.35c3.28,1.13,5.37,3.09,5.37,7v.08c0,4.88-3.79,7.85-10.23,7.85H166.58Zm12,11.35c2.28,0,3.55-.81,3.55-2.48V22c0-1.55-1.16-2.44-3.4-2.44h-4.86v5Zm1.08,10.78c2.28,0,3.59-.94,3.59-2.61v-.08c0-1.54-1.16-2.56-3.67-2.56h-5.71v5.25Z"/><path class="cls-2" d="M194.17,13.21h12.77c4.13,0,7,1.14,8.8,3.09a9.12,9.12,0,0,1,2.39,6.63V23a9,9,0,0,1-5.56,8.75L219,41.68h-8.65l-5.44-8.62h-3.28v8.62h-7.48Zm12.42,13.67c2.55,0,4-1.3,4-3.38v-.08c0-2.24-1.55-3.37-4.06-3.37h-4.9v6.83Z"/><path class="cls-2" d="M221.91,13.21h21.72v6.71H229.32v4.31h13v6.23h-13V35h14.51v6.71H221.91Z"/><path class="cls-2" d="M280.13,39.73a14.55,14.55,0,0,1-22.73-12.2v-.08a14.55,14.55,0,1,1,29.1-.08v.08a14.76,14.76,0,0,1-2.39,8.17l2.78,2.48-3.79,4.43Zm-5.4-5L271,31.35l3.78-4.47,3.67,3.49a8.32,8.32,0,0,0,.46-2.76v-.08c0-4.15-2.82-7.77-7-7.77s-6.83,3.58-6.83,7.69v.08c0,4.11,2.78,7.72,6.91,7.72A7.47,7.47,0,0,0,274.73,34.73Z"/><path class="cls-2" d="M290,29.2v-16h7.61V29c0,4.11,2,6.06,5,6.06s5-1.87,5-5.85v-16h7.61V29c0,9.19-5,13.22-12.66,13.22S290,38.1,290,29.2Z"/><path class="cls-2" d="M319.64,13.21h21.72v6.71H327.05v4.31h13v6.23h-13V35h14.51v6.71H319.64Z"/><path class="cls-2" d="M62.56,104.14l4.16-5.25a13.51,13.51,0,0,0,8.76,3.42c2,0,3.09-.73,3.09-2v-.08c0-1.18-.89-1.83-4.55-2.73-5.75-1.38-10.19-3.09-10.19-8.94v-.09c0-5.28,4-9.1,10.46-9.1A16.43,16.43,0,0,1,85.4,83.2l-3.74,5.57A13.11,13.11,0,0,0,74.1,86c-1.82,0-2.71.82-2.71,1.83v.08c0,1.31.93,1.87,4.67,2.77,6.22,1.42,10.08,3.54,10.08,8.86v.09c0,5.81-4.37,9.27-10.93,9.27A18.29,18.29,0,0,1,62.56,104.14Z"/><path class="cls-2" d="M98.52,79.7h7.21l11.5,28.67h-8l-2-5.08H96.82l-1.93,5.08H87Zm6.56,17.45-3-8.1-3,8.1Z"/><path class="cls-2" d="M119.85,79.9h7L138,95v-15h7.41v28.47H138.8L127.26,92.75v15.62h-7.41Z"/><path class="cls-2" d="M159.48,79.7h7.22l11.5,28.67h-8l-2-5.08H157.78l-1.93,5.08H148ZM166,97.15l-3-8.1L160,97.15Z"/><path class="cls-2" d="M189.46,104.14l4.17-5.25a13.46,13.46,0,0,0,8.75,3.42c2,0,3.09-.73,3.09-2v-.08c0-1.18-.89-1.83-4.55-2.73-5.75-1.38-10.19-3.09-10.19-8.94v-.09c0-5.28,4-9.1,10.46-9.1A16.43,16.43,0,0,1,212.3,83.2l-3.74,5.57A13.11,13.11,0,0,0,201,86c-1.82,0-2.71.82-2.71,1.83v.08c0,1.31.93,1.87,4.67,2.77C209.18,92.06,213,94.18,213,99.5v.09c0,5.81-4.37,9.27-10.92,9.27A18.3,18.3,0,0,1,189.46,104.14Z"/><path class="cls-2" d="M225.42,79.7h7.22l11.5,28.67h-8l-2-5.08H223.72l-1.93,5.08h-7.87ZM232,97.15l-3-8.1-3.05,8.1Z"/><path class="cls-2" d="M246.75,79.9h7l11.11,15v-15h7.41v28.47H265.7L254.16,92.75v15.62h-7.41Z"/><path class="cls-2" d="M286.38,79.7h7.22l11.5,28.67h-8l-2-5.08H284.68l-1.93,5.08h-7.87Zm6.56,17.45-3-8.1-3.05,8.1Z"/><path class="cls-2" d="M48.11,146.59h7.48v10.66H65.2V146.59h7.49v28.47H65.2V164.24H55.59v10.82H48.11Z"/><path class="cls-2" d="M86.81,146.39H94l11.5,28.67h-8l-2-5.08H85.11l-1.93,5.08H75.31Zm6.56,17.45-3-8.1-3,8.1Z"/><path class="cls-2" d="M105.48,160.91v-.08c0-8.3,6.06-14.81,14.24-14.81A13,13,0,0,1,131.18,152l-5.63,4.6c-1.55-2-3.32-3.34-5.91-3.34-3.78,0-6.44,3.38-6.44,7.53v.08c0,4.27,2.66,7.6,6.44,7.6,2.82,0,4.48-1.38,6.1-3.46l5.64,4.23c-2.55,3.7-6,6.43-12,6.43C111.69,175.63,105.48,169.41,105.48,160.91Z"/><path class="cls-2" d="M134.57,146.59H156.3v6.71H142v4.31h13v6.23H142v4.51h14.51v6.71H134.57Z"/><path class="cls-2" d="M171,146.59h7.91l6.44,11,6.45-11h7.91v28.47h-7.45V158.71l-6.91,11.14h-.15l-6.87-11.06v16.27H171Z"/><path class="cls-2" d="M213.83,146.39H221l11.5,28.67h-8l-2-5.08H212.13l-1.93,5.08h-7.87Zm6.55,17.45-3-8.1-3,8.1Z"/><path class="cls-2" d="M238.29,153.51h-8.11v-6.92h23.7v6.92h-8.11v21.55h-7.48Z"/><path class="cls-2" d="M255.07,160.91v-.08c0-8.3,6.06-14.81,14.24-14.81A13,13,0,0,1,280.77,152l-5.63,4.6c-1.55-2-3.32-3.34-5.91-3.34-3.78,0-6.44,3.38-6.44,7.53v.08c0,4.27,2.66,7.6,6.44,7.6,2.82,0,4.48-1.38,6.1-3.46L281,169.2c-2.54,3.7-6,6.43-12,6.43C261.28,175.63,255.07,169.41,255.07,160.91Z"/><path class="cls-2" d="M284.16,146.59h7.49v10.66h9.61V146.59h7.48v28.47h-7.48V164.24h-9.61v10.82h-7.49Z"/><path class="cls-2" d="M84.2,227.6v-.08c0-8.3,6.06-14.81,14.24-14.81a13,13,0,0,1,11.46,5.94l-5.63,4.6c-1.54-2-3.32-3.34-5.9-3.34-3.79,0-6.45,3.38-6.45,7.53v.08c0,4.27,2.66,7.6,6.45,7.6,2.81,0,4.47-1.38,6.09-3.46l5.64,4.23c-2.55,3.7-6,6.43-12,6.43C90.42,242.32,84.2,236.1,84.2,227.6Z"/><path class="cls-2" d="M111.6,227.6v-.08a14.55,14.55,0,1,1,29.09-.08v.08a14.55,14.55,0,1,1-29.09.08Zm21.45,0v-.08c0-4.11-2.81-7.69-6.94-7.69s-6.83,3.5-6.83,7.61v.08c0,4.1,2.81,7.68,6.9,7.68S133.05,231.71,133.05,227.6Z"/><path class="cls-2" d="M144.59,213.28h7l11.11,15.05V213.28h7.41v28.47h-6.56L152,226.13v15.62h-7.41Z"/><path class="cls-2" d="M181.47,220.2h-8.1v-6.92h23.69v6.92H189v21.55h-7.49Z"/><path class="cls-2" d="M200.49,213.28H208v28.47h-7.53Z"/><path class="cls-2" d="M212,227.6v-.08c0-8.3,6.17-14.81,14.55-14.81a15.32,15.32,0,0,1,11,4.15l-4.4,5.57a9.3,9.3,0,0,0-6.52-2.68c-3.9,0-6.91,3.46-6.91,7.81v.08c0,4.59,3,7.89,7.33,7.89a7.36,7.36,0,0,0,4.32-1.18v-3.46H226v-5.77h12.42v12.81a17.7,17.7,0,0,1-11.73,4.39A14.24,14.24,0,0,1,212,227.6Z"/><path class="cls-2" d="M241.7,227.6v-.08a14.55,14.55,0,1,1,29.1-.08v.08a14.55,14.55,0,1,1-29.1.08Zm21.46,0v-.08c0-4.11-2.82-7.69-7-7.69s-6.83,3.5-6.83,7.61v.08c0,4.1,2.82,7.68,6.91,7.68S263.16,231.71,263.16,227.6Z"/><path class="cls-2" d="M274.38,216.74v-3.46h8.34v3.46l-2.24,15.74h-3.86Zm.35,18.1h7.64v6.91h-7.64Z"/></g></g></svg>