<svg xmlns="http://www.w3.org/2000/svg" viewBox="0 0 365.89 114.07"><defs><style>.cls-1{fill:#fff;}.cls-2{fill:#33e0b6;}.cls-3{fill:#1d1d1b;}</style></defs><g id="Capa_2" data-name="Capa 2"><g id="Capa_2-2" data-name="Capa 2"><rect class="cls-1" x="9.74" y="15.41" width="356.15" height="98.67"/><path d="M364.26,17v95.42H11.36V17h352.9m1.63-1.62H9.74v98.66H365.89V15.41Z"/><rect class="cls-2" x="0.81" y="0.81" width="352.93" height="99.7"/><path d="M354.55,101.33H0V0H354.55ZM1.63,99.7h351.3V1.63H1.63Z"/><path class="cls-3" d="M39.47,22.72h7.7c7.13,0,11.27,4.33,11.27,10.4v.06c0,6.07-4.2,10.58-11.38,10.58H39.47Zm7.79,15.87c3.31,0,5.5-1.93,5.5-5.32v-.06c0-3.37-2.19-5.32-5.5-5.32H45v10.7Z"/><path class="cls-3" d="M61.29,22.72H77.34v5H66.76v3.18h9.59v4.6H66.76V38.8H77.49v5H61.29Z"/><path class="cls-3" d="M80.31,22.72h5.53V38.65h9.67v5.11H80.31Z"/><path class="cls-3" d="M105,39.37l7.47-6c1.85-1.53,2.57-2.53,2.57-3.79a2,2,0,0,0-2.23-2.13c-1.34,0-2.39.81-4,2.7l-3.74-3.27c2.14-2.92,4.25-4.51,8.13-4.51,4.36,0,7.36,2.73,7.36,6.7v.06c0,3.37-1.66,5.11-4.62,7.36L112.51,39h8.24v4.75H105Z"/><path class="cls-3" d="M123,33.3v-.06c0-6,3.6-10.94,9.27-10.94s9.21,4.93,9.21,10.88v.06c0,5.95-3.56,10.94-9.27,10.94S123,39.25,123,33.3Zm12.92,0v-.06c0-3.34-1.51-5.77-3.71-5.77s-3.65,2.34-3.65,5.71v.06c0,3.36,1.49,5.77,3.71,5.77S135.89,36.63,135.89,33.3Z"/><path class="cls-3" d="M152.29,22.72H160c7.13,0,11.26,4.33,11.26,10.4v.06c0,6.07-4.19,10.58-11.37,10.58h-7.59Zm7.78,15.87c3.31,0,5.51-1.93,5.51-5.32v-.06c0-3.37-2.2-5.32-5.51-5.32h-2.25v10.7Z"/><path class="cls-3" d="M174.11,22.72h16v5H179.58v3.18h9.58v4.6h-9.58V38.8H190.3v5H174.11Z"/><path class="cls-3" d="M201,22.72h5.84l4.76,8.14,4.77-8.14h5.84v21h-5.5V31.67l-5.11,8.24h-.11l-5.08-8.18v12H201Z"/><path class="cls-3" d="M232.68,22.57H238l8.5,21.19h-5.93L239.13,40h-7.7L230,43.76h-5.82Zm4.85,12.89-2.23-6-2.25,6Z"/><path class="cls-3" d="M248.45,22.72h9.44c3.05,0,5.16.84,6.5,2.28a6.72,6.72,0,0,1,1.77,4.9V30a6.64,6.64,0,0,1-4.11,6.46l4.77,7.34h-6.39l-4-6.37H254v6.37h-5.53Zm9.18,10.1c1.89,0,3-1,3-2.5v-.06c0-1.65-1.14-2.49-3-2.49H254v5.05Z"/><path class="cls-3" d="M268.33,39.52l10-11.87h-9.67V22.72H286V27L276,38.83h10v4.93H268.33Z"/><path class="cls-3" d="M287.32,33.3v-.06a10.76,10.76,0,1,1,21.51-.06v.06a10.76,10.76,0,1,1-21.51.06Zm15.86,0v-.06c0-3-2.08-5.68-5.13-5.68S293,30.14,293,33.18v.06c0,3,2.08,5.68,5.1,5.68S303.18,36.33,303.18,33.3Z"/><path class="cls-3" d="M67,58.63h5.34l8.49,21.2H74.89l-1.45-3.76h-7.7l-1.43,3.76H58.49Zm4.85,12.9-2.22-6-2.26,6Z"/><path class="cls-3" d="M82.76,58.78h5.53V74.72H98v5.11H82.76Z"/><path class="cls-3" d="M107.4,75.44l7.47-6c1.86-1.54,2.57-2.53,2.57-3.79a2,2,0,0,0-2.22-2.14c-1.34,0-2.4.82-4,2.71l-3.73-3.28c2.14-2.91,4.25-4.51,8.12-4.51,4.37,0,7.36,2.74,7.36,6.71v.06c0,3.36-1.65,5.11-4.62,7.36L115,75.08h8.24v4.75H107.4Z"/><path class="cls-3" d="M125,74V74a5.14,5.14,0,0,1,3.42-5,5,5,0,0,1-2.74-4.57v-.06c0-3.37,3-5.87,7.53-5.87s7.53,2.5,7.53,5.87v.06A5,5,0,0,1,138,68.92c2,1,3.42,2.4,3.42,5V74c0,3.75-3.42,6.19-8.21,6.19S125,77.69,125,74Zm11.09-.57v-.06c0-1.35-1.2-2.28-2.88-2.28s-2.88.93-2.88,2.28v.06c0,1.27,1,2.38,2.88,2.38S136.12,74.72,136.12,73.45ZM135.69,65V65a2.46,2.46,0,0,0-4.9,0V65a2.46,2.46,0,0,0,4.9,0Z"/><path class="cls-3" d="M151.89,58.78h7.7c7.13,0,11.26,4.33,11.26,10.41v.06c0,6.07-4.19,10.58-11.37,10.58h-7.59Zm7.78,15.88c3.31,0,5.51-1.93,5.51-5.32v-.06c0-3.37-2.2-5.32-5.51-5.32h-2.25v10.7Z"/><path class="cls-3" d="M173.71,58.78h16v5H179.18v3.19h9.58v4.6h-9.58v3.34H189.9v5H173.71Z"/><path class="cls-3" d="M207.53,58.63h5.33l8.5,21.2h-5.93L214,76.07h-7.7l-1.42,3.76H199Zm4.85,12.9-2.23-6-2.25,6Z"/><path class="cls-3" d="M223.3,58.78h10.24c2.51,0,4.27.67,5.44,1.9a4.74,4.74,0,0,1,1.29,3.4v.06a4.85,4.85,0,0,1-3.08,4.68c2.42.85,4,2.29,4,5.14V74c0,3.61-2.79,5.81-7.56,5.81H223.3Zm8.87,8.39c1.68,0,2.62-.6,2.62-1.83v-.06c0-1.14-.85-1.81-2.51-1.81h-3.59v3.7Zm.8,8c1.68,0,2.65-.69,2.65-1.93v-.06c0-1.14-.86-1.89-2.71-1.89h-4.22v3.88Z"/><path class="cls-3" d="M243.69,58.78h9.44c3.05,0,5.16.85,6.5,2.29A6.72,6.72,0,0,1,261.4,66V66a6.65,6.65,0,0,1-4.11,6.46l4.76,7.34h-6.38l-4-6.38h-2.43v6.38h-5.53Zm9.18,10.1c1.88,0,3-1,3-2.49v-.06c0-1.65-1.14-2.5-3-2.5h-3.62v5Z"/><path class="cls-3" d="M264.31,58.78h5.56v21h-5.56Z"/><path class="cls-3" d="M273.52,58.78h5.53V74.72h9.67v5.11h-15.2Z"/></g></g></svg>