<svg xmlns="http://www.w3.org/2000/svg" xmlns:xlink="http://www.w3.org/1999/xlink" viewBox="0 0 478.58 125.11"><defs><style>.cls-1,.cls-4{fill:none;}.cls-2{fill:#fff;}.cls-3{clip-path:url(#clip-path);}.cls-4{stroke:#fff;stroke-miterlimit:10;stroke-width:1.58px;}.cls-5{clip-path:url(#clip-path-2);}</style><clipPath id="clip-path" transform="translate(-8.48)"><rect class="cls-1" x="0.62" y="65.4" width="277.54" height="32.78" transform="translate(1.09 -1.83) rotate(0.75)"/></clipPath><clipPath id="clip-path-2" transform="translate(-8.48)"><rect class="cls-1" x="0.2" y="96.72" width="277.54" height="32.78" transform="translate(1.5 -1.82) rotate(0.75)"/></clipPath></defs><g id="Capa_2" data-name="Capa 2"><g id="Capa_2-2" data-name="Capa 2"><path class="cls-2" d="M76.18,60.53l-11.06-.14.33-25.21a13.6,13.6,0,0,0-.22-2.31,8,8,0,0,0-1-2.74,6.88,6.88,0,0,0-2.4-2.29,8.67,8.67,0,0,0-4.35-1A8.37,8.37,0,0,0,51.37,29,7.9,7.9,0,0,0,49,35l-.33,25.21L37.56,60l.33-25.22a12.62,12.62,0,0,0-.22-2.3,8,8,0,0,0-1-2.74,6.5,6.5,0,0,0-2.36-2.29,8.63,8.63,0,0,0-4.34-1,8.29,8.29,0,0,0-6.1,2.18,8,8,0,0,0-2.39,5.92l-.33,25.21-11-.15.32-25a20.79,20.79,0,0,1,1.49-7.6,18.17,18.17,0,0,1,4-6.06,17.77,17.77,0,0,1,6.17-4,21.23,21.23,0,0,1,8.06-1.36A18.46,18.46,0,0,1,38,17.43,16.57,16.57,0,0,1,43.76,22a17.05,17.05,0,0,1,6-4.4,18.24,18.24,0,0,1,7.82-1.53,21.63,21.63,0,0,1,8.06,1.53,16.71,16.71,0,0,1,9.67,10.18,22.37,22.37,0,0,1,1.19,7.8Z" transform="translate(-8.48)"/><path class="cls-2" d="M127.69,61.21l-10.47-.14.06-4.56a15.75,15.75,0,0,1-5.88,4,19.13,19.13,0,0,1-7.34,1.29A18.76,18.76,0,0,1,96,60a20.74,20.74,0,0,1-6.52-4.89,23.32,23.32,0,0,1-5.86-15.93,23.93,23.93,0,0,1,1.75-8.8,22,22,0,0,1,41.05.54A24,24,0,0,1,128,39.73ZM116.92,39.58a13.4,13.4,0,0,0-.82-4.85,12.64,12.64,0,0,0-2.35-4,11.28,11.28,0,0,0-3.5-2.67,9.8,9.8,0,0,0-4.27-1,10.3,10.3,0,0,0-4.3.86,10.8,10.8,0,0,0-3.57,2.54,12.73,12.73,0,0,0-2.45,3.9,13.45,13.45,0,0,0-.94,4.91,12.67,12.67,0,0,0,.82,4.81A12.36,12.36,0,0,0,97.88,48a11,11,0,0,0,3.5,2.6,10.23,10.23,0,0,0,4.28,1,9.91,9.91,0,0,0,4.3-.9,11.7,11.7,0,0,0,3.56-2.54A12.34,12.34,0,0,0,116,44.29,12.77,12.77,0,0,0,116.92,39.58Z" transform="translate(-8.48)"/><path class="cls-2" d="M156.17,61.5a21.26,21.26,0,0,1-8.37-.69,14.13,14.13,0,0,1-6-3.6,15.72,15.72,0,0,1-3.61-6,23.76,23.76,0,0,1-1.15-8l.47-35.94,11.06.15-.15,11,7.79.1-.12,9.8-7.8-.1-.2,15.25q-.06,4.52,2,6.39c1.35,1.25,3.43,1.8,6.22,1.67Z" transform="translate(-8.48)"/><path class="cls-2" d="M204.86,47.65A20.12,20.12,0,0,1,197.25,59,21.83,21.83,0,0,1,183.8,63a22.62,22.62,0,0,1-8.94-1.88,21.18,21.18,0,0,1-7-4.91A22.61,22.61,0,0,1,163.37,49a23.09,23.09,0,0,1-1.56-8.82,23.37,23.37,0,0,1,1.79-8.81,22.67,22.67,0,0,1,4.7-7.15,21.71,21.71,0,0,1,7.11-4.76,22,22,0,0,1,9-1.69A21.71,21.71,0,0,1,197.7,22,20.22,20.22,0,0,1,205,33.58l-11.81-.16a10.91,10.91,0,0,0-3.51-3.86,9.37,9.37,0,0,0-5.38-1.7,9.47,9.47,0,0,0-4.29.95,11.41,11.41,0,0,0-3.55,2.67A13.52,13.52,0,0,0,173,40.36a13,13,0,0,0,.81,4.79,13.43,13.43,0,0,0,2.34,4,10.92,10.92,0,0,0,3.48,2.73,10.12,10.12,0,0,0,9.81-.55,9.94,9.94,0,0,0,3.57-3.84Z" transform="translate(-8.48)"/><path class="cls-2" d="M250.49,62.83l-11.06-.15.33-25.21a14.39,14.39,0,0,0-.22-2.35,7.35,7.35,0,0,0-1.06-2.73,6.94,6.94,0,0,0-2.41-2.26,8.66,8.66,0,0,0-4.28-1,8.34,8.34,0,0,0-6.14,2.18,7.93,7.93,0,0,0-2.39,5.91l-.33,25.22-11.06-.15L212.69,0l11.06.15-.2,21.44a16.71,16.71,0,0,1,4.6-2.41,16,16,0,0,1,5.33-.81,18.2,18.2,0,0,1,7.18,1.48,16.08,16.08,0,0,1,5.52,3.92,16.9,16.9,0,0,1,3.48,6,22.91,22.91,0,0,1,1.16,7.81Z" transform="translate(-8.48)"/><path class="cls-2" d="M272.77,63.12,261.71,63l.14-11,11.06.15ZM273,45.78l-11.06-.14.53-40.8L273.53,5Z" transform="translate(-8.48)"/><g class="cls-3"><path class="cls-4" d="M75.78,90.4l-11-.15L65.06,65a13.78,13.78,0,0,0-.22-2.31A7.77,7.77,0,0,0,63.78,60a6.73,6.73,0,0,0-2.4-2.3,8.74,8.74,0,0,0-4.34-1A8.32,8.32,0,0,0,51,58.91a7.87,7.87,0,0,0-2.42,5.91L48.22,90l-11-.15.33-25.21a13.6,13.6,0,0,0-.22-2.31,8.39,8.39,0,0,0-1-2.74,6.5,6.5,0,0,0-2.36-2.29,8.74,8.74,0,0,0-4.34-1,8.35,8.35,0,0,0-6.11,2.18,8,8,0,0,0-2.38,5.92l-.33,25.21L9.69,89.53l.33-25A20.83,20.83,0,0,1,11.5,57a18.45,18.45,0,0,1,4-6.06,17.51,17.51,0,0,1,6.17-4,21,21,0,0,1,8.06-1.36,18.38,18.38,0,0,1,7.89,1.73,16.52,16.52,0,0,1,5.77,4.56,17.3,17.3,0,0,1,6-4.4,18.23,18.23,0,0,1,7.81-1.53,21.65,21.65,0,0,1,8.07,1.53,16.78,16.78,0,0,1,9.67,10.18,22.43,22.43,0,0,1,1.19,7.81Z" transform="translate(-8.48)"/><path class="cls-4" d="M127.3,91.08l-10.47-.14.06-4.57a15.83,15.83,0,0,1-5.88,4,19.16,19.16,0,0,1-7.35,1.3,18.87,18.87,0,0,1-8-1.86,20.92,20.92,0,0,1-6.52-4.9A23.27,23.27,0,0,1,83.27,69,23.68,23.68,0,0,1,85,60.21,21.5,21.5,0,0,1,96.74,48.32a22.08,22.08,0,0,1,9-1.68,21.6,21.6,0,0,1,20.3,14.11,23.67,23.67,0,0,1,1.52,8.84ZM116.52,69.45a13,13,0,0,0-.82-4.86,12.64,12.64,0,0,0-2.34-4,11.28,11.28,0,0,0-3.5-2.68,9.83,9.83,0,0,0-4.27-1,10.12,10.12,0,0,0-4.3.87,10.56,10.56,0,0,0-3.57,2.54,12.8,12.8,0,0,0-2.45,3.89,13.25,13.25,0,0,0-.94,4.91A12.83,12.83,0,0,0,95.14,74a12.32,12.32,0,0,0,2.35,3.88,11,11,0,0,0,3.5,2.59,10.23,10.23,0,0,0,4.28,1,9.91,9.91,0,0,0,4.3-.9A11.53,11.53,0,0,0,113.13,78a12.29,12.29,0,0,0,2.45-3.81A12.51,12.51,0,0,0,116.52,69.45Z" transform="translate(-8.48)"/><path class="cls-4" d="M155.78,91.37a21.25,21.25,0,0,1-8.37-.7,14.13,14.13,0,0,1-6-3.6,15.61,15.61,0,0,1-3.6-6,23.86,23.86,0,0,1-1.15-8l.47-35.94,11.06.15-.15,11,7.79.11-.13,9.8L147.92,58l-.2,15.25c0,3,.62,5.15,2,6.39s3.42,1.81,6.22,1.68Z" transform="translate(-8.48)"/><path class="cls-4" d="M204.47,77.51a20.08,20.08,0,0,1-7.61,11.38,21.83,21.83,0,0,1-13.45,3.93,22.41,22.41,0,0,1-8.94-1.88,21.08,21.08,0,0,1-7-4.91A22.43,22.43,0,0,1,163,78.81,23.09,23.09,0,0,1,161.42,70a23.41,23.41,0,0,1,1.79-8.81,22.34,22.34,0,0,1,4.7-7.14,21.7,21.7,0,0,1,7.1-4.77,22,22,0,0,1,9-1.68,21.67,21.67,0,0,1,13.31,4.28,20.16,20.16,0,0,1,7.26,11.57l-11.81-.15a11,11,0,0,0-3.51-3.86,9.38,9.38,0,0,0-5.38-1.71,9.47,9.47,0,0,0-4.29,1A11.44,11.44,0,0,0,176,61.35a13,13,0,0,0-2.44,4,13.73,13.73,0,0,0-1,4.89A13.32,13.32,0,0,0,175.8,79a10.81,10.81,0,0,0,3.48,2.73,10.08,10.08,0,0,0,9.81-.54,10,10,0,0,0,3.57-3.85Z" transform="translate(-8.48)"/><path class="cls-4" d="M250.09,92.69,239,92.55l.33-25.22a14.29,14.29,0,0,0-.22-2.34,7.33,7.33,0,0,0-1.06-2.74A7.1,7.1,0,0,0,235.68,60a8.55,8.55,0,0,0-4.28-1,8.37,8.37,0,0,0-6.14,2.18,8,8,0,0,0-2.39,5.92l-.33,25.21-11.06-.15.82-62.32,11.06.15-.2,21.44a17,17,0,0,1,4.6-2.41,16,16,0,0,1,5.33-.81,18.37,18.37,0,0,1,7.18,1.48,16,16,0,0,1,5.52,3.93,16.85,16.85,0,0,1,3.48,6,23.16,23.16,0,0,1,1.16,7.81Z" transform="translate(-8.48)"/><path class="cls-4" d="M272.6,75.65l-11.05-.15.53-40.79,11.06.14ZM272.38,93l-11.06-.15.14-11,11.06.14Z" transform="translate(-8.48)"/></g><g class="cls-5"><path class="cls-4" d="M75.37,121.72l-11.06-.15.34-25.21a14,14,0,0,0-.23-2.31,7.56,7.56,0,0,0-1.05-2.73A6.9,6.9,0,0,0,61,89a8.85,8.85,0,0,0-4.34-1,8.32,8.32,0,0,0-6.06,2.19,7.88,7.88,0,0,0-2.43,5.91l-.33,25.22-11.05-.15L37.09,96a13.6,13.6,0,0,0-.22-2.31,8.62,8.62,0,0,0-1-2.74,6.58,6.58,0,0,0-2.36-2.29,8.78,8.78,0,0,0-4.35-1,8.34,8.34,0,0,0-6.1,2.18,7.94,7.94,0,0,0-2.38,5.92L20.34,121l-11.06-.14.33-25a20.83,20.83,0,0,1,1.48-7.61,18.29,18.29,0,0,1,4-6.06,17.51,17.51,0,0,1,6.17-4,21,21,0,0,1,8.06-1.36,18.53,18.53,0,0,1,7.89,1.73A16.57,16.57,0,0,1,43,83.17a17.44,17.44,0,0,1,6-4.4,18.2,18.2,0,0,1,7.81-1.53,21.69,21.69,0,0,1,8.07,1.53A16.8,16.8,0,0,1,74.5,89a22.19,22.19,0,0,1,1.2,7.81Z" transform="translate(-8.48)"/><path class="cls-4" d="M126.89,122.4l-10.48-.14.06-4.57a15.8,15.8,0,0,1-5.87,4,19.16,19.16,0,0,1-7.35,1.3,18.91,18.91,0,0,1-8-1.86,20.88,20.88,0,0,1-6.51-4.9,23.14,23.14,0,0,1-5.86-15.92,23.68,23.68,0,0,1,1.75-8.8,21.55,21.55,0,0,1,4.66-7.13,21.93,21.93,0,0,1,7-4.76,22.16,22.16,0,0,1,9-1.68,21.6,21.6,0,0,1,20.3,14.11,23.87,23.87,0,0,1,1.52,8.84Zm-10.78-21.63a13.21,13.21,0,0,0-.82-4.86A12.64,12.64,0,0,0,113,92a11.28,11.28,0,0,0-3.5-2.68,9.84,9.84,0,0,0-4.28-1,10.18,10.18,0,0,0-4.3.87,10.62,10.62,0,0,0-3.56,2.54,12.61,12.61,0,0,0-2.45,3.89,13.5,13.5,0,0,0-1,4.91,12.84,12.84,0,0,0,.82,4.81,12.14,12.14,0,0,0,2.35,3.88,10.89,10.89,0,0,0,3.5,2.59,10.19,10.19,0,0,0,4.27,1,9.85,9.85,0,0,0,4.3-.9,11.46,11.46,0,0,0,3.57-2.54,12.29,12.29,0,0,0,2.45-3.81A12.71,12.71,0,0,0,116.11,100.77Z" transform="translate(-8.48)"/><path class="cls-4" d="M155.37,122.69A21.25,21.25,0,0,1,147,122a14.07,14.07,0,0,1-6-3.6,15.75,15.75,0,0,1-3.61-6,24.37,24.37,0,0,1-1.15-8l.48-35.93,11.05.14-.14,11,7.79.11-.13,9.8-7.79-.11-.2,15.25q-.06,4.53,2,6.39t6.22,1.68Z" transform="translate(-8.48)"/><path class="cls-4" d="M204.06,108.84a20.14,20.14,0,0,1-7.61,11.37A21.84,21.84,0,0,1,183,124.14a22.44,22.44,0,0,1-8.94-1.88,21,21,0,0,1-7-4.91,22.43,22.43,0,0,1-4.51-7.22,23.09,23.09,0,0,1-1.56-8.82,23.41,23.41,0,0,1,1.79-8.81,22.34,22.34,0,0,1,4.7-7.14,21.7,21.7,0,0,1,7.1-4.77,22.19,22.19,0,0,1,9-1.68,21.62,21.62,0,0,1,13.3,4.28,20.13,20.13,0,0,1,7.27,11.57l-11.81-.15a11,11,0,0,0-3.51-3.86,9.67,9.67,0,0,0-9.67-.76,11.48,11.48,0,0,0-3.55,2.68,12.77,12.77,0,0,0-2.44,4,13.51,13.51,0,0,0-1,4.89,13.38,13.38,0,0,0,3.15,8.79,10.85,10.85,0,0,0,3.49,2.73,10.08,10.08,0,0,0,9.81-.54,9.86,9.86,0,0,0,3.56-3.85Z" transform="translate(-8.48)"/><path class="cls-4" d="M249.68,124l-11.05-.14L239,98.65a14.29,14.29,0,0,0-.22-2.34,7.33,7.33,0,0,0-1.06-2.74,7,7,0,0,0-2.42-2.25,8.49,8.49,0,0,0-4.28-1,8.36,8.36,0,0,0-6.13,2.18,8,8,0,0,0-2.39,5.92l-.34,25.21-11.05-.14.82-62.33,11.05.15-.19,21.44a16.93,16.93,0,0,1,4.59-2.41,16,16,0,0,1,5.33-.81A18.42,18.42,0,0,1,239.86,81,16.06,16.06,0,0,1,245.38,85a17.24,17.24,0,0,1,3.48,6A22.91,22.91,0,0,1,250,98.8Z" transform="translate(-8.48)"/><path class="cls-4" d="M272.19,107l-11.06-.15L261.67,66l11.06.14ZM272,124.31l-11-.15.14-11,11.06.14Z" transform="translate(-8.48)"/></g><path class="cls-2" d="M288.83,46.59a18.72,18.72,0,0,0,4.46-.08,6,6,0,0,0,3.36-1.6,7.35,7.35,0,0,0,1.73-3,25.41,25.41,0,0,0,.85-7.41c0-1.57.1-3.19.25-4.88a28,28,0,0,1,.91-5,23.11,23.11,0,0,1,1.95-4.81,15.34,15.34,0,0,1,3.44-4.28q6-5.75,16.41-4.77l-.16,12c-3.44-.42-6,.23-7.82,2a7.41,7.41,0,0,0-.91,1.06,6.13,6.13,0,0,0-.78,1.73,20.1,20.1,0,0,0-.6,2.81,32.36,32.36,0,0,0-.29,4.32c0,1.63-.1,3.31-.25,5a29.78,29.78,0,0,1-.92,5.15,24.2,24.2,0,0,1-1.94,5,16.22,16.22,0,0,1-3.35,4.33A15.85,15.85,0,0,1,298,58a28.55,28.55,0,0,1-9.31.59Z" transform="translate(-8.48)"/><path class="cls-2" d="M375.11,59.75l-11.74-.15.06-5.12A17.8,17.8,0,0,1,356.84,59a21.57,21.57,0,0,1-8.24,1.45,21.07,21.07,0,0,1-9-2.09,23.21,23.21,0,0,1-7.31-5.49A26.17,26.17,0,0,1,325.72,35a26.64,26.64,0,0,1,2-9.87,24.71,24.71,0,0,1,46,.6,26.89,26.89,0,0,1,1.7,9.92ZM363,35.49a15,15,0,0,0-.92-5.44,14.23,14.23,0,0,0-2.63-4.44,12.78,12.78,0,0,0-3.93-3,11,11,0,0,0-4.79-1.14,11.49,11.49,0,0,0-4.83,1,12.11,12.11,0,0,0-4,2.85,14.34,14.34,0,0,0-2.74,4.37,14.77,14.77,0,0,0-1.06,5.51,14.46,14.46,0,0,0,.91,5.4,13.69,13.69,0,0,0,2.64,4.34,12.2,12.2,0,0,0,3.92,2.91,11.4,11.4,0,0,0,4.8,1.09,10.93,10.93,0,0,0,4.82-1,13,13,0,0,0,4-2.85A13.87,13.87,0,0,0,362,40.77,14.33,14.33,0,0,0,363,35.49Z" transform="translate(-8.48)"/><path class="cls-2" d="M386,31.89a23.15,23.15,0,0,1,1.67-8.53,20.09,20.09,0,0,1,4.5-6.8,20.64,20.64,0,0,1,6.92-4.47,23.28,23.28,0,0,1,9-1.52,24.35,24.35,0,0,1,9,1.71A18.84,18.84,0,0,1,428,23.71a25.23,25.23,0,0,1,1.34,8.75l-.37,28-12.4-.16L416.92,32a14.38,14.38,0,0,0-.25-2.59,8.63,8.63,0,0,0-1.18-3.07,7.57,7.57,0,0,0-2.69-2.57,9.75,9.75,0,0,0-4.87-1.1,9.31,9.31,0,0,0-6.8,2.45,8.84,8.84,0,0,0-2.72,6.63L398,60.06l-12.41-.17Z" transform="translate(-8.48)"/><path class="cls-2" d="M486.74,61.22,475,61.07l.07-5.12a17.74,17.74,0,0,1-6.59,4.5,21.38,21.38,0,0,1-8.24,1.46,21.08,21.08,0,0,1-9-2.09,23.17,23.17,0,0,1-7.3-5.49,26,26,0,0,1-6.58-17.86,26.64,26.64,0,0,1,2-9.87,24.29,24.29,0,0,1,5.23-8,24.7,24.7,0,0,1,40.81,8.6,26.65,26.65,0,0,1,1.7,9.92ZM474.65,37a14.66,14.66,0,0,0-.92-5.45,14.11,14.11,0,0,0-2.63-4.43,12.47,12.47,0,0,0-3.92-3,11,11,0,0,0-4.8-1.14,11.47,11.47,0,0,0-4.82,1,12.11,12.11,0,0,0-4,2.85,14.36,14.36,0,0,0-2.75,4.37,15.18,15.18,0,0,0-1.06,5.51,14.46,14.46,0,0,0,.92,5.4,13.85,13.85,0,0,0,2.63,4.34,12.24,12.24,0,0,0,3.93,2.91A11.35,11.35,0,0,0,462,50.37a10.94,10.94,0,0,0,4.83-1,13.17,13.17,0,0,0,4-2.85,13.85,13.85,0,0,0,2.74-4.27A14.13,14.13,0,0,0,474.65,37Z" transform="translate(-8.48)"/><path class="cls-2" d="M288,108.5a18.8,18.8,0,0,0,4.47-.08,5.87,5.87,0,0,0,3.35-1.6,7.26,7.26,0,0,0,1.73-3,25.19,25.19,0,0,0,.85-7.42c0-1.56.11-3.19.26-4.88a27.15,27.15,0,0,1,.91-5,23.63,23.63,0,0,1,1.94-4.81A15.48,15.48,0,0,1,305,77.43q6-5.75,16.41-4.76l-.15,12q-5.16-.63-7.83,2a7.51,7.51,0,0,0-.91,1.07,6.3,6.3,0,0,0-.77,1.73,19.49,19.49,0,0,0-.6,2.81,32.11,32.11,0,0,0-.29,4.32c0,1.63-.11,3.3-.26,5a30,30,0,0,1-.91,5.16,23.59,23.59,0,0,1-1.95,5,16.18,16.18,0,0,1-3.34,4.33,16,16,0,0,1-7.2,3.9,28.55,28.55,0,0,1-9.31.58Z" transform="translate(-8.48)"/><path class="cls-2" d="M374.3,121.67l-11.75-.16.07-5.12A17.76,17.76,0,0,1,356,120.9a21.38,21.38,0,0,1-8.24,1.45,21.08,21.08,0,0,1-9-2.09,23.14,23.14,0,0,1-7.3-5.48,26,26,0,0,1-6.58-17.87,26.64,26.64,0,0,1,2-9.87A25.11,25.11,0,0,1,360.12,74a24,24,0,0,1,12.79,13.68,26.62,26.62,0,0,1,1.7,9.92ZM362.21,97.4a14.61,14.61,0,0,0-.92-5.44,14.16,14.16,0,0,0-2.63-4.44,12.62,12.62,0,0,0-3.92-3,11,11,0,0,0-4.8-1.14,11.45,11.45,0,0,0-4.82,1,11.83,11.83,0,0,0-4,2.85,14.31,14.31,0,0,0-2.75,4.36,15.19,15.19,0,0,0-1.06,5.52,14.44,14.44,0,0,0,.92,5.39,13.9,13.9,0,0,0,2.63,4.35,12.28,12.28,0,0,0,3.92,2.9,11.56,11.56,0,0,0,4.8,1.1,11.09,11.09,0,0,0,4.83-1,12.68,12.68,0,0,0,4-2.85,13.58,13.58,0,0,0,2.75-4.27A14.05,14.05,0,0,0,362.21,97.4Z" transform="translate(-8.48)"/><path class="cls-2" d="M385.19,93.81a23.1,23.1,0,0,1,1.66-8.53A20,20,0,0,1,398.28,74a23.42,23.42,0,0,1,9-1.53,24.4,24.4,0,0,1,9.05,1.72,18.81,18.81,0,0,1,10.84,11.42,24.79,24.79,0,0,1,1.34,8.76l-.36,28-12.41-.17.37-28.28a15.21,15.21,0,0,0-.24-2.59,8.89,8.89,0,0,0-1.18-3.07A7.78,7.78,0,0,0,412,85.7a9.83,9.83,0,0,0-4.87-1.1,9.37,9.37,0,0,0-6.8,2.45,8.89,8.89,0,0,0-2.72,6.64L397.22,122l-12.4-.16Z" transform="translate(-8.48)"/><path class="cls-2" d="M485.92,123.14,474.18,123l.06-5.12a17.68,17.68,0,0,1-6.59,4.51,21.38,21.38,0,0,1-8.24,1.45,21.07,21.07,0,0,1-9-2.09,23.33,23.33,0,0,1-7.31-5.49,25.78,25.78,0,0,1-4.87-8,26.18,26.18,0,0,1-1.71-9.83,26.64,26.64,0,0,1,2-9.87,24.7,24.7,0,0,1,46,.61,26.6,26.6,0,0,1,1.7,9.91ZM473.84,98.87a14.81,14.81,0,0,0-.92-5.44A14.23,14.23,0,0,0,470.29,89a12.78,12.78,0,0,0-3.93-3,11,11,0,0,0-4.79-1.14,11.5,11.5,0,0,0-4.83,1,11.93,11.93,0,0,0-4,2.85A14.29,14.29,0,0,0,450,93a15,15,0,0,0-1.06,5.51,14.26,14.26,0,0,0,.92,5.4,13.49,13.49,0,0,0,2.63,4.34,12.05,12.05,0,0,0,3.92,2.91,11.56,11.56,0,0,0,4.8,1.1,11,11,0,0,0,4.82-1,13,13,0,0,0,4-2.85,13.75,13.75,0,0,0,2.75-4.27A14.29,14.29,0,0,0,473.84,98.87Z" transform="translate(-8.48)"/></g></g></svg>