<svg xmlns="http://www.w3.org/2000/svg" viewBox="0 0 643 121"><defs><style>.cls-1{fill:#b69cdb;}.cls-2{fill:#fff;}.cls-3{fill:#f7437f;}</style></defs><g id="Capa_2" data-name="Capa 2"><g id="Capa_2-2" data-name="Capa 2"><rect class="cls-1" x="18" y="17" width="624" height="103" rx="51.5"/><path d="M590.5,121H69.5a52.5,52.5,0,0,1,0-105h521a52.5,52.5,0,0,1,0,105ZM69.5,18a50.5,50.5,0,0,0,0,101h521a50.5,50.5,0,0,0,0-101Z"/><rect class="cls-2" x="1" y="1" width="624" height="103" rx="51.5"/><path d="M573.5,105H52.5a52.5,52.5,0,0,1,0-105h521a52.5,52.5,0,0,1,0,105ZM52.5,2a50.5,50.5,0,0,0,0,101h521a50.5,50.5,0,0,0,0-101Z"/><path class="cls-3" d="M44.94,64.12,47.55,46.7h4.5l2.61,17.42v3.82H44.94Zm.4-27.68h8.91v7.65H45.34Z"/><path class="cls-3" d="M59.88,36.44H68L81,53.09V36.44h8.64v31.5H82L68.52,50.66V67.94H59.88Z"/><path class="cls-3" d="M94.79,54.13V36.44h8.87V54c0,4.54,2.3,6.7,5.8,6.7s5.81-2.07,5.81-6.48V36.44h8.86V53.9c0,10.17-5.8,14.62-14.76,14.62S94.79,64,94.79,54.13Z"/><path class="cls-3" d="M129.31,36.44h25.33v7.43H138v4.77h15.12v6.88H138v5h16.92v7.42H129.31Z"/><path class="cls-3" d="M156.8,36.44h9.77l7.15,19.94,7.16-19.94h9.58L177.68,68.17h-8.1Z"/><path class="cls-3" d="M190.42,52.28v-.09c0-9,7.29-16.38,17-16.38s16.92,7.25,16.92,16.29v.09c0,9.05-7.29,16.38-17,16.38S190.42,61.33,190.42,52.28Zm25,0v-.09c0-4.54-3.29-8.5-8.1-8.5s-8,3.87-8,8.41v.09c0,4.55,3.29,8.51,8.06,8.51S215.44,56.83,215.44,52.28Z"/><path class="cls-3" d="M226.29,63.26l4.85-5.8a16.27,16.27,0,0,0,10.22,3.78c2.34,0,3.6-.81,3.6-2.16V59c0-1.31-1-2-5.31-3-6.71-1.53-11.88-3.42-11.88-9.9V46c0-5.85,4.63-10.08,12.19-10.08,5.36,0,9.54,1.44,13,4.19l-4.36,6.16a15.83,15.83,0,0,0-8.82-3.1c-2.12,0-3.15.9-3.15,2v.09c0,1.44,1.08,2.07,5.44,3.06,7.25,1.58,11.75,3.92,11.75,9.81v.09c0,6.44-5.09,10.26-12.74,10.26A21.93,21.93,0,0,1,226.29,63.26Z"/><path class="cls-3" d="M270.47,36.44H284c8,0,13.1,4.1,13.1,11.07v.09c0,7.43-5.72,11.34-13.55,11.34H279.2v9h-8.73ZM283.34,52.1c3.11,0,5-1.62,5-4.09v-.09c0-2.7-1.89-4.14-5-4.14h-4.1V52.1Z"/><path class="cls-3" d="M300.76,36.44h14.89c4.82,0,8.15,1.26,10.26,3.42a9.75,9.75,0,0,1,2.79,7.34v.09A10,10,0,0,1,322.22,57l7.52,11H319.66l-6.35-9.54h-3.82v9.54h-8.73Zm14.49,15.12c3,0,4.68-1.44,4.68-3.73v-.09c0-2.48-1.8-3.74-4.73-3.74h-5.71v7.56Z"/><path class="cls-3" d="M332,52.28v-.09c0-9,7.29-16.38,17-16.38S366,43.06,366,52.1v.09c0,9.05-7.29,16.38-17,16.38S332,61.33,332,52.28Zm25,0v-.09c0-4.54-3.28-8.5-8.1-8.5s-8,3.87-8,8.41v.09c0,4.55,3.28,8.51,8.05,8.51S357.05,56.83,357.05,52.28Z"/><path class="cls-3" d="M370.51,36.44h12.15c11.25,0,17.77,6.48,17.77,15.57v.09c0,9.09-6.61,15.84-17.95,15.84h-12ZM382.79,60.2c5.22,0,8.69-2.88,8.69-8v-.09c0-5-3.47-8-8.69-8h-3.55v16Z"/><path class="cls-3" d="M404.53,54.13V36.44h8.86V54c0,4.54,2.3,6.7,5.81,6.7s5.8-2.07,5.8-6.48V36.44h8.87V53.9c0,10.17-5.81,14.62-14.76,14.62S404.53,64,404.53,54.13Z"/><path class="cls-3" d="M438,52.28v-.09a16.19,16.19,0,0,1,16.61-16.38c6.43,0,10.57,2.7,13.36,6.57l-6.57,5.09c-1.8-2.25-3.87-3.69-6.88-3.69-4.41,0-7.52,3.73-7.52,8.32v.09c0,4.73,3.11,8.42,7.52,8.42,3.28,0,5.22-1.53,7.11-3.83l6.56,4.68c-3,4.1-7,7.11-13.94,7.11A16,16,0,0,1,438,52.28Z"/><path class="cls-3" d="M479.59,44.09h-9.45V36.44h27.63v7.65h-9.46V67.94h-8.72Z"/><path class="cls-3" d="M499.16,52.28v-.09c0-9,7.29-16.38,17-16.38s16.92,7.25,16.92,16.29v.09c0,9.05-7.29,16.38-17,16.38S499.16,61.33,499.16,52.28Zm25,0v-.09c0-4.54-3.29-8.5-8.1-8.5s-8,3.87-8,8.41v.09c0,4.55,3.28,8.51,8,8.51S524.18,56.83,524.18,52.28Z"/><path class="cls-3" d="M535,63.26l4.85-5.8a16.29,16.29,0,0,0,10.22,3.78c2.34,0,3.6-.81,3.6-2.16V59c0-1.31-1-2-5.31-3-6.71-1.53-11.88-3.42-11.88-9.9V46c0-5.85,4.63-10.08,12.19-10.08,5.36,0,9.54,1.44,13,4.19l-4.36,6.16a15.83,15.83,0,0,0-8.82-3.1c-2.12,0-3.15.9-3.15,2v.09c0,1.44,1.08,2.07,5.44,3.06,7.25,1.58,11.75,3.92,11.75,9.81v.09c0,6.44-5.09,10.26-12.74,10.26A22,22,0,0,1,535,63.26Z"/><path class="cls-3" d="M566.39,40.27V36.44h9.72v3.83L573.5,57.68H569Zm.4,20h8.91v7.65h-8.91Z"/></g></g></svg>