<svg xmlns="http://www.w3.org/2000/svg" xmlns:xlink="http://www.w3.org/1999/xlink" viewBox="0 0 954 525.5"><defs><style>.cls-1{fill:none;}.cls-2{fill:#f7ac36;}.cls-3{clip-path:url(#clip-path);}.cls-4{fill:#fff;}.cls-5{fill:#1e1e1d;}.cls-6{fill:#d81c88;}</style><clipPath id="clip-path" transform="translate(0 -107.54)"><path class="cls-1" d="M129.19,465.47H824.38L760.52,340.22l51.69-14.86q24.06-54.71,48.1-109.4L840.6,101.74,671.78,27.5,526.64,0,321,11.68,195.69,33.3l-47.87,98.43L81.69,217.47Z"/></clipPath></defs><g id="Capa_2" data-name="Capa 2"><g id="Capa_2-2" data-name="Capa 2"><path class="cls-2" d="M831,465.47H123a123,123,0,0,1-123-123V331.25a123,123,0,0,1,123-123H831a123,123,0,0,1,123,123v11.22A123,123,0,0,1,831,465.47Z" transform="translate(0 -107.54)"/><g class="cls-3"><g id="Responsibility"><polygon class="cls-4" points="154.41 481.25 157.06 506.74 170.58 506.58 170.39 479.39 154.41 481.25"/><path d="M157.06,615.12a.84.84,0,0,1-.84-.75l-2.65-25.49a.83.83,0,0,1,.74-.92l16-1.87a.87.87,0,0,1,.66.21.82.82,0,0,1,.28.62l.19,27.19a.84.84,0,0,1-.83.85l-13.52.16Zm-1.73-25.59,2.49,23.9,11.91-.14-.18-25.41Z" transform="translate(0 -107.54)"/><polygon class="cls-4" points="275.67 476.75 288.47 504.42 301.47 504.42 293.03 474.72 275.67 476.75"/><path d="M301.47,612.81h-13a.83.83,0,0,1-.76-.49l-12.8-27.68a.79.79,0,0,1,0-.76.83.83,0,0,1,.63-.43l17.36-2a.84.84,0,0,1,.91.6l8.44,29.7a.85.85,0,0,1-.81,1.08ZM289,611.12h11.34l-7.94-27.94L276.93,585Z" transform="translate(0 -107.54)"/><path class="cls-4" d="M213.36,624.52c-4.74-5.63-16-14.52-42.48-22.15a3.49,3.49,0,0,0-3.61,1.07l-4.93,5.63-7.16-3.74a3.2,3.2,0,0,0-4.62,2.15,88.4,88.4,0,0,0-1.93,16.34,5.89,5.89,0,0,0,5.64,6c11.35.46,37.72,1.34,56.4.65A3.65,3.65,0,0,0,213.36,624.52Z" transform="translate(0 -107.54)"/><path d="M194.69,631.58c-15.82,0-32.55-.59-40.45-.9a6.77,6.77,0,0,1-6.45-6.88,88.73,88.73,0,0,1,2-16.49,4,4,0,0,1,2.22-2.8,4,4,0,0,1,3.61.07l6.58,3.43,4.49-5.13a4.33,4.33,0,0,1,4.47-1.32c26.22,7.55,37.8,16.36,42.89,22.42a4.4,4.4,0,0,1,.66,4.65,4.49,4.49,0,0,1-4,2.69C205.77,631.5,200.29,631.58,194.69,631.58Zm-41-25.77a2.39,2.39,0,0,0-1,.22,2.32,2.32,0,0,0-1.29,1.63,86.08,86.08,0,0,0-1.91,16.18,5.07,5.07,0,0,0,4.83,5.15c10.67.43,37.52,1.35,56.33.64a2.78,2.78,0,0,0,2.48-1.68,2.7,2.7,0,0,0-.41-2.88c-4.94-5.88-16.25-14.45-42.07-21.89a2.64,2.64,0,0,0-2.73.81L163,609.62a.84.84,0,0,1-1,.2l-7.17-3.74A2.34,2.34,0,0,0,153.69,605.81Z" transform="translate(0 -107.54)"/><path d="M208.15,626.93h0l-54.75-1.8a.84.84,0,0,1-.81-.87.85.85,0,0,1,.87-.82l54.74,1.81a.85.85,0,0,1,0,1.69Z" transform="translate(0 -107.54)"/><path d="M180.77,617.63a.81.81,0,0,1-.42-.12.85.85,0,0,1-.31-1.15l5.38-9.28a.85.85,0,0,1,1.16-.3.84.84,0,0,1,.3,1.15l-5.38,9.28A.85.85,0,0,1,180.77,617.63Z" transform="translate(0 -107.54)"/><path class="cls-4" d="M343.53,622.16c-4.74-5.63-16-14.53-42.48-22.15a3.51,3.51,0,0,0-3.61,1.06l-4.92,5.64L285.35,603a3.2,3.2,0,0,0-4.62,2.15,88.43,88.43,0,0,0-1.92,16.34,5.88,5.88,0,0,0,5.64,6c11.34.45,37.72,1.34,56.39.64A3.63,3.63,0,0,0,343.53,622.16Z" transform="translate(0 -107.54)"/><path d="M324.88,629.21c-15.81,0-32.56-.58-40.47-.9a6.77,6.77,0,0,1-6.45-6.87,89,89,0,0,1,2-16.5,4,4,0,0,1,5.83-2.72l6.58,3.43,4.49-5.13a4.37,4.37,0,0,1,4.47-1.33c26.22,7.56,37.8,16.37,42.9,22.43a4.38,4.38,0,0,1,.65,4.65,4.49,4.49,0,0,1-3.95,2.69C336,629.14,330.47,629.21,324.88,629.21Zm-41-25.77a2.44,2.44,0,0,0-1,.23,2.32,2.32,0,0,0-1.29,1.63,86.93,86.93,0,0,0-1.91,16.18,5.07,5.07,0,0,0,4.83,5.15c10.68.42,37.54,1.34,56.33.64a2.77,2.77,0,0,0,2.48-1.68,2.7,2.7,0,0,0-.4-2.89c-4.95-5.88-16.26-14.45-42.07-21.88a2.66,2.66,0,0,0-2.74.81l-4.93,5.63a.83.83,0,0,1-1,.2L285,603.71A2.38,2.38,0,0,0,283.86,603.44Z" transform="translate(0 -107.54)"/><path d="M338.32,624.56h0l-54.75-1.81a.84.84,0,0,1,.06-1.68l54.75,1.81a.84.84,0,0,1,0,1.68Z" transform="translate(0 -107.54)"/><path d="M310.94,615.27a.85.85,0,0,1-.72-1.27l5.38-9.28a.85.85,0,0,1,1.15-.31.86.86,0,0,1,.31,1.16l-5.38,9.28A.85.85,0,0,1,310.94,615.27Z" transform="translate(0 -107.54)"/><path class="cls-5" d="M175.17,334.25s-14.37,19.26-19.1,53.37-3.29,72.1-6.88,88.95-10.75,75.67,3.64,114.69h21.22s30.12-156.59,40.73-181.83c0,0,8.1,22.43,12.11,43.84s3.32,48.75,12.7,72.26,36.53,66.7,36.53,66.7l23.29-1S261.53,427.9,256.82,348.62C256.82,348.62,202.93,319.06,175.17,334.25Z" transform="translate(0 -107.54)"/><path class="cls-4" d="M212.58,421.58a.64.64,0,0,1-.2,0,.84.84,0,0,1-.62-1l6.7-26.49a.81.81,0,0,1,.38-.52l7.23-4.28a.85.85,0,0,1,1.16.29.86.86,0,0,1-.3,1.16l-6.92,4.1-6.61,26.15A.84.84,0,0,1,212.58,421.58Z" transform="translate(0 -107.54)"/><path class="cls-4" d="M175.27,507.19a.84.84,0,0,1-.29-1.63c9.54-3.46,12.34-11.15,12.37-11.23a.84.84,0,0,1,1.59.56c-.12.34-3.06,8.51-13.39,12.25A.69.69,0,0,1,175.27,507.19Z" transform="translate(0 -107.54)"/><path class="cls-4" d="M321.92,157.11s16.18,55.45-17.06,54-10,3.25-41.66,5.35-45.44-2.64-78.83,51.16-39.56,69.18-10.08,87.18,80.42,2.14,88.91,9.42c11.52,9.88,21.38-24,27.34-52.07,3.59-16.91,20.15-56.52,37.07-60.1,21.85-4.64,43.21-28.43,25.58-84.15Z" transform="translate(0 -107.54)"/><path class="cls-5" d="M267.3,366.84a7.17,7.17,0,0,1-4.65-2c-3-2.58-12.95-1.93-24.46-1.17-19.4,1.28-46,3-64.34-8.17-11.31-6.9-16.91-13.09-18.71-20.69-3.22-13.52,5.77-31,28.51-67.66,30.48-49.11,44.88-49.81,71-51.08,2.71-.13,5.51-.27,8.48-.47,14.67-1,17.33-2.46,19.47-3.66,2.65-1.48,4.4-2.46,22.29-1.69,6.57.28,11.58-1.74,14.92-6,10.8-13.77,1.39-46.61,1.29-46.94a.85.85,0,0,1,.23-.85.83.83,0,0,1,.86-.18l31.27,10.8a.86.86,0,0,1,.53.54c8.83,27.92,8.7,50.92-.38,66.5a39,39,0,0,1-25.84,18.73c-16.44,3.49-33,43.26-36.42,59.46-7.08,33.36-14.52,51.59-22.12,54.16A6,6,0,0,1,267.3,366.84Zm-14.68-5.5c5.29,0,9.13.55,11.13,2.26,1.68,1.44,3.29,1.87,4.95,1.31,6.79-2.3,14.26-21.09,21-52.91,3.23-15.22,19.72-56.94,37.72-60.76a37.25,37.25,0,0,0,24.73-17.93c8.79-15.08,8.91-37.46.36-64.74l-29.36-10.14c1.8,6.87,8,34.06-2,46.9-3.69,4.71-9.17,6.95-16.31,6.64-17.41-.75-19.09.19-21.4,1.48s-5.13,2.88-20.18,3.88c-3,.2-5.79.33-8.51.46-25.56,1.25-39.64,1.94-69.66,50.29-22.48,36.22-31.38,53.45-28.3,66.38,1.69,7.12,7.06,13,17.95,19.64,17.9,10.92,44.17,9.19,63.35,7.93C243.66,361.66,248.57,361.34,252.62,361.34Z" transform="translate(0 -107.54)"/><path d="M267.94,199.05S254.87,187,250.08,184.16s-10.76-14.34,5.34-21.4c5.22-2.28,6.25-8.62,16.31-9.71s18.4,4,19.48,10.36-4.93,11.84-9.42,12.57S267.94,199.05,267.94,199.05Z" transform="translate(0 -107.54)"/><path class="cls-4" d="M290.64,184.15l1.4-2L286.51,175l-3.8-9.31c-10.73-.72-15,2.21-15.17,10.44-.09,5.27-2.87,5.4-2.87,5.4s-4.07-4.39-6.18.81,6.66,8.83,6.66,8.83l1.85,3.9-18.16,24.68s29.24,7.75,29.55,3.13a4.94,4.94,0,0,0-1-3.35c-3.37-4.59,2.72-17,2.72-17l9.77-3.94a3.77,3.77,0,0,0,2.2-4.54l-1.93-6.64A3.88,3.88,0,0,1,290.64,184.15Z" transform="translate(0 -107.54)"/><path class="cls-5" d="M274.24,225.2c-8,0-23.5-4-25.62-4.59a.83.83,0,0,1-.58-.54.84.84,0,0,1,.12-.78L266,195l-1.5-3.16c-1.64-.74-9-4.41-6.82-9.79.72-1.77,1.75-2.78,3.06-3,1.77-.33,3.44.94,4.16,1.59.56-.25,1.72-1.15,1.78-4.49.06-3.9,1.07-6.69,3.06-8.52,2.5-2.3,6.63-3.17,13-2.74a.85.85,0,0,1,.72.52l3.75,9.2,5.47,7a.84.84,0,0,1,0,1l-1.4,2a3,3,0,0,0-.42,2.57l1.93,6.64a4.6,4.6,0,0,1-2.7,5.56l-9.46,3.82c-1.69,3.55-5.1,12.52-2.66,15.85a5.84,5.84,0,0,1,1.21,3.91,1.9,1.9,0,0,1-.84,1.43A7.76,7.76,0,0,1,274.24,225.2Zm-24-5.91C260,221.78,275,224.8,277.42,223c.13-.09.13-.14.13-.17a4.14,4.14,0,0,0-.88-2.8c-3.63-4.95,2.39-17.36,2.65-17.88a.84.84,0,0,1,.44-.41l9.76-3.94a2.92,2.92,0,0,0,1.71-3.52l-1.93-6.65a4.69,4.69,0,0,1,.65-4l1.05-1.51-5.16-6.6a.82.82,0,0,1-.12-.2l-3.59-8.82c-5.58-.32-9.16.42-11.23,2.33-1.66,1.52-2.46,3.84-2.51,7.31-.11,6-3.53,6.22-3.68,6.23a.88.88,0,0,1-.65-.27c-.45-.47-1.86-1.65-3-1.43-.71.13-1.31.8-1.79,2-1.77,4.37,6.12,7.7,6.2,7.73a.86.86,0,0,1,.44.42l1.85,3.9a.86.86,0,0,1-.08.86Zm40.39-35.14h0Z" transform="translate(0 -107.54)"/><polygon class="cls-4" points="808.24 450.27 818.41 477.7 804 482.12 793.12 456.62 808.24 450.27"/><path d="M804,590.51a.86.86,0,0,1-.78-.51l-10.88-25.51a.86.86,0,0,1,0-.65.85.85,0,0,1,.45-.46L807.92,557a.83.83,0,0,1,1.11.48L819.2,585a.87.87,0,0,1,0,.67.9.9,0,0,1-.51.43l-14.42,4.42A.67.67,0,0,1,804,590.51Zm-9.77-25.9,10.24,24,12.84-3.94-9.55-25.76Z" transform="translate(0 -107.54)"/><path class="cls-4" d="M801.27,583.82a12.68,12.68,0,0,0,13.27-5.65l1.48-2.35a1.5,1.5,0,0,1,2.33-.25L831.53,589a6.74,6.74,0,0,1,.9,8.61,66.68,66.68,0,0,1-11,12.1c-9.14,7.67-15.69,21.64-26.67,20.56s-10.53-1.68-12.31-4.76,2-10.76,8.89-19.86c4.24-5.56,7.34-16.47,8.19-20.65A1.5,1.5,0,0,1,801.27,583.82Z" transform="translate(0 -107.54)"/><path d="M795.92,631.15q-.61,0-1.26-.06c-10.29-1-11-1.66-12.62-4.57l-.34-.61c-2.58-4.46,4.5-14.94,8.95-20.79,4-5.28,7.15-16,8-20.31a2.29,2.29,0,0,1,1-1.48,2.35,2.35,0,0,1,1.75-.34,11.92,11.92,0,0,0,12.39-5.27l1.48-2.35A2.28,2.28,0,0,1,817,574.3,2.33,2.33,0,0,1,819,575l13.18,13.41a7.6,7.6,0,0,1,1,9.69A67.51,67.51,0,0,1,822,610.34a73.31,73.31,0,0,0-8,8.37C808.68,624.83,803.23,631.15,795.92,631.15ZM801,584.63a.69.69,0,0,0-.36.11.62.62,0,0,0-.27.41c-.72,3.55-3.81,15-8.34,21-8.29,10.89-10,16.92-8.84,18.93.13.22.24.43.35.62,1.28,2.28,1.54,2.76,11.31,3.72,7.09.69,12.32-5.37,17.85-11.8a75.69,75.69,0,0,1,8.19-8.56,65.76,65.76,0,0,0,10.88-11.95,5.89,5.89,0,0,0-.79-7.51l-13.2-13.43a.68.68,0,0,0-.54-.19.65.65,0,0,0-.47.3l-1.49,2.35a13.61,13.61,0,0,1-14.15,6Z" transform="translate(0 -107.54)"/><path d="M806.75,600.33h-.16l-10.41-2a.85.85,0,1,1,.32-1.66l10.41,2a.84.84,0,0,1-.16,1.67Z" transform="translate(0 -107.54)"/><path d="M804.15,607l-.17,0-11-2.17a.85.85,0,0,1,.32-1.66l11,2.18a.84.84,0,0,1-.16,1.67Z" transform="translate(0 -107.54)"/><path class="cls-4" d="M782.89,626.2s6.75,6.41,17.11-2.13c6.9-5.69,31.44-35.3,31.44-35.3l3.08,2.9a4.14,4.14,0,0,1,.39,5.59c-6,7.61-22.38,27.39-33,32.57C788.75,636.29,782.89,626.2,782.89,626.2Z" transform="translate(0 -107.54)"/><path d="M793.66,632.83a13.84,13.84,0,0,1-11.5-6.2.84.84,0,0,1,1.31-1c.26.25,6.38,5.75,16-2.17,6.76-5.58,31.09-34.9,31.33-35.19a.83.83,0,0,1,.6-.3.82.82,0,0,1,.63.22l3.08,2.9a5,5,0,0,1,.47,6.73c-6.45,8.13-22.6,27.6-33.26,32.81A19.69,19.69,0,0,1,793.66,632.83Zm-7-3.84c2.82,2,7.67,3.61,14.87.09,10.35-5.07,26.3-24.31,32.68-32.35a3.32,3.32,0,0,0-.31-4.45L831.52,590c-3.83,4.59-24.61,29.46-31,34.72C794.72,629.51,789.92,629.78,786.7,629Z" transform="translate(0 -107.54)"/><polygon class="cls-4" points="729.9 460.34 738.93 499.77 722.81 508.69 711.62 465.85 729.9 460.34"/><path d="M722.81,617.08a.8.8,0,0,1-.34-.07.84.84,0,0,1-.48-.56L710.8,573.6a.85.85,0,0,1,.58-1l18.28-5.51a.85.85,0,0,1,.66.08.81.81,0,0,1,.4.54l9,39.44a.83.83,0,0,1-.41.92L723.22,617A.87.87,0,0,1,722.81,617.08ZM712.64,574l10.71,41L738,606.89,729.28,569Z" transform="translate(0 -107.54)"/><path class="cls-4" d="M741.26,605.43a143.93,143.93,0,0,1,1.35,17.24,7.85,7.85,0,0,1-6.91,7.8c-11.11,1.35-36.31,2.74-57.76.63-1.47-.14-4.06-1.24-4.75-4.93-2.34-12.4,19.1-15.29,42.66-24.11a2.52,2.52,0,0,1,2.66.57l2.52,2.48a8.71,8.71,0,0,0,9.52,1.85l7.73-3.25A2.16,2.16,0,0,1,741.26,605.43Z" transform="translate(0 -107.54)"/><path d="M702.55,633c-8.13,0-16.66-.31-24.69-1.1-2.09-.2-4.78-1.8-5.5-5.61-1.93-10.23,11-14.39,27.3-19.65,5.11-1.65,10.39-3.35,15.89-5.41a3.38,3.38,0,0,1,3.55.76l2.52,2.48a7.86,7.86,0,0,0,8.61,1.67l7.72-3.25a3,3,0,0,1,4.15,2.39,148.37,148.37,0,0,1,1.36,17.35,8.69,8.69,0,0,1-7.66,8.64A299.94,299.94,0,0,1,702.55,633Zm14.19-30.29a1.8,1.8,0,0,0-.6.1c-5.53,2.08-10.83,3.78-16,5.44-16.15,5.2-27.82,9-26.16,17.72.7,3.74,3.46,4.2,4,4.25,21.28,2.1,46.09.77,57.58-.63a7,7,0,0,0,6.17-7,146,146,0,0,0-1.34-17.13,1.32,1.32,0,0,0-.66-1,1.28,1.28,0,0,0-1.16-.07l-7.73,3.25a9.56,9.56,0,0,1-10.45-2l-2.51-2.48A1.66,1.66,0,0,0,716.74,602.75Z" transform="translate(0 -107.54)"/><path class="cls-4" d="M742.6,621.72s0,.64,0,.95a7.85,7.85,0,0,1-6.91,7.8c-11.11,1.35-36.31,2.74-57.76.63-1.47-.14-4.06-1.24-4.75-4.93a16,16,0,0,1-.07-3.17l1.53.09a441.21,441.21,0,0,0,65-1.11Z" transform="translate(0 -107.54)"/><path d="M702.55,633c-8.13,0-16.66-.31-24.69-1.1-2.09-.2-4.78-1.8-5.5-5.61a17.71,17.71,0,0,1-.08-3.39.86.86,0,0,1,.89-.78l1.52.08a440.91,440.91,0,0,0,64.91-1.1l2.93-.26a.85.85,0,0,1,.64.21.9.9,0,0,1,.28.62v1a8.69,8.69,0,0,1-7.66,8.64A299.94,299.94,0,0,1,702.55,633Zm-28.62-9.15A11.05,11.05,0,0,0,674,626c.7,3.74,3.46,4.2,4,4.25,21.28,2.1,46.09.77,57.58-.63a7,7,0,0,0,6.17-7v0l-2,.18a444.2,444.2,0,0,1-65.15,1.11Z" transform="translate(0 -107.54)"/><path d="M710.36,616.25a.86.86,0,0,1-.6-.26l-8.18-8.35a.84.84,0,0,1,1.2-1.18l8.19,8.35a.85.85,0,0,1,0,1.19A.87.87,0,0,1,710.36,616.25Z" transform="translate(0 -107.54)"/><path d="M702.26,617.05a.84.84,0,0,1-.61-.27l-6.54-6.92a.85.85,0,0,1,0-1.2.84.84,0,0,1,1.19,0l6.54,6.93a.84.84,0,0,1,0,1.19A.85.85,0,0,1,702.26,617.05Z" transform="translate(0 -107.54)"/><path class="cls-5" d="M653.39,372.52c-3.13,1.19-7.13,2.37-7.13,2.37s-.31,5.5,8.46,11.53c7,4.83,32.18,18.57,73,8.94,11.26-2.66,23.19-12.59,16.17-24.48C734.5,355,693.4,358.22,693.4,358.22Z" transform="translate(0 -107.54)"/><path class="cls-5" d="M811.43,560.67c-33.71-88.56-55.93-90.61-68.48-112-13.27-22.59-13.4-41.54-16-66.19-1.92-18.09-13.8-35.46-13.49-37.68l-4,.35a37.13,37.13,0,0,0-2-4.39l-50.83,9s-17.44,57.63,7.47,126.2c18,49.59,42.18,99.63,49.58,115.19a7.88,7.88,0,0,0,8,4.43l8.69-.81c4.68-.56,6.41-6.74,6.72-9.66,1.48-13.94-.89-32.59-5.88-54.81-2.85-12.7-9.78-26.19-12.19-37.95-.66-3.19-1.28-6.28-1.86-9.25,4.22,6.15,7.93,11.53,10.61,15.6,10.76,16.38,53.41,57.31,62.41,72.12a7.72,7.72,0,0,0,7.28,3.69l7.57-2.72S813.68,566.57,811.43,560.67Z" transform="translate(0 -107.54)"/><path class="cls-4" d="M720.76,596.48a8.71,8.71,0,0,1-7.85-5l-1.2-2.53c-8.55-17.92-31.26-65.53-48.41-112.74-24.72-68.05-7.67-126.15-7.49-126.73a.85.85,0,0,1,.66-.59l50.84-9a.83.83,0,0,1,.87.41,32.46,32.46,0,0,1,1.82,3.92l3.37-.3a.85.85,0,0,1,.68.25.87.87,0,0,1,.23.7c0,.55,1.25,3.05,2.46,5.47,3.62,7.24,9.68,19.35,11,32,.35,3.26.65,6.42.94,9.5,1.9,19.8,3.54,36.91,15,56.36,3.49,6,7.84,10.48,12.88,15.72,13.26,13.8,31.42,32.7,55.66,96.38,2.47,6.48-6.35,11.91-6.73,12.14l-.15.08-7.57,2.71a.8.8,0,0,1-.21.05,8.5,8.5,0,0,1-8.07-4.09c-4.53-7.46-18-22-31.1-36-12.77-13.73-26-27.93-31.3-36-2.17-3.31-5-7.43-8.27-12.21q.51,2.57,1,5.22c1.21,5.89,3.53,12.13,6,18.74a153.47,153.47,0,0,1,6.2,19.2c5.37,23.88,7.3,41.9,5.9,55.08-.38,3.58-2.38,9.8-7.46,10.41l-8.71.81A9,9,0,0,1,720.76,596.48Zm-63.48-246c-1.59,5.78-15.71,61,7.6,125.17,17.13,47.13,39.81,94.69,48.35,112.6l1.21,2.52a7,7,0,0,0,7.17,4l8.71-.81c4-.48,5.66-6,6-8.91,1.38-13-.53-30.83-5.86-54.54a153.1,153.1,0,0,0-6.14-19c-2.48-6.68-4.83-13-6.06-19-.65-3.19-1.27-6.28-1.85-9.25a.84.84,0,0,1,1.52-.64l2.24,3.27c3.31,4.82,6.18,9,8.37,12.34,5.26,8,18.41,22.14,31.12,35.82,13.73,14.77,26.69,28.72,31.31,36.33a6.86,6.86,0,0,0,6.38,3.29l7.37-2.65c.78-.49,7.84-5.15,6-10.06-24.13-63.36-42.15-82.12-55.31-95.81-5.11-5.32-9.52-9.91-13.12-16C730.61,429.35,729,412.07,727,392.07c-.29-3.08-.59-6.23-.94-9.48-1.31-12.35-7.29-24.3-10.86-31.43a43.42,43.42,0,0,1-2.49-5.43l-3.21.28a.86.86,0,0,1-.86-.53c-.74-1.85-1.34-3.11-1.67-3.76ZM805.06,571.79Z" transform="translate(0 -107.54)"/><path class="cls-4" d="M729,503.73a.84.84,0,0,1-.71-.38c0-.08-4.81-7.54-11.42-17l-.61-.87c-11.84-17-33.89-48.55-40.86-80.29a.85.85,0,1,1,1.65-.37c6.89,31.42,28.82,62.82,40.59,79.7l.61.87c6.63,9.5,11.42,17,11.46,17.06a.83.83,0,0,1-.71,1.29Z" transform="translate(0 -107.54)"/><path class="cls-5" d="M662.26,199.09a22.12,22.12,0,0,1-2.1-8c-.32-5.86,1.15-14.57,10.72-21,15.91-10.76,33.52,7.5,40.44,9.58,8.79,2.65,24.28-4.24,30.1-3.28,5.38.88,25.92,1.07,30.19,26.69a51,51,0,0,1,.6,8.56c0,3.63.91,13.35,13.18,22,16.39,11.56,32.12,45.55,7.26,64.15-5.95,4.44-14,3.64-20.51,1.57a38.5,38.5,0,0,1-3.71-1.39c-3.74-1.63-7.85-6.64-12.34-5.84-13.17,2.32-55.13,21.91-51.7-25.46,1-13.32.73-22.17-11.06-24.94-4.54-1.06-12.51,2.36-21.33.24-18.75-4.5-14-25.36-10.35-32.27C664.34,204.51,663.29,201.32,662.26,199.09Z" transform="translate(0 -107.54)"/><path class="cls-4" d="M609,162.84a.43.43,0,0,1,.52-.39l3.36.6a.63.63,0,0,0,.73-.71,22.91,22.91,0,0,1-.18-6c.65-5.22-.89-14.64-1-17.67s.55-4.64,2.42-4.84a3.27,3.27,0,0,1,3.48,2.47c.1.38.21,1.19.35,2.15.69,4.71,9.48,10.65,9.48,10.65s.8,1.21.39,1.82l-3.92,6c-.68,1.18-.67,4-.44,6.76a1.3,1.3,0,0,0,1.15,1.19l3.78.43a.48.48,0,0,1,.42.45c.1,3.72,1.05,32,7.68,45.21,6.48,13,27.85,20.65,42,17.55,1.07-.24,2.14-.45,3.23-.65,9.79-1.74,20.81,2.53,30.86,7.58,15.81,8,15.23,21.09,12.78,38.06-1.89,13-5,8.05-6.64,25.25-2.52,26.94,15.41,61.4,22.8,72.13.58.85-18.63-9.95-30.62-11.6a66.87,66.87,0,0,0-34.27,4L649,375a1.3,1.3,0,0,1-1.8-1.26c.43-8.78,2.14-44.14,3-73.9a32.16,32.16,0,0,0-2.63-13.62l-.65-1.52a25.9,25.9,0,0,1,.11-21.56l2.85-6.27c-.15-.7-.33-1.12-.53-1.19-8.87-3-26.26-10.29-31.58-21.65C606,209.12,608.57,167.72,609,162.84Z" transform="translate(0 -107.54)"/><path class="cls-5" d="M648.48,375.94a2.13,2.13,0,0,1-2.14-2.25c.49-9.89,2.14-44.46,2.94-73.87a31,31,0,0,0-2.55-13.27l-.65-1.52a26.67,26.67,0,0,1,.12-22.24l2.72-6a2.19,2.19,0,0,0-.11-.37c-7.89-2.7-26.29-10.12-31.87-22-12.34-26.31-8.85-71.17-8.82-71.62h0a1.27,1.27,0,0,1,.5-.91,1.25,1.25,0,0,1,1-.24l3.06.55a24.28,24.28,0,0,1-.14-5.89c.44-3.48-.15-9-.57-13.05-.2-1.88-.37-3.51-.39-4.5-.06-2.48.25-5.37,3.17-5.69a4.12,4.12,0,0,1,4.39,3.1c.1.37.19,1,.31,1.86l.06.38c.52,3.56,6.75,8.48,9.11,10.07a.88.88,0,0,1,.23.24c.26.39,1.06,1.75.4,2.75l-3.93,6c-.25.43-.66,1.88-.3,6.22a.46.46,0,0,0,.41.42l3.77.43a1.31,1.31,0,0,1,1.17,1.27c.09,3.21,1,31.71,7.59,44.85s27.8,20,41.08,17.1c1.11-.24,2.21-.46,3.26-.65,10.59-1.88,22.34,3.11,31.39,7.66,16.29,8.19,15.7,21.88,13.23,38.93-.86,6-2,8.3-3.12,10.54-1.29,2.63-2.63,5.34-3.51,14.67-2.41,25.71,14.22,59.32,22.65,71.57a.9.9,0,0,1,0,1.07c-.5.57-.49.58-4.35-1.28-6-2.89-18.41-8.89-27-10.08A66.36,66.36,0,0,0,677.69,364L649.3,375.78A2.17,2.17,0,0,1,648.48,375.94ZM609.77,163.36c-.33,4.75-2.79,45.81,8.69,70.32,5.36,11.41,23.53,18.63,31.09,21.2.66.22.91,1,1.09,1.81a1,1,0,0,1-.06.53l-2.85,6.26a25,25,0,0,0-.1,20.89l.65,1.51a32.77,32.77,0,0,1,2.69,14c-.8,29.44-2.46,64-3,73.92a.45.45,0,0,0,.19.39.46.46,0,0,0,.44.05l28.4-11.74a68,68,0,0,1,34.71-4c8.88,1.22,21.48,7.3,27.53,10.23l.73.35c-8.87-14-23.71-45.68-21.4-70.34.91-9.65,2.32-12.5,3.68-15.26,1.1-2.23,2.13-4.33,3-10,2.45-16.92,3-29.48-12.32-37.18-8.82-4.44-20.23-9.3-30.34-7.51-1,.19-2.1.4-3.19.64-13.86,3-36.11-4.31-42.95-18-6.55-13.1-7.62-40.74-7.76-45.24l-3.45-.39a2.16,2.16,0,0,1-1.9-2c-.31-3.71-.13-6.08.54-7.25l4-6a2.78,2.78,0,0,0-.32-.76c-1.23-.86-9-6.4-9.68-11.13l-.06-.38c-.1-.72-.2-1.4-.27-1.68a2.46,2.46,0,0,0-2.58-1.85c-.85.1-1.74.49-1.67,4,0,.92.19,2.51.39,4.36.43,4.12,1,9.76.57,13.43a22.26,22.26,0,0,0,.17,5.73,1.48,1.48,0,0,1-1.71,1.66ZM649,256.48h0Z" transform="translate(0 -107.54)"/><path class="cls-5" d="M671.81,287.92a.84.84,0,0,1-.73-.42c-4.36-7.64-2.32-19-2.23-19.47a.84.84,0,0,1,1.66.31c0,.11-2,11.23,2,18.32a.85.85,0,0,1-.31,1.15A.8.8,0,0,1,671.81,287.92Z" transform="translate(0 -107.54)"/><path d="M625.64,165.75h-.09l-6.29-.66a.84.84,0,0,1-.74-.93.83.83,0,0,1,.92-.75l6.29.66a.85.85,0,0,1-.09,1.69Z" transform="translate(0 -107.54)"/><path class="cls-6" d="M323.69,140.13A98.36,98.36,0,0,1,397,108.39a92,92,0,0,1,57.49,20,117.49,117.49,0,0,1,23.21,24.35A118.12,118.12,0,0,1,501,128.49a92.06,92.06,0,0,1,57.57-19.75,98.46,98.46,0,0,1,73.17,32.07c18.69,20.37,29,48.17,28.89,78.28-.06,31-11.66,59.33-36.49,89.2C601.92,335,570,362.1,533.06,393.48c-12.62,10.71-26.92,22.86-41.77,35.8a21.48,21.48,0,0,1-28.3-.06c-14.8-13-29.06-25.22-41.64-36-36.82-31.53-68.62-58.77-90.73-85.58-24.72-30-36.2-58.37-36.13-89.36C294.55,188.17,304.92,160.42,323.69,140.13Z" transform="translate(0 -107.54)"/><path class="cls-5" d="M477.17,435.41h-.05a22.26,22.26,0,0,1-14.69-5.56c-14.67-12.89-28.83-25-41.32-35.72l-.31-.27C384,362.3,352.12,335,330,308.17c-24.85-30.13-36.39-58.69-36.33-89.89.06-30.32,10.51-58.28,29.43-78.72a99.23,99.23,0,0,1,73.68-32H397a93,93,0,0,1,58,20.18,118.56,118.56,0,0,1,22.69,23.59,118.19,118.19,0,0,1,22.8-23.49c17.21-13.26,36.74-20,58.08-19.92a99.3,99.3,0,0,1,73.8,32.34c18.83,20.53,29.16,48.54,29.1,78.85-.06,31.2-11.72,59.71-36.69,89.74-22.27,26.77-54.2,53.89-91.17,85.29l-.08.06c-12.6,10.7-26.87,22.82-41.69,35.73A22.27,22.27,0,0,1,477.17,435.41ZM324.31,140.7c-18.63,20.14-28.92,47.69-29,77.58-.06,30.79,11.36,59,35.94,88.82,22.06,26.76,53.83,54,90.62,85.48l.32.27c12.49,10.7,26.65,22.83,41.33,35.74a20.63,20.63,0,0,0,13.59,5.13h0a20.63,20.63,0,0,0,13.57-5.08c14.82-12.92,29.1-25,41.7-35.74l.07-.07c36.92-31.34,68.8-58.42,91-85.08,24.7-29.71,36.23-57.88,36.3-88.66.06-29.89-10.12-57.49-28.67-77.71a97.6,97.6,0,0,0-72.55-31.79h-.22a91.22,91.22,0,0,0-56.84,19.57,117.23,117.23,0,0,0-23.14,24.08.84.84,0,0,1-.68.35h0a.83.83,0,0,1-.68-.35A117.47,117.47,0,0,0,454,129.05a91.31,91.31,0,0,0-57-19.82h-.23A97.55,97.55,0,0,0,324.31,140.7Z" transform="translate(0 -107.54)"/><path class="cls-4" d="M719.89,241.57c8.07,6.21,11.53,22.9,12.05,36.13l-1.7,33.09a14,14,0,0,1-12.13,14.43l-87.28,11-2.48-22.71,68.21-14.07a4.66,4.66,0,0,0,3.72-5.06l-2.57-24.07Z" transform="translate(0 -107.54)"/><path class="cls-4" d="M628.33,317l-6.68-.78a41.39,41.39,0,0,0-8.62-.09l-4.83.45a2.79,2.79,0,0,0-1.87.95l-.06.07a2.84,2.84,0,0,0,2,4.71l4.71.19a.27.27,0,0,1,.06.53l-8.12,2.39a5.53,5.53,0,0,1-2.29.18l-3.69-.5c-2.81-.38-5.89,1-6.69,3.6a1.88,1.88,0,0,0,1,2.36h0l5.14,1.79a32.62,32.62,0,0,0,16.16,1.37l15.3-2.59Z" transform="translate(0 -107.54)"/><path class="cls-5" d="M609.21,335.55a33.44,33.44,0,0,1-11-1.86L593,331.9a2.76,2.76,0,0,1-1.58-3.43c.88-2.79,4.22-4.63,7.62-4.18l3.68.5a4.59,4.59,0,0,0,2-.15l4.79-1.41-1.25-.05a3.68,3.68,0,0,1-2.61-6.11l.06-.07a3.63,3.63,0,0,1,2.43-1.23l4.82-.45a41.76,41.76,0,0,1,8.8.1l6.68.77a.85.85,0,0,1-.2,1.68l-6.67-.78a40.46,40.46,0,0,0-8.45-.09l-4.83.44a2,2,0,0,0-1.31.67l-.06.07a2,2,0,0,0-.12,2.5,2,2,0,0,0,1.53.81l4.71.2a1.11,1.11,0,0,1,.27,2.18l-8.12,2.39a6.36,6.36,0,0,1-2.64.2l-3.69-.49c-2.56-.35-5.15,1-5.78,3a1.06,1.06,0,0,0,.52,1.32l5.14,1.8a31.93,31.93,0,0,0,15.75,1.32l15.3-2.58a.84.84,0,1,1,.28,1.66l-15.3,2.59A33.43,33.43,0,0,1,609.21,335.55Z" transform="translate(0 -107.54)"/><path class="cls-5" d="M630.83,337.06a.82.82,0,0,1-.52-.18.85.85,0,0,1-.32-.57l-2.48-22.71a.83.83,0,0,1,.67-.91l68.21-14.07a3.8,3.8,0,0,0,3.05-4.15.48.48,0,0,1,0-.17l1.87-18.48a.84.84,0,0,1,.92-.76.86.86,0,0,1,.76.93l-1.87,18.4a5.47,5.47,0,0,1-4.39,5.88l-67.46,13.91,2.31,21.1L718,324.38a13.09,13.09,0,0,0,11.39-13.55l1.35-26.42a97.67,97.67,0,0,0-1.25-22.1,66.32,66.32,0,0,0-6-18.75.85.85,0,0,1,1.5-.78A68.11,68.11,0,0,1,731.16,262a99.94,99.94,0,0,1,1.28,22.49l-1.36,26.34a14.75,14.75,0,0,1-12.85,15.22l-87.29,11Z" transform="translate(0 -107.54)"/><path class="cls-4" d="M691.22,193c-3.11,1.23-4.67.86-8.49-1.14-7.44-3.9-10.44-12.28-12.57-8.53-1.86,3.26-1.17,5.6-5.93,9.35-.46.36-.28,1.12.11,1.56l2,2.51a4.26,4.26,0,0,1,.55,2.52c-.2,2-.66,6.15-.22,6.92,1.3,2.24,8.45,3.4,8.45,3.4l.83,14.86a7.92,7.92,0,0,1-2,5.71l-1.56,1.72s.1,4.14,12.75,4.85a26,26,0,0,0,8.55-1.39,1.43,1.43,0,0,0,.69-2.23c-2.11-2.84-7.15-10.26-5.7-27.51a1.49,1.49,0,0,1,.84-1.21c1.82-.86,6.79-3.47,6.75-7.15C696.23,193.37,693.49,192.14,691.22,193Z" transform="translate(0 -107.54)"/><path class="cls-5" d="M685.9,237.62c-.27,0-.54,0-.81,0-13.05-.73-13.53-5.16-13.54-5.67a.83.83,0,0,1,.21-.58l1.56-1.73a7,7,0,0,0,1.79-5.09l-.78-14.19c-2.07-.39-7.13-1.53-8.38-3.7-.47-.81-.34-3,.07-7l0-.43a3.94,3.94,0,0,0-.33-1.87l-2.05-2.54a2.3,2.3,0,0,1-.56-1.64,1.57,1.57,0,0,1,.59-1.11,11.42,11.42,0,0,0,4.42-6.14,17.47,17.47,0,0,1,1.3-3,2.36,2.36,0,0,1,1.74-1.36c1.39-.16,2.6,1.18,4.44,3.19a27.81,27.81,0,0,0,7.51,6.38c3.82,2,5.06,2.17,7.79,1.1a4.45,4.45,0,0,1,4.1.37,5.41,5.41,0,0,1,2.11,4.64c0,3.9-4.52,6.64-7.24,7.93a.61.61,0,0,0-.36.51c-1.47,17.5,3.81,24.61,5.54,26.94a2.31,2.31,0,0,1,.34,2.08,2.19,2.19,0,0,1-1.46,1.45A28.11,28.11,0,0,1,685.9,237.62Zm-12.58-5.48c.39.78,2.33,3.24,11.86,3.78a24.56,24.56,0,0,0,8.25-1.36.56.56,0,0,0,.37-.36.6.6,0,0,0-.09-.55c-1.83-2.47-7.4-10-5.87-28.09a2.31,2.31,0,0,1,1.32-1.9c1.9-.89,6.3-3.31,6.27-6.38a3.82,3.82,0,0,0-1.37-3.26,2.7,2.7,0,0,0-2.53-.2c-3.42,1.34-5.21.91-9.19-1.18a29.87,29.87,0,0,1-8-6.73c-1.1-1.21-2.48-2.72-3-2.65-.09,0-.26.15-.47.51a16,16,0,0,0-1.17,2.71,13.08,13.08,0,0,1-4.92,6.86.78.78,0,0,0,.17.37l2,2.54a5,5,0,0,1,.73,3.13l0,.43c-.15,1.46-.55,5.32-.27,6,.74,1.29,5,2.52,7.84,3a.84.84,0,0,1,.71.79l.82,14.86a8.76,8.76,0,0,1-2.23,6.31Z" transform="translate(0 -107.54)"/><path class="cls-4" d="M347.06,346.57s13.72,1.63,16.91,3.77,14.13,7.25,12.08,3.41-16.34-16.31-16.34-16.31,5.86-1.71,4.8-5.12-9.81-.32-12.69,0a14.05,14.05,0,0,0-5.65,2.3S340.8,344.58,347.06,346.57Z" transform="translate(0 -107.54)"/><path d="M375.4,355.94c-3.44,0-11-4.32-11.89-4.9-2.49-1.66-12.79-3.19-16.55-3.63l-.16,0a4.79,4.79,0,0,1-3.17-2.83c-1.6-3.94,1.66-10.06,1.8-10.32a.86.86,0,0,1,.25-.29,14.93,14.93,0,0,1,6.05-2.45c.62-.07,1.58-.29,2.69-.54,4.15-.94,9.84-2.24,10.89,1.13a3.39,3.39,0,0,1-.25,2.7,7.77,7.77,0,0,1-3.74,3c3.39,3,13.68,12.28,15.47,15.62.67,1.25.24,1.92-.08,2.21A1.9,1.9,0,0,1,375.4,355.94Zm-28.16-10.2c1.27.16,14,1.74,17.2,3.89,2.91,1.94,9.29,4.7,10.94,4.68a1.18,1.18,0,0,0-.08-.16c-1.56-2.93-11.24-11.8-16.14-16.08a.84.84,0,0,1,.32-1.44c.88-.26,3.34-1.24,4.09-2.66a1.71,1.71,0,0,0,.13-1.4c-.58-1.88-6-.64-8.91,0-1.16.26-2.16.49-2.88.57a12.84,12.84,0,0,0-5.09,2c-.49,1-2.8,5.82-1.63,8.71A3.12,3.12,0,0,0,347.24,345.74Z" transform="translate(0 -107.54)"/><path class="cls-4" d="M204.9,265.56s23.86,121.05,146.24,86.22l-5.32-18.36s-77.18,5.76-97.9-75.36C247.92,258.06,231.71,229.52,204.9,265.56Z" transform="translate(0 -107.54)"/><path class="cls-5" d="M309.47,358.92c-19.55,0-37.08-4.71-52.41-14.1-42-25.74-52.88-78.57-53-79.1a.85.85,0,0,1,1.66-.32c.1.52,10.81,52.64,52.22,78,25,15.3,56,17.93,92.14,7.8L345.2,334.3A103.43,103.43,0,0,1,316,330.8c-15.34-4.05-36.93-13.59-52.65-36a.85.85,0,0,1,.21-1.17.83.83,0,0,1,1.17.2c29.52,42,80.48,38.76,81,38.72a.83.83,0,0,1,.87.61L352,351.54a.88.88,0,0,1-.07.64.86.86,0,0,1-.51.41A153.5,153.5,0,0,1,309.47,358.92Z" transform="translate(0 -107.54)"/></g><polygon class="cls-4" points="442.63 134.99 486.36 63.42 516.02 177.41 488.96 184.17 442.63 134.99"/><path class="cls-5" d="M489,292.45a.74.74,0,0,1-.54-.23L442.1,243a.76.76,0,0,1-.1-.9l43.72-71.56a.74.74,0,0,1,.74-.35.73.73,0,0,1,.61.54l29.67,114a.74.74,0,0,1-.54.91l-27.06,6.76A.55.55,0,0,1,489,292.45Zm-45.4-50,45.64,48.46,25.92-6.48-29-111.58Z" transform="translate(0 -107.54)"/><polygon class="cls-5" points="404.03 84.97 395.45 96.84 405.91 93.95 404.03 84.97"/><path class="cls-5" d="M395.45,204.75a.37.37,0,0,1-.3-.16.36.36,0,0,1,0-.42l8.58-11.87a.37.37,0,0,1,.66.14l1.88,9a.36.36,0,0,1-.26.43l-10.46,2.89Zm8.39-11.34-7.47,10.33,9.11-2.51Z" transform="translate(0 -107.54)"/><polygon class="cls-5" points="442.63 134.99 462.41 147.48 448.62 148.78 442.63 134.99"/><path class="cls-5" d="M448.62,256.69a.38.38,0,0,1-.34-.22l-6-13.79a.36.36,0,0,1,.09-.43.38.38,0,0,1,.44,0l19.78,12.5a.35.35,0,0,1,.16.4.36.36,0,0,1-.32.28l-13.79,1.3Zm-5.17-13.21,5.4,12.45,12.45-1.18Z" transform="translate(0 -107.54)"/><polygon class="cls-5" points="488.18 142.27 509.52 176.88 495.46 180.79 488.18 142.27"/><path class="cls-5" d="M495.46,288.7a.45.45,0,0,1-.19-.05.39.39,0,0,1-.17-.25l-7.29-38.52a.38.38,0,0,1,.23-.41.36.36,0,0,1,.45.15l21.34,34.61a.38.38,0,0,1,0,.33.35.35,0,0,1-.24.22l-14.06,3.91Zm-6.55-37,6.84,36.16,13.19-3.67Z" transform="translate(0 -107.54)"/><polygon class="cls-4" points="492.08 176.36 611.27 165.17 518.89 209.94 506.39 218.52 492.08 176.36"/><path class="cls-5" d="M506.39,326.81a1,1,0,0,1-.23,0,.78.78,0,0,1-.47-.47l-14.31-42.16a.76.76,0,0,1,.08-.64.73.73,0,0,1,.55-.33L611.2,272a.74.74,0,0,1,.39,1.4l-92.33,44.74-12.45,8.56A.77.77,0,0,1,506.39,326.81Zm-13.31-42.25,13.7,40.34,11.69-8,.09-.06,88.7-43Z" transform="translate(0 -107.54)"/><polygon class="cls-4" points="444.72 148.78 488.18 142.27 508.22 221.13 444.72 148.78"/><path class="cls-5" d="M508.22,329.41a.75.75,0,0,1-.56-.25l-63.5-72.35a.74.74,0,0,1,.45-1.22l43.46-6.51a.75.75,0,0,1,.83.55l20,78.86a.75.75,0,0,1-.71.92Zm-62.05-72.56,60.57,69-19.11-75.21Z" transform="translate(0 -107.54)"/><polygon class="cls-4" points="404.03 84.97 407.93 81.37 416.33 87.97 444.53 139.57 417.23 155.77 404.03 84.97"/><path class="cls-5" d="M417.23,264.05a.81.81,0,0,1-.31-.06.73.73,0,0,1-.42-.54l-13.2-70.8a.73.73,0,0,1,.23-.68l3.9-3.6a.73.73,0,0,1,.95,0l8.4,6.6a.74.74,0,0,1,.2.23l28.2,51.6a.74.74,0,0,1-.27,1L417.61,264A.75.75,0,0,1,417.23,264.05Zm-12.4-71.27,12.93,69.36,25.78-15.3L415.75,196,408,189.88Z" transform="translate(0 -107.54)"/><path class="cls-5" d="M412.13,195H412l-8.1-2.1a.37.37,0,0,1,.19-.72l8.1,2.1a.37.37,0,0,1,.27.45A.38.38,0,0,1,412.13,195Z" transform="translate(0 -107.54)"/><polygon class="cls-4" points="442.63 134.99 376.27 185.73 508.22 221.13 442.63 134.99"/><path class="cls-5" d="M508.22,329.41a.69.69,0,0,1-.2,0L376.08,294a.74.74,0,0,1-.26-1.3l66.37-50.75a.75.75,0,0,1,.54-.15.71.71,0,0,1,.49.29l65.59,86.14a.75.75,0,0,1-.59,1.19ZM377.92,293l128.39,34.44L442.5,243.57Z" transform="translate(0 -107.54)"/><path class="cls-5" d="M417.37,287a.38.38,0,0,1-.37-.31.37.37,0,0,1,.31-.42L466,278.34a.36.36,0,0,1,.42.3.37.37,0,0,1-.3.43L417.43,287Z" transform="translate(0 -107.54)"/><path class="cls-5" d="M378.09,293.38a.37.37,0,0,1,0-.73L412.62,287a.39.39,0,0,1,.43.31.37.37,0,0,1-.31.42l-34.59,5.63Z" transform="translate(0 -107.54)"/><path class="cls-5" d="M507,307.78a.4.4,0,0,1-.23-.08l-2.65-2.17a.37.37,0,1,1,.47-.57l2.65,2.16a.38.38,0,0,1,.05.53A.39.39,0,0,1,507,307.78Z" transform="translate(0 -107.54)"/><path class="cls-5" d="M517.06,316a.35.35,0,0,1-.23-.09l-7.9-6.45a.37.37,0,0,1,.47-.57l7.9,6.45a.37.37,0,0,1-.24.66Z" transform="translate(0 -107.54)"/><path class="cls-5" d="M481.41,247.06h0a.38.38,0,0,1-.35-.39l.49-8a.36.36,0,0,1,.39-.35.37.37,0,0,1,.35.39l-.49,8.05A.37.37,0,0,1,481.41,247.06Z" transform="translate(0 -107.54)"/><path class="cls-5" d="M482.18,234.32h0a.37.37,0,0,1-.35-.39l3.4-56a.35.35,0,0,1,.39-.35.36.36,0,0,1,.34.39l-3.39,56A.36.36,0,0,1,482.18,234.32Z" transform="translate(0 -107.54)"/></g></g></g></svg>