<svg xmlns="http://www.w3.org/2000/svg" viewBox="0 0 753.38 257.22"><defs><style>.cls-1{fill:#f7ac36;}.cls-2{fill:#fff;}</style></defs><g id="Capa_2" data-name="Capa 2"><g id="Capa_2-2" data-name="Capa 2"><path class="cls-1" d="M624.76,257.22H128.61A128.61,128.61,0,0,1,0,128.61H0A128.61,128.61,0,0,1,128.61,0H624.76A128.62,128.62,0,0,1,753.38,128.61h0A128.62,128.62,0,0,1,624.76,257.22Z"/><path class="cls-2" d="M147.85,93.88V56.48h18.74v37c0,9.61,4.86,14.17,12.28,14.17s12.27-4.37,12.27-13.7V56.48h18.75V93.4c0,21.5-12.28,30.92-31.21,30.92S147.85,114.71,147.85,93.88Zm33.49-59,16.84,5.42-14,12.18H171.45Z"/><path class="cls-2" d="M220.83,56.48h17.22l27.41,35.21V56.48h18.27v66.61H267.55L239.1,86.55v36.54H220.83Z"/><path class="cls-2" d="M295.52,56.48h53.57v15.7h-35.3V82.27h32V96.83h-32v10.56h35.78v15.7H295.52Z"/><path class="cls-2" d="M375.26,72.66h-20V56.48H413.7V72.66h-20v50.43H375.26Z"/><path class="cls-2" d="M421.79,56.48h53.57v15.7h-35.3V82.27h32V96.83h-32v10.56h35.78v15.7h-54Z"/><path class="cls-2" d="M534.64,56h17.79l28.36,67.09H561l-4.86-11.9H530.45l-4.76,11.9H506.28Zm16.17,40.83-7.42-18.94-7.51,18.94Z"/><path class="cls-2" d="M99.46,146.4h17.22l27.41,35.21V146.4h18.27V213H146.18l-28.45-36.54V213H99.46Z"/><path class="cls-2" d="M171.87,179.9v-.19c0-19.13,15.42-34.64,36-34.64s35.78,15.32,35.78,34.45v.19c0,19.12-15.42,34.63-36,34.63S171.87,199,171.87,179.9Zm52.91,0v-.19c0-9.61-6.95-18-17.13-18s-16.84,8.19-16.84,17.8v.19c0,9.61,6.94,18,17,18S224.78,189.51,224.78,179.9Z"/><path class="cls-2" d="M247.71,203.12,258,190.84c6.56,5.23,13.89,8,21.59,8,4.95,0,7.62-1.71,7.62-4.56v-.19c0-2.76-2.19-4.29-11.23-6.38-14.18-3.23-25.12-7.23-25.12-20.93v-.19c0-12.37,9.8-21.32,25.79-21.32,11.32,0,20.17,3.05,27.4,8.85l-9.23,13c-6.09-4.28-12.75-6.57-18.65-6.57-4.47,0-6.66,1.91-6.66,4.28v.19c0,3,2.28,4.38,11.51,6.47,15.32,3.34,24.84,8.28,24.84,20.75v.19c0,13.61-10.75,21.69-26.93,21.69C267.12,214.15,255.89,210.44,247.71,203.12Z"/><path class="cls-2" d="M312.51,179.9v-.19c0-19.13,15.41-34.64,36-34.64s35.78,15.32,35.78,34.45v.19c0,19.12-15.41,34.63-36,34.63S312.51,199,312.51,179.9Zm52.9,0v-.19c0-9.61-6.94-18-17.13-18s-16.84,8.19-16.84,17.8v.19c0,9.61,6.95,18,17,18S365.41,189.51,365.41,179.9Z"/><path class="cls-2" d="M407.28,162.58h-20V146.4h58.42v16.18h-20V213H407.28Z"/><path class="cls-2" d="M453.81,146.4H485.3c10.18,0,17.23,2.67,21.7,7.24,3.9,3.8,5.9,8.94,5.9,15.51v.19c0,10.18-5.43,16.93-13.7,20.45L515.09,213H493.77l-13.42-20.17h-8.08V213H453.81Zm30.64,32c6.28,0,9.89-3,9.89-7.9v-.19c0-5.24-3.8-7.9-10-7.9H472.27v16Z"/><path class="cls-2" d="M519.94,179.9v-.19c0-19.13,15.41-34.64,36-34.64s35.77,15.32,35.77,34.45v.19c0,19.12-15.41,34.63-36,34.63S519.94,199,519.94,179.9Zm52.9,0v-.19c0-9.61-6.94-18-17.13-18s-16.84,8.19-16.84,17.8v.19c0,9.61,7,18,17,18S572.84,189.51,572.84,179.9Z"/><path class="cls-2" d="M595.77,203.12l10.28-12.28c6.57,5.23,13.89,8,21.6,8,5,0,7.61-1.71,7.61-4.56v-.19c0-2.76-2.19-4.29-11.22-6.38-14.18-3.23-25.13-7.23-25.13-20.93v-.19c0-12.37,9.8-21.32,25.79-21.32,11.32,0,20.17,3.05,27.41,8.85l-9.23,13c-6.09-4.28-12.75-6.57-18.65-6.57-4.48,0-6.67,1.91-6.67,4.28v.19c0,3,2.29,4.38,11.52,6.47,15.32,3.34,24.83,8.28,24.83,20.75v.19c0,13.61-10.75,21.69-26.93,21.69C615.19,214.15,604,210.44,595.77,203.12Z"/></g></g></svg>