<svg id="Capa_1" data-name="Capa 1" xmlns="http://www.w3.org/2000/svg" xmlns:xlink="http://www.w3.org/1999/xlink" viewBox="0 0 812.75 728.61"><defs><style>.cls-1,.cls-7,.cls-8{fill:none;}.cls-2{clip-path:url(#clip-path);}.cls-3{fill:#1fb1e6;}.cls-4,.cls-5{fill:#fff;}.cls-5,.cls-6,.cls-7,.cls-8{stroke:#1e1e1d;stroke-linecap:round;stroke-linejoin:round;}.cls-5,.cls-6,.cls-7{stroke-width:1.64px;}.cls-6{fill:#1e1e1d;}.cls-8{stroke-width:0.82px;}</style><clipPath id="clip-path"><path id="SVGID" class="cls-1" d="M128.29,0H590.46a37,37,0,0,1,37,37V460.52A268.09,268.09,0,0,1,359.37,728.61h0A268.09,268.09,0,0,1,91.28,460.52V37a37,37,0,0,1,37-37Z"/></clipPath></defs><g class="cls-2"><path class="cls-3" d="M128.29-172.7H590.46a37,37,0,0,1,37,37V460.52A268.09,268.09,0,0,1,359.37,728.61h0A268.09,268.09,0,0,1,91.28,460.52V-135.69a37,37,0,0,1,37-37Z"/><path class="cls-4" d="M609.06,735.06c-16.32,0-29-5.58-41.37-11s-23.84-10.44-38.85-10.44-26.59,5.07-38.85,10.44-25,11-41.36,11-29.05-5.58-41.36-11-23.84-10.44-38.85-10.44-26.59,5.07-38.85,10.44-25.05,11-41.36,11-29-5.58-41.37-11S223,713.65,208,713.65s-26.59,5.07-38.85,10.44-25,11-41.36,11a74.55,74.55,0,0,1-21.7-3.31l1.8-6.26a68.37,68.37,0,0,0,19.9,3c15,0,26.59-5.07,38.85-10.44s25.05-11,41.36-11,29,5.57,41.36,11,23.85,10.44,38.86,10.44,26.58-5.07,38.85-10.44,25-11,41.36-11,29.05,5.57,41.36,11,23.84,10.44,38.85,10.44,26.59-5.07,38.85-10.44,25-11,41.36-11,29,5.57,41.37,11,23.84,10.44,38.85,10.44a68.47,68.47,0,0,0,19.9-3l1.79,6.26A74.49,74.49,0,0,1,609.06,735.06Z"/><path class="cls-4" d="M609.06,703c-16.32,0-29-5.58-41.37-11s-23.84-10.44-38.85-10.44S502.25,686.61,490,692s-25,11-41.36,11-29.05-5.58-41.36-11-23.84-10.44-38.85-10.44-26.59,5.07-38.85,10.44-25.05,11-41.36,11-29-5.58-41.37-11S223,681.54,208,681.54,181.4,686.61,169.14,692s-25,11-41.36,11a74.55,74.55,0,0,1-21.7-3.31l1.8-6.26a68.42,68.42,0,0,0,19.9,3c15,0,26.59-5.07,38.85-10.44s25.05-11,41.36-11,29,5.57,41.36,11,23.85,10.44,38.86,10.44,26.58-5.07,38.85-10.44,25-11,41.36-11,29.05,5.57,41.36,11,23.84,10.44,38.85,10.44,26.59-5.07,38.85-10.44,25-11,41.36-11,29,5.57,41.37,11,23.84,10.44,38.85,10.44a68.47,68.47,0,0,0,19.9-3l1.79,6.26A74.49,74.49,0,0,1,609.06,703Z"/><path class="cls-4" d="M609.06,670.84c-16.32,0-29-5.58-41.37-11s-23.84-10.44-38.85-10.44S502.25,654.5,490,659.87s-25,11-41.36,11-29.05-5.58-41.36-11-23.84-10.44-38.85-10.44-26.59,5.07-38.85,10.44-25.05,11-41.36,11-29-5.58-41.37-11S223,649.43,208,649.43s-26.59,5.07-38.85,10.44-25,11-41.36,11a74.89,74.89,0,0,1-21.7-3.31l1.8-6.26a68.71,68.71,0,0,0,19.9,3c15,0,26.59-5.07,38.85-10.44s25.05-11,41.36-11,29,5.58,41.36,11,23.85,10.44,38.86,10.44,26.58-5.07,38.85-10.44,25-11,41.36-11,29.05,5.58,41.36,11,23.84,10.44,38.85,10.44,26.59-5.07,38.85-10.44,25-11,41.36-11,29,5.58,41.37,11,23.84,10.44,38.85,10.44a68.81,68.81,0,0,0,19.9-3l1.79,6.26A74.83,74.83,0,0,1,609.06,670.84Z"/><path class="cls-4" d="M609.06,638.73c-16.32,0-29-5.58-41.37-11s-23.84-10.44-38.85-10.44-26.59,5.07-38.85,10.44-25,11-41.36,11-29.05-5.58-41.36-11-23.84-10.44-38.85-10.44-26.59,5.07-38.85,10.44-25.05,11-41.36,11-29-5.58-41.37-11S223,617.32,208,617.32s-26.59,5.07-38.85,10.44-25,11-41.36,11a74.89,74.89,0,0,1-21.7-3.31l1.8-6.27a68.44,68.44,0,0,0,19.9,3.05c15,0,26.59-5.07,38.85-10.44s25.05-11,41.36-11,29,5.58,41.36,11,23.85,10.44,38.86,10.44,26.58-5.07,38.85-10.44,25-11,41.36-11,29.05,5.58,41.36,11,23.84,10.44,38.85,10.44,26.59-5.07,38.85-10.44,25-11,41.36-11,29,5.58,41.37,11,23.84,10.44,38.85,10.44a68.49,68.49,0,0,0,19.9-3.05l1.79,6.27A74.77,74.77,0,0,1,609.06,638.73Z"/><path class="cls-4" d="M609.06,606.61c-16.32,0-29-5.57-41.37-11s-23.84-10.44-38.85-10.44-26.59,5.07-38.85,10.44-25,11-41.36,11-29.05-5.57-41.36-11-23.84-10.44-38.85-10.44-26.59,5.07-38.85,10.44-25.05,11-41.36,11-29-5.57-41.37-11S223,585.21,208,585.21s-26.59,5.07-38.85,10.44-25,11-41.36,11a74.44,74.44,0,0,1-21.69-3.31l1.79-6.26a68.49,68.49,0,0,0,19.9,3.05c15,0,26.59-5.07,38.85-10.44s25.05-11,41.36-11,29,5.58,41.36,11,23.85,10.44,38.86,10.44,26.58-5.07,38.85-10.44,25-11,41.36-11,29.05,5.58,41.36,11,23.84,10.44,38.85,10.44,26.59-5.07,38.85-10.44,25-11,41.36-11,29,5.58,41.37,11,23.84,10.44,38.85,10.44A68.49,68.49,0,0,0,629,597l1.79,6.26A74.49,74.49,0,0,1,609.06,606.61Z"/></g><polygon class="cls-5" points="229.87 309.59 380.77 62.58 483.17 456 389.76 479.35 229.87 309.59"/><polygon class="cls-6" points="96.61 136.96 67.01 177.93 103.11 167.96 96.61 136.96"/><polygon class="cls-6" points="229.87 309.59 298.14 352.7 250.53 357.19 229.87 309.59"/><polygon class="cls-6" points="387.06 334.74 460.72 454.2 412.21 467.68 387.06 334.74"/><polygon class="cls-5" points="400.54 452.41 811.92 413.78 493.05 568.28 449.94 597.92 400.54 452.41"/><polygon class="cls-5" points="237.06 357.19 387.06 334.74 456.23 606.9 237.06 357.19"/><polygon class="cls-5" points="96.61 136.96 110.08 124.53 139.07 147.31 236.4 325.42 142.18 381.33 96.61 136.96"/><line class="cls-7" x1="124.57" y1="144.21" x2="96.61" y2="136.96"/><polygon class="cls-5" points="229.87 309.59 0.82 484.74 456.23 606.9 229.87 309.59"/><line class="cls-8" x1="142.66" y1="461.79" x2="310.71" y2="434.44"/><line class="cls-8" x1="7.11" y1="483.85" x2="126.48" y2="464.42"/><line class="cls-8" x1="451.9" y1="533.53" x2="442.75" y2="526.06"/><line class="cls-8" x1="486.76" y1="561.99" x2="459.49" y2="539.73"/><line class="cls-8" x1="365.39" y1="296.16" x2="363.71" y2="323.96"/><line class="cls-8" x1="378.08" y1="86.83" x2="366.37" y2="280"/></svg>