<svg xmlns="http://www.w3.org/2000/svg" viewBox="0 0 808.97 265.46"><defs><style>.cls-1{fill:#a8cd50;}.cls-2{fill:#ededed;}.cls-3{fill:#ffaaa8;}.cls-4{fill:#fff;}.cls-5{fill:#1c1c1b;}.cls-6{fill:#d268cc;}</style></defs><g id="Capa_2" data-name="Capa 2"><g id="Capa_1-2" data-name="Capa 1"><path class="cls-1" d="M0,70.45H735.79A73.17,73.17,0,0,1,809,143.62v2.27a73.17,73.17,0,0,1-73.17,73.17H0a0,0,0,0,1,0,0V70.45A0,0,0,0,1,0,70.45Z"/><polygon class="cls-2" points="183.75 148.52 205.89 152.64 233.17 227.19 210.9 222.96 183.75 148.52"/><path d="M233.8,227.72l-23.2-4.4L183.13,148l23.06,4.29.08.22Zm-22.6-5.11,21.35,4-27-73.67-21.21-3.94Z"/><path class="cls-2" d="M192.56,159l-1.62-25.51c2.34-8.8,2.38-18.59-.41-26.22C185.93,94.7,175.39,92.78,167,103s-11.49,28.65-6.89,41.21c2.26,6.18,6,9.78,10.13,10.63h0l.38.08Z"/><path d="M192.56,159.49h-.09l-21.95-4.09-.39-.08c-4.53-.92-8.26-4.81-10.5-10.94-4.65-12.7-1.52-31.4,7-41.71,4.15-5,9-7.37,13.57-6.59s8.52,4.71,10.83,11c2.7,7.38,2.87,17.26.44,26.44L193.06,159a.54.54,0,0,1-.17.41A.5.5,0,0,1,192.56,159.49ZM178.41,96.92c-3.75,0-7.61,2.22-11,6.38-8.29,10.06-11.34,28.33-6.8,40.72,2.12,5.8,5.59,9.46,9.76,10.31l.36.07,21.33,4-1.58-24.86a.42.42,0,0,1,0-.16c2.4-9,2.25-18.71-.39-25.93-2.18-6-5.75-9.63-10.06-10.37A9.4,9.4,0,0,0,178.41,96.92Z"/><polygon class="cls-2" points="139.84 28.53 161.98 32.65 189.26 107.2 166.99 102.98 139.84 28.53"/><path d="M189.26,107.7h-.09l-22.28-4.23a.48.48,0,0,1-.37-.32L139.37,28.71a.51.51,0,0,1,.09-.5.49.49,0,0,1,.47-.17l22.14,4.12a.53.53,0,0,1,.38.32L189.73,107a.51.51,0,0,1-.09.5A.49.49,0,0,1,189.26,107.7Zm-21.9-5.16,21.13,4L161.6,33.09l-21-3.9Z"/><path class="cls-3" d="M219.52,5.53l-.34-.06.33.07Z"/><path class="cls-2" d="M217.87,5.22,197.62,1.46h0c-18.56-4-39.37,4.73-57.78,27.07l-.07.09,22.21,4C179.77,11.06,199.79,2.18,217.87,5.22Z"/><path d="M162,33.15h-.09l-22.21-4a.52.52,0,0,1-.38-.32.49.49,0,0,1,.09-.49l.06-.08C157.4,6.43,178.07-3.24,197.66,1h.05L218,4.73a.5.5,0,0,1-.17,1C199.12,2.57,179.43,12.25,162.36,33A.48.48,0,0,1,162,33.15ZM140.7,28.28l21.08,3.83C176.46,14.37,193.09,4.69,209.4,4.16L197.59,2h-.08C178.46-2.17,158.3,7.18,140.7,28.28Z"/><path class="cls-3" d="M217.87,5.22l1.31.25Z"/><path class="cls-4" d="M219.51,5.54l-.33-.07-1.31-.25c-18.08-3-38.1,5.84-55.89,27.43l5.37,14.68,2.92,8L174.17,66l2.93,8L181,84.63l2.92,8,5.34,14.59c-8.39,10.19-11.47,28.62-6.88,41.16s15.12,14.46,23.51,4.28l5.34,14.6,2.92,8,3.9,10.67,2.93,8,3.48,9.5.42,1.17,2.92,8,5.37,14.68C269.11,183.58,282.3,104.68,262.64,51,253,24.65,237.28,9.26,219.51,5.54Z"/><path d="M233.17,227.69h-.08a.51.51,0,0,1-.39-.32l-27-73.74c-4,4.57-8.6,6.66-13,5.92-4.67-.8-8.51-4.71-10.82-11-4.61-12.58-1.56-31.09,6.78-41.42L161.51,32.83a.5.5,0,0,1,.08-.49C178.9,11.33,198.92,1.53,218,4.73l1.67.32h0C238.3,9,253.74,25.21,263.1,50.79c19.69,53.78,6.43,133.06-29.54,176.72A.53.53,0,0,1,233.17,227.69Zm-27.28-75.55H206a.49.49,0,0,1,.39.32l27,73.72c35.36-43.55,48.3-121.85,28.83-175.06C252.93,25.89,237.74,9.87,219.41,6h0l-1.63-.3c-18.6-3.14-38.21,6.46-55.24,27L189.73,107a.5.5,0,0,1-.08.49c-8.28,10-11.33,28.29-6.8,40.67,2.18,5.95,5.74,9.63,10.05,10.36s8.7-1.49,12.6-6.23A.5.5,0,0,1,205.89,152.14Z"/><path class="cls-5" d="M236.26,36.78A41.36,41.36,0,0,0,215,25.57c-16.2-2.94-33.07,4.77-47.67,21.76l2.92,8q.64-.84,1.32-1.65c7.87-9.55,16.39-16,25-19.18a32.68,32.68,0,0,1,17.26-1.68c13.25,2.41,24.42,13.47,31.7,31.29.43,1.06.86,2.14,1.26,3.24,15.22,41.6,5.38,102.59-21.89,137.21l2.92,8q.67-.78,1.35-1.59c29.73-36.09,40.69-101.62,24.42-146.07C249.23,53,243.34,43.52,236.26,36.78Z"/><path class="cls-5" d="M241.1,80c-6.34-17.31-17-28.15-30.07-30.53C198.47,47.17,185.45,53,174.17,66l2.93,8c.43-.56.86-1.13,1.31-1.67,5.91-7.17,12.28-12,18.68-14.38a24.16,24.16,0,0,1,12.73-1.24c10.4,1.89,19.09,11.05,24.49,25.78,11.46,31.32,4.13,77.15-16.26,103.42l2.93,8,1.35-1.59C245.19,164.54,253.61,114.16,241.1,80Z"/><path class="cls-5" d="M228.63,95.11C224.12,82.78,216.45,75,207,73.33c-8.91-1.62-18.09,2.39-26,11.3l2.92,8c.43-.57.87-1.13,1.31-1.67,4-4.79,8.18-8,12.4-9.58a15.62,15.62,0,0,1,8.2-.81c6.75,1.23,12.44,7.28,16,17,7.7,21,2.91,51.74-10.61,69.65l2.92,8c.45-.51.91-1,1.35-1.56C231.49,154.24,237.38,119,228.63,95.11Z"/><ellipse class="cls-2" cx="197.59" cy="129.96" rx="29.55" ry="16.92" transform="translate(38.04 304.53) rotate(-80.91)"/><path d="M194.5,159.77a10.37,10.37,0,0,1-1.76-.15c-4.68-.8-8.53-4.71-10.84-11-4.64-12.69-1.51-31.4,7-41.7,4.15-5,9-7.38,13.56-6.59s8.53,4.71,10.84,11c4.64,12.7,1.51,31.4-7,41.71C202.68,157.42,198.55,159.77,194.5,159.77Zm6.19-58.61c-3.75,0-7.61,2.22-11,6.37-8.29,10.06-11.34,28.33-6.81,40.73,2.18,6,5.76,9.64,10.07,10.37s8.71-1.49,12.62-6.24c8.29-10.06,11.34-28.33,6.81-40.72-2.18-6-5.76-9.64-10.07-10.38A9.27,9.27,0,0,0,200.69,101.16Z"/><ellipse class="cls-6" cx="197.51" cy="129.73" rx="14.96" ry="8.56" transform="translate(38.19 304.26) rotate(-80.91)"/><ellipse class="cls-5" cx="197.51" cy="129.73" rx="14.96" ry="8.56" transform="translate(38.19 304.26) rotate(-80.91)"/><path class="cls-2" d="M123.43,218.63C103.76,164.91,117,86,152.89,42.4l-22.21-4C94.8,82,81.64,160.82,101.29,214.51c10.24,28,27.39,43.61,46.54,46h0l19.63,3.73h0C149.32,260.85,133.22,245.39,123.43,218.63Z"/><path d="M167.46,264.74h-.09L147.73,261h0c-19.94-2.52-37-19.4-46.87-46.31C81.15,161,94.38,81.71,130.3,38a.47.47,0,0,1,.47-.17l22.21,4a.5.5,0,0,1,.29.81C117.5,86.13,104.32,165,123.9,218.45c9.4,25.71,24.91,41.8,43.65,45.3a.49.49,0,0,1,.36.26.51.51,0,0,1,0,.53A.48.48,0,0,1,167.46,264.74ZM148,260l10.34,2c-15-6.39-27.4-21.38-35.38-43.2-19.59-53.52-6.57-132.27,29-176.06L130.88,38.9C95.31,82.38,82.24,161,101.76,214.33c9.73,26.59,26.55,43.24,46.13,45.68Z"/><path class="cls-2" d="M123.43,218.63c9.79,26.76,25.89,42.22,44,45.61s38.6-5.43,56.63-27.31l-5.38-14.68-2.92-8-.42-1.16-3.48-9.51-2.93-8L205.06,185l-2.92-8-5.34-14.6c-8.39,10.19-18.92,8.27-23.51-4.27s-1.51-31,6.88-41.16l-5.34-14.6-2.92-8L168,83.71l-2.93-8-3.9-10.67-2.92-8L152.89,42.4C117,86,103.76,164.91,123.43,218.63Z"/><path d="M175.27,265.46a42.85,42.85,0,0,1-7.9-.73c-19.11-3.57-34.88-19.88-44.41-45.93C103.27,165,116.53,85.74,152.5,42.08a.49.49,0,0,1,.47-.17.51.51,0,0,1,.39.32l27.28,74.55a.51.51,0,0,1-.08.49c-8.28,10-11.33,28.29-6.8,40.67,2.18,5.94,5.74,9.62,10.05,10.35s8.7-1.49,12.6-6.22a.51.51,0,0,1,.47-.18.49.49,0,0,1,.39.32l27.28,74.55a.48.48,0,0,1-.08.49C209.29,255.67,192.09,265.46,175.27,265.46Zm-51.37-47c9.4,25.71,24.91,41.8,43.65,45.3s38.69-6,56-26.91l-26.89-73.48c-4,4.57-8.6,6.67-13,5.92-4.67-.8-8.51-4.7-10.82-11-4.6-12.59-1.56-31.09,6.78-41.43L152.72,43.39C117.36,87,104.42,165.25,123.9,218.45Z"/><path class="cls-5" d="M161.18,65.05l-2.92-8-1.35,1.6c-29.73,36.09-40.69,101.61-24.42,146.07C140.65,227,154.34,241,171,244a39.64,39.64,0,0,0,21-2c.79-.29,1.58-.61,2.37-.95,8.45-3.61,16.69-10,24.32-18.83l-2.92-8c-.43.56-.87,1.1-1.32,1.65-.83,1-1.67,2-2.52,2.93-12.56,14-26.55,20.32-39.7,17.93-14-2.56-25.74-14.82-33-34.54C124.07,160.66,133.91,99.67,161.18,65.05Z"/><path class="cls-5" d="M207.65,197.29c-9.86,12-21,17.51-31.41,15.62s-19.09-11-24.48-25.79C140.3,155.81,147.62,110,168,83.71l-2.93-8c-.45.52-.9,1-1.34,1.58-22.87,27.75-31.29,78.13-18.78,112.31,6.34,17.31,17,28.15,30.07,30.53a31.22,31.22,0,0,0,16.45-1.55c7.1-2.6,14-7.65,20.41-15l-2.93-8C208.53,196.18,208.1,196.75,207.65,197.29Z"/><path class="cls-5" d="M200.83,178.65c-6.53,7.92-13.85,11.61-20.6,10.38s-12.44-7.28-16-17c-7.7-21-2.91-51.73,10.61-69.64l-2.92-8c-.46.51-.91,1-1.35,1.57-16,19.41-21.88,54.64-13.13,78.54,4.51,12.33,12.18,20.07,21.59,21.78a22.59,22.59,0,0,0,11.92-1.11c4.92-1.8,9.71-5.25,14.12-10.2l-2.92-8C201.71,177.55,201.28,178.11,200.83,178.65Z"/><polygon class="cls-6" points="329.7 130.71 275.66 121.04 247.39 138.99 268.33 165.72 322.37 175.38 301.43 148.65 329.7 130.71"/><polygon class="cls-4" points="329.7 130.71 275.66 121.04 247.39 138.99 268.33 165.72 322.37 175.38 301.43 148.65 329.7 130.71"/><path d="M323.57,176.11l-55.52-9.93-21.39-27.32,28.9-18.34,55.49,9.92-28.88,18.33Zm-55-10.85,52.57,9.4L300.7,148.52,328.35,131l-52.58-9.4-27.64,17.54Z"/><path class="cls-5" d="M275.36,163.44a.81.81,0,0,1-.91-.27L257.84,142l9.51-6a.8.8,0,0,1,1.11.26.82.82,0,0,1-.25,1.13l-8,5.07,15.49,19.79a.82.82,0,0,1-.13,1.14A.71.71,0,0,1,275.36,163.44Z"/><path class="cls-5" d="M273.72,133.79a.8.8,0,0,1-1-.33.82.82,0,0,1,.25-1.13l9-5.69a.81.81,0,0,1,1.12.26.84.84,0,0,1-.25,1.13l-9,5.69Z"/><path class="cls-5" d="M268.86,142.37a.8.8,0,0,1-1-.33.83.83,0,0,1,.24-1.13l16.3-10.34a.8.8,0,0,1,1.11.26.81.81,0,0,1-.24,1.12L269,142.3Z"/><path class="cls-5" d="M282.3,164.58a.81.81,0,0,1-.91-.27l-6.17-7.88a.81.81,0,0,1,.13-1.14.79.79,0,0,1,1.13.14l6.17,7.88a.82.82,0,0,1-.13,1.14A.71.71,0,0,1,282.3,164.58Z"/><path class="cls-5" d="M300.18,138.63a.82.82,0,0,1-.72-1.46l7-4.45a.82.82,0,0,1,.87,1.38l-7,4.45A.55.55,0,0,1,300.18,138.63Z"/><path class="cls-5" d="M295.21,167.43a.8.8,0,0,1-.91-.26l-13.71-17.51a.81.81,0,0,1,.13-1.14.79.79,0,0,1,1.13.14l13.7,17.5a.83.83,0,0,1-.12,1.15A1.19,1.19,0,0,1,295.21,167.43Z"/><path class="cls-5" d="M299.18,145.83a.82.82,0,0,1-.71-1.46l17.63-11.19a.8.8,0,0,1,1.11.26.82.82,0,0,1-.24,1.12l-17.64,11.19Z"/><path class="cls-5" d="M302.32,168.44a.8.8,0,0,1-.91-.26l-6.81-8.7a.83.83,0,0,1,.12-1.15.81.81,0,0,1,1.14.14l6.81,8.7a.82.82,0,0,1-.13,1.15A.94.94,0,0,1,302.32,168.44Z"/><path class="cls-5" d="M271.43,146.59a2.83,2.83,0,0,1-1.45.12l-72.42-13.17a2.89,2.89,0,0,1-2.31-3.32,2.78,2.78,0,0,1,3.25-2.3l72.42,13.17a2.89,2.89,0,0,1,2.31,3.32A2.83,2.83,0,0,1,271.43,146.59Z"/><path class="cls-4" d="M376.09,110.41h19.47l15.87,25.74,15.86-25.74h19.48v66.5H428.43V138.72l-17,26h-.38l-16.91-25.84v38H376.09Z"/><path class="cls-4" d="M458.93,110.41h18.52v66.5H458.93Z"/><path class="cls-4" d="M484.58,167l10.26-12.26c6.55,5.23,13.87,8,21.56,8,4.94,0,7.6-1.71,7.6-4.56V158c0-2.75-2.18-4.27-11.21-6.36-14.15-3.23-25.08-7.22-25.08-20.9v-.19c0-12.35,9.79-21.28,25.75-21.28,11.3,0,20.14,3,27.36,8.83l-9.22,13c-6.08-4.28-12.73-6.56-18.62-6.56-4.46,0-6.65,1.9-6.65,4.28V129c0,3,2.28,4.37,11.5,6.46,15.29,3.32,24.79,8.26,24.79,20.71v.19c0,13.58-10.73,21.66-26.88,21.66C504,178.05,492.75,174.34,484.58,167Z"/><path class="cls-4" d="M551.93,110.41h18.53v66.5H551.93Z"/><path class="cls-4" d="M580.34,143.85v-.19c0-19.1,15.39-34.58,35.91-34.58S652,124.37,652,143.47v.19c0,19.09-15.39,34.58-35.91,34.58S580.34,162.94,580.34,143.85Zm52.82,0v-.19c0-9.6-6.94-18-17.1-18s-16.82,8.17-16.82,17.77v.19c0,9.59,6.94,18,17,18S633.16,153.44,633.16,143.85ZM619.57,88.37l16.82,5.41-14,12.16H609.69Z"/><path class="cls-4" d="M661.56,110.41h17.2l27.36,35.15V110.41h18.24v66.5H708.21L679.8,140.43v36.48H661.56Z"/></g></g></svg>