<svg xmlns="http://www.w3.org/2000/svg" viewBox="0 0 808.97 201.66"><defs><style>.cls-1{fill:#f8ad36;}.cls-2{fill:#fff;}.cls-3{fill:#1c1c1b;}.cls-4{fill:#a216b0;}.cls-5{fill:#ededed;}</style></defs><g id="Capa_2" data-name="Capa 2"><g id="Capa_1-2" data-name="Capa 1"><path class="cls-1" d="M0,53H735.79A73.17,73.17,0,0,1,809,126.22v2.27a73.17,73.17,0,0,1-73.17,73.17H0a0,0,0,0,1,0,0V53A0,0,0,0,1,0,53Z" transform="translate(808.97 254.71) rotate(180)"/><path class="cls-2" d="M69.72,98.66h20.2l14.79,42.09,14.8-42.09h19.82l-26.43,67H96.15Z"/><path class="cls-2" d="M146,98.66h18.14v66.5H146Z"/><path class="cls-2" d="M171.15,155.28l10-12.25c6.42,5.22,13.59,8,21.13,8,4.84,0,7.44-1.71,7.44-4.56v-.19c0-2.76-2.14-4.28-11-6.37-13.87-3.23-24.57-7.22-24.57-20.9v-.19c0-12.35,9.59-21.28,25.22-21.28,11.08,0,19.73,3,26.8,8.84l-9,13c-6-4.27-12.47-6.55-18.24-6.55-4.38,0-6.52,1.9-6.52,4.27v.19c0,3,2.24,4.37,11.26,6.46,15,3.33,24.29,8.27,24.29,20.71v.19c0,13.59-10.51,21.66-26.33,21.66C190.14,166.3,179.15,162.6,171.15,155.28Z"/><path class="cls-2" d="M237.13,98.66h18.14v66.5H237.13Z"/><path class="cls-2" d="M265,132.1v-.19c0-19.09,15.08-34.58,35.18-34.58s35,15.3,35,34.39v.19c0,19.1-15.08,34.58-35.18,34.58S265,151.2,265,132.1Zm51.74,0v-.19c0-9.59-6.79-18-16.75-18s-16.47,8.17-16.47,17.76v.19c0,9.6,6.79,18,16.66,18S316.69,141.7,316.69,132.1Zm-13.3-55.48L319.86,82,306.18,94.2H293.71Z"/><path class="cls-2" d="M344.51,98.66h16.85l26.8,35.15V98.66H406v66.5H390.21l-27.83-36.48v36.48H344.51Z"/><path class="cls-2" d="M495,117.14s9.92-107,30.75-108.36l64.11,30.94h0c15.53,6.45,23.35,27.89,17.58,49.94-5.63,21.52-22.25,36.19-38.58,35h-.1q-.72-.06-1.44-.15Z"/><path d="M570.62,125.27l-1.42,0h0l-.51,0c-.47,0-1-.08-1.45-.15l-72.79-7.46,0-.49c.41-4.39,10.2-107.43,31.22-108.82h.13l64.22,31c16,6.64,23.65,28.36,17.86,50.53C602.53,110.38,586.72,125.27,570.62,125.27Zm-1.81-1.06h.08c16.21,1.15,32.59-13.77,38.06-34.67,5.67-21.68-1.76-42.9-17.3-49.35l-64-30.91c-19.37,1.72-29.33,99.55-30.1,107.42l71.82,7.36,1.42.15Z"/><ellipse class="cls-2" cx="505.75" cy="63.06" rx="59.98" ry="46.28" transform="translate(316.72 536.38) rotate(-75.34)"/><path d="M499.73,122.77a36.44,36.44,0,0,1-9.29-1.2c-24.95-6.52-38.39-38.08-29.94-70.34S496.1-2,521.06,4.56C533.17,7.72,543,16.8,548.6,30.12S555.08,59.3,551,74.9C543.6,103.19,521.81,122.77,499.73,122.77Zm12-118.41c-21.63,0-43,19.28-50.29,47.12-8.3,31.73,4.81,62.74,29.23,69.13a35.89,35.89,0,0,0,9.05,1.16c21.63,0,43-19.28,50.29-47.12,4-15.39,3.19-31.07-2.35-44.14s-15.07-21.9-26.88-25A35.84,35.84,0,0,0,511.75,4.36Z"/><ellipse class="cls-3" cx="489.99" cy="58.94" rx="59.98" ry="40.68" transform="matrix(0.25, -0.97, 0.97, 0.25, 308.94, 518.05)"/><ellipse class="cls-2" cx="489.99" cy="58.94" rx="46.9" ry="29.98" transform="translate(308.94 518.05) rotate(-75.34)"/><polygon class="cls-4" points="772.78 121.17 764.38 118.79 754.85 152.44 764.02 154.64 776.04 133.37 772.78 121.17"/><ellipse class="cls-5" cx="768.4" cy="137.9" rx="17.3" ry="11.57" transform="translate(440.49 846.38) rotate(-75.34)"/><path d="M766,155.39a8.42,8.42,0,0,1-2.11-.27c-6.44-1.68-9.66-10.78-7.17-20.27s9.74-15.84,16.18-14.16,9.65,10.78,7.17,20.27C777.86,149.42,771.85,155.39,766,155.39Zm4.76-34c-5.38,0-11,5.68-13.07,13.69-2.35,9,.55,17.51,6.45,19.05s12.62-4.48,15-13.44-.55-17.51-6.46-19.05A7.09,7.09,0,0,0,770.77,121.41Z"/><ellipse class="cls-3" cx="760.58" cy="135.86" rx="17.48" ry="11.57" transform="translate(436.63 837.29) rotate(-75.34)"/><polygon class="cls-3" points="740.47 110.78 765.49 119.09 756.78 152.85 730.44 148.1 740.47 110.78"/><path class="cls-3" d="M738.54,98.81l-47-20.17s-20.86,72.25-20,71.87,51.73,6.85,51.73,6.85Z"/><ellipse class="cls-3" cx="730.5" cy="127.99" rx="30.27" ry="11.57" transform="translate(421.77 802.31) rotate(-75.34)"/><path class="cls-2" d="M584.15,145.48s9.92-107,30.75-108.37l64.11,31h0C694.54,74.52,702.36,96,696.59,118,691,139.52,674.34,154.19,658,153.05h-.11l-1.43-.15Z"/><path d="M659.78,153.61c-.42,0-.85,0-1.27,0v0l-.66-.06-1.45-.15-72.79-7.47,0-.49C584.06,141,593.85,38,614.87,36.61H615l64.22,31c16,6.63,23.65,28.36,17.86,50.52C691.69,138.72,675.88,153.61,659.78,153.61ZM658,152.54h.09c16.24,1.15,32.59-13.77,38.06-34.67,5.67-21.69-1.77-42.9-17.3-49.36l-64-30.9c-19.37,1.71-29.33,99.54-30.1,107.41l71.82,7.36c.48.07,1,.11,1.42.15Z"/><ellipse class="cls-2" cx="596.59" cy="91.84" rx="59.98" ry="44.54" transform="translate(356.74 645.75) rotate(-75.34)"/><path d="M589.91,151.33a34.1,34.1,0,0,1-8.6-1.1c-11.62-3-20.95-12-26.27-25.19s-6-29-1.9-44.57,12.42-29,23.48-37.93,23.62-12.13,35.25-9.09,21,12,26.27,25.19,6,29,1.9,44.57C632.61,131.58,611.27,151.33,589.91,151.33ZM603.19,33.09c-8.83,0-17.86,3.43-26.1,10-10.94,8.78-19.19,22.11-23.22,37.53s-3.37,31.08,1.87,44.1,14.37,21.76,25.76,24.74a33.19,33.19,0,0,0,8.42,1.08c21,0,42.06-19.53,49.39-47.56,4-15.43,3.37-31.09-1.87-44.1s-14.37-21.76-25.76-24.74A33.46,33.46,0,0,0,603.19,33.09Z"/><ellipse class="cls-3" cx="579.15" cy="87.27" rx="59.98" ry="40.68" transform="translate(348.12 625.47) rotate(-75.34)"/><ellipse class="cls-2" cx="579.15" cy="87.27" rx="46.9" ry="29.98" transform="translate(348.12 625.47) rotate(-75.34)"/></g></g></svg>