<svg id="Capa_1" data-name="Capa 1" xmlns="http://www.w3.org/2000/svg" viewBox="0 0 245.78 42.55"><defs><style>.cls-1{fill:#fff;}.cls-2{fill:#ef736e;}</style></defs><polygon class="cls-1" points="0 0 243.28 0 234.91 20.75 245.78 42.55 0 42.55 9.24 21.28 0 0"/><path class="cls-2" d="M30.89,9.64h6.24v8.44h8V9.64h6.25V32.17H45.14V23.61h-8v8.56H30.89Z"/><path class="cls-2" d="M54.32,23.55v-.07c0-4.95,4-9.11,9.65-9.11s9.59,4.09,9.59,9.05v.06c0,5-4.06,9.11-9.65,9.11S54.32,28.5,54.32,23.55Zm13.29,0v-.07a3.77,3.77,0,0,0-3.7-3.92,3.64,3.64,0,0,0-3.64,3.86v.06A3.77,3.77,0,0,0,64,27.41,3.65,3.65,0,0,0,67.61,23.55Z"/><path class="cls-2" d="M76.13,14.76h6.12v2.45a6.44,6.44,0,0,1,5.21-2.84c3.7,0,5.92,2.45,5.92,6.41V32.17H87.27V22.74c0-1.9-1-2.93-2.45-2.93s-2.57,1-2.57,2.93v9.43H76.13Z"/><path class="cls-2" d="M95.83,23.55v-.07c0-5.08,3.63-9.11,8.78-9.11,6,0,8.79,4.41,8.79,9.53,0,.39,0,.84,0,1.26H101.72A3.59,3.59,0,0,0,105.48,28a5.25,5.25,0,0,0,3.86-1.77l3.38,2.8a9.13,9.13,0,0,1-7.56,3.54C99.69,32.59,95.83,29,95.83,23.55ZM107.67,22c-.23-1.93-1.35-3.15-3-3.15s-2.7,1.26-3,3.15Z"/><path class="cls-2" d="M114.68,30l2.29-3.7a11.29,11.29,0,0,0,6,2c1.07,0,1.55-.32,1.55-.94v-.06c0-.68-1-1-2.8-1.48-3.44-.9-6.18-2.06-6.18-5.57v-.06c0-3.7,3-5.76,7-5.76a13.66,13.66,0,0,1,7.18,2l-2.09,3.87a11.75,11.75,0,0,0-5.15-1.61c-.93,0-1.42.35-1.42.83v.07c0,.67,1,1,2.84,1.54,3.44,1,6.17,2.16,6.17,5.54v.06c0,3.83-2.86,5.83-7.11,5.83A14,14,0,0,1,114.68,30Z"/><path class="cls-2" d="M133.28,26.76V19.68h-2.06V14.76h2.06V10.35h6.12v4.41h4v4.92h-4v5.89c0,1.23.55,1.74,1.67,1.74a5.27,5.27,0,0,0,2.32-.58v4.8a8.75,8.75,0,0,1-4.25,1C135.47,32.52,133.28,30.92,133.28,26.76Z"/><path class="cls-2" d="M146.09,8.68h6.37v4.5h-6.37Zm.13,6.08h6.12V32.17h-6.12Z"/><path class="cls-2" d="M155.1,23.55v-.07c0-5.66,3.54-9.11,7.66-9.11a6.68,6.68,0,0,1,5.34,2.51V8.68h6.12V32.17H168.1V29.85a6.45,6.45,0,0,1-5.31,2.71C158.67,32.56,155.1,29.11,155.1,23.55Zm13.1-.07v-.06a3.57,3.57,0,1,0-7.11,0v.06a3.58,3.58,0,1,0,7.11,0Z"/><path class="cls-2" d="M176.63,27.18v-.06c0-3.61,2.74-5.47,6.82-5.47a13.54,13.54,0,0,1,4.19.67V22c0-1.8-1.13-2.83-3.48-2.83a12.26,12.26,0,0,0-4.79,1l-1.26-4.31a17.4,17.4,0,0,1,7-1.36c3.12,0,5.24.74,6.63,2.13s1.86,3.09,1.86,5.53v10H187.6v-1.8a6.56,6.56,0,0,1-5.11,2.19C179.17,32.56,176.63,30.66,176.63,27.18Zm11.07-1.32v-.8a6.35,6.35,0,0,0-2.38-.45c-1.77,0-2.8.87-2.8,2.15v.07a1.92,1.92,0,0,0,2.16,1.9A2.8,2.8,0,0,0,187.7,25.86Z"/><path class="cls-2" d="M196.13,23.55v-.07c0-5.66,3.54-9.11,7.66-9.11a6.68,6.68,0,0,1,5.34,2.51V8.68h6.12V32.17h-6.12V29.85a6.45,6.45,0,0,1-5.31,2.71C199.7,32.56,196.13,29.11,196.13,23.55Zm13.1-.07v-.06a3.57,3.57,0,1,0-7.11,0v.06a3.58,3.58,0,1,0,7.11,0Z"/></svg>