<svg id="Capa_1" data-name="Capa 1" xmlns="http://www.w3.org/2000/svg" viewBox="0 0 245.78 42.55"><defs><style>.cls-1{fill:#fff;}.cls-2{fill:#ef736e;}</style></defs><polygon class="cls-1" points="0 0 243.28 0 234.91 20.75 245.78 42.55 0 42.55 9.24 21.27 0 0"/><path class="cls-2" d="M43.17,9.64h6.24V26.7H60.32v5.47H43.17Z"/><path class="cls-2" d="M62.64,8.68H69v4.5H62.64Zm.12,6.08h6.12V32.17H62.76Z"/><path class="cls-2" d="M71.65,23.55v-.07c0-5.66,3.54-9.11,7.65-9.11a6.67,6.67,0,0,1,5.35,2.51V8.68h6.11V32.17H84.65V29.85a6.46,6.46,0,0,1-5.31,2.71C75.22,32.56,71.65,29.11,71.65,23.55Zm13.09-.07v-.06a3.57,3.57,0,1,0-7.11,0v.06a3.58,3.58,0,1,0,7.11,0Z"/><path class="cls-2" d="M93.34,23.55v-.07c0-5.08,3.63-9.11,8.78-9.11,6,0,8.79,4.41,8.79,9.53,0,.38,0,.84,0,1.25H99.22A3.61,3.61,0,0,0,103,28a5.25,5.25,0,0,0,3.86-1.77l3.38,2.8a9.13,9.13,0,0,1-7.56,3.54C97.2,32.59,93.34,29,93.34,23.55ZM105.18,22c-.23-1.93-1.35-3.15-3-3.15s-2.7,1.25-3,3.15Z"/><path class="cls-2" d="M113.51,14.76h6.12v3.51c1-2.38,2.6-3.93,5.5-3.8v6.44h-.52c-3.18,0-5,1.83-5,5.85v5.41h-6.12Z"/><path class="cls-2" d="M125.61,27.18v-.06c0-3.61,2.74-5.47,6.82-5.47a13.54,13.54,0,0,1,4.19.67V22c0-1.8-1.13-2.83-3.48-2.83a12.09,12.09,0,0,0-4.79,1l-1.26-4.32a17.62,17.62,0,0,1,7-1.35c3.12,0,5.25.74,6.63,2.13s1.87,3.09,1.87,5.53v10h-6v-1.8a6.58,6.58,0,0,1-5.12,2.19C128.15,32.56,125.61,30.66,125.61,27.18Zm11.07-1.32v-.8a6.35,6.35,0,0,0-2.38-.45c-1.77,0-2.8.87-2.8,2.15v.07a1.92,1.92,0,0,0,2.16,1.9A2.8,2.8,0,0,0,136.68,25.86Z"/><path class="cls-2" d="M145.14,28.15l8.05-8.53h-7.76V14.76H161.3v4l-8.08,8.53h8.08v4.86H145.14Z"/><path class="cls-2" d="M163.23,35.39l2-4.06A12,12,0,0,0,171.28,33c3.05,0,4.56-1.51,4.56-4.28V28a6.75,6.75,0,0,1-5.37,2.6c-4.28,0-7.72-3.08-7.72-8.07v-.07c0-5,3.5-8.11,7.53-8.11a7,7,0,0,1,5.47,2.45V14.76h6.11V28c0,3.18-.7,5.4-2.25,7s-4,2.44-7.66,2.44A18.73,18.73,0,0,1,163.23,35.39Zm12.61-12.84v-.07a3.32,3.32,0,0,0-3.53-3.34,3.37,3.37,0,0,0-3.58,3.38v.06a3.56,3.56,0,0,0,7.11,0Z"/><path class="cls-2" d="M184.44,23.55v-.07c0-5,4.05-9.11,9.65-9.11s9.59,4.09,9.59,9.05v.06c0,5-4.05,9.11-9.65,9.11S184.44,28.5,184.44,23.55Zm13.29,0v-.07a3.78,3.78,0,0,0-3.7-3.93,3.65,3.65,0,0,0-3.64,3.87v.06a3.78,3.78,0,0,0,3.7,3.93A3.65,3.65,0,0,0,197.73,23.55Z"/></svg>