<svg id="Capa_1" data-name="Capa 1" xmlns="http://www.w3.org/2000/svg" viewBox="0 0 314.25 48.46"><defs><style>.cls-1{fill:#fff;}.cls-2{fill:#ef736e;}</style></defs><polygon class="cls-1" points="0 0 311.05 0 300.35 23.63 314.25 48.46 0 48.46 11.81 24.23 0 0"/><path class="cls-2" d="M21,10.76H31.61c3.44,0,5.82.9,7.33,2.44a7,7,0,0,1,2,5.25v.06a7.13,7.13,0,0,1-4.63,6.92l5.37,7.85H34.47l-4.54-6.82H27.2v6.82H21ZM31.32,21.57c2.12,0,3.34-1,3.34-2.67v-.07c0-1.77-1.28-2.67-3.38-2.67H27.2v5.41Z"/><path class="cls-2" d="M42.71,24.66v-.07c0-5.08,3.64-9.1,8.78-9.1,6,0,8.79,4.4,8.79,9.52,0,.39,0,.84,0,1.26H48.6a3.58,3.58,0,0,0,3.76,2.86,5.29,5.29,0,0,0,3.87-1.77l3.37,2.8A9.11,9.11,0,0,1,52,33.7C46.57,33.7,42.71,30.06,42.71,24.66Zm11.84-1.51c-.22-1.93-1.35-3.16-3-3.16s-2.71,1.26-3,3.16Z"/><path class="cls-2" d="M61.57,31.09l2.28-3.7a11.32,11.32,0,0,0,6,2c1.06,0,1.54-.32,1.54-.93v-.07c0-.67-1-1-2.8-1.48-3.44-.9-6.18-2.06-6.18-5.57v-.06c0-3.7,3-5.76,7-5.76a13.56,13.56,0,0,1,7.17,2l-2.09,3.86a11.71,11.71,0,0,0-5.15-1.61c-.93,0-1.41.35-1.41.83v.07c0,.68,1,1,2.83,1.54,3.44,1,6.18,2.16,6.18,5.54v.06c0,3.83-2.87,5.83-7.11,5.83A14,14,0,0,1,61.57,31.09Z"/><path class="cls-2" d="M79.43,15.87h6.11v2.32a6.38,6.38,0,0,1,5.28-2.7c4.15,0,7.72,3.44,7.72,9v.06c0,5.66-3.57,9.11-7.69,9.11a6.54,6.54,0,0,1-5.31-2.51v7.27H79.43Zm13.09,8.72v-.06a3.57,3.57,0,1,0-7.11,0v.06a3.58,3.58,0,1,0,7.11,0Z"/><path class="cls-2" d="M100.47,24.66v-.07c0-4.95,4.06-9.1,9.66-9.1s9.59,4.08,9.59,9v.06c0,5-4.06,9.11-9.66,9.11S100.47,29.61,100.47,24.66Zm13.29,0v-.07a3.77,3.77,0,0,0-3.7-3.92,3.64,3.64,0,0,0-3.63,3.86v.06a3.77,3.77,0,0,0,3.7,3.93A3.64,3.64,0,0,0,113.76,24.66Z"/><path class="cls-2" d="M122.29,15.87h6.11v2.45a6.47,6.47,0,0,1,5.22-2.83c3.7,0,5.92,2.44,5.92,6.4V33.28h-6.12V23.85c0-1.89-1-2.92-2.44-2.92s-2.58,1-2.58,2.92v9.43h-6.11Z"/><path class="cls-2" d="M141.37,31.09l2.29-3.7a11.29,11.29,0,0,0,6,2c1.06,0,1.55-.32,1.55-.93v-.07c0-.67-1-1-2.8-1.48-3.45-.9-6.18-2.06-6.18-5.57v-.06c0-3.7,3-5.76,7-5.76a13.62,13.62,0,0,1,7.18,2l-2.09,3.86a11.79,11.79,0,0,0-5.15-1.61c-.94,0-1.42.35-1.42.83v.07c0,.68,1,1,2.83,1.54,3.45,1,6.18,2.16,6.18,5.54v.06c0,3.83-2.86,5.83-7.11,5.83A14,14,0,0,1,141.37,31.09Z"/><path class="cls-2" d="M158.36,28.29v-.06c0-3.6,2.74-5.47,6.82-5.47a13.54,13.54,0,0,1,4.19.67v-.28c0-1.81-1.13-2.84-3.48-2.84a12.26,12.26,0,0,0-4.79,1L159.84,17a17.45,17.45,0,0,1,7-1.35c3.12,0,5.25.74,6.63,2.12s1.87,3.09,1.87,5.53v10h-6v-1.8a6.59,6.59,0,0,1-5.12,2.19C160.9,33.67,158.36,31.77,158.36,28.29ZM169.43,27v-.8a6.35,6.35,0,0,0-2.38-.45c-1.77,0-2.8.87-2.8,2.16v.06a1.92,1.92,0,0,0,2.16,1.9A2.8,2.8,0,0,0,169.43,27Z"/><path class="cls-2" d="M184.62,31.16v2.12h-6.11V9.79h6.11v8.4a6.38,6.38,0,0,1,5.28-2.7c4.15,0,7.72,3.44,7.72,9v.06c0,5.66-3.57,9.11-7.69,9.11A6.54,6.54,0,0,1,184.62,31.16Zm7-6.57v-.06a3.57,3.57,0,1,0-7.11,0v.06a3.58,3.58,0,1,0,7.11,0Z"/><path class="cls-2" d="M200.26,9.79h6.37V14.3h-6.37Zm.13,6.08h6.11V33.28h-6.11Z"/><path class="cls-2" d="M210,9.79h6.12V33.28H210Z"/><path class="cls-2" d="M219.57,9.79h6.37V14.3h-6.37Zm.12,6.08h6.12V33.28h-6.12Z"/><path class="cls-2" d="M228.58,24.66v-.07c0-5.66,3.54-9.1,7.65-9.1A6.67,6.67,0,0,1,241.58,18V9.79h6.11V33.28h-6.11V31a6.48,6.48,0,0,1-5.31,2.7C232.15,33.67,228.58,30.22,228.58,24.66Zm13.09-.07v-.06a3.57,3.57,0,1,0-7.11,0v.06a3.58,3.58,0,1,0,7.11,0Z"/><path class="cls-2" d="M250.1,28.29v-.06c0-3.6,2.74-5.47,6.83-5.47a13.47,13.47,0,0,1,4.18.67v-.28c0-1.81-1.13-2.84-3.47-2.84a12.31,12.31,0,0,0-4.8,1L251.59,17a17.36,17.36,0,0,1,7-1.35c3.12,0,5.25.74,6.63,2.12s1.87,3.09,1.87,5.53v10h-6.05v-1.8A6.56,6.56,0,0,1,256,33.67C252.65,33.67,250.1,31.77,250.1,28.29ZM261.18,27v-.8a6.44,6.44,0,0,0-2.39-.45c-1.77,0-2.8.87-2.8,2.16v.06a1.92,1.92,0,0,0,2.16,1.9A2.81,2.81,0,0,0,261.18,27Z"/><path class="cls-2" d="M269.61,24.66v-.07c0-5.66,3.53-9.1,7.65-9.1A6.67,6.67,0,0,1,282.61,18V9.79h6.11V33.28h-6.11V31a6.48,6.48,0,0,1-5.31,2.7C273.18,33.67,269.61,30.22,269.61,24.66Zm13.09-.07v-.06a3.57,3.57,0,1,0-7.11,0v.06a3.58,3.58,0,1,0,7.11,0Z"/></svg>