<svg id="Capa_1" data-name="Capa 1" xmlns="http://www.w3.org/2000/svg" viewBox="0 0 245.78 42.55"><defs><style>.cls-1{fill:#fff;}.cls-2{fill:#ef736e;}</style></defs><polygon class="cls-1" points="0 0 243.28 0 234.91 20.75 245.78 42.55 0 42.55 9.24 21.27 0 0"/><path class="cls-2" d="M28.86,28.82l3.48-4.15a11.6,11.6,0,0,0,7.3,2.7c1.68,0,2.58-.58,2.58-1.54v-.07c0-.93-.74-1.44-3.8-2.15-4.8-1.1-8.5-2.45-8.5-7.08v-.07c0-4.18,3.32-7.2,8.72-7.2a14.19,14.19,0,0,1,9.27,3l-3.12,4.41a11.28,11.28,0,0,0-6.31-2.22c-1.51,0-2.25.64-2.25,1.45V16c0,1,.77,1.48,3.9,2.19,5.18,1.12,8.39,2.8,8.39,7v.07c0,4.6-3.63,7.33-9.1,7.33A15.74,15.74,0,0,1,28.86,28.82Z"/><path class="cls-2" d="M50.49,23.54v-.06c0-5,4-9.11,9.65-9.11s9.59,4.09,9.59,9.05v.06c0,4.95-4,9.11-9.65,9.11S50.49,28.5,50.49,23.54Zm13.29,0v-.06a3.78,3.78,0,0,0-3.7-3.93,3.65,3.65,0,0,0-3.64,3.87v.06a3.78,3.78,0,0,0,3.7,3.93A3.65,3.65,0,0,0,63.78,23.54Z"/><path class="cls-2" d="M72.43,8.68h6.12V32.17H72.43Z"/><path class="cls-2" d="M82,8.68h6.37v4.5H82Zm.13,6.08H88.2V32.17H82.09Z"/><path class="cls-2" d="M91,23.54v-.06c0-5.66,3.54-9.11,7.66-9.11A6.65,6.65,0,0,1,104,16.88V8.68h6.11V32.17H104V29.85a6.44,6.44,0,0,1-5.31,2.7C94.54,32.55,91,29.11,91,23.54Zm13.1-.06v-.06a3.58,3.58,0,1,0-7.12,0v.06a3.58,3.58,0,1,0,7.12,0Z"/><path class="cls-2" d="M112.5,27.18v-.06c0-3.61,2.73-5.48,6.82-5.48a13.44,13.44,0,0,1,4.18.68V22c0-1.8-1.12-2.83-3.47-2.83a12.31,12.31,0,0,0-4.8,1L114,15.85a17.53,17.53,0,0,1,7-1.35c3.13,0,5.25.74,6.63,2.13s1.87,3.08,1.87,5.53v10h-6.05v-1.8a6.56,6.56,0,0,1-5.12,2.18C115,32.55,112.5,30.66,112.5,27.18Zm11.07-1.32v-.8a6.36,6.36,0,0,0-2.39-.45c-1.76,0-2.79.86-2.79,2.15v.07a1.91,1.91,0,0,0,2.15,1.89A2.8,2.8,0,0,0,123.57,25.86Z"/><path class="cls-2" d="M132.64,14.76h6.12v3.51c1-2.38,2.6-3.93,5.5-3.8V20.9h-.52c-3.18,0-5,1.84-5,5.86v5.41h-6.12Z"/><path class="cls-2" d="M146.41,8.68h6.38v4.5h-6.38Zm.13,6.08h6.12V32.17h-6.12Z"/><path class="cls-2" d="M155.42,23.54v-.06c0-5.66,3.54-9.11,7.66-9.11a6.67,6.67,0,0,1,5.35,2.51V8.68h6.11V32.17h-6.11V29.85a6.47,6.47,0,0,1-5.32,2.7C159,32.55,155.42,29.11,155.42,23.54Zm13.1-.06v-.06a3.57,3.57,0,1,0-7.11,0v.06a3.58,3.58,0,1,0,7.11,0Z"/><path class="cls-2" d="M177,27.18v-.06c0-3.61,2.74-5.48,6.82-5.48a13.51,13.51,0,0,1,4.19.68V22c0-1.8-1.13-2.83-3.48-2.83a12.26,12.26,0,0,0-4.79,1l-1.26-4.31a17.62,17.62,0,0,1,7-1.35c3.12,0,5.25.74,6.63,2.13S194,19.71,194,22.16v10h-6v-1.8a6.57,6.57,0,0,1-5.12,2.18C179.49,32.55,177,30.66,177,27.18ZM188,25.86v-.8a6.35,6.35,0,0,0-2.38-.45c-1.77,0-2.8.86-2.8,2.15v.07A1.91,1.91,0,0,0,185,28.72,2.79,2.79,0,0,0,188,25.86Z"/><path class="cls-2" d="M196.45,23.54v-.06c0-5.66,3.54-9.11,7.66-9.11a6.63,6.63,0,0,1,5.34,2.51V8.68h6.12V32.17h-6.12V29.85a6.44,6.44,0,0,1-5.31,2.7C200,32.55,196.45,29.11,196.45,23.54Zm13.1-.06v-.06a3.57,3.57,0,1,0-7.11,0v.06a3.58,3.58,0,1,0,7.11,0Z"/></svg>