<svg id="Capa_1" data-name="Capa 1" xmlns="http://www.w3.org/2000/svg" viewBox="0 0 271.6 42.55"><defs><style>.cls-1{fill:#fff;}.cls-2{fill:#ef736e;}</style></defs><polygon class="cls-1" points="0 0 268.83 0 259.59 20.75 271.6 42.55 0 42.55 10.21 21.28 0 0"/><path class="cls-2" d="M27.85,15.12H21.1V9.65H40.86v5.47H34.1V32.17H27.85Z"/><path class="cls-2" d="M42.11,14.76h6.11v3.51c1-2.38,2.61-3.93,5.51-3.8v6.44h-.52c-3.18,0-5,1.83-5,5.85v5.41H42.11Z"/><path class="cls-2" d="M54.21,27.18v-.06c0-3.61,2.74-5.47,6.82-5.47a13.54,13.54,0,0,1,4.19.67V22c0-1.8-1.13-2.83-3.48-2.83a12.26,12.26,0,0,0-4.79,1l-1.26-4.31a17.36,17.36,0,0,1,7.05-1.36c3.12,0,5.24.74,6.63,2.13s1.86,3.09,1.86,5.53v10h-6v-1.8a6.56,6.56,0,0,1-5.11,2.19C56.75,32.56,54.21,30.66,54.21,27.18Zm11.07-1.32v-.8a6.35,6.35,0,0,0-2.38-.45c-1.77,0-2.8.87-2.8,2.15v.07a1.92,1.92,0,0,0,2.15,1.9A2.8,2.8,0,0,0,65.28,25.86Z"/><path class="cls-2" d="M74.36,14.76h6.11v2.45a6.45,6.45,0,0,1,5.21-2.83c3.7,0,5.92,2.44,5.92,6.4V32.17H85.49V22.74c0-1.9-1-2.93-2.45-2.93s-2.57,1-2.57,2.93v9.43H74.36Z"/><path class="cls-2" d="M93.44,30l2.28-3.7a11.35,11.35,0,0,0,6,2c1.06,0,1.54-.32,1.54-.94v-.06c0-.68-1-1-2.8-1.48-3.44-.9-6.18-2.06-6.18-5.57v-.06c0-3.7,3-5.76,7-5.76a13.56,13.56,0,0,1,7.17,2l-2.09,3.86a11.71,11.71,0,0,0-5.15-1.61c-.93,0-1.41.35-1.41.83v.07c0,.67,1,1,2.83,1.54,3.44,1,6.18,2.16,6.18,5.54v.06c0,3.83-2.87,5.83-7.11,5.83A14,14,0,0,1,93.44,30Z"/><path class="cls-2" d="M111.3,14.76h6.11v2.32a6.38,6.38,0,0,1,5.28-2.7c4.15,0,7.72,3.44,7.72,9v.06c0,5.66-3.57,9.11-7.69,9.11a6.54,6.54,0,0,1-5.31-2.51v7.27H111.3Zm13.09,8.72v-.06a3.57,3.57,0,1,0-7.11,0v.06a3.58,3.58,0,1,0,7.11,0Z"/><path class="cls-2" d="M132.18,27.18v-.06c0-3.61,2.74-5.47,6.82-5.47a13.54,13.54,0,0,1,4.19.67V22c0-1.8-1.13-2.83-3.48-2.83a12.26,12.26,0,0,0-4.79,1l-1.26-4.31a17.4,17.4,0,0,1,7.05-1.36c3.12,0,5.24.74,6.63,2.13s1.86,3.09,1.86,5.53v10h-6v-1.8A6.59,6.59,0,0,1,138,32.56C134.72,32.56,132.18,30.66,132.18,27.18Zm11.07-1.32v-.8a6.35,6.35,0,0,0-2.38-.45c-1.77,0-2.8.87-2.8,2.15v.07a1.92,1.92,0,0,0,2.16,1.9A2.8,2.8,0,0,0,143.25,25.86Z"/><path class="cls-2" d="M152.33,14.76h6.11v3.51c1-2.38,2.61-3.93,5.5-3.8v6.44h-.51c-3.19,0-5,1.83-5,5.85v5.41h-6.11Z"/><path class="cls-2" d="M165.07,23.55v-.07c0-5.08,3.64-9.1,8.79-9.1,6,0,8.78,4.4,8.78,9.52,0,.39,0,.84,0,1.26H171A3.6,3.6,0,0,0,174.72,28a5.29,5.29,0,0,0,3.87-1.77l3.37,2.8a9.11,9.11,0,0,1-7.56,3.54C168.93,32.59,165.07,29,165.07,23.55ZM176.91,22c-.22-1.93-1.35-3.15-3-3.15s-2.71,1.26-3,3.15Z"/><path class="cls-2" d="M185.25,14.76h6.11v2.45a6.46,6.46,0,0,1,5.21-2.83c3.71,0,5.92,2.44,5.92,6.4V32.17h-6.11V22.74c0-1.9-1-2.93-2.44-2.93s-2.58,1-2.58,2.93v9.43h-6.11Z"/><path class="cls-2" d="M204.94,23.55v-.07a9,9,0,0,1,9.33-9.07,8.24,8.24,0,0,1,7.44,3.89l-4.16,3.09a3.74,3.74,0,0,0-3.25-1.83,3.61,3.61,0,0,0-3.41,3.86v.06c0,2.25,1.42,4,3.48,4a4.2,4.2,0,0,0,3.35-1.8l4.08,3a8.63,8.63,0,0,1-7.75,4A9,9,0,0,1,204.94,23.55Z"/><path class="cls-2" d="M224,8.68h6.37v4.51H224Zm.13,6.08h6.11V32.17h-6.11Z"/><path class="cls-2" d="M232.74,27.18v-.06c0-3.61,2.74-5.47,6.83-5.47a13.52,13.52,0,0,1,4.18.67V22c0-1.8-1.13-2.83-3.48-2.83a12.26,12.26,0,0,0-4.79,1l-1.26-4.31a17.44,17.44,0,0,1,7.05-1.36c3.12,0,5.25.74,6.63,2.13s1.87,3.09,1.87,5.53v10h-6.05v-1.8a6.58,6.58,0,0,1-5.12,2.19C235.28,32.56,232.74,30.66,232.74,27.18Zm11.07-1.32v-.8a6.35,6.35,0,0,0-2.38-.45c-1.77,0-2.8.87-2.8,2.15v.07a1.92,1.92,0,0,0,2.16,1.9A2.8,2.8,0,0,0,243.81,25.86Z"/></svg>