<svg xmlns="http://www.w3.org/2000/svg" xmlns:xlink="http://www.w3.org/1999/xlink" viewBox="0 0 625.09 564.31"><defs><style>.cls-1,.cls-9{fill:none;}.cls-2,.cls-6{fill:#f6f0ed;}.cls-2,.cls-3,.cls-9{stroke:#000;stroke-miterlimit:10;}.cls-10,.cls-3{fill:#fff;}.cls-4{fill:#168d81;}.cls-5{clip-path:url(#clip-path);}.cls-7{clip-path:url(#clip-path-2);}.cls-8{fill:#1c1c1b;}.cls-11{clip-path:url(#clip-path-3);}</style><clipPath id="clip-path" transform="translate(30.68)"><path class="cls-1" d="M87.9.6H485.41a0,0,0,0,1,0,0V363.19A198.12,198.12,0,0,1,287.29,561.31H286A198.12,198.12,0,0,1,87.9,363.19V.6a0,0,0,0,1,0,0Z"/></clipPath><clipPath id="clip-path-2" transform="translate(30.68)"><path class="cls-2" d="M-14.06,301.2s91.79-8.49,135.19-28.67S177.5,258.19,186,259.78s25,8,42.91,5.85,37.91,2.65,46.39,10.08a16.69,16.69,0,0,0,3-15.93c-3-9.55-31.43-17-47.89-44.07s0-70.62,34.42-57.87c0,0,11,6.9,12.48.53s-.9-12.58-15.52-18.54c-18.52-7.55-44.35,9-52.83,23.85,0,0-4,4.25-3-1.06s11.47-21.24,24.44-30.8,39.91-12.21,40.41-19.12-9-15.66-36.62-3.91c-24.53,10.44-47.69,45.86-47.69,45.86A107.91,107.91,0,0,1,202,124.39c11-14.87,26.44-23.9,31.92-26.55s9-12.22,1.5-14.87-57.87,21.77-65.85,69a119.58,119.58,0,0,1,1.5-22.84c2-11.15,13-22.83,15.46-26s3-10.09-4.49-9.56-30.93,27.08-28.93,61.59c0,0-3.49,47.26-29.43,54.16s-140.68-.53-151.16-8S-14.06,301.2-14.06,301.2Z"/></clipPath><clipPath id="clip-path-3" transform="translate(30.68)"><path class="cls-3" d="M577.79,301.2S486,292.71,442.6,272.53s-56.38-14.34-64.86-12.75-24.94,8-42.9,5.85-37.91,2.65-46.39,10.08a16.71,16.71,0,0,1-3-15.93c3-9.55,31.43-17,47.89-44.07s0-70.62-34.42-57.87c0,0-11,6.9-12.47.53s.9-12.58,15.52-18.54c18.52-7.55,44.35,9,52.83,23.85,0,0,4,4.25,3-1.06s-11.47-21.24-24.45-30.8-39.9-12.21-40.4-19.12,9-15.66,36.62-3.91c24.52,10.44,47.68,45.86,47.68,45.86a108,108,0,0,0-15.46-30.26c-11-14.87-26.44-23.9-31.93-26.55s-9-12.22-1.49-14.87,57.86,21.77,65.85,69a120.53,120.53,0,0,0-1.5-22.84c-2-11.15-13-22.83-15.47-26s-3-10.09,4.49-9.56,30.93,27.08,28.94,61.59c0,0,3.49,47.26,29.43,54.16s140.68-.53,151.16-8S577.79,301.2,577.79,301.2Z"/></clipPath></defs><g id="Capa_2" data-name="Capa 2"><g id="Capa_1-2" data-name="Capa 1"><path class="cls-4" d="M118.6,0H516.11a0,0,0,0,1,0,0V365.55A198.76,198.76,0,0,1,317.36,564.31h0A198.76,198.76,0,0,1,118.6,365.55V0a0,0,0,0,1,0,0Z"/><g class="cls-5"><path class="cls-6" d="M-14.06,301.2s91.79-8.49,135.19-28.67S177.5,258.19,186,259.78s25,8,42.91,5.85,37.91,2.65,46.39,10.08a16.69,16.69,0,0,0,3-15.93c-3-9.55-31.43-17-47.89-44.07s0-70.62,34.42-57.87c0,0,11,6.9,12.48.53s-.9-12.58-15.52-18.54c-18.52-7.55-44.35,9-52.83,23.85,0,0-4,4.25-3-1.06s11.47-21.24,24.44-30.8,39.91-12.21,40.41-19.12-9-15.66-36.62-3.91c-24.53,10.44-47.69,45.86-47.69,45.86A107.91,107.91,0,0,1,202,124.39c11-14.87,26.44-23.9,31.92-26.55s9-12.22,1.5-14.87-57.87,21.77-65.85,69a119.58,119.58,0,0,1,1.5-22.84c2-11.15,13-22.83,15.46-26s3-10.09-4.49-9.56-30.93,27.08-28.93,61.59c0,0-3.49,47.26-29.43,54.16s-140.68-.53-151.16-8S-14.06,301.2-14.06,301.2Z" transform="translate(30.68)"/><g class="cls-7"><path class="cls-8" d="M269.76,142.82c-1.63.26-5.49,1-5.36,3.49.1,2.13,3,4.24,4.47,5.3,3,2.23,11.25,6,13.4.74.15-.37-.36-.69-.51-.32-1.77,4.36-8.58,1.55-11.32-.11a17.21,17.21,0,0,1-4.16-3.51c-.78-.92-.92-1-.72-2.32s.13-1.21,1.16-1.7a11.35,11.35,0,0,1,3.2-1c.37-.06.21-.67-.16-.61Z" transform="translate(30.68)"/><path class="cls-8" d="M263.8,271.91c-.22-1.16-.7-2.25-.9-3.41-.26-1.5.83-3.42,2.29-3.6a7.42,7.42,0,0,1,2.05.11,19.55,19.55,0,0,1,7.34,3.35A38.65,38.65,0,0,1,285.24,279c.23.32.74,0,.52-.32a37.77,37.77,0,0,0-15-13.13c-2-.93-5.62-2.25-7.6-.48s-.36,4.94.05,7.06c.08.39.65.22.57-.17Z" transform="translate(30.68)"/><path class="cls-8" d="M256,102.17c-2.36,1-6.57.69-7.37,4-.75,3.08,2.32,5.63,4.6,6.68a13.6,13.6,0,0,0,10,.26c2.55-.84,6.55-2.27,7.44-5.29a.3.3,0,1,0-.57-.17c-.77,2.63-4.52,4-6.7,4.75a13.91,13.91,0,0,1-8.07.52c-2.45-.64-6.18-2.63-6.07-5.8.12-3.7,4.51-3.34,6.94-4.35.35-.15.19-.76-.16-.61Z" transform="translate(30.68)"/><path class="cls-8" d="M225,83.35c-2.15,1.05-4.26,3.44-3.26,6.15.9,2.43,3.58,3.66,5.87,3.78,6.75.37,10.76-6.17,13.77-11.6.19-.35-.32-.66-.51-.31-2.31,4.15-4.91,8.89-9.41,10.63A8.15,8.15,0,0,1,225,92a4.53,4.53,0,0,1-2.9-4.34c.15-1.8,1.73-3.07,3.15-3.76.35-.17.05-.71-.3-.55Z" transform="translate(30.68)"/><path class="cls-8" d="M177.65,94c-2.06,1.28-4.45,3.22-4.06,6.11a3.65,3.65,0,0,0,3.55,3.13c6.06.46,8.85-7.12,9.61-12.21.06-.4-.51-.57-.57-.17-.62,4.13-1.94,8.64-5.6,10.83-1.75,1-4.77,1.66-6.05-.56-1.64-2.86,1.45-5.37,3.42-6.58.32-.21,0-.75-.3-.55Z" transform="translate(30.68)"/><path class="cls-8" d="M163.4,119.7c1.52,1.79,3.67,3.89,6,2.48.17-.09,0-.37-.15-.27-2.26,1.34-4.28-.76-5.69-2.43-.13-.15-.34.07-.21.22Z" transform="translate(30.68)"/><path class="cls-8" d="M164.55,117.15a21.66,21.66,0,0,1,4.92,2c.17.1.32-.18.15-.27a21.83,21.83,0,0,0-5-2c-.18,0-.26.25-.08.3Z" transform="translate(30.68)"/><path class="cls-8" d="M194.45,110.7a11.64,11.64,0,0,0,6.12,7.3c.17.08.32-.19.15-.27a11.38,11.38,0,0,1-6-7.11.15.15,0,1,0-.28.08Z" transform="translate(30.68)"/><path class="cls-8" d="M198,111.84a13.68,13.68,0,0,0,4.19,3.55c.17.09.32-.18.15-.27a13.57,13.57,0,0,1-4.13-3.5c-.13-.15-.34.07-.21.22Z" transform="translate(30.68)"/><path class="cls-8" d="M198.84,109.19a7,7,0,0,1,4.08,3.86c.08.18.34,0,.26-.16a7.33,7.33,0,0,0-4.26-4c-.18-.06-.26.24-.08.31Z" transform="translate(30.68)"/><path class="cls-8" d="M217.49,126.48a18.82,18.82,0,0,0,6.33,6.4c.17.1.32-.17.15-.27a18.45,18.45,0,0,1-6.22-6.29.15.15,0,0,0-.26.16Z" transform="translate(30.68)"/><path class="cls-8" d="M219.35,124.05a9,9,0,0,1,3.88,3.09c.12.16.33-.06.21-.22a9.14,9.14,0,0,0-4-3.17c-.17-.08-.25.23-.07.3Z" transform="translate(30.68)"/><path class="cls-8" d="M235.55,141.46a8.64,8.64,0,0,0,.9,5.76c.1.18.35,0,.26-.16a8.19,8.19,0,0,1-.87-5.52c0-.2-.25-.28-.29-.08Z" transform="translate(30.68)"/><path class="cls-8" d="M240.08,147.75c-.71-2.66-1.35-5.35-.64-8.1a.15.15,0,1,0-.28-.08c-.73,2.8-.09,5.54.63,8.27a.15.15,0,0,0,.29-.09Z" transform="translate(30.68)"/><path class="cls-8" d="M213.65,165.69a4.73,4.73,0,0,0,3.34,3.83.16.16,0,0,0,.08-.31,4.4,4.4,0,0,1-3.13-3.61c0-.2-.32-.11-.29.09Z" transform="translate(30.68)"/><path class="cls-8" d="M190.55,158.41a5.22,5.22,0,0,0,2.62,1.13c.19,0,.19-.29,0-.32a4.91,4.91,0,0,1-2.47-1.08c-.15-.12-.3.15-.15.27Z" transform="translate(30.68)"/><path class="cls-8" d="M174.26,151.73a8.6,8.6,0,0,1,6.27,2.82c.14.15.35-.08.21-.22a8.93,8.93,0,0,0-6.48-2.91.16.16,0,0,0,0,.31Z" transform="translate(30.68)"/><path class="cls-8" d="M192.32,156.88a13.24,13.24,0,0,1,6.38,3.93c.14.14.34-.08.21-.23a13.63,13.63,0,0,0-6.51-4c-.18-.06-.26.25-.08.3Z" transform="translate(30.68)"/><path class="cls-8" d="M159.2,150.88a4.91,4.91,0,0,0,3.87.47.16.16,0,0,0-.08-.3,4.57,4.57,0,0,1-3.64-.45.16.16,0,0,0-.15.28Z" transform="translate(30.68)"/><path class="cls-8" d="M130.2,201.76c-3.33,7.83-.83,17.53,5.8,22.45.16.11.31-.16.15-.28-6.49-4.81-9-14.34-5.69-22,.08-.19-.18-.35-.26-.16Z" transform="translate(30.68)"/><path class="cls-8" d="M124.52,204.32c-2.49,12.5,4.46,22.73,13,30.44.15.13.36-.09.21-.22-8.42-7.63-15.37-17.75-12.9-30.14,0-.2-.24-.28-.28-.08Z" transform="translate(30.68)"/><path class="cls-8" d="M177.79,259.91a52.12,52.12,0,0,1-14.49-6.11c-.17-.1-.32.18-.15.28a53,53,0,0,0,14.56,6.13c.19.05.27-.26.08-.3Z" transform="translate(30.68)"/><path class="cls-8" d="M252.84,235.69c-4.51-3.14-9.78,3.94-11.43,7.63-.08.18.18.34.26.16,1.58-3.56,6.68-10.54,11-7.52.16.11.31-.16.15-.27Z" transform="translate(30.68)"/></g><path class="cls-9" d="M-14.06,301.2s91.79-8.49,135.19-28.67S177.5,258.19,186,259.78s25,8,42.91,5.85,37.91,2.65,46.39,10.08a16.69,16.69,0,0,0,3-15.93c-3-9.55-31.43-17-47.89-44.07s0-70.62,34.42-57.87c0,0,11,6.9,12.48.53s-.9-12.58-15.52-18.54c-18.52-7.55-44.35,9-52.83,23.85,0,0-4,4.25-3-1.06s11.47-21.24,24.44-30.8,39.91-12.21,40.41-19.12-9-15.66-36.62-3.91c-24.53,10.44-47.69,45.86-47.69,45.86A107.91,107.91,0,0,1,202,124.39c11-14.87,26.44-23.9,31.92-26.55s9-12.22,1.5-14.87-57.87,21.77-65.85,69a119.58,119.58,0,0,1,1.5-22.84c2-11.15,13-22.83,15.46-26s3-10.09-4.49-9.56-30.93,27.08-28.93,61.59c0,0-3.49,47.26-29.43,54.16s-140.68-.53-151.16-8S-14.06,301.2-14.06,301.2Z" transform="translate(30.68)"/><path class="cls-10" d="M577.79,301.2S486,292.71,442.6,272.53s-56.38-14.34-64.86-12.75-24.94,8-42.9,5.85-37.91,2.65-46.39,10.08a16.71,16.71,0,0,1-3-15.93c3-9.55,31.43-17,47.89-44.07s0-70.62-34.42-57.87c0,0-11,6.9-12.47.53s.9-12.58,15.52-18.54c18.52-7.55,44.35,9,52.83,23.85,0,0,4,4.25,3-1.06s-11.47-21.24-24.45-30.8-39.9-12.21-40.4-19.12,9-15.66,36.62-3.91c24.52,10.44,47.68,45.86,47.68,45.86a108,108,0,0,0-15.46-30.26c-11-14.87-26.44-23.9-31.93-26.55s-9-12.22-1.49-14.87,57.86,21.77,65.85,69a120.53,120.53,0,0,0-1.5-22.84c-2-11.15-13-22.83-15.47-26s-3-10.09,4.49-9.56,30.93,27.08,28.94,61.59c0,0,3.49,47.26,29.43,54.16s140.68-.53,151.16-8S577.79,301.2,577.79,301.2Z" transform="translate(30.68)"/><g class="cls-11"><path class="cls-8" d="M294,142.82c1.63.26,5.49,1,5.36,3.49-.11,2.13-3,4.24-4.47,5.3-3.05,2.23-11.26,6-13.4.74-.15-.37.36-.69.51-.32,1.77,4.36,8.57,1.55,11.32-.11a17.21,17.21,0,0,0,4.16-3.51c.78-.92.92-1,.72-2.32s-.14-1.21-1.17-1.7a11.19,11.19,0,0,0-3.19-1c-.37-.06-.21-.67.16-.61Z" transform="translate(30.68)"/><path class="cls-8" d="M299.92,271.91c.23-1.16.7-2.25.91-3.41.26-1.5-.83-3.42-2.3-3.6a7.37,7.37,0,0,0-2,.11,19.48,19.48,0,0,0-7.34,3.35A38.68,38.68,0,0,0,278.48,279c-.22.32-.73,0-.51-.32a37.74,37.74,0,0,1,15-13.13c2-.93,5.63-2.25,7.61-.48s.35,4.94-.06,7.06c-.07.39-.64.22-.57-.17Z" transform="translate(30.68)"/><path class="cls-8" d="M307.77,102.17c2.35,1,6.56.69,7.37,4,.75,3.08-2.32,5.63-4.6,6.68a13.6,13.6,0,0,1-10,.26c-2.56-.84-6.56-2.27-7.44-5.29a.3.3,0,1,1,.57-.17c.77,2.63,4.52,4,6.7,4.75a13.9,13.9,0,0,0,8.07.52c2.44-.64,6.17-2.63,6.07-5.8-.13-3.7-4.51-3.34-6.94-4.35-.35-.15-.2-.76.16-.61Z" transform="translate(30.68)"/><path class="cls-8" d="M338.77,83.35c2.15,1.05,4.27,3.44,3.27,6.15-.9,2.43-3.58,3.66-5.88,3.78-6.74.37-10.75-6.17-13.76-11.6a.3.3,0,1,1,.51-.31c2.3,4.15,4.91,8.89,9.41,10.63a8.15,8.15,0,0,0,6.41,0,4.51,4.51,0,0,0,2.89-4.34c-.14-1.8-1.72-3.07-3.15-3.76-.34-.17,0-.71.3-.55Z" transform="translate(30.68)"/><path class="cls-8" d="M386.08,94c2.06,1.28,4.44,3.22,4.06,6.11a3.66,3.66,0,0,1-3.56,3.13c-6.05.46-8.84-7.12-9.6-12.21-.06-.4.51-.57.57-.17.61,4.13,1.94,8.64,5.6,10.83,1.75,1,4.77,1.66,6.05-.56,1.64-2.86-1.46-5.37-3.42-6.58-.33-.21,0-.75.3-.55Z" transform="translate(30.68)"/><path class="cls-8" d="M400.33,119.7c-1.52,1.79-3.67,3.89-6.05,2.48-.17-.09,0-.37.15-.27,2.26,1.34,4.27-.76,5.69-2.43.13-.15.33.07.21.22Z" transform="translate(30.68)"/><path class="cls-8" d="M399.18,117.15a21.48,21.48,0,0,0-4.92,2c-.17.1-.32-.18-.15-.27a21.83,21.83,0,0,1,5-2c.18,0,.26.25.08.3Z" transform="translate(30.68)"/><path class="cls-8" d="M369.28,110.7a11.64,11.64,0,0,1-6.12,7.3c-.17.08-.32-.19-.15-.27a11.33,11.33,0,0,0,6-7.11.15.15,0,0,1,.29.08Z" transform="translate(30.68)"/><path class="cls-8" d="M365.74,111.84a13.72,13.72,0,0,1-4.2,3.55c-.16.09-.31-.18-.14-.27a13.69,13.69,0,0,0,4.13-3.5c.12-.15.33.07.21.22Z" transform="translate(30.68)"/><path class="cls-8" d="M364.89,109.19a7,7,0,0,0-4.09,3.86c-.08.18-.33,0-.25-.16a7.28,7.28,0,0,1,4.26-4c.18-.06.26.24.08.31Z" transform="translate(30.68)"/><path class="cls-8" d="M346.24,126.48a18.76,18.76,0,0,1-6.34,6.4c-.16.1-.31-.17-.15-.27a18.39,18.39,0,0,0,6.23-6.29c.1-.17.36,0,.26.16Z" transform="translate(30.68)"/><path class="cls-8" d="M344.38,124.05a9.07,9.07,0,0,0-3.89,3.09c-.11.16-.32-.06-.21-.22a9.26,9.26,0,0,1,4-3.17c.18-.08.26.23.08.3Z" transform="translate(30.68)"/><path class="cls-8" d="M328.17,141.46a8.58,8.58,0,0,1-.9,5.76c-.09.18-.35,0-.25-.16a8.31,8.31,0,0,0,.87-5.52c0-.2.25-.28.28-.08Z" transform="translate(30.68)"/><path class="cls-8" d="M323.65,147.75c.71-2.66,1.35-5.35.64-8.1a.15.15,0,1,1,.28-.08c.73,2.8.09,5.54-.64,8.27a.15.15,0,1,1-.28-.09Z" transform="translate(30.68)"/><path class="cls-8" d="M350.07,165.69a4.7,4.7,0,0,1-3.34,3.83c-.18,0-.26-.26-.07-.31a4.42,4.42,0,0,0,3.13-3.61c0-.2.32-.11.28.09Z" transform="translate(30.68)"/><path class="cls-8" d="M373.18,158.41a5.22,5.22,0,0,1-2.62,1.13c-.19,0-.19-.29,0-.32a4.91,4.91,0,0,0,2.47-1.08c.15-.12.3.15.15.27Z" transform="translate(30.68)"/><path class="cls-8" d="M389.47,151.73a8.59,8.59,0,0,0-6.27,2.82c-.14.15-.35-.08-.21-.22a8.91,8.91,0,0,1,6.48-2.91.16.16,0,0,1,0,.31Z" transform="translate(30.68)"/><path class="cls-8" d="M371.4,156.88a13.26,13.26,0,0,0-6.37,3.93c-.14.14-.35-.08-.21-.23a13.58,13.58,0,0,1,6.51-4c.18-.06.26.25.07.3Z" transform="translate(30.68)"/><path class="cls-8" d="M404.52,150.88a4.9,4.9,0,0,1-3.87.47c-.18,0-.1-.35.08-.3a4.59,4.59,0,0,0,3.65-.45c.16-.09.31.18.14.28Z" transform="translate(30.68)"/><path class="cls-8" d="M433.52,201.76c3.34,7.83.84,17.53-5.8,22.45-.15.11-.3-.16-.14-.28,6.48-4.81,8.95-14.34,5.69-22-.08-.19.17-.35.25-.16Z" transform="translate(30.68)"/><path class="cls-8" d="M439.21,204.32c2.49,12.5-4.46,22.73-13,30.44-.15.13-.36-.09-.21-.22,8.42-7.63,15.36-17.75,12.9-30.14,0-.2.24-.28.28-.08Z" transform="translate(30.68)"/><path class="cls-8" d="M385.94,259.91a52.38,52.38,0,0,0,14.49-6.11c.17-.1.31.18.15.28A53,53,0,0,1,386,260.21c-.18.05-.26-.26-.07-.3Z" transform="translate(30.68)"/><path class="cls-8" d="M310.89,235.69c4.51-3.14,9.78,3.94,11.42,7.63.09.18-.17.34-.25.16-1.59-3.56-6.68-10.54-11-7.52-.16.11-.31-.16-.15-.27Z" transform="translate(30.68)"/></g><path class="cls-9" d="M577.79,301.2S486,292.71,442.6,272.53s-56.38-14.34-64.86-12.75-24.94,8-42.9,5.85-37.91,2.65-46.39,10.08a16.71,16.71,0,0,1-3-15.93c3-9.55,31.43-17,47.89-44.07s0-70.62-34.42-57.87c0,0-11,6.9-12.47.53s.9-12.58,15.52-18.54c18.52-7.55,44.35,9,52.83,23.85,0,0,4,4.25,3-1.06s-11.47-21.24-24.45-30.8-39.9-12.21-40.4-19.12,9-15.66,36.62-3.91c24.52,10.44,47.68,45.86,47.68,45.86a108,108,0,0,0-15.46-30.26c-11-14.87-26.44-23.9-31.93-26.55s-9-12.22-1.49-14.87,57.86,21.77,65.85,69a120.53,120.53,0,0,0-1.5-22.84c-2-11.15-13-22.83-15.47-26s-3-10.09,4.49-9.56,30.93,27.08,28.94,61.59c0,0,3.49,47.26,29.43,54.16s140.68-.53,151.16-8S577.79,301.2,577.79,301.2Z" transform="translate(30.68)"/></g><path class="cls-10" d="M0,346.72H25.69L44.5,399.16l18.82-52.44H88.54L54.92,430.17H33.62Z" transform="translate(30.68)"/><path class="cls-10" d="M113.39,346.13h22.13l35.27,83.45H146.17l-6-14.8h-32l-5.92,14.8H78.12Zm20.12,50.78-9.23-23.56-9.35,23.56Z" transform="translate(30.68)"/><path class="cls-10" d="M178.84,346.72h23v62.73h40.12v20.13H178.84Z" transform="translate(30.68)"/><path class="cls-10" d="M244.17,388.39v-.24c0-23.79,19.18-43.09,44.74-43.09s44.51,19.06,44.51,42.85v.24c0,23.79-19.18,43.08-44.75,43.08S244.17,412.18,244.17,388.39Zm65.81,0v-.24c0-12-8.64-22.37-21.31-22.37S267.72,376,267.72,387.91v.24c0,12,8.65,22.37,21.19,22.37S310,400.34,310,388.39Z" transform="translate(30.68)"/><path class="cls-10" d="M345.37,346.72h39.17c12.67,0,21.43,3.32,27,9,4.85,4.73,7.34,11.12,7.34,19.29v.24c0,12.66-6.75,21.07-17.05,25.45l19.77,28.88H395.08l-16.69-25.1H368.33v25.1h-23Zm38.11,39.77c7.81,0,12.31-3.79,12.31-9.82v-.24c0-6.51-4.74-9.82-12.43-9.82h-15v19.88Z" transform="translate(30.68)"/><path class="cls-10" d="M430.46,346.72H497.1v19.53H453.19V378.8H493v18.11H453.19v13.14h44.5v19.53H430.46Z" transform="translate(30.68)"/><path class="cls-10" d="M503.13,417.27,515.92,402c8.16,6.51,17.28,9.94,26.87,9.94,6.15,0,9.46-2.13,9.46-5.68V406c0-3.43-2.72-5.32-14-7.93-17.64-4-31.25-9-31.25-26v-.24c0-15.38,12.19-26.51,32.08-26.51,14.08,0,25.09,3.79,34.08,11l-11.48,16.21c-7.57-5.32-15.86-8.16-23.2-8.16-5.56,0-8.28,2.36-8.28,5.32v.24c0,3.79,2.84,5.45,14.32,8.05,19.06,4.14,30.89,10.3,30.89,25.8V404c0,16.92-13.37,27-33.49,27C527.28,431,513.31,426.38,503.13,417.27Z" transform="translate(30.68)"/><path class="cls-10" d="M6.66,447.58h11.7v42H6.66Z" transform="translate(30.68)"/><path class="cls-10" d="M26,447.58H36.9l17.28,22.2v-22.2H65.7v42H55.5l-17.94-23v23H26Z" transform="translate(30.68)"/><path class="cls-10" d="M70,483.34l6.48-7.74a21.63,21.63,0,0,0,13.62,5c3.12,0,4.8-1.08,4.8-2.88v-.12c0-1.74-1.38-2.7-7.08-4-8.94-2-15.84-4.56-15.84-13.2v-.12c0-7.8,6.18-13.44,16.26-13.44,7.14,0,12.72,1.92,17.28,5.58l-5.82,8.22a21.06,21.06,0,0,0-11.76-4.14c-2.82,0-4.2,1.2-4.2,2.7v.12c0,1.92,1.44,2.76,7.26,4.08,9.66,2.1,15.66,5.22,15.66,13.08v.12c0,8.58-6.78,13.68-17,13.68C82.2,490.3,75.12,488,70,483.34Z" transform="translate(30.68)"/><path class="cls-10" d="M121.38,457.78h-12.6v-10.2h36.84v10.2H133v31.8H121.38Z" transform="translate(30.68)"/><path class="cls-10" d="M151,447.58h11.7v42H151Z" transform="translate(30.68)"/><path class="cls-10" d="M180.6,457.78H168v-10.2h36.84v10.2h-12.6v31.8H180.6Z" transform="translate(30.68)"/><path class="cls-10" d="M209.4,471.16V447.58h11.82v23.34c0,6.06,3.06,8.94,7.74,8.94s7.74-2.76,7.74-8.64V447.58h11.82v23.28c0,13.56-7.74,19.5-19.68,19.5S209.4,484.3,209.4,471.16Z" transform="translate(30.68)"/><path class="cls-10" d="M254,468.7v-.12c0-12.24,9.42-21.84,22.14-21.84,8.58,0,14.1,3.6,17.82,8.76l-8.76,6.78c-2.4-3-5.16-4.92-9.18-4.92-5.88,0-10,5-10,11.1v.12c0,6.3,4.14,11.22,10,11.22,4.38,0,7-2,9.48-5.1l8.76,6.24c-4,5.46-9.3,9.48-18.6,9.48A21.33,21.33,0,0,1,254,468.7Z" transform="translate(30.68)"/><path class="cls-10" d="M299.46,447.58h11.7v42h-11.7Z" transform="translate(30.68)"/><path class="cls-10" d="M317.4,468.7v-.12c0-12.06,9.72-21.84,22.68-21.84s22.56,9.66,22.56,21.72v.12c0,12.06-9.72,21.84-22.68,21.84S317.4,480.76,317.4,468.7Zm33.36,0v-.12c0-6.06-4.38-11.34-10.8-11.34s-10.62,5.16-10.62,11.22v.12c0,6.06,4.38,11.34,10.74,11.34S350.76,474.76,350.76,468.7Z" transform="translate(30.68)"/><path class="cls-10" d="M368.71,447.58h10.85l17.28,22.2v-22.2h11.52v42h-10.2l-17.94-23v23H368.71Z" transform="translate(30.68)"/><path class="cls-10" d="M430.33,447.28h11.22l17.87,42.3H446.94l-3.05-7.5h-16.2l-3,7.5H412.45ZM440.53,473l-4.68-11.94L431.11,473Z" transform="translate(30.68)"/><path class="cls-10" d="M463.51,447.58h11.64v31.8h20.34v10.2h-32Z" transform="translate(30.68)"/><path class="cls-10" d="M500.47,447.58h33.78v9.9H512v6.36h20.16V473H512v6.66h22.56v9.9H500.47Z" transform="translate(30.68)"/><path class="cls-10" d="M537.31,483.34l6.48-7.74a21.63,21.63,0,0,0,13.62,5c3.12,0,4.8-1.08,4.8-2.88v-.12c0-1.74-1.38-2.7-7.08-4-8.94-2-15.84-4.56-15.84-13.2v-.12c0-7.8,6.18-13.44,16.26-13.44,7.14,0,12.72,1.92,17.28,5.58L567,460.66a21.06,21.06,0,0,0-11.76-4.14c-2.82,0-4.2,1.2-4.2,2.7v.12c0,1.92,1.44,2.76,7.26,4.08C568,465.52,574,468.64,574,476.5v.12c0,8.58-6.78,13.68-17,13.68C549.55,490.3,542.47,488,537.31,483.34Z" transform="translate(30.68)"/></g></g></svg>