<svg xmlns="http://www.w3.org/2000/svg" viewBox="0 0 283.97 72.83"><defs><style>.cls-1{fill:#fff;}.cls-2{fill:#e70e28;}.cls-3{opacity:0.18;}.cls-4{opacity:0.05;}</style></defs><g id="Capa_2" data-name="Capa 2"><g id="Capa_2-2" data-name="Capa 2"><path class="cls-1" d="M0,14.36H16.63C32,14.36,41,23.22,41,35.66v.12c0,12.44-9.05,21.68-24.57,21.68H0ZM16.81,46.87c7.14,0,11.88-3.94,11.88-10.9v-.12C28.69,29,24,25,16.81,25H12V46.87Z"/><path class="cls-1" d="M98.27,14.36h11.14l17.74,22.78V14.36H139v43.1H128.5L110.09,33.81V57.46H98.27Z"/><path class="cls-1" d="M161.51,14.05H173l18.35,43.41H178.56l-3.14-7.7H158.8l-3.08,7.7H143.16ZM172,40.46l-4.8-12.25-4.86,12.25Z"/><path class="cls-2" d="M195.55,14.36h12.63L218.46,31l10.28-16.68h12.63v43.1H229.48V32.7l-11,16.88h-.25l-11-16.75V57.46h-11.7Z"/><path class="cls-2" d="M249,14.36h34.67V24.52H260.82V31h20.69v9.42H260.82V47.3H284V57.46H249Z"/><path class="cls-2" d="M46.86,43l-15,1.48A36.44,36.44,0,0,0,59.18,71.89L60.88,57A21.63,21.63,0,0,1,46.86,43Z"/><path class="cls-2" d="M87.94,29.73l14.93-1.66A36.47,36.47,0,0,0,75.8,1l-1.18,15.1A21.63,21.63,0,0,1,87.94,29.73Z"/><path class="cls-2" d="M60.2,16.07,59,1A36.47,36.47,0,0,0,32,27.9l15,1.53A21.67,21.67,0,0,1,60.2,16.07Z"/><path class="cls-2" d="M73.92,57,75.64,71.9a36.49,36.49,0,0,0,27.29-27.4L88,42.79A21.62,21.62,0,0,1,73.92,57Z"/><path class="cls-1" d="M67.42,58a21.41,21.41,0,0,1-6.54-1l-1.7,14.91a36.69,36.69,0,0,0,16.46,0L73.92,57A21.5,21.5,0,0,1,67.42,58Z"/><path class="cls-1" d="M67.42,14.84a21.52,21.52,0,0,1,7.2,1.23L75.8,1A36.77,36.77,0,0,0,59,1l1.18,15.1A21.59,21.59,0,0,1,67.42,14.84Z"/><path class="cls-1" d="M102.87,28.07,87.94,29.73A21.63,21.63,0,0,1,88,42.79l14.89,1.71a36.76,36.76,0,0,0-.06-16.43Z"/><path class="cls-1" d="M45.84,36.41a21.51,21.51,0,0,1,1.15-7L32,27.9a36.4,36.4,0,0,0-.11,16.56l15-1.48A21.61,21.61,0,0,1,45.84,36.41Z"/><path class="cls-3" d="M88,42.79l14.89,1.71s-.09.49-.22,1L87.94,43.1Z"/><path class="cls-3" d="M60.86,57l-1.7,14.89a8.85,8.85,0,0,1-1-.22l2.35-14.77Z"/><path class="cls-3" d="M47,29.45,32,28s.08-.5.21-1L47.1,29.12Z"/><path class="cls-3" d="M74.62,16.07,75.83,1s.49.14,1,.25l-1.89,15Z"/><g class="cls-4"><path d="M67.41,7.38A28.77,28.77,0,1,0,96.18,36.14,28.76,28.76,0,0,0,67.41,7.38ZM89,36.14A21.56,21.56,0,0,1,73.91,56.72a21.65,21.65,0,0,1-13,0h0v0l-.31-.1v0A21.6,21.6,0,0,1,47,29.17h0l.08-.28a21.58,21.58,0,0,1,40.85.57A21.38,21.38,0,0,1,89,36.14Z"/></g></g></g></svg>