<svg xmlns="http://www.w3.org/2000/svg" viewBox="0 0 294.96 58.87"><defs><style>.cls-1{fill:#cececd;}.cls-2{fill:#f1a1bc;}.cls-3{fill:#69bca2;}.cls-4{fill:#dc1c67;}.cls-5{fill:#fff;}.cls-6{fill:#1a1617;}.cls-7{fill:#eb6d2b;}</style></defs><g id="Capa_2" data-name="Capa 2"><g id="Capa_2-2" data-name="Capa 2"><g id="Color"><polygon class="cls-1" points="181.42 34.89 180.95 41.42 189.34 40.67 197.96 40.17 204.71 43.43 212.17 40.42 212.17 32.38 199.35 31.88 187.01 30.12 181.42 34.89"/><polygon class="cls-2" points="181.42 29.29 180.95 35.82 189.34 35.07 197.96 34.56 204.71 37.83 212.17 34.82 212.17 26.78 199.35 26.27 187.01 24.52 181.42 29.29"/><polygon class="cls-1" points="216.06 54.69 218.1 58.87 227.73 58.21 232.09 41.59 224.69 11.3 208.46 12.41 211.35 57.17 216.06 54.69"/><polygon class="cls-3" points="226.26 51.7 216.63 52.36 214.59 48.18 209.88 50.66 206.99 5.9 225.43 4.79 230.62 35.08 226.26 51.7"/><path class="cls-4" d="M212.69,45.25l-2.12-32.9,7.18-.5a7.15,7.15,0,0,1,4.1.65,4.39,4.39,0,0,1,1.88,2.67,22.69,22.69,0,0,1,.7,4.66,14.93,14.93,0,0,1-.33,4.89,3.57,3.57,0,0,1-2.34,2.49,2.65,2.65,0,0,1,1.6.66,4.27,4.27,0,0,1,1.09,1.86,18.63,18.63,0,0,1,.72,3.47c.19,1.46.36,3.29.5,5.51l.06.92c0,.4.06.83.11,1.31s.09.94.14,1.4.1.86.16,1.21a2.87,2.87,0,0,0,.21.77l-4,.27a2.9,2.9,0,0,1-.19-.73c-.06-.39-.13-.9-.2-1.53s-.13-1.39-.2-2.27-.14-1.86-.21-3-.15-2.29-.23-3.58a18.51,18.51,0,0,0-.35-2.84,1.85,1.85,0,0,0-.87-1.31,4.28,4.28,0,0,0-2-.33l-2.4,0,1,15.89Zm2.82-19,2.58-.17a2.87,2.87,0,0,0,1.67-.54,2.52,2.52,0,0,0,.7-1.74,24.25,24.25,0,0,0,0-3.8v-.22a18.57,18.57,0,0,0-.41-3.16,2.06,2.06,0,0,0-.88-1.39,3.33,3.33,0,0,0-1.8-.26l-2.53.18Z"/><polygon class="cls-1" points="235.5 15.23 232.03 29.05 236.33 36.27 235.54 47.34 239.24 52.13 262.36 48.98 260.76 41.54 263.46 32.15 261.28 15.2 254.88 15.98 249.29 11.55 235.5 15.23"/><polygon class="cls-5" points="259.9 43.2 236.77 46.35 233.08 41.56 233.87 30.49 229.56 23.27 233.03 9.45 246.82 5.77 252.42 10.2 258.81 9.42 261 26.37 258.3 35.76 259.9 43.2"/><path class="cls-6" d="M247.24,23.72q0,.93.06,2.25l0,1.21L248,41l5.55-.75,3.92-.53c.65-.08,1,.12,1,.59a.65.65,0,0,1-.47.74c-.07,0-.52.09-1.35.2l-18.6,2.28,0-1-.25-6.71-.22-7.18-.63-12.44L254.29,14a6.4,6.4,0,0,1,1.33-.1c.26,0,.39.25.41.62a.7.7,0,0,1-.7.78l-.11,0-8.21.88.18,6.23,1.79-.2,5.72-.82,1.26-.18a2.06,2.06,0,0,1,.92,0c.15.08.23.26.24.55,0,.52-.33.83-1.05.92l-1.29.11Z"/><polygon class="cls-1" points="60.59 16.37 43.06 7.96 29.97 26.17 34.07 50.13 46.87 53.73 60.28 47.51 60.59 16.37"/><polygon class="cls-5" points="44.48 47.92 31.69 44.32 27.59 20.35 40.68 2.14 58.21 10.55 57.9 41.7 44.48 47.92"/><path class="cls-6" d="M42.65,13.63l.41,13.47.51,11.42a7.85,7.85,0,0,0,1.34,0,8.65,8.65,0,0,0,3.09-1,10.6,10.6,0,0,0,2.75-2.16,14.22,14.22,0,0,0,1.57-2.18,16,16,0,0,0,1.26-2.58c.18-.48.39-.73.62-.76s.51.11.53.46a5.37,5.37,0,0,1-.7,2,17.57,17.57,0,0,1-1.6,2.65,11.86,11.86,0,0,1-4.55,3.83,10.12,10.12,0,0,1-3.08.94,9.07,9.07,0,0,1-4.41-.59,10.43,10.43,0,0,1-5.55-5,15.17,15.17,0,0,1-1.77-6.7,17,17,0,0,1,1.32-7.22,14.09,14.09,0,0,1,4.59-6,10.21,10.21,0,0,1,4.81-1.94,9.19,9.19,0,0,1,7.86,2.73c1.08,1.05,1.63,1.83,1.65,2.35a.61.61,0,0,1-.14.4.52.52,0,0,1-.34.22c-.2,0-.46-.19-.77-.65A8.86,8.86,0,0,0,48.4,14.1a8.35,8.35,0,0,0-4.67-.74A4.75,4.75,0,0,0,42.65,13.63Z"/><polygon class="cls-1" points="93.67 19.36 77.49 8.58 61.98 24.79 62.69 49.09 74.86 54.44 89.02 50.15 93.67 19.36"/><polygon class="cls-7" points="73.32 48.35 61.15 43 60.44 18.7 75.94 2.49 92.13 13.27 87.47 44.06 73.32 48.35"/><path class="cls-3" d="M76.29,14.14l-1.48,13.4L73.72,38.92a10.14,10.14,0,0,0,1.33.15,8.87,8.87,0,0,0,3.21-.61,10.64,10.64,0,0,0,3-1.76,13.47,13.47,0,0,0,1.85-1.94,15.65,15.65,0,0,0,1.62-2.37c.24-.45.48-.68.71-.67s.5.18.46.53a5.23,5.23,0,0,1-1,1.91A18.18,18.18,0,0,1,83,36.56a12,12,0,0,1-5,3.16,10.4,10.4,0,0,1-3.19.5A8.91,8.91,0,0,1,70.5,39a10.46,10.46,0,0,1-4.79-5.77,15.17,15.17,0,0,1-.82-6.89,17,17,0,0,1,2.32-7,14.09,14.09,0,0,1,5.37-5.28,10.28,10.28,0,0,1,5-1.24,9.14,9.14,0,0,1,7.4,3.8c.93,1.19,1.36,2,1.31,2.56a.6.6,0,0,1-.2.37.49.49,0,0,1-.36.17c-.21,0-.43-.25-.67-.75a8.93,8.93,0,0,0-3.18-3.62A8.37,8.37,0,0,0,77.4,14,4.55,4.55,0,0,0,76.29,14.14Z"/><polygon class="cls-1" points="110.27 14.36 107.64 17.89 98.53 15.46 94.32 34.59 96.51 37.3 92.66 53.71 96.51 56.88 101.78 53.16 107.64 54.86 115.73 49.18 111.51 38.76 120.54 15.84 110.27 14.36"/><polygon class="cls-4" points="104.5 49.42 98.64 47.72 93.37 51.44 89.52 48.26 93.37 31.85 91.18 29.15 95.39 10.01 104.5 12.45 107.13 8.91 117.4 10.4 108.37 33.32 112.59 43.74 104.5 49.42"/><path class="cls-2" d="M98.85,20l-.06,0a2,2,0,0,1-.07-.59c0-.39,0-.92,0-1.58a1.35,1.35,0,0,1,.15-.53,2.49,2.49,0,0,1,.49-.7,5.37,5.37,0,0,1,.92-.74,6.61,6.61,0,0,1,1.43-.67,11.47,11.47,0,0,1,2-.48,16.46,16.46,0,0,1,2.7-.19,10.77,10.77,0,0,1,2.06.16,3.28,3.28,0,0,1,1.12.42,1.08,1.08,0,0,1,.46.6,2.8,2.8,0,0,1,.09.7,3.38,3.38,0,0,1-.07.72,1.11,1.11,0,0,1-.35.63,1.94,1.94,0,0,1-.84.44,5.28,5.28,0,0,1-1.54.17,6.58,6.58,0,0,1-.88,0c-.25,1.17-.46,2.24-.65,3.21s-.34,1.87-.5,2.68-.29,1.59-.43,2.31-.26,1.44-.4,2.17-.28,1.49-.43,2.3-.31,1.66-.5,2.58-.41,2-.64,3.11-.5,2.46-.81,3.94l.37,0c.19,0,.41.06.66.11s.52.13.8.22a3.56,3.56,0,0,1,.77.32,2,2,0,0,1,.57.46.88.88,0,0,1,.23.6c0,.46-.32.9-1,1.34H98.41q-1,0-1.89,0H94.91l-1.12,0a1.24,1.24,0,0,1-.42,0s0-.09.13-.16l.29-.29a2.54,2.54,0,0,0,.3-.47,1.82,1.82,0,0,0,.19-.68c0-.19.17-.36.46-.53a5.26,5.26,0,0,1,1-.46A9.42,9.42,0,0,1,97,40.73a11,11,0,0,1,1.2-.18c.3-1.45.6-2.89.89-4.33s.58-2.89.83-4.35.53-2.83.81-4.1.55-2.45.81-3.57.48-2.14.68-3.08.39-1.76.6-2.44l-.87.14c-.25,0-.47.09-.67.14s-.38.12-.55.19-.36.14-.54.22l-.61.28Z"/><polygon class="cls-1" points="294.96 14.26 277.44 5.82 264.32 24.01 268.38 47.98 281.17 51.6 294.59 45.4 294.96 14.26"/><polygon class="cls-4" points="278.8 45.78 266 42.16 261.95 18.19 275.07 0 292.59 8.44 292.22 39.58 278.8 45.78"/><path class="cls-2" d="M277,11.49,277.4,25l.5,11.42a9.23,9.23,0,0,0,1.34,0,8.85,8.85,0,0,0,3.09-1.05,10.79,10.79,0,0,0,2.76-2.15A14.22,14.22,0,0,0,286.66,31a17,17,0,0,0,1.27-2.58c.18-.48.38-.73.61-.76s.52.11.53.47a5.35,5.35,0,0,1-.7,2,18.44,18.44,0,0,1-1.6,2.65,11.94,11.94,0,0,1-4.56,3.82,10.38,10.38,0,0,1-3.09.94,9,9,0,0,1-4.4-.6,10.44,10.44,0,0,1-5.54-5.06,15.07,15.07,0,0,1-1.76-6.7A17,17,0,0,1,268.75,18a14,14,0,0,1,4.6-6,10,10,0,0,1,4.81-1.93A9.17,9.17,0,0,1,286,12.8c1.08,1,1.63,1.83,1.64,2.35a.56.56,0,0,1-.14.4.47.47,0,0,1-.33.21c-.21,0-.47-.19-.77-.64A8.88,8.88,0,0,0,282.77,12a8.25,8.25,0,0,0-4.66-.74A4.07,4.07,0,0,0,277,11.49Z"/><polygon class="cls-1" points="3.48 54.49 18.3 57.36 31.14 57.36 36.07 42.84 31.14 36.18 31.14 23.07 21.7 16.55 9.65 20.06 5.32 29.69 7.75 38.58 3.48 42.84 3.48 54.49"/><polygon class="cls-3" points="14.82 51.33 0 48.46 0 36.81 4.27 32.55 1.84 23.66 6.17 14.03 18.22 10.52 27.66 17.04 27.66 30.14 32.59 36.81 27.66 51.33 14.82 51.33"/><path class="cls-2" d="M27.62,45.61H15.45V40.68h2.88l-.64-2.55H11.47l-.64,2.55H13.2v4.93H3.55V40.68H5.61l4.1-16.49H8.47V19.34H20.12l5.37,21.34h2.13Zm-15-12h4l-2-8.11Z"/><path class="cls-4" d="M26.19,44H14V39H16.9l-.64-2.56H10L9.4,39h2.37V44H2.12V39H4.18l4.1-16.5H7V17.68H18.69L24.06,39h2.13Zm-15-12h4l-2-8.11Z"/><polygon class="cls-1" points="139.88 54.83 149.96 34.81 146.7 27.28 146.7 16.63 137.58 11.18 122.17 20.5 116.45 48.7 121.06 49.02 121.06 54.83 139.88 54.83"/><polygon class="cls-3" points="136.65 49.23 117.83 49.23 117.83 43.42 113.21 43.09 118.94 14.89 139.06 3.44 142.8 7.17 137.73 12.51 145.2 17.85 145.73 26.92 136.65 49.23"/><path class="cls-6" d="M129.28,45.87a6.68,6.68,0,0,1-3.61-1A8.64,8.64,0,0,1,122.92,42a14.55,14.55,0,0,1-1.73-4.31,23.1,23.1,0,0,1-.61-5.5,29,29,0,0,1,.19-3.31,28.39,28.39,0,0,1,.57-3.38,31.35,31.35,0,0,1,1-3.31,22.24,22.24,0,0,1,1.33-3.06,18.34,18.34,0,0,1,1.71-2.66,11.5,11.5,0,0,1,2.08-2.1A9.25,9.25,0,0,1,129.87,13a8,8,0,0,1,2.82-.5,7.13,7.13,0,0,1,3.62.91A7.93,7.93,0,0,1,139,16a12.51,12.51,0,0,1,1.68,3.88,19.75,19.75,0,0,1,.59,5,31.55,31.55,0,0,1-.36,4.65,35.15,35.15,0,0,1-1,4.76,27.21,27.21,0,0,1-1.71,4.44,18.09,18.09,0,0,1-2.35,3.71,10.93,10.93,0,0,1-3,2.54A7.06,7.06,0,0,1,129.28,45.87Zm.33-3.87a4.12,4.12,0,0,0,2-.52,6.64,6.64,0,0,0,1.7-1.43,11.25,11.25,0,0,0,1.41-2.13,19.38,19.38,0,0,0,1.14-2.61,28.76,28.76,0,0,0,.87-2.9c.25-1,.45-2,.62-2.95s.28-1.92.35-2.82.12-1.72.12-2.46a15.45,15.45,0,0,0-.29-3,8.54,8.54,0,0,0-.85-2.47A4.66,4.66,0,0,0,135.25,17a3.43,3.43,0,0,0-2-.61,4.35,4.35,0,0,0-2.4.75,9.3,9.3,0,0,0-2.18,2,16.14,16.14,0,0,0-1.88,2.94,25,25,0,0,0-1.45,3.52,25.65,25.65,0,0,0-.94,3.77,20.52,20.52,0,0,0-.34,3.66,15.81,15.81,0,0,0,.38,3.54,9.83,9.83,0,0,0,1.11,2.83,5.77,5.77,0,0,0,1.75,1.88A4.19,4.19,0,0,0,129.61,42Z"/><path class="cls-4" d="M126.72,45.25a6.68,6.68,0,0,1-3.61-1,8.64,8.64,0,0,1-2.75-2.82,14.55,14.55,0,0,1-1.73-4.31,23,23,0,0,1-.61-5.5,29,29,0,0,1,.19-3.31,30.58,30.58,0,0,1,.57-3.38,31.17,31.17,0,0,1,1-3.3,22.37,22.37,0,0,1,1.33-3.07,18.34,18.34,0,0,1,1.71-2.66,11.82,11.82,0,0,1,2.08-2.1,9.71,9.71,0,0,1,2.45-1.37,8,8,0,0,1,2.82-.5,7.13,7.13,0,0,1,3.62.91,8,8,0,0,1,2.7,2.53,12.51,12.51,0,0,1,1.68,3.88,19.81,19.81,0,0,1,.59,5,31.55,31.55,0,0,1-.36,4.65,36.7,36.7,0,0,1-1,4.76,28.18,28.18,0,0,1-1.72,4.44,17.68,17.68,0,0,1-2.35,3.71,11,11,0,0,1-3,2.54A7.12,7.12,0,0,1,126.72,45.25Zm.33-3.87a4.12,4.12,0,0,0,2-.52,6.48,6.48,0,0,0,1.7-1.43,11.78,11.78,0,0,0,1.42-2.13,20.71,20.71,0,0,0,1.13-2.61,26.88,26.88,0,0,0,.87-2.89c.25-1,.45-2,.62-3s.28-1.92.35-2.82.12-1.72.12-2.46a15.45,15.45,0,0,0-.29-3,8.54,8.54,0,0,0-.85-2.47,4.66,4.66,0,0,0-1.44-1.65,3.43,3.43,0,0,0-2-.61,4.35,4.35,0,0,0-2.4.75,9.3,9.3,0,0,0-2.18,2,16.11,16.11,0,0,0-1.87,2.94A23.88,23.88,0,0,0,122.75,25a27,27,0,0,0-.94,3.77,20.61,20.61,0,0,0-.34,3.66,15.81,15.81,0,0,0,.38,3.54A9.83,9.83,0,0,0,123,38.82a5.77,5.77,0,0,0,1.75,1.88A4.19,4.19,0,0,0,127.05,41.38Z"/><polygon class="cls-1" points="166.8 48.67 168.21 52.79 181.75 50.81 187.35 23.52 174.74 6.82 171.05 18.43 163.59 12.09 153.7 11.64 150.44 33.86 158.87 52.79 166.8 48.67"/><polygon class="cls-7" points="178.51 45.2 164.97 47.18 163.57 43.07 155.63 47.18 147.21 28.26 150.47 6.03 160.35 6.48 167.82 12.82 171.5 1.21 184.12 17.91 178.51 45.2"/><path class="cls-3" d="M174.1,25.6V22.38l0-5.09,0-2.33,0-1.47c0-.69.2-1,.58-1a.49.49,0,0,1,.47.24,2.08,2.08,0,0,1,.13.91v.27c0,.27,0,.71,0,1.32l-.06,6.48,0,5.94,0,6.25.05,6.27q-3.19-2.49-9.36-6.86t-10-6.88l0,1,.16,9.92V38.6c0,.55-.21.82-.62.82s-.64-.33-.64-1l0-1.35V34.89l.07-9.86-.13-13.29Q161,16.57,174.1,25.6Z"/><path class="cls-6" d="M191.12,29.2l.14,3.41,13.15-.53-.15-3.65S191,29.32,191.12,29.2Z"/><path d="M133.71,10.79l1.37,1.61,6.22-5.26-1.46-1.73S133.7,10.89,133.71,10.79Z"/><path class="cls-4" d="M132.91,10l1.37,1.61,6.22-5.26L139,4.61S132.9,10.09,132.91,10Z"/></g></g></g></svg>