<svg xmlns="http://www.w3.org/2000/svg" viewBox="0 0 173.88 173.74"><defs><style>.cls-1,.cls-2{stroke:#000;stroke-miterlimit:10;}.cls-1{stroke-width:0.38px;}.cls-2{fill:#f2951c;stroke-width:0.77px;}.cls-3{fill:#fff;}</style></defs><g id="Capa_2" data-name="Capa 2"><g id="Capa_2-2" data-name="Capa 2"><g id="Color"><rect class="cls-1" x="18.34" y="109" width="151.41" height="60.76" transform="translate(-6.89 4.91) rotate(-2.88)"/><path class="cls-2" d="M30.57,121.36l11.62-.58L43,136.47l14.9-.76L57.09,120l11.62-.59,2.11,41.91-11.61.59L58.4,146l-14.9.75.8,15.93-11.62.58Z"/><path class="cls-2" d="M90.61,118l11.19-.56,20,41.3-12.45.63-3.43-7.33-16.17.82-2.62,7.63-12.21.62Zm11.47,25.17-5.27-11.68-4.13,12.15Z"/><path class="cls-2" d="M130.56,142.62,113.31,117.2l13.23-.67,9.39,14.83,7.92-15.7,13-.66-14.62,26.85.8,15.86-11.67.59Z"/><path class="cls-3" d="M23.31,25.52v-.13C23.31,11.16,34.26,0,49,0,59,0,65.43,4.18,69.76,10.18L59.58,18.06c-2.79-3.48-6-5.72-10.68-5.72-6.83,0-11.64,5.79-11.64,12.91v.14c0,7.32,4.81,13,11.64,13,5.1,0,8.09-2.37,11-5.93l10.19,7.25c-4.61,6.35-10.81,11-21.62,11A24.79,24.79,0,0,1,23.31,25.52Z"/><path class="cls-3" d="M92.35.63H105.4l20.78,49.16H111.67l-3.55-8.71H89.29L85.8,49.79H71.57Zm11.86,29.92L98.77,16.67,93.26,30.55Z"/><path class="cls-3" d="M128.41,28.38V1h13.74V28.11c0,7,3.56,10.39,9,10.39s9-3.21,9-10V1h13.74V28c0,15.76-9,22.66-22.87,22.66S128.41,43.66,128.41,28.38Z"/><path class="cls-3" d="M0,81.4H70.28V93.05H0Z"/><path class="cls-3" d="M73.69,101.76l7.53-9a25.21,25.21,0,0,0,15.84,5.85c3.62,0,5.58-1.25,5.58-3.34v-.14c0-2-1.61-3.14-8.23-4.68C84,88.09,76,85.16,76,75.12V75c0-9.06,7.19-15.62,18.9-15.62,8.3,0,14.79,2.23,20.09,6.49l-6.77,9.55a24.44,24.44,0,0,0-13.66-4.81c-3.28,0-4.89,1.39-4.89,3.14v.14c0,2.23,1.68,3.2,8.44,4.74,11.23,2.44,18.2,6.07,18.2,15.2V94c0,10-7.88,15.9-19.73,15.9C87.92,109.85,79.69,107.13,73.69,101.76Z"/><path class="cls-3" d="M138.69,59.85h13L172.52,109H158l-3.56-8.72H135.62L132.14,109H117.91Zm11.86,29.92-5.44-13.88L139.6,89.77Z"/></g></g></g></svg>